<?xml version="1.0" encoding="UTF-8" standalone="no"?>
<svg
   xmlns:dc="http://purl.org/dc/elements/1.1/"
   xmlns:cc="http://creativecommons.org/ns#"
   xmlns:rdf="http://www.w3.org/1999/02/22-rdf-syntax-ns#"
   xmlns:svg="http://www.w3.org/2000/svg"
   xmlns="http://www.w3.org/2000/svg"
   id="svg2"
   style="clip-rule:evenodd;fill-rule:evenodd;stroke-linejoin:round;stroke-miterlimit:1.41420996"
   xml:space="preserve"
   version="1.1"
   viewBox="0 0 60 60"
   height="60"
   width="60"><metadata
     id="metadata21"><rdf:RDF><cc:Work
         rdf:about=""><dc:format>image/svg+xml</dc:format><dc:type
           rdf:resource="http://purl.org/dc/dcmitype/StillImage" /><dc:title></dc:title></cc:Work></rdf:RDF></metadata><defs
     id="defs19" /><g
     transform="matrix(0.19997959,0,0,0.19995118,0.00612242,3.3238395e-4)"
     id="g4"><g
       id="Background_circle"><g
         id="g7"><circle
           id="circle9"
           style="fill:#ffffff"
           r="150"
           cy="150"
           cx="150" /><path
           id="path11"
           d="m 150.485,0.001 c 49.5244,-0.30805092 97.99005,26.13918 124.885,67.66 29.14949,43.41669 32.66869,102.35469 9.029,148.98 -22.3226,45.72399 -69.26524,78.27982 -120.017,82.677 C 116.79963,304.27157 67.626954,284.53159 36.597,248.141 4.2284143,211.43134 -7.8772602,158.34647 5.079,111.186 18.20087,60.591626 59.782145,18.758853 110.292,5.321 c 13.07378,-3.5887368 26.6371,-5.36778112 40.193,-5.32 z m -0.919,16 C 104.07954,15.682674 59.676029,40.73106 36.035,79.522 10.237529,120.258 9.3382219,175.08668 33.754,216.66 c 22.507056,39.83833 66.53845,66.428 112.351,67.284 44.86675,1.74378 89.5149,-21.18229 114.552,-58.394 27.38615,-39.18451 30.93913,-93.31402 9.052,-135.793 C 249.0838,48.105271 205.50868,18.954337 159.041,16.3 c -3.15359,-0.209033 -6.31449,-0.309606 -9.475,-0.299 z"
           style="fill:#2d67b9" /></g></g><g
       id="g13"
       transform="translate(0,-6.69727)"><path
         id="path15"
         style="fill:#2d67b9"
         d="m 210.025,221.534 -118.119,0 0,0 c -21.734,-0.004 -39.378,-17.65 -39.378,-39.385 0,-19.275 13.877,-35.335 32.177,-38.725 0.182,-35.883 29.37,-64.958 65.295,-64.958 35.925,0 65.113,29.075 65.295,64.958 18.3,3.39 32.177,19.45 32.177,38.725 0,21.087 -16.609,38.326 -37.447,39.338 l 0,0.047 z m -2.802,-15.929 c 0.287,0.01 0.575,0.015 0.865,0.015 12.954,0 23.471,-10.517 23.471,-23.471 0,-11.115 -7.742,-20.435 -18.124,-22.858 l -0.006,0.026 c -0.884,-0.215 -1.787,-0.38 -2.707,-0.492 -0.865,-0.098 -1.744,-0.147 -2.634,-0.147 -4.025,0 -7.814,1.015 -11.126,2.803 1.984,-5.385 3.068,-11.204 3.068,-17.274 0,-16.41 -7.917,-30.984 -20.137,-40.11 -8.32,-6.282 -18.675,-10.009 -29.893,-10.009 -11.218,0 -21.573,3.727 -29.893,10.009 -12.22,9.126 -20.137,23.7 -20.137,40.11 0,6.07 1.084,11.889 3.068,17.274 -3.312,-1.788 -7.101,-2.803 -11.126,-2.803 -0.825,0 -1.64,0.042 -2.444,0.126 -0.985,0.113 -1.952,0.287 -2.896,0.517 l -0.007,-0.03 c -10.382,2.423 -18.124,11.743 -18.124,22.858 0,12.954 10.517,23.471 23.471,23.471 0.29,0 0.578,-0.005 0.865,-0.015 0.248,0.024 0.499,0.037 0.753,0.037 l 29.987,0 -0.018,0.024 53.002,0 -0.018,-0.024 29.987,0 c 0.254,0 0.505,-0.013 0.753,-0.037 z" /></g></g></svg>
