<?xml version="1.0" encoding="UTF-8" standalone="no"?>
<svg
   xmlns:dc="http://purl.org/dc/elements/1.1/"
   xmlns:cc="http://creativecommons.org/ns#"
   xmlns:rdf="http://www.w3.org/1999/02/22-rdf-syntax-ns#"
   xmlns:svg="http://www.w3.org/2000/svg"
   xmlns="http://www.w3.org/2000/svg"
   id="svg6731"
   style="clip-rule:evenodd;fill-rule:evenodd;stroke-miterlimit:1.5"
   xml:space="preserve"
   version="1.1"
   viewBox="0 0 60 60"
   height="60"
   width="60"><metadata
     id="metadata6737"><rdf:RDF><cc:Work
         rdf:about=""><dc:format>image/svg+xml</dc:format><dc:type
           rdf:resource="http://purl.org/dc/dcmitype/StillImage" /><dc:title></dc:title></cc:Work></rdf:RDF></metadata><defs
     id="defs6735" /><g
     transform="matrix(0.19997959,0,0,0.19995118,0.00612242,3.3238395e-4)"
     id="Background_circle"><g
       id="g6682"><circle
         id="circle6678"
         style="fill:#ffffff"
         r="150"
         cy="150"
         cx="150" /><path
         id="path6680"
         d="m 150.485,0.001 c 49.5244,-0.30805092 97.99005,26.13918 124.885,67.66 29.14949,43.41669 32.66869,102.35469 9.029,148.98 -22.3226,45.72399 -69.26524,78.27982 -120.017,82.677 C 116.79963,304.27157 67.626954,284.53159 36.597,248.141 4.2284143,211.43134 -7.8772602,158.34647 5.079,111.186 18.20087,60.591626 59.782145,18.758853 110.292,5.321 c 13.07378,-3.5887368 26.6371,-5.36778112 40.193,-5.32 z m -0.919,16 C 104.07954,15.682674 59.676029,40.73106 36.035,79.522 10.237529,120.258 9.3382219,175.08668 33.754,216.66 c 22.507056,39.83833 66.53845,66.428 112.351,67.284 44.86675,1.74378 89.5149,-21.18229 114.552,-58.394 27.38615,-39.18451 30.93913,-93.31402 9.052,-135.793 C 249.0838,48.105271 205.50868,18.954337 159.041,16.3 c -3.15359,-0.209033 -6.31449,-0.309606 -9.475,-0.299 z"
         style="fill:#2d67b9" /></g><g
       id="g6716"
       transform="matrix(0.842998,0,0,0.842998,23.5504,20.6909)"><g
         id="g6688"
         transform="matrix(0.914248,0,0,1.64663,12.8627,21.2131)"><path
           id="path6684"
           style="fill:#ffffff"
           d="m 259.395,93.085 c 0,-8.208 -12.003,-14.873 -26.787,-14.873 H 67.392 c -14.784,0 -26.787,6.665 -26.787,14.873 v 29.746 c 0,8.209 12.003,14.873 26.787,14.873 h 165.216 c 14.784,0 26.787,-6.664 26.787,-14.873 z" /><path
           id="path6686"
           d="m 232.781,78.213 c 8.49578,0.1417 17.78654,2.002519 23.9,8.346 2.53718,2.575038 3.0731,6.335888 2.714,9.793513 -0.10793,9.328897 0.20579,18.684007 -0.138,27.998487 -1.36874,6.20139 -7.78471,9.55674 -13.32,11.381 -9.69784,3.147 -20.03365,1.60102 -30.02962,1.972 -50.30446,-0.0397 -100.61155,0.0792 -150.91438,-0.059 -7.981009,-0.50505 -16.723774,-2.56004 -22.153,-8.861 -2.814776,-3.11982 -2.281921,-7.54621 -2.235,-11.39885 0.109753,-8.60231 -0.208346,-17.23134 0.138,-25.81915 1.368169,-6.20202 7.784909,-9.5566 13.32,-11.382 9.698191,-3.145549 20.033562,-1.601793 30.029619,-1.972 49.562791,6.67e-4 99.125591,-0.0013 148.688381,10e-4 z M 67.417,86.857 c -3.898373,0.07117 -8.568098,0.94707 -10.8,4.486 -1.143058,2.702455 -0.07246,5.819484 -0.442,8.654082 0.09373,7.899358 -0.173891,15.829288 0.109,23.712918 1.161317,3.45451 5.226326,4.68532 8.5,5.181 7.514526,0.46611 15.072141,0.004 22.600132,0.168 48.935398,-0.0413 97.875198,0.0822 146.807868,-0.061 3.52921,-0.3474 7.87615,-1.43829 9.432,-4.981 0.61927,-3.48008 -0.0397,-7.11469 0.201,-10.63848 -0.10853,-7.06424 0.19837,-14.165457 -0.119,-21.21152 -1.2235,-3.490668 -5.36223,-4.698329 -8.692,-5.167 -8.6623,-0.390828 -17.35706,-0.0067 -26.0297,-0.143 -47.1891,0 -94.3782,0 -141.5673,0 z"
           style="fill:#2d67b9" /></g><g
         id="g6694"
         transform="matrix(0.679342,0,0,0.374249,48.0987,175.709)"><path
           id="path6690"
           style="fill:#ffffff"
           d="m 259.395,93.085 c 0,-8.208 -3.671,-14.873 -8.193,-14.873 H 48.798 c -4.522,0 -8.193,6.665 -8.193,14.873 v 29.746 c 0,8.209 3.671,14.873 8.193,14.873 h 202.404 c 4.522,0 8.193,-6.664 8.193,-14.873 z" /><path
           id="path6692"
           d="m 251.308,78.214 c 9.31551,2.496445 8.08573,15.092684 8.087,22.62067 -0.44069,9.35094 0.91519,18.86223 -0.724,28.11533 -0.88355,4.61394 -4.47591,9.95029 -9.85352,8.754 -66.98425,-0.0649 -133.98631,0.12969 -200.95948,-0.097 -6.016632,-2.14101 -7.225809,-9.7504 -7.253,-15.37213 C 40.8913,111.05508 40.054151,99.808991 40.973,88.665 41.645498,83.854183 44.717315,77.246814 50.586387,78.212 117.49358,78.2133 184.40083,78.2093 251.308,78.214 Z M 49.335,94.061 c 0,9.265 0,18.53 0,27.795 67.11,0 134.22,0 201.33,0 0,-9.265 0,-18.53 0,-27.795 -67.11,0 -134.22,0 -201.33,0 z"
           style="fill:#2d67b9" /></g><g
         id="g6698"
         transform="matrix(1.02318,0,0,1.02318,45.8158,63.0004)"><circle
           id="circle6696"
           style="fill:#2d67b9"
           r="7.8189998"
           cy="115.417"
           cx="37.462002" /></g><g
         id="g6702"
         transform="matrix(1.02318,0,0,1.02318,69.6871,63.0004)"><circle
           id="circle6700"
           style="fill:#2d67b9"
           r="7.8189998"
           cy="115.417"
           cx="37.462002" /></g><g
         id="g6708"
         transform="matrix(1.37116,0,0,1,31.6697,123.899)"><rect
           id="rect6704"
           style="fill:#2d67b9"
           height="9.5220003"
           width="102.046"
           y="82.691002"
           x="35.437" /><rect
           id="rect6706"
           style="fill:#2d67b9"
           height="9.5220003"
           width="102.046"
           y="82.691002"
           x="35.437" /></g><g
         id="g6714"
         transform="matrix(0.381081,0,0,1,144.69,7.04087)"><path
           id="path6710"
           style="fill:#2d67b9"
           d="m 208.951,169.32 c 0,-1.287 -2.742,-2.332 -6.12,-2.332 H 162.19 c -3.378,0 -6.12,1.045 -6.12,2.332 0,1.287 2.742,2.332 6.12,2.332 h 40.641 c 3.378,0 6.12,-1.045 6.12,-2.332 z" /><path
           id="path6712"
           d="m 172.081,167.227 c -0.68619,1.38428 -0.62913,3.07823 0.121,4.425 -3.64145,-0.0172 -7.28422,0.0345 -10.92485,-0.026 -1.61206,-0.12601 -3.33616,-0.35367 -4.66615,-1.347 -0.54938,-0.37969 -0.75064,-1.2185 -0.219,-1.707 1.01174,-0.98695 2.48996,-1.25181 3.836,-1.462 2.05219,-0.23375 4.12348,-0.0756 6.18392,-0.122 1.93002,0 3.86005,0 5.79008,0 -0.0403,0.0797 -0.0807,0.15933 -0.121,0.239 z m 30.908,-0.239 c 1.78737,0.0497 3.67768,0.24677 5.223,1.22 0.58388,0.34171 1.02176,1.1582 0.507,1.75 -0.87238,0.99276 -2.26564,1.2715 -3.506,1.51 -2.11824,0.32568 -4.26964,0.13063 -6.40287,0.184 -1.99704,0 -3.99409,0 -5.99113,0 0.79991,-1.42573 0.80058,-3.23848 0,-4.664 3.39,0 6.78,0 10.17,0 z"
           style="fill:#2d67b9" /></g></g><g
       id="g6728"
       transform="matrix(0.842998,0,0,0.842998,23.5504,20.6909)"><g
         id="g6722"><path
           id="path6718"
           style="fill:#ffffff"
           d="m 178.679,120.543 v 6.552 h -67.798 v -6.552 z m 0,-18.573 v 6.551 h -67.798 v -6.551 z m 0,-18.574 v 6.552 h -67.798 v -6.552 z" /><path
           id="path6720"
           style="fill:#2d67b9"
           d="m 178.679,127.095 h -67.798 v -6.552 h 67.798 z m 0,-18.574 h -67.798 v -6.551 h 67.798 z m 0,-18.573 h -67.798 v -6.552 h 67.798 z" /></g><g
         id="g6726"
         transform="translate(0.332323,2.43782)"><path
           id="path6724"
           style="fill:#2d67b9;fill-opacity:0;stroke:#2d67b9;stroke-width:14.22999954px"
           d="M 93.88,138.674 V 56.386 h 111.576 v 82.288" /></g></g></g></svg>
