<?xml version="1.0" encoding="UTF-8" standalone="no"?>
<svg
   xmlns:dc="http://purl.org/dc/elements/1.1/"
   xmlns:cc="http://creativecommons.org/ns#"
   xmlns:rdf="http://www.w3.org/1999/02/22-rdf-syntax-ns#"
   xmlns:svg="http://www.w3.org/2000/svg"
   xmlns="http://www.w3.org/2000/svg"
   id="svg654"
   style="clip-rule:evenodd;fill-rule:evenodd;stroke-linejoin:round;stroke-miterlimit:1.41420996"
   xml:space="preserve"
   version="1.1"
   viewBox="0 0 60 60"
   height="60"
   width="60"><metadata
     id="metadata660"><rdf:RDF><cc:Work
         rdf:about=""><dc:format>image/svg+xml</dc:format><dc:type
           rdf:resource="http://purl.org/dc/dcmitype/StillImage" /><dc:title></dc:title></cc:Work></rdf:RDF></metadata><defs
     id="defs658" /><g
     transform="matrix(0.19997959,0,0,0.19995118,0.00612242,3.3238395e-4)"
     id="Background_circle"><g
       id="g651"><g
         id="g639"><circle
           id="circle635"
           style="fill:#ffffff"
           r="150"
           cy="150"
           cx="150" /><path
           id="path637"
           d="m 150.485,0.001 c 49.5244,-0.30805092 97.99005,26.13918 124.885,67.66 29.14949,43.41669 32.66869,102.35469 9.029,148.98 -22.3226,45.72399 -69.26524,78.27982 -120.017,82.677 C 116.79963,304.27157 67.626954,284.53159 36.597,248.141 4.2284143,211.43134 -7.8772602,158.34647 5.079,111.186 18.20087,60.591626 59.782145,18.758853 110.292,5.321 c 13.07378,-3.5887368 26.6371,-5.36778112 40.193,-5.32 z m -0.919,16 C 104.07954,15.682674 59.676029,40.73106 36.035,79.522 10.237529,120.258 9.3382219,175.08668 33.754,216.66 c 22.507056,39.83833 66.53845,66.428 112.351,67.284 44.86675,1.74378 89.5149,-21.18229 114.552,-58.394 27.38615,-39.18451 30.93913,-93.31402 9.052,-135.793 C 249.0838,48.105271 205.50868,18.954337 159.041,16.3 c -3.15359,-0.209033 -6.31449,-0.309606 -9.475,-0.299 z"
           style="fill:#2d67b9" /></g><g
         id="g643"
         transform="matrix(0.747644,0,0,0.747972,37.8534,77.9501)"><path
           id="path641"
           style="fill:#2d67b9"
           d="M 210.025,221.534 H 91.906 c -21.734,-0.004 -39.378,-17.65 -39.378,-39.385 0,-19.275 13.877,-35.335 32.177,-38.725 0.182,-35.883 29.37,-64.958 65.295,-64.958 35.925,0 65.113,29.075 65.295,64.958 18.3,3.39 32.177,19.45 32.177,38.725 0,21.087 -16.609,38.326 -37.447,39.338 z m -2.802,-15.929 c 0.287,0.01 0.575,0.015 0.865,0.015 12.954,0 23.471,-10.517 23.471,-23.471 0,-11.115 -7.742,-20.435 -18.124,-22.858 l -0.006,0.026 c -0.884,-0.215 -1.787,-0.38 -2.707,-0.492 -0.865,-0.098 -1.744,-0.147 -2.634,-0.147 -4.025,0 -7.814,1.015 -11.126,2.803 1.984,-5.385 3.068,-11.204 3.068,-17.274 0,-16.41 -7.917,-30.984 -20.137,-40.11 -8.32,-6.282 -18.675,-10.009 -29.893,-10.009 -11.218,0 -21.573,3.727 -29.893,10.009 -12.22,9.126 -20.137,23.7 -20.137,40.11 0,6.07 1.084,11.889 3.068,17.274 -3.312,-1.788 -7.101,-2.803 -11.126,-2.803 -0.825,0 -1.64,0.042 -2.444,0.126 -0.985,0.113 -1.952,0.287 -2.896,0.517 l -0.007,-0.03 c -10.382,2.423 -18.124,11.743 -18.124,22.858 0,12.954 10.517,23.471 23.471,23.471 0.29,0 0.578,-0.005 0.865,-0.015 0.248,0.024 0.499,0.037 0.753,0.037 h 29.987 l -0.018,0.024 h 53.002 l -0.018,-0.024 h 29.987 c 0.254,0 0.505,-0.013 0.753,-0.037 z" /></g><g
         id="g649"
         transform="matrix(0.49601,0.49601,-0.514522,0.514522,152.44,-8.48285)"><path
           id="path645"
           style="fill:#2d67b9"
           d="m 138.458,152.273 v 49.996 l 20.457,-20.455 -0.069,31.366 -31.5,31.5 -31.434,-31.435 v -31.476 l 20.518,20.518 v -49.872 z m 56.033,-35.843 h 49.873 l 0.141,22.028 h -49.996 l 20.455,20.457 -31.365,-0.069 -31.5,-31.5 31.434,-31.434 h 31.476 z M 70.967,158.915 H 39.49 L 60.009,138.397 H 10.136 L 9.994,116.369 H 59.99 l -20.454,-20.457 31.365,0.069 31.5,31.5 z m 45.402,-56.481 V 52.438 l -20.457,20.455 0.069,-31.366 31.5,-31.499 31.434,31.434 V 72.938 L 138.397,52.42 v 49.872 z" /><path
           id="path647"
           style="fill:#ffffff"
           d="m 180.361,92.199 0.462,-0.326 0.498,-0.273 0.527,-0.216 0.549,-0.156 0.564,-0.094 0.572,-0.032 h 31.476 l 0.582,0.033 0.574,0.098 0.558,0.162 0.535,0.223 0.504,0.282 0.467,0.337 0.422,0.387 0.373,0.432 0.318,0.471 0.259,0.504 0.196,0.529 0.131,0.547 0.064,0.559 -0.004,0.562 -0.072,0.558 -0.14,0.545 -0.204,0.527 -0.266,0.499 -0.325,0.467 -0.38,0.426 -12.369,12.37 h 38.132 l 0.599,0.035 0.59,0.104 0.574,0.171 0.547,0.237 0.515,0.298 0.473,0.356 0.426,0.407 0.372,0.455 0.312,0.493 0.249,0.527 0.181,0.552 0.112,0.568 0.039,0.577 0.141,22.028 -0.028,0.541 -0.091,0.535 -0.152,0.521 -0.213,0.501 -0.27,0.475 -0.323,0.443 -0.373,0.405 -0.418,0.362 -0.457,0.314 -0.491,0.263 -0.519,0.208 -0.539,0.15 -0.554,0.092 -0.561,0.03 h -38.256 l 12.307,12.309 0.38,0.427 0.325,0.467 0.267,0.5 0.204,0.527 0.139,0.546 0.072,0.559 0.004,0.562 -0.065,0.559 -0.131,0.548 -0.197,0.529 -0.26,0.504 -0.319,0.471 -0.374,0.432 -0.424,0.387 -0.467,0.336 -0.505,0.282 -0.536,0.223 -0.559,0.16 -0.575,0.097 -0.582,0.032 -31.365,-0.069 -0.57,-0.033 -0.563,-0.095 -0.547,-0.157 -0.525,-0.215 -0.496,-0.273 -0.461,-0.325 -0.419,-0.374 -31.5,-31.5 -0.383,-0.431 -0.327,-0.471 -0.268,-0.505 -0.204,-0.532 -0.138,-0.552 -0.069,-0.563 v -0.568 l 0.069,-0.563 0.138,-0.552 0.204,-0.532 0.268,-0.505 0.327,-0.471 0.383,-0.431 31.434,-31.434 z m -66.782,56.269 0.512,-0.302 0.546,-0.24 0.572,-0.175 0.589,-0.107 0.599,-0.039 22.028,-0.142 0.561,0.027 0.554,0.087 0.541,0.148 0.52,0.204 0.493,0.26 0.46,0.312 0.42,0.359 0.376,0.403 0.326,0.441 0.273,0.474 0.216,0.5 0.156,0.52 0.095,0.534 0.032,0.541 v 38.077 l 11.875,-11.875 0.436,-0.386 0.48,-0.335 0.518,-0.277 0.549,-0.216 0.571,-0.152 0.586,-0.085 0.592,-0.018 0.591,0.05 0.58,0.117 0.561,0.182 0.535,0.246 0.501,0.305 0.46,0.36 0.413,0.41 0.359,0.454 0.301,0.492 0.239,0.523 0.172,0.546 0.104,0.563 0.034,0.57 -0.069,31.366 -0.031,0.525 -0.09,0.518 -0.149,0.505 -0.204,0.487 -0.258,0.463 -0.31,0.433 -0.356,0.397 -31.5,31.5 -0.42,0.375 -0.462,0.326 -0.498,0.273 -0.527,0.216 -0.549,0.156 -0.564,0.094 -0.572,0.032 -0.572,-0.032 -0.564,-0.094 -0.549,-0.157 -0.527,-0.215 -0.498,-0.273 -0.462,-0.326 -0.42,-0.375 -31.434,-31.435 -0.357,-0.398 -0.31,-0.434 -0.259,-0.465 -0.204,-0.488 -0.148,-0.507 -0.09,-0.52 -0.03,-0.526 v -31.476 l 0.036,-0.57 0.104,-0.561 0.174,-0.546 0.239,-0.522 0.301,-0.492 0.36,-0.453 0.413,-0.409 0.46,-0.359 0.501,-0.304 0.535,-0.245 0.561,-0.181 0.58,-0.117 0.589,-0.049 0.592,0.018 0.586,0.086 0.57,0.152 0.548,0.216 0.518,0.277 0.48,0.334 0.435,0.387 11.936,11.936 v -37.952 l 0.037,-0.577 0.107,-0.569 0.178,-0.553 0.245,-0.528 0.309,-0.495 0.369,-0.457 0.423,-0.41 z m 38.52,-21.122 31.5,31.5 31.365,0.069 -20.455,-20.457 h 49.996 L 244.364,116.43 H 194.491 L 215.009,95.912 H 183.533 Z M 116.43,202.287 95.912,181.769 v 31.476 l 31.434,31.435 31.5,-31.5 0.069,-31.366 -20.457,20.455 v -49.996 l -22.028,0.142 z m 7.879,-195.972 0.462,-0.326 0.498,-0.273 0.527,-0.216 0.549,-0.156 0.564,-0.094 0.572,-0.032 0.572,0.032 0.564,0.094 0.549,0.157 0.527,0.215 0.498,0.273 0.462,0.326 0.42,0.375 31.434,31.434 0.357,0.398 0.31,0.434 0.259,0.464 0.204,0.489 0.148,0.507 0.09,0.52 0.03,0.526 v 31.476 l -0.036,0.57 -0.104,0.561 -0.174,0.546 -0.239,0.522 -0.301,0.492 -0.36,0.453 -0.413,0.409 -0.46,0.359 -0.501,0.304 -0.535,0.245 -0.561,0.181 -0.58,0.117 -0.589,0.049 -0.592,-0.018 -0.586,-0.086 -0.57,-0.152 -0.548,-0.216 -0.518,-0.277 -0.48,-0.334 -0.435,-0.387 -11.936,-11.936 v 37.952 l -0.037,0.577 -0.107,0.569 -0.178,0.553 -0.245,0.528 -0.309,0.495 -0.369,0.457 -0.423,0.41 -0.471,0.358 -0.512,0.302 -0.546,0.24 -0.572,0.175 -0.589,0.107 -0.599,0.039 -22.028,0.142 -0.561,-0.027 -0.554,-0.087 -0.541,-0.148 -0.52,-0.204 -0.493,-0.26 -0.46,-0.312 -0.42,-0.359 -0.376,-0.403 -0.326,-0.441 -0.273,-0.474 -0.216,-0.5 -0.156,-0.52 -0.095,-0.534 -0.032,-0.541 V 64.357 l -11.875,11.875 -0.436,0.386 -0.48,0.335 -0.518,0.277 -0.549,0.216 -0.571,0.152 -0.586,0.085 -0.592,0.018 -0.591,-0.05 -0.58,-0.117 -0.561,-0.182 -0.535,-0.246 -0.501,-0.305 -0.461,-0.36 -0.412,-0.41 -0.359,-0.454 -0.301,-0.492 -0.239,-0.523 -0.172,-0.546 -0.104,-0.563 -0.034,-0.57 0.069,-31.366 0.031,-0.525 0.09,-0.518 0.149,-0.506 0.204,-0.487 0.258,-0.462 0.31,-0.433 0.356,-0.397 31.5,-31.499 z M 95.981,41.527 95.912,72.893 116.369,52.438 v 49.996 l 22.028,-0.142 V 52.42 l 20.518,20.518 V 41.462 L 127.481,10.028 Z m -89.108,71.089 0.457,-0.314 0.491,-0.263 0.519,-0.208 0.539,-0.15 0.554,-0.092 0.561,-0.03 H 48.251 L 35.944,99.25 l -0.38,-0.427 -0.325,-0.467 -0.267,-0.5 -0.204,-0.527 -0.139,-0.546 -0.072,-0.559 -0.004,-0.562 0.065,-0.559 0.131,-0.548 0.197,-0.53 0.26,-0.503 0.319,-0.471 0.374,-0.432 0.424,-0.387 0.467,-0.336 0.505,-0.282 0.536,-0.223 0.559,-0.16 0.575,-0.097 0.582,-0.032 31.365,0.069 0.57,0.033 0.563,0.095 0.547,0.157 0.525,0.215 0.496,0.273 0.461,0.325 0.419,0.374 31.5,31.5 0.383,0.431 0.327,0.471 0.268,0.505 0.204,0.532 0.138,0.552 0.069,0.563 v 0.568 l -0.069,0.563 -0.138,0.552 -0.204,0.532 -0.268,0.505 -0.327,0.471 -0.383,0.431 -31.434,31.434 -0.42,0.375 -0.462,0.326 -0.498,0.273 -0.527,0.216 -0.549,0.156 -0.564,0.094 -0.572,0.032 H 39.49 l -0.582,-0.033 -0.574,-0.098 -0.558,-0.162 -0.535,-0.223 -0.504,-0.282 -0.467,-0.337 -0.422,-0.387 -0.373,-0.432 -0.318,-0.471 -0.259,-0.504 -0.196,-0.529 -0.131,-0.547 -0.064,-0.559 0.004,-0.562 0.072,-0.558 0.14,-0.545 0.204,-0.527 0.266,-0.499 0.326,-0.467 0.379,-0.426 12.37,-12.37 H 10.136 l -0.599,-0.035 -0.59,-0.104 -0.574,-0.171 -0.547,-0.237 -0.515,-0.298 -0.473,-0.355 -0.426,-0.408 -0.371,-0.454 -0.313,-0.494 -0.249,-0.527 -0.181,-0.551 -0.112,-0.569 -0.039,-0.577 -0.142,-22.028 0.028,-0.541 0.091,-0.534 0.152,-0.521 0.213,-0.502 0.27,-0.475 0.323,-0.443 0.373,-0.405 z m 3.263,25.781 H 60.009 L 39.49,158.915 h 31.477 l 31.434,-31.434 -31.5,-31.5 -31.365,-0.069 20.454,20.457 H 9.994 Z" /></g></g></g></svg>
