<?xml version="1.0" encoding="UTF-8" standalone="no"?>
<svg
   xmlns:dc="http://purl.org/dc/elements/1.1/"
   xmlns:cc="http://creativecommons.org/ns#"
   xmlns:rdf="http://www.w3.org/1999/02/22-rdf-syntax-ns#"
   xmlns:svg="http://www.w3.org/2000/svg"
   xmlns="http://www.w3.org/2000/svg"
   id="svg2"
   style="clip-rule:evenodd;fill-rule:evenodd;stroke-linejoin:round;stroke-miterlimit:1.41420996"
   xml:space="preserve"
   version="1.1"
   viewBox="0 0 60 60"
   height="60"
   width="60"><metadata
     id="metadata21"><rdf:RDF><cc:Work
         rdf:about=""><dc:format>image/svg+xml</dc:format><dc:type
           rdf:resource="http://purl.org/dc/dcmitype/StillImage" /><dc:title></dc:title></cc:Work></rdf:RDF></metadata><defs
     id="defs19" /><g
     transform="matrix(0.19997959,0,0,0.19995118,0.00612242,3.3238395e-4)"
     id="Background_circle"><g
       id="g5"><g
         id="g7"><circle
           id="circle9"
           style="fill:#ffffff"
           r="150"
           cy="150"
           cx="150" /><path
           id="path11"
           d="m 150.485,0.001 c 49.5244,-0.30805092 97.99005,26.13918 124.885,67.66 29.14949,43.41669 32.66869,102.35469 9.029,148.98 -22.3226,45.72399 -69.26524,78.27982 -120.017,82.677 C 116.79963,304.27157 67.626954,284.53159 36.597,248.141 4.2284143,211.43134 -7.8772602,158.34647 5.079,111.186 18.20087,60.591626 59.782145,18.758853 110.292,5.321 c 13.07378,-3.5887368 26.6371,-5.36778112 40.193,-5.32 z m -0.919,16 C 104.07954,15.682674 59.676029,40.73106 36.035,79.522 10.237529,120.258 9.3382219,175.08668 33.754,216.66 c 22.507056,39.83833 66.53845,66.428 112.351,67.284 44.86675,1.74378 89.5149,-21.18229 114.552,-58.394 27.38615,-39.18451 30.93913,-93.31402 9.052,-135.793 C 249.0838,48.105271 205.50868,18.954337 159.041,16.3 c -3.15359,-0.209033 -6.31449,-0.309606 -9.475,-0.299 z"
           style="fill:#2d67b9" /></g><g
         id="g13"
         transform="translate(16.3907,22.5864)"><path
           id="path15"
           style="fill:#2d67b9"
           d="m 133.609,114.97 c 5.797,-7.117 14.629,-11.665 24.514,-11.665 9.883,0 18.712,4.546 24.509,11.659 5.797,-7.113 14.627,-11.659 24.51,-11.659 14.858,0 27.336,10.276 30.707,24.103 l 0.002,0 -0.001,0.006 0.001,0.005 -0.002,0 c -3.371,13.827 -15.849,24.104 -30.707,24.104 -9.883,0 -18.713,-4.546 -24.51,-11.66 -5.797,7.114 -14.626,11.66 -24.509,11.66 -9.885,0 -18.717,-4.549 -24.514,-11.665 -5.797,7.116 -14.628,11.665 -24.514,11.665 -9.882,0 -18.712,-4.546 -24.509,-11.66 -5.797,7.114 -14.626,11.66 -24.509,11.66 -14.859,0 -27.336,-10.277 -30.707,-24.104 l -0.003,0 0.002,-0.005 -0.002,-0.006 0.003,0 c 3.371,-13.827 15.848,-24.103 30.707,-24.103 9.883,0 18.712,4.546 24.509,11.659 5.797,-7.113 14.627,-11.659 24.509,-11.659 9.886,0 18.717,4.548 24.514,11.665 z m 42.824,12.438 c -2.958,-7.204 -10.045,-12.283 -18.31,-12.283 -8.266,0 -15.356,5.082 -18.312,12.289 2.956,7.207 10.046,12.288 18.312,12.288 8.265,0 15.353,-5.079 18.31,-12.283 l -0.001,0 0.001,-0.005 -0.001,-0.006 0.001,0 z m 12.399,0.011 c 2.957,7.204 10.045,12.283 18.31,12.283 8.266,0 15.356,-5.081 18.312,-12.288 -2.956,-7.207 -10.046,-12.289 -18.312,-12.289 -8.265,0 -15.352,5.079 -18.31,12.283 l 0.001,0 -0.001,0.006 0.001,0.005 -0.001,0 z M 78.387,127.408 c -2.958,-7.204 -10.045,-12.283 -18.31,-12.283 -8.267,0 -15.356,5.082 -18.312,12.289 2.956,7.207 10.045,12.288 18.312,12.288 8.265,0 15.352,-5.079 18.31,-12.283 l -0.001,0 0.001,-0.005 -0.001,-0.006 0.001,0 z m 12.399,0.011 c 2.957,7.204 10.045,12.283 18.309,12.283 8.267,0 15.356,-5.081 18.312,-12.288 -2.956,-7.207 -10.045,-12.289 -18.312,-12.289 -8.264,0 -15.351,5.079 -18.309,12.283 l 0.001,0 -0.002,0.006 0.002,0.005 -0.001,0 z" /></g></g></g></svg>
