<?xml version="1.0" encoding="UTF-8" standalone="no"?>
<svg
   xmlns:dc="http://purl.org/dc/elements/1.1/"
   xmlns:cc="http://creativecommons.org/ns#"
   xmlns:rdf="http://www.w3.org/1999/02/22-rdf-syntax-ns#"
   xmlns:svg="http://www.w3.org/2000/svg"
   xmlns="http://www.w3.org/2000/svg"
   id="svg1072"
   style="clip-rule:evenodd;fill-rule:evenodd;stroke-linecap:round;stroke-linejoin:round;stroke-miterlimit:1.5"
   xml:space="preserve"
   version="1.1"
   viewBox="0 0 60 60"
   height="60"
   width="60"><metadata
     id="metadata1078"><rdf:RDF><cc:Work
         rdf:about=""><dc:format>image/svg+xml</dc:format><dc:type
           rdf:resource="http://purl.org/dc/dcmitype/StillImage" /><dc:title></dc:title></cc:Work></rdf:RDF></metadata><defs
     id="defs1076" /><g
     transform="matrix(0.19997959,0,0,0.19995118,0.00612242,3.3238395e-4)"
     id="g1070"><g
       id="Background_circle"><g
         id="g1054"><circle
           id="circle1050"
           style="fill:#ffffff"
           r="150"
           cy="150"
           cx="150" /><path
           id="path1052"
           d="m 150.485,0.001 c 49.5244,-0.30805092 97.99005,26.13918 124.885,67.66 29.14949,43.41669 32.66869,102.35469 9.029,148.98 -22.3226,45.72399 -69.26524,78.27982 -120.017,82.677 C 116.79963,304.27157 67.626954,284.53159 36.597,248.141 4.2284143,211.43134 -7.8772602,158.34647 5.079,111.186 18.20087,60.591626 59.782145,18.758853 110.292,5.321 c 13.07378,-3.5887368 26.6371,-5.36778112 40.193,-5.32 z m -0.919,16 C 104.07954,15.682674 59.676029,40.73106 36.035,79.522 10.237529,120.258 9.3382219,175.08668 33.754,216.66 c 22.507056,39.83833 66.53845,66.428 112.351,67.284 44.86675,1.74378 89.5149,-21.18229 114.552,-58.394 27.38615,-39.18451 30.93913,-93.31402 9.052,-135.793 C 249.0838,48.105271 205.50868,18.954337 159.041,16.3 c -3.15359,-0.209033 -6.31449,-0.309606 -9.475,-0.299 z"
           style="fill:#2d67b9" /></g></g><g
       id="Layer1"><g
         id="g1067"><path
           id="path1057"
           style="fill:#2d67b9;fill-opacity:0;stroke:#2d67b9;stroke-width:12px"
           d="m 193.656,225.178 h -87.312 v -0.433 h 87.312 z M 221.14,92.714 V 193.016 H 78.86 V 92.714 Z" /><g
           id="g1065"
           transform="matrix(0.314025,0,0,0.314025,101.684,100.157)"><path
             id="path1059"
             style="fill:#2d67b9"
             d="M 68.751,82.244 153.879,131.92 238.287,82.244 153.879,31.058 Z" /><path
             id="path1061"
             style="fill:#2d67b9"
             d="m 59.634,99.464 84.96,49.02 v 98.076 l -84.96,-48.641 z" /><path
             id="path1063"
             style="fill:#2d67b9"
             d="m 162.579,149.166 85.504,-49.702 v 98.214 l -85.504,48.882 z" /></g></g></g></g></svg>
