<svg width="60" height="60" viewBox="0 0 300 300" xmlns="http://www.w3.org/2000/svg" xml:space="preserve" style="fill-rule:evenodd;clip-rule:evenodd;stroke-linejoin:round;stroke-miterlimit:2">
    <circle cx="150" cy="150" r="150" style="fill:#fffefe"/>
    <path d="M150 0c82.787 0 150 67.213 150 150s-67.213 150-150 150S0 232.787 0 150 67.213 0 150 0Zm0 16c73.957 0 134 60.043 134 134s-60.043 134-134 134S16 223.957 16 150 76.043 16 150 16Z" style="fill:#2d67b9"/>
    <path d="M216.943 234.5a7.246 7.246 0 0 0-7.243-7.243H90.3a7.246 7.246 0 0 0-7.243 7.243 7.247 7.247 0 0 0 7.243 7.243h119.4a7.247 7.247 0 0 0 7.243-7.243Zm33.072-162.59c0-8.46-6.869-15.329-15.329-15.329H65.308c-8.46 0-15.328 6.869-15.328 15.329v113.343c0 8.46 6.868 15.328 15.328 15.328h169.378c8.46 0 15.329-6.868 15.329-15.328V71.91Zm-14.411-.508h-170v114h170v-114Z" style="fill:#2d67b9" transform="translate(30.473 37.188) scale(.79686)"/>
</svg>
