<?xml version="1.0" encoding="UTF-8" standalone="no"?>
<svg
   xmlns:dc="http://purl.org/dc/elements/1.1/"
   xmlns:cc="http://creativecommons.org/ns#"
   xmlns:rdf="http://www.w3.org/1999/02/22-rdf-syntax-ns#"
   xmlns:svg="http://www.w3.org/2000/svg"
   xmlns="http://www.w3.org/2000/svg"
   id="svg128"
   style="clip-rule:evenodd;fill-rule:evenodd;stroke-linejoin:round;stroke-miterlimit:1.5"
   xml:space="preserve"
   version="1.1"
   viewBox="0 0 60 60"
   height="60"
   width="60"><metadata
     id="metadata134"><rdf:RDF><cc:Work
         rdf:about=""><dc:format>image/svg+xml</dc:format><dc:type
           rdf:resource="http://purl.org/dc/dcmitype/StillImage" /><dc:title></dc:title></cc:Work></rdf:RDF></metadata><defs
     id="defs132" /><g
     transform="matrix(0.19997959,0,0,0.19995117,0.00612242,3.3261915e-4)"
     id="Background_circle"><g
       id="g105"><circle
         id="circle101"
         style="fill:#ffffff"
         r="150"
         cy="150"
         cx="150" /><path
         id="path103"
         d="m 150.485,0.001 c 49.52443,-0.30811961 97.99009,26.139159 124.885,67.66 29.14955,43.41666 32.66867,102.35471 9.029,148.98 -22.3226,45.72399 -69.26524,78.27982 -120.017,82.677 C 116.79963,304.27157 67.626954,284.53159 36.597,248.141 4.2284143,211.43134 -7.8772602,158.34647 5.079,111.186 18.20087,60.591626 59.782145,18.758853 110.292,5.321 c 13.07378,-3.5887368 26.6371,-5.36778112 40.193,-5.32 z m -0.919,16 C 104.07954,15.682674 59.676029,40.73106 36.035,79.522 10.16927,120.37286 9.3281329,175.39447 33.956,217.011 c 22.83544,40.17536 67.60985,66.70688 113.877,66.972 44.98421,1.17284 89.41924,-22.44652 113.952,-60.106 26.866,-39.70944 29.54259,-94.08821 6.807,-136.282 -21.26707,-41.053691 -65.00625,-69.348254 -111.261,-71.398 -2.58582,-0.137959 -5.17549,-0.2052 -7.765,-0.196 z"
         style="fill:#2d67b9" /></g><g
       id="g125"><g
         id="g119"><g
           id="g109"
           transform="matrix(1,0,0,1.01748,0,-12.4555)"><rect
             id="rect107"
             style="fill:#2d67b9;fill-opacity:0;stroke:#2d67b9;stroke-width:11.89999962px"
             height="93.275002"
             width="142.27901"
             y="103.363"
             x="78.860001" /></g><g
           id="g113"
           transform="matrix(1.70092,0,0,1.08662,-105.138,-15.1201)"><rect
             id="rect111"
             style="fill:#ffffff"
             height="77.197998"
             width="77.197998"
             y="104.31"
             x="111.401" /></g><g
           id="g117"
           transform="translate(-4.85646,-7.97745)"><path
             id="path115"
             style="fill:#2d67b9"
             d="m 202.868,225.508 c 0,-3.287 -2.668,-5.955 -5.954,-5.955 h -84.115 c -3.286,0 -5.954,2.668 -5.954,5.955 0,3.286 2.668,5.954 5.954,5.954 h 84.115 c 3.286,0 5.954,-2.668 5.954,-5.954 z" /></g></g><g
         id="g123"
         transform="matrix(1.66872,0,0,1.06605,-100.308,-7.71468)"><rect
           id="rect121"
           style="fill:#ffffff"
           height="78.688004"
           width="78.688004"
           y="99.375999"
           x="110.656" /></g></g></g></svg>
