<svg width="60" height="60" viewBox="0 0 300 300" xmlns="http://www.w3.org/2000/svg" xml:space="preserve" style="fill-rule:evenodd;clip-rule:evenodd;stroke-linejoin:round;stroke-miterlimit:2">
    <circle cx="150" cy="150" r="150" style="fill:#fffefe"/>
    <path d="M150 0c82.787 0 150 67.213 150 150s-67.213 150-150 150S0 232.787 0 150 67.213 0 150 0Zm0 16c73.957 0 134 60.043 134 134s-60.043 134-134 134S16 223.957 16 150 76.043 16 150 16Z" style="fill:#2d67b9"/>
    <path d="M182.537 71.431a85 85 0 0 1 19.228 11.13l-10.827 26.822 14.706 25.472 28.662 4.038c.475 3.635.721 7.343.721 11.107 0 3.764-.246 7.472-.721 11.107l-28.662 4.038-14.706 25.472 10.827 26.822a85 85 0 0 1-19.228 11.13l-17.831-22.807h-29.412l-17.831 22.807a85 85 0 0 1-19.228-11.13l10.827-26.822-14.706-25.472-28.662-4.038A85.697 85.697 0 0 1 64.973 150c0-3.764.246-7.472.721-11.107l28.662-4.038 14.706-25.472-10.827-26.822a85 85 0 0 1 19.228-11.13l17.831 22.807h29.412l17.831-22.807Zm41.377 120.599c-.149.262-.3.523-.452.782l.452-.782Zm-147.828 0 .452.782a66.35 66.35 0 0 1-.452-.782ZM150 118.87c17.181 0 31.13 13.949 31.13 31.13 0 17.181-13.949 31.13-31.13 31.13-17.181 0-31.13-13.949-31.13-31.13 0-17.181 13.949-31.13 31.13-31.13Zm73.462-11.682c.152.259.303.52.452.782l-.452-.782Zm-146.924 0-.452.782c.149-.262.3-.523.452-.782ZM150 64.973Z" style="fill:#2d67b9"/>
</svg>
