<svg width="60" height="60" viewBox="0 0 300 300" xmlns="http://www.w3.org/2000/svg" xml:space="preserve" style="fill-rule:evenodd;clip-rule:evenodd;stroke-linejoin:round;stroke-miterlimit:2">
    <circle cx="150" cy="150" r="150" style="fill:#fffefe"/>
    <path d="M150 0c82.787 0 150 67.213 150 150s-67.213 150-150 150S0 232.787 0 150 67.213 0 150 0Zm0 16c73.957 0 134 60.043 134 134s-60.043 134-134 134S16 223.957 16 150 76.043 16 150 16Z" style="fill:#2d67b9"/>
    <path d="M109.7 179.509A49.71 49.71 0 0 1 100.045 150c0-1.07.034-2.131.1-3.184V80.445L81.233 99.357V70.066l29.096-29.096 29.096 29.096v29.207l-18.934-18.934V109.7A49.71 49.71 0 0 1 150 100.045c1.07 0 2.131.034 3.184.1h66.371l-18.912-18.912h29.291l29.096 29.096-29.096 29.096h-29.207l18.934-18.934H190.3A49.714 49.714 0 0 1 199.955 150c0 1.07-.034 2.131-.1 3.184v66.371l18.912-18.912v29.291l-29.096 29.096-29.096-29.096v-29.207l18.934 18.934V190.3A49.71 49.71 0 0 1 150 199.955c-1.07 0-2.131-.034-3.184-.1H80.445l18.912 18.912H70.066L40.97 189.671l29.096-29.096h29.207l-18.934 18.934H109.7Zm40.004-58.805c16.005 0 29 12.994 29 29 0 16.005-12.995 29-29 29-16.006 0-29-12.995-29-29 0-16.006 12.994-29 29-29Z" style="fill:#2d67b9" transform="matrix(.91685 0 0 .91685 12.473 12.473)"/>
</svg>
