<?xml version="1.0" encoding="UTF-8" standalone="no"?>
<svg
   xmlns:dc="http://purl.org/dc/elements/1.1/"
   xmlns:cc="http://creativecommons.org/ns#"
   xmlns:rdf="http://www.w3.org/1999/02/22-rdf-syntax-ns#"
   xmlns:svg="http://www.w3.org/2000/svg"
   xmlns="http://www.w3.org/2000/svg"
   xmlns:sodipodi="http://sodipodi.sourceforge.net/DTD/sodipodi-0.dtd"
   xmlns:inkscape="http://www.inkscape.org/namespaces/inkscape"
   id="svg2"
   style="clip-rule:evenodd;fill-rule:evenodd;stroke-linejoin:round;stroke-miterlimit:1.41420996"
   xml:space="preserve"
   version="1.1"
   viewBox="0 0 60 60"
   height="60"
   width="60"
   inkscape:version="0.91 r13725"
   sodipodi:docname="docker.svg"><sodipodi:namedview
     pagecolor="#ffffff"
     bordercolor="#666666"
     borderopacity="1"
     objecttolerance="10"
     gridtolerance="10"
     guidetolerance="10"
     inkscape:pageopacity="0"
     inkscape:pageshadow="2"
     inkscape:window-width="2057"
     inkscape:window-height="1337"
     id="namedview20"
     showgrid="false"
     inkscape:zoom="11.125147"
     inkscape:cx="-13.9378"
     inkscape:cy="19.108238"
     inkscape:window-x="496"
     inkscape:window-y="187"
     inkscape:window-maximized="0"
     inkscape:current-layer="g3137" /><metadata
     id="metadata37"><rdf:RDF><cc:Work
         rdf:about=""><dc:format>image/svg+xml</dc:format><dc:type
           rdf:resource="http://purl.org/dc/dcmitype/StillImage" /><dc:title /></cc:Work></rdf:RDF></metadata><defs
     id="defs35" /><g
     transform="matrix(0.19997959,0,0,0.19995118,0.00612242,3.3238395e-4)"
     id="Background_circle"><g
       id="g5"><g
         id="g7"><g
           id="g9"><circle
             id="circle11"
             style="fill:#ffffff"
             r="150"
             cy="150"
             cx="150" /><path
             id="path13"
             d="m 150.485,0.001 c 49.5244,-0.30805092 97.99005,26.13918 124.885,67.66 29.14949,43.41669 32.66869,102.35469 9.029,148.98 -22.3226,45.72399 -69.26524,78.27982 -120.017,82.677 C 116.79963,304.27157 67.626954,284.53159 36.597,248.141 4.2284143,211.43134 -7.8772602,158.34647 5.079,111.186 18.20087,60.591626 59.782145,18.758853 110.292,5.321 c 13.07378,-3.5887368 26.6371,-5.36778112 40.193,-5.32 z m -0.919,16 C 104.07954,15.682674 59.676029,40.73106 36.035,79.522 10.237529,120.258 9.3382219,175.08668 33.754,216.66 c 22.507056,39.83833 66.53845,66.428 112.351,67.284 44.86675,1.74378 89.5149,-21.18229 114.552,-58.394 27.38615,-39.18451 30.93913,-93.31402 9.052,-135.793 C 249.0838,48.105271 205.50868,18.954337 159.041,16.3 c -3.15359,-0.209033 -6.31449,-0.309606 -9.475,-0.299 z"
             style="fill:#2d67b9" /></g></g></g></g><g
     transform="matrix(0.09186705,0,0,0.11864189,16.596451,156.85277)"
     id="g3137"><path
       style="clip-rule:evenodd;fill:#2d67b9;fill-opacity:1;fill-rule:evenodd"
       inkscape:connector-curvature="0"
       id="outline_7_"
       d="m 185.32674,-1127.4117 47.146,0 0,48.194 23.837,0 c 11.008,0 22.33,-1.962 32.755,-5.494 5.123,-1.736 10.872,-4.154 15.926,-7.193 -6.656,-8.689 -10.053,-19.661 -11.054,-30.476 -1.358,-14.71 1.609,-33.855 11.564,-45.368 l 4.956,-5.732 5.905,4.747 c 14.867,11.946 27.372,28.638 29.577,47.665 17.901,-5.266 38.921,-4.02 54.701,5.088 l 6.475,3.734 -3.408,6.652 c -13.345,26.046 -41.246,34.113 -68.524,32.687 -40.817,101.66298 -129.68,149.79398 -237.427996,149.79398 -55.666,0 -106.7380004,-20.81 -135.821,-70.197 l -0.477,-0.807 -4.238,-8.62098 c -9.83,-21.739 -13.095,-45.554 -10.88,-69.351 l 0.664,-7.127 40.315,0 0,-48.194 47.143,0 0,-47.145 94.291996,0 0,-47.146 56.574,0 0,94.29 z" /><g
       style="display:none"
       display="none"
       id="g3140"><path
         style="display:inline;fill:#394d54"
         inkscape:connector-curvature="0"
         display="inline"
         d="m 61.093,319.89 c 6.023,0 11.763,-0.157 17.219,-0.464 0.476,-0.026 0.932,-0.063 1.402,-0.092 0.005,-0.002 0.008,-0.002 0.012,-0.002 13.872,-0.855 25.876,-2.708 35.902,-5.57 0.002,-0.002 0.004,-0.002 0.006,-0.002 1.823,-0.521 3.588,-1.07 5.282,-1.656 1.894,-0.657 2.896,-2.725 2.241,-4.618 -0.656,-1.895 -2.722,-2.899 -4.618,-2.24 -12.734,4.412 -29.535,6.842 -50.125,7.298 -0.002,0 -0.004,0 -0.005,0 -10.477,0.232 -21.93,-0.044 -34.352,-0.843 0,0 0,0 -0.001,0 -0.635,-0.038 -1.259,-0.075 -1.9,-0.118 -1.995,-0.128 -3.731,1.374 -3.869,3.375 -0.136,1.999 1.376,3.73 3.375,3.866 2.537,0.173 5.03,0.321 7.49,0.453 0.392,0.021 0.77,0.034 1.158,0.054 l 0,0 c 7.256,0.366 14.194,0.559 20.783,0.559 z"
         id="path3142" /></g><g
       id="Containers_8_"
       transform="translate(-56.806256,-1295.8927)"><path
         style="clip-rule:evenodd;fill:#ffffff;fill-rule:evenodd"
         inkscape:connector-curvature="0"
         d="m 86.209,179.744 3.227,0 0,34.052 -3.227,0 0,-34.052 z m -6.189,0 3.354,0 0,34.052 -3.354,0 0,-34.052 z m -6.192,0 3.354,0 0,34.052 -3.354,0 0,-34.052 z m -6.192,0 3.354,0 0,34.052 -3.354,0 0,-34.052 z m -6.19,0 3.354,0 0,34.052 -3.354,0 0,-34.052 z m -6.062,0 3.224,0 0,34.052 -3.224,0 0,-34.052 z m -3.403,-3.406 40.858,0 0,40.86 -40.858,0 0,-40.86 z"
         id="path3145" /><path
         style="clip-rule:evenodd;fill:#ffffff;fill-rule:evenodd"
         inkscape:connector-curvature="0"
         d="m 133.354,132.598 3.229,0 0,34.051 -3.229,0 0,-34.051 z m -6.189,0 3.354,0 0,34.051 -3.354,0 0,-34.051 z m -6.192,0 3.354,0 0,34.051 -3.354,0 0,-34.051 z m -6.192,0 3.354,0 0,34.051 -3.354,0 0,-34.051 z m -6.188,0 3.352,0 0,34.051 -3.352,0 0,-34.051 z m -6.062,0 3.222,0 0,34.051 -3.222,0 0,-34.051 z m -3.407,-3.405 40.863,0 0,40.859 -40.863,0 0,-40.859 z"
         id="path3147" /><path
         style="clip-rule:evenodd;fill:#ffffff;fill-rule:evenodd"
         inkscape:connector-curvature="0"
         d="m 133.354,179.744 3.229,0 0,34.052 -3.229,0 0,-34.052 z m -6.189,0 3.354,0 0,34.052 -3.354,0 0,-34.052 z m -6.192,0 3.354,0 0,34.052 -3.354,0 0,-34.052 z m -6.192,0 3.354,0 0,34.052 -3.354,0 0,-34.052 z m -6.188,0 3.352,0 0,34.052 -3.352,0 0,-34.052 z m -6.062,0 3.222,0 0,34.052 -3.222,0 0,-34.052 z m -3.407,-3.406 40.863,0 0,40.86 -40.863,0 0,-40.86 z"
         id="path3149" /><path
         style="clip-rule:evenodd;fill:#ffffff;fill-rule:evenodd"
         inkscape:connector-curvature="0"
         d="m 180.501,179.744 3.225,0 0,34.052 -3.225,0 0,-34.052 z m -6.191,0 3.355,0 0,34.052 -3.355,0 0,-34.052 z m -6.19,0 3.354,0 0,34.052 -3.354,0 0,-34.052 z m -6.192,0 3.354,0 0,34.052 -3.354,0 0,-34.052 z m -6.192,0 3.354,0 0,34.052 -3.354,0 0,-34.052 z m -6.06,0 3.222,0 0,34.052 -3.222,0 0,-34.052 z m -3.405,-3.406 40.861,0 0,40.86 -40.861,0 0,-40.86 z"
         id="path3151" /><path
         style="clip-rule:evenodd;fill:#ffffff;fill-rule:evenodd"
         inkscape:connector-curvature="0"
         d="m 180.501,132.598 3.225,0 0,34.051 -3.225,0 0,-34.051 z m -6.191,0 3.355,0 0,34.051 -3.355,0 0,-34.051 z m -6.19,0 3.354,0 0,34.051 -3.354,0 0,-34.051 z m -6.192,0 3.354,0 0,34.051 -3.354,0 0,-34.051 z m -6.192,0 3.354,0 0,34.051 -3.354,0 0,-34.051 z m -6.06,0 3.222,0 0,34.051 -3.222,0 0,-34.051 z m -3.405,-3.405 40.861,0 0,40.859 -40.861,0 0,-40.859 z"
         id="path3153" /><path
         style="clip-rule:evenodd;fill:#ffffff;fill-rule:evenodd"
         inkscape:connector-curvature="0"
         d="m 227.647,179.744 3.226,0 0,34.052 -3.226,0 0,-34.052 z m -6.19,0 3.354,0 0,34.052 -3.354,0 0,-34.052 z m -6.192,0 3.354,0 0,34.052 -3.354,0 0,-34.052 z m -6.192,0 3.354,0 0,34.052 -3.354,0 0,-34.052 z m -6.189,0 3.354,0 0,34.052 -3.354,0 0,-34.052 z m -6.063,0 3.224,0 0,34.052 -3.224,0 0,-34.052 z m -3.405,-3.406 40.861,0 0,40.86 -40.861,0 0,-40.86 z"
         id="path3155" /><path
         style="clip-rule:evenodd;fill:#ffffff;fill-rule:evenodd"
         inkscape:connector-curvature="0"
         d="m 227.647,132.598 3.226,0 0,34.051 -3.226,0 0,-34.051 z m -6.19,0 3.354,0 0,34.051 -3.354,0 0,-34.051 z m -6.192,0 3.354,0 0,34.051 -3.354,0 0,-34.051 z m -6.192,0 3.354,0 0,34.051 -3.354,0 0,-34.051 z m -6.189,0 3.354,0 0,34.051 -3.354,0 0,-34.051 z m -6.063,0 3.224,0 0,34.051 -3.224,0 0,-34.051 z m -3.405,-3.405 40.861,0 0,40.859 -40.861,0 0,-40.859 z"
         id="path3157" /><path
         style="clip-rule:evenodd;fill:#ffffff;fill-rule:evenodd"
         inkscape:connector-curvature="0"
         d="m 227.647,85.451 3.226,0 0,34.053 -3.226,0 0,-34.053 z m -6.19,0 3.354,0 0,34.053 -3.354,0 0,-34.053 z m -6.192,0 3.354,0 0,34.053 -3.354,0 0,-34.053 z m -6.192,0 3.354,0 0,34.053 -3.354,0 0,-34.053 z m -6.189,0 3.354,0 0,34.053 -3.354,0 0,-34.053 z m -6.063,0 3.224,0 0,34.053 -3.224,0 0,-34.053 z m -3.405,-3.403 40.861,0 0,40.86 -40.861,0 0,-40.86 z"
         id="path3159" /><path
         style="clip-rule:evenodd;fill:#ffffff;fill-rule:evenodd"
         inkscape:connector-curvature="0"
         d="m 274.792,179.744 3.224,0 0,34.052 -3.224,0 0,-34.052 z m -6.19,0 3.352,0 0,34.052 -3.352,0 0,-34.052 z m -6.194,0 3.354,0 0,34.052 -3.354,0 0,-34.052 z m -6.19,0 3.354,0 0,34.052 -3.354,0 0,-34.052 z m -6.192,0 3.354,0 0,34.052 -3.354,0 0,-34.052 z m -6.062,0 3.227,0 0,34.052 -3.227,0 0,-34.052 z m -3.403,-3.406 40.86,0 0,40.86 -40.86,0 0,-40.86 z"
         id="path3161" /></g><path
       style="clip-rule:evenodd;fill:#ffffff;fill-rule:evenodd"
       inkscape:connector-curvature="0"
       d="m 80.621744,-1012.4477 c 6.225,0 11.271,5.049 11.271,11.272 0,6.22498 -5.046,11.27098 -11.271,11.27098 -6.226,0 -11.272,-5.046 -11.272,-11.27098 0,-6.223 5.046,-11.272 11.272,-11.272"
       id="path3163" /><path
       style="clip-rule:evenodd;fill-rule:evenodd;stroke:none;stroke-opacity:1;fill:#2d67b9;fill-opacity:1"
       inkscape:connector-curvature="0"
       d="m 80.621744,-1009.2487 c 1.031,0 2.015,0.194 2.923,0.546 -0.984,0.569 -1.65,1.635 -1.65,2.854 0,1.82 1.476,3.293 3.296,3.293 1.247,0 2.329,-0.693 2.89,-1.715 0.395,0.953 0.615,1.999 0.615,3.097 0,4.45798 -3.615,8.07298 -8.073,8.07298 -4.458,0 -8.074,-3.615 -8.074,-8.07298 -0.001,-4.461 3.616,-8.075 8.073,-8.075"
       id="path3165" /><path
       style="fill:#ffffff"
       inkscape:connector-curvature="0"
       d="m 110.58774,-931.21572 c -27.915996,-13.247 -43.238996,-31.256 -51.764996,-50.915 -10.37,2.961 -22.835,4.852 -37.317,5.664 -5.457,0.307 -11.196,0.464 -17.2190004,0.464 -6.942,0 -14.26,-0.205 -21.9399996,-0.613 25.5999996,25.585 57.094,45.283 115.408,45.645 4.304996,-10e-4 8.578996,-0.085 12.832996,-0.245 z"
       id="path3167" /></g></svg>