<svg width="60" height="60" viewBox="0 0 300 300" xmlns="http://www.w3.org/2000/svg" xml:space="preserve" style="fill-rule:evenodd;clip-rule:evenodd;stroke-linejoin:round;stroke-miterlimit:2">
    <circle cx="150" cy="150" r="150" style="fill:#fffefe"/>
    <path d="M150 0c82.787 0 150 67.213 150 150s-67.213 150-150 150S0 232.787 0 150 67.213 0 150 0Zm0 16c73.957 0 134 60.043 134 134s-60.043 134-134 134S16 223.957 16 150 76.043 16 150 16Z" style="fill:#2d67b9"/>
    <path d="m169.165 166.199-29.706 33.737H87.731c-4.415 0-8 3.585-8 8 0 4.416 3.585 8 8 8h55.437a7.994 7.994 0 0 0 6.648-3.551l29.263-33.234h45.534c4.415 0 8-3.584 8-8 0-4.415-3.585-8-8-8h-49.167a7.987 7.987 0 0 0-6.281 3.048Zm0-32.483-29.706-33.738H87.731c-4.415 0-8-3.584-8-8 0-4.415 3.585-7.999 8-8h55.437a7.998 7.998 0 0 1 6.648 3.552l29.263 33.233h45.534c4.415 0 8 3.585 8 8 0 4.416-3.585 8-8 8h-49.167a7.986 7.986 0 0 1-6.281-3.047Z" style="fill:#2d67b9"/>
</svg>
