<?xml version="1.0" encoding="UTF-8" standalone="no"?>
<svg
   xmlns:dc="http://purl.org/dc/elements/1.1/"
   xmlns:cc="http://creativecommons.org/ns#"
   xmlns:rdf="http://www.w3.org/1999/02/22-rdf-syntax-ns#"
   xmlns:svg="http://www.w3.org/2000/svg"
   xmlns="http://www.w3.org/2000/svg"
   id="svg2"
   style="clip-rule:evenodd;fill-rule:evenodd;stroke-linejoin:round;stroke-miterlimit:1.41420996"
   xml:space="preserve"
   version="1.1"
   viewBox="0 0 60 60"
   height="60"
   width="60"><metadata
     id="metadata25"><rdf:RDF><cc:Work
         rdf:about=""><dc:format>image/svg+xml</dc:format><dc:type
           rdf:resource="http://purl.org/dc/dcmitype/StillImage" /><dc:title></dc:title></cc:Work></rdf:RDF></metadata><defs
     id="defs23" /><g
     transform="matrix(0.19997959,0,0,0.19995118,0.00612242,3.3238395e-4)"
     id="Background_circle"><g
       id="g5"><g
         id="g7"><circle
           id="circle9"
           style="fill:#ffffff"
           r="150"
           cy="150"
           cx="150" /><path
           id="path11"
           d="m 150.485,0.001 c 49.5244,-0.30805092 97.99005,26.13918 124.885,67.66 29.14949,43.41669 32.66869,102.35469 9.029,148.98 -22.3226,45.72399 -69.26524,78.27982 -120.017,82.677 C 116.79963,304.27157 67.626954,284.53159 36.597,248.141 4.2284143,211.43134 -7.8772602,158.34647 5.079,111.186 18.20087,60.591626 59.782145,18.758853 110.292,5.321 c 13.07378,-3.5887368 26.6371,-5.36778112 40.193,-5.32 z m -0.919,16 C 104.07954,15.682674 59.676029,40.73106 36.035,79.522 10.237529,120.258 9.3382219,175.08668 33.754,216.66 c 22.507056,39.83833 66.53845,66.428 112.351,67.284 44.86675,1.74378 89.5149,-21.18229 114.552,-58.394 27.38615,-39.18451 30.93913,-93.31402 9.052,-135.793 C 249.0838,48.105271 205.50868,18.954337 159.041,16.3 c -3.15359,-0.209033 -6.31449,-0.309606 -9.475,-0.299 z"
           style="fill:#2d67b9" /></g><g
         id="g13"><path
           id="path15"
           style="fill:#2d67b9"
           d="m 184.85,216.436 0.002,0.005 c -10.416,5.48 -22.275,8.581 -34.852,8.581 -41.406,0 -75.022,-33.616 -75.022,-75.022 0,-41.406 33.616,-75.022 75.022,-75.022 6.321,0 12.461,0.783 18.327,2.258 l 0,10e-4 0.003,0.001 c 4.298,1.083 6.909,5.452 5.826,9.75 -1.083,4.298 -5.452,6.909 -9.75,5.826 -0.019,-0.005 -0.039,-0.01 -0.058,-0.015 l -0.001,0.003 c -4.593,-1.151 -9.399,-1.761 -14.347,-1.761 -32.541,0 -58.959,26.418 -58.959,58.959 0,32.541 26.418,58.959 58.959,58.959 9.787,0 19.021,-2.39 27.148,-6.617 0.056,-0.031 0.113,-0.062 0.17,-0.092 3.927,-2.053 8.784,-0.532 10.837,3.396 2.038,3.898 0.555,8.71 -3.305,10.79 z m 5.774,-109.15 c -3.18,-3.06 -3.294,-8.125 -0.247,-11.324 3.057,-3.21 8.144,-3.334 11.353,-0.277 l 0.002,0.001 0,0 c 14.345,13.669 23.29,32.955 23.29,54.314 0,14.97 -4.394,28.921 -11.961,40.634 l 0,0 c -2.402,3.723 -7.374,4.798 -11.099,2.398 -3.726,-2.4 -4.802,-7.374 -2.401,-11.1 0.017,-0.026 0.033,-0.052 0.051,-0.078 l -0.001,-0.001 c 5.915,-9.188 9.348,-20.123 9.348,-31.853 0,-16.801 -7.043,-31.971 -18.335,-42.714 l 0,0 z" /><path
           id="path17"
           style="fill:#2d67b9"
           d="m 241.101,124.485 c -0.007,-0.025 -0.014,-0.05 -0.021,-0.076 -1.204,-4.277 1.292,-8.726 5.569,-9.929 4.277,-1.204 8.726,1.292 9.929,5.569 0.012,0.042 0.024,0.084 0.035,0.126 l 10e-4,0 c 2.654,9.49 4.072,19.493 4.072,29.825 0,61.089 -49.597,110.686 -110.686,110.686 -19.04,0 -36.963,-4.817 -52.616,-13.299 -0.036,-0.019 -0.071,-0.038 -0.107,-0.057 -3.906,-2.116 -5.359,-7.006 -3.242,-10.912 2.116,-3.906 7.006,-5.359 10.912,-3.242 l 0.035,0.019 0,-0.001 c 13.39,7.267 28.726,11.395 45.018,11.395 52.205,0 94.589,-42.384 94.589,-94.589 0,-8.839 -1.215,-17.397 -3.488,-25.515 l 0,0 z m -173.985,98.844 0,0 C 49.819,203.797 39.314,178.116 39.314,150 c 0,-30.642 12.478,-58.392 32.626,-78.442 0.04,-0.042 0.081,-0.084 0.123,-0.125 3.154,-3.127 8.252,-3.105 11.379,0.049 3.126,3.153 3.104,8.252 -0.049,11.378 l -0.032,0.031 0.003,0.004 C 66.104,100.034 55.411,123.778 55.411,150 c 0,24.002 8.96,45.928 23.713,62.613 0.018,0.019 0.036,0.039 0.053,0.059 2.943,3.326 2.631,8.416 -0.696,11.359 -3.327,2.943 -8.416,2.631 -11.359,-0.696 l -0.006,-0.006 z m 159.68,-128.534 0,0 C 209.616,70.948 181.608,55.411 150,55.411 c -14.128,0 -27.537,3.105 -39.582,8.668 l 0,0 c -4.031,1.839 -8.8,0.069 -10.653,-3.959 -1.857,-4.036 -0.089,-8.82 3.947,-10.677 l 0,0 C 117.798,42.941 133.479,39.314 150,39.314 c 37.007,0 69.797,18.201 89.898,46.132 l -0.001,0 0.001,0 c 2.591,3.607 1.767,8.64 -1.841,11.232 -3.607,2.591 -8.639,1.767 -11.231,-1.841 l -0.03,-0.042 z" /><path
           id="path19"
           style="fill:#2d67b9"
           d="m 109.3,151.841 c -0.002,-0.038 -0.004,-0.077 -0.006,-0.115 -0.193,-4.55 3.344,-8.401 7.894,-8.593 4.55,-0.193 8.4,3.344 8.593,7.894 0.003,0.063 0.005,0.127 0.006,0.19 l 0.003,0 c 0.635,12.814 11.24,23.023 24.21,23.023 5.304,0 10.213,-1.707 14.206,-4.602 l 0,0.001 c 3.694,-2.599 8.807,-1.741 11.447,1.935 2.657,3.698 1.811,8.857 -1.887,11.513 l 0,0.001 c -6.691,4.816 -14.9,7.655 -23.766,7.655 -21.869,0 -39.737,-17.268 -40.702,-38.902 l 0.002,0 z m 12.815,-31.532 -10e-4,-0.002 c 7.291,-6.851 17.102,-11.05 27.886,-11.05 22.486,0 40.743,18.257 40.743,40.743 0,1.19 -0.052,2.369 -0.152,3.533 l 0,0 c -0.396,4.536 -4.399,7.898 -8.936,7.503 -4.537,-0.394 -7.9,-4.398 -7.506,-8.936 0.004,-0.04 0.008,-0.081 0.012,-0.122 l -0.001,0 c 0.053,-0.652 0.08,-1.312 0.08,-1.978 0,-13.379 -10.861,-24.24 -24.24,-24.24 -6.439,0 -12.295,2.516 -16.638,6.618 l -0.001,-10e-4 c -3.318,3.084 -8.516,2.913 -11.623,-0.391 -3.119,-3.317 -2.958,-8.541 0.358,-11.66 l 0.019,-0.017 z" /></g></g></g></svg>
