<svg width="60" height="60" viewBox="0 0 300 300" xmlns="http://www.w3.org/2000/svg" xml:space="preserve" style="fill-rule:evenodd;clip-rule:evenodd;stroke-linejoin:round;stroke-miterlimit:2">
    <circle cx="150" cy="150" r="150" style="fill:#fffefe"/>
    <path d="M150 0c82.787 0 150 67.213 150 150s-67.213 150-150 150S0 232.787 0 150 67.213 0 150 0Zm0 16c73.957 0 134 60.043 134 134s-60.043 134-134 134S16 223.957 16 150 76.043 16 150 16Z" style="fill:#2d67b9"/>
    <path d="M94.046 180.962v43.983H49.98v-43.983h44.066Zm155.969 43.983h-44.014v-43.983h44.014v43.983Zm-55.957 0h-88.07v-43.983h88.07v43.983Zm-50.029-94.016v38.09H49.98v-38.09h94.049Zm105.986 38.09h-94.044v-38.09h94.044v38.09ZM94.046 118.987H49.98V75.055h44.066v43.932Zm100.012-43.932v43.932h-88.07V75.055h88.07Zm55.957 43.932h-44.014V75.055h44.014v43.932Z" style="fill:#2d67b9" transform="matrix(.87155 0 0 .87155 19.27 19.268)"/>
</svg>
