<?xml version="1.0" encoding="UTF-8" standalone="no"?>
<svg
   xmlns:dc="http://purl.org/dc/elements/1.1/"
   xmlns:cc="http://creativecommons.org/ns#"
   xmlns:rdf="http://www.w3.org/1999/02/22-rdf-syntax-ns#"
   xmlns:svg="http://www.w3.org/2000/svg"
   xmlns="http://www.w3.org/2000/svg"
   id="svg2"
   style="clip-rule:evenodd;fill-rule:evenodd;stroke-linejoin:round;stroke-miterlimit:1.41420996"
   xml:space="preserve"
   version="1.1"
   viewBox="0 0 60 60"
   height="60"
   width="60"><metadata
     id="metadata21"><rdf:RDF><cc:Work
         rdf:about=""><dc:format>image/svg+xml</dc:format><dc:type
           rdf:resource="http://purl.org/dc/dcmitype/StillImage" /><dc:title></dc:title></cc:Work></rdf:RDF></metadata><defs
     id="defs19" /><g
     transform="matrix(0.19997959,0,0,0.19995118,0.00612242,3.3238395e-4)"
     id="Background_circle"><g
       id="g5"><g
         id="g7"><circle
           id="circle9"
           style="fill:#ffffff"
           r="150"
           cy="150"
           cx="150" /><path
           id="path11"
           d="m 150.485,0.001 c 49.5244,-0.30805092 97.99005,26.13918 124.885,67.66 29.14949,43.41669 32.66869,102.35469 9.029,148.98 -22.3226,45.72399 -69.26524,78.27982 -120.017,82.677 C 116.79963,304.27157 67.626954,284.53159 36.597,248.141 4.2284143,211.43134 -7.8772602,158.34647 5.079,111.186 18.20087,60.591626 59.782145,18.758853 110.292,5.321 c 13.07378,-3.5887368 26.6371,-5.36778112 40.193,-5.32 z m -0.919,16 C 104.07954,15.682674 59.676029,40.73106 36.035,79.522 10.237529,120.258 9.3382219,175.08668 33.754,216.66 c 22.507056,39.83833 66.53845,66.428 112.351,67.284 44.86675,1.74378 89.5149,-21.18229 114.552,-58.394 27.38615,-39.18451 30.93913,-93.31402 9.052,-135.793 C 249.0838,48.105271 205.50868,18.954337 159.041,16.3 c -3.15359,-0.209033 -6.31449,-0.309606 -9.475,-0.299 z"
           style="fill:#2d67b9" /></g><g
         id="g13"
         transform="matrix(0.681304,0,0,0.681304,47.8044,47.8044)"><path
           id="path15"
           style="fill:#2d67b9"
           d="m 225.468,45.022 c 2.318,-11.406 12.413,-20 24.498,-20 13.798,0 25,11.202 25,25 0,12.086 -8.594,22.18 -20,24.499 l 0,50.98 c 11.406,2.319 20,12.413 20,24.499 0,12.086 -8.594,22.18 -20,24.499 l 0,50.98 c 11.406,2.319 20,12.413 20,24.499 0,13.798 -11.202,25 -25,25 -12.085,0 -22.18,-8.594 -24.498,-20 l -50.969,0 c -2.319,11.406 -12.413,20 -24.499,20 -12.086,0 -22.18,-8.594 -24.499,-20 l -50.969,0 c -2.318,11.406 -12.413,20 -24.498,20 -13.798,0 -25,-11.202 -25,-25 0,-12.086 8.594,-22.18 20,-24.499 l 0,-50.98 c -11.406,-2.319 -20,-12.413 -20,-24.499 0,-12.086 8.594,-22.18 20,-24.499 l 0,-50.98 c -11.406,-2.319 -20,-12.413 -20,-24.499 0,-13.798 11.202,-25 25,-25 12.085,0 22.18,8.594 24.498,20 l 50.969,0 c 2.319,-11.406 12.413,-20 24.499,-20 12.086,0 22.18,8.594 24.499,20 l 50.969,0 z m 0,109.978 -50.969,0 c -1.99,9.79 -9.709,17.509 -19.499,19.499 l 0,50.98 c 9.79,1.991 17.509,9.709 19.499,19.499 l 50.969,0 c 1.99,-9.79 9.709,-17.508 19.498,-19.499 l 0,-50.98 C 235.177,172.509 227.458,164.79 225.468,155 Z m -99.967,0 -50.969,0 c -1.99,9.79 -9.709,17.509 -19.498,19.499 l 0,50.98 c 9.789,1.991 17.508,9.709 19.498,19.499 l 50.969,0 c 1.99,-9.79 9.709,-17.508 19.499,-19.499 l 0,-50.98 C 135.21,172.509 127.491,164.79 125.501,155 Z m 99.967,-99.978 -50.969,0 C 172.509,64.812 164.79,72.53 155,74.521 l 0,50.98 c 9.79,1.99 17.509,9.709 19.499,19.499 l 50.969,0 c 1.99,-9.79 9.709,-17.509 19.498,-19.499 l 0,-50.98 C 235.177,72.53 227.458,64.812 225.468,55.022 Z m -99.967,0 -50.969,0 c -1.99,9.79 -9.709,17.508 -19.498,19.499 l 0,50.98 c 9.789,1.99 17.508,9.709 19.498,19.499 l 50.969,0 c 1.99,-9.79 9.709,-17.509 19.499,-19.499 l 0,-50.98 C 135.21,72.53 127.491,64.812 125.501,55.022 Z" /></g></g></g></svg>
