<?xml version="1.0" encoding="UTF-8" standalone="no"?>
<svg
   xmlns:dc="http://purl.org/dc/elements/1.1/"
   xmlns:cc="http://creativecommons.org/ns#"
   xmlns:rdf="http://www.w3.org/1999/02/22-rdf-syntax-ns#"
   xmlns:svg="http://www.w3.org/2000/svg"
   xmlns="http://www.w3.org/2000/svg"
   id="svg2"
   style="clip-rule:evenodd;fill-rule:evenodd;stroke-linejoin:round;stroke-miterlimit:1.41420996"
   xml:space="preserve"
   version="1.1"
   viewBox="0 0 60 60"
   height="60"
   width="60"><metadata
     id="metadata35"><rdf:RDF><cc:Work
         rdf:about=""><dc:format>image/svg+xml</dc:format><dc:type
           rdf:resource="http://purl.org/dc/dcmitype/StillImage" /><dc:title></dc:title></cc:Work></rdf:RDF></metadata><defs
     id="defs33" /><g
     transform="matrix(0.19997959,0,0,0.19995118,0.00612242,3.3238395e-4)"
     id="Background_circle"><g
       id="g5"><g
         id="g7"><g
           id="g9"><circle
             id="circle11"
             style="fill:#ffffff"
             r="150"
             cy="150"
             cx="150" /><path
             id="path13"
             d="m 150.485,0.001 c 49.5244,-0.30805092 97.99005,26.13918 124.885,67.66 29.14949,43.41669 32.66869,102.35469 9.029,148.98 -22.3226,45.72399 -69.26524,78.27982 -120.017,82.677 C 116.79963,304.27157 67.626954,284.53159 36.597,248.141 4.2284143,211.43134 -7.8772602,158.34647 5.079,111.186 18.20087,60.591626 59.782145,18.758853 110.292,5.321 c 13.07378,-3.5887368 26.6371,-5.36778112 40.193,-5.32 z m -0.919,16 C 104.07954,15.682674 59.676029,40.73106 36.035,79.522 10.237529,120.258 9.3382219,175.08668 33.754,216.66 c 22.507056,39.83833 66.53845,66.428 112.351,67.284 44.86675,1.74378 89.5149,-21.18229 114.552,-58.394 27.38615,-39.18451 30.93913,-93.31402 9.052,-135.793 C 249.0838,48.105271 205.50868,18.954337 159.041,16.3 c -3.15359,-0.209033 -6.31449,-0.309606 -9.475,-0.299 z"
             style="fill:#2d67b9" /></g></g><g
         id="g15"
         transform="translate(0.0808839,-14.5186)"><g
           id="g17"
           transform="translate(-0.0808839,14.5186)"><path
             id="path19"
             d="m 150.531,52.812 c 34.87706,-0.292686 68.04162,24.312009 77.89962,57.78286 8.64283,26.89731 1.84872,57.90078 -17.06362,78.82214 -4.29948,4.83584 -9.1678,9.16629 -14.476,12.867 6.27542,11.09704 12.95577,21.98258 18.977,33.2124 5.42293,11.98717 -12.82702,15.82381 -15.76378,4.35175 C 194.34461,229.98618 188.6794,219.83209 182.861,210.152 154.03612,223.00575 117.93947,217.41943 94.812556,195.66521 69.280745,173.1997 60.72929,134.2074 74.311125,103.07855 86.677946,72.906147 117.92471,52.251992 150.531,52.812 Z"
             style="fill:#ffffff;fill-opacity:0" /><path
             id="path21"
             d="m 150.531,52.812 c 29.07418,-0.106091 57.35182,16.715401 71.249,42.246 14.12742,24.86593 13.66704,57.14718 -1.105,81.62 -5.98127,10.10125 -14.15189,18.8957 -23.784,25.606 6.25097,11.10823 12.99056,21.97 18.977,33.212 1.91171,4.30319 0.22979,10.79267 -4.98,11.599 -5.44008,0.81865 -9.59245,-4.07638 -11.54711,-8.56899 -5.50519,-9.42122 -10.91592,-19.13468 -16.47989,-28.37401 -25.80414,11.49438 -57.48076,8.31992 -80.372,-8.304 -22.950677,-15.98571 -36.45251,-44.30492 -34.42,-72.19 1.597041,-29.693132 20.864047,-57.505215 48.051,-69.542 10.76006,-4.901074 22.59021,-7.392909 34.411,-7.304 z m -0.973,16 c -24.8372,-0.126515 -48.83762,15.218209 -59.276,37.746 -10.745612,22.05828 -7.686571,50.00238 7.72,69.133 13.5683,17.6871 36.63091,27.40673 58.66,24.98 7.41833,-0.66196 14.71345,-2.9115 21.40506,-5.7839 2.02823,-1.18348 5.21567,0.35354 6.12471,-2.31985 3.29824,-3.85101 7.82637,-6.10311 11.15323,-9.59425 8.23605,-7.76741 14.33318,-17.49195 17.714,-28.207 0.0725,-0.2104 0.68665,-2.24624 0.914,-3.182 0.45289,-1.77497 0.69883,-2.89044 0.962,-4.279 3.44066,-17.36339 -0.74721,-37.24941 -11.873,-51.791 C 190.76587,78.755384 170.3444,68.51672 149.558,68.812 Z m 61.291,91.933 c -0.0744,0.18277 0.1692,-0.39681 0,0 z m 0.241,-0.572 c -0.36112,0.91108 -0.11943,0.22288 0,0 z m 4.754,-19.409 c -0.3641,2.76808 0.51255,-2.79458 0,0 l 0,0 z"
             style="fill:#2d67b9" /></g><g
           id="g23"
           transform="translate(-0.0234314,18.6466)"><path
             id="path25"
             style="fill:#2d67b9"
             d="m 100.017,104.797 69.758,0 -14.29,-14.29 22.183,0 22.2,22.2 -22.2,22.199 -22.16,0 14.475,-14.475 -69.966,0 0,-15.634 z" /></g><g
           id="g27"
           transform="matrix(-1,0,0,1,300.023,55.9398)"><path
             id="path29"
             style="fill:#2d67b9"
             d="m 100.017,104.797 69.758,0 -14.29,-14.29 22.183,0 22.2,22.2 -22.2,22.199 -22.16,0 14.475,-14.475 -69.966,0 0,-15.634 z" /></g></g></g></g></svg>
