<?xml version="1.0" encoding="UTF-8" standalone="no"?>
<svg
   xmlns:dc="http://purl.org/dc/elements/1.1/"
   xmlns:cc="http://creativecommons.org/ns#"
   xmlns:rdf="http://www.w3.org/1999/02/22-rdf-syntax-ns#"
   xmlns:svg="http://www.w3.org/2000/svg"
   xmlns="http://www.w3.org/2000/svg"
   id="svg182"
   style="clip-rule:evenodd;fill-rule:evenodd;stroke-linejoin:round;stroke-miterlimit:1.41420996"
   xml:space="preserve"
   version="1.1"
   viewBox="0 0 60 60"
   height="60"
   width="60"><metadata
     id="metadata188"><rdf:RDF><cc:Work
         rdf:about=""><dc:format>image/svg+xml</dc:format><dc:type
           rdf:resource="http://purl.org/dc/dcmitype/StillImage" /><dc:title></dc:title></cc:Work></rdf:RDF></metadata><defs
     id="defs186" /><g
     transform="matrix(0.19997959,0,0,0.19995118,0.00612242,3.3238395e-4)"
     id="Background_circle"><g
       id="g179"><g
         id="g165"><circle
           id="circle161"
           style="fill:#ffffff"
           r="150"
           cy="150"
           cx="150" /><path
           id="path163"
           d="m 150.485,0.001 c 49.5244,-0.30805092 97.99005,26.13918 124.885,67.66 29.14949,43.41669 32.66869,102.35469 9.029,148.98 -22.3226,45.72399 -69.26524,78.27982 -120.017,82.677 C 116.79963,304.27157 67.626954,284.53159 36.597,248.141 4.2284143,211.43134 -7.8772602,158.34647 5.079,111.186 18.20087,60.591626 59.782145,18.758853 110.292,5.321 c 13.07378,-3.5887368 26.6371,-5.36778112 40.193,-5.32 z m -0.919,16 C 104.07954,15.682674 59.676029,40.73106 36.035,79.522 10.237529,120.258 9.3382219,175.08668 33.754,216.66 c 22.507056,39.83833 66.53845,66.428 112.351,67.284 44.86675,1.74378 89.5149,-21.18229 114.552,-58.394 27.38615,-39.18451 30.93913,-93.31402 9.052,-135.793 C 249.0838,48.105271 205.50868,18.954337 159.041,16.3 c -3.15359,-0.209033 -6.31449,-0.309606 -9.475,-0.299 z"
           style="fill:#2d67b9" /></g><g
         id="g177"
         transform="matrix(0.965759,0,0,0.965759,11.4918,-14.8634)"><g
           id="g171"
           transform="matrix(-1,0,0,1,299.919,20.7086)"><path
             id="path167"
             d="m 150.531,52.812 c 34.87706,-0.292686 68.04162,24.312009 77.89962,57.78286 8.64283,26.89731 1.84872,57.90078 -17.06362,78.82214 -4.29948,4.83584 -9.1678,9.16629 -14.476,12.867 6.27542,11.09704 12.95577,21.98258 18.977,33.2124 5.42293,11.98717 -12.82702,15.82381 -15.76378,4.35175 C 194.34461,229.98618 188.6794,219.83209 182.861,210.152 154.03612,223.00575 117.93947,217.41943 94.812556,195.66521 69.280745,173.1997 60.72929,134.2074 74.311125,103.07855 86.71685,72.876768 117.883,52.272391 150.531,52.812 Z"
             style="fill:#ffffff;fill-opacity:0" /><path
             id="path169"
             d="m 150.531,52.812 c 29.07485,-0.106674 57.35095,16.716599 71.249,42.246 14.15454,24.89985 13.66048,57.23549 -1.165,81.72 -5.97471,10.05991 -14.12414,18.8177 -23.724,25.506 6.25097,11.10823 12.99056,21.97 18.977,33.212 1.94056,4.32934 0.18585,10.88543 -5.079,11.615 -5.40863,0.73778 -9.4969,-4.12069 -11.44811,-8.58499 -5.50519,-9.42122 -10.91592,-19.13468 -16.47989,-28.37401 -25.80414,11.49438 -57.48076,8.31992 -80.372,-8.304 -22.950677,-15.98571 -36.45251,-44.30492 -34.42,-72.19 1.597041,-29.693132 20.864047,-57.505215 48.051,-69.542 10.75945,-4.900923 22.59083,-7.393023 34.411,-7.304 z m -0.973,16 c -24.83721,-0.126545 -48.83762,15.218213 -59.276,37.746 -10.864963,22.29883 -7.605051,50.60695 8.216,69.755 13.93583,17.72035 37.44204,27.14623 59.66,24.191 6.63808,-0.76668 13.34361,-2.78049 19.422,-5.463 2.13425,-1.36339 5.58973,0.28376 6.61177,-2.47375 3.30067,-3.85145 7.82724,-6.10569 11.15323,-9.59425 10.27811,-9.69705 17.23354,-22.43858 19.718,-36.358 0.26901,-1.5175 0.49591,-3.07349 0.667,-4.708 -0.18184,2.77172 0.0582,-0.74529 0.173,-1.903 1.23586,-14.98314 -3.06446,-31.13818 -12.14,-43.53 C 191.52591,79.157478 170.76088,68.51011 149.558,68.812 Z m 61.409,91.658 c -0.16688,0.37606 0.0398,-0.08 0,0 z m 2.151,-5.894 c -0.0366,0.12421 0.0219,-0.0712 0,0 z m 0.181,-0.589 c -0.27945,0.91901 -0.17597,0.5627 0,0 z m 1.547,-6.211 c -0.30854,1.45344 0.08,-0.34285 0,0 z"
             style="fill:#2d67b9" /></g><g
           id="g175"
           transform="translate(59.823,65.5189)"><path
             id="path173"
             style="fill:#2d67b9"
             d="m 130.096,50 v 80 h -80 V 50 Z m -10,10 h -60 v 60 h 60 z" /></g></g></g></g></svg>
