<svg width="60" height="60" viewBox="0 0 300 300" xmlns="http://www.w3.org/2000/svg" xml:space="preserve" style="fill-rule:evenodd;clip-rule:evenodd;stroke-linejoin:round;stroke-miterlimit:2">
    <circle cx="150" cy="150" r="150" style="fill:#fffefe"/>
    <path d="M150 0c82.787 0 150 67.213 150 150s-67.213 150-150 150S0 232.787 0 150 67.213 0 150 0Zm0 16c73.957 0 134 60.043 134 134s-60.043 134-134 134S16 223.957 16 150 76.043 16 150 16Z" style="fill:#2d67b9"/>
    <path d="M196.31 221.271C182.983 229.954 167.076 235 150 235c-46.913 0-85-38.087-85-85s38.087-85 85-85 85 38.087 85 85c0 24.442-10.338 46.487-26.878 62.001l19.672 27.499a7.505 7.505 0 0 1-1.736 10.464 7.504 7.504 0 0 1-10.464-1.737l-19.284-26.956ZM150 80c38.634 0 70 31.366 70 70s-31.366 70-70 70-70-31.366-70-70 31.366-70 70-70Z" style="fill:#2d67b9" transform="translate(0 -8.181)"/>
    <path d="M195.55 177.204h-70.97c-2.084 0 13.412 15.417 12.094 15.417h-18.377c-1.371 0-17.804-20.379-18.136-23.049h-.005l.001-.038-.001-.038h.005c.332-2.67 16.765-23.049 18.136-23.049h18.377c1.318 0-14.178 15.417-12.094 15.417h70.97v15.34Z" style="fill:#2d67b9" transform="translate(2.147 -7.945)"/>
    <path d="M195.55 177.204h-70.97c-2.084 0 13.412 15.417 12.094 15.417h-18.377c-1.371 0-17.804-20.379-18.136-23.049h-.005l.001-.038-.001-.038h.005c.332-2.67 16.765-23.049 18.136-23.049h18.377c1.318 0-14.178 15.417-12.094 15.417h70.97v15.34Z" style="fill:#2d67b9" transform="rotate(-180 148.926 145.79)"/>
</svg>
