<svg width="60" height="60" viewBox="0 0 300 300" xmlns="http://www.w3.org/2000/svg" xml:space="preserve" style="fill-rule:evenodd;clip-rule:evenodd;stroke-linejoin:round;stroke-miterlimit:2">
    <circle cx="150" cy="150" r="150" style="fill:#fffefe"/>
    <path d="M150 0c82.787 0 150 67.213 150 150s-67.213 150-150 150S0 232.787 0 150 67.213 0 150 0Zm0 16c73.957 0 134 60.043 134 134s-60.043 134-134 134S16 223.957 16 150 76.043 16 150 16Z" style="fill:#2d67b9"/>
    <path d="M181.066 86.193c-6.827-6.535-8.59-17.122-3.657-25.667 5.795-10.038 18.649-13.482 28.687-7.687 10.037 5.795 13.481 18.649 7.686 28.687-4.933 8.545-14.983 12.312-24.056 9.667l-14.098 24.417c9.219 6.884 15.581 17.384 16.977 29.39h28.187c2.245-9.18 10.532-16 20.4-16 11.59 0 21 9.41 21 21s-9.41 21-21 21c-9.868 0-18.155-6.82-20.4-16h-28.187c-1.396 12.006-7.758 22.506-16.977 29.39l14.098 24.417c9.073-2.645 19.123 1.122 24.056 9.667 5.795 10.038 2.351 22.892-7.686 28.687-10.038 5.795-22.892 2.351-28.687-7.687-4.933-8.545-3.17-19.132 3.657-25.667L166.974 189.4A42.721 42.721 0 0 1 150 192.894a42.721 42.721 0 0 1-16.974-3.494l-14.092 24.407c6.827 6.535 8.59 17.122 3.657 25.667-5.795 10.038-18.649 13.482-28.687 7.687-10.037-5.795-13.481-18.649-7.686-28.687 4.933-8.545 14.983-12.312 24.056-9.667l14.098-24.417c-9.219-6.884-15.581-17.384-16.977-29.39H79.208c-2.245 9.18-10.532 16-20.4 16-11.59 0-21-9.41-21-21s9.41-21 21-21c9.868 0 18.155 6.82 20.4 16h28.187c1.396-12.006 7.758-22.506 16.977-29.39l-14.098-24.417c-9.073 2.645-19.123-1.122-24.056-9.667-5.795-10.038-2.351-22.892 7.686-28.687 10.038-5.795 22.892-2.351 28.687 7.687 4.933 8.545 3.17 19.132-3.657 25.667l14.092 24.407A42.721 42.721 0 0 1 150 107.106a42.721 42.721 0 0 1 16.974 3.494l14.092-24.407ZM150 121.823c15.552 0 28.177 12.625 28.177 28.177S165.552 178.177 150 178.177 121.823 165.552 121.823 150s12.625-28.177 28.177-28.177Z" style="fill:#2d67b9" transform="translate(16.28 16.28) scale(.89146)"/>
</svg>
