<?xml version="1.0" encoding="UTF-8" standalone="no"?>
<svg
   xmlns:dc="http://purl.org/dc/elements/1.1/"
   xmlns:cc="http://creativecommons.org/ns#"
   xmlns:rdf="http://www.w3.org/1999/02/22-rdf-syntax-ns#"
   xmlns:svg="http://www.w3.org/2000/svg"
   xmlns="http://www.w3.org/2000/svg"
   id="svg2"
   style="clip-rule:evenodd;fill-rule:evenodd;stroke-linejoin:round;stroke-miterlimit:1.41420996"
   xml:space="preserve"
   version="1.1"
   viewBox="0 0 60 60"
   height="60"
   width="60"><metadata
     id="metadata25"><rdf:RDF><cc:Work
         rdf:about=""><dc:format>image/svg+xml</dc:format><dc:type
           rdf:resource="http://purl.org/dc/dcmitype/StillImage" /><dc:title></dc:title></cc:Work></rdf:RDF></metadata><defs
     id="defs23" /><g
     transform="matrix(0.19997959,0,0,0.19995118,0.00612242,3.3238395e-4)"
     id="Background_circle"><g
       id="g5"><g
         id="g7"><g
           id="g9"><circle
             id="circle11"
             style="fill:#ffffff"
             r="150"
             cy="150"
             cx="150" /><path
             id="path13"
             d="m 150.485,0.001 c 49.5244,-0.30805092 97.99005,26.13918 124.885,67.66 29.14949,43.41669 32.66869,102.35469 9.029,148.98 -22.3226,45.72399 -69.26524,78.27982 -120.017,82.677 C 116.79963,304.27157 67.626954,284.53159 36.597,248.141 4.2284143,211.43134 -7.8772602,158.34647 5.079,111.186 18.20087,60.591626 59.782145,18.758853 110.292,5.321 c 13.07378,-3.5887368 26.6371,-5.36778112 40.193,-5.32 z m -0.919,16 C 104.07954,15.682674 59.676029,40.73106 36.035,79.522 10.237529,120.258 9.3382219,175.08668 33.754,216.66 c 22.507056,39.83833 66.53845,66.428 112.351,67.284 44.86675,1.74378 89.5149,-21.18229 114.552,-58.394 27.38615,-39.18451 30.93913,-93.31402 9.052,-135.793 C 249.0838,48.105271 205.50868,18.954337 159.041,16.3 c -3.15359,-0.209033 -6.31449,-0.309606 -9.475,-0.299 z"
             style="fill:#2d67b9" /></g></g><g
         id="g15"><path
           id="path17"
           style="fill:#2d67b9"
           d="m 181.066,86.193 c -6.827,-6.535 -8.59,-17.122 -3.657,-25.667 5.795,-10.038 18.649,-13.482 28.687,-7.687 10.037,5.795 13.481,18.649 7.686,28.687 -4.933,8.545 -14.983,12.312 -24.056,9.667 l -14.098,24.417 c 9.219,6.884 15.581,17.384 16.977,29.39 l 28.187,0 c 2.245,-9.18 10.532,-16 20.4,-16 11.59,0 21,9.41 21,21 0,11.59 -9.41,21 -21,21 -9.868,0 -18.155,-6.82 -20.4,-16 l -28.187,0 c -1.396,12.006 -7.758,22.506 -16.977,29.39 l 14.098,24.417 c 9.073,-2.645 19.123,1.122 24.056,9.667 5.795,10.038 2.351,22.892 -7.686,28.687 -10.038,5.795 -22.892,2.351 -28.687,-7.687 -4.933,-8.545 -3.17,-19.132 3.657,-25.667 L 166.974,189.4 c -5.207,2.248 -10.946,3.494 -16.974,3.494 -6.028,0 -11.767,-1.246 -16.974,-3.494 l -14.092,24.407 c 6.827,6.535 8.59,17.122 3.657,25.667 -5.795,10.038 -18.649,13.482 -28.687,7.687 -10.037,-5.795 -13.481,-18.649 -7.686,-28.687 4.933,-8.545 14.983,-12.312 24.056,-9.667 L 124.372,184.39 C 115.153,177.506 108.791,167.006 107.395,155 l -28.187,0 c -2.245,9.18 -10.532,16 -20.4,16 -11.59,0 -21,-9.41 -21,-21 0,-11.59 9.41,-21 21,-21 9.868,0 18.155,6.82 20.4,16 l 28.187,0 c 1.396,-12.006 7.758,-22.506 16.977,-29.39 L 110.274,91.193 c -9.073,2.645 -19.123,-1.122 -24.056,-9.667 -5.795,-10.038 -2.351,-22.892 7.686,-28.687 10.038,-5.795 22.892,-2.351 28.687,7.687 4.933,8.545 3.17,19.132 -3.657,25.667 l 14.092,24.407 c 5.207,-2.248 10.946,-3.494 16.974,-3.494 6.028,0 11.767,1.246 16.974,3.494 L 181.066,86.193 Z M 159.2,175.935 150,160 l -9.2,15.935 c 2.877,1.022 5.974,1.578 9.2,1.578 3.226,0 6.323,-0.556 9.2,-1.578 z m -27.055,-5.009 9.195,-15.926 -18.399,0 c 1.164,6.332 4.5,11.907 9.204,15.926 z M 177.059,155 l -18.399,0 9.195,15.926 c 4.704,-4.019 8.04,-9.594 9.204,-15.926 z m -44.914,-25.926 c -4.704,4.019 -8.04,9.594 -9.204,15.926 l 18.399,0 -9.195,-15.926 z m 35.71,0 -9.195,15.926 18.399,0 c -1.164,-6.332 -4.5,-11.907 -9.204,-15.926 z m -8.655,-5.009 c -2.877,-1.022 -5.974,-1.578 -9.2,-1.578 -3.226,0 -6.323,0.556 -9.2,1.578 L 150,140 l 9.2,-15.935 z" /><circle
           id="circle19"
           style="fill:#ffffff"
           r="28.177"
           cy="150"
           cx="150" /></g></g></g></svg>
