<svg width="60" height="60" viewBox="0 0 300 300" xmlns="http://www.w3.org/2000/svg" xml:space="preserve" style="fill-rule:evenodd;clip-rule:evenodd;stroke-linejoin:round;stroke-miterlimit:2">
    <circle cx="150" cy="150" r="150" style="fill:#fffefe"/>
    <path d="M150 0c82.787 0 150 67.213 150 150s-67.213 150-150 150S0 232.787 0 150 67.213 0 150 0Zm0 16c73.957 0 134 60.043 134 134s-60.043 134-134 134S16 223.957 16 150 76.043 16 150 16Z" style="fill:#2d67b9"/>
    <path d="M144 108.687c-8.111-2.551-14-10.134-14-19.082 0-11.039 8.962-20 20-20s20 8.961 20 20c0 8.948-5.889 16.531-14 19.082v22.23c8.111 2.551 14 10.135 14 19.083a19.9 19.9 0 0 1-2.266 9.249l22.997 22.997a19.904 19.904 0 0 1 9.299-2.291c11.038 0 20 8.962 20 20s-8.962 20-20 20c-11.039 0-20-8.962-20-20 0-3.317.808-6.445 2.24-9.2l-23.021-23.021A19.9 19.9 0 0 1 150 170a19.9 19.9 0 0 1-9.249-2.266l-22.99 22.99a19.9 19.9 0 0 1 2.256 9.231c0 11.038-8.961 20-20 20-11.038 0-20-8.962-20-20s8.962-20 20-20a19.9 19.9 0 0 1 9.268 2.275l22.981-22.981A19.9 19.9 0 0 1 130 150c0-8.948 5.889-16.532 14-19.083v-22.23Z" style="fill:#2d67b9" transform="translate(-22.944 -22.2) scale(1.15278)"/>
</svg>
