<?xml version="1.0" encoding="UTF-8" standalone="no"?>
<svg
   xmlns:dc="http://purl.org/dc/elements/1.1/"
   xmlns:cc="http://creativecommons.org/ns#"
   xmlns:rdf="http://www.w3.org/1999/02/22-rdf-syntax-ns#"
   xmlns:svg="http://www.w3.org/2000/svg"
   xmlns="http://www.w3.org/2000/svg"
   id="svg2"
   style="clip-rule:evenodd;fill-rule:evenodd;stroke-linejoin:round;stroke-miterlimit:1.41420996"
   xml:space="preserve"
   version="1.1"
   viewBox="0 0 60 60"
   height="60"
   width="60"><metadata
     id="metadata21"><rdf:RDF><cc:Work
         rdf:about=""><dc:format>image/svg+xml</dc:format><dc:type
           rdf:resource="http://purl.org/dc/dcmitype/StillImage" /><dc:title></dc:title></cc:Work></rdf:RDF></metadata><defs
     id="defs19" /><g
     transform="matrix(0.19997959,0,0,0.19995118,0.00612242,3.3238395e-4)"
     id="Background_circle"><g
       id="g5"><g
         id="g7"><g
           id="g9"><circle
             id="circle11"
             style="fill:#ffffff"
             r="150"
             cy="150"
             cx="150" /><path
             id="path13"
             d="m 150.485,0.001 c 49.5244,-0.30805092 97.99005,26.13918 124.885,67.66 29.14949,43.41669 32.66869,102.35469 9.029,148.98 -22.3226,45.72399 -69.26524,78.27982 -120.017,82.677 C 116.79963,304.27157 67.626954,284.53159 36.597,248.141 4.2284143,211.43134 -7.8772602,158.34647 5.079,111.186 18.20087,60.591626 59.782145,18.758853 110.292,5.321 c 13.07378,-3.5887368 26.6371,-5.36778112 40.193,-5.32 z m -0.919,16 C 104.07954,15.682674 59.676029,40.73106 36.035,79.522 10.237529,120.258 9.3382219,175.08668 33.754,216.66 c 22.507056,39.83833 66.53845,66.428 112.351,67.284 44.86675,1.74378 89.5149,-21.18229 114.552,-58.394 27.38615,-39.18451 30.93913,-93.31402 9.052,-135.793 C 249.0838,48.105271 205.50868,18.954337 159.041,16.3 c -3.15359,-0.209033 -6.31449,-0.309606 -9.475,-0.299 z"
             style="fill:#2d67b9" /></g></g><path
         id="path15"
         style="fill:#2d67b9"
         d="m 144,108.687 c -8.111,-2.551 -14,-10.134 -14,-19.082 0,-11.039 8.962,-20 20,-20 11.038,0 20,8.961 20,20 0,8.948 -5.889,16.531 -14,19.082 l 0,22.23 c 8.111,2.551 14,10.135 14,19.083 0,3.336 -0.819,6.482 -2.266,9.249 l 22.997,22.997 c 2.779,-1.463 5.943,-2.291 9.299,-2.291 11.038,0 20,8.962 20,20 0,11.038 -8.962,20 -20,20 -11.039,0 -20,-8.962 -20,-20 0,-3.317 0.808,-6.445 2.24,-9.2 L 159.249,167.734 C 156.482,169.181 153.336,170 150,170 c -3.336,0 -6.482,-0.819 -9.249,-2.266 l -22.99,22.99 c 1.441,2.762 2.256,5.902 2.256,9.231 0,11.038 -8.961,20 -20,20 -11.038,0 -20,-8.962 -20,-20 0,-11.038 8.962,-20 20,-20 3.344,0 6.497,0.822 9.268,2.275 l 22.981,-22.981 C 130.819,156.482 130,153.336 130,150 c 0,-8.948 5.889,-16.532 14,-19.083 l 0,-22.23 z" /></g></g></svg>
