<?xml version="1.0" encoding="UTF-8" standalone="no"?>
<svg
   xmlns:dc="http://purl.org/dc/elements/1.1/"
   xmlns:cc="http://creativecommons.org/ns#"
   xmlns:rdf="http://www.w3.org/1999/02/22-rdf-syntax-ns#"
   xmlns:svg="http://www.w3.org/2000/svg"
   xmlns="http://www.w3.org/2000/svg"
   id="svg354"
   style="clip-rule:evenodd;fill-rule:evenodd;stroke-linejoin:round;stroke-miterlimit:1.41420996"
   xml:space="preserve"
   version="1.1"
   viewBox="0 0 60 60"
   height="60"
   width="60"><metadata
     id="metadata360"><rdf:RDF><cc:Work
         rdf:about=""><dc:format>image/svg+xml</dc:format><dc:type
           rdf:resource="http://purl.org/dc/dcmitype/StillImage" /><dc:title></dc:title></cc:Work></rdf:RDF></metadata><defs
     id="defs358" /><g
     transform="matrix(0.19997959,0,0,0.19995118,0.00612242,3.3238395e-4)"
     id="Background_circle"><g
       id="g351"><g
         id="g319"><circle
           id="circle315"
           style="fill:#ffffff"
           r="150"
           cy="150"
           cx="150" /><path
           id="path317"
           d="m 150.485,0.001 c 49.5244,-0.30805092 97.99005,26.13918 124.885,67.66 29.14949,43.41669 32.66869,102.35469 9.029,148.98 -22.3226,45.72399 -69.26524,78.27982 -120.017,82.677 C 116.79963,304.27157 67.626954,284.53159 36.597,248.141 4.2284143,211.43134 -7.8772602,158.34647 5.079,111.186 18.20087,60.591626 59.782145,18.758853 110.292,5.321 c 13.07378,-3.5887368 26.6371,-5.36778112 40.193,-5.32 z m -0.919,16 C 104.07954,15.682674 59.676029,40.73106 36.035,79.522 10.237529,120.258 9.3382219,175.08668 33.754,216.66 c 22.507056,39.83833 66.53845,66.428 112.351,67.284 44.86675,1.74378 89.5149,-21.18229 114.552,-58.394 27.38615,-39.18451 30.93913,-93.31402 9.052,-135.793 C 249.0838,48.105271 205.50868,18.954337 159.041,16.3 c -3.15359,-0.209033 -6.31449,-0.309606 -9.475,-0.299 z"
           style="fill:#2d67b9" /></g><g
         id="g349"
         transform="translate(-0.30157,11.1657)"><g
           id="g323"
           transform="matrix(0.712935,0,0,0.712935,43.3615,44.2244)"><path
             id="path321"
             style="fill:#2d67b9"
             d="m 122.981,208.691 c -0.709,-0.211 -1.327,-0.441 -1.827,-0.691 -4.3,-2.15 -8.019,-7.193 -8,-12 0.105,-26.438 -7.525,-37.446 -19.502,-56.75 C 87.984,129.292 85,117.997 85,106.5 85,70.35 113.936,41 149.577,41 c 35.641,0 64.577,29.35 64.577,65.5 0,11.497 -2.984,22.792 -8.652,32.75 -11.977,19.304 -19.608,30.312 -19.502,56.75 0.019,4.807 -3.7,9.85 -8,12 -0.541,0.27 -1.219,0.517 -2,0.741 v 39.882 c 0,1.864 -1.513,3.377 -3.377,3.377 h -0.065 l -10.813,15 h -24.51 l -10.813,-15 h -0.064 c -1.864,0 -3.377,-1.513 -3.377,-3.377 z" /></g><g
           id="g327"
           transform="translate(-2.57686)"><path
             id="path325"
             style="fill:#2d67b9"
             d="m 83.659,109.101 c 1.819,0.883 1.96,21.248 0,22.101 -2.326,1.013 -32.082,-8.967 -32.082,-11.05 0,-1.969 29.981,-12.071 32.082,-11.051 z" /></g><g
           id="g331"
           transform="rotate(-30.000012,148.71145,124.96043)"><path
             id="path329"
             style="fill:#2d67b9"
             d="m 83.659,109.101 c 1.819,0.883 1.96,21.248 0,22.101 -2.326,1.013 -32.082,-8.967 -32.082,-11.05 0,-1.969 29.981,-12.071 32.082,-11.051 z" /></g><g
           id="g335"
           transform="rotate(30.000012,148.71164,115.34332)"><path
             id="path333"
             style="fill:#2d67b9"
             d="m 83.659,109.101 c 1.819,0.883 1.96,21.248 0,22.101 -2.326,1.013 -32.082,-8.967 -32.082,-11.05 0,-1.969 29.981,-12.071 32.082,-11.051 z" /></g><g
           id="g339"
           transform="matrix(-1,0,0,1,303.18,0)"><path
             id="path337"
             style="fill:#2d67b9"
             d="m 83.659,109.101 c 1.819,0.883 1.96,21.248 0,22.101 -2.326,1.013 -32.082,-8.967 -32.082,-11.05 0,-1.969 29.981,-12.071 32.082,-11.051 z" /></g><g
           id="g343"
           transform="matrix(-0.866025,-0.5,-0.5,0.866025,343.16,91.0973)"><path
             id="path341"
             style="fill:#2d67b9"
             d="m 83.659,109.101 c 1.819,0.883 1.96,21.248 0,22.101 -2.326,1.013 -32.082,-8.967 -32.082,-11.05 0,-1.969 29.981,-12.071 32.082,-11.051 z" /></g><g
           id="g347"
           transform="matrix(-0.866025,0.5,0.5,0.866025,223.008,-58.9027)"><path
             id="path345"
             style="fill:#2d67b9"
             d="m 83.659,109.101 c 1.819,0.883 1.96,21.248 0,22.101 -2.326,1.013 -32.082,-8.967 -32.082,-11.05 0,-1.969 29.981,-12.071 32.082,-11.051 z" /></g></g></g></g></svg>
