<svg width="60" height="60" viewBox="0 0 300 300" xmlns="http://www.w3.org/2000/svg" xml:space="preserve" style="fill-rule:evenodd;clip-rule:evenodd;stroke-linejoin:round;stroke-miterlimit:2">
    <circle cx="150" cy="150" r="150" style="fill:#fffefe"/>
    <path d="M150 0c82.787 0 150 67.213 150 150s-67.213 150-150 150S0 232.787 0 150 67.213 0 150 0Zm0 16c73.957 0 134 60.043 134 134s-60.043 134-134 134S16 223.957 16 150 76.043 16 150 16Z" style="fill:#2d67b9"/>
    <path d="m140.78 150.964 9.808-9.809-5.767-5.768c-5.566-5.565-5.566-14.602 0-20.167l51.842-51.842c5.565-5.565 14.602-5.565 20.167 0l20.167 20.167c5.566 5.566 5.566 14.602 0 20.167l-51.842 51.843c-5.565 5.565-14.602 5.565-20.167 0l-5.768-5.768-9.808 9.808 5.767 5.768c5.566 5.566 5.566 14.602 0 20.167l-51.842 51.843c-5.565 5.565-14.602 5.565-20.167 0l-20.167-20.168c-5.566-5.565-5.566-14.602 0-20.167l51.842-51.842c5.565-5.565 14.602-5.565 20.167 0l5.768 5.768Zm-12.16 12.16a5.237 5.237 0 0 0-6.733.564l-40.311 40.311a5.235 5.235 0 0 0 0 7.4l7.4 7.4a5.235 5.235 0 0 0 7.4 0l40.311-40.311a5.237 5.237 0 0 0 .565-6.733l-3.44 3.44a4.267 4.267 0 0 1-6.031 0l-2.601-2.601a4.267 4.267 0 0 1 0-6.031l3.44-3.439Zm42.841-25.578a5.236 5.236 0 0 0 6.733-.565l40.311-40.311a5.235 5.235 0 0 0 0-7.4l-7.4-7.4a5.235 5.235 0 0 0-7.4 0l-40.311 40.311a5.238 5.238 0 0 0-.565 6.733l3.424-3.424a4.267 4.267 0 0 1 6.031 0l2.601 2.601a4.267 4.267 0 0 1 0 6.031l-3.424 3.424Z" style="fill:#2d67b9" transform="translate(11.93 11.96) scale(.92047)"/>
</svg>
