<svg width="60" height="60" viewBox="0 0 300 300" xmlns="http://www.w3.org/2000/svg" xml:space="preserve" style="fill-rule:evenodd;clip-rule:evenodd;stroke-linejoin:round;stroke-miterlimit:2">
    <circle cx="150" cy="150" r="150" style="fill:#fffefe"/>
    <path d="M150 0c82.787 0 150 67.213 150 150s-67.213 150-150 150S0 232.787 0 150 67.213 0 150 0Zm0 16c73.957 0 134 60.043 134 134s-60.043 134-134 134S16 223.957 16 150 76.043 16 150 16Z" style="fill:#2d67b9"/>
    <path d="M72.756 101.516a59.946 59.946 0 0 1-5.145-24.376c0-33.126 26.797-60.02 59.803-60.02s59.802 26.894 59.802 60.02a59.946 59.946 0 0 1-5.145 24.376h.023l-54.68 145.048-54.681-145.048h.023Zm54.658-66.387c23.102 0 41.858 18.825 41.858 42.011 0 23.186-18.756 42.011-41.858 42.011-23.103 0-41.859-18.825-41.859-42.011 0-23.186 18.756-42.011 41.859-42.011Z" style="fill:#2d67b9" transform="matrix(.87135 0 0 .87135 38.977 35.119)"/>
</svg>
