<svg width="60" height="60" viewBox="0 0 300 300" xmlns="http://www.w3.org/2000/svg" xml:space="preserve" style="fill-rule:evenodd;clip-rule:evenodd;stroke-linejoin:round;stroke-miterlimit:2">
    <circle cx="150" cy="150" r="150" style="fill:#fffefe"/>
    <path d="m150.485.001.484.002.485.004.483.005.484.007.483.009.483.01.482.011.482.013.482.015.481.016.481.017.48.019.48.021.48.022.479.023.479.025.478.027.479.028.477.03.478.031.476.032.477.034.476.036.476.037.475.038.475.04.474.042.474.043.474.044.473.046.472.047.473.049.472.05.471.052.471.053.471.055.47.056.469.057.469.059.469.06.469.062.467.064.468.064.467.067.466.067.466.069.466.071.465.072.464.073.465.075.463.076.463.077.463.079.462.081.462.082.461.083.461.084.92.174.459.089.459.09.459.092.457.093.458.094.456.096.457.097.455.099.456.1.454.101.455.103.453.104.453.105.453.107.452.108.452.11.451.111.45.112.45.114.45.115.449.116.448.118.448.119.447.12.447.122.446.123.446.125.445.125.888.256.444.13.442.131.443.132.441.134.441.135.441.136.44.138.439.139.439.141.438.141.438.143.437.144.436.146.436.147.435.148.435.149.434.151.433.152.433.153.432.155.432.156.431.157.86.318.429.161.429.163.427.163.428.165.426.166.426.167.426.169.424.17.425.171.846.346.422.175.422.176.42.178.421.178.419.18.419.181.418.182.418.184.417.185.416.186.416.187.415.189.414.189.413.191.413.192.824.388.411.196.41.197.41.198.816.4.408.202.406.203.406.204.406.206.404.206.404.208.403.209.403.21.402.211.401.213.4.214.399.214.399.216.796.436.397.219.395.221.396.222.394.223.394.224.393.225.784.454.39.229.39.23.39.231.388.232.388.233.387.235.386.235.385.237.385.238.384.239.383.24.383.241.762.486.38.244.379.246.379.247.377.248.377.249.376.25.376.251.374.252.374.254.373.254.372.256.371.256.37.258.37.259.369.26.368.261.367.262.367.263.365.264.365.265.364.267.363.267.362.268.362.27.72.542.359.273.358.274.357.274.356.276.356.277.355.278.353.279.353.28.352.281.352.282.35.283.35.284.348.285.348.287.347.287.346.288.345.289.344.29.344.292.342.292.342.293.68.59.339.296.338.297.337.299.336.299.336.3.334.301.334.303.332.303.332.304.331.305.329.306.329.308.328.308.327.309.327.31.325.311.324.312.324.313.322.314.642.63.32.317.636.636.317.32.63.642.314.322.313.324.312.324.311.325.31.327.309.327.308.328.308.329.306.329.305.331.304.332.303.332.303.334.301.334.3.336.299.336.299.337.297.338.296.339.59.68.293.342.292.342.292.344.29.344.289.345.288.346.287.347.287.348.285.348.284.35.283.35.282.352.281.352.28.353.279.353.278.355.277.356.276.356.274.357.274.358.273.359.542.72.27.362.268.362.267.363.267.364.265.365.264.365.263.367.262.367.261.368.26.369.259.37.258.37.256.371.256.372.254.373.254.374.252.374.251.376.25.376.249.377.248.377.247.379.246.379.244.38.486.762.241.383.24.383.239.384.238.385.237.385.235.386.235.387.233.388.232.388.231.39.23.39.229.39.454.784.225.393.224.394.223.394.222.396.221.395.219.397.436.796.216.399.214.399.214.4.213.401.211.402.21.403.209.403.208.404.206.404.206.406.204.406.203.406.202.408.4.816.198.41.197.41.196.411.388.824.192.413.191.413.189.414.189.415.187.416.186.416.185.417.184.418.182.418.181.419.18.419.178.421.178.42.176.422.175.422.346.846.171.425.17.424.169.426.167.426.166.426.165.428.163.427.163.429.161.429.318.86.157.431.156.432.155.432.153.433.152.433.151.434.149.435.148.435.147.436.146.436.144.437.143.438.141.438.141.439.139.439.138.44.136.441.135.441.134.441.132.443.131.442.13.444.256.888.125.445.125.446.123.446.122.447.12.447.119.448.118.448.116.449.115.45.114.45.112.45.111.451.11.452.108.452.107.453.105.453.104.453.103.455.101.454.1.456.099.455.097.457.096.456.094.458.093.457.092.459.09.459.089.459.174.92.084.461.083.461.082.462.081.462.079.463.077.463.076.463.075.465.073.464.072.465.071.466.069.466.067.466.067.467.064.468.064.467.062.469.06.469.059.469.057.469.056.47.055.471.053.471.052.471.05.472.049.473.047.472.046.473.044.474.043.474.042.474.04.475.038.475.037.476.036.476.034.477.032.476.031.478.03.477.028.479.027.478.025.479.023.479.022.48.021.48.019.48.017.481.016.481.015.482.013.482.011.482.01.483.009.483.007.484.005.483.004.485.002.484.001.485-.001.485-.002.484-.004.485-.005.483-.007.484-.009.483-.01.483-.011.482-.013.482-.015.482-.016.481-.017.481-.019.48-.021.48-.022.48-.023.479-.025.479-.027.478-.028.479-.03.477-.031.478-.032.476-.034.477-.036.476-.037.476-.038.475-.04.475-.042.474-.043.474-.044.474-.046.473-.047.472-.049.473-.05.472-.052.471-.053.471-.055.471-.056.47-.057.469-.059.469-.06.469-.062.469-.064.467-.064.468-.067.467-.067.466-.069.466-.071.466-.072.465-.073.464-.075.465-.076.463-.077.463-.079.463-.081.462-.082.462-.083.461-.084.461-.174.92-.089.459-.09.459-.092.459-.093.457-.094.458-.096.456-.097.457-.099.455-.1.456-.101.454-.103.455-.104.453-.105.453-.107.453-.108.452-.11.452-.111.451-.112.45-.114.45-.115.45-.116.449-.118.448-.119.448-.12.447-.122.447-.123.446-.125.446-.125.445-.256.888-.13.444-.131.442-.132.443-.134.441-.135.441-.136.441-.138.44-.139.439-.141.439-.141.438-.143.438-.144.437-.146.436-.147.436-.148.435-.149.435-.151.434-.152.433-.153.433-.155.432-.156.432-.157.431-.318.86-.161.429-.163.429-.163.427-.165.428-.166.426-.167.426-.169.426-.17.424-.171.425-.346.846-.175.422-.176.422-.178.42-.178.421-.18.419-.181.419-.182.418-.184.418-.185.417-.186.416-.187.416-.189.415-.189.414-.191.413-.192.413-.388.824-.196.411-.197.41-.198.41-.4.816-.202.408-.203.406-.204.406-.206.406-.206.404-.208.404-.209.403-.21.403-.211.402-.213.401-.214.4-.214.399-.216.399-.436.796-.219.397-.221.395-.222.396-.223.394-.224.394-.225.393-.454.784-.229.39-.23.39-.231.39-.232.388-.233.388-.235.387-.235.386-.237.385-.238.385-.239.384-.24.383-.241.383-.486.762-.244.38-.246.379-.247.379-.248.377-.249.377-.25.376-.251.376-.252.374-.254.374-.254.373-.256.372-.256.371-.258.37-.259.37-.26.369-.261.368-.262.367-.263.367-.264.365-.265.365-.267.364-.267.363-.268.362-.27.362-.542.72-.273.359-.274.358-.274.357-.276.356-.277.356-.278.355-.279.353-.28.353-.281.352-.282.352-.283.35-.284.35-.285.348-.287.348-.287.347-.288.346-.289.345-.29.344-.292.344-.292.342-.293.342-.59.68-.296.339-.297.338-.299.337-.299.336-.3.336-.301.334-.303.334-.303.332-.304.332-.305.331-.306.329-.308.329-.308.328-.309.327-.31.327-.311.325-.312.324-.313.324-.314.322-.63.642-.317.32-.636.636-.32.317-.642.63-.322.314-.324.313-.324.312-.325.311-.327.31-.327.309-.328.308-.329.308-.329.306-.331.305-.332.304-.332.303-.334.303-.334.301-.336.3-.336.299-.337.299-.338.297-.339.296-.68.59-.342.293-.342.292-.344.292-.344.29-.345.289-.346.288-.347.287-.348.287-.348.285-.35.284-.35.283-.352.282-.352.281-.353.28-.353.279-.355.278-.356.277-.356.276-.357.274-.358.274-.359.273-.72.542-.362.27-.362.268-.363.267-.364.267-.365.265-.365.264-.367.263-.367.262-.368.261-.369.26-.37.259-.37.258-.371.256-.372.256-.373.254-.374.254-.374.252-.376.251-.376.25-.377.249-.377.248-.379.247-.379.246-.38.244-.762.486-.383.241-.383.24-.384.239-.385.238-.385.237-.386.235-.387.235-.388.233-.388.232-.39.231-.39.23-.39.229-.784.454-.393.225-.394.224-.394.223-.396.222-.395.221-.397.219-.796.436-.399.216-.399.214-.4.214-.401.213-.402.211-.403.21-.403.209-.404.208-.404.206-.406.206-.406.204-.406.203-.408.202-.816.4-.41.198-.41.197-.411.196-.824.388-.413.192-.413.191-.414.189-.415.189-.416.187-.416.186-.417.185-.418.184-.418.182-.419.181-.419.18-.421.178-.42.178-.422.176-.422.175-.846.346-.425.171-.424.17-.426.169-.426.167-.426.166-.428.165-.427.163-.429.163-.429.161-.86.318-.431.157-.432.156-.432.155-.433.153-.433.152-.434.151-.435.149-.435.148-.436.147-.436.146-.437.144-.438.143-.438.141-.439.141-.439.139-.44.138-.441.136-.441.135-.441.134-.443.132-.442.131-.444.13-.888.256-.445.125-.446.125-.446.123-.447.122-.447.12-.448.119-.448.118-.449.116-.45.115-.45.114-.45.112-.451.111-.452.11-.452.108-.453.107-.453.105-.453.104-.455.103-.454.101-.456.1-.455.099-.457.097-.456.096-.458.094-.457.093-.459.092-.459.09-.459.089-.92.174-.461.084-.461.083-.462.082-.462.081-.463.079-.463.077-.463.076-.465.075-.464.073-.465.072-.466.071-.466.069-.466.067-.467.067-.468.064-.467.064-.469.062-.469.06-.469.059-.469.057-.47.056-.471.055-.471.053-.471.052-.472.05-.473.049-.472.047-.473.046-.474.044-.474.043-.474.042-.475.04-.475.038-.476.037-.476.036-.477.034-.476.032-.478.031-.477.03-.479.028-.478.027-.479.025-.479.023-.48.022-.48.021-.48.019-.481.017-.481.016-.482.015-.482.013-.482.011-.483.01-.483.009-.484.007-.483.005-.485.004-.484.002L150 300l-.485-.001-.484-.002-.485-.004-.483-.005-.484-.007-.483-.009-.483-.01-.482-.011-.482-.013-.482-.015-.481-.016-.481-.017-.48-.019-.48-.021-.48-.022-.479-.023-.479-.025-.478-.027-.479-.028-.477-.03-.478-.031-.476-.032-.477-.034-.476-.036-.476-.037-.475-.038-.475-.04-.474-.042-.474-.043-.474-.044-.473-.046-.472-.047-.473-.049-.472-.05-.471-.052-.471-.053-.471-.055-.47-.056-.469-.057-.469-.059-.469-.06-.469-.062-.467-.064-.468-.064-.467-.067-.466-.067-.466-.069-.466-.071-.465-.072-.464-.073-.465-.075-.463-.076-.463-.077-.463-.079-.462-.081-.462-.082-.461-.083-.461-.084-.92-.174-.459-.089-.459-.09-.459-.092-.457-.093-.458-.094-.456-.096-.457-.097-.455-.099-.456-.1-.454-.101-.455-.103-.453-.104-.453-.105-.453-.107-.452-.108-.452-.11-.451-.111-.45-.112-.45-.114-.45-.115-.449-.116-.448-.118-.448-.119-.447-.12-.447-.122-.446-.123-.446-.125-.445-.125-.888-.256-.444-.13-.442-.131-.443-.132-.441-.134-.441-.135-.441-.136-.44-.138-.439-.139-.439-.141-.438-.141-.438-.143-.437-.144-.436-.146-.436-.147-.435-.148-.435-.149-.434-.151-.433-.152-.433-.153-.432-.155-.432-.156-.431-.157-.86-.318-.429-.161-.429-.163-.427-.163-.428-.165-.426-.166-.426-.167-.426-.169-.424-.17-.425-.171-.846-.346-.422-.175-.422-.176-.42-.178-.421-.178-.419-.18-.419-.181-.418-.182-.418-.184-.417-.185-.416-.186-.416-.187-.415-.189-.414-.189-.413-.191-.413-.192-.824-.388-.411-.196-.41-.197-.41-.198-.816-.4-.408-.202-.406-.203-.406-.204-.406-.206-.404-.206-.404-.208-.403-.209-.403-.21-.402-.211-.401-.213-.4-.214-.399-.214-.399-.216-.796-.436-.397-.219-.395-.221-.396-.222-.394-.223-.394-.224-.393-.225-.784-.454-.39-.229-.39-.23-.39-.231-.388-.232-.388-.233-.387-.235-.386-.235-.385-.237-.385-.238-.384-.239-.383-.24-.383-.241-.762-.486-.38-.244-.379-.246-.379-.247-.377-.248-.377-.249-.376-.25-.376-.251-.374-.252-.374-.254-.373-.254-.372-.256-.371-.256-.37-.258-.37-.259-.369-.26-.368-.261-.367-.262-.367-.263-.365-.264-.365-.265-.364-.267-.363-.267-.362-.268-.362-.27-.72-.542-.359-.273-.358-.274-.357-.274-.356-.276-.356-.277-.355-.278-.353-.279-.353-.28-.352-.281-.352-.282-.35-.283-.35-.284-.348-.285-.348-.287-.347-.287-.346-.288-.345-.289-.344-.29-.344-.292-.342-.292-.342-.293-.68-.59-.339-.296-.338-.297-.337-.299-.336-.299-.336-.3-.334-.301-.334-.303-.332-.303-.332-.304-.331-.305-.329-.306-.329-.308-.328-.308-.327-.309-.327-.31-.325-.311-.324-.312-.324-.313-.322-.314-.642-.63-.32-.317-.636-.636-.317-.32-.63-.642-.314-.322-.313-.324-.312-.324-.311-.325-.31-.327-.309-.327-.308-.328-.308-.329-.306-.329-.305-.331-.304-.332-.303-.332-.303-.334-.301-.334-.3-.336-.299-.336-.299-.337-.297-.338-.296-.339-.59-.68-.293-.342-.292-.342-.292-.344-.29-.344-.289-.345-.288-.346-.287-.347-.287-.348-.285-.348-.284-.35-.283-.35-.282-.352-.281-.352-.28-.353-.279-.353-.278-.355-.277-.356-.276-.356-.274-.357-.274-.358-.273-.359-.542-.72-.27-.362-.268-.362-.267-.363-.267-.364-.265-.365-.264-.365-.263-.367-.262-.367-.261-.368-.26-.369-.259-.37-.258-.37-.256-.371-.256-.372-.254-.373-.254-.374-.252-.374-.251-.376-.25-.376-.249-.377-.248-.377-.247-.379-.246-.379-.244-.38-.486-.762-.241-.383-.24-.383-.239-.384-.238-.385-.237-.385-.235-.386-.235-.387-.233-.388-.232-.388-.231-.39-.23-.39-.229-.39-.454-.784-.225-.393-.224-.394-.223-.394-.222-.396-.221-.395-.219-.397-.436-.796-.216-.399-.214-.399-.214-.4-.213-.401-.211-.402-.21-.403-.209-.403-.208-.404-.206-.404-.206-.406-.204-.406-.203-.406-.202-.408-.4-.816-.198-.41-.197-.41-.196-.411-.388-.824-.192-.413-.191-.413-.189-.414-.189-.415-.187-.416-.186-.416-.185-.417-.184-.418-.182-.418-.181-.419-.18-.419-.178-.421-.178-.42-.176-.422-.175-.422-.346-.846-.171-.425-.17-.424-.169-.426-.167-.426-.166-.426-.165-.428-.163-.427-.163-.429-.161-.429-.318-.86-.157-.431-.156-.432-.155-.432-.153-.433-.152-.433-.151-.434-.149-.435-.148-.435-.147-.436-.146-.436-.144-.437-.143-.438-.141-.438-.141-.439-.139-.439-.138-.44-.136-.441-.135-.441-.134-.441-.132-.443-.131-.442-.13-.444-.256-.888-.125-.445-.125-.446-.123-.446-.122-.447-.12-.447-.119-.448-.118-.448-.116-.449-.115-.45-.114-.45-.112-.45-.111-.451-.11-.452-.108-.452-.107-.453-.105-.453-.104-.453-.103-.455-.101-.454-.1-.456-.099-.455-.097-.457-.096-.456-.094-.458-.093-.457-.092-.459-.09-.459-.089-.459-.174-.92-.084-.461-.083-.461-.082-.462-.081-.462-.079-.463-.077-.463-.076-.463-.075-.465-.073-.464-.072-.465-.071-.466-.069-.466-.067-.466-.067-.467-.064-.468-.064-.467-.062-.469-.06-.469-.059-.469-.057-.469-.056-.47-.055-.471-.053-.471-.052-.471-.05-.472-.049-.473-.047-.472-.046-.473-.044-.474-.043-.474-.042-.474-.04-.475-.038-.475-.037-.476-.036-.476-.034-.477-.032-.476-.031-.478-.03-.477-.028-.479-.027-.478-.025-.479-.023-.479-.022-.48-.021-.48-.019-.48-.017-.481-.016-.481-.015-.482-.013-.482-.011-.482-.01-.483-.009-.483-.007-.484-.005-.483-.004-.485-.002-.484L0 150l.001-.485.002-.484.004-.485.005-.483.007-.484.009-.483.01-.483.011-.482.013-.482.015-.482.016-.481.017-.481.019-.48.021-.48.022-.48.023-.479.025-.479.027-.478.028-.479.03-.477.031-.478.032-.476.034-.477.036-.476.037-.476.038-.475.04-.475.042-.474.043-.474.044-.474.046-.473.047-.472.049-.473.05-.472.052-.471.053-.471.055-.471.056-.47.057-.469.059-.469.06-.469.062-.469.064-.467.064-.468.067-.467.067-.466.069-.466.071-.466.072-.465.073-.464.075-.465.076-.463.077-.463.079-.463.081-.462.082-.462.083-.461.084-.461.174-.92.089-.459.09-.459.092-.459.093-.457.094-.458.096-.456.097-.457.099-.455.1-.456.101-.454.103-.455.104-.453.105-.453.107-.453.108-.452.11-.452.111-.451.112-.45.114-.45.115-.45.116-.449.118-.448.119-.448.12-.447.122-.447.123-.446.125-.446.125-.445.256-.888.13-.444.131-.442.132-.443.134-.441.135-.441.136-.441.138-.44.139-.439.141-.439.141-.438.143-.438.144-.437.146-.436.147-.436.148-.435.149-.435.151-.434.152-.433.153-.433.155-.432.156-.432.157-.431.318-.86.161-.429.163-.429.163-.427.165-.428.166-.426.167-.426.169-.426.17-.424.171-.425.346-.846.175-.422.176-.422.178-.42.178-.421.18-.419.181-.419.182-.418.184-.418.185-.417.186-.416.187-.416.189-.415.189-.414.191-.413.192-.413.388-.824.196-.411.197-.41.198-.41.4-.816.202-.408.203-.406.204-.406.206-.406.206-.404.208-.404.209-.403.21-.403.211-.402.213-.401.214-.4.214-.399.216-.399.436-.796.219-.397.221-.395.222-.396.223-.394.224-.394.225-.393.454-.784.229-.39.23-.39.231-.39.232-.388.233-.388.235-.387.235-.386.237-.385.238-.385.239-.384.24-.383.241-.383.486-.762.244-.38.246-.379.247-.379.248-.377.249-.377.25-.376.251-.376.252-.374.254-.374.254-.373.256-.372.256-.371.258-.37.259-.37.26-.369.261-.368.262-.367.263-.367.264-.365.265-.365.267-.364.267-.363.268-.362.27-.362.542-.72.273-.359.274-.358.274-.357.276-.356.277-.356.278-.355.279-.353.28-.353.281-.352.282-.352.283-.35.284-.35.285-.348.287-.348.287-.347.288-.346.289-.345.29-.344.292-.344.292-.342.293-.342.59-.68.296-.339.297-.338.299-.337.299-.336.3-.336.301-.334.303-.334.303-.332.304-.332.305-.331.306-.329.308-.329.308-.328.309-.327.31-.327.311-.325.312-.324.313-.324.314-.322.63-.642.317-.32.636-.636.32-.317.642-.63.322-.314.324-.313.324-.312.325-.311.327-.31.327-.309.328-.308.329-.308.329-.306.331-.305.332-.304.332-.303.334-.303.334-.301.336-.3.336-.299.337-.299.338-.297.339-.296.68-.59.342-.293.342-.292.344-.292.344-.29.345-.289.346-.288.347-.287.348-.287.348-.285.35-.284.35-.283.352-.282.352-.281.353-.28.353-.279.355-.278.356-.277.356-.276.357-.274.358-.274.359-.273.72-.542.362-.27.362-.268.363-.267.364-.267.365-.265.365-.264.367-.263.367-.262.368-.261.369-.26.37-.259.37-.258.371-.256.372-.256.373-.254.374-.254.374-.252.376-.251.376-.25.377-.249.377-.248.379-.247.379-.246.38-.244.762-.486.383-.241.383-.24.384-.239.385-.238.385-.237.386-.235.387-.235.388-.233.388-.232.39-.231.39-.23.39-.229.784-.454.393-.225.394-.224.394-.223.396-.222.395-.221.397-.219.796-.436.399-.216.399-.214.4-.214.401-.213.402-.211.403-.21.403-.209.404-.208.404-.206.406-.206.406-.204.406-.203.408-.202.816-.4.41-.198.41-.197.411-.196.824-.388.413-.192.413-.191.414-.189.415-.189.416-.187.416-.186.417-.185.418-.184.418-.182.419-.181.419-.18.421-.178.42-.178.422-.176.422-.175.846-.346.425-.171.424-.17.426-.169.426-.167.426-.166.428-.165.427-.163.429-.163.429-.161.86-.318.431-.157.432-.156.432-.155.433-.153.433-.152.434-.151.435-.149.435-.148.436-.147.436-.146.437-.144.438-.143.438-.141.439-.141.439-.139.44-.138.441-.136.441-.135.441-.134.443-.132.442-.131.444-.13.888-.256.445-.125.446-.125.446-.123.447-.122.447-.12.448-.119.448-.118.449-.116.45-.115.45-.114.45-.112.451-.111.452-.11.452-.108.453-.107.453-.105.453-.104.455-.103.454-.101.456-.1.455-.099.457-.097.456-.096.458-.094.457-.093.459-.092.459-.09.459-.089.92-.174.461-.084.461-.083.462-.082.462-.081.463-.079.463-.077.463-.076.465-.075.464-.073.465-.072.466-.071.466-.069.466-.067.467-.067.468-.064.467-.064.469-.062.469-.06.469-.059.469-.057.47-.056.471-.055.471-.053.471-.052.472-.05.473-.049.472-.047.473-.046.474-.044.474-.043.474-.042.475-.04.475-.038.476-.037.476-.036.477-.034.476-.032.478-.031.477-.03.479-.028.478-.027.479-.025.479-.023.48-.022.48-.021.48-.019.481-.017.481-.016.482-.015.482-.013.482-.011.483-.01.483-.009.484-.007.483-.005.485-.004.484-.002L150 0l.485.001Zm-.919 16-.434.002-.433.003-.434.005-.432.006-.433.008-.432.009-.431.01-.432.012-.43.013-.431.014-.43.016-.43.017-.429.018-.429.02-.429.021-.428.022-.428.024-.428.025-.427.026-.427.028-.426.029-.426.031-.425.032-.426.033-.424.034-.425.036-.424.037-.423.038-.424.04-.422.041-.423.042-.422.044-.421.044-.422.047-.42.047-.421.049-.42.05-.419.051-.419.053-.419.054-.418.055-.418.057-.418.058-.417.059-.416.06-.416.062-.416.063-.416.064-.414.065-.415.067-.414.068-.413.069-.414.071-.412.072-.412.073-.412.074-.412.076-.411.076-.82.158-.41.08-.409.082-.408.083-.409.085-.407.085-.408.087-.406.088-.407.089-.406.09-.405.092-.405.093-.404.094-.808.192-.403.098-.403.099-.402.1-.802.204-.401.104-.4.105-.4.106-.798.216-.398.11-.397.111-.398.113-.396.113-.397.115-.395.116-.395.117-.395.118-.394.119-.394.121-.393.121-.393.123-.392.124-.782.252-.391.127-.39.129-.389.13-.389.131-.389.132-.388.134-.387.134-.387.136-.386.137-.386.138-.385.139-.385.14-.384.142-.383.142-.383.144-.383.145-.382.146-.381.147-.381.148-.76.3-.379.152-.378.152-.379.154-.377.155-.377.156-.752.316-.375.159-.374.161-.748.324-.373.164-.372.165-.371.166-.742.336-.37.169-.738.342-.368.173-.734.348-.366.176-.366.177-.365.178-.728.36-.363.181-.363.182-.362.184-.361.184-.361.186-.36.186-.359.188-.359.189-.358.189-.358.191-.356.192-.357.193-.355.194-.355.195-.354.196-.354.197-.353.198-.353.2-.351.2-.351.201-.351.202-.349.204-.35.204-.348.205-.348.207-.347.207-.692.418-.345.21-.688.424-.343.214-.342.214-.342.216-.341.216-.68.436-.338.22-.339.22-.674.444-.336.224-.335.224-.335.226-.334.226-.666.456-.331.229-.332.231-.33.231-.33.232-.328.233-.329.235-.327.235-.327.236-.326.237-.325.238-.325.239-.323.24-.324.241-.322.242-.642.486-.32.245-.32.246-.318.246-.318.248-.317.248-.632.5-.314.251-.314.252-.314.253-.312.254-.312.255-.311.256-.31.257-.618.516-.614.52-.307.261-.305.262-.305.264-.606.528-.303.266-.602.534-.598.538-.299.27-.594.544-.295.272-.295.274-.588.55-.584.554-.29.278-.29.279-.29.28-.288.28-.574.564-.286.283-.284.285-.285.284-.283.286-.564.574-.28.288-.28.29-.279.29-.278.29-.554.584-.55.588-.274.295-.272.295-.544.594-.27.299-.538.598-.534.602-.266.303-.528.606-.264.305-.262.305-.261.307-.52.614-.516.618-.257.31-.256.311-.255.312-.254.312-.253.314-.252.314-.251.314-.5.632-.248.317-.248.318-.246.318-.246.32-.245.32-.486.642-.242.322-.241.324-.24.323-.239.325-.238.325-.237.326-.236.327-.235.327-.235.329-.233.328-.232.33-.231.33-.231.332-.229.331-.456.666-.226.334-.226.335-.224.335-.224.336-.444.674-.22.339-.22.338-.436.68-.216.341-.216.342-.214.342-.214.343-.424.688-.21.345-.418.692-.207.347-.207.348-.205.348-.204.35-.204.349-.202.351-.201.351-.2.351-.2.353-.198.353-.197.354-.196.354-.195.355-.194.355-.193.357-.192.356-.191.358-.189.358-.189.359-.188.359-.186.36-.186.361-.184.361-.184.362-.182.363-.181.363-.36.728-.178.365-.177.366-.176.366-.348.734-.173.368-.342.738-.169.37-.336.742-.166.371-.165.372-.164.373-.324.748-.161.374-.159.375-.316.752-.156.377-.155.377-.154.379-.152.378-.152.379-.3.76-.148.381-.147.381-.146.382-.145.383-.144.383-.142.383-.142.384-.14.385-.139.385-.138.386-.137.386-.136.387-.134.387-.134.388-.132.389-.131.389-.13.389-.129.39-.127.391-.252.782-.124.392-.123.393-.121.393-.121.394-.119.394-.118.395-.117.395-.116.395-.115.397-.113.396-.113.398-.111.397-.11.398-.216.798-.106.4-.105.4-.104.401-.204.802-.1.402-.099.403-.098.403-.192.808-.094.404-.093.405-.092.405-.09.406-.089.407-.088.406-.087.408-.085.407-.085.409-.083.408-.082.409-.08.41-.158.82-.076.411-.076.412-.074.412-.073.412-.072.412-.071.414-.069.413-.068.414-.067.415-.065.414-.064.416-.063.416-.062.416-.06.416-.059.417-.058.418-.057.418-.055.418-.054.419-.053.419-.051.419-.05.42-.049.421-.047.42-.047.422-.044.421-.044.422-.042.423-.041.422-.04.424-.038.423-.037.424-.036.425-.034.424-.033.426-.032.425-.031.426-.029.426-.028.427-.026.427-.025.428-.024.428-.022.428-.021.429-.02.429-.018.429-.017.43-.016.43-.014.431-.013.43-.012.432-.01.431-.009.432-.008.433-.006.432-.005.434-.003.433-.002.434L16 150l.001.434.002.434.003.433.005.434.006.432.008.433.009.432.01.431.012.432.013.43.014.431.016.43.017.43.018.429.02.429.021.429.022.428.024.428.025.428.026.427.028.427.029.426.031.426.032.425.033.426.034.424.036.425.037.424.038.423.04.424.041.422.042.423.044.422.044.421.047.422.047.42.049.421.05.42.051.419.053.419.054.419.055.418.057.418.058.418.059.417.06.416.062.416.063.416.064.416.065.414.067.415.068.414.069.413.071.414.072.412.073.412.074.412.076.412.076.411.158.82.08.41.082.409.083.408.085.409.085.407.087.408.088.406.089.407.09.406.092.405.093.405.094.404.192.808.098.403.099.403.1.402.204.802.104.401.105.4.106.4.216.798.11.398.111.398.113.397.113.396.115.396.116.396.116.395.119.395.119.394.121.394.121.393.123.393.124.392.252.782.127.391.129.39.13.389.131.389.132.389.134.388.134.387.136.387.137.386.138.386.139.385.14.385.142.384.142.383.144.383.145.383.146.382.147.381.148.381.3.76.304.758.154.377.155.378.156.377.316.752.16.375.16.374.324.748.164.373.165.372.166.371.336.742.169.37.342.738.173.368.348.734.176.366.177.366.178.365.36.728.181.363.182.363.184.362.184.361.186.361.186.36.188.359.189.359.189.358.191.357.192.357.193.357.194.355.195.355.196.355.197.353.198.353.2.353.2.351.201.351.202.351.408.698.205.349.207.348.207.347.418.692.21.345.424.688.214.343.214.342.216.342.216.341.436.68.22.338.22.339.444.674.224.336.224.335.226.335.226.334.456.666.229.331.462.662.232.33.233.328.235.329.235.327.236.327.237.326.238.325.239.325.24.323.241.324.242.322.486.642.245.32.246.32.246.318.248.318.248.317.5.632.251.314.252.314.253.314.254.312.255.312.256.311.257.31.257.309.259.309.52.614.261.307.262.305.264.305.528.606.266.303.534.602.538.598.271.299.271.297.272.297.272.295.274.295.275.294.275.293.277.293.277.292.278.29.279.29.28.29.28.288.564.574.283.286.569.569.286.283.574.564.289.281.289.279.29.279.29.278.584.554.588.55.295.274.295.272.297.272.297.271.299.271.299.269.299.268.301.268.301.267.303.266.303.265.303.263.61.526.614.522.307.259.309.259.309.257.31.257.311.256.312.254.312.255.314.253.313.252.315.251.632.5.317.248.318.248.318.246.32.246.32.245.642.486.323.242.322.241.324.24.325.239.325.238.326.237.327.236.327.235.328.234.329.234.33.232.662.462.331.229.666.456.334.226.335.226.335.224.336.224.674.444.338.22.339.219.34.219.34.218.341.216.342.216.342.214.343.214.688.424.345.21.346.209.347.209.694.414.348.205.35.204.349.204.35.202.704.402.352.199.353.198.354.197.354.196.355.195.356.194.356.193.356.192.716.38.359.189.359.188.36.186.361.186.361.184.362.184.363.182.363.181.364.181.364.179.365.178.366.177.366.175.367.175.368.174.367.173.369.171.37.171.369.169.37.168.372.168.371.166.373.165.372.163.373.163.375.162.374.161.375.159.752.316.377.156.378.155.377.153.379.153.379.152.76.3.381.148.382.147.381.146.382.145.384.144.383.142.384.142.385.14.385.139.386.138.387.137.386.136.387.134.388.134.389.132.389.131.389.13.39.129.782.254.391.125.393.124.392.123.393.121.394.121.394.119.395.118.395.117.395.116.396.115.398.113.397.113.397.111.398.109.399.109.399.108.4.106.4.105.401.104.802.204.402.1.403.099.403.098.403.096.405.096.404.094.405.093.406.092.405.09.406.089.407.088.408.087.816.17.408.083.409.082.41.08.82.158.411.076.412.076.412.074.412.073.413.072.413.071.413.069.414.068.415.067.414.065.416.064.416.063.415.062.417.06.418.059.417.058.418.057.418.055.418.054.42.053.419.051.42.05.421.049.42.047.421.047.844.088.423.042.422.041.423.04.424.038.424.037.424.036.425.034.426.033.425.032.426.031.427.029.427.028.426.026.428.025.428.024.428.022.429.021.429.02.429.018.43.017.43.016.431.014.43.013.431.012.432.01.432.009.433.008.432.006.433.005.434.003.434.002.434.001.434-.001.434-.002.434-.003.433-.005.432-.006.433-.008.432-.009.432-.01.431-.012.43-.013.431-.014.43-.016.43-.017.429-.018.429-.02.429-.021.428-.022.428-.024.428-.025.426-.026.427-.028.427-.029.426-.031.425-.032.426-.033.425-.034.424-.036.424-.037.424-.038.423-.04.422-.041.423-.042.844-.088.421-.047.42-.047.421-.049.42-.05.419-.051.42-.053.418-.054.418-.055.418-.057.417-.058.418-.059.417-.06.415-.062.416-.063.416-.064.414-.065.415-.067.414-.068.413-.069.413-.071.413-.072.412-.073.412-.074.412-.076.411-.076.82-.158.41-.08.409-.082.408-.083.408-.084.408-.086.408-.087.407-.088.406-.089.405-.09.406-.092.405-.093.404-.094.405-.096.403-.096.403-.098.403-.099.402-.1.802-.204.401-.104.4-.105.4-.106.399-.108.399-.109.398-.109.397-.111.397-.113.398-.113.395-.115.396-.116.395-.117.395-.118.394-.119.394-.121.393-.121.392-.123.393-.124.391-.125.782-.254.39-.129.389-.13.389-.131.389-.132.388-.134.387-.134.386-.136.387-.137.386-.138.385-.139.385-.14.384-.142.383-.142.384-.144.382-.145.381-.146.382-.147.381-.148.76-.3.379-.152.379-.153.377-.153.378-.155.377-.157.376-.157.376-.158.375-.159.374-.161.374-.162.374-.163.373-.163.372-.165.371-.166.372-.168.37-.168.37-.169.738-.342.367-.173.368-.174.367-.175.366-.175.366-.177.365-.178.364-.179.364-.181.363-.181.363-.182.362-.184.361-.184.361-.186.36-.186.359-.188.359-.189.358-.19.357-.19.357-.192.356-.193.356-.194.355-.195.354-.196.354-.197.353-.198.704-.4.352-.201.35-.202.349-.204.35-.204.348-.205.348-.207.346-.207.347-.209.346-.209.345-.211.344-.211.344-.212.343-.214.684-.43.341-.216.34-.218.34-.219.339-.219.338-.22.674-.444.336-.224.335-.224.335-.226.334-.226.666-.456.331-.229.662-.462.33-.232.328-.233.329-.235.327-.235.327-.236.326-.237.325-.238.325-.239.324-.24.322-.241.323-.242.642-.486.32-.245.32-.246.318-.246.318-.248.317-.248.632-.5.315-.251.313-.252.314-.253.312-.255.312-.254.311-.256.31-.257.309-.257.309-.259.307-.259.614-.522.61-.526.303-.263.303-.265.303-.266.602-.534.598-.538.299-.271.297-.271.297-.272.295-.272.295-.274.294-.275.293-.275.293-.277.292-.277.29-.278.29-.279.289-.279.289-.281.574-.564.571-.567.567-.571.564-.574.281-.289.279-.289.279-.29.278-.29.277-.292.277-.293.275-.293.275-.294.274-.295.272-.295.272-.297.271-.297.271-.299.538-.598.534-.602.266-.303.265-.303.263-.303.526-.61.522-.614.259-.307.259-.309.257-.309.257-.31.256-.311.254-.312.255-.312.253-.314.252-.313.251-.315.5-.632.248-.317.248-.318.246-.318.246-.32.245-.32.486-.642.242-.323.241-.322.24-.324.239-.325.238-.325.237-.326.236-.327.235-.327.235-.329.233-.328.232-.33.462-.662.229-.331.456-.666.226-.334.226-.335.224-.335.224-.336.444-.674.22-.338.219-.339.219-.34.218-.34.216-.341.43-.684.214-.343.212-.344.211-.344.211-.345.209-.346.209-.347.207-.346.207-.348.205-.348.204-.35.204-.349.202-.35.201-.352.4-.704.198-.353.197-.354.196-.354.195-.355.194-.356.193-.356.192-.357.19-.357.19-.358.189-.359.188-.359.186-.36.186-.361.184-.361.184-.362.182-.363.181-.363.181-.364.179-.364.178-.365.177-.366.175-.366.175-.367.174-.368.173-.367.342-.738.169-.37.168-.37.168-.372.166-.371.165-.372.163-.373.163-.374.162-.374.161-.374.159-.375.158-.376.157-.376.157-.377.155-.378.153-.377.153-.379.152-.379.3-.76.148-.381.147-.382.146-.381.145-.382.144-.384.142-.383.142-.384.14-.385.139-.385.138-.386.137-.387.136-.386.134-.387.134-.388.132-.389.131-.389.13-.389.129-.39.254-.782.125-.391.124-.393.123-.392.121-.393.121-.394.119-.394.118-.395.117-.395.116-.396.115-.395.113-.398.113-.397.111-.397.109-.398.109-.399.108-.399.106-.4.105-.4.104-.401.204-.802.1-.402.099-.403.098-.403.096-.403.096-.405.094-.404.093-.405.092-.406.09-.405.089-.406.088-.407.087-.408.086-.408.084-.408.083-.408.082-.409.08-.41.158-.82.076-.411.076-.412.074-.412.073-.412.072-.413.071-.413.069-.413.068-.414.067-.415.065-.414.064-.416.063-.416.062-.415.06-.417.059-.418.058-.417.057-.418.055-.418.054-.418.053-.42.051-.419.05-.42.049-.421.047-.42.047-.421.088-.844.042-.423.041-.422.04-.423.038-.424.037-.424.036-.424.034-.425.033-.426.032-.425.031-.426.029-.427.028-.427.026-.426.025-.428.024-.428.022-.428.021-.429.02-.429.018-.429.017-.43.016-.43.014-.431.013-.43.012-.431.01-.432.009-.432.008-.433.006-.432.005-.433.003-.434.002-.434L284 150l-.001-.434-.002-.434-.003-.434-.005-.433-.006-.432-.008-.433-.009-.432-.01-.432-.012-.431-.013-.43-.014-.431-.016-.43-.017-.43-.018-.429-.02-.429-.021-.429-.022-.428-.024-.428-.025-.428-.026-.426-.028-.427-.029-.427-.031-.426-.032-.425-.033-.426-.034-.425-.036-.424-.037-.424-.038-.424-.04-.423-.041-.422-.042-.423-.088-.844-.047-.421-.047-.42-.049-.421-.05-.42-.051-.419-.053-.42-.054-.418-.055-.418-.057-.418-.058-.417-.059-.418-.06-.417-.062-.415-.063-.416-.064-.416-.065-.414-.067-.415-.068-.414-.069-.413-.071-.413-.072-.413-.073-.412-.074-.412-.076-.412-.076-.411-.158-.82-.08-.41-.082-.409-.083-.408-.17-.816-.087-.408-.088-.407-.089-.406-.09-.405-.092-.406-.093-.405-.094-.404-.096-.405-.096-.403-.098-.403-.099-.403-.1-.402-.204-.802-.104-.401-.105-.4-.106-.4-.108-.399-.109-.399-.109-.398-.111-.397-.113-.397-.113-.398-.115-.396-.116-.395-.117-.395-.118-.395-.119-.394-.121-.394-.121-.393-.123-.392-.124-.393-.125-.391-.254-.782-.129-.39-.13-.389-.131-.389-.132-.389-.134-.388-.134-.387-.136-.386-.137-.387-.138-.386-.139-.385-.14-.385-.142-.384-.142-.383-.144-.384-.145-.382-.146-.381-.147-.382-.148-.381-.3-.76-.152-.379-.153-.379-.153-.377-.155-.378-.156-.377-.316-.752-.159-.375-.161-.374-.162-.375-.163-.373-.163-.372-.165-.373-.166-.371-.168-.372-.168-.37-.169-.369-.171-.37-.171-.369-.173-.367-.174-.368-.175-.367-.175-.366-.177-.366-.178-.365-.179-.364-.181-.364-.181-.363-.182-.363-.184-.362-.184-.361-.186-.361-.186-.36-.188-.359-.189-.359-.38-.716-.192-.356-.193-.356-.194-.356-.195-.355-.196-.354-.197-.354-.198-.353-.199-.352-.402-.704-.202-.35-.204-.349-.204-.35-.205-.348-.414-.694-.209-.347-.209-.346-.21-.345-.424-.688-.214-.343-.214-.342-.216-.342-.216-.341-.218-.34-.219-.34-.219-.339-.22-.338-.444-.674-.224-.336-.224-.335-.226-.335-.226-.334-.456-.666-.229-.331-.462-.662-.232-.33-.234-.329-.234-.328-.235-.327-.236-.327-.237-.326-.238-.325-.239-.325-.24-.324-.241-.322-.242-.323-.486-.642-.245-.32-.246-.32-.246-.318-.248-.318-.248-.317-.5-.632-.251-.315-.252-.313-.253-.314-.255-.312-.254-.312-.256-.311-.257-.31-.257-.309-.259-.309-.259-.307-.522-.614-.526-.61-.263-.303-.265-.303-.266-.303-.267-.301-.268-.301-.268-.299-.269-.299-.271-.299-.271-.297-.272-.297-.272-.295-.274-.295-.55-.588-.554-.584-.278-.29-.279-.29-.279-.289-.281-.289-.564-.574-.283-.286-.569-.569-.286-.283-.574-.564-.288-.28-.29-.28-.29-.279-.29-.278-.292-.277-.293-.277-.293-.275-.294-.275-.295-.274-.295-.272-.297-.272-.297-.271-.299-.271-.598-.538-.602-.534-.303-.266-.606-.528-.305-.264-.305-.262-.307-.261-.614-.52-.309-.259-.309-.257-.31-.257-.311-.256-.312-.255-.312-.254-.314-.253-.314-.252-.314-.251-.632-.5-.317-.248-.318-.248-.318-.246-.32-.246-.32-.245-.642-.486-.322-.242-.324-.241-.323-.24-.325-.239-.325-.238-.326-.237-.327-.236-.327-.235-.329-.235-.328-.233-.33-.232-.662-.462-.331-.229-.666-.456-.334-.226-.335-.226-.335-.224-.336-.224-.674-.444-.339-.22-.338-.22-.68-.436-.341-.216-.342-.216-.342-.214-.343-.214-.688-.424-.345-.21-.692-.418-.347-.207-.348-.207-.349-.205-.698-.408-.351-.202-.351-.201-.351-.2-.353-.2-.353-.198-.353-.197-.355-.196-.355-.195-.355-.194-.357-.193-.357-.192-.357-.191-.358-.189-.359-.189-.359-.188-.36-.186-.361-.186-.361-.184-.362-.184-.363-.182-.363-.181-.728-.36-.365-.178-.366-.177-.366-.176-.734-.348-.368-.173-.738-.342-.37-.169-.742-.336-.371-.166-.372-.165-.373-.164-.748-.324-.374-.16-.375-.16-.752-.316-.377-.156-.378-.155-.377-.154-.758-.304-.76-.3-.381-.148-.381-.147-.382-.146-.383-.145-.383-.144-.383-.142-.384-.142-.385-.14-.385-.139-.386-.138-.386-.137-.387-.136-.387-.134-.388-.134-.389-.132-.389-.131-.389-.13-.39-.129-.391-.127-.782-.252-.392-.124-.393-.123-.393-.121-.394-.121-.394-.119-.395-.119-.395-.116-.396-.116-.396-.115-.396-.113-.397-.113-.398-.111-.398-.11-.798-.216-.4-.106-.4-.105-.401-.104-.802-.204-.402-.1-.403-.099-.403-.098-.808-.192-.404-.094-.405-.093-.405-.092-.406-.09-.407-.089-.406-.088-.408-.087-.407-.085-.409-.085-.408-.083-.409-.082-.41-.08-.82-.158-.411-.076-.412-.076-.412-.074-.412-.073-.412-.072-.414-.071-.413-.069-.414-.068-.415-.067-.414-.065-.416-.064-.416-.063-.416-.062-.416-.06-.417-.059-.418-.058-.418-.057-.418-.055-.419-.054-.419-.053-.419-.051-.42-.05-.421-.049-.42-.047-.422-.047-.421-.044-.422-.044-.423-.042-.422-.041-.424-.04-.423-.038-.424-.037-.425-.036-.424-.034-.426-.033-.425-.032-.426-.031-.426-.029-.427-.028-.427-.026-.428-.025-.428-.024-.428-.022-.429-.021-.429-.02-.429-.018-.43-.017-.43-.016-.431-.014-.43-.013-.432-.012-.431-.01-.432-.009-.433-.008-.432-.006-.434-.005-.433-.003-.434-.002L150 16l-.434.001Z" style="fill:#2d67b9"/>
    <g>
        <path d="M250.015 174.49c0-13.516-10.974-24.49-24.491-24.49H74.476c-13.517 0-24.491 10.974-24.491 24.49v48.98c0 13.517 10.974 24.491 24.491 24.491h151.048c13.517 0 24.491-10.974 24.491-24.491v-48.98Zm-12 0v48.98c0 6.894-5.597 12.491-12.491 12.491H74.476c-6.894 0-12.491-5.597-12.491-12.491v-48.98c0-6.893 5.597-12.49 12.491-12.49h151.048c6.894 0 12.491 5.597 12.491 12.49Zm-13.698 36.056a5.569 5.569 0 0 0-5.566-5.566H81.249a5.569 5.569 0 0 0-5.566 5.566v11.133a5.569 5.569 0 0 0 5.566 5.566h137.502a5.569 5.569 0 0 0 5.566-5.566v-11.133Zm-5 5.567H80.683v5.566c0 .312.254.566.566.566h137.502a.567.567 0 0 0 .566-.566v-5.566Zm-135.171-43.02c4.415 0 8 3.585 8 8s-3.585 8-8 8-8-3.585-8-8 3.585-8 8-8Zm23.871 0c4.416 0 8 3.585 8 8s-3.584 8-8 8c-4.415 0-8-3.585-8-8s3.585-8 8-8Zm116.3 3.268a2.333 2.333 0 0 0-2.332-2.333h-15.488a2.333 2.333 0 0 0 0 4.665h15.488a2.333 2.333 0 0 0 2.332-2.332ZM100.212 64.823v76.289h-12V52.823h123.576v88.289h-12V64.823h-99.576Zm78.467 55.72v6.552h-67.798v-6.552h67.798Zm0-18.573v6.551h-67.798v-6.551h67.798Zm0-18.574v6.552h-67.798v-6.552h67.798Z" style="fill:#2d67b9" transform="matrix(.79445 0 0 .79445 30.833 26.625)"/>
    </g>
</svg>
