<?xml version="1.0" encoding="UTF-8" standalone="no"?>
<svg
   xmlns:dc="http://purl.org/dc/elements/1.1/"
   xmlns:cc="http://creativecommons.org/ns#"
   xmlns:rdf="http://www.w3.org/1999/02/22-rdf-syntax-ns#"
   xmlns:svg="http://www.w3.org/2000/svg"
   xmlns="http://www.w3.org/2000/svg"
   id="svg2"
   style="clip-rule:evenodd;fill-rule:evenodd;stroke-linejoin:round;stroke-miterlimit:1.41420996"
   xml:space="preserve"
   version="1.1"
   viewBox="0 0 60 60"
   height="60"
   width="60"><metadata
     id="metadata43"><rdf:RDF><cc:Work
         rdf:about=""><dc:format>image/svg+xml</dc:format><dc:type
           rdf:resource="http://purl.org/dc/dcmitype/StillImage" /><dc:title></dc:title></cc:Work></rdf:RDF></metadata><defs
     id="defs41" /><g
     transform="matrix(0.19997959,0,0,0.19995118,0.00612242,3.3238395e-4)"
     id="Background_circle"><g
       id="g5"><g
         id="g7"><g
           id="g9"><circle
             id="circle11"
             style="fill:#ffffff"
             r="150"
             cy="150"
             cx="150" /><path
             id="path13"
             d="m 150.485,0.001 c 49.5244,-0.30805092 97.99005,26.13918 124.885,67.66 29.14949,43.41669 32.66869,102.35469 9.029,148.98 -22.3226,45.72399 -69.26524,78.27982 -120.017,82.677 C 116.79963,304.27157 67.626954,284.53159 36.597,248.141 4.2284143,211.43134 -7.8772602,158.34647 5.079,111.186 18.20087,60.591626 59.782145,18.758853 110.292,5.321 c 13.07378,-3.5887368 26.6371,-5.36778112 40.193,-5.32 z m -0.919,16 C 104.07954,15.682674 59.676029,40.73106 36.035,79.522 10.237529,120.258 9.3382219,175.08668 33.754,216.66 c 22.507056,39.83833 66.53845,66.428 112.351,67.284 44.86675,1.74378 89.5149,-21.18229 114.552,-58.394 27.38615,-39.18451 30.93913,-93.31402 9.052,-135.793 C 249.0838,48.105271 205.50868,18.954337 159.041,16.3 c -3.15359,-0.209033 -6.31449,-0.309606 -9.475,-0.299 z"
             style="fill:#2d67b9" /></g></g><g
         id="g15"><g
           id="g17"
           transform="matrix(1.24916,0,0,1.21656,-37.7449,-42.62)"><path
             id="path19"
             style="fill:#ffffff"
             d="m 222.869,110.307 c 0,-5.707 -4.512,-10.339 -10.069,-10.339 l -125.007,0 c -5.558,0 -10.069,4.632 -10.069,10.339 l 0,96.049 c 0,5.706 4.511,10.339 10.069,10.339 l 125.007,0 c 5.557,0 10.069,-4.633 10.069,-10.339 l 0,-96.049 z" /><path
             id="path21"
             d="m 212.93,99.969 c 5.88616,-0.0725 10.6032,5.7273 9.939,11.45891 -0.0548,32.08022 0.10901,64.16944 -0.081,96.24409 -0.52296,5.52616 -5.99845,9.76302 -11.48255,9.023 -41.55526,-0.0456 -83.11761,0.091 -124.66845,-0.068 -5.630402,-0.53849 -9.623061,-6.29065 -8.913,-11.76555 0.05476,-31.95566 -0.109023,-63.92042 0.081,-95.87045 0.521618,-5.5264 5.998361,-9.764635 11.482549,-9.023 C 130.5017,99.968667 171.71586,99.9667 212.93,99.969 Z M 90.532,113.12 c 0,30.141 0,60.282 0,90.423 39.843,0 79.686,0 119.529,0 0,-30.141 0,-60.282 0,-90.423 -39.843,0 -79.686,0 -119.529,0 z"
             style="fill:#2d67b9" /></g><g
           id="g23"
           transform="matrix(0,1,-0.187648,0,177.361,8.71835)"><rect
             id="rect25"
             style="fill:#2d67b9"
             height="56.608002"
             width="16.014"
             y="117.507"
             x="104.624" /></g><g
           id="g27"
           transform="matrix(0,1,-0.187648,0,157.74,8.71835)"><rect
             id="rect29"
             style="fill:#2d67b9"
             height="56.608002"
             width="16.014"
             y="117.507"
             x="104.624" /></g><g
           id="g31"
           transform="matrix(0,1,-0.187648,0,196.949,8.71835)"><rect
             id="rect33"
             style="fill:#2d67b9"
             height="56.608002"
             width="16.014"
             y="117.507"
             x="104.624" /></g><g
           id="g35"
           transform="translate(0,0.346175)"><path
             id="path37"
             style="fill:#2d67b9"
             d="m 200.03,177.958 -16.015,0 -19.705,0 0,8.007 -28.573,0 0,-8.007 -19.705,0 0,-16.014 19.658,0 0,8.007 28.62,0 0,-8.007 19.705,0 0,-48.601 16.015,0 0,64.615 z m -83.998,0 -16.015,0 0,-64.615 16.015,0 0,64.615 z" /></g></g></g></g></svg>
