<?xml version="1.0" encoding="UTF-8" standalone="no"?>
<svg
   xmlns:dc="http://purl.org/dc/elements/1.1/"
   xmlns:cc="http://creativecommons.org/ns#"
   xmlns:rdf="http://www.w3.org/1999/02/22-rdf-syntax-ns#"
   xmlns:svg="http://www.w3.org/2000/svg"
   xmlns="http://www.w3.org/2000/svg"
   id="svg784"
   style="clip-rule:evenodd;fill-rule:evenodd;stroke-linejoin:round;stroke-miterlimit:1.41420996"
   xml:space="preserve"
   version="1.1"
   viewBox="0 0 60 60"
   height="60"
   width="60"><metadata
     id="metadata790"><rdf:RDF><cc:Work
         rdf:about=""><dc:format>image/svg+xml</dc:format><dc:type
           rdf:resource="http://purl.org/dc/dcmitype/StillImage" /><dc:title></dc:title></cc:Work></rdf:RDF></metadata><defs
     id="defs788" /><g
     transform="matrix(0.19997959,0,0,0.19995118,0.00612242,3.3238395e-4)"
     id="Background_circle"><g
       id="g781"><g
         id="g769"><circle
           id="circle765"
           style="fill:#ffffff"
           r="150"
           cy="150"
           cx="150" /><path
           id="path767"
           d="m 150.485,0.001 c 49.5244,-0.30805092 97.99005,26.13918 124.885,67.66 29.14949,43.41669 32.66869,102.35469 9.029,148.98 -22.3226,45.72399 -69.26524,78.27982 -120.017,82.677 C 116.79963,304.27157 67.626954,284.53159 36.597,248.141 4.2284143,211.43134 -7.8772602,158.34647 5.079,111.186 18.20087,60.591626 59.782145,18.758853 110.292,5.321 c 13.07378,-3.5887368 26.6371,-5.36778112 40.193,-5.32 z m -0.919,16 C 104.07954,15.682674 59.676029,40.73106 36.035,79.522 10.237529,120.258 9.3382219,175.08668 33.754,216.66 c 22.507056,39.83833 66.53845,66.428 112.351,67.284 44.86675,1.74378 89.5149,-21.18229 114.552,-58.394 27.38615,-39.18451 30.93913,-93.31402 9.052,-135.793 C 249.0838,48.105271 205.50868,18.954337 159.041,16.3 c -3.15359,-0.209033 -6.31449,-0.309606 -9.475,-0.299 z"
           style="fill:#2d67b9" /></g><g
         id="g779"
         transform="matrix(0.926296,0,0,0.926296,12.1633,4.37465)"><g
           id="g773"
           transform="translate(-6.74023,6.74023)"><path
             id="path771"
             style="fill:#2d67b9"
             d="M 105.879,194.127 105.752,194 c -27.338,-27.338 -27.338,-71.662 0,-99 l 46.668,46.668 12.72,-12.72 c -0.121,-0.533 -0.185,-1.089 -0.185,-1.659 0,-4.139 3.361,-7.5 7.5,-7.5 4.14,0 7.5,3.361 7.5,7.5 0,4.14 -3.36,7.5 -7.5,7.5 -0.569,0 -1.125,-0.063 -1.658,-0.184 l -12.72,12.72 46.675,46.675 c -14.136,14.136 -32.813,20.962 -51.335,20.479 L 164,244 H 88 Z" /></g><path
           id="path775"
           style="fill:#2d67b9"
           d="M 226.69,137.82 C 226.639,121.263 220.04,105.397 208.329,93.685 196.572,81.928 180.627,75.324 164,75.324 c -3.212,0 -5.819,-2.608 -5.819,-5.82 0,-3.211 2.607,-5.819 5.819,-5.819 19.714,0 38.62,7.831 52.559,21.77 13.912,13.912 21.74,32.772 21.771,52.444 v 0.116 c 0,3.211 -2.608,5.819 -5.82,5.819 -3.212,0 -5.819,-2.608 -5.819,-5.819 z" /><path
           id="path777"
           style="fill:#2d67b9"
           d="m 164.002,87.984 c 13.269,0 25.993,5.271 35.375,14.653 9.383,9.383 14.654,22.108 14.654,35.378 0,3.203 -2.601,5.804 -5.805,5.804 -3.204,0 -5.805,-2.601 -5.805,-5.804 0.001,-10.191 -4.047,-19.963 -11.253,-27.169 C 183.963,103.641 174.19,99.593 164,99.593 c -3.204,0 -5.805,-2.601 -5.805,-5.804 0,-3.204 2.601,-5.805 5.805,-5.805 z" /></g></g></g></svg>
