<?xml version="1.0" encoding="UTF-8" standalone="no"?>
<svg
   xmlns:dc="http://purl.org/dc/elements/1.1/"
   xmlns:cc="http://creativecommons.org/ns#"
   xmlns:rdf="http://www.w3.org/1999/02/22-rdf-syntax-ns#"
   xmlns:svg="http://www.w3.org/2000/svg"
   xmlns="http://www.w3.org/2000/svg"
   id="svg2"
   style="clip-rule:evenodd;fill-rule:evenodd;stroke-linecap:round;stroke-linejoin:round;stroke-miterlimit:1.5"
   xml:space="preserve"
   version="1.1"
   viewBox="0 0 60 60"
   height="60"
   width="60"><metadata
     id="metadata25"><rdf:RDF><cc:Work
         rdf:about=""><dc:format>image/svg+xml</dc:format><dc:type
           rdf:resource="http://purl.org/dc/dcmitype/StillImage" /><dc:title></dc:title></cc:Work></rdf:RDF></metadata><defs
     id="defs23" /><g
     transform="matrix(0.19997959,0,0,0.19995118,0.00612242,3.3238395e-4)"
     id="Background_circle"><g
       id="g5"><g
         id="g7"><circle
           id="circle9"
           style="fill:#ffffff"
           r="150"
           cy="150"
           cx="150" /><path
           id="path11"
           d="m 150.485,0.001 c 49.5244,-0.30805092 97.99005,26.13918 124.885,67.66 29.14949,43.41669 32.66869,102.35469 9.029,148.98 -22.3226,45.72399 -69.26524,78.27982 -120.017,82.677 C 116.79963,304.27157 67.626954,284.53159 36.597,248.141 4.2284143,211.43134 -7.8772602,158.34647 5.079,111.186 18.20087,60.591626 59.782145,18.758853 110.292,5.321 c 13.07378,-3.5887368 26.6371,-5.36778112 40.193,-5.32 z m -0.919,16 C 104.07954,15.682674 59.676029,40.73106 36.035,79.522 10.237529,120.258 9.3382219,175.08668 33.754,216.66 c 22.507056,39.83833 66.53845,66.428 112.351,67.284 44.86675,1.74378 89.5149,-21.18229 114.552,-58.394 27.38615,-39.18451 30.93913,-93.31402 9.052,-135.793 C 249.0838,48.105271 205.50868,18.954337 159.041,16.3 c -3.15359,-0.209033 -6.31449,-0.309606 -9.475,-0.299 z"
           style="fill:#2d67b9" /></g><g
         id="g13"
         transform="matrix(0.864033,0,0,0.864033,21.4517,19.4076)"><g
           id="g15"
           transform="translate(-7.01767,8.0407)"><path
             id="path17"
             style="fill:none;stroke:#2d67b9;stroke-width:13.89000034px"
             d="m 58.03,179.647 c -0.028,38.886 31.426,62.301 62.523,62.317" /></g><path
           id="path19"
           style="fill:#2d67b9"
           d="m 162.09,193.903 11.348,-11.348 35.373,35.373 33.297,-33.297 -35.374,-35.373 11.349,-11.348 46.447,46.448 -55.992,55.992 -46.448,-46.447 z m -63.397,-3.677 c -5.262,-9.991 -3.694,-22.651 4.705,-31.05 l 79.958,-79.958 c 10.328,-10.328 27.098,-10.328 37.426,0 10.328,10.328 10.328,27.098 0,37.426 l -79.958,79.958 c -8.314,8.313 -20.802,9.935 -30.744,4.864 l -7.546,7.546 c -3.122,3.122 -8.191,3.122 -11.313,0 -3.122,-3.122 -3.122,-8.191 0,-11.313 l -0.001,-0.001 7.473,-7.472 z m 111.582,-83.049 c 4.816,-4.816 4.816,-12.636 0,-17.452 -4.816,-4.816 -12.636,-4.816 -17.452,0 l -79.526,79.526 c -4.817,4.816 -4.817,12.636 0,17.452 4.816,4.817 12.636,4.817 17.452,0 l 79.526,-79.526 z M 162.09,81.917 150.742,93.266 115.369,57.892 82.072,91.189 117.445,126.562 106.097,137.91 59.65,91.462 115.642,35.47 162.09,81.917 Z" /></g></g></g></svg>
