<?xml version="1.0" encoding="UTF-8" standalone="no"?>
<svg
   xmlns:dc="http://purl.org/dc/elements/1.1/"
   xmlns:cc="http://creativecommons.org/ns#"
   xmlns:rdf="http://www.w3.org/1999/02/22-rdf-syntax-ns#"
   xmlns:svg="http://www.w3.org/2000/svg"
   xmlns="http://www.w3.org/2000/svg"
   id="svg2"
   style="clip-rule:evenodd;fill-rule:evenodd;stroke-linejoin:round;stroke-miterlimit:1.41420996"
   xml:space="preserve"
   version="1.1"
   viewBox="0 0 60 60"
   height="60"
   width="60"><metadata
     id="metadata34"><rdf:RDF><cc:Work
         rdf:about=""><dc:format>image/svg+xml</dc:format><dc:type
           rdf:resource="http://purl.org/dc/dcmitype/StillImage" /><dc:title></dc:title></cc:Work></rdf:RDF></metadata><defs
     id="defs32" /><g
     transform="matrix(0.19997959,0,0,0.19995118,0.00612242,3.3238395e-4)"
     id="Background_circle"><g
       id="g5"><g
         id="g7"><circle
           id="circle9"
           style="fill:#ffffff"
           r="150"
           cy="150"
           cx="150" /><path
           id="path11"
           d="m 150.485,0.001 c 49.5244,-0.30805092 97.99005,26.13918 124.885,67.66 29.14949,43.41669 32.66869,102.35469 9.029,148.98 -22.3226,45.72399 -69.26524,78.27982 -120.017,82.677 C 116.79963,304.27157 67.626954,284.53159 36.597,248.141 4.2284143,211.43134 -7.8772602,158.34647 5.079,111.186 18.20087,60.591626 59.782145,18.758853 110.292,5.321 c 13.07378,-3.5887368 26.6371,-5.36778112 40.193,-5.32 z m -0.919,16 C 104.07954,15.682674 59.676029,40.73106 36.035,79.522 10.237529,120.258 9.3382219,175.08668 33.754,216.66 c 22.507056,39.83833 66.53845,66.428 112.351,67.284 44.86675,1.74378 89.5149,-21.18229 114.552,-58.394 27.38615,-39.18451 30.93913,-93.31402 9.052,-135.793 C 249.0838,48.105271 205.50868,18.954337 159.041,16.3 c -3.15359,-0.209033 -6.31449,-0.309606 -9.475,-0.299 z"
           style="fill:#2d67b9" /></g><g
         transform="translate(22.5864,24.9658)"
         id="Layer2"><g
           id="g14"><path
             id="path16"
             style="fill:#2d67b9"
             d="M 74.348,182.188 C 51.779,165.762 37.097,139.141 37.097,109.117 c 0,-49.847 40.47,-90.316 90.317,-90.316 49.846,0 90.316,40.469 90.316,90.316 0,29.933 -14.594,56.485 -37.048,72.922 0.156,0.531 0.24,1.093 0.24,1.675 l 0,41.61 c 0,3.28 -2.663,5.943 -5.943,5.943 l -11.886,0 c -3.281,0 -5.944,-2.663 -5.944,-5.943 l 0,-30.908 c -1.285,0.448 -2.584,0.869 -3.895,1.26 l 0,29.648 c 0,3.28 -2.663,5.943 -5.943,5.943 l -11.886,0 c -3.28,0 -5.943,-2.663 -5.943,-5.943 l 0,-25.914 c -0.688,0.016 -1.377,0.023 -2.068,0.023 -0.617,0 -1.232,-0.006 -1.845,-0.018 l 0,25.909 c 0,3.28 -2.663,5.943 -5.944,5.943 l -11.886,0 c -3.28,0 -5.943,-2.663 -5.943,-5.943 l 0,-29.582 c -1.304,-0.385 -2.595,-0.799 -3.873,-1.241 l 0,30.823 c 0,3.28 -2.663,5.943 -5.944,5.943 l -11.886,0 c -3.28,0 -5.943,-2.663 -5.943,-5.943 l 0,-41.61 c 0,-0.528 0.069,-1.039 0.198,-1.526 z" /><g
             id="g18"><path
               id="path20"
               style="fill:#ffffff"
               d="m 65.717,98.232 c 8.653,-0.138 51.752,29.726 51.752,36.504 -10e-4,6.779 -33.824,18.284 -52.545,4.385 -13.65,-10.134 -10.186,-40.715 0.793,-40.889 z" /><g
               id="g22"
               transform="matrix(-1,0,0,1,254.827,0)"><path
                 id="path24"
                 style="fill:#ffffff"
                 d="m 65.717,98.232 c 8.653,-0.138 51.752,29.726 51.752,36.504 -10e-4,6.779 -33.824,18.284 -52.545,4.385 -13.65,-10.134 -10.186,-40.715 0.793,-40.889 z" /></g><g
               id="g26"
               transform="translate(-7.05456,-2.59864)"><path
                 id="path28"
                 style="fill:#ffffff"
                 d="m 134.468,155.392 c 0,0 -9.945,17.602 -9.945,25.146 0,5.489 4.456,9.945 9.945,9.945 5.489,0 9.945,-4.456 9.945,-9.945 0,-7.544 -9.945,-25.146 -9.945,-25.146 z" /></g></g></g></g></g></g></svg>
