<?xml version="1.0" encoding="UTF-8" standalone="no"?>
<svg
   xmlns:dc="http://purl.org/dc/elements/1.1/"
   xmlns:cc="http://creativecommons.org/ns#"
   xmlns:rdf="http://www.w3.org/1999/02/22-rdf-syntax-ns#"
   xmlns:svg="http://www.w3.org/2000/svg"
   xmlns="http://www.w3.org/2000/svg"
   id="svg922"
   style="clip-rule:evenodd;fill-rule:evenodd;stroke-linejoin:round;stroke-miterlimit:1.41420996"
   xml:space="preserve"
   version="1.1"
   viewBox="0 0 60 60"
   height="60"
   width="60"><metadata
     id="metadata928"><rdf:RDF><cc:Work
         rdf:about=""><dc:format>image/svg+xml</dc:format><dc:type
           rdf:resource="http://purl.org/dc/dcmitype/StillImage" /><dc:title></dc:title></cc:Work></rdf:RDF></metadata><defs
     id="defs926" /><g
     transform="matrix(0.19997959,0,0,0.19995118,0.00612242,3.3238395e-4)"
     id="Background_circle"><g
       id="g919"><g
         id="g903"><circle
           id="circle899"
           style="fill:#ffffff"
           r="150"
           cy="150"
           cx="150" /><path
           id="path901"
           d="m 150.485,0.001 c 49.5244,-0.30805092 97.99005,26.13918 124.885,67.66 29.14949,43.41669 32.66869,102.35469 9.029,148.98 -22.3226,45.72399 -69.26524,78.27982 -120.017,82.677 C 116.79963,304.27157 67.626954,284.53159 36.597,248.141 4.2284143,211.43134 -7.8772602,158.34647 5.079,111.186 18.20087,60.591626 59.782145,18.758853 110.292,5.321 c 13.07378,-3.5887368 26.6371,-5.36778112 40.193,-5.32 z m -0.919,16 C 104.07954,15.682674 59.676029,40.73106 36.035,79.522 10.237529,120.258 9.3382219,175.08668 33.754,216.66 c 22.507056,39.83833 66.53845,66.428 112.351,67.284 44.86675,1.74378 89.5149,-21.18229 114.552,-58.394 27.38615,-39.18451 30.93913,-93.31402 9.052,-135.793 C 249.0838,48.105271 205.50868,18.954337 159.041,16.3 c -3.15359,-0.209033 -6.31449,-0.309606 -9.475,-0.299 z"
           style="fill:#2d67b9" /></g><g
         id="g917"
         transform="matrix(0.828615,0,0,0.828615,25.7078,25.7079)"><g
           id="g907"
           transform="matrix(0.818246,0,0,0.634058,18.7478,70.7428)"><path
             id="path905"
             style="fill:#2d67b9"
             d="M 109,131.977 C 109,128.126 106.577,125 103.593,125 H 57.407 C 54.423,125 52,128.126 52,131.977 v 124.046 c 0,3.851 2.423,6.977 5.407,6.977 h 46.186 c 2.984,0 5.407,-3.126 5.407,-6.977 z" /></g><g
           id="g911"
           transform="matrix(0.818246,0,0,0.942029,84.5403,-10.2536)"><path
             id="path909"
             style="fill:#2d67b9"
             d="M 109,129.696 C 109,127.104 106.577,125 103.593,125 H 57.407 C 54.423,125 52,127.104 52,129.696 v 128.608 c 0,2.592 2.423,4.696 5.407,4.696 h 46.186 c 2.984,0 5.407,-2.104 5.407,-4.696 z" /></g><g
           id="g915"
           transform="matrix(0.818246,0,0,1.26812,149.515,-96.0145)"><path
             id="path913"
             style="fill:#2d67b9"
             d="M 109,128.489 C 109,126.563 106.577,125 103.593,125 H 57.407 C 54.423,125 52,126.563 52,128.489 v 131.022 c 0,1.926 2.423,3.489 5.407,3.489 h 46.186 c 2.984,0 5.407,-1.563 5.407,-3.489 z" /></g></g></g></g></svg>
