<svg width="60" height="60" viewBox="0 0 300 300" xmlns="http://www.w3.org/2000/svg" xml:space="preserve" style="fill-rule:evenodd;clip-rule:evenodd;stroke-linejoin:round;stroke-miterlimit:2">
    <circle cx="150" cy="150" r="150" style="fill:#fffefe"/>
    <path d="M150 0c82.787 0 150 67.213 150 150s-67.213 150-150 150S0 232.787 0 150 67.213 0 150 0Zm0 16c73.957 0 134 60.043 134 134s-60.043 134-134 134S16 223.957 16 150 76.043 16 150 16Z" style="fill:#2d67b9"/>
    <path d="M50 99.968c0-22.077 44.808-40 100-40s100 17.923 100 40h.015v79.993h-.056c-.01 22.075-44.815 39.994-100 39.994-55.186 0-99.991-17.92-100-39.994V99.968H50Zm16.005 79.993h-.046c.011 15.175 37.646 27.494 84 27.494 46.361 0 84-12.323 84-27.5h.01v-18.259c-17.83 10.993-48.784 18.272-83.954 18.272-35.207 0-66.189-7.294-84.01-18.306v18.299Zm0-58.29v18.297h.01c0 15.178 37.639 27.5 84 27.5 45.423 0 82.474-11.829 83.954-26.583v-19.198c-17.828 10.999-48.789 18.281-83.969 18.281-35.197 0-66.172-7.29-83.995-18.297Zm0-21.397c.502 15.037 37.946 27.194 83.995 27.194 45.589 0 82.745-11.916 83.969-26.745v-.755H234c0-15.178-37.639-27.5-84-27.5s-84 12.322-84 27.5h.005v.306Z" style="fill:#2d67b9" transform="matrix(.97128 0 0 .97128 4.32 14.058)"/>
</svg>
