<?xml version="1.0" encoding="UTF-8" standalone="no"?>
<svg
   xmlns:dc="http://purl.org/dc/elements/1.1/"
   xmlns:cc="http://creativecommons.org/ns#"
   xmlns:rdf="http://www.w3.org/1999/02/22-rdf-syntax-ns#"
   xmlns:svg="http://www.w3.org/2000/svg"
   xmlns="http://www.w3.org/2000/svg"
   id="svg2"
   style="clip-rule:evenodd;fill-rule:evenodd;stroke-linejoin:round;stroke-miterlimit:1.41420996"
   xml:space="preserve"
   version="1.1"
   viewBox="0 0 60 60"
   height="60"
   width="60"><metadata
     id="metadata19"><rdf:RDF><cc:Work
         rdf:about=""><dc:format>image/svg+xml</dc:format><dc:type
           rdf:resource="http://purl.org/dc/dcmitype/StillImage" /><dc:title></dc:title></cc:Work></rdf:RDF></metadata><defs
     id="defs17" /><g
     transform="matrix(0.19997959,0,0,0.19995118,0.00612242,3.3238395e-4)"
     id="Background_circle"><g
       id="g5"><circle
         id="circle7"
         style="fill:#ffffff"
         r="150"
         cy="150"
         cx="150" /><path
         id="path9"
         d="m 150.485,0.001 c 49.5244,-0.30805092 97.99005,26.13918 124.885,67.66 29.14949,43.41669 32.66869,102.35469 9.029,148.98 -22.3226,45.72399 -69.26524,78.27982 -120.017,82.677 C 116.79963,304.27157 67.626954,284.53159 36.597,248.141 4.2284143,211.43134 -7.8772602,158.34647 5.079,111.186 18.20087,60.591626 59.782145,18.758853 110.292,5.321 c 13.07378,-3.5887368 26.6371,-5.36778112 40.193,-5.32 z m -0.919,16 C 104.07954,15.682674 59.676029,40.73106 36.035,79.522 10.237529,120.258 9.3382219,175.08668 33.754,216.66 c 22.507056,39.83833 66.53845,66.428 112.351,67.284 44.86675,1.74378 89.5149,-21.18229 114.552,-58.394 27.38615,-39.18451 30.93913,-93.31402 9.052,-135.793 C 249.0838,48.105271 205.50868,18.954337 159.041,16.3 c -3.15359,-0.209033 -6.31449,-0.309606 -9.475,-0.299 z"
         style="fill:#2d67b9" /></g><g
       id="g11"
       transform="matrix(0.87499,0,0,0.87499,18.763,27.5353)"><path
         id="path13"
         style="fill:#2d67b9"
         d="m 50,99.968 c 0,-22.077 44.808,-40 100,-40 55.192,0 100,17.923 100,40 l 0.015,0 0,79.993 -0.056,0 c -0.01,22.075 -44.815,39.994 -100,39.994 -55.186,0 -99.991,-17.92 -100,-39.994 l 0,0 0,-79.993 0.041,0 z m 16.005,79.993 -0.046,0 c 0.011,15.175 37.646,27.494 84,27.494 46.361,0 84,-12.323 84,-27.5 l 0.01,0 0,-18.259 c -17.83,10.993 -48.784,18.272 -83.954,18.272 -35.207,0 -66.189,-7.294 -84.01,-18.306 l 0,18.299 z m 0,-58.29 0,18.297 0.01,0 c 0,15.178 37.639,27.5 84,27.5 45.423,0 82.474,-11.829 83.954,-26.583 l 0,-19.198 c -17.828,10.999 -48.789,18.281 -83.969,18.281 -35.197,0 -66.172,-7.29 -83.995,-18.297 z m 0,-21.397 c 0.502,15.037 37.946,27.194 83.995,27.194 45.589,0 82.745,-11.916 83.969,-26.745 l 0,-0.755 0.031,0 c 0,-15.178 -37.639,-27.5 -84,-27.5 -46.361,0 -84,12.322 -84,27.5 l 0.005,0 0,0.306 z" /></g></g></svg>
