<?xml version="1.0" encoding="UTF-8" standalone="no"?>
<svg
   xmlns:dc="http://purl.org/dc/elements/1.1/"
   xmlns:cc="http://creativecommons.org/ns#"
   xmlns:rdf="http://www.w3.org/1999/02/22-rdf-syntax-ns#"
   xmlns:svg="http://www.w3.org/2000/svg"
   xmlns="http://www.w3.org/2000/svg"
   id="svg2"
   style="clip-rule:evenodd;fill-rule:evenodd;stroke-linejoin:round;stroke-miterlimit:1.41420996"
   xml:space="preserve"
   version="1.1"
   viewBox="0 0 60 60"
   height="60"
   width="60"><metadata
     id="metadata21"><rdf:RDF><cc:Work
         rdf:about=""><dc:format>image/svg+xml</dc:format><dc:type
           rdf:resource="http://purl.org/dc/dcmitype/StillImage" /><dc:title></dc:title></cc:Work></rdf:RDF></metadata><defs
     id="defs19" /><g
     transform="matrix(0.19997959,0,0,0.19995118,0.00612242,3.3238395e-4)"
     id="Background_circle"><g
       id="g5"><g
         id="g7"><g
           id="g9"><circle
             id="circle11"
             style="fill:#ffffff"
             r="150"
             cy="150"
             cx="150" /><path
             id="path13"
             d="m 150.485,0.001 c 49.5244,-0.30805092 97.99005,26.13918 124.885,67.66 29.14949,43.41669 32.66869,102.35469 9.029,148.98 -22.3226,45.72399 -69.26524,78.27982 -120.017,82.677 C 116.79963,304.27157 67.626954,284.53159 36.597,248.141 4.2284143,211.43134 -7.8772602,158.34647 5.079,111.186 18.20087,60.591626 59.782145,18.758853 110.292,5.321 c 13.07378,-3.5887368 26.6371,-5.36778112 40.193,-5.32 z m -0.919,16 C 104.07954,15.682674 59.676029,40.73106 36.035,79.522 10.237529,120.258 9.3382219,175.08668 33.754,216.66 c 22.507056,39.83833 66.53845,66.428 112.351,67.284 44.86675,1.74378 89.5149,-21.18229 114.552,-58.394 27.38615,-39.18451 30.93913,-93.31402 9.052,-135.793 C 249.0838,48.105271 205.50868,18.954337 159.041,16.3 c -3.15359,-0.209033 -6.31449,-0.309606 -9.475,-0.299 z"
             style="fill:#2d67b9" /></g></g><path
         id="path15"
         style="fill:#2d67b9"
         d="m 144.963,120.378 -18.973,0 c -3.346,0 -6.062,-2.716 -6.062,-6.061 l 0,-47.878 c 0,-3.345 2.716,-6.061 6.062,-6.061 l 47.877,0 c 3.346,0 6.061,2.716 6.061,6.061 l 0,47.878 c 0,3.345 -2.715,6.061 -6.061,6.061 l -18.83,0 0,13.88 67.109,0 c 1.39,0 2.518,1.129 2.518,2.518 l 0,23.538 19.351,0 c 3.311,0 6,2.689 6,6 l 0,48 c 0,3.311 -2.689,6 -6,6 l -48,0 c -3.312,0 -6,-2.688 -6,-6 l 0,-48 c 0,-3.311 2.688,-6 6,-6 l 18.575,0 0,-15.982 -59.553,0 0,15.982 18.963,0 c 3.312,0 6,2.689 6,6 l 0,48 c 0,3.311 -2.688,6 -6,6 l -48,0 c -3.311,0 -6,-2.688 -6,-6 l 0,-48 c 0,-3.311 2.688,-6 6,-6 l 18.963,0 0,-15.982 -59.553,0 0,15.982 18.57,0 c 3.311,0 6,2.689 6,6 l 0,48 c 0,3.311 -2.689,6 -6,6 l -48,0 c -3.312,0 -6,-2.688 -6,-6 l 0,-48 c 0,-3.311 2.688,-6 6,-6 l 19.356,0 0,-18.5 c 0,0 0,-5.038 0,-5.038 0,-1.39 1.128,-2.518 2.518,-2.518 l 67.109,0 0,-13.88 z m 23.037,49.936 -36,0 c -1.104,0 -2,0.896 -2,2 l 0,36 c 0,1.104 0.896,2 2,2 l 36,0 c 1.104,0 2,-0.896 2,-2 l 0,-36 c 0,-1.104 -0.896,-2 -2,-2 z m 70.015,0 -36,0 c -1.105,0 -2,0.896 -2,2 l 0,36 c 0,1.104 0.896,2 2,2 l 36,0 c 1.103,0 2,-0.896 2,-2 l 0,-36 c 0,-1.104 -0.896,-2 -2,-2 z m -140.035,0 -36,0 c -1.105,0 -2,0.896 -2,2 l 0,36 c 0,1.104 0.896,2 2,2 l 36,0 c 1.103,0 2,-0.896 2,-2 l 0,-36 c 0,-1.104 -0.896,-2 -2,-2 z m 69.948,-99.936 -36,0 c -1.104,0.001 -2,0.897 -2,2 l 0,36 c 0,1.104 0.897,2 2,2 l 36,0 c 1.104,0 2,-0.896 2,-2 l 0,-36 c 0,-1.103 -0.895,-1.999 -2,-2 z" /></g></g></svg>
