<?xml version="1.0" encoding="UTF-8" standalone="no"?>
<svg
   xmlns:dc="http://purl.org/dc/elements/1.1/"
   xmlns:cc="http://creativecommons.org/ns#"
   xmlns:rdf="http://www.w3.org/1999/02/22-rdf-syntax-ns#"
   xmlns:svg="http://www.w3.org/2000/svg"
   xmlns="http://www.w3.org/2000/svg"
   xmlns:sodipodi="http://sodipodi.sourceforge.net/DTD/sodipodi-0.dtd"
   xmlns:inkscape="http://www.inkscape.org/namespaces/inkscape"
   id="svg2"
   style="clip-rule:evenodd;fill-rule:evenodd;stroke-linejoin:round;stroke-miterlimit:1.41420996"
   xml:space="preserve"
   version="1.1"
   viewBox="0 0 60 60"
   height="60"
   width="60"
   inkscape:version="0.91 r13725"
   sodipodi:docname="virtualbox.svg"><sodipodi:namedview
     pagecolor="#ffffff"
     bordercolor="#666666"
     borderopacity="1"
     objecttolerance="10"
     gridtolerance="10"
     guidetolerance="10"
     inkscape:pageopacity="0"
     inkscape:pageshadow="2"
     inkscape:window-width="1934"
     inkscape:window-height="1123"
     id="namedview20"
     showgrid="false"
     inkscape:zoom="7.8666667"
     inkscape:cx="62.830841"
     inkscape:cy="11.580554"
     inkscape:window-x="1071"
     inkscape:window-y="520"
     inkscape:window-maximized="0"
     inkscape:current-layer="svg2" /><metadata
     id="metadata37"><rdf:RDF><cc:Work
         rdf:about=""><dc:format>image/svg+xml</dc:format><dc:type
           rdf:resource="http://purl.org/dc/dcmitype/StillImage" /><dc:title /></cc:Work></rdf:RDF></metadata><defs
     id="defs35" /><g
     transform="matrix(0.19997959,0,0,0.19995118,0.00612242,3.3238395e-4)"
     id="Background_circle"><g
       id="g5"><g
         id="g7"><g
           id="g9"><circle
             id="circle11"
             style="fill:#ffffff"
             r="150"
             cy="150"
             cx="150" /><path
             id="path13"
             d="m 150.485,0.001 c 49.5244,-0.30805092 97.99005,26.13918 124.885,67.66 29.14949,43.41669 32.66869,102.35469 9.029,148.98 -22.3226,45.72399 -69.26524,78.27982 -120.017,82.677 C 116.79963,304.27157 67.626954,284.53159 36.597,248.141 4.2284143,211.43134 -7.8772602,158.34647 5.079,111.186 18.20087,60.591626 59.782145,18.758853 110.292,5.321 c 13.07378,-3.5887368 26.6371,-5.36778112 40.193,-5.32 z m -0.919,16 C 104.07954,15.682674 59.676029,40.73106 36.035,79.522 10.237529,120.258 9.3382219,175.08668 33.754,216.66 c 22.507056,39.83833 66.53845,66.428 112.351,67.284 44.86675,1.74378 89.5149,-21.18229 114.552,-58.394 27.38615,-39.18451 30.93913,-93.31402 9.052,-135.793 C 249.0838,48.105271 205.50868,18.954337 159.041,16.3 c -3.15359,-0.209033 -6.31449,-0.309606 -9.475,-0.299 z"
             style="fill:#2d67b9" /></g></g></g></g><g
     id="g12443"
     transform="matrix(0.67264052,0,0,0.57931697,-56.871222,-549.37497)"><path
       d="m 102.61168,974.83234 0,52.71436 52.7143,0 0,-52.71436 -52.7143,0 z m 4.39286,4.39286 43.92859,0 0,25.9911 -5.99443,0 -5.83426,-17.75449 -1.69308,-5.125 -1.7846,5.10212 -3.6836,10.52456 -3.38616,-10.11272 -1.94476,-5.85715 -1.5558,5.97154 -5.125,19.60764 -3.84375,-12.76667 -0.41183,-1.30413 -1.34989,0 -7.32143,0 0,-14.2768 z m 30.3153,14.50559 4.55301,13.88781 0.41183,1.2584 1.32701,0 7.32144,0 0,14.2768 -43.92859,0 0,-25.99109 5.94866,0 5.3538,17.70869 1.87611,6.2232 1.64732,-6.2918 5.21652,-19.92804 3.11161,9.35764 1.69308,5.0793 1.7846,-5.0563 3.6836,-10.52461 z"
       inkscape:connector-curvature="0"
       id="path3618"
       style="fill:#2d67b9;fill-opacity:1;fill-rule:nonzero;stroke:none" /></g></svg>