<?xml version="1.0" encoding="UTF-8" standalone="no"?>
<svg
   xmlns:dc="http://purl.org/dc/elements/1.1/"
   xmlns:cc="http://creativecommons.org/ns#"
   xmlns:rdf="http://www.w3.org/1999/02/22-rdf-syntax-ns#"
   xmlns:svg="http://www.w3.org/2000/svg"
   xmlns="http://www.w3.org/2000/svg"
   xmlns:sodipodi="http://sodipodi.sourceforge.net/DTD/sodipodi-0.dtd"
   xmlns:inkscape="http://www.inkscape.org/namespaces/inkscape"
   id="svg2"
   style="clip-rule:evenodd;fill-rule:evenodd;stroke-linejoin:round;stroke-miterlimit:1.41420996"
   xml:space="preserve"
   version="1.1"
   viewBox="0 0 60 60"
   height="60"
   width="60"
   inkscape:version="0.91 r13725"
   sodipodi:docname="vmware.svg"><sodipodi:namedview
     pagecolor="#ffffff"
     bordercolor="#666666"
     borderopacity="1"
     objecttolerance="10"
     gridtolerance="10"
     guidetolerance="10"
     inkscape:pageopacity="0"
     inkscape:pageshadow="2"
     inkscape:window-width="2298"
     inkscape:window-height="1355"
     id="namedview20"
     showgrid="false"
     inkscape:zoom="5.5625733"
     inkscape:cx="60.715184"
     inkscape:cy="46.696458"
     inkscape:window-x="387"
     inkscape:window-y="269"
     inkscape:window-maximized="0"
     inkscape:current-layer="svg2" /><metadata
     id="metadata37"><rdf:RDF><cc:Work
         rdf:about=""><dc:format>image/svg+xml</dc:format><dc:type
           rdf:resource="http://purl.org/dc/dcmitype/StillImage" /><dc:title /></cc:Work></rdf:RDF></metadata><defs
     id="defs35" /><g
     transform="matrix(0.19997959,0,0,0.19995118,0.00612242,3.3238395e-4)"
     id="Background_circle"><g
       id="g5"><g
         id="g7"><g
           id="g9"><circle
             id="circle11"
             style="fill:#ffffff"
             r="150"
             cy="150"
             cx="150" /><path
             id="path13"
             d="m 150.485,0.001 c 49.5244,-0.30805092 97.99005,26.13918 124.885,67.66 29.14949,43.41669 32.66869,102.35469 9.029,148.98 -22.3226,45.72399 -69.26524,78.27982 -120.017,82.677 C 116.79963,304.27157 67.626954,284.53159 36.597,248.141 4.2284143,211.43134 -7.8772602,158.34647 5.079,111.186 18.20087,60.591626 59.782145,18.758853 110.292,5.321 c 13.07378,-3.5887368 26.6371,-5.36778112 40.193,-5.32 z m -0.919,16 C 104.07954,15.682674 59.676029,40.73106 36.035,79.522 10.237529,120.258 9.3382219,175.08668 33.754,216.66 c 22.507056,39.83833 66.53845,66.428 112.351,67.284 44.86675,1.74378 89.5149,-21.18229 114.552,-58.394 27.38615,-39.18451 30.93913,-93.31402 9.052,-135.793 C 249.0838,48.105271 205.50868,18.954337 159.041,16.3 c -3.15359,-0.209033 -6.31449,-0.309606 -9.475,-0.299 z"
             style="fill:#2d67b9" /></g></g></g></g><g
     id="g188"
     transform="matrix(0.68115256,0,0,-0.68115256,28.34437,39.625367)"
     style="fill:#2d67b9;fill-opacity:1"><path
       style="fill:#2d67b9;fill-opacity:1"
       inkscape:connector-curvature="0"
       id="path190"
       d="m -21.716,23.2 c -0.708,1.552 -2.458,2.255 -4.092,1.529 -1.636,-0.727 -2.238,-2.541 -1.499,-4.094 l 6.861,-14.913 c 1.079,-2.337 2.216,-3.562 4.35,-3.562 2.28,0 3.274,1.334 4.352,3.562 0,0 5.984,13.03 6.044,13.166 0.061,0.138 0.253,0.559 0.862,0.555 0.515,-0.003 0.948,-0.414 0.948,-0.966 l 0,-12.742 c 0,-1.964 1.089,-3.575 3.185,-3.575 2.094,0 3.226,1.611 3.226,3.575 l 0,10.427 c 0,2.011 1.441,3.316 3.405,3.316 1.964,0 3.271,-1.352 3.271,-3.316 l 0,-10.427 c 0,-1.964 1.093,-3.575 3.185,-3.575 2.094,0 3.232,1.611 3.232,3.575 l 0,10.427 c 0,2.011 1.435,3.316 3.4,3.316 1.961,0 3.273,-1.352 3.273,-3.316 l 0,-10.427 c 0,-1.964 1.092,-3.575 3.186,-3.575 2.093,0 3.229,1.611 3.229,3.575 l 0,11.867 c 0,4.361 -3.507,7.416 -7.727,7.416 -4.215,0 -6.855,-2.916 -6.855,-2.916 -1.403,1.819 -3.337,2.912 -6.61,2.912 -3.454,0 -6.477,-2.912 -6.477,-2.912 -1.404,1.819 -3.794,2.912 -5.773,2.912 -3.061,0 -5.492,-1.346 -6.975,-4.737 L -16.096,9.95 -21.716,23.2 Z" /></g></svg>