<svg width="60" height="60" viewBox="0 0 300 300" xmlns="http://www.w3.org/2000/svg" xml:space="preserve" style="fill-rule:evenodd;clip-rule:evenodd;stroke-linejoin:round;stroke-miterlimit:2">
    <circle cx="150" cy="150" r="150" style="fill:#fffefe"/>
    <path d="M150 0c82.787 0 150 67.213 150 150s-67.213 150-150 150S0 232.787 0 150 67.213 0 150 0Zm0 16c73.957 0 134 60.043 134 134s-60.043 134-134 134S16 223.957 16 150 76.043 16 150 16Z" style="fill:#2d67b9"/>
    <path d="M133.609 114.97c5.797-7.117 14.629-11.665 24.514-11.665 9.883 0 18.712 4.546 24.509 11.659 5.797-7.113 14.627-11.659 24.51-11.659 14.858 0 27.336 10.276 30.707 24.103h.002l-.001.006.001.005h-.002c-3.371 13.827-15.849 24.104-30.707 24.104-9.883 0-18.713-4.546-24.51-11.66-5.797 7.114-14.626 11.66-24.509 11.66-9.885 0-18.717-4.549-24.514-11.665-5.797 7.116-14.628 11.665-24.514 11.665-9.882 0-18.712-4.546-24.509-11.66-5.797 7.114-14.626 11.66-24.509 11.66-14.859 0-27.336-10.277-30.707-24.104h-.003l.002-.005-.002-.006h.003c3.371-13.827 15.848-24.103 30.707-24.103 9.883 0 18.712 4.546 24.509 11.659 5.797-7.113 14.627-11.659 24.509-11.659 9.886 0 18.717 4.548 24.514 11.665Zm42.824 12.438c-2.958-7.204-10.045-12.283-18.31-12.283-8.266 0-15.356 5.082-18.312 12.289 2.956 7.207 10.046 12.288 18.312 12.288 8.265 0 15.353-5.079 18.31-12.283h-.001l.001-.005-.001-.006h.001Zm12.399.011c2.957 7.204 10.045 12.283 18.31 12.283 8.266 0 15.356-5.081 18.312-12.288-2.956-7.207-10.046-12.289-18.312-12.289-8.265 0-15.352 5.079-18.31 12.283h.001l-.001.006.001.005h-.001Zm-110.445-.011c-2.958-7.204-10.045-12.283-18.31-12.283-8.267 0-15.356 5.082-18.312 12.289 2.956 7.207 10.045 12.288 18.312 12.288 8.265 0 15.352-5.079 18.31-12.283h-.001l.001-.005-.001-.006h.001Zm12.399.011c2.957 7.204 10.045 12.283 18.309 12.283 8.267 0 15.356-5.081 18.312-12.288-2.956-7.207-10.045-12.289-18.312-12.289-8.264 0-15.351 5.079-18.309 12.283h.001l-.002.006.002.005h-.001Z" style="fill:#2d67b9" transform="matrix(.95945 0 0 .95945 21.809 27.753)"/>
</svg>
