<?xml version="1.0" encoding="UTF-8" standalone="no"?>
<svg
   xmlns:dc="http://purl.org/dc/elements/1.1/"
   xmlns:cc="http://creativecommons.org/ns#"
   xmlns:rdf="http://www.w3.org/1999/02/22-rdf-syntax-ns#"
   xmlns:svg="http://www.w3.org/2000/svg"
   xmlns="http://www.w3.org/2000/svg"
   id="svg2"
   style="clip-rule:evenodd;fill-rule:evenodd;stroke-linejoin:round;stroke-miterlimit:1.41420996"
   xml:space="preserve"
   version="1.1"
   viewBox="0 0 60 60"
   height="60"
   width="60"><metadata
     id="metadata31"><rdf:RDF><cc:Work
         rdf:about=""><dc:format>image/svg+xml</dc:format><dc:type
           rdf:resource="http://purl.org/dc/dcmitype/StillImage" /><dc:title></dc:title></cc:Work></rdf:RDF></metadata><defs
     id="defs29" /><g
     transform="matrix(0.19997959,0,0,0.19995118,0.00612242,3.3238395e-4)"
     id="Background_circle"><g
       id="g5"><g
         id="g7"><g
           id="g9"><circle
             id="circle11"
             style="fill:#ffffff"
             r="150"
             cy="150"
             cx="150" /><path
             id="path13"
             d="m 150.485,0.001 c 49.5244,-0.30805092 97.99005,26.13918 124.885,67.66 29.14949,43.41669 32.66869,102.35469 9.029,148.98 -22.3226,45.72399 -69.26524,78.27982 -120.017,82.677 C 116.79963,304.27157 67.626954,284.53159 36.597,248.141 4.2284143,211.43134 -7.8772602,158.34647 5.079,111.186 18.20087,60.591626 59.782145,18.758853 110.292,5.321 c 13.07378,-3.5887368 26.6371,-5.36778112 40.193,-5.32 z m -0.919,16 C 104.07954,15.682674 59.676029,40.73106 36.035,79.522 10.237529,120.258 9.3382219,175.08668 33.754,216.66 c 22.507056,39.83833 66.53845,66.428 112.351,67.284 44.86675,1.74378 89.5149,-21.18229 114.552,-58.394 27.38615,-39.18451 30.93913,-93.31402 9.052,-135.793 C 249.0838,48.105271 205.50868,18.954337 159.041,16.3 c -3.15359,-0.209033 -6.31449,-0.309606 -9.475,-0.299 z"
             style="fill:#2d67b9" /></g></g><g
         id="g15"><g
           id="g17"
           transform="translate(16.2706,26.0628)"><path
             id="path19"
             style="fill:#2d67b9;fill-rule:nonzero"
             d="m 47.137,123.841 33.504,-19.584 c 1.248,-0.672 1.728,-1.728 1.728,-2.88 0,-0.768 -0.192,-1.536 -0.576,-2.208 -0.576,-1.248 -1.728,-2.4 -3.264,-2.4 -0.48,0 -1.152,0.192 -1.728,0.576 l -35.232,21.024 c -2.496,1.536 -3.648,2.88 -3.648,5.568 0,2.592 1.152,3.936 3.552,5.28 l 35.232,21.312 c 0.576,0.384 1.248,0.576 1.824,0.576 1.44,0 2.592,-1.056 3.264,-2.4 0.288,-0.672 0.48,-1.44 0.48,-2.112 0,-1.152 -0.48,-2.208 -1.632,-2.976 L 47.137,123.841 Z" /><path
             id="path21"
             style="fill:#2d67b9;fill-rule:nonzero"
             d="m 220.321,123.841 -33.504,19.776 c -1.248,0.768 -1.728,1.824 -1.728,2.976 0,0.672 0.192,1.44 0.48,2.112 0.672,1.344 1.824,2.4 3.36,2.4 0.576,0 1.152,-0.192 1.728,-0.576 l 35.328,-21.312 c 2.304,-1.344 3.552,-2.688 3.552,-5.28 0,-2.688 -1.248,-4.032 -3.648,-5.568 L 190.657,97.345 c -0.576,-0.384 -1.248,-0.576 -1.824,-0.576 -1.44,0 -2.688,1.152 -3.264,2.4 -0.288,0.672 -0.48,1.44 -0.48,2.112 0,1.152 0.48,2.208 1.728,2.976 l 33.504,19.584 z" /></g><g
           id="g23"
           transform="translate(16.3186,29.5188)"><path
             id="path25"
             style="fill:#2d67b9;fill-rule:nonzero"
             d="m 153.553,79.393 c 0.192,-0.576 0.288,-1.056 0.288,-1.536 0,-1.44 -0.96,-2.592 -2.592,-3.168 -0.576,-0.192 -1.152,-0.288 -1.728,-0.288 -1.536,0 -2.784,0.864 -3.36,2.4 l -32.352,84.864 c -0.192,0.48 -0.288,0.96 -0.288,1.44 0,1.44 1.056,2.4 2.784,3.072 0.672,0.288 1.248,0.384 1.824,0.384 1.44,0 2.496,-0.768 3.072,-2.4 l 32.352,-84.768 z" /></g></g></g></g></svg>
