<?xml version="1.0" encoding="UTF-8" standalone="no"?>
<svg
   xmlns:dc="http://purl.org/dc/elements/1.1/"
   xmlns:cc="http://creativecommons.org/ns#"
   xmlns:rdf="http://www.w3.org/1999/02/22-rdf-syntax-ns#"
   xmlns:svg="http://www.w3.org/2000/svg"
   xmlns="http://www.w3.org/2000/svg"
   xmlns:sodipodi="http://sodipodi.sourceforge.net/DTD/sodipodi-0.dtd"
   xmlns:inkscape="http://www.inkscape.org/namespaces/inkscape"
   id="svg320"
   style="clip-rule:evenodd;fill-rule:evenodd;stroke-linejoin:round;stroke-miterlimit:1.41420996"
   xml:space="preserve"
   version="1.1"
   viewBox="0 0 60 60"
   height="60"
   width="60"
   inkscape:version="0.91 r13725"
   sodipodi:docname="atm.svg"><sodipodi:namedview
     pagecolor="#ffffff"
     bordercolor="#666666"
     borderopacity="1"
     objecttolerance="10"
     gridtolerance="10"
     guidetolerance="10"
     inkscape:pageopacity="0"
     inkscape:pageshadow="2"
     inkscape:window-width="1587"
     inkscape:window-height="993"
     id="namedview19"
     showgrid="false"
     inkscape:zoom="7.8666667"
     inkscape:cx="-14.467368"
     inkscape:cy="31.954674"
     inkscape:window-x="628"
     inkscape:window-y="517"
     inkscape:window-maximized="0"
     inkscape:current-layer="svg320" /><metadata
     id="metadata326"><rdf:RDF><cc:Work
         rdf:about=""><dc:format>image/svg+xml</dc:format><dc:type
           rdf:resource="http://purl.org/dc/dcmitype/StillImage" /><dc:title /></cc:Work></rdf:RDF></metadata><defs
     id="defs324" /><g
     transform="matrix(0.19993327,0,0,0.19990235,0.01465042,0.01464815)"
     id="g318"><g
       id="Background"><g
         id="g297"><path
           id="path293"
           style="fill:#ffffff"
           d="M 300,30.271 C 300,13.564 286.436,0 269.729,0 H 30.271 C 13.564,0 0,13.564 0,30.271 V 269.729 C 0,286.436 13.564,300 30.271,300 H 269.729 C 286.436,300 300,286.436 300,269.729 Z" /><path
           id="path295"
           d="m 269.925,0.001 c 16.09972,-0.31510169 30.49384,14.17259 30.075,30.27 -0.1061,80.84884 0.21081,161.71193 -0.156,242.552 C 298.61375,288.46369 283.6522,301.15677 268.03194,300 187.74879,299.89388 107.45138,300.21085 27.177,299.844 11.536306,298.61375 -1.1567723,283.6522 0,268.03194 0.10612413,187.74879 -0.21084904,107.45138 0.156,27.177 1.3862455,11.536306 16.347799,-1.1567723 31.968056,0 111.28704,6.6687171e-4 190.60602,-0.00133361 269.925,0.001 Z M 30.296,16 C 21.973925,15.732721 14.968163,23.80142 16,31.993056 16.103721,111.93578 15.794138,191.89863 16.152,271.829 17.110107,279.66576 25.171747,285.14519 32.841585,284 112.50147,283.89626 192.18147,284.20589 271.829,283.848 279.6657,282.88989 285.14515,274.82817 284,267.15842 283.89626,187.49853 284.20589,107.81853 283.848,28.171 282.89006,20.334162 274.82812,14.854983 267.15842,16 188.20428,16 109.25014,16 30.296,16 Z"
           style="fill:#e3292e;fill-opacity:1" /></g></g></g><path
     inkscape:connector-curvature="0"
     id="path2341"
     d="m 16.56607,11.317624 0,4.35981 8.527343,0 4.664127,9.851722 4.640571,-9.851722 8.503786,0 0,-4.35981 5.441482,5.540089 -5.441482,5.540089 0,-3.950324 -6.171723,0 -5.041026,11.05609 5.041026,11.056091 6.171723,0 0,-3.950325 5.441482,5.516003 -5.441482,5.540089 0,-3.950325 -8.503786,0 -4.640571,-10.285296 -4.664127,10.285296 -8.527343,0 0,3.950325 -5.417924,-5.540089 5.417924,-5.516003 0,3.950325 5.81838,0 5.417926,-11.056091 -5.417926,-11.05609 -5.81838,0 0,3.950324 -5.417924,-5.540089 5.417924,-5.540089"
     style="clip-rule:evenodd;fill:#e3292e;fill-opacity:1;fill-rule:evenodd;stroke:none;stroke-width:0.001;stroke-linejoin:round;stroke-miterlimit:1.41420996" /></svg>