<svg width="60" height="60" viewBox="0 0 300 300" xmlns="http://www.w3.org/2000/svg" xml:space="preserve" style="fill-rule:evenodd;clip-rule:evenodd;stroke-linejoin:round;stroke-miterlimit:2">
    <path d="M300 30.271C300 13.564 286.436 0 269.729 0H30.271C13.564 0 0 13.564 0 30.271v239.458C0 286.436 13.564 300 30.271 300h239.458C286.436 300 300 286.436 300 269.729V30.271Z" style="fill:#fffefe"/>
    <path d="M300 30.271C300 13.564 286.436 0 269.729 0H30.271C13.564 0 0 13.564 0 30.271v239.458C0 286.436 13.564 300 30.271 300h239.458C286.436 300 300 286.436 300 269.729V30.271Zm-16 0v239.458c0 7.877-6.394 14.271-14.271 14.271H30.271C22.394 284 16 277.606 16 269.729V30.271C16 22.394 22.394 16 30.271 16h239.458C277.606 16 284 22.394 284 30.271Z" style="fill:#e31c00"/>
    <path d="m124.887 128.178-5.102 5.103 4.91 18.322a.933.933 0 0 1-.275.931l-.031.033-15.984 15.984 3.729 13.915c.049.132.092.268.13.407l3.657 13.649a4.508 4.508 0 0 1-3.186 5.518 4.507 4.507 0 0 1-5.517-3.186l-1.645-6.138a.924.924 0 0 1-.069-.182l-7.009-26.156a.933.933 0 0 1 .311-.964c.02-.024.041-.047.063-.07l15.915-15.915-2.357-8.799a3745.839 3745.839 0 0 1-7.811 7.768c-5.47 5.421-11 10.974-25.969 10.414-9.657-.362-17.036-5.461-20.616-8.512l41.188-41.189a3.29 3.29 0 0 0-4.651-4.651L53.38 145.649c-3.051-3.581-8.15-10.96-8.512-20.616-.561-14.97 4.992-20.5 10.413-25.97 2.2-2.219 4.785-4.818 7.55-7.591l-8.201-2.197-15.915 15.915a1.047 1.047 0 0 1-.07.063.932.932 0 0 1-.963.311l-26.157-7.008a.894.894 0 0 1-.181-.07l-6.139-1.644a4.507 4.507 0 0 1 2.332-8.704l13.649 3.658c.139.037.275.08.408.13l13.915 3.728 15.983-15.983.033-.032a.931.931 0 0 1 .932-.274l17.722 4.748 5.322-5.32-6.842-6.842H50.728a.94.94 0 0 1-.301-.05 4.51 4.51 0 0 1-4.056-3.33l-3.657-13.649a4.508 4.508 0 0 1 3.185-5.518 4.507 4.507 0 0 1 5.518 3.186l2.773 10.35h17.816c.337 0 .633.181.797.45a.967.967 0 0 1 .177.139l8.897 8.898 1.885-1.881 2.062-2.056-6.336-6.335a.932.932 0 0 1 0-1.317l13.537-13.537V35.038a4.507 4.507 0 0 1 4.505-4.505 4.507 4.507 0 0 1 4.505 4.505v14.13a4.485 4.485 0 0 1-.993 2.82.902.902 0 0 1-.137.175l-9.333 9.333 51.11 51.111 9.333-9.333a.922.922 0 0 1 .176-.138 4.484 4.484 0 0 1 2.82-.992h14.13a4.507 4.507 0 0 1 4.505 4.505 4.508 4.508 0 0 1-4.505 4.505h-12.263l-13.537 13.536a.93.93 0 0 1-1.317 0l-6.835-6.834-2.036 2.042-1.9 1.904 9.184 9.185a.895.895 0 0 1 .139.177.93.93 0 0 1 .45.797v17.815l10.351 2.773a4.507 4.507 0 0 1-2.332 8.704l-13.649-3.658a4.508 4.508 0 0 1-3.33-4.056.905.905 0 0 1-.05-.301v-17.931l-7.129-7.129Zm-18.892-58.022a18.068 18.068 0 0 1 2.653-3.369c3.656-3.657 8.52-5.431 13.459-5.357a70.81 70.81 0 0 0 1.667-9.236c1.777-15.729-1.797-30.761-9.194-43.045l.004-.002a4.782 4.782 0 0 1 1.749-6.527 4.782 4.782 0 0 1 6.527 1.749c8.245 14.012 12.201 31.053 10.187 48.873a81.375 81.375 0 0 1-1.882 10.479 21.297 21.297 0 0 1 5.105 3.689l.141.146a21.273 21.273 0 0 1 3.547 4.958 81.249 81.249 0 0 1 10.48-1.881c17.819-2.014 34.861 1.941 48.873 10.186v.001a4.779 4.779 0 0 1-4.778 8.275l-.003.005c-12.284-7.397-27.315-10.972-43.045-9.194a70.871 70.871 0 0 0-9.236 1.667c.075 4.939-1.7 9.802-5.356 13.459a18.1 18.1 0 0 1-3.369 2.653l-27.529-27.529Z" style="fill:#e31c00" transform="translate(48.114 48.084)"/>
</svg>
