<?xml version="1.0" encoding="UTF-8" standalone="no"?>
<svg
   xmlns:dc="http://purl.org/dc/elements/1.1/"
   xmlns:cc="http://creativecommons.org/ns#"
   xmlns:rdf="http://www.w3.org/1999/02/22-rdf-syntax-ns#"
   xmlns:svg="http://www.w3.org/2000/svg"
   xmlns="http://www.w3.org/2000/svg"
   id="svg227"
   style="clip-rule:evenodd;fill-rule:evenodd;stroke-linecap:round;stroke-linejoin:round;stroke-miterlimit:1.5"
   xml:space="preserve"
   version="1.1"
   viewBox="0 0 60 60"
   height="60"
   width="60"><metadata
     id="metadata233"><rdf:RDF><cc:Work
         rdf:about=""><dc:format>image/svg+xml</dc:format><dc:type
           rdf:resource="http://purl.org/dc/dcmitype/StillImage" /><dc:title></dc:title></cc:Work></rdf:RDF></metadata><defs
     id="defs231" /><g
     transform="matrix(0.19993327,0,0,0.19990235,0.01465042,0.01464815)"
     id="g225"><g
       id="Background"><path
         id="path210"
         style="fill:#ffffff"
         d="M 300,30.271 C 300,13.564 286.436,0 269.729,0 H 30.271 C 13.564,0 0,13.564 0,30.271 V 269.729 C 0,286.436 13.564,300 30.271,300 H 269.729 C 286.436,300 300,286.436 300,269.729 Z" /><path
         id="path212"
         d="m 269.925,0.001 c 16.09696,-0.31216393 30.49109,14.175131 30.075,30.27 -0.1061,80.84884 0.21081,161.71193 -0.156,242.552 C 298.61375,288.46369 283.6522,301.15677 268.03194,300 187.74879,299.89388 107.45138,300.21085 27.177,299.844 11.536306,298.61375 -1.1567723,283.6522 0,268.03194 0.10612413,187.74879 -0.21084904,107.45138 0.156,27.177 1.3862455,11.536306 16.347799,-1.1567723 31.968056,0 111.28704,6.6687171e-4 190.60602,-0.00133361 269.925,0.001 Z M 30.296,16 C 22.026584,15.736215 15.016126,23.717706 16,31.873056 16.111802,111.88482 15.777588,191.91917 16.165,271.917 17.162233,279.66957 25.119109,285.09897 32.721585,284 112.42148,283.89656 192.14146,284.20549 271.829,283.848 279.6657,282.88989 285.14515,274.82817 284,267.15842 283.89626,187.49853 284.20589,107.81853 283.848,28.171 282.89006,20.334162 274.82812,14.854983 267.15842,16 188.20428,16 109.25014,16 30.296,16 Z"
         style="fill:#e3292e" /></g><g
       id="g223"><g
         id="g217"
         transform="translate(0,-8.94599)"><path
           id="path215"
           style="fill:#e3292e;fill-opacity:0;stroke:#e3292e;stroke-width:12px"
           d="m 193.656,225.178 h -87.312 v -0.433 h 87.312 z M 221.14,92.714 V 193.016 H 78.86 V 92.714 Z" /></g><g
         id="g221"
         transform="matrix(2.02403,0,0,2.01985,-218.715,-179.839)"><rect
           id="rect219"
           style="fill:#ffffff"
           height="43.605999"
           width="64.357002"
           y="133.51401"
           x="150" /></g></g></g></svg>
