<?xml version="1.0" encoding="UTF-8" standalone="no"?>
<svg
   xmlns:dc="http://purl.org/dc/elements/1.1/"
   xmlns:cc="http://creativecommons.org/ns#"
   xmlns:rdf="http://www.w3.org/1999/02/22-rdf-syntax-ns#"
   xmlns:svg="http://www.w3.org/2000/svg"
   xmlns="http://www.w3.org/2000/svg"
   id="svg505"
   style="clip-rule:evenodd;fill-rule:evenodd;stroke-linejoin:round;stroke-miterlimit:1.41420996"
   xml:space="preserve"
   version="1.1"
   viewBox="0 0 60 60"
   height="60"
   width="60"><metadata
     id="metadata511"><rdf:RDF><cc:Work
         rdf:about=""><dc:format>image/svg+xml</dc:format><dc:type
           rdf:resource="http://purl.org/dc/dcmitype/StillImage" /><dc:title></dc:title></cc:Work></rdf:RDF></metadata><defs
     id="defs509" /><g
     transform="matrix(0.19993327,0,0,0.19990235,0.01465042,0.01464815)"
     id="g503"><g
       id="Background"><g
         id="g491"><path
           id="path487"
           style="fill:#ffffff"
           d="M 300,30.271 C 300,13.564 286.436,0 269.729,0 H 30.271 C 13.564,0 0,13.564 0,30.271 V 269.729 C 0,286.436 13.564,300 30.271,300 H 269.729 C 286.436,300 300,286.436 300,269.729 Z" /><path
           id="path489"
           d="m 269.925,0.001 c 16.09972,-0.31510169 30.49384,14.17259 30.075,30.27 -0.1061,80.84884 0.21081,161.71193 -0.156,242.552 C 298.61375,288.46369 283.6522,301.15677 268.03194,300 187.74879,299.89388 107.45138,300.21085 27.177,299.844 11.536306,298.61375 -1.1567723,283.6522 0,268.03194 0.10612413,187.74879 -0.21084904,107.45138 0.156,27.177 1.3862455,11.536306 16.347799,-1.1567723 31.968056,0 111.28704,6.6687171e-4 190.60602,-0.00133361 269.925,0.001 Z M 30.296,16 C 21.973925,15.732721 14.968163,23.80142 16,31.993056 16.103721,111.93578 15.794138,191.89863 16.152,271.829 17.110107,279.66576 25.171747,285.14519 32.841585,284 112.50147,283.89626 192.18147,284.20589 271.829,283.848 279.6657,282.88989 285.14515,274.82817 284,267.15842 283.89626,187.49853 284.20589,107.81853 283.848,28.171 282.89006,20.334162 274.82812,14.854983 267.15842,16 188.20428,16 109.25014,16 30.296,16 Z"
           style="fill:#e3292e" /></g></g><g
       id="Layer1"><g
         id="g500"><path
           id="path494"
           style="fill:#e3292e"
           d="m 182.537,71.431 c 6.916,2.87 13.373,6.628 19.228,11.13 l -10.827,26.822 14.706,25.472 28.662,4.038 c 0.475,3.635 0.721,7.343 0.721,11.107 0,3.764 -0.246,7.472 -0.721,11.107 l -28.662,4.038 -14.706,25.472 10.827,26.822 c -5.855,4.502 -12.312,8.26 -19.228,11.13 l -17.831,-22.807 h -29.412 l -17.831,22.807 c -6.916,-2.87 -13.373,-6.628 -19.228,-11.13 l 10.827,-26.822 -14.706,-25.472 -28.662,-4.038 c -0.475,-3.635 -0.721,-7.343 -0.721,-11.107 0,-3.764 0.246,-7.472 0.721,-11.107 l 28.662,-4.038 14.706,-25.472 -10.827,-26.822 c 5.855,-4.502 12.312,-8.26 19.228,-11.13 l 17.831,22.807 h 29.412 z m 41.377,120.599 c -0.149,0.262 -0.3,0.523 -0.452,0.782 z m -147.828,0 0.452,0.782 c -0.152,-0.259 -0.303,-0.52 -0.452,-0.782 z M 150,118.87 c 17.181,0 31.13,13.949 31.13,31.13 0,17.181 -13.949,31.13 -31.13,31.13 -17.181,0 -31.13,-13.949 -31.13,-31.13 0,-17.181 13.949,-31.13 31.13,-31.13 z m 73.462,-11.682 c 0.152,0.259 0.303,0.52 0.452,0.782 z m -146.924,0 -0.452,0.782 c 0.149,-0.262 0.3,-0.523 0.452,-0.782 z M 150,64.973 c 0,0 0,0 0,0 z" /><g
           id="g498"
           transform="matrix(1.13747,0,0,1.13747,-20.62,-20.62)"><circle
             id="circle496"
             style="fill:#ffffff"
             r="28.177"
             cy="150"
             cx="150" /></g></g></g></g></svg>
