<?xml version="1.0" encoding="UTF-8" standalone="no"?>
<svg
   xmlns:dc="http://purl.org/dc/elements/1.1/"
   xmlns:cc="http://creativecommons.org/ns#"
   xmlns:rdf="http://www.w3.org/1999/02/22-rdf-syntax-ns#"
   xmlns:svg="http://www.w3.org/2000/svg"
   xmlns="http://www.w3.org/2000/svg"
   id="svg625"
   style="clip-rule:evenodd;fill-rule:evenodd;stroke-linejoin:round;stroke-miterlimit:1.41420996"
   xml:space="preserve"
   version="1.1"
   viewBox="0 0 60 60"
   height="60"
   width="60"><metadata
     id="metadata631"><rdf:RDF><cc:Work
         rdf:about=""><dc:format>image/svg+xml</dc:format><dc:type
           rdf:resource="http://purl.org/dc/dcmitype/StillImage" /><dc:title></dc:title></cc:Work></rdf:RDF></metadata><defs
     id="defs629" /><g
     transform="matrix(0.19993327,0,0,0.19990235,0.01465042,0.01464815)"
     id="g623"><g
       id="Background"><path
         id="path610"
         style="fill:#ffffff"
         d="M 300,30.271 C 300,13.564 286.436,0 269.729,0 H 30.271 C 13.564,0 0,13.564 0,30.271 V 269.729 C 0,286.436 13.564,300 30.271,300 H 269.729 C 286.436,300 300,286.436 300,269.729 Z" /><path
         id="path612"
         d="m 269.925,0.001 c 16.09696,-0.31216393 30.49109,14.175131 30.075,30.27 -0.1061,80.84884 0.21081,161.71193 -0.156,242.552 C 298.61375,288.46369 283.6522,301.15677 268.03194,300 187.74879,299.89388 107.45138,300.21085 27.177,299.844 11.536306,298.61375 -1.1567723,283.6522 0,268.03194 0.10612413,187.74879 -0.21084904,107.45138 0.156,27.177 1.3862455,11.536306 16.347799,-1.1567723 31.968056,0 111.28704,6.6687171e-4 190.60602,-0.00133361 269.925,0.001 Z M 30.296,16 C 22.026584,15.736215 15.016126,23.717706 16,31.873056 16.111802,111.88482 15.777588,191.91917 16.165,271.917 17.162233,279.66957 25.119109,285.09897 32.721585,284 112.42148,283.89656 192.14146,284.20549 271.829,283.848 279.6657,282.88989 285.14515,274.82817 284,267.15842 283.89626,187.49853 284.20589,107.81853 283.848,28.171 282.89006,20.334162 274.82812,14.854983 267.15842,16 188.20428,16 109.25014,16 30.296,16 Z"
         style="fill:#e3292e" /></g><g
       id="g621"><path
         id="path615"
         style="fill:#e3292e"
         d="m 109.7,179.509 c -6.069,-8.27 -9.655,-18.474 -9.655,-29.509 0,-1.07 0.034,-2.131 0.1,-3.184 V 80.445 L 81.233,99.357 V 70.066 L 110.329,40.97 139.425,70.066 V 99.273 L 120.491,80.339 V 109.7 c 8.27,-6.069 18.474,-9.655 29.509,-9.655 1.07,0 2.131,0.034 3.184,0.1 h 66.371 L 200.643,81.233 h 29.291 l 29.096,29.096 -29.096,29.096 h -29.207 l 18.934,-18.934 H 190.3 c 6.069,8.271 9.655,18.475 9.655,29.509 0,1.07 -0.034,2.131 -0.1,3.184 v 66.371 l 18.912,-18.912 v 29.291 l -29.096,29.096 -29.096,-29.096 v -29.207 l 18.934,18.934 V 190.3 c -8.27,6.069 -18.474,9.655 -29.509,9.655 -1.07,0 -2.131,-0.034 -3.184,-0.1 H 80.445 l 18.912,18.912 H 70.066 L 40.97,189.671 70.066,160.575 h 29.207 l -18.934,18.934 z m 40.004,-58.805 c 16.005,0 29,12.994 29,29 0,16.005 -12.995,29 -29,29 -16.006,0 -29,-12.995 -29,-29 0,-16.006 12.994,-29 29,-29 z" /><g
         id="g619"
         transform="matrix(1.08769,0,0,1.08769,-12.8326,-12.5218)"><circle
           id="circle617"
           style="fill:#ffffff"
           r="26.82"
           cy="149.42"
           cx="149.70599" /></g></g></g></svg>
