<?xml version="1.0" encoding="UTF-8" standalone="no"?>
<svg
   xmlns:dc="http://purl.org/dc/elements/1.1/"
   xmlns:cc="http://creativecommons.org/ns#"
   xmlns:rdf="http://www.w3.org/1999/02/22-rdf-syntax-ns#"
   xmlns:svg="http://www.w3.org/2000/svg"
   xmlns="http://www.w3.org/2000/svg"
   xmlns:sodipodi="http://sodipodi.sourceforge.net/DTD/sodipodi-0.dtd"
   xmlns:inkscape="http://www.inkscape.org/namespaces/inkscape"
   id="svg320"
   style="clip-rule:evenodd;fill-rule:evenodd;stroke-linejoin:round;stroke-miterlimit:1.41420996"
   xml:space="preserve"
   version="1.1"
   viewBox="0 0 60 60"
   height="60"
   width="60"
   inkscape:version="0.91 r13725"
   sodipodi:docname="docker.svg"><sodipodi:namedview
     pagecolor="#ffffff"
     bordercolor="#666666"
     borderopacity="1"
     objecttolerance="10"
     gridtolerance="10"
     guidetolerance="10"
     inkscape:pageopacity="0"
     inkscape:pageshadow="2"
     inkscape:window-width="1516"
     inkscape:window-height="937"
     id="namedview19"
     showgrid="false"
     inkscape:zoom="7.8666667"
     inkscape:cx="13.675531"
     inkscape:cy="29.929258"
     inkscape:window-x="907"
     inkscape:window-y="655"
     inkscape:window-maximized="0"
     inkscape:current-layer="g318" /><metadata
     id="metadata326"><rdf:RDF><cc:Work
         rdf:about=""><dc:format>image/svg+xml</dc:format><dc:type
           rdf:resource="http://purl.org/dc/dcmitype/StillImage" /><dc:title /></cc:Work></rdf:RDF></metadata><defs
     id="defs324" /><g
     transform="matrix(0.19993327,0,0,0.19990235,0.01465042,0.01464815)"
     id="g318"><g
       id="Background"><g
         id="g297"><path
           id="path293"
           style="fill:#ffffff"
           d="M 300,30.271 C 300,13.564 286.436,0 269.729,0 H 30.271 C 13.564,0 0,13.564 0,30.271 V 269.729 C 0,286.436 13.564,300 30.271,300 H 269.729 C 286.436,300 300,286.436 300,269.729 Z" /><path
           id="path295"
           d="m 269.925,0.001 c 16.09972,-0.31510169 30.49384,14.17259 30.075,30.27 -0.1061,80.84884 0.21081,161.71193 -0.156,242.552 C 298.61375,288.46369 283.6522,301.15677 268.03194,300 187.74879,299.89388 107.45138,300.21085 27.177,299.844 11.536306,298.61375 -1.1567723,283.6522 0,268.03194 0.10612413,187.74879 -0.21084904,107.45138 0.156,27.177 1.3862455,11.536306 16.347799,-1.1567723 31.968056,0 111.28704,6.6687171e-4 190.60602,-0.00133361 269.925,0.001 Z M 30.296,16 C 21.973925,15.732721 14.968163,23.80142 16,31.993056 16.103721,111.93578 15.794138,191.89863 16.152,271.829 17.110107,279.66576 25.171747,285.14519 32.841585,284 112.50147,283.89626 192.18147,284.20589 271.829,283.848 279.6657,282.88989 285.14515,274.82817 284,267.15842 283.89626,187.49853 284.20589,107.81853 283.848,28.171 282.89006,20.334162 274.82812,14.854983 267.15842,16 188.20428,16 109.25014,16 30.296,16 Z"
           style="fill:#e3292e;fill-opacity:1" /></g></g><path
       style="clip-rule:evenodd;fill:#e3292e;fill-opacity:1;fill-rule:evenodd;stroke-linejoin:round;stroke-miterlimit:1.41420996"
       inkscape:connector-curvature="0"
       id="outline_7_"
       d="m 160.43872,113.53975 21.66305,0 0,28.6031 10.95283,0 c 5.05805,0 10.26037,-1.16444 15.05054,-3.26068 2.35396,-1.03032 4.99556,-2.4654 7.31782,-4.26904 -3.05836,-5.15692 -4.61924,-11.66879 -5.07919,-18.08749 -0.62398,-8.73037 0.73932,-20.092913 5.31353,-26.925871 l 2.27722,-3.401937 2.71328,2.81734 c 6.83122,7.089942 12.57712,16.996638 13.5903,28.289138 8.2253,-3.12536 17.88375,-2.38586 25.13448,3.01973 l 2.97519,2.21613 -1.56594,3.94795 c -6.13187,15.45829 -18.95206,20.24604 -31.48599,19.39971 -18.75494,60.3369 -59.58648,88.90262 -109.09546,88.90262 -25.577891,0 -49.04489,-12.35072 -62.408196,-41.66186 l -0.219178,-0.47894 -1.947312,-5.11655 C 51.108923,174.631 49.608693,160.49682 50.62646,146.37331 l 0.3051,-4.22986 18.524281,0 0,-28.60311 21.661669,0 0,-27.98052 43.3261,0 0,-27.981115 25.99511,0 0,55.961045 z" /><g
       style="clip-rule:evenodd;fill-rule:evenodd;stroke-linejoin:round;stroke-miterlimit:1.41420996"
       id="Containers_8_"
       transform="matrix(0.45948856,0,0,0.59349923,49.181369,13.546404)"><path
         style="clip-rule:evenodd;fill:#ffffff;fill-rule:evenodd"
         inkscape:connector-curvature="0"
         d="m 86.209,179.744 3.227,0 0,34.052 -3.227,0 0,-34.052 z m -6.189,0 3.354,0 0,34.052 -3.354,0 0,-34.052 z m -6.192,0 3.354,0 0,34.052 -3.354,0 0,-34.052 z m -6.192,0 3.354,0 0,34.052 -3.354,0 0,-34.052 z m -6.19,0 3.354,0 0,34.052 -3.354,0 0,-34.052 z m -6.062,0 3.224,0 0,34.052 -3.224,0 0,-34.052 z m -3.403,-3.406 40.858,0 0,40.86 -40.858,0 0,-40.86 z"
         id="path3145" /><path
         style="clip-rule:evenodd;fill:#ffffff;fill-rule:evenodd"
         inkscape:connector-curvature="0"
         d="m 133.354,132.598 3.229,0 0,34.051 -3.229,0 0,-34.051 z m -6.189,0 3.354,0 0,34.051 -3.354,0 0,-34.051 z m -6.192,0 3.354,0 0,34.051 -3.354,0 0,-34.051 z m -6.192,0 3.354,0 0,34.051 -3.354,0 0,-34.051 z m -6.188,0 3.352,0 0,34.051 -3.352,0 0,-34.051 z m -6.062,0 3.222,0 0,34.051 -3.222,0 0,-34.051 z m -3.407,-3.405 40.863,0 0,40.859 -40.863,0 0,-40.859 z"
         id="path3147" /><path
         style="clip-rule:evenodd;fill:#ffffff;fill-rule:evenodd"
         inkscape:connector-curvature="0"
         d="m 133.354,179.744 3.229,0 0,34.052 -3.229,0 0,-34.052 z m -6.189,0 3.354,0 0,34.052 -3.354,0 0,-34.052 z m -6.192,0 3.354,0 0,34.052 -3.354,0 0,-34.052 z m -6.192,0 3.354,0 0,34.052 -3.354,0 0,-34.052 z m -6.188,0 3.352,0 0,34.052 -3.352,0 0,-34.052 z m -6.062,0 3.222,0 0,34.052 -3.222,0 0,-34.052 z m -3.407,-3.406 40.863,0 0,40.86 -40.863,0 0,-40.86 z"
         id="path3149" /><path
         style="clip-rule:evenodd;fill:#ffffff;fill-rule:evenodd"
         inkscape:connector-curvature="0"
         d="m 180.501,179.744 3.225,0 0,34.052 -3.225,0 0,-34.052 z m -6.191,0 3.355,0 0,34.052 -3.355,0 0,-34.052 z m -6.19,0 3.354,0 0,34.052 -3.354,0 0,-34.052 z m -6.192,0 3.354,0 0,34.052 -3.354,0 0,-34.052 z m -6.192,0 3.354,0 0,34.052 -3.354,0 0,-34.052 z m -6.06,0 3.222,0 0,34.052 -3.222,0 0,-34.052 z m -3.405,-3.406 40.861,0 0,40.86 -40.861,0 0,-40.86 z"
         id="path3151" /><path
         style="clip-rule:evenodd;fill:#ffffff;fill-rule:evenodd"
         inkscape:connector-curvature="0"
         d="m 180.501,132.598 3.225,0 0,34.051 -3.225,0 0,-34.051 z m -6.191,0 3.355,0 0,34.051 -3.355,0 0,-34.051 z m -6.19,0 3.354,0 0,34.051 -3.354,0 0,-34.051 z m -6.192,0 3.354,0 0,34.051 -3.354,0 0,-34.051 z m -6.192,0 3.354,0 0,34.051 -3.354,0 0,-34.051 z m -6.06,0 3.222,0 0,34.051 -3.222,0 0,-34.051 z m -3.405,-3.405 40.861,0 0,40.859 -40.861,0 0,-40.859 z"
         id="path3153" /><path
         style="clip-rule:evenodd;fill:#ffffff;fill-rule:evenodd"
         inkscape:connector-curvature="0"
         d="m 227.647,179.744 3.226,0 0,34.052 -3.226,0 0,-34.052 z m -6.19,0 3.354,0 0,34.052 -3.354,0 0,-34.052 z m -6.192,0 3.354,0 0,34.052 -3.354,0 0,-34.052 z m -6.192,0 3.354,0 0,34.052 -3.354,0 0,-34.052 z m -6.189,0 3.354,0 0,34.052 -3.354,0 0,-34.052 z m -6.063,0 3.224,0 0,34.052 -3.224,0 0,-34.052 z m -3.405,-3.406 40.861,0 0,40.86 -40.861,0 0,-40.86 z"
         id="path3155" /><path
         style="clip-rule:evenodd;fill:#ffffff;fill-rule:evenodd"
         inkscape:connector-curvature="0"
         d="m 227.647,132.598 3.226,0 0,34.051 -3.226,0 0,-34.051 z m -6.19,0 3.354,0 0,34.051 -3.354,0 0,-34.051 z m -6.192,0 3.354,0 0,34.051 -3.354,0 0,-34.051 z m -6.192,0 3.354,0 0,34.051 -3.354,0 0,-34.051 z m -6.189,0 3.354,0 0,34.051 -3.354,0 0,-34.051 z m -6.063,0 3.224,0 0,34.051 -3.224,0 0,-34.051 z m -3.405,-3.405 40.861,0 0,40.859 -40.861,0 0,-40.859 z"
         id="path3157" /><path
         style="clip-rule:evenodd;fill:#ffffff;fill-rule:evenodd"
         inkscape:connector-curvature="0"
         d="m 227.647,85.451 3.226,0 0,34.053 -3.226,0 0,-34.053 z m -6.19,0 3.354,0 0,34.053 -3.354,0 0,-34.053 z m -6.192,0 3.354,0 0,34.053 -3.354,0 0,-34.053 z m -6.192,0 3.354,0 0,34.053 -3.354,0 0,-34.053 z m -6.189,0 3.354,0 0,34.053 -3.354,0 0,-34.053 z m -6.063,0 3.224,0 0,34.053 -3.224,0 0,-34.053 z m -3.405,-3.403 40.861,0 0,40.86 -40.861,0 0,-40.86 z"
         id="path3159" /><path
         style="clip-rule:evenodd;fill:#ffffff;fill-rule:evenodd"
         inkscape:connector-curvature="0"
         d="m 274.792,179.744 3.224,0 0,34.052 -3.224,0 0,-34.052 z m -6.19,0 3.352,0 0,34.052 -3.352,0 0,-34.052 z m -6.194,0 3.354,0 0,34.052 -3.354,0 0,-34.052 z m -6.19,0 3.354,0 0,34.052 -3.354,0 0,-34.052 z m -6.192,0 3.354,0 0,34.052 -3.354,0 0,-34.052 z m -6.062,0 3.227,0 0,34.052 -3.227,0 0,-34.052 z m -3.403,-3.406 40.86,0 0,40.86 -40.86,0 0,-40.86 z"
         id="path3161" /></g><path
       style="clip-rule:evenodd;fill:#ffffff;fill-rule:evenodd;stroke-linejoin:round;stroke-miterlimit:1.41420996"
       inkscape:connector-curvature="0"
       d="m 112.32797,181.7708 c 2.86032,0 5.1789,2.99658 5.1789,6.68992 0,3.69453 -2.31858,6.68932 -5.1789,6.68932 -2.86078,0 -5.17936,-2.99479 -5.17936,-6.68932 0,-3.69334 2.31858,-6.68992 5.17936,-6.68992"
       id="path3163" /><path
       style="clip-rule:evenodd;fill:#ff292e;fill-opacity:1;fill-rule:evenodd;stroke:none;stroke-linejoin:round;stroke-miterlimit:1.41420996;stroke-opacity:1"
       inkscape:connector-curvature="0"
       d="m 112.32797,183.6694 c 0.47376,0 0.92587,0.11516 1.34309,0.32406 -0.45216,0.33772 -0.75816,0.97037 -0.75816,1.69385 0,1.08016 0.6782,1.95439 1.51447,1.95439 0.57298,0 1.07015,-0.4113 1.32793,-1.01785 0.18151,0.56561 0.28259,1.1864 0.28259,1.83807 0,2.6458 -1.66105,4.7913 -3.70945,4.7913 -2.0484,0 -3.70991,-2.1455 -3.70991,-4.7913 -4.6e-4,-2.64761 1.66151,-4.79251 3.70945,-4.79251"
       id="path3165" /><path
       style="clip-rule:evenodd;fill:#ffffff;fill-rule:evenodd;stroke-linejoin:round;stroke-miterlimit:1.41420996"
       inkscape:connector-curvature="0"
       d="m 126.097,229.98192 c -12.82708,-7.86208 -19.86782,-18.55041 -23.78543,-30.21801 -4.764891,1.75734 -10.49242,2.87965 -17.146734,3.36158 -2.507429,0.18219 -5.144434,0.27538 -7.911934,0.27538 -3.189769,0 -6.552306,-0.12166 -10.081178,-0.36383 11.762907,15.18468 26.23404,26.87543 53.028656,27.09028 1.9781,-6e-4 3.94195,-0.0505 5.89662,-0.14543 z"
       id="path3167" /></g></svg>