<svg width="60" height="60" viewBox="0 0 300 300" xmlns="http://www.w3.org/2000/svg" xml:space="preserve" style="fill-rule:evenodd;clip-rule:evenodd;stroke-linejoin:round;stroke-miterlimit:2">
    <path d="M300 30.271C300 13.564 286.436 0 269.729 0H30.271C13.564 0 0 13.564 0 30.271v239.458C0 286.436 13.564 300 30.271 300h239.458C286.436 300 300 286.436 300 269.729V30.271Z" style="fill:#fffefe"/>
    <path d="M300 30.271C300 13.564 286.436 0 269.729 0H30.271C13.564 0 0 13.564 0 30.271v239.458C0 286.436 13.564 300 30.271 300h239.458C286.436 300 300 286.436 300 269.729V30.271Zm-16 0v239.458c0 7.877-6.394 14.271-14.271 14.271H30.271C22.394 284 16 277.606 16 269.729V30.271C16 22.394 22.394 16 30.271 16h239.458C277.606 16 284 22.394 284 30.271Z" style="fill:#e31c00"/>
    <path d="M207.746 91.788c0-1.09-.886-1.975-1.976-1.975h-15.004c-1.09 0-1.975.885-1.975 1.975v98.684c0 1.09.885 1.975 1.975 1.975h15.004c1.09 0 1.976-.885 1.976-1.975V91.788Zm-28.279 49.333c-.087 4.786-85.49 54.209-88.778 51.194-3.146-2.885-3.467-99.108 0-102.388 2.952-2.792 88.867 46.313 88.778 51.194Z" style="fill:#e31c00" transform="translate(-73.455 -63.116) scale(1.51007)"/>
</svg>
