<svg width="60" height="60" viewBox="0 0 300 300" xmlns="http://www.w3.org/2000/svg" xml:space="preserve" style="fill-rule:evenodd;clip-rule:evenodd;stroke-linejoin:round;stroke-miterlimit:2">
    <path d="M300 30.271C300 13.564 286.436 0 269.729 0H30.271C13.564 0 0 13.564 0 30.271v239.458C0 286.436 13.564 300 30.271 300h239.458C286.436 300 300 286.436 300 269.729V30.271Z" style="fill:#fffefe"/>
    <path d="M300 30.271C300 13.564 286.436 0 269.729 0H30.271C13.564 0 0 13.564 0 30.271v239.458C0 286.436 13.564 300 30.271 300h239.458C286.436 300 300 286.436 300 269.729V30.271Zm-16 0v239.458c0 7.877-6.394 14.271-14.271 14.271H30.271C22.394 284 16 277.606 16 269.729V30.271C16 22.394 22.394 16 30.271 16h239.458C277.606 16 284 22.394 284 30.271Z" style="fill:#e31c00"/>
    <path d="m96.755 140 39.532-84.253A12.447 12.447 0 0 1 160 61.034v109.043l18.939-25.123a12.446 12.446 0 0 1 9.938-4.954h61.907c5.519 0 10 4.481 10 10s-4.481 10-10 10h-58.141l-30.259 40.14A12.447 12.447 0 0 1 140 192.648v-97.73l-27.179 57.923A12.444 12.444 0 0 1 101.555 160H50.749c-5.519 0-10-4.481-10-10s4.481-10 10-10h46.006Z" style="fill:#e31c00" transform="matrix(.90908 0 0 .90908 12.941 34.692)"/>
</svg>
