<?xml version="1.0" encoding="UTF-8" standalone="no"?>
<svg
   xmlns:dc="http://purl.org/dc/elements/1.1/"
   xmlns:cc="http://creativecommons.org/ns#"
   xmlns:rdf="http://www.w3.org/1999/02/22-rdf-syntax-ns#"
   xmlns:svg="http://www.w3.org/2000/svg"
   xmlns="http://www.w3.org/2000/svg"
   id="svg1753"
   style="clip-rule:evenodd;fill-rule:evenodd;stroke-linejoin:round;stroke-miterlimit:1.41420996"
   xml:space="preserve"
   version="1.1"
   viewBox="0 0 60 60.000001"
   height="60"
   width="60"><metadata
     id="metadata1759"><rdf:RDF><cc:Work
         rdf:about=""><dc:format>image/svg+xml</dc:format><dc:type
           rdf:resource="http://purl.org/dc/dcmitype/StillImage" /><dc:title></dc:title></cc:Work></rdf:RDF></metadata><defs
     id="defs1757" /><g
     transform="matrix(0.19993327,0,0,0.19990235,0.01465042,0.01464815)"
     id="g1751"><g
       id="Background"><g
         id="g1742"><path
           id="path1738"
           style="fill:#ffffff"
           d="M 300,30.271 C 300,13.564 286.436,0 269.729,0 H 30.271 C 13.564,0 0,13.564 0,30.271 V 269.729 C 0,286.436 13.564,300 30.271,300 H 269.729 C 286.436,300 300,286.436 300,269.729 Z" /><path
           id="path1740"
           d="m 269.925,0.001 c 16.09972,-0.31510169 30.49384,14.17259 30.075,30.27 -0.1061,80.84884 0.21081,161.71193 -0.156,242.552 C 298.61375,288.46369 283.6522,301.15677 268.03194,300 187.74879,299.89388 107.45138,300.21085 27.177,299.844 11.536306,298.61375 -1.1567723,283.6522 0,268.03194 0.10612413,187.74879 -0.21084904,107.45138 0.156,27.177 1.3862455,11.536306 16.347799,-1.1567723 31.968056,0 111.28704,6.6687171e-4 190.60602,-0.00133361 269.925,0.001 Z M 30.296,16 C 21.973925,15.732721 14.968163,23.80142 16,31.993056 16.103721,111.93578 15.794138,191.89863 16.152,271.829 17.110107,279.66576 25.171747,285.14519 32.841585,284 112.50147,283.89626 192.18147,284.20589 271.829,283.848 279.6657,282.88989 285.14515,274.82817 284,267.15842 283.89626,187.49853 284.20589,107.81853 283.848,28.171 282.89006,20.334162 274.82812,14.854983 267.15842,16 188.20428,16 109.25014,16 30.296,16 Z"
           style="fill:#e3292e" /></g></g><g
       id="g1749"><path
         id="path1745"
         style="fill:#e3292e"
         d="m 181.066,86.193 c -6.827,-6.535 -8.59,-17.122 -3.657,-25.667 5.795,-10.038 18.649,-13.482 28.687,-7.687 10.037,5.795 13.481,18.649 7.686,28.687 -4.933,8.545 -14.983,12.312 -24.056,9.667 l -14.098,24.417 c 9.219,6.884 15.581,17.384 16.977,29.39 h 28.187 c 2.245,-9.18 10.532,-16 20.4,-16 11.59,0 21,9.41 21,21 0,11.59 -9.41,21 -21,21 -9.868,0 -18.155,-6.82 -20.4,-16 h -28.187 c -1.396,12.006 -7.758,22.506 -16.977,29.39 l 14.098,24.417 c 9.073,-2.645 19.123,1.122 24.056,9.667 5.795,10.038 2.351,22.892 -7.686,28.687 -10.038,5.795 -22.892,2.351 -28.687,-7.687 -4.933,-8.545 -3.17,-19.132 3.657,-25.667 L 166.974,189.4 c -5.207,2.248 -10.946,3.494 -16.974,3.494 -6.028,0 -11.767,-1.246 -16.974,-3.494 l -14.092,24.407 c 6.827,6.535 8.59,17.122 3.657,25.667 -5.795,10.038 -18.649,13.482 -28.687,7.687 -10.037,-5.795 -13.481,-18.649 -7.686,-28.687 4.933,-8.545 14.983,-12.312 24.056,-9.667 L 124.372,184.39 C 115.153,177.506 108.791,167.006 107.395,155 H 79.208 c -2.245,9.18 -10.532,16 -20.4,16 -11.59,0 -21,-9.41 -21,-21 0,-11.59 9.41,-21 21,-21 9.868,0 18.155,6.82 20.4,16 h 28.187 c 1.396,-12.006 7.758,-22.506 16.977,-29.39 L 110.274,91.193 c -9.073,2.645 -19.123,-1.122 -24.056,-9.667 -5.795,-10.038 -2.351,-22.892 7.686,-28.687 10.038,-5.795 22.892,-2.351 28.687,7.687 4.933,8.545 3.17,19.132 -3.657,25.667 l 14.092,24.407 c 5.207,-2.248 10.946,-3.494 16.974,-3.494 6.028,0 11.767,1.246 16.974,3.494 z M 159.2,175.935 150,160 l -9.2,15.935 c 2.877,1.022 5.974,1.578 9.2,1.578 3.226,0 6.323,-0.556 9.2,-1.578 z M 132.145,170.926 141.34,155 h -18.399 c 1.164,6.332 4.5,11.907 9.204,15.926 z M 177.059,155 H 158.66 l 9.195,15.926 c 4.704,-4.019 8.04,-9.594 9.204,-15.926 z m -44.914,-25.926 c -4.704,4.019 -8.04,9.594 -9.204,15.926 h 18.399 z m 35.71,0 L 158.66,145 h 18.399 c -1.164,-6.332 -4.5,-11.907 -9.204,-15.926 z m -8.655,-5.009 c -2.877,-1.022 -5.974,-1.578 -9.2,-1.578 -3.226,0 -6.323,0.556 -9.2,1.578 L 150,140 Z" /><circle
         id="circle1747"
         style="fill:#ffffff"
         r="28.177"
         cy="150"
         cx="150" /></g></g></svg>
