<svg width="60" height="60" viewBox="0 0 300 300" xmlns="http://www.w3.org/2000/svg" xml:space="preserve" style="fill-rule:evenodd;clip-rule:evenodd;stroke-linejoin:round;stroke-miterlimit:2">
    <path d="M300 30.271C300 13.564 286.436 0 269.729 0H30.271C13.564 0 0 13.564 0 30.271v239.458C0 286.436 13.564 300 30.271 300h239.458C286.436 300 300 286.436 300 269.729V30.271Z" style="fill:#fffefe"/>
    <path d="M300 30.271C300 13.564 286.436 0 269.729 0H30.271C13.564 0 0 13.564 0 30.271v239.458C0 286.436 13.564 300 30.271 300h239.458C286.436 300 300 286.436 300 269.729V30.271Zm-16 0v239.458c0 7.877-6.394 14.271-14.271 14.271H30.271C22.394 284 16 277.606 16 269.729V30.271C16 22.394 22.394 16 30.271 16h239.458C277.606 16 284 22.394 284 30.271Z" style="fill:#e31c00"/>
    <path d="M131.341 192.374a7.984 7.984 0 0 1-1.282-.485c-3.018-1.509-5.628-5.047-5.614-8.421.074-18.553-5.281-26.278-13.686-39.824a46.478 46.478 0 0 1-6.071-22.983c0-25.368 20.306-45.965 45.317-45.965s45.317 20.597 45.317 45.965a46.468 46.468 0 0 1-6.072 22.983c-8.405 13.546-13.759 21.271-13.685 39.824.013 3.374-2.597 6.912-5.614 8.421-.38.19-.855.363-1.404.52v27.987a2.371 2.371 0 0 1-2.37 2.37h-.045l-7.588 10.526h-17.2l-7.588-10.526h-.045a2.371 2.371 0 0 1-2.37-2.37v-28.022Zm-45.863-48.483c1.985-.142 12.128 17.148 10.877 18.84-1.484 2.008-31.761 8.146-32.787 6.37-.969-1.679 19.617-25.045 21.91-25.21Zm129.648 0c-1.985-.142-12.128 17.148-10.877 18.84 1.484 2.008 31.761 8.146 32.786 6.37.969-1.679-19.616-25.045-21.909-25.21ZM82.168 109.784c1.79.869 1.929 20.914 0 21.754-2.29.997-31.579-8.826-31.579-10.877 0-1.938 29.511-11.881 31.579-10.877Zm136.268 0c-1.79.869-1.93 20.914 0 21.754 2.289.997 31.579-8.826 31.579-10.877 0-1.938-29.511-11.881-31.579-10.877ZM96.355 78.591c1.116 1.648-8.787 19.077-10.877 18.84-2.481-.282-22.935-23.434-21.91-25.21.97-1.678 31.498 4.467 32.787 6.37Zm107.894 0c-1.116 1.648 8.786 19.077 10.877 18.84 2.481-.282 22.935-23.434 21.909-25.21-.969-1.678-31.497 4.467-32.786 6.37Z" style="fill:#e31c00"/>
</svg>
