<?xml version="1.0" encoding="UTF-8" standalone="no"?>
<svg
   xmlns:dc="http://purl.org/dc/elements/1.1/"
   xmlns:cc="http://creativecommons.org/ns#"
   xmlns:rdf="http://www.w3.org/1999/02/22-rdf-syntax-ns#"
   xmlns:svg="http://www.w3.org/2000/svg"
   xmlns="http://www.w3.org/2000/svg"
   id="svg2093"
   style="clip-rule:evenodd;fill-rule:evenodd;stroke-linejoin:round;stroke-miterlimit:1.41420996"
   xml:space="preserve"
   version="1.1"
   viewBox="0 0 60 60"
   height="60"
   width="60"><metadata
     id="metadata2099"><rdf:RDF><cc:Work
         rdf:about=""><dc:format>image/svg+xml</dc:format><dc:type
           rdf:resource="http://purl.org/dc/dcmitype/StillImage" /><dc:title></dc:title></cc:Work></rdf:RDF></metadata><defs
     id="defs2097" /><g
     transform="matrix(0.19993327,0,0,0.19990235,0.01465042,0.01464815)"
     id="g2091"><g
       id="Background"><g
         id="g2086"><path
           id="path2082"
           style="fill:#ffffff"
           d="M 300,30.271 C 300,13.564 286.436,0 269.729,0 H 30.271 C 13.564,0 0,13.564 0,30.271 V 269.729 C 0,286.436 13.564,300 30.271,300 H 269.729 C 286.436,300 300,286.436 300,269.729 Z" /><path
           id="path2084"
           d="m 269.925,0.001 c 16.09972,-0.31510169 30.49384,14.17259 30.075,30.27 -0.1061,80.84884 0.21081,161.71193 -0.156,242.552 C 298.61375,288.46369 283.6522,301.15677 268.03194,300 187.74879,299.89388 107.45138,300.21085 27.177,299.844 11.536306,298.61375 -1.1567723,283.6522 0,268.03194 0.10612413,187.74879 -0.21084904,107.45138 0.156,27.177 1.3862455,11.536306 16.347799,-1.1567723 31.968056,0 111.28704,6.6687171e-4 190.60602,-0.00133361 269.925,0.001 Z M 30.296,16 C 21.973925,15.732721 14.968163,23.80142 16,31.993056 16.103721,111.93578 15.794138,191.89863 16.152,271.829 17.110107,279.66576 25.171747,285.14519 32.841585,284 112.50147,283.89626 192.18147,284.20589 271.829,283.848 279.6657,282.88989 285.14515,274.82817 284,267.15842 283.89626,187.49853 284.20589,107.81853 283.848,28.171 282.89006,20.334162 274.82812,14.854983 267.15842,16 188.20428,16 109.25014,16 30.296,16 Z"
           style="fill:#e3292e" /></g></g><path
       id="path2089"
       style="fill:#e3292e"
       d="m 140.78,150.964 9.808,-9.809 -5.767,-5.768 c -5.566,-5.565 -5.566,-14.602 0,-20.167 l 51.842,-51.842 c 5.565,-5.565 14.602,-5.565 20.167,0 l 20.167,20.167 c 5.566,5.566 5.566,14.602 0,20.167 l -51.842,51.843 c -5.565,5.565 -14.602,5.565 -20.167,0 l -5.768,-5.768 -9.808,9.808 5.767,5.768 c 5.566,5.566 5.566,14.602 0,20.167 l -51.842,51.843 c -5.565,5.565 -14.602,5.565 -20.167,0 L 63.003,217.205 c -5.566,-5.565 -5.566,-14.602 0,-20.167 l 51.842,-51.842 c 5.565,-5.565 14.602,-5.565 20.167,0 z m -12.16,12.16 c -2.043,-1.456 -4.901,-1.268 -6.733,0.564 l -40.311,40.311 c -2.042,2.042 -2.042,5.358 0,7.4 l 7.4,7.4 c 2.042,2.042 5.358,2.042 7.4,0 l 40.311,-40.311 c 1.832,-1.832 2.021,-4.69 0.565,-6.733 l -3.44,3.44 c -1.664,1.664 -4.366,1.664 -6.031,0 l -2.601,-2.601 c -1.664,-1.664 -1.664,-4.366 0,-6.031 z m 42.841,-25.578 c 2.043,1.456 4.901,1.268 6.733,-0.565 L 218.505,96.67 c 2.042,-2.042 2.042,-5.358 0,-7.4 l -7.4,-7.4 c -2.042,-2.042 -5.358,-2.042 -7.4,0 l -40.311,40.311 c -1.832,1.833 -2.02,4.69 -0.565,6.733 l 3.424,-3.424 c 1.665,-1.664 4.367,-1.664 6.031,0 l 2.601,2.601 c 1.664,1.665 1.664,4.367 0,6.031 z" /></g></svg>
