<svg width="60" height="60" viewBox="0 0 300 300" xmlns="http://www.w3.org/2000/svg" xml:space="preserve" style="fill-rule:evenodd;clip-rule:evenodd;stroke-linejoin:round;stroke-miterlimit:2">
    <path d="M300 30.271C300 13.564 286.436 0 269.729 0H30.271C13.564 0 0 13.564 0 30.271v239.458C0 286.436 13.564 300 30.271 300h239.458C286.436 300 300 286.436 300 269.729V30.271Z" style="fill:#fffefe"/>
    <path d="M300 30.271C300 13.564 286.436 0 269.729 0H30.271C13.564 0 0 13.564 0 30.271v239.458C0 286.436 13.564 300 30.271 300h239.458C286.436 300 300 286.436 300 269.729V30.271Zm-16 0v239.458c0 7.877-6.394 14.271-14.271 14.271H30.271C22.394 284 16 277.606 16 269.729V30.271C16 22.394 22.394 16 30.271 16h239.458C277.606 16 284 22.394 284 30.271Z" style="fill:#e31c00"/>
    <path d="M198.976 160.166a49.81 49.81 0 0 1-9.688 20.768l23.688 28.207 2.319-26.632 18.984 22.607-3.523 40.455-41.53-3.617-18.352-21.854 26.67 2.323-23.837-28.384A49.75 49.75 0 0 1 150 200.012c-24.163 0-44.346-17.172-49.001-39.967H80.128c-3.363 5.4-9.353 8.997-16.176 8.997-10.51 0-19.042-8.533-19.042-19.042 0-10.509 8.532-19.042 19.042-19.042 6.823 0 12.813 3.597 16.176 8.997h20.871c4.655-22.795 24.838-39.967 49.001-39.967 8.571 0 16.641 2.16 23.695 5.966l23.689-28.192-26.632 2.312 18.99-22.601 40.456-3.513 3.606 41.531-18.358 21.849-2.316-26.67-23.85 28.385a49.807 49.807 0 0 1 9.691 20.752h36.818l-18.903-18.903h29.52l28.715 28.715-29.477 29.477h-28.538l18.93-18.93h-37.06ZM150 115.467c19.059 0 34.533 15.474 34.533 34.533S169.059 184.533 150 184.533 115.467 169.059 115.467 150s15.474-34.533 34.533-34.533Z" style="fill:#e31c00" transform="matrix(.8689 0 0 .8689 10.963 19.87)"/>
</svg>
