<?xml version="1.0" encoding="UTF-8" standalone="no"?>
<svg
   xmlns:dc="http://purl.org/dc/elements/1.1/"
   xmlns:cc="http://creativecommons.org/ns#"
   xmlns:rdf="http://www.w3.org/1999/02/22-rdf-syntax-ns#"
   xmlns:svg="http://www.w3.org/2000/svg"
   xmlns="http://www.w3.org/2000/svg"
   id="svg2209"
   style="clip-rule:evenodd;fill-rule:evenodd;stroke-linejoin:round;stroke-miterlimit:1.41420996"
   xml:space="preserve"
   version="1.1"
   viewBox="0 0 60 60"
   height="60"
   width="60"><metadata
     id="metadata2215"><rdf:RDF><cc:Work
         rdf:about=""><dc:format>image/svg+xml</dc:format><dc:type
           rdf:resource="http://purl.org/dc/dcmitype/StillImage" /><dc:title></dc:title></cc:Work></rdf:RDF></metadata><defs
     id="defs2213" /><g
     transform="matrix(0.19993327,0,0,0.19990235,0.01465042,0.01464815)"
     id="g2207"><g
       id="Background"><g
         id="g2200"><path
           id="path2196"
           style="fill:#ffffff"
           d="M 300,30.271 C 300,13.564 286.436,0 269.729,0 H 30.271 C 13.564,0 0,13.564 0,30.271 V 269.729 C 0,286.436 13.564,300 30.271,300 H 269.729 C 286.436,300 300,286.436 300,269.729 Z" /><path
           id="path2198"
           d="m 269.925,0.001 c 16.09972,-0.31510169 30.49384,14.17259 30.075,30.27 -0.1061,80.84884 0.21081,161.71193 -0.156,242.552 C 298.61375,288.46369 283.6522,301.15677 268.03194,300 187.74879,299.89388 107.45138,300.21085 27.177,299.844 11.536306,298.61375 -1.1567723,283.6522 0,268.03194 0.10612413,187.74879 -0.21084904,107.45138 0.156,27.177 1.3862455,11.536306 16.347799,-1.1567723 31.968056,0 111.28704,6.6687171e-4 190.60602,-0.00133361 269.925,0.001 Z M 30.296,16 C 21.973925,15.732721 14.968163,23.80142 16,31.993056 16.103721,111.93578 15.794138,191.89863 16.152,271.829 17.110107,279.66576 25.171747,285.14519 32.841585,284 112.50147,283.89626 192.18147,284.20589 271.829,283.848 279.6657,282.88989 285.14515,274.82817 284,267.15842 283.89626,187.49853 284.20589,107.81853 283.848,28.171 282.89006,20.334162 274.82812,14.854983 267.15842,16 188.20428,16 109.25014,16 30.296,16 Z"
           style="fill:#e3292e" /></g></g><g
       id="g2205"
       transform="matrix(0.905405,0,0,0.905405,34.6391,34.9388)"><path
         id="path2203"
         style="fill:#e3292e"
         d="M 187.606,237.115 H 67.221 c -6.834,0 -12.382,-5.548 -12.382,-12.381 V 29.431 c 0,-6.833 5.548,-12.381 12.382,-12.381 h 120.385 c 6.834,0 12.382,5.548 12.382,12.381 v 195.303 c 0,6.833 -5.547,12.381 -12.382,12.381 z M 171.533,192.226 H 83.294 c -7.024,0 -12.727,5.703 -12.727,12.727 0,7.025 5.703,12.728 12.727,12.728 h 88.239 c 7.024,0 12.727,-5.703 12.727,-12.728 0,-7.024 -5.702,-12.727 -12.727,-12.727 z M 84.24,198.95 c 3.313,0 6.003,2.69 6.003,6.003 0,3.314 -2.69,6.004 -6.003,6.004 -3.313,0 -6.003,-2.69 -6.003,-6.004 0,-3.313 2.69,-6.003 6.003,-6.003 z m 87.293,-45.544 H 83.294 c -7.025,0 -12.727,5.703 -12.727,12.727 0,7.025 5.703,12.728 12.727,12.728 h 88.239 c 7.024,0 12.727,-5.703 12.727,-12.728 0,-7.024 -5.702,-12.727 -12.727,-12.727 z M 84.24,160.13 c 3.313,0 6.003,2.69 6.003,6.003 0,3.314 -2.69,6.004 -6.003,6.004 -3.313,0 -6.003,-2.69 -6.003,-6.004 0,-3.313 2.69,-6.003 6.003,-6.003 z m 87.293,-45.444 H 83.294 c -7.025,0 -12.727,5.703 -12.727,12.728 0,7.024 5.703,12.727 12.727,12.727 h 88.239 c 7.024,0 12.727,-5.703 12.727,-12.727 0,-7.025 -5.702,-12.728 -12.727,-12.728 z M 84.24,121.41 c 3.313,0 6.003,2.69 6.003,6.004 0,3.313 -2.69,6.003 -6.003,6.003 -3.313,0 -6.003,-2.69 -6.003,-6.003 0,-3.314 2.69,-6.004 6.003,-6.004 z M 171.533,75.85 H 83.294 c -7.025,0.001 -12.727,5.703 -12.727,12.728 0,7.024 5.703,12.727 12.727,12.727 h 88.239 c 7.024,0 12.727,-5.703 12.727,-12.727 0,-7.025 -5.702,-12.727 -12.727,-12.728 z M 84.24,82.574 c 3.313,0 6.003,2.69 6.003,6.004 0,3.313 -2.69,6.003 -6.003,6.003 -3.313,0 -6.003,-2.69 -6.003,-6.003 0,-3.314 2.69,-6.004 6.003,-6.004 z M 171.533,37.365 H 83.294 c -7.025,0 -12.727,5.703 -12.727,12.727 0,7.025 5.703,12.728 12.727,12.728 h 88.239 c 7.024,0 12.727,-5.703 12.727,-12.728 0,-7.024 -5.702,-12.727 -12.727,-12.727 z M 84.24,44.089 c 3.313,0 6.003,2.69 6.003,6.003 0,3.313 -2.69,6.003 -6.003,6.003 -3.313,0 -6.003,-2.69 -6.003,-6.003 0,-3.313 2.69,-6.003 6.003,-6.003 z" /></g></g></svg>
