<svg width="60" height="60" viewBox="0 0 300 300" xmlns="http://www.w3.org/2000/svg" xml:space="preserve" style="fill-rule:evenodd;clip-rule:evenodd;stroke-linejoin:round;stroke-miterlimit:2">
    <path d="M300 30.271C300 13.564 286.436 0 269.729 0H30.271C13.564 0 0 13.564 0 30.271v239.458C0 286.436 13.564 300 30.271 300h239.458C286.436 300 300 286.436 300 269.729V30.271Z" style="fill:#fffefe"/>
    <path d="M300 30.271C300 13.564 286.436 0 269.729 0H30.271C13.564 0 0 13.564 0 30.271v239.458C0 286.436 13.564 300 30.271 300h239.458C286.436 300 300 286.436 300 269.729V30.271Zm-16 0v239.458c0 7.877-6.394 14.271-14.271 14.271H30.271C22.394 284 16 277.606 16 269.729V30.271C16 22.394 22.394 16 30.271 16h239.458C277.606 16 284 22.394 284 30.271Z" style="fill:#e31c00"/>
    <path d="M81 109c1.238-10.255 15.5-24.833 23-24 7.5.833 22.614 23.435 22 31-.759 9.347-8.346 10.813-14 13-1.847.715-5.008 2.721-1 13 5.466 14.021 23.239 33.9 31 36 11.696 3.165 7.77-.436 13-6 4.526-4.816 8.054-6.503 12-5 7 2.667 25.667 21.5 25 29-.667 7.5-18.443 19.229-29 16-14.167-4.333-42.333-24.833-56-42-13.667-17.167-27.721-46.746-26-61Z" style="fill:#e31c00" transform="translate(-63.8 -83.107) scale(1.56702)"/>
</svg>
