<svg width="60" height="60" viewBox="0 0 300 300" xmlns="http://www.w3.org/2000/svg" xml:space="preserve" style="fill-rule:evenodd;clip-rule:evenodd;stroke-linejoin:round;stroke-miterlimit:1.41421">
    <path d="M300 30.271C300 13.564 286.436 0 269.729 0H30.271C13.564 0 0 13.564 0 30.271v239.458C0 286.436 13.564 300 30.271 300h239.458C286.436 300 300 286.436 300 269.729V30.271Z" style="fill:#fffefe"/>
    <path d="m269.925.001.195.001.39.008.195.005.194.007.194.008.193.009.386.022.193.013.192.014.192.016.191.016.192.018.191.018.19.02.38.044.19.023.189.025.188.026.189.027.188.028.187.029.188.031.186.031.187.033.186.034.186.035.185.036.185.037.368.078.184.041.183.042.183.043.182.043.364.092.181.047.18.048.181.05.179.05.18.052.179.052.178.054.178.055.177.056.177.057.177.058.176.059.175.06.175.061.175.062.174.063.174.064.173.066.172.066.172.067.172.068.171.07.17.07.17.071.17.073.169.073.168.074.168.076.167.076.167.077.332.158.165.08.165.081.164.083.163.083.163.084.162.085.162.086.161.087.161.088.16.088.159.09.159.091.316.184.157.094.156.094.156.095.155.096.308.196.306.198.152.101.302.204.15.104.149.104.149.105.148.106.294.214.146.109.145.109.145.111.144.111.143.112.143.113.142.113.282.23.139.116.14.117.276.236.137.12.136.12.135.121.135.122.134.122.134.124.132.124.132.125.131.125.26.254.129.128.128.129.254.26.125.131.125.132.124.132.124.134.122.134.122.135.121.135.12.136.12.137.236.276.117.14.116.139.23.282.113.142.113.143.112.143.111.144.111.145.109.145.109.146.214.294.106.148.105.149.104.149.104.15.204.302.101.152.198.306.196.308.096.155.095.156.094.156.094.157.184.316.091.159.09.159.088.16.088.161.087.161.086.162.085.162.084.163.083.163.083.164.081.165.08.165.158.332.077.167.076.167.076.168.074.168.073.169.073.17.071.17.07.17.07.171.068.172.067.172.066.172.066.173.064.174.063.174.062.175.061.175.06.175.059.176.058.177.057.177.056.177.055.178.054.178.052.179.052.18.05.179.05.181.048.18.047.181.092.364.043.182.043.183.042.183.041.184.078.368.037.185.036.185.035.186.034.186.033.187.031.186.031.188.029.187.028.188.027.189.026.188.025.189.023.19.044.38.02.19.018.191.018.192.016.191.016.192.014.192.013.193.022.386.009.193.008.194.007.194.005.195.008.39.002.391v239.458l-.001.196-.001.195-.004.195-.004.195-.005.195-.007.194-.008.194-.009.193-.011.193-.011.193-.013.193-.014.192-.016.192-.016.191-.018.192-.018.191-.02.19-.022.19-.022.19-.023.19-.025.189-.026.188-.027.189-.028.188-.029.187-.031.188-.031.186-.033.187-.034.186-.035.186-.036.185-.037.185-.039.184-.039.184-.041.184-.042.183-.043.183-.043.182-.046.182-.046.182-.047.181-.048.18-.05.181-.05.179-.052.18-.052.179-.054.178-.055.178-.056.177-.057.177-.058.177-.059.176-.06.175-.061.175-.062.175-.063.174-.064.174-.066.173-.066.172-.067.172-.068.172-.07.171-.07.17-.071.17-.073.17-.073.169-.074.168-.076.168-.076.167-.077.167-.079.166-.079.166-.08.165-.081.165-.083.164-.083.163-.084.163-.085.162-.086.162-.087.161-.088.161-.088.16-.09.159-.091.159-.092.158-.092.158-.094.157-.094.156-.095.156-.096.155-.098.154-.098.154-.099.153-.099.153-.101.152-.102.151-.102.151-.104.15-.104.149-.105.149-.106.148-.107.147-.107.147-.109.146-.109.145-.111.145-.111.144-.112.143-.113.143-.113.142-.115.141-.115.141-.116.139-.117.14-.118.138-.118.138-.12.137-.12.136-.121.135-.122.135-.122.134-.124.134-.124.132-.125.132-.125.131-.127.13-.127.13-.128.129-.129.128-.13.127-.13.127-.131.125-.132.125-.132.124-.134.124-.134.122-.135.122-.135.121-.136.12-.137.12-.138.118-.138.118-.14.117-.139.116-.141.115-.141.115-.142.113-.143.113-.143.112-.144.111-.145.111-.145.109-.146.109-.147.107-.147.107-.148.106-.149.105-.149.104-.15.104-.151.102-.151.102-.152.101-.153.099-.153.099-.154.098-.154.098-.155.096-.156.095-.156.094-.157.094-.158.092-.158.092-.159.091-.159.09-.16.088-.161.088-.161.087-.162.086-.162.085-.163.084-.163.083-.164.083-.165.081-.165.08-.166.079-.166.079-.167.077-.167.076-.168.076-.168.074-.169.073-.17.073-.17.071-.17.07-.171.07-.172.068-.172.067-.172.066-.173.066-.174.064-.174.063-.175.062-.175.061-.175.06-.176.059-.177.058-.177.057-.177.056-.178.055-.178.054-.179.052-.18.052-.179.05-.181.05-.18.048-.181.047-.182.046-.182.046-.182.043-.183.043-.183.042-.184.041-.184.039-.184.039-.185.037-.185.036-.186.035-.186.034-.187.033-.186.031-.188.031-.187.029-.188.028-.189.027-.188.026-.189.025-.19.023-.19.022-.19.022-.19.02-.191.018-.192.018-.191.016-.192.016-.192.014-.193.013-.193.011-.193.011-.193.009-.194.008-.194.007-.195.005-.195.004-.195.004-.195.001-.196.001H30.271l-.196-.001-.195-.001-.195-.004-.195-.004-.195-.005-.194-.007-.194-.008-.193-.009-.193-.011-.193-.011-.193-.013-.192-.014-.192-.016-.191-.016-.192-.018-.191-.018-.19-.02-.19-.022-.19-.022-.19-.023-.189-.025-.188-.026-.189-.027-.188-.028-.187-.029-.188-.031-.186-.031-.187-.033-.186-.034-.186-.035-.185-.036-.185-.037-.184-.039-.184-.039-.184-.041-.183-.042-.183-.043-.182-.043-.182-.046-.182-.046-.181-.047-.18-.048-.181-.05-.179-.05-.18-.052-.179-.052-.178-.054-.178-.055-.177-.056-.177-.057-.177-.058-.176-.059-.175-.06-.175-.061-.175-.062-.174-.063-.174-.064-.173-.066-.172-.066-.172-.067-.172-.068-.171-.07-.17-.07-.17-.071-.17-.073-.169-.073-.168-.074-.168-.076-.167-.076-.167-.077-.166-.079-.166-.079-.165-.08-.165-.081-.164-.083-.163-.083-.163-.084-.162-.085-.162-.086-.161-.087-.161-.088-.16-.088-.159-.09-.159-.091-.158-.092-.158-.092-.157-.094-.156-.094-.156-.095-.155-.096-.154-.098-.154-.098-.153-.099-.153-.099-.152-.101-.151-.102-.151-.102-.15-.104-.149-.104-.149-.105-.148-.106-.147-.107-.147-.107-.146-.109-.145-.109-.145-.111-.144-.111-.143-.112-.143-.113-.142-.113-.141-.115-.141-.115-.139-.116-.14-.117-.138-.118-.138-.118-.137-.12-.136-.12-.135-.121-.135-.122-.134-.122-.134-.124-.132-.124-.132-.125-.131-.125-.13-.127-.13-.127-.129-.128-.128-.129-.127-.13-.127-.13-.125-.131-.125-.132-.124-.132-.124-.134-.122-.134-.122-.135-.121-.135-.12-.136-.12-.137-.118-.138-.118-.138-.117-.14-.116-.139-.115-.141-.115-.141-.113-.142-.113-.143-.112-.143-.111-.144-.111-.145-.109-.145-.109-.146-.107-.147-.107-.147-.106-.148-.105-.149-.104-.149-.104-.15-.102-.151-.102-.151-.101-.152-.099-.153-.099-.153-.098-.154-.098-.154-.096-.155-.095-.156-.094-.156-.094-.157-.092-.158-.092-.158-.091-.159-.09-.159-.088-.16-.088-.161-.087-.161-.086-.162-.085-.162-.084-.163-.083-.163-.083-.164-.081-.165-.08-.165-.079-.166-.079-.166-.077-.167-.076-.167-.076-.168-.074-.168-.073-.169-.073-.17-.071-.17-.07-.17-.07-.171-.068-.172-.067-.172-.066-.172-.066-.173-.064-.174-.063-.174-.062-.175-.061-.175-.06-.175-.059-.176-.058-.177-.057-.177-.056-.177-.055-.178-.054-.178-.052-.179-.052-.18-.05-.179-.05-.181-.048-.18-.047-.181-.046-.182-.046-.182-.043-.182-.043-.183-.042-.183-.041-.184-.039-.184-.039-.184-.037-.185-.036-.185-.035-.186-.034-.186-.033-.187-.031-.186-.031-.188-.029-.187-.028-.188-.027-.189-.026-.188-.025-.189-.023-.19-.022-.19-.022-.19-.02-.19-.018-.191-.018-.192-.016-.191-.016-.192-.014-.192-.013-.193-.011-.193-.011-.193-.009-.193-.008-.194-.007-.194-.005-.195-.004-.195-.004-.195-.001-.195-.001-.196V30.271l.001-.196.001-.195.004-.195.004-.195.005-.195.007-.194.008-.194.009-.193.011-.193.011-.193.013-.193.014-.192.016-.192.016-.191.018-.192.018-.191.02-.19.022-.19.022-.19.023-.19.025-.189.026-.188.027-.189.028-.188.029-.187.031-.188.031-.186.033-.187.034-.186.035-.186.036-.185.037-.185.039-.184.039-.184.041-.184.042-.183.043-.183.043-.182.046-.182.046-.182.047-.181.048-.18.05-.181.05-.179.052-.18.052-.179.054-.178.055-.178.056-.177.057-.177.058-.177.059-.176.06-.175.061-.175.062-.175.063-.174.064-.174.066-.173.066-.172.067-.172.068-.172.07-.171.07-.17.071-.17.073-.17.073-.169.074-.168.076-.168.076-.167.077-.167.079-.166.079-.166.08-.165.081-.165.083-.164.083-.163.084-.163.085-.162.086-.162.087-.161.088-.161.088-.16.09-.159.091-.159.092-.158.092-.158.094-.157.094-.156.095-.156.096-.155.098-.154.098-.154.099-.153.099-.153.101-.152.102-.151.102-.151.104-.15.104-.149.105-.149.106-.148.107-.147.107-.147.109-.146.109-.145.111-.145.111-.144.112-.143.113-.143.113-.142.115-.141.115-.141.116-.139.117-.14.118-.138.118-.138.12-.137.12-.136.121-.135.122-.135.122-.134.124-.134.124-.132.125-.132.125-.131.127-.13.127-.13.128-.129.129-.128.13-.127.13-.127.131-.125.132-.125.132-.124.134-.124.134-.122.135-.122.135-.121.136-.12.137-.12.138-.118.138-.118.14-.117.139-.116.141-.115.141-.115.142-.113.143-.113.143-.112.144-.111.145-.111.145-.109.146-.109.147-.107.147-.107.148-.106.149-.105.149-.104.15-.104.151-.102.151-.102.152-.101.153-.099.153-.099.154-.098.154-.098.155-.096.156-.095.156-.094.157-.094.158-.092.158-.092.159-.091.159-.09.16-.088.161-.088.161-.087.162-.086.162-.085.163-.084.163-.083.164-.083.165-.081.165-.08.166-.079.166-.079.167-.077.167-.076.168-.076.168-.074.169-.073.17-.073.17-.071.17-.07.171-.07.172-.068.172-.067.172-.066.173-.066.174-.064.174-.063.175-.062.175-.061.175-.06.176-.059.177-.058.177-.057.177-.056.178-.055.178-.054.179-.052.18-.052.179-.05.181-.05.18-.048.181-.047.182-.046.182-.046.182-.043.183-.043.183-.042.184-.041.184-.039.184-.039.185-.037.185-.036.186-.035.186-.034.187-.033.186-.031.188-.031.187-.029.188-.028.189-.027.188-.026.189-.025.19-.023.19-.022.19-.022.19-.02.191-.018.192-.018.191-.016.192-.016.192-.014.193-.013.193-.011.193-.011.193-.009.194-.008.194-.007.195-.005.195-.004.195-.004.195-.001.196-.001h239.458l.196.001ZM30.296 16h-.12l-.093.001-.094.002-.093.002-.093.002-.093.004-.093.004-.092.004-.092.005-.092.005-.091.007-.091.006-.091.007-.091.008-.091.009-.09.008-.09.01-.09.01-.089.01-.089.011-.09.012-.088.012-.089.013-.088.013-.088.014-.088.014-.088.015-.087.015-.088.016-.087.017-.086.017-.087.017-.086.018-.086.018-.086.019-.086.02-.085.02-.085.021-.085.021-.085.021-.085.022-.084.023-.084.023-.084.023-.084.025-.084.024-.083.025-.083.026-.083.026-.082.026-.083.028-.082.027-.082.028-.082.029-.081.029-.082.029-.081.03-.081.031-.081.031-.08.031-.08.032-.08.033-.08.033-.08.033-.079.034-.079.034-.079.035-.079.035-.078.036-.078.036-.078.037-.078.037-.078.038-.077.038-.077.039-.077.039-.076.039-.077.04-.076.041-.076.041-.075.041-.075.042-.075.042-.075.043-.075.043-.074.044-.074.044-.074.044-.073.045-.073.046-.073.045-.073.047-.072.046-.073.048-.071.047-.072.048-.071.049-.071.049-.071.049-.07.05-.07.05-.07.051-.07.051-.069.051-.069.052-.068.052-.069.053-.068.053-.067.053-.068.054-.067.055-.066.054-.067.056-.066.055-.066.056-.065.056-.065.057-.065.057-.064.058-.064.057-.064.059-.063.058-.063.059-.063.06-.062.06-.062.06-.062.06-.061.061-.061.061-.06.062-.06.062-.06.062-.06.063-.059.063-.058.063-.059.064-.057.064-.058.064-.057.065-.057.065-.056.065-.056.066-.055.066-.056.067-.054.066-.055.067-.054.068-.053.067-.053.068-.053.069-.052.068-.052.069-.051.069-.051.07-.051.07-.05.07-.05.07-.049.071-.049.071-.049.071-.048.072-.047.071-.048.073-.046.072-.047.073-.045.073-.046.073-.045.073-.044.074-.044.074-.044.074-.043.075-.043.075-.042.075-.042.075-.041.075-.041.076-.041.076-.04.077-.039.076-.039.077-.039.077-.038.077-.038.078-.037.078-.037.078-.036.078-.036.078-.035.079-.035.079-.034.079-.034.079-.033.08-.033.08-.033.08-.032.08-.031.08-.031.081-.031.081-.03.081-.029.082-.029.081-.029.082-.028.082-.027.082-.028.083-.026.082-.026.083-.026.083-.025.083-.024.084-.025.084-.023.084-.023.084-.023.084-.022.085-.021.085-.021.085-.021.085-.02.085-.02.086-.019.086-.018.086-.018.086-.017.087-.017.086-.017.087-.016.088-.015.087-.015.088-.014.088-.014.088-.013.088-.013.089-.012.088-.012.09-.011.089-.01.089-.01.09-.01.09-.008.09-.009.091-.008.091-.007.091-.006.091-.007.091-.005.092-.005.092-.004.092-.004.093-.004.093-.002.093-.002.093-.002.094-.001.093v239.648l.001.093.004.187.002.093.008.186.004.092.01.184.007.091.006.091.007.091.008.091.009.091.008.09.02.18.01.089.011.089.012.09.012.088.013.089.013.088.028.176.015.088.015.087.016.087.051.261.018.086.019.086.018.086.02.086.02.085.021.085.021.086.021.084.022.085.069.252.025.084.024.084.025.083.078.249.028.082.027.082.028.082.029.082.029.081.029.082.03.081.062.162.031.08.032.08.099.24.034.08.034.078.07.158.072.156.074.156.038.078.038.077.117.231.04.076.04.075.041.076.042.077.042.074.042.075.043.075.043.074.044.075.088.148.09.146.047.074.092.144.048.073.048.072.047.071.049.071.048.071.05.071.05.07.05.071.051.069.05.069.052.07.052.069.052.068.053.069.053.068.053.067.055.068.054.067.055.067.054.065.056.067.056.066.056.065.114.13.057.064.058.064.118.128.059.062.058.062.061.064.06.061.06.062.122.122.062.061.061.059.126.12.063.059.063.058.064.059.064.057.064.058.13.114.065.056.066.056.066.055.067.056.066.054.068.055.067.054.067.053.136.106.068.052.07.052.069.052.069.05.071.051.14.1.071.05.071.048.071.049.071.048.073.047.072.048.072.047.072.045.073.046.074.046.073.045.074.044.074.045.148.086.076.043.074.042.075.042.152.082.077.041.076.04.077.039.076.04.231.114.078.037.078.036.079.037.079.036.156.07.079.034.08.034.081.034.078.032.081.033.081.032.079.031.162.062.082.03.081.029.08.029.083.029.164.056.083.027.164.052.085.026.083.025.082.024.084.024.085.024.168.046.085.022.086.022.083.02.086.021.085.02.085.019.087.02.172.036.086.017.088.017.087.017.087.016.174.03.088.014.089.014.176.026.091.012.088.012.089.011.089.01.18.02.09.008.09.009.091.008.184.014.091.006.09.005.093.005.093.004.092.004.093.004.092.002.188.004.093.001h239.648l.093-.001.094-.002.094-.002.092-.002.093-.004.092-.004.093-.004.093-.005.09-.005.091-.006.092-.007.092-.007.091-.008.09-.009.09-.008.09-.01.09-.01.089-.01.089-.011.088-.012.091-.012.088-.013.088-.013.089-.014.088-.014.087-.015.087-.015.087-.016.087-.017.088-.017.086-.017.086-.018.086-.018.087-.02.085-.019.085-.02.086-.021.084-.02.085-.022.085-.022.084-.023.084-.023.085-.024.084-.024.082-.024.083-.025.085-.026.082-.026.082-.026.083-.028.082-.027.082-.028.082-.029.081-.029.081-.029.082-.03.081-.031.081-.031.079-.031.081-.032.081-.033.078-.032.081-.034.081-.034.077-.034.078-.035.079-.035.079-.036.079-.036.078-.037.078-.037.077-.038.076-.038.078-.039.077-.039.076-.039.077-.04.075-.04.076-.041.077-.043.074-.041.075-.042.076-.043.074-.043.074-.043.074-.045.074-.044.073-.045.073-.046.074-.046.072-.045.071-.047.074-.048.072-.048.071-.047.071-.049.07-.048.072-.05.07-.05.071-.05.07-.051.068-.05.07-.052.07-.053.067-.051.069-.053.068-.053.067-.053.067-.054.068-.055.067-.055.065-.054.067-.057.066-.055.065-.056.065-.057.064-.057.065-.058.064-.057.064-.059.064-.059.062-.058.063-.06.063-.06.061-.059.062-.061.061-.061.061-.061.061-.062.059-.061.06-.063.06-.063.058-.062.059-.064.059-.064.057-.064.058-.065.057-.064.057-.065.056-.065.055-.066.057-.067.054-.065.055-.067.055-.068.054-.067.053-.067.053-.068.053-.069.051-.067.053-.07.052-.07.05-.068.051-.07.05-.071.05-.07.05-.072.048-.07.049-.071.047-.071.048-.072.048-.074.047-.071.045-.072.046-.074.046-.073.045-.073.044-.074.045-.074.043-.074.043-.074.043-.076.042-.075.041-.074.043-.077.041-.076.04-.075.04-.077.039-.076.039-.077.039-.078.038-.076.038-.077.037-.078.037-.078.036-.079.036-.079.035-.079.035-.078.034-.077.034-.081.034-.081.032-.078.033-.081.032-.081.031-.079.031-.081.031-.081.03-.082.029-.081.029-.081.029-.082.028-.082.027-.082.028-.083.026-.082.026-.082.026-.085.025-.083.024-.082.024-.084.024-.085.023-.084.023-.084.022-.085.022-.085.02-.084.021-.086.02-.085.019-.085.02-.087.018-.086.018-.086.017-.086.017-.088.017-.087.016-.087.015-.087.015-.087.014-.088.014-.089.013-.088.013-.088.012-.091.012-.088.011-.089.01-.089.01-.09.01-.09.008-.09.009-.09.008-.091.007-.092.007-.092.006-.091.005-.09.005-.093.004-.093.004-.092.004-.093.002-.092.002-.094.002-.094.001-.093V30.176l-.001-.093-.002-.094-.002-.094-.002-.092-.004-.093-.004-.092-.004-.093-.005-.093-.005-.09-.006-.091-.007-.092-.007-.092-.008-.091-.009-.09-.008-.09-.01-.09-.01-.09-.01-.089-.011-.089-.012-.088-.012-.091-.013-.088-.013-.088-.014-.089-.014-.088-.015-.087-.015-.087-.016-.087-.017-.087-.017-.088-.017-.086-.018-.086-.018-.086-.02-.087-.019-.085-.02-.085-.021-.086-.02-.083-.022-.086-.022-.085-.023-.084-.023-.084-.024-.085-.024-.084-.024-.082-.025-.083-.026-.085-.026-.082-.026-.082-.027-.083-.028-.082-.028-.082-.029-.083-.029-.08-.029-.081-.03-.082-.031-.081-.031-.081-.031-.079-.032-.081-.033-.081-.032-.078-.034-.081-.034-.08-.034-.079-.035-.078-.035-.078-.036-.079-.037-.079-.036-.078-.037-.078-.038-.077-.038-.077-.038-.077-.04-.076-.039-.077-.04-.076-.041-.077-.041-.076-.041-.076-.042-.075-.042-.074-.043-.076-.043-.074-.043-.074-.045-.074-.044-.074-.045-.073-.046-.074-.046-.073-.045-.072-.047-.072-.048-.072-.047-.073-.048-.071-.049-.071-.048-.071-.05-.071-.05-.07-.05-.07-.051-.071-.05-.069-.052-.069-.052-.07-.052-.068-.053-.068-.053-.068-.053-.067-.054-.067-.055-.068-.054-.066-.056-.067-.055-.066-.056-.066-.056-.065-.057-.065-.057-.065-.058-.064-.057-.064-.059-.064-.058-.063-.059-.063-.06-.063-.06-.063-.059-.061-.061-.062-.061-.061-.061-.061-.062-.06-.061-.06-.064-.061-.062-.058-.062-.059-.064-.059-.064-.059-.064-.058-.064-.057-.065-.057-.065-.057-.065-.056-.066-.056-.067-.056-.065-.054-.067-.055-.067-.054-.068-.055-.067-.053-.068-.053-.069-.053-.068-.052-.069-.052-.07-.052-.069-.05-.069-.051-.071-.05-.07-.05-.071-.05-.071-.048-.071-.049-.071-.047-.072-.048-.073-.048-.072-.046-.072-.046-.074-.047-.073-.045-.073-.045-.074-.044-.074-.044-.075-.044-.074-.043-.075-.043-.075-.042-.074-.042-.077-.042-.076-.041-.075-.04-.076-.04-.077-.039-.077-.039-.077-.039-.077-.038-.078-.038-.078-.037-.078-.037-.078-.036-.078-.036-.079-.035-.079-.035-.078-.034-.08-.034-.08-.033-.08-.033-.08-.033-.08-.032-.08-.031-.081-.031-.081-.031-.081-.03-.082-.029-.081-.029-.082-.029-.082-.028-.082-.027-.082-.028-.083-.026-.083-.026-.083-.026-.083-.025-.084-.024-.084-.025-.084-.023-.084-.023-.084-.023-.085-.022-.084-.021-.086-.021-.085-.021-.085-.02-.086-.02-.086-.018-.086-.019-.086-.018-.087-.017-.087-.017-.087-.017-.087-.016-.087-.015-.088-.015-.088-.014-.088-.014-.088-.013-.089-.013-.088-.012-.09-.012-.089-.011-.089-.01-.09-.01-.09-.01-.09-.008-.091-.009-.091-.008-.091-.007-.091-.006-.091-.007-.092-.005-.092-.005-.092-.004-.093-.004-.093-.004-.093-.002-.093-.002-.094-.002-.093-.001H30.296Z" style="fill:#e3292e"/>
    <g>
        <path d="M222.869 110.307c0-5.707-4.512-10.339-10.069-10.339H87.793c-5.558 0-10.069 4.632-10.069 10.339v96.049c0 5.706 4.511 10.339 10.069 10.339H212.8c5.557 0 10.069-4.633 10.069-10.339v-96.049Z" style="fill:#fffefe" transform="matrix(1.24916 0 0 1.21656 -37.745 -42.62)"/>
        <path d="m212.93 99.969.13.002.129.004.129.006.128.008.128.009.128.011.127.012.127.014.126.016.125.017.126.019.124.02.125.022.123.024.123.025.123.027.122.028.121.029.242.064.119.034.119.036.119.037.118.038.117.04.117.042.116.043.115.044.115.045.114.047.113.049.112.05.112.051.111.052.111.054.109.055.218.114.107.059.107.061.105.061.105.063.105.064.103.066.103.067.101.067.101.07.1.07.099.071.099.073.097.074.096.075.096.076.095.077.093.079.093.08.092.08.091.082.09.083.089.084.088.085.087.086.086.087.168.178.083.09.082.092.081.092.079.093.079.094.078.096.076.096.075.097.075.098.073.099.072.1.07.101.07.102.136.206.066.105.065.105.063.106.063.107.061.108.06.109.059.109.058.11.056.112.055.111.054.113.052.113.051.114.05.115.048.116.047.116.046.117.045.118.043.118.041.119.041.12.039.121.037.121.036.121.035.123.033.122.032.124.03.124.029.125.027.125.026.126.025.126.023.127.021.128.02.128.018.129.017.129.015.129.014.13.012.131.011.131.009.131.007.132.006.132.004.133.002.133.001.134v96.049l-.001.133-.002.133-.004.133-.006.132-.007.132-.009.132-.011.131-.012.13-.014.13-.015.13-.017.129-.018.128-.02.128-.021.128-.023.127-.025.126-.026.126-.027.125-.029.125-.03.124-.032.124-.033.123-.035.122-.036.122-.037.121-.039.12-.041.12-.041.119-.043.118-.045.118-.046.117-.047.116-.048.116-.05.115-.051.114-.052.113-.054.113-.055.112-.056.111-.058.11-.059.11-.06.108-.061.108-.063.107-.063.106-.065.106-.066.104-.068.104-.068.102-.07.102-.07.101-.072.1-.073.099-.075.098-.075.097-.076.097-.078.095-.079.094-.079.093-.081.093-.082.091-.083.09-.084.09-.084.088-.086.087-.087.086-.088.085-.089.084-.09.083-.091.082-.092.081-.093.079-.093.079-.095.077-.096.076-.096.075-.097.074-.099.073-.099.071-.1.071-.101.069-.101.068-.103.066-.103.066-.105.064-.105.063-.105.062-.107.06-.107.059-.109.058-.109.056-.109.055-.111.054-.111.053-.112.051-.112.049-.113.049-.114.047-.115.046-.115.044-.116.043-.117.041-.117.04-.118.038-.119.037-.119.036-.119.034-.121.033-.121.031-.121.03-.122.028-.123.026-.123.025-.123.024-.125.022-.124.02-.126.019-.125.017-.126.016-.127.014-.127.013-.128.01-.128.01-.128.007-.129.006-.129.004-.13.003-.13.001H87.793l-.13-.001-.13-.003-.129-.004-.129-.006-.129-.007-.128-.01-.127-.01-.127-.013-.127-.014-.126-.016-.126-.017-.125-.019-.125-.02-.124-.022-.123-.024-.124-.025-.122-.026-.122-.028-.122-.03-.121-.031-.12-.033-.12-.034-.119-.036-.118-.037-.118-.038-.117-.04-.117-.041-.116-.043-.115-.044-.115-.046-.114-.047-.113-.049-.113-.049-.112-.051-.111-.053-.11-.054-.11-.055-.109-.056-.108-.058-.107-.059-.107-.06-.106-.062-.105-.063-.104-.064-.103-.066-.103-.066-.102-.068-.1-.069-.1-.071-.1-.071-.098-.073-.097-.074-.097-.075-.095-.076-.095-.077-.094-.079-.092-.079-.092-.081-.091-.082-.09-.083-.089-.084-.088-.085-.087-.086-.086-.087-.085-.088-.084-.09-.083-.09-.081-.091-.081-.093-.08-.093-.078-.094-.078-.095-.076-.097-.076-.097-.074-.098-.073-.099-.072-.1-.071-.101-.069-.102-.069-.102-.067-.104-.066-.104-.065-.106-.064-.106-.062-.107-.062-.108-.06-.108-.058-.11-.058-.11-.056-.111-.055-.112-.054-.113-.052-.113-.051-.114-.05-.115-.049-.116-.047-.116-.046-.117-.044-.118-.043-.118-.042-.119-.04-.12-.039-.12-.037-.121-.036-.122-.035-.122-.033-.123-.032-.124-.031-.124-.028-.125-.028-.125-.026-.126-.024-.126-.023-.127-.021-.128-.02-.128-.019-.128-.016-.129-.016-.13-.013-.13-.012-.13-.011-.131-.009-.132-.007-.132-.006-.132-.004-.133-.003-.133v-96.316l.003-.133.004-.133.006-.132.007-.132.009-.131.011-.131.012-.131.013-.13.016-.129.016-.129.019-.129.02-.128.021-.128.023-.127.024-.126.026-.126.028-.125.028-.125.031-.124.032-.124.033-.122.035-.123.036-.121.037-.121.039-.121.04-.12.042-.119.043-.118.044-.118.046-.117.047-.116.049-.116.05-.115.051-.114.052-.113.054-.113.055-.111.056-.112.058-.11.058-.109.06-.109.062-.108.062-.107.064-.106.065-.105.066-.105.067-.103.069-.103.069-.102.071-.101.072-.1.073-.099.074-.098.076-.097.076-.096.078-.096.078-.094.08-.093.081-.092.081-.092.083-.09.084-.089.085-.089.086-.087.087-.086.088-.085.089-.084.09-.083.091-.082.092-.08.092-.08.094-.079.095-.077.095-.076.097-.075.097-.074.098-.073.1-.071.1-.07.1-.07.102-.067.103-.067.103-.066.104-.064.105-.063.106-.061.107-.061.107-.059.108-.057.109-.057.11-.055.11-.054.111-.052.112-.051.113-.05.113-.049.114-.047.115-.045.115-.044.116-.043.117-.042.117-.04.118-.038.118-.037.119-.036.12-.034.12-.032.121-.032.122-.029.122-.028.122-.027.124-.025.123-.024.124-.022.125-.02.125-.019.126-.017.126-.016.127-.014.127-.012.127-.011.128-.009.129-.008.129-.006.129-.004.13-.002.13-.001H212.8l.13.001ZM90.532 113.12v90.423h119.529V113.12H90.532Z" style="fill:#e3292e" transform="matrix(1.24916 0 0 1.21656 -37.745 -42.62)"/>
        <path style="fill:#e3292e" d="M104.624 117.507h16.014v56.608h-16.014z" transform="matrix(0 1 -.18765 0 177.361 8.718)"/>
        <path style="fill:#e3292e" d="M104.624 117.507h16.014v56.608h-16.014z" transform="matrix(0 1 -.18765 0 157.74 8.718)"/>
        <path style="fill:#e3292e" d="M104.624 117.507h16.014v56.608h-16.014z" transform="matrix(0 1 -.18765 0 196.949 8.718)"/>
        <g>
            <path d="M200.03 177.958h-35.72v8.007h-28.573v-8.007h-19.705v-16.014h19.658v8.007h28.62v-8.007h19.705v-48.601h16.015v64.615Zm-83.998 0h-16.015v-64.615h16.015v64.615Z" style="fill:#e3292e" transform="translate(0 .346)"/>
        </g>
    </g>
</svg>
