<?xml version="1.0" encoding="UTF-8" standalone="no"?>
<svg
   xmlns:dc="http://purl.org/dc/elements/1.1/"
   xmlns:cc="http://creativecommons.org/ns#"
   xmlns:rdf="http://www.w3.org/1999/02/22-rdf-syntax-ns#"
   xmlns:svg="http://www.w3.org/2000/svg"
   xmlns="http://www.w3.org/2000/svg"
   id="svg997"
   style="clip-rule:evenodd;fill-rule:evenodd;stroke-linejoin:round;stroke-miterlimit:1.41420996"
   xml:space="preserve"
   version="1.1"
   viewBox="0 0 60 60"
   height="60"
   width="60"><metadata
     id="metadata1003"><rdf:RDF><cc:Work
         rdf:about=""><dc:format>image/svg+xml</dc:format><dc:type
           rdf:resource="http://purl.org/dc/dcmitype/StillImage" /><dc:title></dc:title></cc:Work></rdf:RDF></metadata><defs
     id="defs1001" /><g
     transform="matrix(0.19993327,0,0,0.19990235,0.01465042,0.01464815)"
     id="Background"><path
       id="path982"
       style="fill:#ffffff"
       d="M 300,30.271 C 300,13.564 286.436,0 269.729,0 H 30.271 C 13.564,0 0,13.564 0,30.271 V 269.729 C 0,286.436 13.564,300 30.271,300 H 269.729 C 286.436,300 300,286.436 300,269.729 Z" /><path
       id="path984"
       d="m 269.925,0.001 c 16.09696,-0.31216393 30.49109,14.175131 30.075,30.27 -0.1061,80.84884 0.21081,161.71193 -0.156,242.552 C 298.61375,288.46369 283.6522,301.15677 268.03194,300 187.74879,299.89388 107.45138,300.21085 27.177,299.844 11.536306,298.61375 -1.1567723,283.6522 0,268.03194 0.10612413,187.74879 -0.21084904,107.45138 0.156,27.177 1.3862455,11.536306 16.347799,-1.1567723 31.968056,0 111.28704,6.6687171e-4 190.60602,-0.00133361 269.925,0.001 Z M 30.296,16 C 22.026584,15.736215 15.016126,23.717706 16,31.873056 16.111802,111.88482 15.777588,191.91917 16.165,271.917 17.162233,279.66957 25.119109,285.09897 32.721585,284 112.42148,283.89656 192.14146,284.20549 271.829,283.848 279.6657,282.88989 285.14515,274.82817 284,267.15842 283.89626,187.49853 284.20589,107.81853 283.848,28.171 282.89006,20.334162 274.82812,14.854983 267.15842,16 188.20428,16 109.25014,16 30.296,16 Z"
       style="fill:#e3292e" /><g
       id="g994"
       transform="translate(-8.41882,-7.21259)"><g
         id="g988"
         transform="translate(-6.74023,6.74023)"><path
           id="path986"
           style="fill:#e3292e"
           d="M 105.879,194.127 105.752,194 c -27.338,-27.338 -27.338,-71.662 0,-99 l 46.668,46.668 12.72,-12.72 c -0.121,-0.533 -0.185,-1.089 -0.185,-1.659 0,-4.139 3.361,-7.5 7.5,-7.5 4.14,0 7.5,3.361 7.5,7.5 0,4.14 -3.36,7.5 -7.5,7.5 -0.569,0 -1.125,-0.063 -1.658,-0.184 l -12.72,12.72 46.675,46.675 c -14.136,14.136 -32.813,20.962 -51.335,20.479 L 164,244 H 88 Z" /></g><path
         id="path990"
         style="fill:#e3292e"
         d="M 226.69,137.82 C 226.639,121.263 220.04,105.397 208.329,93.685 196.572,81.928 180.627,75.324 164,75.324 c -3.212,0 -5.819,-2.608 -5.819,-5.82 0,-3.211 2.607,-5.819 5.819,-5.819 19.714,0 38.62,7.831 52.559,21.77 13.912,13.912 21.74,32.772 21.771,52.444 v 0.116 c 0,3.211 -2.608,5.819 -5.82,5.819 -3.212,0 -5.819,-2.608 -5.819,-5.819 z" /><path
         id="path992"
         style="fill:#e3292e"
         d="m 164.002,87.984 c 13.269,0 25.993,5.271 35.375,14.653 9.383,9.383 14.654,22.108 14.654,35.378 v 0 c 0,3.203 -2.601,5.804 -5.805,5.804 -3.204,0 -5.805,-2.601 -5.805,-5.804 0.001,-10.191 -4.047,-19.963 -11.253,-27.169 C 183.963,103.641 174.19,99.593 164,99.593 v 0 0 c -3.204,0 -5.805,-2.601 -5.805,-5.804 0,-3.204 2.601,-5.805 5.805,-5.805 z" /></g></g></svg>
