<?xml version="1.0" encoding="UTF-8" standalone="no"?>
<svg
   xmlns:dc="http://purl.org/dc/elements/1.1/"
   xmlns:cc="http://creativecommons.org/ns#"
   xmlns:rdf="http://www.w3.org/1999/02/22-rdf-syntax-ns#"
   xmlns:svg="http://www.w3.org/2000/svg"
   xmlns="http://www.w3.org/2000/svg"
   id="svg7154"
   style="clip-rule:evenodd;fill-rule:evenodd;stroke-linecap:round;stroke-linejoin:round;stroke-miterlimit:1.5"
   xml:space="preserve"
   version="1.1"
   viewBox="0 0 60 60"
   height="60"
   width="60"><metadata
     id="metadata7160"><rdf:RDF><cc:Work
         rdf:about=""><dc:format>image/svg+xml</dc:format><dc:type
           rdf:resource="http://purl.org/dc/dcmitype/StillImage" /><dc:title></dc:title></cc:Work></rdf:RDF></metadata><defs
     id="defs7158" /><g
     transform="matrix(0.19993327,0,0,0.19990235,0.01465042,0.01464815)"
     id="g7152"><g
       id="Background"><g
         id="g7141"><path
           id="path7137"
           style="fill:#ffffff"
           d="M 300,30.271 C 300,13.564 286.436,0 269.729,0 H 30.271 C 13.564,0 0,13.564 0,30.271 V 269.729 C 0,286.436 13.564,300 30.271,300 H 269.729 C 286.436,300 300,286.436 300,269.729 Z" /><path
           id="path7139"
           d="m 269.925,0.001 c 16.09972,-0.31510169 30.49384,14.17259 30.075,30.27 -0.1061,80.84884 0.21081,161.71193 -0.156,242.552 C 298.61375,288.46369 283.6522,301.15677 268.03194,300 187.74879,299.89388 107.45138,300.21085 27.177,299.844 11.536306,298.61375 -1.1567723,283.6522 0,268.03194 0.10612413,187.74879 -0.21084904,107.45138 0.156,27.177 1.3862455,11.536306 16.347799,-1.1567723 31.968056,0 111.28704,6.6687171e-4 190.60602,-0.00133361 269.925,0.001 Z M 30.296,16 C 21.973925,15.732721 14.968163,23.80142 16,31.993056 16.103721,111.93578 15.794138,191.89863 16.152,271.829 17.110107,279.66576 25.171747,285.14519 32.841585,284 112.50147,283.89626 192.18147,284.20589 271.829,283.848 279.6657,282.88989 285.14515,274.82817 284,267.15842 283.89626,187.49853 284.20589,107.81853 283.848,28.171 282.89006,20.334162 274.82812,14.854983 267.15842,16 188.20428,16 109.25014,16 30.296,16 Z"
           style="fill:#e3292e" /></g></g><g
       id="g7150"
       transform="matrix(0.794378,0,0,0.873955,32.0611,19.176)"><g
         id="g7146"
         transform="translate(-7.01767,8.0407)"><path
           id="path7144"
           style="fill:none;stroke:#e3292e;stroke-width:14.36999989px"
           d="m 58.03,179.647 c -0.028,38.886 31.426,62.301 62.523,62.317" /></g><path
         id="path7148"
         style="fill:#e3292e"
         d="m 162.09,193.903 11.348,-11.348 35.373,35.373 33.297,-33.297 -35.374,-35.373 11.349,-11.348 46.447,46.448 -55.992,55.992 z m -63.397,-3.677 c -5.262,-9.991 -3.694,-22.651 4.705,-31.05 l 79.958,-79.958 c 10.328,-10.328 27.098,-10.328 37.426,0 10.328,10.328 10.328,27.098 0,37.426 l -79.958,79.958 c -8.314,8.313 -20.802,9.935 -30.744,4.864 l -7.546,7.546 c -3.122,3.122 -8.191,3.122 -11.313,0 -3.122,-3.122 -3.122,-8.191 0,-11.313 l -0.001,-0.001 z m 111.582,-83.049 c 4.816,-4.816 4.816,-12.636 0,-17.452 -4.816,-4.816 -12.636,-4.816 -17.452,0 l -79.526,79.526 c -4.817,4.816 -4.817,12.636 0,17.452 4.816,4.817 12.636,4.817 17.452,0 z M 162.09,81.917 150.742,93.266 115.369,57.892 82.072,91.189 117.445,126.562 106.097,137.91 59.65,91.462 115.642,35.47 Z" /></g></g></svg>
