<?xml version="1.0" encoding="UTF-8" standalone="no"?>
<svg
   xmlns:dc="http://purl.org/dc/elements/1.1/"
   xmlns:cc="http://creativecommons.org/ns#"
   xmlns:rdf="http://www.w3.org/1999/02/22-rdf-syntax-ns#"
   xmlns:svg="http://www.w3.org/2000/svg"
   xmlns="http://www.w3.org/2000/svg"
   id="svg377"
   style="clip-rule:evenodd;fill-rule:evenodd;stroke-linejoin:round;stroke-miterlimit:1.41420996"
   xml:space="preserve"
   version="1.1"
   viewBox="0 0 60 60"
   height="60"
   width="60"><metadata
     id="metadata383"><rdf:RDF><cc:Work
         rdf:about=""><dc:format>image/svg+xml</dc:format><dc:type
           rdf:resource="http://purl.org/dc/dcmitype/StillImage" /><dc:title></dc:title></cc:Work></rdf:RDF></metadata><defs
     id="defs381" /><g
     transform="matrix(0.19993327,0,0,0.19990235,0.01465042,0.01464815)"
     id="Background"><g
       id="g351"><path
         id="path347"
         style="fill:#ffffff"
         d="M 300,30.271 C 300,13.564 286.436,0 269.729,0 H 30.271 C 13.564,0 0,13.564 0,30.271 V 269.729 C 0,286.436 13.564,300 30.271,300 H 269.729 C 286.436,300 300,286.436 300,269.729 Z" /><path
         id="path349"
         d="m 269.925,0.001 c 16.09972,-0.31510169 30.49384,14.17259 30.075,30.27 -0.1061,80.84884 0.21081,161.71193 -0.156,242.552 C 298.61375,288.46369 283.6522,301.15677 268.03194,300 187.74879,299.89388 107.45138,300.21085 27.177,299.844 11.536306,298.61375 -1.1567723,283.6522 0,268.03194 0.10612413,187.74879 -0.21084904,107.45138 0.156,27.177 1.3862455,11.536306 16.347799,-1.1567723 31.968056,0 111.28704,6.6687171e-4 190.60602,-0.00133361 269.925,0.001 Z M 30.296,16 C 21.973925,15.732721 14.968163,23.80142 16,31.993056 16.103721,111.93578 15.794138,191.89863 16.152,271.829 17.110107,279.66576 25.171747,285.14519 32.841585,284 112.50147,283.89626 192.18147,284.20589 271.829,283.848 279.6657,282.88989 285.14515,274.82817 284,267.15842 283.89626,187.49853 284.20589,107.81853 283.848,28.171 282.89006,20.334162 274.82812,14.854983 267.15842,16 188.20428,16 109.25014,16 30.296,16 Z"
         style="fill:#e3292e" /></g></g><g
     transform="matrix(0.19993327,0,0,0.19990235,-0.05230958,3.9100682)"
     id="Layer3"><g
       id="g363"
       transform="translate(-2.17605,-6.90999)"><clipPath
         id="_clip1"><rect
           id="rect354"
           height="143.067"
           width="97.472"
           y="65.889999"
           x="55.039001" /></clipPath><g
         id="g361"
         clip-path="url(#_clip1)"><path
           id="path357"
           style="fill:#e3292e"
           d="m 94.657,208.957 h -1.486 v -0.027 c -21.178,-0.783 -38.132,-18.223 -38.132,-39.592 0,-19.576 14.229,-35.855 32.9,-39.05 v -0.161 c 0,-35.453 28.783,-64.237 64.237,-64.237 35.454,0 64.238,28.784 64.238,64.237 0,0.271 -0.002,0.538 -0.005,0.804 19.045,3.122 33.574,19.29 33.574,38.74 0,21.683 -18.054,39.286 -40.293,39.286 z m 105.717,-77.514 0.019,-0.004 c 0.011,-0.436 0.017,-0.873 0.017,-1.312 0,-26.621 -21.613,-48.234 -48.234,-48.234 -4.677,0 -9.199,0.667 -13.476,1.911 -20.932,5.493 -36.369,24.279 -36.369,46.582 0,6.579 1.343,12.852 3.775,18.568 -3.394,-1.881 -7.297,-2.952 -11.449,-2.952 -13.063,0 -23.669,10.606 -23.669,23.669 0,13.064 10.606,23.67 23.669,23.67 h 115.614 c 13.064,0 23.67,-10.606 23.67,-23.67 0,-13.063 -10.606,-23.669 -23.67,-23.669 -5.514,0 -10.59,1.889 -14.616,5.056 2.888,-5.967 4.566,-12.608 4.719,-19.615 z" /><path
           id="path359"
           d="m 152.591,65.891 c 24.98522,-0.172541 48.99827,15.859791 58.618,38.883 3.55027,8.22399 5.31925,17.20229 5.2,26.157 17.0746,2.52164 31.65879,17.16525 33.338,34.468 2.09933,16.40295 -7.7984,33.12173 -22.815,39.784 -10.46691,5.23184 -22.43064,3.50566 -33.68498,3.774 -33.84287,-0.0741 -67.76416,0.14773 -101.55802,-0.11 -17.444675,-1.01245 -33.011862,-14.96606 -35.972,-32.178 -3.31667,-16.2792 4.991655,-33.97596 19.577,-41.896 3.859041,-2.31873 8.528026,-3.5863 12.645,-4.646 -0.335904,-24.99251 15.55321,-49.114074 38.525,-58.877 8.20371,-3.600455 17.17004,-5.425597 26.127,-5.359 z m -0.634,16.003 c -18.47186,0.03978 -36.75056,10.752508 -44.777,27.576 -6.05506,12.18104 -6.45616,26.9913 -1.074,39.484 -10.02272,-5.83847 -23.961344,-2.71172 -30.582,6.788 -7.01556,9.20222 -5.685622,23.41148 2.909,31.158 5.382987,5.29448 13.228072,7.08093 20.576552,6.441 37.842258,-0.0742 75.693968,0.14697 113.530448,-0.108 11.73303,-0.86974 21.58976,-11.6414 21.4,-23.409 0.3421,-11.76679 -9.37886,-22.66325 -21.101,-23.684 -6.07937,-0.68477 -12.39233,1.10884 -17.184,4.918 8.96246,-17.99343 4.93824,-41.3084 -9.584,-55.235 -8.95815,-8.921563 -21.46466,-14.050541 -34.114,-13.929 z"
           style="fill:#e3292e" /></g></g><g
       id="g374"
       transform="matrix(-1,0,0,1,302.846,-6.90999)"><clipPath
         id="_clip2"><rect
           id="rect365"
           height="143.067"
           width="97.472"
           y="65.889999"
           x="55.039001" /></clipPath><g
         id="g372"
         clip-path="url(#_clip2)"><path
           id="path368"
           style="fill:#e3292e"
           d="m 94.657,208.957 h -1.486 v -0.027 c -21.178,-0.783 -38.132,-18.223 -38.132,-39.592 0,-19.576 14.229,-35.855 32.9,-39.05 v -0.161 c 0,-35.453 28.783,-64.237 64.237,-64.237 35.454,0 64.238,28.784 64.238,64.237 0,0.271 -0.002,0.538 -0.005,0.804 19.045,3.122 33.574,19.29 33.574,38.74 0,21.683 -18.054,39.286 -40.293,39.286 z m 105.717,-77.514 0.019,-0.004 c 0.011,-0.436 0.017,-0.873 0.017,-1.312 0,-26.621 -21.613,-48.234 -48.234,-48.234 -4.677,0 -9.199,0.667 -13.476,1.911 -20.932,5.493 -36.369,24.279 -36.369,46.582 0,6.579 1.343,12.852 3.775,18.568 -3.394,-1.881 -7.297,-2.952 -11.449,-2.952 -13.063,0 -23.669,10.606 -23.669,23.669 0,13.064 10.606,23.67 23.669,23.67 h 115.614 c 13.064,0 23.67,-10.606 23.67,-23.67 0,-13.063 -10.606,-23.669 -23.67,-23.669 -5.514,0 -10.59,1.889 -14.616,5.056 2.888,-5.967 4.566,-12.608 4.719,-19.615 z" /><path
           id="path370"
           d="m 151.761,65.891 c -24.98526,-0.172541 -48.99814,15.859864 -58.618,38.883 -3.463795,8.02729 -5.235538,16.77288 -5.204,25.514 -17.165442,2.67713 -31.310788,17.87456 -32.715,35.197 -1.921629,16.85473 8.417707,34.07343 24.133,40.405 10.776841,4.7612 22.73029,2.5762 34.12591,3.067 33.18578,-0.0911 66.38127,0.18113 99.56109,-0.134 17.54839,-1.114 33.50525,-14.97196 36.353,-32.443 3.06555,-15.86987 -5.26048,-32.83107 -19.33,-40.6 -4.21281,-2.41804 -8.86449,-4.06591 -13.658,-4.849 0.63988,-24.86103 -14.77685,-49.069516 -37.452,-59.201 -8.49101,-3.915785 -17.84787,-5.909493 -27.196,-5.839 z m 0.727,16.003 c 20.18248,-0.184304 39.37835,13.838199 45.48,33.051 3.91022,11.74495 3.10908,24.96868 -2.313,36.113 9.1728,-7.58403 23.90093,-6.42497 31.844,2.389 8.15442,8.28077 8.58665,22.63113 0.943,31.386 -5.12191,6.35074 -13.55301,9.23863 -21.55632,8.508 -38.16468,-0.0738 -76.33877,0.14645 -114.49768,-0.108 -11.7331,-0.86998 -21.588985,-11.64146 -21.4,-23.409 -0.341345,-11.76701 9.379354,-22.66373 21.102,-23.684 4.813413,-0.52999 9.78456,0.4532 14.016,2.814 -7.679516,-17.41946 -3.34444,-39.11833 10.297,-52.357 9.40496,-9.484773 22.78506,-14.702529 36.085,-14.703 z"
           style="fill:#e3292e" /></g></g></g></svg>
