<?xml version="1.0" encoding="UTF-8" standalone="no"?>
<svg
   xmlns:dc="http://purl.org/dc/elements/1.1/"
   xmlns:cc="http://creativecommons.org/ns#"
   xmlns:rdf="http://www.w3.org/1999/02/22-rdf-syntax-ns#"
   xmlns:svg="http://www.w3.org/2000/svg"
   xmlns="http://www.w3.org/2000/svg"
   id="svg118"
   style="clip-rule:evenodd;fill-rule:evenodd;stroke-linejoin:round;stroke-miterlimit:1.41420996"
   xml:space="preserve"
   version="1.1"
   viewBox="0 0 60 60"
   height="60"
   width="60"><metadata
     id="metadata124"><rdf:RDF><cc:Work
         rdf:about=""><dc:format>image/svg+xml</dc:format><dc:type
           rdf:resource="http://purl.org/dc/dcmitype/StillImage" /><dc:title></dc:title></cc:Work></rdf:RDF></metadata><defs
     id="defs122" /><g
     transform="matrix(0.19993327,0,0,0.19990235,0.01465042,0.01464815)"
     id="g116"><g
       id="Background"><path
         id="path95"
         style="fill:#ffffff"
         d="M 300,30.271 C 300,13.564 286.436,0 269.729,0 H 30.271 C 13.564,0 0,13.564 0,30.271 V 269.729 C 0,286.436 13.564,300 30.271,300 H 269.729 C 286.436,300 300,286.436 300,269.729 Z" /><path
         id="path97"
         d="m 269.925,0.001 c 16.09696,-0.31216393 30.49109,14.175131 30.075,30.27 -0.1061,80.84884 0.21081,161.71193 -0.156,242.552 C 298.61375,288.46369 283.6522,301.15677 268.03194,300 187.74879,299.89388 107.45138,300.21085 27.177,299.844 11.536306,298.61375 -1.1567723,283.6522 0,268.03194 0.10612413,187.74879 -0.21084904,107.45138 0.156,27.177 1.3862455,11.536306 16.347799,-1.1567723 31.968056,0 111.28704,6.6687171e-4 190.60602,-0.00133361 269.925,0.001 Z M 30.296,16 C 22.026584,15.736215 15.016126,23.717706 16,31.873056 16.111802,111.88482 15.777588,191.91917 16.165,271.917 17.162233,279.66957 25.119109,285.09897 32.721585,284 112.42148,283.89656 192.14146,284.20549 271.829,283.848 279.6657,282.88989 285.14515,274.82817 284,267.15842 283.89626,187.49853 284.20589,107.81853 283.848,28.171 282.89006,20.334162 274.82812,14.854983 267.15842,16 188.20428,16 109.25014,16 30.296,16 Z"
         style="fill:#e3292e" /></g><g
       id="g114"><path
         id="path100"
         style="fill:#e3292e"
         d="M 96.579,121.319 H 150 v 20.346 H 96.685 l 18.912,18.912 H 86.307 L 57.211,131.481 86.307,102.385 h 29.206 z" /><g
         id="g104"
         transform="translate(0,68.5311)"><path
           id="path102"
           style="fill:#e3292e"
           d="M 96.579,121.319 H 150 v 20.346 H 96.685 l 18.912,18.912 H 86.307 L 57.211,131.481 86.307,102.385 h 29.206 z" /></g><g
         id="g108"
         transform="matrix(-1,0,0,1,300,37.0177)"><path
           id="path106"
           style="fill:#e3292e"
           d="M 96.579,121.319 H 150 v 20.346 H 96.685 l 18.912,18.912 H 86.307 L 57.211,131.481 86.307,102.385 h 29.206 z" /></g><g
         id="g112"
         transform="matrix(-1,0,0,1,300,-31.5135)"><path
           id="path110"
           style="fill:#e3292e"
           d="M 96.579,121.319 H 150 v 20.346 H 96.685 l 18.912,18.912 H 86.307 L 57.211,131.481 86.307,102.385 h 29.206 z" /></g></g></g></svg>
