<?xml version="1.0" encoding="UTF-8" standalone="no"?>
<svg
   xmlns:dc="http://purl.org/dc/elements/1.1/"
   xmlns:cc="http://creativecommons.org/ns#"
   xmlns:rdf="http://www.w3.org/1999/02/22-rdf-syntax-ns#"
   xmlns:svg="http://www.w3.org/2000/svg"
   xmlns="http://www.w3.org/2000/svg"
   id="svg877"
   style="clip-rule:evenodd;fill-rule:evenodd;stroke-linejoin:round;stroke-miterlimit:1.41420996"
   xml:space="preserve"
   version="1.1"
   viewBox="0 0 60 60"
   height="60"
   width="60"><metadata
     id="metadata883"><rdf:RDF><cc:Work
         rdf:about=""><dc:format>image/svg+xml</dc:format><dc:type
           rdf:resource="http://purl.org/dc/dcmitype/StillImage" /><dc:title></dc:title></cc:Work></rdf:RDF></metadata><defs
     id="defs881" /><g
     transform="matrix(0.19993327,0,0,0.19990235,0.01465042,0.01464815)"
     id="Background"><path
       id="path860"
       style="fill:#ffffff"
       d="M 300,30.271 C 300,13.564 286.436,0 269.729,0 H 30.271 C 13.564,0 0,13.564 0,30.271 V 269.729 C 0,286.436 13.564,300 30.271,300 H 269.729 C 286.436,300 300,286.436 300,269.729 Z" /><path
       id="path862"
       d="m 269.925,0.001 c 16.09696,-0.31216393 30.49109,14.175131 30.075,30.27 -0.1061,80.84884 0.21081,161.71193 -0.156,242.552 C 298.61375,288.46369 283.6522,301.15677 268.03194,300 187.74879,299.89388 107.45138,300.21085 27.177,299.844 11.536306,298.61375 -1.1567723,283.6522 0,268.03194 0.10612413,187.74879 -0.21084904,107.45138 0.156,27.177 1.3862455,11.536306 16.347799,-1.1567723 31.968056,0 111.28704,6.6687171e-4 190.60602,-0.00133361 269.925,0.001 Z M 30.296,16 C 22.026584,15.736215 15.016126,23.717706 16,31.873056 16.111802,111.88482 15.777588,191.91917 16.165,271.917 17.162233,279.66957 25.119109,285.09897 32.721585,284 112.42148,283.89656 192.14146,284.20549 271.829,283.848 279.6657,282.88989 285.14515,274.82817 284,267.15842 283.89626,187.49853 284.20589,107.81853 283.848,28.171 282.89006,20.334162 274.82812,14.854983 267.15842,16 188.20428,16 109.25014,16 30.296,16 Z"
       style="fill:#e3292e" /><g
       id="g866"
       transform="matrix(0.818246,0,0,0.634058,18.7478,70.7428)"><path
         id="path864"
         style="fill:#e3292e"
         d="M 109,131.977 C 109,128.126 106.577,125 103.593,125 H 57.407 C 54.423,125 52,128.126 52,131.977 v 124.046 c 0,3.851 2.423,6.977 5.407,6.977 h 46.186 c 2.984,0 5.407,-3.126 5.407,-6.977 z" /></g><g
       id="g870"
       transform="matrix(0.818246,0,0,0.942029,84.5403,-10.2536)"><path
         id="path868"
         style="fill:#e3292e"
         d="M 109,129.696 C 109,127.104 106.577,125 103.593,125 H 57.407 C 54.423,125 52,127.104 52,129.696 v 128.608 c 0,2.592 2.423,4.696 5.407,4.696 h 46.186 c 2.984,0 5.407,-2.104 5.407,-4.696 z" /></g><g
       id="g874"
       transform="matrix(0.818246,0,0,1.26812,149.515,-96.0145)"><path
         id="path872"
         style="fill:#e3292e"
         d="M 109,128.489 C 109,126.563 106.577,125 103.593,125 H 57.407 C 54.423,125 52,126.563 52,128.489 v 131.022 c 0,1.926 2.423,3.489 5.407,3.489 h 46.186 c 2.984,0 5.407,-1.563 5.407,-3.489 z" /></g></g></svg>
