<svg width="60" height="60" viewBox="0 0 300 300" xmlns="http://www.w3.org/2000/svg" xml:space="preserve" style="fill-rule:evenodd;clip-rule:evenodd;stroke-linejoin:round;stroke-miterlimit:2">
    <path d="M300 30.271C300 13.564 286.436 0 269.729 0H30.271C13.564 0 0 13.564 0 30.271v239.458C0 286.436 13.564 300 30.271 300h239.458C286.436 300 300 286.436 300 269.729V30.271Z" style="fill:#fffefe"/>
    <path d="M300 30.271C300 13.564 286.436 0 269.729 0H30.271C13.564 0 0 13.564 0 30.271v239.458C0 286.436 13.564 300 30.271 300h239.458C286.436 300 300 286.436 300 269.729V30.271Zm-16 0v239.458c0 7.877-6.394 14.271-14.271 14.271H30.271C22.394 284 16 277.606 16 269.729V30.271C16 22.394 22.394 16 30.271 16h239.458C277.606 16 284 22.394 284 30.271Z" style="fill:#e31c00"/>
    <path d="M102.573 154.988A4.99 4.99 0 0 0 97.585 150H54.974a4.991 4.991 0 0 0-4.989 4.988v86.895a4.992 4.992 0 0 0 4.989 4.989h42.611a4.991 4.991 0 0 0 4.988-4.989v-86.895Zm74.182-47.052a4.99 4.99 0 0 0-4.988-4.988h-42.611a4.99 4.99 0 0 0-4.988 4.988v133.947a4.991 4.991 0 0 0 4.988 4.989h42.611a4.991 4.991 0 0 0 4.988-4.989V107.936Zm73.26-49.819a4.992 4.992 0 0 0-4.989-4.989h-42.611a4.991 4.991 0 0 0-4.988 4.989v183.766a4.991 4.991 0 0 0 4.988 4.989h42.611a4.992 4.992 0 0 0 4.989-4.989V58.117Z" style="fill:#e31c00"/>
</svg>
