<?xml version="1.0" encoding="UTF-8" standalone="no"?>
<svg
   xmlns:dc="http://purl.org/dc/elements/1.1/"
   xmlns:cc="http://creativecommons.org/ns#"
   xmlns:rdf="http://www.w3.org/1999/02/22-rdf-syntax-ns#"
   xmlns:svg="http://www.w3.org/2000/svg"
   xmlns="http://www.w3.org/2000/svg"
   xmlns:sodipodi="http://sodipodi.sourceforge.net/DTD/sodipodi-0.dtd"
   xmlns:inkscape="http://www.inkscape.org/namespaces/inkscape"
   id="svg320"
   style="clip-rule:evenodd;fill-rule:evenodd;stroke-linejoin:round;stroke-miterlimit:1.41420996"
   xml:space="preserve"
   version="1.1"
   viewBox="0 0 60 60"
   height="60"
   width="60"
   inkscape:version="0.91 r13725"
   sodipodi:docname="vmware.svg"><sodipodi:namedview
     pagecolor="#ffffff"
     bordercolor="#666666"
     borderopacity="1"
     objecttolerance="10"
     gridtolerance="10"
     guidetolerance="10"
     inkscape:pageopacity="0"
     inkscape:pageshadow="2"
     inkscape:window-width="1600"
     inkscape:window-height="1026"
     id="namedview19"
     showgrid="false"
     inkscape:zoom="11.125147"
     inkscape:cx="26.35809"
     inkscape:cy="29.520554"
     inkscape:window-x="924"
     inkscape:window-y="366"
     inkscape:window-maximized="0"
     inkscape:current-layer="g318" /><metadata
     id="metadata326"><rdf:RDF><cc:Work
         rdf:about=""><dc:format>image/svg+xml</dc:format><dc:type
           rdf:resource="http://purl.org/dc/dcmitype/StillImage" /><dc:title /></cc:Work></rdf:RDF></metadata><defs
     id="defs324" /><g
     transform="matrix(0.19993327,0,0,0.19990235,0.01465042,0.01464815)"
     id="g318"><g
       id="Background"><g
         id="g297"><path
           id="path293"
           style="fill:#ffffff"
           d="M 300,30.271 C 300,13.564 286.436,0 269.729,0 H 30.271 C 13.564,0 0,13.564 0,30.271 V 269.729 C 0,286.436 13.564,300 30.271,300 H 269.729 C 286.436,300 300,286.436 300,269.729 Z" /><path
           id="path295"
           d="m 269.925,0.001 c 16.09972,-0.31510169 30.49384,14.17259 30.075,30.27 -0.1061,80.84884 0.21081,161.71193 -0.156,242.552 C 298.61375,288.46369 283.6522,301.15677 268.03194,300 187.74879,299.89388 107.45138,300.21085 27.177,299.844 11.536306,298.61375 -1.1567723,283.6522 0,268.03194 0.10612413,187.74879 -0.21084904,107.45138 0.156,27.177 1.3862455,11.536306 16.347799,-1.1567723 31.968056,0 111.28704,6.6687171e-4 190.60602,-0.00133361 269.925,0.001 Z M 30.296,16 C 21.973925,15.732721 14.968163,23.80142 16,31.993056 16.103721,111.93578 15.794138,191.89863 16.152,271.829 17.110107,279.66576 25.171747,285.14519 32.841585,284 112.50147,283.89626 192.18147,284.20589 271.829,283.848 279.6657,282.88989 285.14515,274.82817 284,267.15842 283.89626,187.49853 284.20589,107.81853 283.848,28.171 282.89006,20.334162 274.82812,14.854983 267.15842,16 188.20428,16 109.25014,16 30.296,16 Z"
           style="fill:#e3292e;fill-opacity:1" /></g></g><g
       id="g188"
       transform="matrix(3.4068995,0,0,-3.4074265,145.66618,194.72312)"
       style="clip-rule:evenodd;fill:#e3292e;fill-opacity:1;fill-rule:evenodd;stroke-linejoin:round;stroke-miterlimit:1.41420996"><path
         style="fill:#e3292e;fill-opacity:1"
         inkscape:connector-curvature="0"
         id="path190"
         d="m -21.716,23.2 c -0.708,1.552 -2.458,2.255 -4.092,1.529 -1.636,-0.727 -2.238,-2.541 -1.499,-4.094 l 6.861,-14.913 c 1.079,-2.337 2.216,-3.562 4.35,-3.562 2.28,0 3.274,1.334 4.352,3.562 0,0 5.984,13.03 6.044,13.166 0.061,0.138 0.253,0.559 0.862,0.555 0.515,-0.003 0.948,-0.414 0.948,-0.966 l 0,-12.742 c 0,-1.964 1.089,-3.575 3.185,-3.575 2.094,0 3.226,1.611 3.226,3.575 l 0,10.427 c 0,2.011 1.441,3.316 3.405,3.316 1.964,0 3.271,-1.352 3.271,-3.316 l 0,-10.427 c 0,-1.964 1.093,-3.575 3.185,-3.575 2.094,0 3.232,1.611 3.232,3.575 l 0,10.427 c 0,2.011 1.435,3.316 3.4,3.316 1.961,0 3.273,-1.352 3.273,-3.316 l 0,-10.427 c 0,-1.964 1.092,-3.575 3.186,-3.575 2.093,0 3.229,1.611 3.229,3.575 l 0,11.867 c 0,4.361 -3.507,7.416 -7.727,7.416 -4.215,0 -6.855,-2.916 -6.855,-2.916 -1.403,1.819 -3.337,2.912 -6.61,2.912 -3.454,0 -6.477,-2.912 -6.477,-2.912 -1.404,1.819 -3.794,2.912 -5.773,2.912 -3.061,0 -5.492,-1.346 -6.975,-4.737 L -16.096,9.95 -21.716,23.2 Z" /></g></g></svg>