<svg id="f6fe4215-7336-420b-bd07-06692844737a" xmlns="http://www.w3.org/2000/svg" viewBox="0 0 67.6 65.59"><title>vrouter-logo-generic</title><circle cx="34" cy="32.75" r="19.09" style="fill:#3d4859;opacity:0.8999999761581421;isolation:isolate"/><circle cx="34.04" cy="32.79" r="11.18" style="fill:#5e7ce2;opacity:0.8999999761581421;isolation:isolate"/><path d="M44.61,7.88l20.74-5.6c1.22-.33,2,.41,1.7,1.65L62.21,24.86c-.47,2-3.1,3.65-4.17,2.62l-4.92-4.76-7.84,8.13c-1.07,1.11-2.48,1.49-3.15.85l-3.62-3.49c-.66-.64-.33-2.07.73-3.18l7.84-8.13-4.93-4.76C41.07,11.1,42.62,8.42,44.61,7.88Z" transform="translate(-1.16 -2.2)" style="fill:#0aaded;opacity:0.8999999761581421;isolation:isolate"/><path d="M26.06,62.11,5.32,67.72c-1.21.33-2-.42-1.7-1.65L8.47,45.14c.44-2,3.08-3.65,4.15-2.62l4.93,4.76,7.84-8.13c1.07-1.11,2.49-1.49,3.15-.85l3.63,3.49c.67.64.33,2.07-.72,3.18L23.61,53.1l4.91,4.76C29.6,58.9,28.05,61.58,26.06,62.11Z" transform="translate(-1.16 -2.2)" style="fill:#5e7ce2;opacity:0.8999999761581421;isolation:isolate"/><path d="M25.29,8.71l5.6,20.75c.33,1.21-.41,2-1.64,1.69L8.31,26.31c-2-.47-3.65-3.1-2.61-4.17l4.75-4.91L2.32,9.38C1.21,8.31.83,6.9,1.47,6.24L5,2.6c.64-.66,2.07-.33,3.18.73l8.13,7.86L21,6.25C22.07,5.17,24.75,6.72,25.29,8.71Z" transform="translate(-1.16 -2.2)" style="fill:#5e7ce2;opacity:0.8999999761581421;isolation:isolate"/><path d="M44.64,61.15,39,40.4c-.33-1.21.42-2,1.65-1.7l20.93,4.84c2,.46,3.65,3.09,2.62,4.16l-4.76,4.94,8.13,7.84c1.11,1.06,1.49,2.48.85,3.14L65,67.24c-.64.67-2.07.34-3.18-.72l-8.13-7.84L48.9,63.61C47.85,64.69,45.17,63.14,44.64,61.15Z" transform="translate(-1.16 -2.2)" style="fill:#0aaded;opacity:0.8999999761581421;isolation:isolate"/></svg>