<?xml version="1.0" encoding="UTF-8" standalone="no"?>
<!-- Created with Inkscape (http://www.inkscape.org/) -->

<svg
   version="1.1"
   id="svg1"
   width="1024"
   height="1024"
   viewBox="0 0 1024 1024"
   xml:space="preserve"
   xmlns="http://www.w3.org/2000/svg"
   xmlns:svg="http://www.w3.org/2000/svg"><defs
     id="defs1" /><g
     id="layer1"><circle
       style="fill:#1a1a1a;stroke:#0bdcd1;stroke-width:1.51529"
       id="path7"
       cx="511.54706"
       cy="511.54706"
       r="509.74625" /></g><g
     id="g1"><g
       id="g2"
       transform="matrix(0.84744126,0,0,0.84744126,80.284286,51.918792)"><path
         id="path38"
         style="fill:#feffff;fill-opacity:1;stroke-width:1.96125"
         d="m 550.48438,383.83594 c -1.42517,-1.97626 -34.04408,49.48574 -35.94532,52.8164 4.89656,6.76742 67.90321,99.44362 73.35938,108.60157 0.63819,0.0157 10.56542,-9.61649 22.0625,-21.40625 11.49708,-11.78973 21.54624,-22.59197 20.90429,-23.58008 C 616.78191,478.5901 564.8254,403.72241 550.48438,383.83594 Z m -49.10743,73.1914 C 493.61984,468.80306 385.5652,625.20965 385.19922,625.7793 l 75.51562,-1.06446 79.44528,-115.18592 c -11.81985,-16.44323 -27.61076,-38.3512 -38.78317,-52.50158 z m 193.43946,172.58985 h 12.34179 12.34571 c -3.17219,-3.92548 -7.3417,-9.48657 -10.33768,-13.16127 -4.89572,4.54527 -9.61638,8.79114 -14.34982,13.16127 z" /><path
         style="fill:#0be1db;fill-opacity:1;stroke-width:1.96125"
         d="m 806.2793,581.50586 c -3.01268,-0.10613 -6.23682,0.44998 -9.5586,1.83789 -19.90636,8.31739 -13.00606,38.42969 8.80664,38.42969 5.68137,0 8.85021,-1.42245 13.46485,-6.03711 13.6829,-13.68274 3.55593,-33.65733 -12.71289,-34.23047 z"
         id="path6" /><path
         style="fill:#0be1db;fill-opacity:1;stroke-width:1.96125"
         d="m 737.26367,535.58789 c -0.3996,-0.0138 -0.79463,-0.0112 -1.1875,0.008 -4.04078,0.19573 -7.74137,2.13022 -11.46875,5.85742 -5.1324,5.13247 -5.83502,7.03923 -4.97265,13.46876 l 1.0039,7.48828 -92.45508,92.44336 -92.45507,92.43945 h -8.22071 c -12.13802,0 -19.23774,6.68557 -18.94531,17.83984 0.43422,16.55665 18.46138,23.54071 30.27344,11.72852 4.34105,-4.34105 5.73437,-7.55681 5.73437,-13.2461 0,-7.29657 2.65655,-10.17249 92.18555,-99.68359 79.80293,-79.78713 92.87359,-92.08577 97.26367,-91.51953 10.65687,1.37451 22.36524,-8.10861 22.36524,-18.11523 0,-5.72019 -4.75364,-13.26581 -10.09375,-16.02735 -3.25973,-1.68564 -6.23011,-2.58511 -9.02735,-2.68164 z"
         id="path5" /><path
         style="fill:#0be1db;fill-opacity:1;stroke-width:1.96125"
         d="m 455.92376,722.85975 c -0.84707,-0.72828 47.84156,-50.42929 108.40436,-111.55311 108.58163,-109.58717 110.22043,-111.13283 117.8711,-111.13281 10.29522,0 15.09709,-2.84515 18.48242,-10.94727 2.42863,-5.81275 2.42863,-7.59739 0,-13.41015 -3.29727,-7.89159 -8.17895,-10.94337 -17.49805,-10.94336 -10.26482,0 -15.68307,5.51226 -16.93945,17.24023 l -1.05664,9.8711 -109.83008,110.49414 -109.83008,110.49218 -9.61132,0.98047 c -11.9215,1.21642 -17.75977,7.75795 -17.75977,19.9043 0,14.08063 15.05196,21.87028 28.19336,14.58984 0,0 4.79393,-2.74146 7.39858,-9.58463 2.41703,-5.84882 2.17557,-16.00093 2.17557,-16.00093 z"
         id="path4" /><path
         style="fill:#0be1db;fill-opacity:1;stroke-width:1.96125"
         d="m 473.79688,753.47852 -4.02344,11.125 c -8.10176,22.4276 -28.88459,62.69349 -43.53321,84.34179 -8.27082,12.22324 -15.03515,22.59353 -15.03515,23.04492 0,1.33096 15.06325,0.89351 39.84961,-1.16015 45.22245,-3.74688 88.30968,-16.33338 120.97265,-35.33399 28.6667,-16.67594 57.23525,-43.40695 80.25,-75.08398 10.12949,-13.94196 13.32428,-17.04576 17.54883,-17.06055 8.68032,-0.0304 68.55714,-9.3178 101.50977,-15.74414 56.57872,-11.03382 98.42003,-23.18263 123.70508,-35.91601 23.22575,-11.6963 52.4281,-37.10662 60.62695,-52.75782 l 2.82617,-5.39257 h -13.76758 -13.76562 l -5.68555,7.84375 c -20.38767,28.14421 -64.05598,46.64235 -152.21875,64.47656 -38.76599,7.84185 -105.32401,17.89648 -118.47266,17.89648 -1.06202,0 -7.44413,8.04878 -14.18359,17.88867 -41.25483,60.23358 -96.4226,94.58811 -169.97461,105.84766 -8.8286,1.35151 -16.61104,1.90075 -17.29101,1.2207 -0.68016,-0.68006 1.86184,-5.90514 5.64843,-11.61328 9.19319,-13.85824 24.65964,-48.53637 33.5,-75.11133 l 7.18164,-21.58398 82.30664,-82.29297 82.3125,-82.29297 7.84961,0.56836 c 10.81534,0.78089 17.76953,-6.0197 17.76953,-17.37695 0,-10.88387 -6.63291,-17.65039 -17.29882,-17.65039 -11.55984,0 -18.00391,5.93557 -18.00391,16.58594 v 8.45898 l -82.89062,83.87305 -82.88868,83.875 -8.49279,7.67062 c -4.37775,4.78585 -6.33142,11.6536 -6.33142,11.6536 z"
         id="path3" /><path
         style="fill:#0be1db;fill-opacity:1;stroke-width:1.96125"
         d="m 373.99023,211.99414 c -0.0344,-7e-4 -0.0688,-3.3e-4 -0.10351,0.002 -0.98102,0.0644 -2.10455,1.31778 -2.89258,3.80079 -2.03892,6.42412 -24.74098,28.13382 -36.38672,34.79687 -5.95281,3.40588 -18.29163,8.49765 -27.42187,11.31836 -37.67005,11.63774 -42.75152,13.50188 -57.41407,21.06445 -8.42419,4.34504 -20.3145,12.63104 -26.42578,18.41016 -6.11146,5.77909 -11.36802,10.50781 -11.67968,10.50781 -0.31164,0 -5.46152,-3.99126 -11.44532,-8.86523 C 182.04946,288.22871 166.18703,281.58024 125.59961,271.74219 79.004275,260.4479 65.632446,254.23318 45.181641,234.37109 l -15.001953,-14.56836 1.0625,27.90235 c 1.317375,34.7172 7.141981,58.58456 21.324218,87.33398 17.104514,34.6735 47.117582,61.57002 89.041014,79.79492 8.29279,3.60496 15.72195,7.29187 16.50586,8.19336 0.78412,0.90149 3.43183,7.81633 5.88477,15.36719 24.32174,74.8691 56.30712,138.84104 91.1914,182.39649 20.53651,25.64116 48.30532,51.28183 75.09766,69.34179 13.24808,8.93024 57.31457,33.61613 60.01758,33.6211 0.9112,0.002 7.92469,-6.83547 15.58593,-15.19532 7.66107,-8.35988 32.40695,-33.88213 54.99219,-56.71289 39.282,-39.70856 41.34032,-41.46323 47.39649,-40.48047 8.38632,1.36091 14.42306,-2.14179 17.85742,-10.36132 5.4619,-13.0723 -2.6771,-24.87696 -17.15234,-24.87696 -11.10326,0 -17.71761,7.16137 -17.05079,18.46289 0.45266,7.67056 -8.6e-4,8.20117 -48.45703,56.68555 -26.90315,26.91938 -49.87638,48.94727 -51.05273,48.94727 -1.17656,0 -9.12807,-3.66317 -17.66797,-8.13672 -54.09518,-28.33734 -97.88787,-70.01058 -131.10547,-124.76172 -23.25659,-38.33261 -52.27565,-105.397 -63,-145.59961 -1.87045,-7.0115 -4.37689,-13.79295 -5.57031,-15.06641 -1.19324,-1.27344 -9.2279,-5.09536 -17.85742,-8.49609 -29.62635,-11.67514 -42.151,-19.45548 -59.857426,-37.18359 C 87.096674,350.6975 78.254387,339.68207 74.416016,332.38867 67.510822,319.26824 57.280692,289.84931 55.296875,277.4082 l -1.275391,-8.00586 13.353516,6.38868 c 7.345497,3.5138 24.830532,9.11907 38.85352,12.45703 40.51504,9.64398 48.25971,11.96052 61.46289,18.38672 15.11246,7.3555 26.19259,16.87899 36.59961,31.45312 4.31475,6.0424 8.48834,11.00408 9.27539,11.02734 0.78705,0.0233 3.13298,-3.2959 5.21289,-7.37304 5.58959,-10.95646 17.9453,-25.16502 29.30078,-33.69727 10.54313,-7.92204 22.19687,-12.7658 59.17773,-24.58984 12.40494,-3.96629 29.0662,-10.68945 37.0293,-14.94141 l 14.48047,-7.73047 -1.38281,14.03125 c -3.03308,30.78166 -14.64384,60.5119 -31.81641,81.46875 -8.04664,9.81974 -32.54098,28.924 -47.58008,37.10938 -5.47623,2.98046 -9.95508,5.95643 -9.95508,6.61328 0,3.73903 11.30914,16.75745 21.06836,24.25391 22.71643,17.44914 45.10102,25.24878 73.07227,25.45507 31.74568,0.23412 55.43489,-9.37797 79.52148,-32.25781 17.14805,-16.28895 30.22025,-35.07905 39.09571,-56.19531 l 6.32421,-15.04492 40.00196,-1.27149 c 44.98514,-1.42911 74.13488,-4.34758 154.42578,-15.44922 107.63099,-14.88186 159.73557,-16.99101 195.11523,-7.90234 37.26023,9.57167 53.08811,26.43688 68.68164,73.18945 16.26158,48.75581 27.24674,156.12769 18.1543,177.44141 -6.65103,15.5911 -21.53587,24.969 -64.14648,40.4082 -25.02213,9.06634 -78.95856,23.42148 -118.44727,31.52539 l -21.57227,4.42774 -4.29882,8.6582 c -4.9808,10.0349 -5.51649,13.56055 -2.05664,13.56055 5.19615,0 84.14889,-18.07526 111.77929,-25.58985 37.44153,-10.18286 59.61697,-18.03292 78.375,-27.74414 19.88145,-10.29281 31.43782,-20.73308 38.20117,-34.50586 4.9839,-10.14961 5.56841,-13.55107 6.1875,-36.06836 1.28661,-46.7948 -9.45292,-120.18526 -24.22851,-165.58398 -11.90503,-36.57905 -28.77477,-57.78313 -56.86523,-71.46094 -23.49703,-11.44114 -40.24828,-14.28288 -84.33399,-14.31445 -40.76785,-0.0292 -63.71716,1.89835 -124.53906,10.47266 -99.38018,14.01006 -132.83218,17.44542 -184.66602,18.96484 l -42.47265,1.24609 -1.12305,5.61914 c -1.93693,9.68429 -12.97928,34.36585 -20.66211,46.18555 -13.97375,21.49833 -34.72095,38.31796 -56.51562,45.81641 -22.73271,7.82124 -57.98854,3.99323 -79.54688,-8.64063 -14.42562,-8.45411 -14.55332,-9.51253 -2.21289,-18.01172 14.80611,-10.19733 40.11694,-37.65518 47.52539,-51.55468 15.98875,-29.99796 23.13484,-67.35268 19.96094,-104.34571 -0.97161,-11.32625 -1.80255,-22.57882 -1.84961,-25.00586 -0.0543,-2.81579 -0.93059,-4.26743 -1.9961,-4.28906 z"
         id="path37" /></g></g></svg>
