<?xml version="1.0" encoding="UTF-8"?>
<svg id="_图层_1" data-name="图层 1" xmlns="http://www.w3.org/2000/svg" xmlns:xlink="http://www.w3.org/1999/xlink" viewBox="0 0 66 44.52">
  <defs>
    <style>
      .cls-1 {
        fill: none;
      }

      .cls-2 {
        clip-path: url(#clippath);
      }

      .cls-3 {
        fill: #fff;
      }

      .cls-4 {
        fill: #abbbed;
      }

      .cls-5 {
        fill: #96aae9;
      }

      .cls-6 {
        fill: #7989bb;
      }
    </style>
    <clipPath id="clippath">
      <rect class="cls-1" x=".1" y="8.18" width="64.89" height="27.34"/>
    </clipPath>
  </defs>
  <rect x="1.34" y="23.21" width="49.53" height="13.54"/>
  <polygon points="50.88 23.21 50.88 36.75 66 23.21 66 9.64 50.88 23.21"/>
  <rect class="cls-1" x=".1" y="8.18" width="64.89" height="27.34"/>
  <rect class="cls-1" x=".1" y="8.18" width="64.89" height="27.34"/>
  <rect class="cls-5" x=".22" y="21.87" width="49.53" height="13.54"/>
  <polygon class="cls-4" points="15.34 8.3 .22 21.87 49.75 21.87 64.87 8.3 15.34 8.3"/>
  <polygon class="cls-6" points="49.75 21.87 49.75 35.4 64.87 21.87 64.87 8.3 49.75 21.87"/>
  <polygon class="cls-3" points="33.17 12.87 25.08 14.56 31.96 17.27 40.04 15.58 33.17 12.87"/>
  <polygon class="cls-3" points="24.77 15.66 28.21 17.02 14.88 19.81 16.6 20.49 9.1 19.98 9.73 17.78 11.45 18.46 24.77 15.66"/>
  <polygon class="cls-3" points="36.9 13.12 40.33 14.48 53.69 11.68 55.41 12.35 56 10.15 48.54 9.64 50.26 10.32 36.9 13.12"/>
  <polygon class="cls-3" points="35.71 17.52 39.75 16.68 44.9 18.71 46.92 18.29 46.33 20.49 38.83 19.98 40.86 19.56 35.71 17.52"/>
  <polygon class="cls-3" points="25.39 13.46 29.44 12.61 24.28 10.58 26.29 10.15 18.83 9.64 18.2 11.85 20.24 11.42 25.39 13.46"/>
  <g class="cls-2">
    <path class="cls-3" d="m25.84,29.93c0-.2-.07-.35-.21-.46-.14-.11-.39-.22-.74-.34s-.64-.23-.86-.34c-.73-.36-1.09-.85-1.09-1.47,0-.31.09-.58.27-.82.18-.24.44-.42.77-.56s.7-.2,1.12-.2.77.07,1.09.21c.32.15.57.35.74.62.18.26.26.57.26.91h-1.35c0-.23-.07-.41-.21-.53-.14-.13-.33-.19-.57-.19s-.43.05-.57.16c-.14.1-.21.24-.21.41,0,.15.08.27.23.39.16.12.42.24.81.36.39.12.71.26.95.4.61.35.91.83.91,1.45,0,.49-.18.88-.56,1.15-.37.28-.88.42-1.52.42-.46,0-.87-.08-1.24-.25s-.65-.39-.83-.67c-.19-.28-.28-.61-.28-.98h1.35c0,.3.08.52.23.67.16.14.41.21.76.21.22,0,.4-.05.53-.15.13-.1.2-.23.2-.41"/>
  </g>
</svg>