<?xml version="1.0" encoding="utf-8"?>
<svg id="svg1998" width="66.000435" height="44.5159" version="1.0" xmlns="http://www.w3.org/2000/svg">
  <defs id="defs2001">
    <marker orient="auto" refY="0" refX="0" id="Arrow2Lstart" style="overflow:visible">
      <path id="path11918" style="font-size:12px;fill-rule:evenodd;stroke-width:0.625;stroke-linejoin:round" d="M 8.7185878,4.0337352 L -2.2072895,0.016013256 L 8.7185884,-4.0017078 C 6.97309,-1.6296469 6.9831476,1.6157441 8.7185878,4.0337352 z " transform="matrix(1.1,0,0,1.1,1.1,0)"/>
    </marker>
    <marker orient="auto" refY="0" refX="0" id="Arrow1Send" style="overflow:visible">
      <path id="path11921" d="M 0,0 L 5,-5 L -12.5,0 L 5,5 L 0,0 z " style="fill-rule:evenodd;stroke:black;stroke-width:1pt;marker-start:none" transform="matrix(-0.2,0,0,-0.2,-1.2,0)"/>
    </marker>
    <marker orient="auto" refY="0" refX="0" id="Arrow1Lstart" style="overflow:visible">
      <path id="path11936" d="M 0,0 L 5,-5 L -12.5,0 L 5,5 L 0,0 z " style="fill-rule:evenodd;stroke:black;stroke-width:1pt;marker-start:none" transform="matrix(0.8,0,0,0.8,10,0)"/>
    </marker>
    <linearGradient id="linearGradient2216" gradientUnits="userSpaceOnUse" gradientTransform="matrix(15.252829,0,0,14.082619,53.467529,3.4188377)" x1="-1.0929121" y1="0.63145506" x2="-4.5832458" y2="0.070047863">
      <stop style="stop-opacity: 1; stop-color: rgb(68, 70, 84);" offset="0" id="stop9314"/>
      <stop style="stop-color:#ffffff;stop-opacity:0.94117647;" offset="1" id="stop9316"/>
    </linearGradient>
  </defs>
  <rect style="opacity:1;fill:#000000;fill-opacity:0.39215687;fill-rule:evenodd;stroke:none;stroke-width:0.2;stroke-linecap:square;stroke-linejoin:miter;stroke-miterlimit:4;stroke-dasharray:none;stroke-opacity:1" id="rect4558" width="64.552505" height="41.53862" x="1.4479325" y="2.9772801" ry="11.631706" rx="32.212925"/>
  <rect style="opacity: 1; fill-opacity: 1; fill-rule: evenodd; stroke: none; stroke-width: 0.015; stroke-linecap: square; stroke-linejoin: miter; stroke-miterlimit: 4; stroke-dasharray: none; stroke-opacity: 1; fill: rgb(68, 70, 84);" id="rect9971" width="64.499474" height="42.154343" x="0.0625" y="0.18084908" ry="11.557454" rx="32.249737"/>
  <g id="g4160">
    <path id="path4815" d="M 64.514069,11.541297 L 64.457031,10.955643 L 64.342949,10.36999 L 64.152814,9.8038604 L 63.867612,9.2182077 L 63.487345,8.6520765 L 63.050034,8.0859452 L 62.517657,7.5393369 L 61.909226,7.0122499 L 61.224742,6.4851607 L 60.464203,5.9775955 L 59.646626,5.4700289 L 58.752993,4.9819859 L 57.783307,4.4939413 L 56.75658,4.0644625 L 55.6538,3.6349838 L 54.493981,3.2055052 L 53.296132,2.8150692 L 52.022232,2.4636777 L 50.710303,2.1122862 L 49.341334,1.7999375 L 47.934339,1.5071117 L 46.489316,1.2338059 L 45.006267,0.99954576 L 43.504204,0.76528425 L 41.964114,0.58958842 L 40.385997,0.43341443 L 38.788867,0.29676153 L 37.191738,0.19915292 L 35.575597,0.12106555 L 33.940437,0.06250017 L 32.324296,0.06250017 L 32.324296,0.06250017 L 30.689136,0.06250017 L 29.053981,0.12106555 L 27.45685,0.19915292 L 25.840705,0.29676153 L 24.243576,0.43341443 L 22.684472,0.58958842 L 21.125372,0.76528425 L 19.623307,0.99954576 L 18.140258,1.2338059 L 16.695234,1.5071117 L 15.28824,1.7999375 L 13.919273,2.1122862 L 12.607342,2.4636777 L 11.333442,2.8150692 L 10.135592,3.2055052 L 8.9757693,3.6349838 L 7.8729941,4.0644625 L 6.8462664,4.4939413 L 5.8765785,4.9819859 L 4.9829488,5.4700289 L 4.1653682,5.9775955 L 3.4048335,6.4851607 L 2.7203448,7.0122499 L 2.1309311,7.5393369 L 1.5795405,8.0859452 L 1.1422325,8.6520765 L 0.76195982,9.2182077 L 0.47676065,9.8038604 L 0.26760898,10.36999 L 0.15353084,10.955643 L 0.11550327,11.541297 L 0.11550327,11.541297 L 0.15353084,12.12695 L 0.26760898,12.693081 L 0.47676065,13.278734 L 0.76195982,13.825344 L 1.1422325,14.410996 L 1.5795405,14.957605 L 2.1309311,15.523736 L 2.7203448,16.070348 L 3.4048335,16.597435 L 4.1653682,17.085479 L 4.9829488,17.593043 L 5.8765785,18.100608 L 6.8462664,18.549609 L 7.8729941,18.998611 L 8.9757693,19.447613 L 10.135592,19.857571 L 11.333442,20.248007 L 12.607342,20.599396 L 13.919273,20.950787 L 15.28824,21.263135 L 16.695234,21.575486 L 18.140258,21.829265 L 19.623307,22.083049 L 21.125372,22.297787 L 22.684472,22.473485 L 24.243576,22.629661 L 25.840705,22.766312 L 27.45685,22.863921 L 29.053981,22.942009 L 30.689136,23.000574 L 32.324296,23.000574 L 32.324296,23.000574 L 33.940437,23.000574 L 35.575597,22.942009 L 37.191738,22.863921 L 38.788867,22.766312 L 40.385997,22.629661 L 41.964114,22.473485 L 43.504204,22.297787 L 45.006267,22.083049 L 46.489316,21.829265 L 47.934339,21.575486 L 49.341334,21.263135 L 50.710303,20.950787 L 52.022232,20.599396 L 53.296132,20.248007 L 54.493981,19.857571 L 55.6538,19.447613 L 56.75658,18.998611 L 57.783307,18.549609 L 58.752993,18.100608 L 59.646626,17.593043 L 60.464203,17.085479 L 61.224742,16.597435 L 61.909226,16.070348 L 62.517657,15.523736 L 63.050034,14.957605 L 63.487345,14.410996 L 63.867612,13.825344 L 64.152814,13.278734 L 64.342949,12.693081 L 64.457031,12.12695 L 64.514069,11.541297" style="fill:url(#linearGradient2216);fill-opacity:1;stroke:none;stroke-width:0.01928605;stroke-miterlimit:4;stroke-dasharray:none;stroke-opacity:1"/>
    <path id="path4819" d="M 33.023738,8.6936939 L 37.664889,10.327433 L 48.909313,5.4458969 L 53.946665,7.0599533 L 51.229891,3.0248142 L 38.061087,3.0248142 L 43.475766,4.225514 L 33.023738,8.6936939" style="fill:#000000;stroke:none;stroke-width:0.001"/>
    <path id="path4821" d="M 31.08049,13.161874 L 26.439334,11.528132 L 15.591104,16.429352 L 10.176425,14.775929 L 12.874332,19.244109 L 26.439334,19.244109 L 20.628458,17.630052 L 31.08049,13.161874" style="fill:#000000;stroke:none;stroke-width:0.001"/>
    <path id="path4823" d="M 11.327278,4.225514 L 15.968435,2.611458 L 27.212859,7.0599533 L 32.25021,5.8592533 L 29.552303,9.8943939 L 16.364632,9.8943939 L 21.779313,8.6936939 L 11.327278,4.225514" style="fill:#000000;stroke:none;stroke-width:0.001"/>
    <path id="path4825" d="M 53.154272,18.023723 L 48.513117,19.657467 L 37.664889,14.775929 L 32.25021,16.429352 L 34.966985,12.33516 L 48.513117,12.33516 L 42.70224,13.555544 L 53.154272,18.023723" style="fill:#000000;stroke:none;stroke-width:0.001"/>
    <path id="path4827" d="M 33.419936,9.1070493 L 38.061087,10.721105 L 49.286643,5.8592533 L 54.323994,7.4929926 L 51.60722,3.4184854 L 38.438415,3.4184854 L 43.871962,4.6191872 L 33.419936,9.1070493" style="fill:#ffffff;stroke:none;stroke-width:0.001"/>
    <path id="path4829" d="M 31.476681,13.555544 L 26.816665,11.941487 L 15.968435,16.803341 L 10.553753,15.189284 L 13.25166,19.657467 L 26.816665,19.657467 L 21.005786,18.023723 L 31.476681,13.555544" style="fill:#ffffff;stroke:none;stroke-width:0.001"/>
    <path id="path4831" d="M 11.723476,4.6191872 L 16.364632,3.0248142 L 27.609055,7.4929926 L 32.627541,6.2529266 L 29.929634,10.327433 L 16.741963,10.327433 L 22.175509,9.1070493 L 11.723476,4.6191872" style="fill:#ffffff;stroke:none;stroke-width:0.001"/>
    <path id="path4833" d="M 53.531602,18.43708 L 48.909313,20.070823 L 38.061087,15.189284 L 32.627541,16.803341 L 35.344315,12.7682 L 48.909313,12.7682 L 43.098437,13.9689 L 53.531602,18.43708" style="fill:#ffffff;stroke:none;stroke-width:0.001"/>
  </g>
  <g transform="matrix(0.059769, 0, 0, 0.066697, 21.302736, 26.330629)">
    <g transform="matrix(1,0,0,1,7.5,7.5)">
      <g>
        <path d="M 125.25 40.347 C 140.522 14.219 168.408 -3.654 200.529 -4.892 C 201.714 -4.938 202.904 -4.961 204.1 -4.961 L 217.098 -4.041 C 251.366 0.854 279.522 24.815 290.461 56.74 C 294.455 55.896 298.597 55.453 302.841 55.453 C 335.818 55.453 362.591 82.226 362.591 115.203 C 362.591 148.18 335.818 174.953 302.841 174.953 L 158.914 174.956 L 55.471 174.958 C 26.28 174.958 2.58 151.258 2.58 122.067 C 2.58 92.876 26.28 69.176 55.471 69.176 C 59.085 69.176 62.615 69.539 66.026 70.232 C 78.145 52.171 98.752 40.275 122.116 40.275 C 123.167 40.275 124.212 40.299 125.25 40.347 Z" style="fill: none; stroke-width: 14px; stroke: rgb(255, 255, 255);"/>
      </g>
    </g>
  </g>
</svg>