<?xml version="1.0" encoding="UTF-8" standalone="no"?>
<!-- Created with Inkscape (http://www.inkscape.org/) -->

<svg
   xmlns:v="http://schemas.microsoft.com/visio/2003/SVGExtensions/"
   xmlns:dc="http://purl.org/dc/elements/1.1/"
   xmlns:cc="http://creativecommons.org/ns#"
   xmlns:rdf="http://www.w3.org/1999/02/22-rdf-syntax-ns#"
   xmlns:svg="http://www.w3.org/2000/svg"
   xmlns="http://www.w3.org/2000/svg"
   xmlns:xlink="http://www.w3.org/1999/xlink"
   xmlns:sodipodi="http://sodipodi.sourceforge.net/DTD/sodipodi-0.dtd"
   xmlns:inkscape="http://www.inkscape.org/namespaces/inkscape"
   id="svg1998"
   sodipodi:version="0.32"
   inkscape:version="0.91 r13725"
   width="51.358818"
   height="47.630692"
   version="1.0"
   sodipodi:docname="vmx.svg"
   inkscape:output_extension="org.inkscape.output.svg.inkscape"
   sodipodi:modified="true">
  <metadata
     id="metadata2003">
    <rdf:RDF>
      <cc:Work
         rdf:about="">
        <dc:format>image/svg+xml</dc:format>
        <dc:type
           rdf:resource="http://purl.org/dc/dcmitype/StillImage" />
        <cc:license
           rdf:resource="http://creativecommons.org/licenses/GPL/2.0/" />
        <dc:title />
        <dc:creator>
          <cc:Agent>
            <dc:title>Jeremy Grossmann</dc:title>
          </cc:Agent>
        </dc:creator>
        <dc:description>Created for the GNS-3 project (www.gns3.net)</dc:description>
        <dc:publisher>
          <cc:Agent>
            <dc:title>GNS-3</dc:title>
          </cc:Agent>
        </dc:publisher>
      </cc:Work>
      <cc:License
         rdf:about="http://creativecommons.org/licenses/GPL/2.0/">
        <cc:permits
           rdf:resource="http://web.resource.org/cc/Reproduction" />
        <cc:permits
           rdf:resource="http://web.resource.org/cc/Distribution" />
        <cc:requires
           rdf:resource="http://web.resource.org/cc/Notice" />
        <cc:permits
           rdf:resource="http://web.resource.org/cc/DerivativeWorks" />
        <cc:requires
           rdf:resource="http://web.resource.org/cc/ShareAlike" />
        <cc:requires
           rdf:resource="http://web.resource.org/cc/SourceCode" />
      </cc:License>
    </rdf:RDF>
  </metadata>
  <defs
     id="defs2001">
    <linearGradient
       inkscape:collect="always"
       id="linearGradient10123">
      <stop
         style="stop-color:#e4405c;stop-opacity:1;"
         offset="0"
         id="stop10125" />
      <stop
         style="stop-color:#e4405c;stop-opacity:0;"
         offset="1"
         id="stop10127" />
    </linearGradient>
    <linearGradient
       id="linearGradient8331">
      <stop
         style="stop-color:#6e8caa;stop-opacity:1;"
         offset="0"
         id="stop8333" />
      <stop
         style="stop-color:#dde3ef;stop-opacity:1;"
         offset="1"
         id="stop8335" />
    </linearGradient>
    <linearGradient
       inkscape:collect="always"
       id="linearGradient6603">
      <stop
         style="stop-color:#506eaa;stop-opacity:1;"
         offset="0"
         id="stop6605" />
      <stop
         style="stop-color:#506eaa;stop-opacity:0;"
         offset="1"
         id="stop6607" />
    </linearGradient>
    <linearGradient
       inkscape:collect="always"
       id="linearGradient6587">
      <stop
         style="stop-color:#506eaa;stop-opacity:1;"
         offset="0"
         id="stop6589" />
      <stop
         style="stop-color:#506eaa;stop-opacity:0;"
         offset="1"
         id="stop6591" />
    </linearGradient>
    <marker
       inkscape:stockid="Arrow2Lstart"
       orient="auto"
       refY="0"
       refX="0"
       id="Arrow2Lstart"
       style="overflow:visible">
      <path
         id="path11918"
         style="font-size:12px;fill-rule:evenodd;stroke-width:0.625;stroke-linejoin:round"
         d="M 8.7185878,4.0337352 L -2.2072895,0.016013256 L 8.7185884,-4.0017078 C 6.97309,-1.6296469 6.9831476,1.6157441 8.7185878,4.0337352 z "
         transform="matrix(1.1,0,0,1.1,1.1,0)" />
    </marker>
    <marker
       inkscape:stockid="Arrow1Send"
       orient="auto"
       refY="0"
       refX="0"
       id="Arrow1Send"
       style="overflow:visible">
      <path
         id="path11921"
         d="M 0,0 L 5,-5 L -12.5,0 L 5,5 L 0,0 z "
         style="fill-rule:evenodd;stroke:black;stroke-width:1pt;marker-start:none"
         transform="matrix(-0.2,0,0,-0.2,-1.2,0)" />
    </marker>
    <marker
       inkscape:stockid="Arrow1Lstart"
       orient="auto"
       refY="0"
       refX="0"
       id="Arrow1Lstart"
       style="overflow:visible">
      <path
         id="path11936"
         d="M 0,0 L 5,-5 L -12.5,0 L 5,5 L 0,0 z "
         style="fill-rule:evenodd;stroke:black;stroke-width:1pt;marker-start:none"
         transform="matrix(0.8,0,0,0.8,10,0)" />
    </marker>
    <linearGradient
       inkscape:collect="always"
       xlink:href="#linearGradient6587"
       id="linearGradient6593"
       x1="3.95626"
       y1="0.64267641"
       x2="-1.2664427"
       y2="0.62730032"
       gradientUnits="userSpaceOnUse"
       gradientTransform="matrix(1.060042,0,0,1.074658,-3.942481e-3,-0.356572)" />
    <linearGradient
       inkscape:collect="always"
       xlink:href="#linearGradient6603"
       id="linearGradient6609"
       x1="2.2801981"
       y1="1.4519272"
       x2="-0.41311559"
       y2="1.4649135"
       gradientUnits="userSpaceOnUse"
       gradientTransform="matrix(1.060042,0,0,1.074658,-3.942482e-3,-0.356572)" />
    <linearGradient
       inkscape:collect="always"
       xlink:href="#linearGradient10123"
       id="linearGradient10129"
       x1="1.3990936"
       y1="1.4711363"
       x2="0.49966058"
       y2="0.56367606"
       gradientUnits="userSpaceOnUse"
       gradientTransform="matrix(1.117962,0,0,1.035008,-4.0973e-2,-6.788682e-3)" />
    <linearGradient
       inkscape:collect="always"
       xlink:href="#linearGradient8331"
       id="linearGradient6875"
       gradientUnits="userSpaceOnUse"
       gradientTransform="matrix(24.897735,0,0,25.405463,-9.0988193,-4.8632254)"
       x1="2.1178279"
       y1="0.30649999"
       x2="-0.4954865"
       y2="0.30649999" />
  </defs>
  <sodipodi:namedview
     inkscape:window-height="670"
     inkscape:window-width="1280"
     inkscape:pageshadow="2"
     inkscape:pageopacity="0.0"
     guidetolerance="10.0"
     gridtolerance="10.0"
     objecttolerance="10.0"
     borderopacity="1.0"
     bordercolor="#666666"
     pagecolor="#ffffff"
     id="base"
     showguides="true"
     inkscape:guide-bbox="true"
     inkscape:zoom="2.7915987"
     inkscape:cx="23.755426"
     inkscape:cy="-42.804631"
     inkscape:window-x="77"
     inkscape:window-y="25"
     inkscape:current-layer="svg1998"
     showgrid="false"
     inkscape:window-maximized="0" />
  <path
     id="path11907"
     d="M 1.8402723,44.565612 L 1.8402723,47.615693 L 44.293781,47.615693 L 44.293781,44.565612 L 1.8402723,44.565612"
     style="fill:#000000;fill-opacity:0.39215686;stroke:none;stroke-width:0.001" />
  <path
     id="path11020"
     d="M 44.370594,6.1851672 L 51.194316,1.0980117 L 51.358819,41.344844 L 44.266438,47.63069 L 44.370594,6.1851672"
     style="fill:#000000;fill-opacity:0.39215686;stroke:none;stroke-width:0.001"
     sodipodi:nodetypes="ccccc" />
  <path
     id="path2037"
     d="m 0.31579887,5.6624885 0,41.1710225 44.34519313,0 0,-41.1710225 -44.34519313,0"
     style="fill:#6e8caa;fill-opacity:1;stroke:none;stroke-width:0.001"
     inkscape:connector-curvature="0" />
  <path
     id="path2041"
     d="M -0.38461268,5.6292351 L 5.2920708,0.21786924 L 50.13289,0.21786924 L 44.406412,5.6292351 L -0.38461268,5.6292351"
     style="fill:url(#linearGradient6875);fill-opacity:1;stroke:none;stroke-width:0.001" />
  <path
     id="path2045"
     d="M 44.273363,5.1335036 L 49.931392,0.17309204 L 49.931392,41.393412 L 44.273363,46.353824 L 44.273363,5.1335036"
     style="fill:#6e8296;fill-opacity:1;stroke:none;stroke-width:0.001" />
  <g
     id="g3381"
     transform="translate(50.86691,-20.06019)">
    <g
       transform="matrix(0.1704237,0,0,0.1704237,-48.337546,-4.9946169)"
       id="shape2-2"
       v:mID="2"
       v:groupContext="shape">
      <title
         id="title14">Sheet.2</title>
      <path
         d="m 117,420.03 c 64.45,0 117,-52.56 117,-117 0,-64.45 -52.55,-117.02 -117,-117.02 -64.45,0 -117,52.57 -117,117.02 0,64.44 52.55,117 117,117 z"
         class="st1"
         id="path16"
         inkscape:connector-curvature="0"
         style="fill:#12537c;stroke:none;stroke-width:0.75;stroke-linecap:butt" />
    </g>
    <g
       style="stroke:#84b2dd;stroke-width:2.40000153;stroke-miterlimit:4;stroke-dasharray:none;stroke-opacity:1"
       transform="matrix(0.1704237,0,0,0.1704237,-48.337546,-4.9946169)"
       id="shape3-4"
       v:mID="3"
       v:groupContext="shape">
      <title
         id="title19">Sheet.3</title>
      <path
         d="m 117,420.03 c 64.45,0 117,-52.56 117,-117 0,-64.45 -52.55,-117.02 -117,-117.02 -64.45,0 -117,52.57 -117,117.02 0,64.44 52.55,117 117,117 z"
         class="st2"
         id="path21"
         inkscape:connector-curvature="0"
         style="fill:none;stroke:#84b2dd;stroke-width:2.40000153;stroke-linecap:butt;stroke-miterlimit:4;stroke-dasharray:none;stroke-opacity:1" />
    </g>
    <g
       style="stroke:#32425f;stroke-width:1.52000105;stroke-miterlimit:4;stroke-dasharray:none;stroke-opacity:1"
       id="shape4-6"
       v:mID="4"
       v:groupContext="shape"
       transform="matrix(0.1704237,0,0,0.1704237,-43.935853,-8.9257283)">
      <title
         id="title24">Sheet.4</title>
      <path
         d="m 82.44,318.48 -6.36,0 -72.74,0 0,-17.52 63.98,0 0,-37.34 -9.38,0 9.13,-15.81 7.06,-12.21 2.07,-3.59 9.14,15.8 9.12,15.81 -4.16,0 -5.46,0 0,46.09 0,8.77 -2.4,0 z m 73.95,5.68 0,-5.68 -45.5,0 -8.76,0 0,-2.41 0,-6.36 0,-72.21 17.52,0 0,63.45 36.73,0 0.01,-9.15 15.81,9.14 12.2,7.04 -1.2,2.09 1.2,-2.09 3.6,2.08 -15.8,9.13 -15.82,9.11 0,-4.14 0.01,0 z m -86.67,93.62 0,-2.4 2.4,0 -2.4,0 0,2.4 -2.4,0 0,-63.46 -35.71,0 0,9.59 -15.81,-9.13 -15.8,-9.12 15.8,-9.14 15.81,-9.12 0,4.16 0,5.25 44.47,0 8.76,0 0,2.4 0,6.36 0,72.21 -15.12,0 z m 41.16,-2.56 2.08,-1.2 -2.08,1.2 z m -9.13,-11 -9.12,-15.81 4.16,0 5.34,-0.01 0,-42.83 0,-8.76 2.4,0 6.36,0 72.73,0 0,17.51 -63.96,0 0,34.09 9.48,0 -9.13,15.82 -7.04,12.2 -2.08,3.6 -9.14,-15.81 z"
         class="st3"
         id="path26"
         inkscape:connector-curvature="0"
         style="fill:#ffffff;stroke:#32425f;stroke-width:1.52000105;stroke-linecap:butt;stroke-miterlimit:4;stroke-dasharray:none;stroke-opacity:1" />
    </g>
  </g>
</svg>
