<?xml version="1.0" encoding="UTF-8" standalone="no"?>
<!DOCTYPE svg PUBLIC "-//W3C//DTD SVG 1.1//EN" "http://www.w3.org/Graphics/SVG/1.1/DTD/svg11.dtd">
<svg xmlns="http://www.w3.org/2000/svg" xmlns:xl="http://www.w3.org/1999/xlink" version="1.1" viewBox="36 365 38 38" width="38pt" height="38pt" xmlns:dc="http://purl.org/dc/elements/1.1/">
  <metadata> Produced by OmniGraffle 7.4 
    <dc:date>2017-07-08 22:25:20 +0000</dc:date>
  </metadata>
  <defs/>
  <g stroke="none" stroke-opacity="1" stroke-dasharray="none" fill="none" fill-opacity="1">
    <title>Canvas 1</title>
    <rect fill="white" width="1" height="1"/>
    <g>
      <title>Layer 1</title>
      <path d="M 55.00075 402.273 C 65.065 402.273 73.2715 394.065 73.2715 384.00075 C 73.2715 373.9365 65.065 365.727 55.00075 365.727 C 44.93575 365.727 36.7285 373.9365 36.7285 384.00075 C 36.7285 394.065 44.93575 402.273 55.00075 402.273 Z" fill="#12537c"/>
      <path d="M 55.00075 402.273 C 65.065 402.273 73.2715 394.065 73.2715 384.00075 C 73.2715 373.9365 65.065 365.727 55.00075 365.727 C 44.93575 365.727 36.7285 373.9365 36.7285 384.00075 C 36.7285 394.065 44.93575 402.273 55.00075 402.273 Z" stroke="#bcbec0" stroke-linecap="butt" stroke-linejoin="miter" stroke-width="1.125"/>
      <path d="M 53.194 382.81126 L 52.201 382.81126 L 40.8415 382.81126 L 40.8415 380.07526 L 50.83375 380.07526 L 50.83375 374.24476 L 49.36825 374.24476 L 50.79475 371.775 L 51.89725 369.86926 L 52.2205 369.3075 L 53.64775 371.775 L 55.07125 374.24476 L 54.42175 374.24476 L 53.569 374.24476 L 53.569 381.4425 L 53.569 382.81126 L 53.194 382.81126 L 53.194 382.81126 Z M 64.7425 383.6985 L 64.7425 382.81126 L 57.637 382.81126 L 56.269 382.81126 L 56.269 382.43626 L 56.269 381.4425 L 56.269 370.16626 L 59.005 370.16626 L 59.005 380.07376 L 64.74175 380.07376 L 64.74325 378.645 L 67.2115 380.07226 L 69.118 381.17176 L 68.9305 381.498 L 69.118 381.17176 L 69.67975 381.4965 L 67.2115 382.923 L 64.74175 384.34576 L 64.74175 383.6985 L 64.7425 383.6985 Z M 51.20875 398.31976 L 51.20875 397.94476 L 51.58375 397.94476 L 51.20875 397.94476 L 51.20875 398.31976 L 50.83375 398.31976 L 50.83375 388.4085 L 45.25675 388.4085 L 45.25675 389.907 L 42.787 388.4805 L 40.32025 387.057 L 42.787 385.62976 L 45.25675 384.2055 L 45.25675 384.855 L 45.25675 385.67476 L 52.201 385.67476 L 53.569 385.67476 L 53.569 386.04976 L 53.569 387.042 L 53.569 398.31976 L 51.20875 398.31976 L 51.20875 398.31976 Z M 57.63625 397.92 L 57.961 397.7325 L 57.63625 397.92 L 57.63625 397.92 Z M 56.2105 396.20176 L 54.78625 393.732 L 55.435 393.732 L 56.26975 393.7305 L 56.26975 387.042 L 56.26975 385.67476 L 56.64475 385.67476 L 57.63775 385.67476 L 68.99575 385.67476 L 68.99575 388.40926 L 59.0065 388.40926 L 59.0065 393.73276 L 60.48775 393.73276 L 59.062 396.2025 L 57.96175 398.10826 L 57.637 398.67076 L 56.2105 396.20176 L 56.2105 396.20176 Z" fill="white"/>
    </g>
  </g>
</svg>
