<?xml version="1.0" encoding="UTF-8" standalone="no"?>
<svg
   xmlns:dc="http://purl.org/dc/elements/1.1/"
   xmlns:cc="http://creativecommons.org/ns#"
   xmlns:rdf="http://www.w3.org/1999/02/22-rdf-syntax-ns#"
   xmlns:svg="http://www.w3.org/2000/svg"
   xmlns="http://www.w3.org/2000/svg"
   xmlns:xlink="http://www.w3.org/1999/xlink"
   xmlns:sodipodi="http://sodipodi.sourceforge.net/DTD/sodipodi-0.dtd"
   xmlns:inkscape="http://www.inkscape.org/namespaces/inkscape"
   version="1.0"
   width="70.00013"
   height="44.285007"
   id="svg2"
   inkscape:version="0.91 r13725"
   sodipodi:docname="opensuse.svg">
  <metadata
     id="metadata29">
    <rdf:RDF>
      <cc:Work
         rdf:about="">
        <dc:format>image/svg+xml</dc:format>
        <dc:type
           rdf:resource="http://purl.org/dc/dcmitype/StillImage" />
        <dc:title></dc:title>
      </cc:Work>
    </rdf:RDF>
  </metadata>
  <defs
     id="defs27" />
  <sodipodi:namedview
     pagecolor="#ffffff"
     bordercolor="#666666"
     borderopacity="1"
     objecttolerance="10"
     gridtolerance="10"
     guidetolerance="10"
     inkscape:pageopacity="0"
     inkscape:pageshadow="2"
     inkscape:window-width="2495"
     inkscape:window-height="1056"
     id="namedview25"
     showgrid="false"
     fit-margin-top="0"
     fit-margin-left="0"
     fit-margin-right="0"
     fit-margin-bottom="0"
     inkscape:zoom="2.6257672"
     inkscape:cx="10.160224"
     inkscape:cy="17.860616"
     inkscape:window-x="1985"
     inkscape:window-y="24"
     inkscape:window-maximized="1"
     inkscape:current-layer="layer1" />
  <g
     inkscape:groupmode="layer"
     id="layer1"
     inkscape:label="Logo">
    <rect
       style="fill:#ffffff;stroke:#ffffff;stroke-opacity:1"
       id="rect4169"
       width="70.265175"
       height="44.939247"
       x="0.19042054"
       y="-0.27339759" />
    <path
       d="m 61.241669,11.174955 c -1.53878,-0.05651 -2.74666,-1.3536628 -2.69527,-2.8946458 0.0237,-0.746062 0.34262,-1.435659 0.88457,-1.944803 0.54415,-0.508997 1.25487,-0.773944 2.00093,-0.745877 1.54098,0.05393 2.7492,1.348923 2.69744,2.892257 -0.0233,0.743712 -0.33788,1.433269 -0.88203,1.9446168 -0.54669,0.506794 -1.25741,0.771779 -2.00568,0.748452 l 4e-5,0 z m 0.64765,-2.5312428 c 0.68485,0 1.24065,-0.370493 1.24065,-0.825521 0,-0.457417 -0.55583,-0.828099 -1.24065,-0.828099 -0.68519,0 -1.23883,0.370682 -1.23883,0.828099 0,0.455028 0.55364,0.825521 1.23883,0.825521"
       style="fill:#73ba25;fill-rule:nonzero"
       id="path4"
       inkscape:connector-curvature="0" />
    <path
       d="m 29.583689,27.224557 0.099,-0.0093 0.0161,-0.117267 c -0.0254,-0.09207 -0.0851,-0.174814 -0.17734,-1.31622 -0.0783,-1.010192 -0.23705,-3.780477 1.1573,-5.154248 0.54092,-0.536129 1.36682,-1.012503 2.01823,-1.166597 2.67143,-0.651227 6.13906,-0.200223 9.10042,3.223814 1.52805,1.769386 2.27816,2.577052 2.6532,2.938324 l 0.12872,0.119605 0.15658,0.112799 c 0.12192,0.06901 5.08971,2.356252 5.08971,2.356252 l 0.10119,-0.02536 0.003,-0.107964 c -0.0322,-0.03683 -3.14766,-4.061499 -2.59561,-7.377169 0.43723,-2.641561 2.54022,-2.404543 5.44654,-2.073291 0.9503,0.108148 2.03181,0.232405 3.15016,0.257775 3.12225,0.01843 6.48658,-0.554502 8.55987,-1.461199 1.34145,-0.586685 2.19737,-0.973367 2.73364,-1.461201 0.19304,-0.158743 0.29423,-0.420982 0.39791,-0.697174 l 0.0715,-0.186275 c 0.0873,-0.223286 0.21381,-0.701824 0.26924,-0.961904 0.0254,-0.114958 0.0368,-0.239359 -0.044,-0.301379 l -0.28747,0.0529 c -0.90882,0.545386 -3.18482,1.585453 -5.31533,1.6269 -2.63926,0.05506 -7.95921,-2.65551 -8.51375,-2.943157 l -0.0529,-0.06202 c -0.1337,-0.317667 -0.93207,-2.20681 -1.10011,-2.6047298 3.8291,2.5218068 7.00425,3.9163408 9.43651,4.1326328 2.70611,0.24152 4.81623,-1.235605 5.71824,-1.866296 0.17697,-0.119605 0.31067,-0.216291 0.36574,-0.236868 l 0.0575,-0.09438 c -0.14981,-0.9503 -1.56489,-5.5523538 -2.63244,-6.6569298 -0.29674,-0.303721 -0.53379,-0.598143 -1.0125,-0.878983 -3.86805,-2.254915 -13.05144,-3.61726601 -13.48154,-3.67928501 l -0.0737,0.02072 -0.0275,0.06436 c 0,0 -0.0347,1.90524801 -0.0393,2.11707701 -0.93888,-0.31302 -7.75649,-2.51518001 -14.14906,-2.73828401 -5.41861,-0.19096 -12.82114,-0.448735 -23.28162,5.98029301 l -0.30837,0.193229 C 8.301909,9.3132972 4.905588,13.096264 3.129245,17.495785 2.572399,18.878675 1.822322,22.001299 2.5631,24.939623 c 0.322136,1.286385 0.918119,2.574894 1.723624,3.730064 1.815516,2.609233 4.864295,4.342157 8.147825,4.634235 4.63423,0.414027 8.14566,-1.668197 9.39503,-5.566303 0.85822,-2.689846 0,-6.636023 -3.29048,-8.649421 -2.67609,-1.640665 -5.55701,-1.265625 -7.22524,-0.16339 -1.44959,0.961757 -2.27099,2.452795 -2.25492,4.093494 0.0322,2.906146 2.53807,4.452427 4.33751,4.454768 0.52448,0 1.04915,-0.08973 1.64282,-0.282961 0.20953,-0.06454 0.40957,-0.142636 0.62817,-0.278498 l 0.0669,-0.0436 0.0436,-0.02536 -0.0161,0.007 c 0.41187,-0.27619 0.66034,-0.731663 0.66034,-1.219534 0,-0.133517 -0.0207,-0.269233 -0.0575,-0.405058 -0.21165,-0.734002 -0.93888,-1.180362 -1.6936,-1.042375 l -0.10119,0.02071 -0.13803,0.04595 -0.20022,0.06685 c -0.41417,0.103501 -0.72719,0.110495 -0.79155,0.112617 -0.21165,-0.01378 -1.24956,-0.324258 -1.24956,-1.461018 l 0,-0.01375 c 0.003,-0.416521 0.17035,-0.708781 0.26242,-0.867525 0.3198,-0.50625 1.20343,-1.003203 2.39756,-0.897398 1.56488,0.133371 2.69233,0.936537 3.4401,2.450637 0.69502,1.408114 0.51325,3.138548 -0.46711,4.408641 -0.97336,1.258854 -2.70592,1.792635 -5.01162,1.541632 -2.32407,-0.255286 -4.28903,-1.592231 -5.38895,-3.674634 -1.076867,-2.034155 -1.136762,-4.447961 -0.154099,-6.302429 2.353949,-4.441006 6.797079,-4.39506 9.233979,-3.973892 3.60797,0.623516 6.88234,3.511241 8.3389,7.351799 0.2324,0.612089 0.35197,1.097582 0.45547,1.539326 l 0.15658,0.664993 4.0749,1.99033 0.0554,0.03914 1.1e-4,-3.7e-5 z M 58.548909,5.5489272 c -0.76831,0.713245 -1.20807,1.686612 -1.24491,2.735942 -0.0711,2.1628418 1.62709,3.9853128 3.78978,4.0659648 1.05399,0.03449 2.05253,-0.336085 2.81872,-1.05398 0.76619,-0.715592 1.20592,-1.6866118 1.2449,-2.7336368 0.0737,-2.165181 -1.62459,-3.989959 -3.79189,-4.06809 -1.04933,-0.03448 -2.05041,0.335905 -2.8166,1.0538"
       style="fill:#73ba25;fill-rule:evenodd"
       id="path6"
       inkscape:connector-curvature="0" />
    <path
       d="m 69.880729,32.589151 -0.0455,0 c -0.0526,0 -0.0982,-0.04561 -0.0982,-0.09822 l 0,-0.704859 -0.15433,0.234949 c -0.0175,0.02452 -0.0491,0.03502 -0.0771,0.03502 l -0.0176,0 c -0.028,0 -0.0596,-0.01051 -0.0771,-0.03502 l -0.15784,-0.234949 0,0.704859 c 0,0.05261 -0.0456,0.09822 -0.10172,0.09822 l -0.0455,0 c -0.0526,0 -0.0982,-0.04561 -0.0982,-0.09822 l 0,-0.841684 -0.4735,0 0,0.841684 c 0,0.05261 -0.0491,0.09822 -0.10513,0.09822 l -0.0421,0 c -0.0526,0 -0.0982,-0.04561 -0.0982,-0.09822 l 0,-0.841684 -0.35418,0 c -0.0526,0 -0.0947,-0.03511 -0.0947,-0.09113 l 0,-0.0491 c 0,-0.05611 0.0421,-0.09122 0.0947,-0.09122 l 1.24147,0 c 0.0491,0 0.0806,0.0175 0.0982,0.04561 l 0.23494,0.35418 0.23496,-0.35418 c 0.0175,-0.0246 0.0456,-0.04561 0.0982,-0.04561 l 0.15783,0 0,1.080139 c 0,0.05261 -0.0491,0.09822 -0.10522,0.09822"
       style="fill:#73ba25"
       id="path8"
       inkscape:connector-curvature="0" />
    <path
       d="m 29.287079,31.112727 c -1.69737,0 -2.63727,1.437818 -2.63727,2.433833 l 0,1.276578 c 0,1.462418 1.19586,2.370719 2.3076,2.370719 l 3.89275,0 c 0.48751,0 0.58922,0.319076 0.58922,0.589128 l 0,0.824177 c 0,0.08763 -0.014,0.880293 -0.58922,0.880293 l -5.31306,0 c -0.52611,0 -0.9083,0.364684 -0.9083,0.866189 l 0,0.227955 c 0,0.498004 0.37869,0.866282 0.9083,0.866282 l 5.60422,0 c 1.46242,0 2.40932,-1.017113 2.40932,-2.595259 l 0,-1.378208 c 0,-1.480014 -1.06613,-2.142767 -2.12176,-2.142767 l -3.82964,0 c -0.57871,0 -0.83818,-0.427891 -0.83818,-0.736464 l 0,-0.757558 c 0,-0.480409 0.31908,-0.753967 0.8802,-0.753967 l 4.24352,0 c 0.51902,0 0.9083,-0.371774 0.9083,-0.866282 l 0,-0.227952 c 0,-0.491002 -0.39629,-0.866195 -0.9258,-0.866195 l -4.5732,0"
       id="S"
       style="fill:#73ba25"
       inkscape:connector-curvature="0" />
    <path
       d="m 45.219449,31.112727 c -0.50151,0 -0.9083,0.40679 -0.9083,0.908297 l 0,6.523027 c 0,0.519012 -0.42438,0.939901 -0.9399,0.939901 l -2.95994,0 c -0.51902,0 -0.93991,-0.420889 -0.93991,-0.939901 l 0,-6.523027 c 0,-0.501507 -0.40328,-0.908297 -0.9083,-0.908297 l -0.28756,0 c -0.50501,0 -0.9083,0.399788 -0.9083,0.908297 l 0,6.771984 c 0,1.574646 1.23797,2.717986 2.94585,2.717986 l 3.16338,0 c 1.70788,0 2.94585,-1.14334 2.94585,-2.717986 l 0,-6.771984 c 0,-0.508509 -0.39979,-0.908297 -0.9083,-0.908297 l -0.28757,0"
       style="fill:#73ba25"
       id="path11"
       inkscape:connector-curvature="0" />
    <use
       style=""
       transform="translate(21.601409,1.9460253e-7)"
       xlink:href="#S"
       id="use13"
       x="0"
       y="0"
       width="100%"
       height="100%" />
    <path
       d="m 59.843639,31.112727 c -0.50142,0 -0.8872,0.371687 -0.8872,0.866189 l 0,8.602683 c 0,0.491002 0.37169,0.866282 0.86969,0.866282 l 6.8562,0 c 0.52611,0 0.90839,-0.364775 0.90839,-0.866282 l 0,-0.227955 c 0,-0.498005 -0.37878,-0.866189 -0.90839,-0.866189 0,0 -5.36217,0 -5.61472,0 0,-0.22445 0,-1.967432 0,-2.191882 0.25255,0 4.11379,0 4.11379,0 0.52602,0 0.9083,-0.364772 0.9083,-0.869784 l 0,-0.224447 c 0,-0.50151 -0.38228,-0.869695 -0.9083,-0.869695 0,0 -3.86124,0 -4.11379,0 0,-0.224446 0,-2.027045 0,-2.251491 0.25255,0 5.33066,0 5.33066,0 0.52611,0 0.90839,-0.364772 0.90839,-0.866283 l 0,-0.227949 c 0,-0.50151 -0.38228,-0.866192 -0.90839,-0.866192 l -6.55103,0"
       style="fill:#73ba25"
       id="path15"
       inkscape:connector-curvature="0" />
    <path
       d="M 1.553608,35.20533 C 0.697896,35.20533 0,35.87167 0,36.695847 l 0,3.244006 c 0,0.834679 0.673347,1.51503 1.501007,1.51503 l 2.097187,0 c 0.82766,0 1.504508,-0.680351 1.504508,-1.51503 l 0,-3.244006 c 0,-0.820674 -0.697893,-1.490517 -1.553608,-1.490517 l -1.995486,0 z m -0.452408,4.608203 0,-2.959853 c 0,-0.347267 0.284072,-0.63133 0.631267,-0.63133 l 1.634267,0 c 0.340183,0 0.631258,0.287653 0.631258,0.63133 l 0,2.959853 c 0,0.34727 -0.284063,0.631328 -0.631258,0.631328 l -1.6483,0 c -0.347195,0 -0.617234,-0.277055 -0.617234,-0.631328"
       style="fill:#73ba25"
       id="path17"
       inkscape:connector-curvature="0" />
    <path
       d="m 9.858239,35.166812 c -0.60673,0 -1.05914,0.217447 -1.42738,0.392785 -0.22094,0.105135 -0.41382,0.196349 -0.56463,0.196349 -0.0631,0 -0.12274,-0.02801 -0.15431,-0.07712 l -0.13677,-0.266555 c -0.0316,-0.07012 -0.17185,-0.206939 -0.347194,-0.206939 l -0.203405,0 c -0.196393,0 -0.357718,0.175426 -0.357718,0.396282 l 0,8.223993 c 0,0.25596 0.199904,0.4594 0.45942,0.4594 l 0.178859,0 c 0.252508,0 0.459418,-0.20694 0.459418,-0.4594 l 0,-2.728494 c 0,-0.08062 0.0526,-0.164836 0.1017,-0.164836 0.15081,0 0.34369,0.08422 0.56814,0.189437 0.36473,0.164833 0.82065,0.375187 1.42738,0.375187 l 0.18934,0 c 1.06963,0 1.73598,-0.610142 1.73598,-1.592149 l 0,-3.138784 c 0,-0.967914 -0.68035,-1.595655 -1.73598,-1.595655 l -0.19285,0 0,0 0,-0.0035 z m -2.09722,4.583605 0,-2.830121 c 0,-0.389282 0.30512,-0.694443 0.69439,-0.694443 l 1.52906,0 c 0.38929,0 0.69436,0.305161 0.69436,0.694443 l 0,2.830121 c 0,0.38228 -0.30857,0.694444 -0.69436,0.694444 l -1.52906,0 c -0.38226,0 -0.69439,-0.312164 -0.69439,-0.694444"
       style="fill:#73ba25"
       id="path19"
       inkscape:connector-curvature="0" />
    <path
       d="m 14.894249,35.20533 c -0.85569,0 -1.55354,0.66634 -1.55354,1.490517 l 0,3.219406 c 0,0.834678 0.67684,1.54313 1.47642,1.54313 l 2.16386,0 c 0.26647,0 0.45941,-0.182431 0.45941,-0.434891 l 0,-0.140328 c 0,-0.25246 -0.19294,-0.434798 -0.45941,-0.434798 l -1.77458,0 c -0.49801,0 -0.76106,-0.242048 -0.76106,-0.708452 0,0 0,-0.810083 0,-0.939903 0.14383,0 3.20549,0 3.20549,0 0.51201,0 0.82059,-0.315574 0.82059,-0.848684 l 0,-1.248475 c 0,-0.820676 -0.69786,-1.490432 -1.55355,-1.490432 l -2.02004,0 -0.004,-0.0071 z m -0.4524,1.634257 c 0,-0.343679 0.27006,-0.617237 0.61723,-0.617237 l 1.68687,0 c 0.34727,0 0.61724,0.270055 0.61724,0.617237 0,0 0,0.873282 0,1.003018 -0.13674,0 -2.78452,0 -2.92134,0 0,-0.129736 0,-1.003018 0,-1.003018"
       style="fill:#73ba25"
       id="path21"
       inkscape:connector-curvature="0" />
    <path
       d="m 22.932389,35.166812 c -0.60322,0 -1.05913,0.213944 -1.4239,0.389285 -0.22795,0.105135 -0.4243,0.199849 -0.58213,0.199849 -0.0701,0 -0.0982,-0.007 -0.15083,-0.101723 l -0.12623,-0.231452 c -0.0701,-0.143735 -0.19285,-0.217441 -0.36118,-0.217441 l -0.17894,0 c -0.21385,0 -0.36818,0.16483 -0.36818,0.396282 l 0,5.393777 c 0,0.256053 0.20335,0.462994 0.4594,0.462994 l 0.17884,0 c 0.25255,0 0.4594,-0.206941 0.4594,-0.462994 l 0,-4.082095 c 0,-0.38228 0.31217,-0.694444 0.69445,-0.694444 l 1.52904,0 c 0.38228,0 0.69435,0.312164 0.69435,0.694444 l 0,4.082095 c 0,0.256053 0.20344,0.462994 0.45949,0.462994 l 0.17884,0 c 0.25246,0 0.45941,-0.206941 0.45941,-0.462994 l 0,-4.232926 c 0,-0.967911 -0.68035,-1.595651 -1.73598,-1.595651 l -0.19285,0"
       style="fill:#73ba25"
       id="path23"
       inkscape:connector-curvature="0" />
  </g>
</svg>
