<?xml version="1.0" encoding="UTF-8" standalone="no"?>
<!-- Generator: Adobe Illustrator 16.0.0, SVG Export Plug-In . SVG Version: 6.00 Build 0)  -->

<svg
   xmlns:dc="http://purl.org/dc/elements/1.1/"
   xmlns:cc="http://creativecommons.org/ns#"
   xmlns:rdf="http://www.w3.org/1999/02/22-rdf-syntax-ns#"
   xmlns:svg="http://www.w3.org/2000/svg"
   xmlns="http://www.w3.org/2000/svg"
   xmlns:sodipodi="http://sodipodi.sourceforge.net/DTD/sodipodi-0.dtd"
   xmlns:inkscape="http://www.inkscape.org/namespaces/inkscape"
   version="1.1"
   x="0px"
   y="0px"
   width="105"
   height="70"
   viewBox="0 0 105 70"
   enable-background="new 0 0 400 300"
   xml:space="preserve"
   id="svg2"
   inkscape:version="0.47 r22583"
   sodipodi:docname="ostinato-3d-icon.svg"><title
   id="title2858">Ostinato</title><metadata
   id="metadata27"><rdf:RDF><cc:Work
       rdf:about=""><dc:format>image/svg+xml</dc:format><dc:type
         rdf:resource="http://purl.org/dc/dcmitype/StillImage" /><dc:title>Ostinato</dc:title></cc:Work></rdf:RDF></metadata><defs
   id="defs25"><inkscape:perspective
     sodipodi:type="inkscape:persp3d"
     inkscape:vp_x="0 : 150 : 1"
     inkscape:vp_y="0 : 1000 : 0"
     inkscape:vp_z="400 : 150 : 1"
     inkscape:persp3d-origin="200 : 100 : 1"
     id="perspective29" /></defs><sodipodi:namedview
   pagecolor="#ffffff"
   bordercolor="#666666"
   borderopacity="1"
   objecttolerance="10"
   gridtolerance="10"
   guidetolerance="10"
   inkscape:pageopacity="0"
   inkscape:pageshadow="2"
   inkscape:window-width="1920"
   inkscape:window-height="1024"
   id="namedview23"
   showgrid="false"
   inkscape:zoom="11.442857"
   inkscape:cx="64.556804"
   inkscape:cy="35"
   inkscape:window-x="-4"
   inkscape:window-y="-4"
   inkscape:window-maximized="1"
   inkscape:current-layer="svg2" />


<g
   id="g2835"
   transform="matrix(0.29470367,0,0,0.29470367,-7.2010588,-8.8501045)"><g
     id="_x33_D_Base">
	<path
   id="path5"
   d="m 371.564,143.856 c -0.19,0.357 -0.396,0.709 -0.613,1.057 -0.037,0.06 -0.076,0.12 -0.113,0.18 -0.21,0.329 -0.429,0.654 -0.662,0.975 -0.017,0.023 -0.034,0.046 -0.052,0.069 -0.243,0.332 -0.5,0.66 -0.769,0.982 -0.021,0.024 -0.04,0.048 -0.061,0.072 -0.278,0.331 -0.57,0.657 -0.875,0.979 -0.014,0.015 -0.028,0.03 -0.043,0.045 -0.312,0.328 -0.639,0.651 -0.979,0.968 -0.011,0.009 -0.021,0.018 -0.03,0.027 -0.346,0.321 -0.705,0.637 -1.079,0.947 -0.003,0.003 -0.007,0.005 -0.01,0.008 -0.373,0.31 -0.762,0.613 -1.163,0.912 -0.014,0.01 -0.027,0.021 -0.041,0.03 -0.397,0.295 -0.809,0.584 -1.233,0.867 -0.016,0.011 -0.032,0.021 -0.048,0.032 -0.426,0.283 -0.863,0.561 -1.316,0.833 -0.014,0.009 -0.029,0.018 -0.044,0.026 -0.453,0.271 -0.921,0.538 -1.401,0.8 -0.018,0.01 -0.036,0.02 -0.055,0.029 -0.48,0.261 -0.975,0.516 -1.482,0.765 -0.018,0.009 -0.035,0.018 -0.053,0.025 -0.51,0.25 -1.033,0.495 -1.57,0.733 -0.015,0.007 -0.028,0.013 -0.043,0.02 -0.543,0.241 -1.101,0.477 -1.671,0.706 -0.013,0.005 -0.024,0.01 -0.037,0.015 -0.565,0.228 -1.145,0.448 -1.737,0.665 -0.025,0.009 -0.052,0.019 -0.078,0.028 -1.214,0.441 -2.482,0.859 -3.808,1.253 l -0.115,40.758 c 0.017,-0.005 0.034,-0.01 0.052,-0.015 0.146,-0.044 0.293,-0.089 0.439,-0.133 0.146,-0.045 0.29,-0.09 0.435,-0.135 0.145,-0.045 0.288,-0.09 0.431,-0.136 0.141,-0.045 0.28,-0.09 0.419,-0.135 0.06,-0.02 0.119,-0.039 0.179,-0.059 0.008,-0.003 0.016,-0.005 0.023,-0.008 0.067,-0.022 0.137,-0.045 0.204,-0.067 0.135,-0.045 0.269,-0.09 0.402,-0.136 0.134,-0.045 0.267,-0.091 0.398,-0.137 0.13,-0.045 0.258,-0.09 0.386,-0.136 0.127,-0.045 0.253,-0.09 0.378,-0.135 0.126,-0.046 0.25,-0.092 0.374,-0.137 0.125,-0.047 0.248,-0.093 0.371,-0.139 0.12,-0.046 0.24,-0.091 0.359,-0.137 0.119,-0.046 0.236,-0.092 0.354,-0.138 0.118,-0.046 0.234,-0.093 0.351,-0.139 0.116,-0.047 0.232,-0.094 0.348,-0.141 0.113,-0.046 0.226,-0.093 0.339,-0.14 0.111,-0.047 0.223,-0.094 0.333,-0.141 0.111,-0.047 0.222,-0.094 0.331,-0.141 0.109,-0.048 0.219,-0.096 0.327,-0.144 0.036,-0.017 0.072,-0.032 0.108,-0.049 0.007,-0.003 0.014,-0.006 0.02,-0.009 0.064,-0.028 0.129,-0.057 0.193,-0.086 0.106,-0.047 0.212,-0.095 0.316,-0.144 0.105,-0.048 0.21,-0.097 0.314,-0.145 0.104,-0.049 0.207,-0.098 0.311,-0.146 0.103,-0.05 0.205,-0.099 0.307,-0.148 0.053,-0.025 0.104,-0.051 0.156,-0.076 0.009,-0.005 0.018,-0.009 0.027,-0.014 0.04,-0.02 0.08,-0.039 0.12,-0.059 0.101,-0.05 0.2,-0.1 0.3,-0.149 0.1,-0.051 0.198,-0.101 0.297,-0.151 0.099,-0.05 0.197,-0.102 0.295,-0.153 0.098,-0.051 0.195,-0.103 0.292,-0.154 0.098,-0.052 0.193,-0.104 0.29,-0.156 0.096,-0.053 0.191,-0.105 0.286,-0.158 0.095,-0.053 0.189,-0.105 0.283,-0.159 0.096,-0.054 0.19,-0.108 0.284,-0.163 0.095,-0.054 0.188,-0.109 0.281,-0.164 0.094,-0.055 0.187,-0.11 0.278,-0.165 0.092,-0.056 0.184,-0.112 0.275,-0.168 0.093,-0.058 0.187,-0.115 0.278,-0.173 0.093,-0.059 0.185,-0.116 0.275,-0.175 0.092,-0.059 0.182,-0.117 0.272,-0.177 0.091,-0.059 0.181,-0.118 0.27,-0.178 0.093,-0.062 0.185,-0.125 0.276,-0.188 0.091,-0.062 0.182,-0.125 0.271,-0.188 0.09,-0.063 0.18,-0.126 0.268,-0.189 0.091,-0.065 0.181,-0.13 0.27,-0.195 0.093,-0.067 0.184,-0.136 0.275,-0.203 0.09,-0.068 0.181,-0.137 0.27,-0.206 0.09,-0.068 0.179,-0.138 0.267,-0.207 0.093,-0.073 0.185,-0.146 0.276,-0.221 0.091,-0.075 0.184,-0.149 0.275,-0.226 0.091,-0.075 0.181,-0.151 0.271,-0.228 0.093,-0.079 0.185,-0.159 0.275,-0.239 0.096,-0.084 0.19,-0.168 0.284,-0.253 0.082,-0.074 0.163,-0.149 0.244,-0.224 10e-4,-0.001 0.002,-0.003 0.003,-0.004 0.011,-0.009 0.021,-0.019 0.03,-0.027 0.096,-0.089 0.189,-0.179 0.282,-0.268 0.1,-0.097 0.198,-0.192 0.295,-0.29 0.098,-0.097 0.193,-0.194 0.288,-0.292 0.033,-0.034 0.065,-0.069 0.098,-0.104 0.013,-0.013 0.025,-0.026 0.038,-0.04 0.056,-0.059 0.112,-0.116 0.167,-0.176 0.104,-0.112 0.207,-0.226 0.309,-0.339 0.104,-0.117 0.207,-0.234 0.308,-0.353 0.032,-0.038 0.063,-0.077 0.097,-0.116 0.019,-0.021 0.036,-0.044 0.055,-0.065 0.062,-0.075 0.125,-0.148 0.186,-0.224 0.112,-0.139 0.223,-0.278 0.33,-0.418 0.084,-0.109 0.164,-0.22 0.244,-0.329 0.024,-0.033 0.049,-0.065 0.073,-0.099 0.019,-0.025 0.038,-0.051 0.057,-0.076 0.134,-0.186 0.263,-0.372 0.389,-0.561 0.069,-0.104 0.134,-0.21 0.201,-0.315 0.04,-0.063 0.081,-0.126 0.121,-0.19 0.032,-0.052 0.067,-0.103 0.099,-0.154 0.168,-0.276 0.328,-0.556 0.479,-0.837 0.012,-0.021 0.022,-0.043 0.034,-0.063 1.178,-2.244 1.77,-4.482 1.776,-6.706 l 0.115,-40.758 c -0.006,2.232 -0.598,4.47 -1.776,6.713 z"
   style="fill:#58595b" />
	<path
   id="path7"
   d="m 165.558,215.588 c -0.519,-0.081 -1.038,-0.165 -1.554,-0.25 -0.822,-0.137 -1.641,-0.278 -2.458,-0.424 -0.492,-0.088 -0.985,-0.174 -1.476,-0.265 -0.614,-0.114 -1.228,-0.237 -1.841,-0.356 -0.888,-0.174 -1.776,-0.349 -2.665,-0.534 -1.112,-0.232 -2.224,-0.467 -3.341,-0.719 -1.71,-0.4 -3.419,-0.829 -5.125,-1.282 -0.095,-0.025 -0.19,-0.052 -0.285,-0.077 -1.609,-0.43 -3.216,-0.883 -4.822,-1.359 -0.139,-0.041 -0.278,-0.083 -0.417,-0.124 -1.663,-0.497 -3.323,-1.016 -4.98,-1.562 -0.008,-0.002 -0.016,-0.005 -0.023,-0.008 -1.682,-0.555 -3.361,-1.136 -5.038,-1.741 -0.069,-0.024 -0.139,-0.05 -0.208,-0.074 -1.642,-0.595 -3.281,-1.215 -4.917,-1.857 -0.097,-0.038 -0.194,-0.076 -0.292,-0.114 -1.625,-0.643 -3.248,-1.308 -4.867,-1.997 -0.084,-0.036 -0.169,-0.071 -0.254,-0.107 -1.631,-0.697 -3.259,-1.418 -4.882,-2.163 -0.069,-0.031 -0.138,-0.062 -0.208,-0.094 -1.672,-0.77 -3.34,-1.562 -5.003,-2.382 -1.423,-0.696 -2.82,-1.41 -4.196,-2.141 -0.061,-0.032 -0.122,-0.064 -0.182,-0.097 -1.372,-0.731 -2.721,-1.478 -4.043,-2.241 -0.958,-0.553 -1.902,-1.116 -2.835,-1.687 -0.06,-0.036 -0.119,-0.072 -0.179,-0.109 -0.901,-0.553 -1.791,-1.114 -2.668,-1.684 -0.058,-0.038 -0.116,-0.076 -0.174,-0.113 -0.876,-0.571 -1.74,-1.149 -2.593,-1.736 -0.049,-0.034 -0.099,-0.067 -0.148,-0.102 -0.862,-0.596 -1.712,-1.2 -2.55,-1.812 -0.039,-0.028 -0.078,-0.057 -0.116,-0.085 -0.837,-0.613 -1.662,-1.235 -2.474,-1.865 -0.043,-0.033 -0.086,-0.066 -0.129,-0.1 -0.819,-0.637 -1.625,-1.281 -2.418,-1.935 -0.022,-0.019 -0.044,-0.036 -0.066,-0.055 -0.002,-10e-4 -0.003,-0.003 -0.005,-0.004 -0.809,-0.667 -1.604,-1.343 -2.386,-2.027 -0.021,-0.018 -0.041,-0.035 -0.061,-0.053 -0.772,-0.677 -1.532,-1.362 -2.278,-2.056 -0.029,-0.027 -0.058,-0.055 -0.086,-0.081 -0.749,-0.698 -1.485,-1.403 -2.208,-2.118 -0.003,-0.003 -0.006,-0.006 -0.009,-0.009 -0.724,-0.716 -1.434,-1.441 -2.131,-2.175 -0.022,-0.022 -0.044,-0.046 -0.066,-0.068 -0.678,-0.715 -1.342,-1.438 -1.995,-2.167 -0.043,-0.049 -0.087,-0.098 -0.131,-0.146 -0.641,-0.721 -1.27,-1.448 -1.885,-2.185 -0.047,-0.057 -0.095,-0.112 -0.142,-0.169 -0.618,-0.741 -1.223,-1.489 -1.815,-2.245 -0.035,-0.044 -0.069,-0.089 -0.104,-0.134 -0.577,-0.74 -1.143,-1.487 -1.695,-2.242 -0.043,-0.059 -0.086,-0.117 -0.129,-0.176 -0.563,-0.772 -1.114,-1.552 -1.652,-2.339 -0.042,-0.062 -0.084,-0.125 -0.126,-0.188 -0.543,-0.799 -1.075,-1.605 -1.592,-2.42 -0.004,-0.007 -0.008,-0.014 -0.012,-0.021 -0.003,-0.005 -0.006,-0.01 -0.009,-0.015 -0.275,-0.453 -0.552,-0.905 -0.815,-1.357 L 64.684,198.7 c 0.025,0.044 0.052,0.089 0.078,0.133 0.161,0.274 0.326,0.548 0.492,0.822 0.084,0.139 0.169,0.278 0.254,0.418 0.004,0.007 0.009,0.014 0.013,0.021 0.144,0.226 0.288,0.451 0.434,0.677 0.231,0.358 0.466,0.715 0.703,1.07 0.152,0.229 0.306,0.454 0.46,0.681 0.038,0.056 0.075,0.112 0.113,0.167 0.043,0.063 0.085,0.127 0.128,0.189 0.234,0.341 0.471,0.68 0.709,1.019 0.233,0.329 0.468,0.658 0.706,0.985 0.04,0.055 0.081,0.109 0.121,0.164 0.038,0.053 0.077,0.104 0.115,0.156 0.159,0.217 0.317,0.435 0.479,0.65 0.235,0.314 0.472,0.628 0.711,0.94 0.169,0.221 0.34,0.439 0.511,0.658 0.038,0.048 0.074,0.097 0.112,0.145 0.033,0.041 0.064,0.083 0.097,0.124 0.238,0.303 0.477,0.604 0.718,0.902 0.239,0.297 0.48,0.593 0.724,0.887 0.09,0.109 0.183,0.218 0.273,0.327 0.047,0.057 0.095,0.113 0.142,0.17 0.104,0.123 0.206,0.248 0.311,0.371 0.241,0.284 0.484,0.568 0.729,0.851 0.243,0.28 0.487,0.559 0.733,0.837 0.044,0.05 0.09,0.1 0.134,0.149 0.027,0.03 0.054,0.06 0.08,0.09 0.172,0.193 0.345,0.386 0.519,0.578 0.246,0.271 0.493,0.54 0.742,0.809 0.245,0.264 0.491,0.526 0.739,0.787 0.008,0.009 0.016,0.017 0.024,0.025 0.021,0.023 0.044,0.046 0.065,0.068 0.219,0.23 0.438,0.46 0.659,0.688 0.248,0.256 0.497,0.51 0.748,0.764 0.25,0.252 0.501,0.504 0.754,0.754 0.251,0.248 0.504,0.496 0.759,0.742 0.252,0.244 0.506,0.487 0.761,0.729 0.238,0.226 0.477,0.45 0.717,0.673 0.002,0.002 0.004,0.004 0.006,0.006 0.016,0.015 0.032,0.03 0.048,0.045 0.255,0.236 0.512,0.473 0.77,0.707 0.258,0.235 0.518,0.469 0.779,0.702 0.24,0.214 0.481,0.427 0.723,0.639 0.015,0.013 0.029,0.025 0.043,0.038 0.005,0.005 0.01,0.009 0.015,0.014 0.261,0.229 0.524,0.456 0.788,0.683 0.264,0.227 0.528,0.451 0.795,0.676 0.265,0.223 0.531,0.444 0.799,0.665 0.268,0.221 0.537,0.44 0.807,0.659 0.269,0.218 0.54,0.435 0.812,0.65 0.272,0.215 0.545,0.431 0.82,0.645 0.028,0.022 0.057,0.044 0.085,0.066 0.011,0.008 0.021,0.016 0.031,0.023 0.236,0.183 0.473,0.366 0.711,0.548 0.276,0.211 0.554,0.422 0.834,0.631 0.279,0.209 0.56,0.418 0.842,0.625 0.051,0.038 0.104,0.075 0.155,0.112 0.031,0.023 0.063,0.046 0.095,0.069 0.2,0.146 0.4,0.293 0.602,0.438 0.285,0.206 0.571,0.41 0.859,0.614 0.288,0.204 0.578,0.406 0.869,0.608 0.083,0.058 0.166,0.114 0.249,0.171 0.034,0.023 0.068,0.047 0.102,0.07 0.176,0.121 0.351,0.243 0.528,0.363 0.294,0.2 0.59,0.399 0.887,0.599 0.299,0.199 0.599,0.397 0.9,0.596 0.115,0.075 0.231,0.149 0.347,0.225 0.034,0.022 0.068,0.045 0.103,0.066 0.153,0.1 0.306,0.2 0.46,0.299 0.305,0.196 0.612,0.393 0.921,0.587 0.31,0.195 0.622,0.391 0.935,0.584 0.141,0.088 0.283,0.174 0.425,0.261 0.031,0.019 0.061,0.037 0.092,0.057 0.142,0.087 0.284,0.175 0.427,0.262 0.32,0.193 0.641,0.387 0.964,0.579 0.323,0.192 0.648,0.383 0.974,0.573 0.172,0.101 0.344,0.2 0.517,0.3 0.156,0.091 0.312,0.181 0.469,0.271 0.333,0.19 0.668,0.38 1.005,0.568 0.339,0.19 0.68,0.379 1.021,0.567 0.345,0.189 0.691,0.378 1.04,0.565 0.184,0.099 0.369,0.196 0.554,0.295 0.03,0.016 0.061,0.032 0.091,0.048 0.138,0.073 0.275,0.147 0.414,0.221 0.358,0.188 0.717,0.376 1.078,0.562 0.364,0.188 0.73,0.375 1.098,0.562 0.372,0.188 0.746,0.374 1.121,0.56 0.176,0.087 0.353,0.174 0.53,0.261 0.39,0.192 0.781,0.383 1.171,0.572 0.62,0.301 1.241,0.599 1.862,0.892 0.55,0.26 1.1,0.518 1.65,0.771 0.11,0.051 0.22,0.101 0.33,0.15 0.059,0.027 0.117,0.054 0.175,0.08 0.383,0.177 0.767,0.353 1.151,0.526 0.555,0.25 1.11,0.497 1.666,0.742 0.558,0.246 1.117,0.489 1.677,0.729 0.134,0.058 0.268,0.113 0.402,0.17 0.092,0.04 0.184,0.078 0.276,0.118 0.337,0.144 0.674,0.288 1.011,0.429 0.567,0.238 1.135,0.474 1.704,0.705 0.573,0.234 1.147,0.466 1.721,0.693 0.139,0.056 0.278,0.108 0.417,0.163 0.098,0.039 0.196,0.077 0.294,0.115 0.343,0.136 0.687,0.271 1.031,0.404 v -0.015 l 0,0 v 0.016 c 0.589,0.227 1.178,0.451 1.768,0.673 0.599,0.225 1.199,0.446 1.799,0.665 0.105,0.038 0.211,0.075 0.317,0.113 0.067,0.024 0.135,0.049 0.202,0.073 0.438,0.158 0.875,0.316 1.313,0.471 0.624,0.22 1.248,0.437 1.873,0.649 0.614,0.21 1.229,0.415 1.843,0.618 0.016,0.005 0.031,0.011 0.047,0.016 0.01,0.003 0.02,0.007 0.03,0.01 0.659,0.217 1.318,0.431 1.977,0.64 0.682,0.216 1.363,0.428 2.046,0.636 0.306,0.094 0.612,0.183 0.918,0.274 0.136,0.04 0.272,0.081 0.409,0.121 0.268,0.08 0.535,0.162 0.803,0.24 0.745,0.217 1.491,0.43 2.236,0.637 0.579,0.161 1.159,0.315 1.738,0.471 0.124,0.033 0.247,0.067 0.371,0.1 0.087,0.023 0.174,0.049 0.262,0.071 0.847,0.224 1.695,0.44 2.543,0.651 0.763,0.189 1.526,0.373 2.29,0.553 0.892,0.201 1.782,0.396 2.67,0.584 0.231,0.049 0.461,0.091 0.692,0.139 0.88,0.184 1.761,0.356 2.64,0.528 0.421,0.082 0.843,0.174 1.265,0.253 0.192,0.036 0.385,0.068 0.578,0.104 0.485,0.09 0.972,0.175 1.458,0.262 0.833,0.148 1.667,0.293 2.504,0.432 0.505,0.083 1.013,0.165 1.521,0.245 0.371,0.059 0.738,0.122 1.11,0.179 0.763,0.116 1.529,0.229 2.299,0.338 l 0.115,-40.758 c -1.151,-0.161 -2.28,-0.336 -3.408,-0.515 z"
   style="fill:#6d6e71" />
	<path
   id="path9"
   d="m 59.722,156.564 c -0.62,-0.2 -1.223,-0.403 -1.816,-0.607 -0.104,-0.036 -0.208,-0.072 -0.311,-0.108 -0.555,-0.193 -1.1,-0.388 -1.632,-0.586 -0.043,-0.016 -0.088,-0.032 -0.132,-0.049 -0.571,-0.213 -1.13,-0.429 -1.676,-0.646 -0.046,-0.019 -0.092,-0.037 -0.137,-0.056 -0.553,-0.222 -1.096,-0.446 -1.625,-0.674 -0.003,-0.001 -0.006,-0.002 -0.009,-0.004 -0.541,-0.232 -1.069,-0.469 -1.587,-0.709 -0.029,-0.013 -0.058,-0.026 -0.086,-0.04 -0.496,-0.23 -0.981,-0.464 -1.458,-0.7 -0.036,-0.019 -0.072,-0.036 -0.108,-0.055 -0.471,-0.235 -0.933,-0.475 -1.385,-0.717 -0.027,-0.015 -0.054,-0.028 -0.081,-0.043 -0.475,-0.256 -0.94,-0.515 -1.397,-0.778 -0.828,-0.478 -1.626,-0.97 -2.396,-1.475 -0.438,-0.299 -0.86,-0.6 -1.271,-0.902 -0.008,-0.006 -0.017,-0.012 -0.025,-0.019 -0.401,-0.296 -0.79,-0.594 -1.164,-0.893 -0.014,-0.011 -0.028,-0.022 -0.042,-0.033 -0.369,-0.295 -0.726,-0.592 -1.069,-0.89 -0.014,-0.012 -0.027,-0.023 -0.041,-0.035 -0.347,-0.302 -0.682,-0.605 -1.003,-0.91 -0.008,-0.008 -0.016,-0.016 -0.024,-0.023 -0.317,-0.302 -0.622,-0.604 -0.913,-0.909 -0.012,-0.013 -0.025,-0.025 -0.037,-0.039 -0.292,-0.307 -0.572,-0.615 -0.839,-0.924 -0.007,-0.008 -0.013,-0.015 -0.02,-0.023 -0.269,-0.313 -0.525,-0.627 -0.767,-0.943 -0.002,-0.003 -0.005,-0.006 -0.008,-0.01 -0.243,-0.316 -0.472,-0.634 -0.688,-0.954 -0.005,-0.008 -0.01,-0.015 -0.015,-0.022 -0.215,-0.318 -0.416,-0.638 -0.604,-0.959 -0.004,-0.006 -0.008,-0.013 -0.012,-0.02 -0.186,-0.317 -0.357,-0.636 -0.517,-0.956 -0.006,-0.013 -0.013,-0.025 -0.019,-0.038 -0.157,-0.317 -0.301,-0.636 -0.433,-0.956 -0.005,-0.013 -0.01,-0.025 -0.016,-0.038 -0.131,-0.322 -0.25,-0.646 -0.356,-0.971 -0.003,-0.009 -0.005,-0.018 -0.008,-0.027 -0.104,-0.32 -0.194,-0.642 -0.272,-0.965 -0.005,-0.018 -0.009,-0.036 -0.014,-0.054 -0.076,-0.319 -0.14,-0.641 -0.191,-0.962 -0.003,-0.019 -0.006,-0.037 -0.009,-0.055 -0.05,-0.32 -0.087,-0.642 -0.113,-0.965 -0.002,-0.031 -0.004,-0.062 -0.006,-0.092 -0.023,-0.326 -0.037,-0.652 -0.036,-0.98 -0.038,13.587 -0.077,27.172 -0.115,40.758 0,0.083 0,0.165 0.001,0.247 0.002,0.16 0.008,0.32 0.017,0.48 0.005,0.09 0.012,0.179 0.019,0.268 0.002,0.022 0.003,0.045 0.005,0.067 0.002,0.035 0.004,0.07 0.007,0.105 0.012,0.134 0.025,0.267 0.042,0.399 0.016,0.132 0.033,0.264 0.053,0.395 0.004,0.025 0.009,0.052 0.013,0.077 0.002,0.017 0.005,0.032 0.008,0.049 0.012,0.072 0.022,0.145 0.035,0.217 v -0.039 c 0,0 0,0.001 0,0.002 v 0.037 c 0.02,0.114 0.042,0.229 0.065,0.342 0.022,0.111 0.047,0.222 0.072,0.332 0.007,0.029 0.015,0.06 0.022,0.089 0.002,0.009 0.004,0.018 0.006,0.026 0.015,0.062 0.03,0.124 0.045,0.187 0.026,0.101 0.053,0.201 0.082,0.301 0.028,0.1 0.057,0.199 0.087,0.299 0.021,0.065 0.042,0.131 0.063,0.196 0.002,0.009 0.005,0.017 0.008,0.025 0.005,0.017 0.011,0.033 0.016,0.05 0.03,0.091 0.061,0.182 0.093,0.272 0.032,0.09 0.064,0.181 0.099,0.271 0.032,0.086 0.065,0.172 0.1,0.259 0.017,0.042 0.034,0.083 0.051,0.125 0.004,0.01 0.008,0.02 0.013,0.03 0.013,0.031 0.025,0.062 0.039,0.094 0.035,0.084 0.07,0.167 0.107,0.25 0.037,0.083 0.074,0.166 0.113,0.249 0.036,0.078 0.074,0.157 0.112,0.236 0.022,0.046 0.045,0.092 0.068,0.139 0.003,0.006 0.006,0.013 0.01,0.02 0.012,0.025 0.024,0.05 0.037,0.075 0.039,0.077 0.079,0.155 0.12,0.232 0.041,0.078 0.083,0.155 0.125,0.233 0.041,0.074 0.082,0.148 0.124,0.224 0.042,0.073 0.084,0.147 0.128,0.222 0.044,0.075 0.087,0.147 0.132,0.222 0.045,0.073 0.09,0.146 0.136,0.22 v 10e-4 c 0.045,0.072 0.091,0.145 0.138,0.216 0.047,0.071 0.093,0.143 0.141,0.214 0.019,0.028 0.039,0.057 0.058,0.085 0.004,0.007 0.009,0.014 0.013,0.021 0.024,0.036 0.048,0.072 0.073,0.108 0.049,0.07 0.099,0.142 0.148,0.213 0.05,0.07 0.1,0.141 0.151,0.211 0.051,0.069 0.102,0.14 0.154,0.209 0.052,0.069 0.104,0.139 0.157,0.208 0.002,0.003 0.005,0.007 0.008,0.011 0,0 0,0 0,0 0.051,0.065 0.102,0.132 0.153,0.197 0.055,0.069 0.109,0.139 0.165,0.208 0.056,0.068 0.112,0.138 0.168,0.206 0.056,0.068 0.114,0.137 0.172,0.206 0.038,0.045 0.077,0.09 0.116,0.135 0.004,0.005 0.009,0.011 0.013,0.016 0.016,0.019 0.031,0.036 0.047,0.055 0.06,0.068 0.119,0.137 0.18,0.205 0.061,0.068 0.123,0.138 0.185,0.206 0.062,0.068 0.125,0.137 0.189,0.205 0.064,0.068 0.128,0.138 0.193,0.206 0.019,0.021 0.039,0.04 0.058,0.061 0.006,0.006 0.012,0.012 0.018,0.019 0.04,0.041 0.08,0.083 0.121,0.125 0.066,0.069 0.134,0.138 0.201,0.206 0.069,0.069 0.138,0.139 0.208,0.207 0.07,0.069 0.141,0.139 0.212,0.208 0.063,0.061 0.127,0.122 0.191,0.183 0.003,0.003 0.006,0.006 0.009,0.009 0.005,0.005 0.01,0.01 0.016,0.015 0.073,0.069 0.146,0.138 0.22,0.207 0.076,0.07 0.153,0.141 0.23,0.211 0.078,0.07 0.155,0.141 0.234,0.211 0.079,0.07 0.158,0.141 0.238,0.21 0.025,0.021 0.051,0.044 0.076,0.065 0.01,0.009 0.02,0.018 0.03,0.026 0.045,0.039 0.09,0.079 0.136,0.118 0.084,0.072 0.168,0.145 0.254,0.216 0.086,0.072 0.173,0.145 0.26,0.217 0.087,0.072 0.175,0.144 0.264,0.216 0.055,0.044 0.111,0.089 0.167,0.133 0.011,0.009 0.022,0.018 0.033,0.026 0.023,0.019 0.046,0.037 0.069,0.056 0.093,0.074 0.188,0.148 0.283,0.223 0.096,0.075 0.193,0.149 0.29,0.224 v -0.01 c 0,0.001 0,0.001 0,0.001 v 0.009 c 0.097,0.074 0.195,0.148 0.295,0.223 0.075,0.057 0.151,0.112 0.227,0.169 0.009,0.007 0.019,0.014 0.028,0.021 0.015,0.011 0.029,0.022 0.044,0.033 0.105,0.078 0.212,0.155 0.319,0.232 0.107,0.078 0.216,0.155 0.325,0.232 0.109,0.077 0.22,0.154 0.331,0.232 0.082,0.057 0.165,0.114 0.249,0.171 0.013,0.009 0.027,0.018 0.04,0.026 0.113,0.074 0.226,0.147 0.34,0.221 0.115,0.074 0.23,0.147 0.347,0.221 0.117,0.074 0.235,0.148 0.354,0.222 0.12,0.074 0.241,0.147 0.362,0.222 0.123,0.074 0.246,0.148 0.371,0.223 0.125,0.074 0.252,0.149 0.379,0.224 0.067,0.039 0.135,0.078 0.203,0.118 0.062,0.035 0.123,0.07 0.184,0.105 0.13,0.074 0.261,0.148 0.392,0.222 0.133,0.074 0.266,0.148 0.4,0.222 V 192.1 l 0,0 v 0.006 c 0.135,0.074 0.271,0.147 0.408,0.222 0.013,0.007 0.026,0.014 0.04,0.021 0.006,0.004 0.012,0.007 0.018,0.01 0.119,0.064 0.238,0.127 0.358,0.19 0.142,0.075 0.283,0.148 0.426,0.223 0.145,0.075 0.291,0.149 0.438,0.224 0.07,0.036 0.142,0.07 0.213,0.106 0.031,0.015 0.062,0.03 0.093,0.046 0.048,0.023 0.095,0.048 0.143,0.071 0.152,0.076 0.306,0.151 0.461,0.226 0.158,0.077 0.317,0.152 0.478,0.229 0.164,0.077 0.328,0.154 0.494,0.231 0.169,0.078 0.34,0.155 0.512,0.233 0.176,0.079 0.353,0.158 0.531,0.236 0.167,0.074 0.335,0.146 0.505,0.22 0.008,0.004 0.015,0.007 0.022,0.01 0.009,0.004 0.018,0.008 0.026,0.012 0.192,0.082 0.386,0.165 0.581,0.246 0.202,0.085 0.406,0.169 0.611,0.253 0.136,0.056 0.274,0.11 0.412,0.166 0.04,0.016 0.08,0.032 0.12,0.048 0.038,0.015 0.074,0.03 0.111,0.045 0.225,0.09 0.452,0.179 0.681,0.268 0.239,0.092 0.48,0.184 0.724,0.275 0.054,0.021 0.109,0.04 0.163,0.061 0.047,0.018 0.096,0.035 0.143,0.053 0.156,0.058 0.311,0.115 0.468,0.173 0.274,0.101 0.552,0.199 0.833,0.299 0.125,0.044 0.252,0.087 0.378,0.131 0.076,0.026 0.152,0.053 0.228,0.079 0.1,0.034 0.197,0.068 0.297,0.103 0.327,0.112 0.658,0.223 0.993,0.333 0.184,0.061 0.369,0.121 0.556,0.182 l 5.073,1.379 0.115,-40.758 -5.073,-1.388 z"
   style="fill:#58595b" />
	<path
   id="path11"
   d="m 217.288,219.073 c -0.007,0.006 -0.013,0.011 -0.019,0.016 -0.556,0.464 -1.158,0.915 -1.801,1.35 -0.004,0.002 -0.007,0.005 -0.011,0.007 -0.322,0.218 -0.655,0.432 -0.997,0.642 -1.843,1.025 -3.76,1.882 -5.747,2.576 -0.006,0.002 -0.012,0.004 -0.018,0.007 -0.656,0.229 -1.319,0.439 -1.99,0.633 -0.035,0.01 -0.07,0.021 -0.106,0.03 -0.114,0.032 -0.229,0.065 -0.344,0.097 -0.594,0.164 -1.193,0.313 -1.798,0.45 -0.014,0.003 -0.027,0.006 -0.041,0.01 -0.12,0.026 -0.239,0.052 -0.359,0.078 -0.057,0.012 -0.112,0.024 -0.17,0.036 -0.033,0.007 -0.067,0.014 -0.101,0.021 -0.144,0.03 -0.287,0.06 -0.432,0.088 -0.008,0.002 -0.016,0.003 -0.023,0.005 -1.659,0.325 -3.358,0.552 -5.095,0.684 -0.032,0.003 -0.064,0.005 -0.096,0.007 -0.566,0.042 -1.137,0.074 -1.712,0.096 -0.016,0 -0.032,0.001 -0.048,0.002 -0.596,0.021 -1.195,0.032 -1.799,0.033 -0.817,0 -1.625,-0.022 -2.426,-0.062 -0.069,-0.004 -0.139,-0.006 -0.208,-0.01 -0.702,-0.037 -1.395,-0.095 -2.083,-0.161 -0.527,-0.052 -1.045,-0.12 -1.563,-0.188 -0.346,-0.046 -0.696,-0.083 -1.038,-0.137 -0.144,-0.022 -0.285,-0.048 -0.427,-0.072 -0.683,-0.113 -1.36,-0.237 -2.025,-0.381 -0.18,-0.039 -0.361,-0.078 -0.54,-0.12 -0.154,-0.035 -0.306,-0.072 -0.459,-0.109 -0.764,-0.187 -1.515,-0.393 -2.251,-0.619 -0.01,-0.003 -0.021,-0.007 -0.031,-0.01 -0.745,-0.23 -1.474,-0.481 -2.187,-0.753 -0.003,-10e-4 -0.006,-0.002 -0.009,-0.003 -0.715,-0.272 -1.414,-0.565 -2.094,-0.879 -0.006,-0.003 -0.012,-0.006 -0.018,-0.008 -0.682,-0.314 -1.347,-0.649 -1.992,-1.004 -0.368,-0.222 -0.718,-0.44 -1.054,-0.657 -0.022,-0.015 -0.044,-0.029 -0.066,-0.043 -0.329,-0.214 -0.644,-0.427 -0.944,-0.638 -0.006,-0.005 -0.013,-0.01 -0.02,-0.014 -0.305,-0.215 -0.595,-0.429 -0.872,-0.643 -0.012,-0.009 -0.024,-0.019 -0.036,-0.027 -0.275,-0.214 -0.538,-0.426 -0.787,-0.639 -0.002,-0.002 -0.005,-0.004 -0.007,-0.006 -0.254,-0.218 -0.496,-0.435 -0.725,-0.652 -0.001,-0.001 -0.002,-0.002 -0.003,-0.003 -0.229,-0.218 -0.445,-0.436 -0.65,-0.655 -0.001,-0.001 -0.002,-0.002 -0.003,-0.004 -0.412,-0.44 -0.777,-0.885 -1.106,-1.339 l -0.115,40.758 c 0.005,0.008 0.01,0.015 0.016,0.021 0.033,0.046 0.066,0.092 0.101,0.137 0.034,0.045 0.068,0.09 0.102,0.136 0.034,0.044 0.068,0.087 0.102,0.131 0.034,0.044 0.069,0.087 0.104,0.131 0.03,0.037 0.061,0.074 0.091,0.111 0.004,0.005 0.008,0.011 0.013,0.016 l 0,0 c 0.035,0.043 0.07,0.085 0.106,0.127 0.035,0.042 0.071,0.083 0.106,0.124 0.036,0.042 0.072,0.083 0.108,0.124 0.036,0.041 0.073,0.082 0.11,0.122 0.037,0.041 0.074,0.082 0.112,0.122 0.009,0.01 0.019,0.021 0.028,0.03 0.006,0.006 0.011,0.012 0.017,0.019 0.022,0.024 0.045,0.048 0.068,0.072 0.038,0.04 0.076,0.08 0.115,0.12 0.039,0.04 0.078,0.08 0.118,0.12 0.04,0.04 0.08,0.079 0.12,0.119 0.041,0.04 0.081,0.08 0.123,0.12 0.028,0.027 0.057,0.055 0.086,0.082 0.011,0.01 0.021,0.021 0.032,0.03 0.002,0.002 0.004,0.005 0.007,0.007 0.042,0.04 0.084,0.08 0.127,0.12 0.043,0.04 0.087,0.08 0.131,0.12 0.044,0.041 0.089,0.081 0.134,0.121 0.046,0.041 0.092,0.081 0.138,0.122 0.046,0.04 0.094,0.081 0.141,0.122 0.009,0.008 0.019,0.016 0.027,0.023 0.005,0.004 0.01,0.008 0.015,0.013 0.034,0.029 0.068,0.058 0.104,0.088 0.049,0.041 0.099,0.083 0.149,0.124 0.051,0.042 0.103,0.084 0.155,0.127 v -10e-4 c 0.052,0.043 0.105,0.085 0.159,0.128 0.055,0.043 0.11,0.086 0.165,0.13 0.02,0.016 0.041,0.031 0.062,0.047 0.006,0.005 0.012,0.01 0.019,0.015 0.03,0.022 0.06,0.046 0.09,0.069 0.059,0.045 0.118,0.09 0.177,0.134 0.061,0.046 0.122,0.091 0.183,0.137 0.063,0.046 0.127,0.093 0.191,0.139 0.065,0.047 0.131,0.095 0.198,0.142 0.011,0.008 0.021,0.015 0.032,0.022 0.01,0.007 0.02,0.014 0.029,0.021 0.049,0.035 0.098,0.069 0.147,0.104 0.071,0.049 0.143,0.099 0.215,0.147 0.076,0.052 0.152,0.104 0.229,0.154 0.078,0.053 0.157,0.105 0.237,0.157 0.042,0.028 0.086,0.056 0.129,0.084 0.009,0.006 0.019,0.013 0.028,0.019 0.031,0.021 0.062,0.041 0.095,0.062 v -0.001 c 0.087,0.057 0.176,0.113 0.265,0.169 0.091,0.058 0.184,0.116 0.277,0.174 0.098,0.061 0.198,0.122 0.299,0.183 0.046,0.028 0.093,0.057 0.14,0.085 0.005,0.003 0.01,0.006 0.015,0.009 0.078,0.042 0.155,0.084 0.233,0.126 0.078,0.042 0.156,0.084 0.234,0.125 0.078,0.041 0.157,0.082 0.236,0.123 0.081,0.042 0.161,0.083 0.242,0.124 0.082,0.041 0.164,0.082 0.247,0.123 0.083,0.04 0.165,0.081 0.248,0.121 0.084,0.04 0.168,0.081 0.252,0.12 0.087,0.042 0.174,0.082 0.262,0.123 0.088,0.04 0.176,0.08 0.264,0.12 0.088,0.04 0.177,0.079 0.266,0.118 0.093,0.041 0.187,0.082 0.281,0.122 0.094,0.041 0.188,0.08 0.283,0.12 0.094,0.04 0.189,0.079 0.285,0.118 0.101,0.041 0.201,0.081 0.303,0.121 0.102,0.041 0.204,0.081 0.307,0.121 0.047,0.018 0.095,0.036 0.143,0.054 0.007,0.003 0.015,0.006 0.021,0.009 0.049,0.018 0.097,0.036 0.146,0.055 0.111,0.042 0.223,0.083 0.335,0.124 0.112,0.041 0.225,0.081 0.338,0.121 0.116,0.041 0.233,0.081 0.35,0.121 0.125,0.043 0.25,0.085 0.375,0.126 0.125,0.041 0.251,0.082 0.377,0.122 0.085,0.027 0.171,0.053 0.257,0.079 0.013,0.004 0.025,0.008 0.038,0.013 0.041,0.013 0.083,0.025 0.124,0.038 0.143,0.043 0.285,0.086 0.428,0.128 0.157,0.046 0.314,0.091 0.473,0.134 0.166,0.046 0.331,0.091 0.498,0.135 0.189,0.05 0.378,0.099 0.569,0.146 0.054,0.014 0.108,0.025 0.162,0.039 0.01,0.002 0.02,0.006 0.029,0.008 v -0.001 c 0.141,0.034 0.281,0.068 0.423,0.102 0.161,0.037 0.323,0.071 0.485,0.107 0,0 0,0 0,10e-4 0.015,0.003 0.03,0.005 0.044,0.009 0.072,0.016 0.143,0.031 0.214,0.047 0.312,0.066 0.626,0.129 0.943,0.188 0.299,0.056 0.604,0.104 0.907,0.153 0.125,0.021 0.25,0.044 0.375,0.063 0.089,0.015 0.176,0.031 0.265,0.045 0.291,0.044 0.591,0.068 0.885,0.106 0.481,0.062 0.962,0.127 1.451,0.175 0.101,0.01 0.199,0.026 0.3,0.036 0.528,0.048 1.061,0.087 1.597,0.118 0.077,0.004 0.155,0.007 0.232,0.011 0.052,0.003 0.104,0.005 0.157,0.007 0.219,0.011 0.437,0.022 0.657,0.03 0.285,0.011 0.571,0.019 0.857,0.023 0.243,0.005 0.487,0.008 0.732,0.009 0.069,0 0.138,0 0.207,0 0.145,0 0.288,-0.001 0.432,-0.002 0.2,-0.002 0.4,-0.005 0.6,-0.009 0.176,-0.004 0.351,-0.008 0.526,-0.014 0.074,-0.003 0.148,-0.006 0.222,-0.009 0.029,-0.001 0.059,-0.002 0.088,-0.003 0.069,-0.003 0.139,-0.005 0.208,-0.008 0.154,-0.006 0.307,-0.014 0.46,-0.021 0.149,-0.008 0.298,-0.016 0.447,-0.025 0.142,-0.009 0.283,-0.018 0.424,-0.027 0.061,-0.005 0.122,-0.01 0.182,-0.014 0.01,-0.001 0.02,-0.001 0.029,-0.002 0.008,-10e-4 0.015,-0.002 0.022,-0.002 0.054,-0.005 0.107,-0.009 0.16,-0.013 0.131,-0.01 0.262,-0.021 0.393,-0.032 0.122,-0.011 0.243,-0.021 0.364,-0.033 0.118,-0.012 0.235,-0.023 0.353,-0.035 0.117,-0.013 0.235,-0.025 0.352,-0.038 0.11,-0.013 0.22,-0.024 0.329,-0.038 0.107,-0.013 0.214,-0.025 0.321,-0.039 0.107,-0.014 0.213,-0.027 0.32,-0.042 0.103,-0.014 0.206,-0.028 0.308,-0.042 0.099,-0.015 0.198,-0.028 0.296,-0.043 0.099,-0.015 0.197,-0.03 0.296,-0.045 0.098,-0.016 0.196,-0.031 0.294,-0.047 0.093,-0.016 0.185,-0.03 0.277,-0.046 0.092,-0.016 0.184,-0.032 0.275,-0.048 0.092,-0.017 0.184,-0.033 0.275,-0.05 0.091,-0.017 0.181,-0.033 0.271,-0.051 0.087,-0.017 0.174,-0.033 0.262,-0.051 0.087,-0.017 0.174,-0.034 0.261,-0.052 0.073,-0.015 0.146,-0.03 0.219,-0.046 0.023,-0.005 0.048,-0.01 0.071,-0.015 0.047,-0.01 0.093,-0.021 0.14,-0.03 0.028,-0.007 0.058,-0.013 0.086,-0.019 0.083,-0.018 0.167,-0.036 0.25,-0.055 0.008,-0.002 0.016,-0.004 0.023,-0.005 0.01,-0.003 0.02,-0.005 0.029,-0.007 0.004,-0.001 0.008,-0.002 0.012,-0.003 0.062,-0.014 0.123,-0.027 0.185,-0.042 0.083,-0.02 0.166,-0.039 0.249,-0.059 0.082,-0.02 0.163,-0.039 0.245,-0.059 0.081,-0.02 0.161,-0.04 0.242,-0.06 0.08,-0.021 0.16,-0.041 0.24,-0.062 0.08,-0.021 0.16,-0.042 0.24,-0.062 0.08,-0.021 0.159,-0.043 0.239,-0.064 0.078,-0.021 0.157,-0.043 0.235,-0.064 0.079,-0.021 0.157,-0.044 0.235,-0.066 0.011,-0.003 0.022,-0.007 0.033,-0.01 0.029,-0.008 0.059,-0.016 0.088,-0.024 0.007,-0.002 0.014,-0.005 0.021,-0.007 0.031,-0.009 0.062,-0.018 0.093,-0.026 0.078,-0.022 0.156,-0.046 0.234,-0.068 0.077,-0.023 0.155,-0.047 0.232,-0.07 0.077,-0.023 0.154,-0.048 0.231,-0.071 0.077,-0.024 0.154,-0.049 0.231,-0.073 0.077,-0.024 0.154,-0.05 0.23,-0.074 0.077,-0.025 0.154,-0.051 0.231,-0.076 0.077,-0.026 0.154,-0.052 0.23,-0.078 0.077,-0.026 0.153,-0.053 0.23,-0.079 0.076,-0.026 0.152,-0.054 0.229,-0.08 0.077,-0.027 0.154,-0.056 0.23,-0.083 0.077,-0.028 0.155,-0.057 0.231,-0.085 0.077,-0.028 0.154,-0.058 0.231,-0.086 0.076,-0.029 0.153,-0.059 0.229,-0.088 0.078,-0.03 0.155,-0.06 0.233,-0.091 0.077,-0.03 0.155,-0.062 0.233,-0.093 0.078,-0.03 0.155,-0.062 0.233,-0.094 0.077,-0.031 0.155,-0.063 0.232,-0.096 0.079,-0.033 0.157,-0.066 0.236,-0.1 0.079,-0.034 0.159,-0.067 0.238,-0.102 0.079,-0.035 0.158,-0.069 0.237,-0.104 0.079,-0.034 0.158,-0.069 0.236,-0.105 0.081,-0.036 0.162,-0.073 0.243,-0.109 0.081,-0.038 0.162,-0.075 0.243,-0.113 0.082,-0.038 0.163,-0.076 0.244,-0.115 0.053,-0.025 0.107,-0.052 0.16,-0.077 0.007,-0.003 0.013,-0.006 0.019,-0.009 0.021,-0.01 0.042,-0.021 0.063,-0.03 0.084,-0.041 0.168,-0.082 0.252,-0.124 0.084,-0.041 0.168,-0.083 0.252,-0.125 0.084,-0.043 0.167,-0.085 0.251,-0.128 0.085,-0.044 0.17,-0.088 0.255,-0.133 0.087,-0.046 0.174,-0.092 0.262,-0.139 0.087,-0.046 0.174,-0.093 0.26,-0.141 0.085,-0.046 0.171,-0.093 0.255,-0.14 0.004,-0.003 0.009,-0.005 0.013,-0.007 0.007,-0.005 0.015,-0.01 0.022,-0.014 0.074,-0.046 0.148,-0.093 0.223,-0.139 0.074,-0.047 0.147,-0.093 0.221,-0.14 0.074,-0.047 0.146,-0.095 0.218,-0.142 0.073,-0.048 0.145,-0.096 0.217,-0.144 0.023,-0.016 0.047,-0.031 0.07,-0.048 0.021,-0.014 0.041,-0.027 0.062,-0.041 0.027,-0.019 0.055,-0.037 0.082,-0.056 0.071,-0.049 0.142,-0.098 0.212,-0.146 0.071,-0.05 0.141,-0.099 0.21,-0.148 0.07,-0.051 0.14,-0.101 0.209,-0.151 0.063,-0.047 0.126,-0.093 0.188,-0.14 0.005,-0.003 0.01,-0.007 0.015,-0.011 0.001,-10e-4 0.002,-10e-4 0.003,-0.002 0.068,-0.052 0.137,-0.104 0.204,-0.155 0.068,-0.053 0.136,-0.105 0.203,-0.158 0.067,-0.053 0.135,-0.106 0.201,-0.16 0.067,-0.055 0.134,-0.108 0.199,-0.163 0.016,-0.013 0.03,-0.025 0.045,-0.038 0.01,-0.008 0.019,-0.015 0.027,-0.022 0.042,-0.035 0.084,-0.071 0.126,-0.106 0.066,-0.057 0.132,-0.113 0.196,-0.17 0.066,-0.059 0.132,-0.116 0.196,-0.175 0.065,-0.06 0.13,-0.119 0.194,-0.179 0.025,-0.023 0.05,-0.047 0.074,-0.069 l 0.116,-40.759 c -0.242,0.236 -0.507,0.471 -0.782,0.702 z"
   style="fill:#58595b" />
	<path
   id="path13"
   d="m 349.493,159.472 c -0.582,0.941 -1.186,1.87 -1.804,2.791 -0.201,0.3 -0.413,0.594 -0.618,0.891 -0.435,0.63 -0.871,1.26 -1.323,1.88 -0.188,0.26 -0.384,0.517 -0.576,0.775 -0.471,0.632 -0.948,1.26 -1.437,1.882 -0.176,0.223 -0.35,0.445 -0.527,0.667 -0.642,0.802 -1.296,1.597 -1.968,2.382 -0.075,0.087 -0.152,0.173 -0.228,0.261 -0.689,0.798 -1.394,1.588 -2.114,2.368 -0.047,0.051 -0.093,0.103 -0.14,0.153 -0.759,0.818 -1.537,1.625 -2.331,2.423 -0.063,0.064 -0.126,0.129 -0.189,0.193 -0.823,0.823 -1.664,1.637 -2.524,2.438 -0.03,0.028 -0.062,0.057 -0.091,0.084 -0.838,0.778 -1.692,1.546 -2.563,2.304 -0.074,0.064 -0.149,0.129 -0.224,0.193 -0.887,0.767 -1.789,1.523 -2.711,2.269 -0.02,0.017 -0.04,0.032 -0.061,0.049 -0.94,0.759 -1.899,1.507 -2.876,2.243 -0.026,0.021 -0.053,0.04 -0.079,0.06 -0.969,0.73 -1.958,1.448 -2.963,2.155 -0.05,0.035 -0.099,0.07 -0.148,0.105 -1.016,0.712 -2.048,1.413 -3.099,2.102 -0.019,0.013 -0.036,0.024 -0.056,0.037 -1.059,0.693 -2.136,1.374 -3.23,2.045 -0.044,0.026 -0.088,0.053 -0.132,0.08 -1.085,0.662 -2.188,1.313 -3.309,1.953 -0.024,0.014 -0.048,0.027 -0.072,0.041 -1.138,0.648 -2.293,1.284 -3.467,1.908 -0.028,0.016 -0.057,0.03 -0.085,0.045 -1.183,0.628 -2.383,1.244 -3.602,1.848 -1.691,0.83 -3.386,1.635 -5.082,2.414 -0.006,0.002 -0.012,0.005 -0.017,0.008 -1.674,0.768 -3.351,1.51 -5.028,2.228 -0.044,0.019 -0.089,0.038 -0.134,0.058 -1.667,0.711 -3.335,1.397 -5.004,2.058 -0.035,0.014 -0.07,0.028 -0.105,0.042 -1.683,0.665 -3.366,1.305 -5.05,1.917 -0.013,0.005 -0.026,0.01 -0.039,0.015 -1.691,0.615 -3.383,1.203 -5.073,1.766 -0.027,0.01 -0.055,0.019 -0.082,0.027 -1.666,0.553 -3.331,1.08 -4.995,1.581 -0.051,0.016 -0.102,0.03 -0.152,0.046 -1.668,0.501 -3.336,0.976 -5,1.424 -0.034,0.01 -0.068,0.019 -0.103,0.027 -1.685,0.452 -3.367,0.879 -5.048,1.276 -1.75,0.406 -3.52,0.788 -5.306,1.149 -0.058,0.012 -0.115,0.023 -0.173,0.035 -1.757,0.353 -3.531,0.685 -5.322,0.994 -0.056,0.01 -0.112,0.02 -0.168,0.029 -1.789,0.308 -3.595,0.593 -5.416,0.856 -0.072,0.011 -0.145,0.021 -0.216,0.031 -1.831,0.264 -3.678,0.505 -5.539,0.724 -0.05,0.006 -0.099,0.012 -0.147,0.018 -1.844,0.215 -3.703,0.408 -5.575,0.58 -0.091,0.008 -0.181,0.017 -0.271,0.024 -1.846,0.168 -3.706,0.312 -5.578,0.438 -0.13,0.009 -0.26,0.018 -0.389,0.025 -1.888,0.123 -3.787,0.225 -5.701,0.304 -0.087,0.004 -0.175,0.007 -0.262,0.01 -1.952,0.079 -3.916,0.138 -5.893,0.171 l -0.116,40.759 c 0.339,-0.006 0.677,-0.013 1.014,-0.02 0.931,-0.02 1.859,-0.044 2.785,-0.074 0.673,-0.021 1.343,-0.048 2.014,-0.075 0.127,-0.005 0.255,-0.009 0.382,-0.014 0.061,-0.003 0.121,-0.004 0.182,-0.007 0.803,-0.033 1.604,-0.071 2.404,-0.113 0.755,-0.039 1.509,-0.082 2.26,-0.128 0.276,-0.017 0.551,-0.037 0.826,-0.055 0.127,-0.009 0.254,-0.017 0.38,-0.025 0.311,-0.021 0.622,-0.039 0.933,-0.062 0.681,-0.048 1.359,-0.099 2.035,-0.152 0.65,-0.052 1.299,-0.105 1.946,-0.162 0.225,-0.02 0.447,-0.041 0.671,-0.062 0.081,-0.007 0.161,-0.015 0.242,-0.022 0.316,-0.028 0.635,-0.057 0.951,-0.087 0.595,-0.058 1.188,-0.116 1.779,-0.178 0.574,-0.06 1.147,-0.122 1.719,-0.186 0.38,-0.043 0.758,-0.087 1.137,-0.131 0.054,-0.007 0.108,-0.013 0.162,-0.019 0.123,-0.015 0.246,-0.028 0.369,-0.043 0.539,-0.064 1.076,-0.131 1.612,-0.198 0.52,-0.066 1.037,-0.134 1.555,-0.203 0.507,-0.068 1.014,-0.138 1.519,-0.209 0.177,-0.025 0.352,-0.052 0.528,-0.077 0.04,-0.006 0.081,-0.012 0.121,-0.018 0.276,-0.04 0.554,-0.079 0.829,-0.12 0.479,-0.071 0.956,-0.144 1.432,-0.218 0.47,-0.073 0.938,-0.148 1.406,-0.225 0.457,-0.074 0.913,-0.15 1.368,-0.228 0.142,-0.023 0.282,-0.049 0.423,-0.073 0.059,-0.01 0.115,-0.02 0.173,-0.03 0.247,-0.042 0.495,-0.084 0.742,-0.128 0.439,-0.078 0.879,-0.156 1.317,-0.237 0.427,-0.078 0.853,-0.158 1.277,-0.239 0.422,-0.08 0.844,-0.161 1.264,-0.244 0.242,-0.048 0.482,-0.097 0.724,-0.146 0.056,-0.011 0.111,-0.022 0.167,-0.033 0.114,-0.023 0.229,-0.046 0.343,-0.069 0.406,-0.082 0.812,-0.166 1.215,-0.251 0.399,-0.084 0.798,-0.17 1.194,-0.256 0.322,-0.07 0.644,-0.141 0.965,-0.212 0.28,-0.062 0.561,-0.126 0.841,-0.189 0.25,-0.058 0.501,-0.115 0.751,-0.173 0.036,-0.009 0.073,-0.018 0.11,-0.026 0.354,-0.084 0.707,-0.169 1.061,-0.256 v 0.001 c 0.354,-0.087 0.709,-0.175 1.063,-0.264 0.355,-0.089 0.712,-0.18 1.068,-0.271 0.357,-0.092 0.715,-0.186 1.072,-0.279 v -0.001 c 0.217,-0.058 0.435,-0.116 0.651,-0.174 0.047,-0.013 0.094,-0.025 0.141,-0.038 0.096,-0.025 0.191,-0.05 0.287,-0.076 0.361,-0.098 0.722,-0.197 1.083,-0.298 0.364,-0.101 0.728,-0.203 1.092,-0.307 0.365,-0.104 0.73,-0.209 1.097,-0.315 0.368,-0.107 0.736,-0.216 1.104,-0.325 0.115,-0.034 0.23,-0.069 0.346,-0.104 0.032,-0.01 0.065,-0.02 0.098,-0.029 0.224,-0.067 0.447,-0.134 0.67,-0.202 0.373,-0.114 0.746,-0.229 1.119,-0.346 0.378,-0.118 0.755,-0.237 1.133,-0.357 0.379,-0.121 0.757,-0.243 1.136,-0.366 0.325,-0.106 0.651,-0.214 0.978,-0.322 0.021,-0.007 0.04,-0.013 0.06,-0.02 0.039,-0.013 0.077,-0.025 0.116,-0.038 0.386,-0.129 0.771,-0.259 1.158,-0.391 0.391,-0.133 0.781,-0.268 1.173,-0.403 0.395,-0.137 0.788,-0.275 1.183,-0.415 0.397,-0.142 0.795,-0.284 1.193,-0.428 0.072,-0.026 0.145,-0.054 0.218,-0.08 0.048,-0.018 0.097,-0.035 0.146,-0.053 0.282,-0.104 0.564,-0.206 0.847,-0.311 0.406,-0.149 0.812,-0.301 1.218,-0.454 0.413,-0.156 0.826,-0.313 1.238,-0.472 0.417,-0.16 0.833,-0.322 1.25,-0.485 0.142,-0.056 0.283,-0.112 0.425,-0.169 0.045,-0.018 0.09,-0.035 0.134,-0.053 0.235,-0.093 0.47,-0.186 0.704,-0.279 0.429,-0.172 0.856,-0.345 1.284,-0.52 0.432,-0.176 0.863,-0.354 1.295,-0.533 0.439,-0.183 0.878,-0.367 1.316,-0.554 0.121,-0.051 0.242,-0.104 0.362,-0.155 0.06,-0.025 0.12,-0.051 0.18,-0.077 0.265,-0.112 0.528,-0.225 0.792,-0.339 0.45,-0.195 0.899,-0.392 1.349,-0.589 0.458,-0.202 0.916,-0.406 1.374,-0.612 0.464,-0.209 0.929,-0.42 1.393,-0.633 0.021,-0.01 0.041,-0.019 0.061,-0.028 0.038,-0.017 0.075,-0.034 0.112,-0.052 0.413,-0.189 0.825,-0.38 1.237,-0.572 0.479,-0.224 0.957,-0.449 1.436,-0.677 0.487,-0.232 0.975,-0.466 1.461,-0.702 0.297,-0.145 0.594,-0.289 0.891,-0.436 0.115,-0.057 0.23,-0.114 0.346,-0.172 0.293,-0.146 0.585,-0.292 0.876,-0.439 0.291,-0.147 0.581,-0.296 0.869,-0.444 0.29,-0.149 0.579,-0.3 0.867,-0.451 0.206,-0.107 0.409,-0.217 0.613,-0.325 0.047,-0.024 0.094,-0.05 0.141,-0.074 0.081,-0.043 0.163,-0.086 0.243,-0.129 0.331,-0.177 0.661,-0.354 0.988,-0.533 0.33,-0.18 0.657,-0.36 0.984,-0.541 0.333,-0.186 0.665,-0.372 0.995,-0.56 0.072,-0.041 0.144,-0.082 0.216,-0.123 0.033,-0.02 0.067,-0.039 0.102,-0.059 0.224,-0.128 0.447,-0.255 0.669,-0.383 0.331,-0.191 0.66,-0.384 0.987,-0.577 0.334,-0.197 0.666,-0.396 0.997,-0.595 0.223,-0.134 0.443,-0.27 0.665,-0.404 0.027,-0.017 0.055,-0.033 0.082,-0.05 0.08,-0.049 0.161,-0.098 0.241,-0.146 0.334,-0.206 0.667,-0.412 0.998,-0.62 0.335,-0.211 0.669,-0.423 1.001,-0.636 0.332,-0.213 0.663,-0.427 0.991,-0.642 0.013,-0.008 0.024,-0.017 0.037,-0.024 0.007,-0.005 0.014,-0.009 0.021,-0.014 0.322,-0.211 0.643,-0.423 0.961,-0.636 0.338,-0.227 0.674,-0.454 1.009,-0.683 0.341,-0.232 0.679,-0.467 1.016,-0.702 0.057,-0.04 0.113,-0.08 0.17,-0.12 0.021,-0.016 0.044,-0.031 0.065,-0.047 0.266,-0.187 0.531,-0.373 0.795,-0.562 0.341,-0.244 0.68,-0.49 1.017,-0.737 0.354,-0.259 0.706,-0.52 1.056,-0.781 0.049,-0.036 0.097,-0.073 0.145,-0.11 0.026,-0.02 0.053,-0.04 0.079,-0.06 0.273,-0.206 0.547,-0.412 0.817,-0.621 0.358,-0.275 0.714,-0.552 1.066,-0.83 0.359,-0.283 0.716,-0.567 1.07,-0.854 0.364,-0.295 0.727,-0.592 1.086,-0.891 0.37,-0.308 0.738,-0.616 1.103,-0.928 0.175,-0.149 0.347,-0.301 0.521,-0.45 0.062,-0.055 0.126,-0.109 0.189,-0.164 0.135,-0.117 0.271,-0.233 0.406,-0.352 0.383,-0.337 0.762,-0.675 1.139,-1.015 0.364,-0.331 0.726,-0.663 1.084,-0.997 0.008,-0.007 0.016,-0.014 0.023,-0.021 0.017,-0.016 0.034,-0.032 0.052,-0.048 0.396,-0.37 0.79,-0.743 1.179,-1.118 0.411,-0.396 0.818,-0.795 1.221,-1.196 0.038,-0.038 0.075,-0.077 0.113,-0.115 0.044,-0.044 0.087,-0.088 0.13,-0.132 0.33,-0.332 0.659,-0.664 0.983,-0.998 0.438,-0.454 0.872,-0.91 1.3,-1.37 0.029,-0.032 0.058,-0.064 0.088,-0.097 0.047,-0.051 0.093,-0.103 0.14,-0.153 0.371,-0.401 0.74,-0.804 1.103,-1.21 0.342,-0.383 0.677,-0.771 1.012,-1.158 0.075,-0.088 0.152,-0.174 0.228,-0.261 0.043,-0.051 0.088,-0.1 0.131,-0.15 0.49,-0.575 0.974,-1.155 1.448,-1.74 0.128,-0.157 0.25,-0.318 0.376,-0.477 0.182,-0.226 0.359,-0.453 0.538,-0.68 0.209,-0.266 0.423,-0.528 0.629,-0.796 0.28,-0.366 0.55,-0.738 0.824,-1.107 0.187,-0.251 0.376,-0.5 0.56,-0.753 0.087,-0.118 0.178,-0.234 0.264,-0.354 0.363,-0.504 0.709,-1.019 1.062,-1.529 0.205,-0.297 0.417,-0.591 0.618,-0.891 0.037,-0.055 0.076,-0.108 0.113,-0.163 0.58,-0.867 1.144,-1.743 1.69,-2.628 0.035,-0.052 0.07,-0.104 0.105,-0.157 0.31,-0.462 0.608,-0.936 0.898,-1.409 l 0.115,-40.758 c -0.325,0.527 -0.659,1.054 -1.007,1.567 z"
   style="fill:#6d6e71" />
</g><g
     id="Grey_Border">
	<path
   id="path16"
   d="m 349.493,159.472 c -9.8,15.844 -24.79,28.845 -44.546,38.624 -13.557,6.657 -27.318,11.667 -40.912,14.886 -14.217,3.299 -29.672,5.112 -45.955,5.389 -1.02,0.963 -2.243,1.873 -3.619,2.717 -5.912,3.289 -12.593,4.848 -19.879,4.852 -7.292,0 -13.984,-1.563 -19.352,-4.516 -3.04,-1.828 -4.958,-3.502 -6.273,-5.319 -5.681,-0.804 -11.16,-1.806 -16.735,-3.063 -13.95,-3.27 -27.794,-8.278 -41.322,-14.943 -2.906,-1.422 -5.715,-2.916 -8.421,-4.479 -15.825,-9.136 -28.195,-20.638 -36.848,-34.282 -0.282,-0.465 -0.566,-0.929 -0.836,-1.393 l -5.073,-1.379 c -5.369,-1.734 -9.705,-3.615 -13.44,-5.772 -0.828,-0.478 -1.626,-0.97 -2.396,-1.475 -8.299,-5.681 -11.668,-11.873 -10.197,-18.527 1.37,-6.661 7.326,-12.187 17.688,-16.418 3.568,-1.475 7.628,-2.754 12.07,-3.797 0.542,-1.069 1.133,-2.153 1.757,-3.225 4.001,-7.148 9.412,-13.732 16.542,-20.116 6.255,-5.625 13.076,-10.395 20.291,-14.174 8.063,-4.294 16.532,-8.046 25.151,-11.154 1.075,-2.23 2.501,-4.391 4.265,-6.422 3.489,-4.335 8.33,-8.169 14.364,-11.357 10.755,-5.651 22.107,-9.245 33.732,-10.683 4.158,-0.516 8.376,-0.778 12.551,-0.778 8.171,0 16.349,0.995 24.301,2.949 8.239,1.95 14.935,4.43 20.304,7.53 1.31,0.756 2.539,1.548 3.693,2.378 2.933,2.068 5.352,4.391 7.205,6.908 6.846,0.918 13.293,2.09 19.672,3.576 15.064,3.539 30.217,9.274 45.037,17.06 1.345,0.69 2.672,1.413 3.983,2.17 5.713,3.298 11.138,7.252 16.474,12.007 7.234,6.521 12.745,13.097 16.852,20.112 1.702,3.004 3.105,5.901 4.248,8.721 1.842,0.865 3.452,1.702 4.953,2.568 3.223,1.86 5.939,3.855 8.23,6.035 6.418,6.227 7.925,12.674 4.512,19.176 -3.273,6.142 -10.355,10.863 -21.067,14.049 -0.322,0.525 -0.656,1.052 -1.004,1.565 z m -45.843,37.743 c 19.482,-9.644 34.276,-22.486 43.977,-38.167 0.441,-0.649 0.858,-1.305 1.255,-1.965 10.599,-3.045 17.585,-7.601 20.771,-13.565 3.243,-6.174 1.803,-12.305 -4.309,-18.236 -2.203,-2.099 -4.82,-4.02 -7.93,-5.815 -1.45,-0.837 -3.007,-1.647 -4.679,-2.435 -1.812,-3.207 -3.255,-6.2 -4.953,-9.223 -4.111,-7.011 -9.545,-13.499 -16.689,-19.931 -5.258,-4.687 -10.604,-8.586 -16.225,-11.831 -1.284,-0.742 -2.585,-1.45 -3.9,-2.125 -14.643,-7.689 -29.592,-13.351 -44.438,-16.838 -6.576,-1.534 -13.265,-2.736 -20.379,-3.653 -1.822,-2.632 -4.279,-5.043 -7.314,-7.184 -1.103,-0.794 -2.279,-1.553 -3.533,-2.276 -5.187,-2.995 -11.683,-5.396 -19.679,-7.29 -7.704,-1.891 -15.621,-2.853 -23.518,-2.857 -4.035,0 -8.113,0.255 -12.139,0.752 -11.275,1.397 -22.309,4.895 -32.798,10.406 -5.837,3.089 -10.525,6.797 -13.932,11.026 -1.821,2.101 -3.266,4.331 -4.322,6.646 -8.752,3.111 -17.341,6.904 -25.539,11.269 -7.081,3.708 -13.794,8.401 -19.956,13.941 -7.021,6.3 -12.375,12.806 -16.319,19.861 -0.725,1.242 -1.405,2.488 -2.016,3.716 -4.646,1.051 -8.864,2.355 -12.554,3.878 -9.885,4.037 -15.557,9.3 -16.865,15.622 -1.39,6.318 1.806,12.198 9.543,17.495 0.916,0.604 1.688,1.081 2.491,1.543 3.602,2.08 7.788,3.892 12.47,5.405 l 6.24,1.722 c 0.353,0.615 0.726,1.228 1.098,1.832 8.549,13.487 20.774,24.854 36.397,33.874 2.661,1.536 5.421,3.004 8.276,4.403 13.371,6.58 27.023,11.53 40.596,14.708 5.965,1.349 11.717,2.385 17.646,3.191 1.226,1.898 3.126,3.635 5.667,5.176 5.502,3.038 11.715,4.486 18.48,4.482 6.764,0.004 12.961,-1.445 17.917,-4.185 2.055,-1.245 3.366,-2.267 4.429,-3.357 16.456,-0.214 32.025,-1.998 46.351,-5.323 13.401,-3.169 26.986,-8.112 40.382,-14.692"
   style="fill:#646464" />
</g><g
     id="Black_and_White">
	<path
   id="path19"
   d="m 347.627,159.048 c -9.7,15.681 -24.494,28.523 -43.977,38.167 -13.397,6.58 -26.981,11.523 -40.379,14.693 -14.325,3.325 -29.895,5.109 -46.351,5.323 -1.062,1.091 -2.374,2.112 -3.915,3.052 -5.469,3.046 -11.665,4.494 -18.43,4.49 -6.765,0.004 -12.977,-1.445 -17.97,-4.188 -3.052,-1.836 -4.953,-3.572 -6.178,-5.471 -5.93,-0.807 -11.682,-1.843 -17.481,-3.155 -13.739,-3.214 -27.392,-8.165 -40.761,-14.744 -2.855,-1.399 -5.615,-2.867 -8.276,-4.403 -15.624,-9.021 -27.849,-20.387 -36.397,-33.874 -0.372,-0.604 -0.746,-1.217 -1.099,-1.832 l -5.78,-1.574 c -5.142,-1.661 -9.328,-3.473 -12.93,-5.553 -0.802,-0.463 -1.576,-0.939 -2.319,-1.429 -7.909,-5.412 -11.104,-11.291 -9.715,-17.609 1.308,-6.321 6.979,-11.585 16.865,-15.622 3.69,-1.522 7.908,-2.827 12.554,-3.878 0.61,-1.228 1.291,-2.474 2.016,-3.716 3.944,-7.056 9.297,-13.562 16.319,-19.861 6.162,-5.541 12.875,-10.233 19.956,-13.942 8.198,-4.364 16.787,-8.157 25.538,-11.269 1.057,-2.315 2.501,-4.545 4.322,-6.646 3.406,-4.229 8.095,-7.937 13.933,-11.026 10.489,-5.511 21.523,-9.009 32.798,-10.406 4.026,-0.498 8.104,-0.752 12.138,-0.752 7.897,0.004 15.813,0.966 23.518,2.857 7.996,1.894 14.492,4.295 19.679,7.29 1.254,0.724 2.431,1.482 3.533,2.276 3.035,2.141 5.492,4.552 7.314,7.184 7.113,0.918 13.803,2.12 20.378,3.653 14.849,3.487 29.797,9.149 44.439,16.838 1.316,0.675 2.616,1.383 3.9,2.125 5.621,3.245 10.967,7.145 16.225,11.831 7.145,6.432 12.578,12.92 16.632,19.847 1.756,3.107 3.198,6.101 4.354,9.009 2.329,1.086 3.886,1.896 5.336,2.733 3.109,1.795 5.727,3.716 7.93,5.815 6.111,5.931 7.552,12.062 4.31,18.236 -3.188,5.964 -10.175,10.521 -20.771,13.565 -0.401,0.661 -0.817,1.316 -1.258,1.966 z"
   style="fill:#ffffff" />
	<path
   id="path21"
   d="m 333.583,155.966 c -8.917,14.479 -22.146,25.947 -39.706,34.637 -12.262,6.022 -24.341,10.424 -36.321,13.266 -14.979,3.477 -31.473,5.036 -49.574,4.631 -0.999,0.062 -1.998,0.059 -2.996,0.121 0.098,0.343 0.202,0.808 0.204,1.272 0.01,1.681 -1.077,3.185 -3.068,4.4 -2.094,1.158 -4.59,1.796 -7.594,1.796 -2.902,0 -5.509,-0.638 -7.615,-1.796 -2.005,-1.216 -3.114,-2.724 -3.118,-4.4 -0.011,-0.697 0.189,-1.449 0.587,-2.086 -9.207,-0.753 -17.812,-2.083 -26.025,-3.938 -12.114,-2.842 -24.243,-7.243 -36.47,-13.267 -2.601,-1.273 -5.107,-2.606 -7.521,-4 -14.054,-8.114 -24.944,-18.278 -32.78,-30.635 -1.104,-1.8 -2.114,-3.653 -3.028,-5.504 -1.306,-0.233 -2.701,-0.523 -4.103,-0.811 -0.6,-0.177 -1.205,-0.291 -1.899,-0.465 l -5.119,-1.389 c -3.518,-1.136 -6.573,-2.467 -9.159,-3.959 -0.577,-0.333 -1.131,-0.675 -1.662,-1.024 -4.824,-3.299 -6.937,-6.834 -6.062,-10.775 0.78,-3.819 4.262,-7.003 10.65,-9.614 4.482,-1.851 9.979,-3.24 16.376,-4.169 0.984,-2.606 2.261,-5.212 3.75,-7.763 3.566,-6.37 8.433,-12.275 14.701,-17.9 5.478,-4.921 11.348,-9.035 17.432,-12.216 9.574,-5.099 19.148,-9.094 28.83,-12.168 0.69,-2.953 2.169,-5.788 4.458,-8.397 2.578,-3.244 6.164,-6.083 10.548,-8.401 8.375,-4.401 16.958,-7.236 25.854,-8.338 8.891,-1.099 17.796,-0.579 26.705,1.618 6.202,1.466 11.146,3.275 14.935,5.462 0.859,0.497 1.66,1.013 2.402,1.549 3.616,2.551 6.033,5.621 7.154,9.267 9.602,0.87 18.411,2.259 26.625,4.172 13.317,3.126 26.641,8.224 39.987,15.231 1.098,0.562 2.184,1.154 3.258,1.774 5.006,2.89 9.756,6.397 14.312,10.449 6.229,5.618 11.258,11.527 14.998,17.896 2.121,3.768 3.841,7.531 5.059,11.298 1.709,0.634 3.311,1.331 4.811,2.028 1.219,0.572 2.354,1.163 3.412,1.773 2.254,1.301 4.149,2.693 5.722,4.191 3.826,3.708 4.745,7.413 2.768,11.18 -1.983,3.705 -6.366,6.429 -13.355,8.397 -1.696,0.52 -3.495,0.87 -5.39,1.216 -0.785,1.856 -1.78,3.654 -2.973,5.391 z m -92.569,40.719 c 10.183,-3.417 19.555,-8.169 28.22,-14.307 8.463,-5.968 15.526,-12.743 21.085,-20.16 3.481,-4.574 6.146,-9.149 8.024,-13.724 -3.084,-1.113 -5.789,-2.343 -8.241,-3.759 -2.402,-1.388 -4.563,-2.953 -6.501,-4.701 -3.921,-3.417 -6.45,-7.413 -7.875,-11.813 -3.393,1.098 -6.478,2.373 -9.175,3.763 -1.854,7.704 -7.816,14.424 -17.788,20.16 -1.192,0.693 -2.392,1.391 -3.584,2.023 1.208,2.087 2.021,3.886 2.125,5.504 0.956,9.208 -3.401,16.451 -12.97,21.664 -8.686,4.634 -20.268,7.067 -34.858,7.239 -0.102,10e-4 -0.306,10e-4 -0.51,0 l 0.081,13.268 c 2.7,0.229 5.297,0.346 7.996,0.346 0.305,0 0.503,-0.003 0.902,0 0.205,0 0.599,0.001 0.898,-0.003 10.704,0 21.494,-1.796 32.171,-5.5 m -66.299,0 c 5.012,1.74 10.116,3.071 15.124,4 l -0.071,-12.688 c -2.7,-0.288 -5.305,-0.756 -7.804,-1.39 -5.81,-1.275 -11.021,-3.188 -15.533,-5.559 -0.671,-0.348 -1.32,-0.702 -1.948,-1.064 -3.878,-2.239 -6.936,-4.761 -9.104,-7.454 -2.813,-3.358 -4.137,-6.835 -4.055,-10.425 0.188,-2.838 1.462,-5.85 4.048,-9.039 0.594,-0.692 1.093,-1.33 1.79,-1.964 -6.718,-4.114 -11.447,-8.748 -14.282,-13.846 -2.094,1.158 -4.181,2.319 -6.18,3.362 -0.495,0.288 -0.996,0.52 -1.491,0.807 0.704,1.854 1.422,3.826 1.834,5.909 2.506,0.493 4.413,1.125 5.757,1.901 1.661,0.959 2.462,2.137 2.47,3.547 -0.191,2.256 -2.476,4.456 -6.861,6.657 -2.596,1.161 -4.089,2.783 -4.473,4.752 -0.396,1.968 -0.688,3.357 -0.677,4.113 -0.002,0.808 0.006,1.157 -0.198,1.099 -0.346,-0.137 -0.485,-0.215 -0.622,-0.294 -5.268,-3.041 -6.653,-7.02 -4.151,-11.985 l 0.203,-0.287 c 0,0.052 -0.101,0.17 -0.203,0.287 -1.834,0.105 -3.517,-0.23 -5.104,-1.146 -0.135,-0.078 -0.269,-0.16 -0.401,-0.247 -1.801,-1.098 -2.513,-2.2 -2.316,-3.417 0.292,-1.271 1.183,-2.314 2.688,-2.893 0.692,-0.292 2.491,-0.693 5.288,-1.276 -0.212,-1.275 -0.313,-2.488 -0.517,-3.649 -2,0.755 -4.097,1.449 -6.193,2.142 -1.689,0.523 -3.392,1.047 -5.089,1.508 2.032,4.693 4.852,9.384 8.378,14.074 5.743,7.417 12.782,14.191 21.312,20.16 2.676,1.88 5.417,3.631 8.226,5.252 6.359,3.671 13.066,6.682 20.155,9.053 m 66.028,-48.077 c 0.501,-0.291 1.098,-0.638 1.693,-0.984 10.371,-6.027 15.625,-13.326 15.583,-21.837 -0.048,-8.574 -5.396,-15.873 -15.829,-21.955 -10.433,-6.023 -23.044,-9.035 -37.744,-9.035 -11.507,0 -21.595,1.795 -30.472,5.503 9.54,6.72 19.472,13.322 29.812,19.636 12.847,8.688 22.687,15.869 29.414,21.604 2.923,2.549 5.431,4.923 7.543,7.068 m 4.36,-78.022 c -3.303,-1.098 -6.706,-1.968 -10.013,-2.724 -0.292,1.271 -0.788,2.551 -1.48,3.826 2.307,1.677 2.82,3.473 1.531,5.212 -1.586,2.083 -5.179,3.646 -10.672,4.634 -3.096,0.579 -5.495,1.736 -7.185,3.472 -1.785,1.74 -2.885,2.957 -3.377,3.708 -0.393,0.464 -0.594,0.811 -0.695,0.929 13.409,1.099 25.233,4.575 35.264,10.366 12.438,7.181 18.685,15.813 18.741,25.951 1.003,-0.406 2.89,-1.043 5.684,-2.142 0.604,-0.173 1.201,-0.351 1.805,-0.583 -0.113,-1.909 -0.124,-3.937 -0.034,-6.023 -1.623,-0.496 -2.943,-1.039 -3.965,-1.628 -2.196,-1.268 -3.01,-2.753 -2.472,-4.454 0.789,-2.315 3.674,-4.228 8.667,-5.85 2.89,-0.984 4.785,-2.374 5.875,-4.346 0.988,-1.854 1.681,-3.182 1.874,-3.996 0.267,-0.667 0.375,-1.015 0.393,-1.005 0.206,0.08 0.206,0.08 0.309,0.021 4.614,3.59 4.938,7.819 0.77,12.511 l -0.195,0.291 c 0.095,-0.055 0.095,-0.173 0.195,-0.291 1.449,0.042 2.797,0.39 3.965,1.064 0.442,0.255 0.859,0.557 1.245,0.908 1.306,1.216 1.706,2.374 1.114,3.531 -0.59,1.275 -1.781,2.146 -3.383,2.61 -0.902,0.229 -2.701,0.461 -5.59,0.808 -0.4,1.216 -0.59,2.437 -0.781,3.59 2.294,-0.579 4.589,-1.098 6.89,-1.504 3.097,-0.579 6.295,-1.099 9.392,-1.449 -0.912,-2.665 -2.029,-5.33 -3.347,-7.877 -4.55,-8.917 -11.193,-16.795 -20.034,-23.75 -3.253,-2.543 -6.712,-4.87 -10.368,-6.98 -6.167,-3.56 -12.891,-6.504 -20.123,-8.83 m -79.884,73.969 c 4.09,-2.606 8.476,-4.638 12.968,-6.027 4.993,-1.504 9.693,-2.142 13.991,-1.792 4.685,0.379 8.491,1.417 11.516,3.164 0.206,0.119 0.409,0.242 0.607,0.368 2.504,1.562 3.817,3.13 3.818,4.519 0.012,1.969 -0.679,3.649 -1.867,5.036 -1.588,1.743 -4.083,2.787 -7.486,3.248 l 0.027,3.476 c 1.998,0.111 3.997,0.17 6.001,0.174 9.598,0 18.283,-1.275 25.976,-3.882 -2.115,-2.779 -5.136,-5.736 -8.953,-8.865 -3.108,-2.662 -6.931,-5.618 -11.55,-8.858 -4.919,-3.362 -8.331,-5.735 -10.133,-7.011 -2.312,-1.622 -5.225,-3.473 -8.935,-5.731 -4.316,-2.61 -7.631,-4.634 -10.039,-6.083 -5.723,-3.708 -11.236,-7.413 -16.361,-11.298 -9.068,5.854 -13.726,12.747 -13.68,20.798 0.042,7.586 4.28,14.192 12.508,19.81 0.501,-0.353 0.996,-0.7 1.592,-1.046 m 58.067,-77.563 c -0.002,-0.405 -0.005,-0.752 -0.007,-1.098 -5.101,-0.638 -10.206,-0.925 -15.507,-0.811 -0.204,0 -0.496,0 -0.598,0 -0.306,0 -0.395,0 -0.7,0 -12.9,-0.114 -25.294,1.681 -37.166,5.504 -5.496,1.736 -10.575,3.822 -15.467,6.311 0.41,1.626 1.018,3.248 1.83,4.98 2.228,4.697 6.257,9.271 11.977,13.676 10.375,-4.231 22.263,-6.377 35.761,-6.374 3.262,0 6.431,0.17 9.501,0.398 -3.221,-4.109 -1.945,-8.222 3.834,-12.334 -0.401,-0.056 -0.7,-0.111 -1.006,-0.229 -0.598,-0.162 -1.135,-0.38 -1.615,-0.658 -0.719,-0.415 -1.312,-0.963 -1.797,-1.657 -0.905,-1.331 -0.816,-2.551 0.278,-3.595 1.102,-1.157 2.593,-1.913 4.589,-2.259 1.405,-0.173 3.201,-0.114 5.607,0.232 0.29,-0.692 0.394,-1.389 0.486,-2.086 m -101.867,58.792 c 4.713,2.956 8.539,6.606 11.255,10.834 3.199,-1.504 5.888,-3.126 8.182,-4.807 -0.513,-1.854 -0.727,-3.764 -0.731,-5.736 -0.064,-10.133 6.085,-18.825 18.353,-26.006 -0.505,-0.351 -1.01,-0.752 -1.413,-1.161 -6.426,-5.386 -10.956,-10.712 -13.289,-15.984 -1.693,1.103 -3.386,2.256 -4.881,3.473 -8.756,6.953 -15.413,14.83 -19.766,23.75 -1.976,3.937 -3.353,7.992 -4.336,12.165 1.744,0.741 3.423,1.583 5.047,2.52 0.532,0.307 1.058,0.625 1.579,0.952 m 132.008,72.695 c 32.54,-9.96 54.755,-24.963 66.543,-45.009 0.296,-0.52 0.497,-0.984 0.793,-1.504 -3.996,0 -7.702,-0.288 -11.409,-0.812 -7.581,20.043 -26.292,35.798 -55.927,47.325 M 127.726,183.907 c 9.846,5.685 21.382,10.544 34.602,14.576 -8.048,-3.107 -15.29,-6.518 -21.735,-10.238 -17.712,-10.227 -29.378,-22.79 -35.035,-37.785 -3.801,0.582 -7.593,0.929 -11.194,1.047 0.208,0.692 0.606,1.327 0.908,1.965 7.151,11.931 17.976,22.076 32.454,30.435 M 170.608,52.745 c -6.482,2.666 -11.367,6.606 -14.43,11.818 14.778,-3.248 31.767,-4.807 50.967,-4.811 5.104,0 10.1,0.114 14.899,0.291 -1.001,-1.622 -2.818,-3.303 -5.424,-4.925 -0.358,-0.23 -0.724,-0.453 -1.1,-0.669 -6.051,-3.493 -14.379,-5.236 -24.733,-5.236 -7.599,10e-4 -14.293,1.155 -20.179,3.532 m 28.22,110.11 0.112,20.047 c 1.101,-0.004 2.298,-0.004 3.304,-0.005 9.595,-0.287 17.477,-1.968 23.568,-5.152 6.872,-3.536 10.053,-8.283 9.917,-14.248 -0.111,-1.57 -0.521,-3.247 -1.326,-4.924 -9.09,2.894 -19.284,4.342 -30.572,4.342 -1.603,0 -3.31,0 -5.003,-0.06 M 107.142,94.798 c -7.763,6.834 -12.92,14.365 -15.572,22.593 4.003,0.114 7.907,0.575 11.71,1.331 2.735,-11.7 9.363,-23.459 19.798,-35.159 -5.977,3.302 -11.359,7.066 -15.936,11.235 M 293.311,84.649 c -0.637,-0.368 -1.281,-0.731 -1.934,-1.088 10.163,11.24 16.73,22.416 19.785,33.652 4.205,-0.056 8.407,0.232 12.414,0.811 -2.752,-8.401 -8.097,-16.16 -16.034,-23.227 -4.215,-3.718 -8.98,-7.116 -14.231,-10.148 m -103.69,77.455 c -8.807,-1.161 -16.915,-3.358 -24.341,-6.661 -2.279,3.13 -3.26,6.37 -2.636,9.905 0.312,2.259 1.623,4.516 3.837,6.72 1.519,1.409 3.299,2.717 5.366,3.91 1.075,0.621 2.228,1.211 3.461,1.767 3.707,1.735 7.819,3.008 12.323,3.881 0.701,0.17 1.401,0.288 2.103,0.406 l -0.113,-19.928 M 324.898,123.41 c -1.497,-0.173 -3,-0.402 -4.693,-0.52 -2.312,-0.233 -5.011,-0.292 -7.811,-0.292 1.247,7.818 0.896,15.641 -1.363,23.404 2.999,0.402 6.304,0.693 9.804,0.751 0.7,0 1.4,0 1.998,0 2.853,-7.876 3.616,-15.694 2.065,-23.343 M 92.14,146.35 c 3.493,-0.173 7.392,-0.524 11.785,-1.272 -2.038,-7.129 -2.474,-14.31 -1.521,-21.491 -3.701,-0.638 -7.802,-0.984 -12.301,-0.929 -1.457,7.764 -0.815,15.637 2.037,23.692 m -17.21,-1.39 c 0.592,0.114 1.096,0.287 1.593,0.346 -1.315,-4.287 -1.939,-8.688 -1.773,-13.148 -0.009,-2.835 0.478,-5.618 1.156,-8.401 -4.495,0.756 -8.191,1.973 -11.275,3.594 -4.392,2.315 -6.171,4.925 -5.558,7.763 0.616,2.331 2.398,4.375 5.38,6.097 1.466,0.846 3.222,1.614 5.27,2.301 0.797,0.291 1.6,0.579 2.602,0.87 l 2.605,0.578 m 225.289,-1.276 c 0.487,-1.504 0.881,-2.952 1.069,-4.46 0.472,-5.445 0.244,-10.771 -0.886,-15.987 -4.197,0.406 -8.299,1.043 -12.291,1.795 -1.895,0.405 -3.591,0.814 -5.396,1.161 0.737,5.445 3.561,9.787 8.474,13.204 0.582,0.402 1.19,0.786 1.824,1.152 2.107,1.216 4.51,2.245 7.206,3.135 m 41.245,-15.1 c -0.485,-0.28 -1.001,-0.557 -1.542,-0.829 0.212,1.504 0.322,2.956 0.331,4.401 0.22,4.169 -0.259,8.397 -1.433,12.452 0.4,-0.173 0.8,-0.288 1.2,-0.461 4.985,-1.795 7.677,-4.173 7.757,-7.007 0.16,-3.181 -1.941,-6.031 -6.313,-8.556 m -215.069,10.699 c -2.039,-4.556 -5.366,-8.227 -10.125,-10.974 -0.686,-0.396 -1.402,-0.774 -2.148,-1.131 -0.064,-0.037 -0.128,-0.051 -0.165,-0.072 -0.019,-0.011 -0.031,-0.023 -0.033,-0.042 -0.576,3.996 -0.553,8.051 -0.129,12.161 0.211,1.216 0.612,2.492 0.925,3.708 2.293,-0.579 4.486,-1.217 6.683,-1.968 1.797,-0.521 3.398,-1.103 4.992,-1.682" />
</g></g>
</svg>