<?xml version="1.0" encoding="utf-8"?>
<svg height="59.253815" id="Andysvg" version="1.0" width="65.414536" x="0.00000000" y="0.00000000" xmlns="http://www.w3.org/2000/svg">
  <defs id="defs3">
    <linearGradient id="linearGradient891" x1="92.437965" x2="27.674332" y1="-3.9104078" y2="91.076988" gradientTransform="matrix(0.8184166,0,0,0.530237,-9.8827678,-14.589608)" gradientUnits="userSpaceOnUse">
      <stop id="stop889" offset="0" style="stop-color:#626262;stop-opacity:1.0000000;"/>
      <stop id="stop890" offset="1" style="stop-color:#fff;stop-opacity:1;"/>
    </linearGradient>
    <linearGradient id="linearGradient905" x1="-77.726181" x2="95.64444" y1="208.43991" y2="11.699047" gradientTransform="matrix(0.7314635,0,0,0.5932693,-9.8827694,-14.589616)" gradientUnits="userSpaceOnUse">
      <stop id="stop889" offset="0" style="stop-color:#626262;stop-opacity:1.0000000;"/>
      <stop id="stop890" offset="1" style="stop-color:#fff;stop-opacity:1;"/>
    </linearGradient>
    <radialGradient cx="60.004654" cy="56.485935" id="radialGradient1132" r="68.589226" gradientTransform="matrix(0.8184166,0,0,0.530237,-9.8827678,-14.589608)" gradientUnits="userSpaceOnUse">
      <stop id="stop1134" offset="0" style="stop-color:#8bb7df;stop-opacity:1.0000000;"/>
      <stop id="stop1136" offset="0.7621" style="stop-color:#2a6092;stop-opacity:1.0000000;"/>
      <stop id="stop1135" offset="1" style="stop-color:#375e82;stop-opacity:1.0000000;"/>
    </radialGradient>
    <linearGradient id="linearGradient1140" x1="45.685757" x2="41.96706" y1="110.4447" y2="232.24953" gradientTransform="matrix(1.2743811,0,0,0.3405213,-9.8827694,-14.589616)" gradientUnits="userSpaceOnUse">
      <stop id="stop889" offset="0" style="stop-color:#626262;stop-opacity:1.0000000;"/>
      <stop id="stop890" offset="1" style="stop-color:#fff;stop-opacity:1;"/>
    </linearGradient>
    <linearGradient id="linearGradient1144" x1="31.449743" x2="31.617281" y1="203.49899" y2="251.21892" gradientTransform="matrix(1.4044089,0,0,0.3089952,-9.8827694,-14.589616)" gradientUnits="userSpaceOnUse">
      <stop id="stop893" offset="0" style="stop-color:#ffffff;stop-opacity:0.00000000;"/>
      <stop id="stop894" offset="1" style="stop-color:#fff;stop-opacity:1;"/>
    </linearGradient>
    <linearGradient id="linearGradient1146" x1="39.810947" x2="17.87653" y1="90.197021" y2="113.71949" gradientTransform="matrix(0.8811179,0,0,0.4925045,-9.8827694,-14.589616)" gradientUnits="userSpaceOnUse">
      <stop id="stop893" offset="0" style="stop-color:#ffffff;stop-opacity:0.00000000;"/>
      <stop id="stop894" offset="1" style="stop-color:#fff;stop-opacity:1;"/>
    </linearGradient>
    <linearGradient id="linearGradient1156" x1="25.220816" x2="25.220816" y1="178.48862" y2="234.26866" gradientTransform="matrix(1.6156202,0,0,0.2685999,-9.8827678,-14.589608)" gradientUnits="userSpaceOnUse">
      <stop id="stop889" offset="0" style="stop-color:#626262;stop-opacity:1.0000000;"/>
      <stop id="stop890" offset="1" style="stop-color:#fff;stop-opacity:1;"/>
    </linearGradient>
    <linearGradient id="linearGradient1157" x1="51.46093" x2="-16.224497" y1="269.85831" y2="176.28694" gradientTransform="matrix(1.6156202,0,0,0.2685999,-9.8827678,-14.589608)" gradientUnits="userSpaceOnUse">
      <stop id="stop889" offset="0" style="stop-color:#626262;stop-opacity:1.0000000;"/>
      <stop id="stop890" offset="1" style="stop-color:#fff;stop-opacity:1;"/>
    </linearGradient>
    <linearGradient id="linearGradient2635" gradientUnits="userSpaceOnUse" gradientTransform="matrix(0.8821916,0,0,0.491702,-8.9069314,-15.277305)" x1="39.690613" y1="49.507656" x2="70.224304" y2="20.481863">
      <stop id="stop893" offset="0" style="stop-color:#ffffff;stop-opacity:0.00000000;"/>
      <stop id="stop894" offset="1" style="stop-color:#fff;stop-opacity:1;"/>
    </linearGradient>
    <linearGradient id="linearGradient2637" gradientUnits="userSpaceOnUse" gradientTransform="matrix(0.8816883,0,0,0.4919824,-10.701684,-14.28309)" x1="35.190361" y1="76.277557" x2="8.3460579" y2="105.42543">
      <stop id="stop893" offset="0" style="stop-color:#ffffff;stop-opacity:0.00000000;"/>
      <stop id="stop894" offset="1" style="stop-color:#fff;stop-opacity:1;"/>
    </linearGradient>
  </defs>
  <rect height="5.4088969" id="rect1155" style="fill:url(#linearGradient1156);fill-opacity:1;fill-rule:evenodd;stroke:url(#linearGradient1157);stroke-width:0.95344429pt" width="38.405891" x="12.350429" y="36.575089"/>
  <path d="M 0.19287398,54.885213 C -0.67386281,56.46268 1.5579198,59.253939 3.3933636,59.253939 L 62.069027,59.253939 C 63.628857,59.253939 65.976201,57.281205 65.269522,55.925378 L 58.655165,43.235277 C 58.145696,42.257819 57.005954,41.779036 55.881408,41.779036 L 8.9408812,41.779036 C 8.0135624,41.779036 7.0317541,42.438291 6.5938539,43.235277 L 0.19287398,54.885213 z " id="path1139" style="fill:url(#linearGradient1140);fill-opacity:1;fill-rule:evenodd;stroke-width:1.44734821pt"/>
  <rect height="39.110481" id="rect1137" rx="3.6272225" ry="3.536587" style="fill:url(#linearGradient905);fill-opacity:1;fill-rule:evenodd;stroke-width:1.62826681" width="48.220726" x="7.4732022" y="-0.010164791"/>
  <rect height="24.74659" id="rect1131" style="fill:url(#radialGradient1132);fill-opacity:1;fill-rule:evenodd;stroke:url(#linearGradient891);stroke-width:0.96503658pt" width="38.813015" x="12.390426" y="6.027596"/>
  <path d="M 8.5906358,19.782157 L 8.3772707,34.032521 C 8.3432557,36.304242 9.6712558,37.75887 12.004493,37.777143 L 38.568566,37.985175 L 41.128957,32.160207 L 11.471076,31.952177 L 11.257713,19.678141 L 8.5906358,19.782157 z " id="path1145" style="fill:url(#linearGradient1146);fill-opacity:1;fill-rule:evenodd;stroke-width:1pt"/>
  <path d="M 2.7205883,54.675124 C 2.1113822,55.866786 2.9089235,57.975349 4.9701318,57.975349 L 60.179981,57.975349 C 61.276346,57.975349 62.926231,56.48511 62.429524,55.460899 L 57.78047,45.874547 C 57.422369,45.136152 56.621274,44.774474 55.830865,44.774474 L 8.8693353,44.774468 C 8.2175462,44.774468 7.5274604,45.272486 7.2196723,45.874547 L 2.7205883,54.675124 z " id="path1143" style="fill:url(#linearGradient1144);fill-opacity:1;fill-rule:evenodd;stroke-width:1pt"/>
  <path d="M 19.010905,6.5904681 L 42.426675,6.2948726 C 46.041292,6.2492425 50.532134,9.8297185 50.532134,13.389152 L 50.532134,24.030571 L 18.710703,23.734975 L 19.010905,6.5904681 z " id="path1147" style="fill:url(#linearGradient2635);fill-opacity:1;fill-rule:evenodd;stroke-width:1pt"/>
  <rect x="12.664" y="6.294" width="38.092" height="24.48" style="fill: rgb(255, 255, 255);"/>
  <path d="M 41.29338,29.915511 L 20.310226,29.977799 C 17.071125,29.987414 13.079277,26.740463 13.111035,23.55121 L 13.205982,14.016504 L 41.715336,14.556637 L 41.29338,29.915511 z " id="path1149" style="fill:url(#linearGradient2637);fill-opacity:1;fill-rule:evenodd;stroke-width:1pt"/>
  <path style="fill:#00adef;" d="M 22.129 11.699 L 29.894 10.641 L 29.897 18.13 L 22.136 18.175 Z M 29.89 18.993 L 29.896 26.49 L 22.135 25.423 L 22.135 18.944 Z M 30.832 10.503 L 41.127 9 L 41.127 18.035 L 30.832 18.117 Z M 41.129 19.064 L 41.127 28.059 L 30.832 26.606 L 30.817 19.047 Z"/>
</svg>