<?xml version="1.0" encoding="UTF-8" standalone="no"?>
<!-- Generator: Adobe Illustrator 18.0.0, SVG Export Plug-In . SVG Version: 6.00 Build 0)  -->

<svg
   xmlns:dc="http://purl.org/dc/elements/1.1/"
   xmlns:cc="http://creativecommons.org/ns#"
   xmlns:rdf="http://www.w3.org/1999/02/22-rdf-syntax-ns#"
   xmlns:svg="http://www.w3.org/2000/svg"
   xmlns="http://www.w3.org/2000/svg"
   xmlns:sodipodi="http://sodipodi.sourceforge.net/DTD/sodipodi-0.dtd"
   xmlns:inkscape="http://www.inkscape.org/namespaces/inkscape"
   version="1.1"
   id="Layer_1"
   x="0px"
   y="0px"
   viewBox="0 0 256 256"
   enable-background="new 0 0 792 612"
   xml:space="preserve"
   inkscape:version="0.92.2 (30a58d1, 2017-08-07)"
   width="100%"
   height="100%"
   sodipodi:docname="gns3_icon.svg"
   inkscape:export-filename="/home/grossmj/Downloads/gns3_icon_128x128.png"
   inkscape:export-xdpi="45"
   inkscape:export-ydpi="45"><metadata
     id="metadata30"><rdf:RDF><cc:Work
         rdf:about=""><dc:format>image/svg+xml</dc:format><dc:type
           rdf:resource="http://purl.org/dc/dcmitype/StillImage" /><dc:title /></cc:Work></rdf:RDF></metadata><defs
     id="defs28" /><sodipodi:namedview
     pagecolor="#000000"
     bordercolor="#666666"
     borderopacity="1"
     objecttolerance="10"
     gridtolerance="10"
     guidetolerance="10"
     inkscape:pageopacity="0"
     inkscape:pageshadow="2"
     inkscape:window-width="1920"
     inkscape:window-height="1032"
     id="namedview26"
     showgrid="false"
     inkscape:zoom="1.0428039"
     inkscape:cx="235.30201"
     inkscape:cy="248.57437"
     inkscape:window-x="0"
     inkscape:window-y="0"
     inkscape:window-maximized="1"
     inkscape:current-layer="g3" /><g
     id="g3"
     transform="translate(0,-356)"><linearGradient
       id="SVGID_1_"
       gradientUnits="userSpaceOnUse"
       x1="404.2251"
       y1="365.32321"
       x2="384.2139"
       y2="136.595"
       gradientTransform="matrix(1.0930955,0,0,1.0930955,-302.80147,210.56132)"><stop
         offset="0"
         style="stop-color:#00A5CE"
         id="stop6" /><stop
         offset="0.1989"
         style="stop-color:#1295CB"
         id="stop8" /><stop
         offset="0.5994"
         style="stop-color:#426BC5"
         id="stop10" /><stop
         offset="1"
         style="stop-color:#783CBD"
         id="stop12" /></linearGradient><path
       d="m 147.99093,422.62227 c 0,6.34 -5.13717,11.47729 -11.47726,11.47729 -6.33986,0 -11.47761,-5.13729 -11.47761,-11.47729 0,-6.34019 5.13775,-11.47804 11.47761,-11.47804 6.34009,0 11.47726,5.13785 11.47726,11.47804 z M 22.394349,480.3376 c -6.886487,37.71152 2.514172,64.92952 17.161614,84.38707 26.124988,36.83736 64.492517,43.28645 64.492517,43.28645 44.81704,8.52584 78.92153,-6.99569 99.36233,-26.23425 25.68784,-24.37577 24.81373,-48.53334 24.92311,-48.86119 0.21851,-11.25931 -3.49797,-19.34782 -10.05651,-24.92306 -11.0404,-9.29128 -24.4855,-5.68414 -24.4855,-5.68414 -23.2827,5.46564 -19.457,26.67165 -19.457,26.67165 1.31155,6.33984 4.59052,10.49362 8.30733,12.89839 7.10497,4.37239 14.64752,3.49799 14.64752,3.49799 11.14958,-1.31129 14.42894,-11.80519 13.77292,-17.05238 -1.09318,-8.30719 -8.63562,-9.83784 -8.63562,-9.83784 -2.84184,-0.54643 -5.02802,-0.10925 -6.66791,0.76517 -2.40425,0.98433 -3.38861,2.62342 -3.38861,2.62342 -1.74868,2.95142 -0.65568,4.59143 0.43749,5.24736 0.65611,0.43714 1.42132,0.43714 1.42132,0.43714 0.87411,0 1.42053,-0.2185 2.07653,-0.54638 1.53057,-0.8745 2.73256,-2.29597 5.02855,-1.42145 3.3886,1.31184 2.514,4.91929 2.514,4.91929 -0.76536,3.93499 -3.06079,5.79343 -5.57488,6.44908 -3.3886,0.8745 -6.88644,-0.21851 -6.88644,-0.21851 -12.02422,-4.9193 -6.66794,-16.943 -6.66794,-16.943 3.71635,-7.54269 12.02432,-8.41719 12.02432,-8.41719 13.00749,-2.07647 21.64316,6.6679 20.22168,21.42461 -1.63939,18.36446 -15.73999,30.49734 -30.82506,38.14961 -56.51289,29.07595 -98.706503,-7.76156 -98.706503,-7.76156 -15.740625,-14.97516 -12.024098,-30.82515 -10.275137,-35.853 0.655867,-1.85856 2.404853,-2.18667 3.279285,-2.18667 12.898528,-1.09269 23.610725,22.73676 24.703825,26.01608 2.2955,5.46552 5.90259,8.52567 9.29119,10.49354 7.65184,4.2631 15.74104,2.18631 15.74104,2.18631 11.14918,-3.82574 7.32358,-12.89835 7.32358,-12.89835 -1.31154,-3.60724 -3.27936,-4.5916 -4.80941,-4.48175 -1.42153,0 -2.51417,1.09316 -2.51417,1.09316 -0.54659,0.65552 -1.20277,1.09252 -1.74915,1.63926 -7.10531,6.01193 -10.6033,-0.32811 -10.6033,-0.32811 -2.51397,-4.04423 1.31224,-6.23061 1.31224,-6.23061 0.76515,-0.43697 1.53004,-0.65583 2.07635,-0.87447 2.84229,-0.874 2.40529,-3.27934 2.40529,-3.27934 -0.43714,-4.4811 -5.46562,-2.62337 -5.46562,-2.62337 -4.9188,1.74936 -6.44941,5.79346 -6.88681,7.54276 -0.10925,0.54665 -0.21864,0.9838 -0.9834,1.09305 -1.42087,0.2185 -1.42087,-2.2956 -1.42087,-2.2956 -0.43766,-17.92675 -5.3563,-25.90628 -7.65197,-28.74817 -0.65595,-0.87508 -1.748963,-1.42143 -2.076703,-1.6399 -5.137765,-2.29543 -10.821818,-6.7772 -10.821818,-6.7772 -10.821645,-7.76093 -6.55856,-14.75663 -6.55856,-14.75663 6.449253,-16.1782 11.696148,-21.75305 11.696148,-21.75305 4.372228,-4.15383 8.963563,-0.43707 8.963563,-0.43707 -3.388589,4.154 -6.012231,8.19861 -6.012231,8.19861 -7.760984,12.35148 -9.072721,17.38012 -9.072721,17.38012 -0.109308,0.43699 -0.109308,1.2022 0.54656,2.0769 7.979631,13.66362 29.513532,15.74023 29.622792,15.74023 5.903,0.87439 10.71217,0.10925 10.71217,0.10925 2.84217,-0.5464 3.27932,1.31202 3.27932,1.31202 0.32816,1.09313 1.53073,4.15392 1.53073,4.15392 2.07675,4.37191 5.24645,2.07639 5.24645,2.07639 1.2029,-0.87441 1.74925,-2.07639 1.74925,-3.06023 0,-0.98427 -0.54635,-1.63992 -0.54635,-1.63992 -1.42154,-2.07704 -1.85853,-4.04413 -1.85853,-4.04413 -0.65564,-2.40529 2.07709,-3.38858 2.07709,-3.38858 5.35574,-2.40531 8.3072,2.18559 8.3072,2.18559 2.84233,3.3886 8.52646,-0.87441 8.52646,-0.87441 4.59089,-3.49785 -1.09323,-8.96303 -1.09323,-8.96303 -11.80522,-10.82192 -25.68768,2.84173 -25.68768,2.84173 -0.76544,0.98401 -1.53071,0.98401 -1.53071,0.98401 -11.47697,0.32817 -22.40799,-8.08903 -22.40799,-8.52636 4.37237,-7.32359 12.78893,-20.11308 12.78893,-20.11308 l 44.48933,17.16181 c 1.74859,0.54637 3.60712,0.10928 3.60712,0.10928 l 69.30196,-13.99174 c 1.53069,-0.21862 1.3122,-2.07653 1.3122,-2.07653 0,-1.53068 -0.10984,-1.74919 -1.42146,-1.96769 -1.42085,-0.21851 -67.44413,-5.35634 -67.44413,-5.35634 -3.6071,-0.21853 -3.6071,-5.13719 0.10925,-5.46498 l 48.53404,-4.04469 c 1.09314,-0.10926 1.31163,-1.20245 1.31163,-1.20245 1.31159,-6.44938 0.87399,-14.86588 0.87399,-14.86588 14.10125,-15.7411 7.32407,-31.26273 7.32407,-31.26273 -8.63521,-21.4247 -27.65565,-21.75286 -27.65565,-21.75286 -31.26208,-34.54162 -72.36236,-30.49735 -72.36236,-30.49735 -1.85878,0 -1.96813,1.53056 -1.96813,1.53056 l -4.69982,29.73201 c -0.21882,1.63996 -1.09349,2.07694 -1.09349,2.07694 l -6.23028,4.91872 c -0.76548,0.76538 -0.98406,0.76538 -2.07708,0.76538 -0.98378,0.10951 -4.04425,0.54685 -4.04425,0.54685 C 32.997429,414.53283 22.394349,480.3376 22.394349,480.3376 z M 220.90065,409.94185 c 2.95154,9.40107 -5.13786,12.35249 -5.13786,12.35249 -1.53006,-7.3239 -6.88645,-17.59894 -6.88645,-17.59894 9.07316,-2.84204 12.02431,5.24645 12.02431,5.24645 z m -45.47307,16.7245 c 0,17.27084 -13.99154,31.37192 -31.3715,31.37192 -17.27088,0 -31.37183,-13.99182 -31.37183,-31.37192 0,-17.37995 14.10095,-31.37147 31.37183,-31.37147 17.37996,0 31.3715,14.10077 31.3715,31.37147 z"
       id="path14"
       inkscape:connector-curvature="0"
       style="fill:#000000;fill-opacity:1" /><path
       style="stroke-width:0.95895308;fill:#000000;fill-opacity:1"
       d="m 29.510681,104.95541 c 0,-1.72767 4.629168,-10.485938 8.922862,-16.881827 9.532205,-14.199177 22.127061,-25.580674 36.840478,-33.291355 8.695245,-4.556811 24.61103,-10.609516 25.516669,-9.70388 0.28263,0.282631 0.95772,0.239563 1.50019,-0.09571 0.54248,-0.33527 4.99436,-0.803063 9.89307,-1.039541 4.89871,-0.236478 10.63286,-0.684969 12.74256,-0.996646 l 3.83581,-0.566686 -2.87686,2.434668 c -1.58227,1.339067 -3.14795,2.450186 -3.47929,2.469154 -1.68705,0.09658 -7.68618,10.854586 -9.04972,16.228519 -2.62183,10.333096 0.5702,21.528346 8.42889,29.562183 2.78528,2.847349 3.5502,4.164777 2.58845,4.458047 -0.75085,0.22896 -20.13669,1.997905 -43.079643,3.930994 -22.942952,1.93308 -43.979985,3.76225 -46.748962,4.06482 -3.520186,0.38465 -5.034504,0.21238 -5.034504,-0.57274 z"
       id="path3702"
       inkscape:connector-curvature="0"
       transform="translate(0,356)" /><path
       style="stroke-width:0.95895308;fill:#000000;fill-opacity:1"
       d="m 20.883753,139.13783 c 0.0085,-5.02746 2.975045,-19.84783 5.322913,-26.59244 2.494665,-7.1663 2.58356,-7.27734 5.55674,-6.94098 3.274726,0.37048 78.714134,-5.943709 88.732764,-7.426826 5.48582,-0.8121 6.52647,-0.68727 10.069,1.207818 3.317,1.774438 5.48939,2.113528 13.5404,2.113528 10.7302,0 14.442,-1.34017 21.58487,-7.793315 4.3645,-3.943066 9.57454,-13.722604 9.59579,-18.011849 0.008,-1.629888 0.33172,-3.448849 0.71921,-4.042136 0.42463,-0.650131 10.03894,-1.890095 24.19889,-3.120944 30.29526,-2.633408 27.88976,-2.729233 27.18798,1.083051 -0.8022,4.357824 -3.80236,11.080064 -6.55677,14.691283 -1.92557,2.524555 -2.37472,4.35005 -2.60835,10.601279 l -0.28223,7.551581 -24.80503,2.09802 c -13.64277,1.15391 -25.40194,2.32707 -26.13147,2.60703 -1.54574,0.59315 -1.78171,4.01045 -0.33852,4.90238 0.68162,0.42127 59.31288,5.63597 69.73487,6.20227 0.13185,0.007 0.23973,0.63124 0.23973,1.38683 0,1.51563 -0.90249,1.86399 -8.63057,3.33139 -5.68832,1.08009 -69.10668,6.80224 -75.38896,6.80224 -2.3662,0 -9.42164,-2.17638 -18.63036,-5.74688 -8.15202,-3.16078 -15.04629,-5.74995 -15.32061,-5.75372 -0.27431,-0.004 -2.64772,3.43055 -5.27424,7.63179 -3.47938,5.56542 -5.42616,7.76216 -7.17287,8.09378 -4.64405,0.88171 -17.261159,1.68518 -17.261159,1.09921 0,-1.35251 4.978919,-10.2667 9.080733,-16.25801 2.418926,-3.53321 4.144786,-6.83378 3.835256,-7.33462 -0.30953,-0.50083 -2.009311,-0.91061 -3.777284,-0.91061 -4.301856,0 -7.201623,3.5265 -13.207838,16.06246 -2.590162,5.4061 -5.017616,9.82927 -5.394342,9.82927 -0.376727,0 -12.749895,1.07386 -27.49593,2.38635 -33.117257,2.94765 -31.127147,2.93162 -31.122613,0.25077 z"
       id="path3704"
       inkscape:connector-curvature="0"
       transform="translate(0,356)" /><path
       style="stroke-width:0.95895308;fill:#000000;fill-opacity:1"
       d="m 22.776215,171.26276 c -0.588994,-1.97784 -1.316927,-9.52959 -1.61763,-16.78168 l -0.546734,-13.1856 h 4.41742 c 4.272458,0 45.974498,-3.38285 52.084903,-4.2251 2.729171,-0.37619 3.068349,-0.13433 3.610054,2.57419 0.747297,3.73649 7.88306,10.75622 15.175011,14.92825 4.051489,2.31803 5.884641,4.10484 7.379631,7.19308 1.09401,2.25992 1.9891,4.55758 1.9891,5.10593 0,1.13043 -9.626814,2.21632 -19.738447,2.22647 -3.735922,0.004 -7.090412,0.30464 -7.454422,0.66866 -0.364011,0.36401 -2.701459,0.81187 -5.19433,0.99524 -2.492869,0.18337 -14.079003,1.18013 -25.746961,2.21502 -11.667959,1.03489 -21.680722,1.88162 -22.250585,1.88162 -0.569862,0 -1.518017,-1.61824 -2.10701,-3.59608 z"
       id="path3706"
       inkscape:connector-curvature="0"
       transform="translate(0,356)" /></g></svg>