<?xml version="1.0" encoding="UTF-8" standalone="no"?>
<svg
   xmlns:dc="http://purl.org/dc/elements/1.1/"
   xmlns:cc="http://creativecommons.org/ns#"
   xmlns:rdf="http://www.w3.org/1999/02/22-rdf-syntax-ns#"
   xmlns:svg="http://www.w3.org/2000/svg"
   xmlns="http://www.w3.org/2000/svg"
   id="svg320"
   style="clip-rule:evenodd;fill-rule:evenodd;stroke-linejoin:round;stroke-miterlimit:1.41420996"
   xml:space="preserve"
   version="1.1"
   viewBox="0 0 60 60"
   height="60"
   width="60"><metadata
     id="metadata326"><rdf:RDF><cc:Work
         rdf:about=""><dc:format>image/svg+xml</dc:format><dc:type
           rdf:resource="http://purl.org/dc/dcmitype/StillImage" /><dc:title></dc:title></cc:Work></rdf:RDF></metadata><defs
     id="defs324" /><g
     transform="matrix(0.19993327,0,0,0.19990235,0.01465042,0.01464815)"
     id="g318"><g
       id="Background"><g
         id="g297"><path
           id="path293"
           style="fill:#ffffff"
           d="M 300,30.271 C 300,13.564 286.436,0 269.729,0 H 30.271 C 13.564,0 0,13.564 0,30.271 V 269.729 C 0,286.436 13.564,300 30.271,300 H 269.729 C 286.436,300 300,286.436 300,269.729 Z" /><path
           id="path295"
           d="m 269.925,0.001 c 16.09972,-0.31510169 30.49384,14.17259 30.075,30.27 -0.1061,80.84884 0.21081,161.71193 -0.156,242.552 C 298.61375,288.46369 283.6522,301.15677 268.03194,300 187.74879,299.89388 107.45138,300.21085 27.177,299.844 11.536306,298.61375 -1.1567723,283.6522 0,268.03194 0.10612413,187.74879 -0.21084904,107.45138 0.156,27.177 1.3862455,11.536306 16.347799,-1.1567723 31.968056,0 111.28704,6.6687171e-4 190.60602,-0.00133361 269.925,0.001 Z M 30.296,16 C 21.973925,15.732721 14.968163,23.80142 16,31.993056 16.103721,111.93578 15.794138,191.89863 16.152,271.829 17.110107,279.66576 25.171747,285.14519 32.841585,284 112.50147,283.89626 192.18147,284.20589 271.829,283.848 279.6657,282.88989 285.14515,274.82817 284,267.15842 283.89626,187.49853 284.20589,107.81853 283.848,28.171 282.89006,20.334162 274.82812,14.854983 267.15842,16 188.20428,16 109.25014,16 30.296,16 Z"
           style="fill:#4d4d4d" /></g></g><g
       id="g316"><g
         id="g308"><g
           id="g302"
           transform="matrix(0,-1.75127,1.42064,0,22.4725,513.322)"><path
             id="path300"
             style="fill:#4d4d4d"
             d="M 207.484,99.968 236.031,150 h -57.094 z" /></g><g
           id="g306"
           transform="matrix(0,-0.656744,0.532754,0,139.382,286.225)"><path
             id="path304"
             style="fill:#ffffff"
             d="M 207.484,99.968 236.031,150 h -57.094 z" /></g></g><g
         id="g314"><path
           id="path310"
           style="fill:#4d4d4d"
           d="m 178.937,109.509 c 0,-5.266 -4.275,-9.541 -9.541,-9.541 H 74.938 c -5.265,0 -9.54,4.275 -9.54,9.541 v 80.905 c 0,5.266 4.275,9.541 9.54,9.541 h 94.458 c 5.266,0 9.541,-4.275 9.541,-9.541 z" /><rect
           id="rect312"
           style="fill:#ffffff"
           height="68.193001"
           width="84.647003"
           y="115.903"
           x="79.844002" /></g></g></g></svg>
