<svg width="60" height="60" viewBox="0 0 300 300" xmlns="http://www.w3.org/2000/svg" xml:space="preserve" style="fill-rule:evenodd;clip-rule:evenodd;stroke-linejoin:round;stroke-miterlimit:2">
    <path d="M300 30.271C300 13.564 286.436 0 269.729 0H30.271C13.564 0 0 13.564 0 30.271v239.458C0 286.436 13.564 300 30.271 300h239.458C286.436 300 300 286.436 300 269.729V30.271Z" style="fill:#fffefe"/>
    <path d="M300 30.271C300 13.564 286.436 0 269.729 0H30.271C13.564 0 0 13.564 0 30.271v239.458C0 286.436 13.564 300 30.271 300h239.458C286.436 300 300 286.436 300 269.729V30.271Zm-16 0v239.458c0 7.877-6.394 14.271-14.271 14.271H30.271C22.394 284 16 277.606 16 269.729V30.271C16 22.394 22.394 16 30.271 16h239.458C277.606 16 284 22.394 284 30.271Z" style="fill:#4d4d4d"/>
    <path d="M180.131 174.282v1.14c0 11.084-2.724 24.533-25.105 24.533H123.37c-22.409 0-25.136-13.449-25.136-24.533v-52.604a.42.42 0 0 1 .421-.419l40.553.174 40.503-.174a.42.42 0 0 1 .42.419v8.193c11.941 0 21.635 9.695 21.635 21.635 0 11.941-9.694 21.636-21.635 21.636Zm0-35.399v27.526c7.596 0 13.763-6.167 13.763-13.763s-6.167-13.763-13.763-13.763Zm-61.629-81.191s7.108 11.839 1.996 24.91c-9.984 25.532 9.726 28.484 9.726 28.484s-9.621-5.38-1.347-25.031c8.371-19.884-10.375-28.363-10.375-28.363Zm23.499-15.79s9.978 10.824 2.742 34.763c-9.696 32.077 12.307 34.58 14.443 34.414 2.137-.166-13.228-2.669-1.622-35.408 8.544-24.102-15.563-33.769-15.563-33.769Z" style="fill:#4d4d4d" transform="translate(-28.378 -1.922) scale(1.25629)"/>
</svg>
