<svg width="60" height="60" viewBox="0 0 300 300" xmlns="http://www.w3.org/2000/svg" xml:space="preserve" style="fill-rule:evenodd;clip-rule:evenodd;stroke-linejoin:round;stroke-miterlimit:2">
    <path d="M300 30.271C300 13.564 286.436 0 269.729 0H30.271C13.564 0 0 13.564 0 30.271v239.458C0 286.436 13.564 300 30.271 300h239.458C286.436 300 300 286.436 300 269.729V30.271Z" style="fill:#fffefe"/>
    <path d="M300 30.271C300 13.564 286.436 0 269.729 0H30.271C13.564 0 0 13.564 0 30.271v239.458C0 286.436 13.564 300 30.271 300h239.458C286.436 300 300 286.436 300 269.729V30.271Zm-16 0v239.458c0 7.877-6.394 14.271-14.271 14.271H30.271C22.394 284 16 277.606 16 269.729V30.271C16 22.394 22.394 16 30.271 16h239.458C277.606 16 284 22.394 284 30.271Z" style="fill:#4d4d4d"/>
    <path d="M69.997 234.964V121.73h.433L110 99.968l.069 21.762h.288l39.57-21.762.069 21.762h35.153l7.386-66.036h14.989l7.386 66.036h15.087v113.234h8.334v15H61.769v-15h8.228Zm50.073-49.585h-20v20h20v-20Zm39.98 0h-20v20h20v-20Zm39.98 0h-20v20h20v-20ZM120.07 150h-20v20h20v-20Zm39.98 0h-20v20h20v-20Zm39.98 0h-20v20h20v-20Z" style="fill:#4d4d4d"/>
</svg>
