<?xml version="1.0" encoding="UTF-8" standalone="no"?>
<svg
   xmlns:dc="http://purl.org/dc/elements/1.1/"
   xmlns:cc="http://creativecommons.org/ns#"
   xmlns:rdf="http://www.w3.org/1999/02/22-rdf-syntax-ns#"
   xmlns:svg="http://www.w3.org/2000/svg"
   xmlns="http://www.w3.org/2000/svg"
   id="svg1015"
   style="clip-rule:evenodd;fill-rule:evenodd;stroke-linejoin:round;stroke-miterlimit:1.41420996"
   xml:space="preserve"
   version="1.1"
   viewBox="0 0 60 60"
   height="60"
   width="60"><metadata
     id="metadata1021"><rdf:RDF><cc:Work
         rdf:about=""><dc:format>image/svg+xml</dc:format><dc:type
           rdf:resource="http://purl.org/dc/dcmitype/StillImage" /><dc:title></dc:title></cc:Work></rdf:RDF></metadata><defs
     id="defs1019" /><g
     transform="matrix(0.19993327,0,0,0.19990235,0.01465042,0.01464815)"
     id="g1013"><g
       id="Background"><g
         id="g1002"><path
           id="path998"
           style="fill:#ffffff"
           d="M 300,30.271 C 300,13.564 286.436,0 269.729,0 H 30.271 C 13.564,0 0,13.564 0,30.271 V 269.729 C 0,286.436 13.564,300 30.271,300 H 269.729 C 286.436,300 300,286.436 300,269.729 Z" /><path
           id="path1000"
           d="m 269.925,0.001 c 16.09972,-0.31510169 30.49384,14.17259 30.075,30.27 -0.1061,80.84884 0.21081,161.71193 -0.156,242.552 C 298.61375,288.46369 283.6522,301.15677 268.03194,300 187.74879,299.89388 107.45138,300.21085 27.177,299.844 11.536306,298.61375 -1.1567723,283.6522 0,268.03194 0.10612413,187.74879 -0.21084904,107.45138 0.156,27.177 1.3862455,11.536306 16.347799,-1.1567723 31.968056,0 111.28704,6.6687171e-4 190.60602,-0.00133361 269.925,0.001 Z M 30.296,16 C 21.973925,15.732721 14.968163,23.80142 16,31.993056 16.103721,111.93578 15.794138,191.89863 16.152,271.829 17.110107,279.66576 25.171747,285.14519 32.841585,284 112.50147,283.89626 192.18147,284.20589 271.829,283.848 279.6657,282.88989 285.14515,274.82817 284,267.15842 283.89626,187.49853 284.20589,107.81853 283.848,28.171 282.89006,20.334162 274.82812,14.854983 267.15842,16 188.20428,16 109.25014,16 30.296,16 Z"
           style="fill:#4d4d4d" /></g></g><g
       id="g1011"
       transform="matrix(0.910571,0,0,0.900856,13.4143,14.8716)"><path
         id="path1005"
         style="fill:#4d4d4d"
         d="m 184.85,216.436 0.002,0.005 c -10.416,5.48 -22.275,8.581 -34.852,8.581 -41.406,0 -75.022,-33.616 -75.022,-75.022 0,-41.406 33.616,-75.022 75.022,-75.022 6.321,0 12.461,0.783 18.327,2.258 v 10e-4 l 0.003,0.001 c 4.298,1.083 6.909,5.452 5.826,9.75 -1.083,4.298 -5.452,6.909 -9.75,5.826 -0.019,-0.005 -0.039,-0.01 -0.058,-0.015 l -0.001,0.003 c -4.593,-1.151 -9.399,-1.761 -14.347,-1.761 -32.541,0 -58.959,26.418 -58.959,58.959 0,32.541 26.418,58.959 58.959,58.959 9.787,0 19.021,-2.39 27.148,-6.617 0.056,-0.031 0.113,-0.062 0.17,-0.092 3.927,-2.053 8.784,-0.532 10.837,3.396 2.038,3.898 0.555,8.71 -3.305,10.79 z m 5.774,-109.15 c -3.18,-3.06 -3.294,-8.125 -0.247,-11.324 3.057,-3.21 8.144,-3.334 11.353,-0.277 l 0.002,0.001 v 0 c 14.345,13.669 23.29,32.955 23.29,54.314 0,14.97 -4.394,28.921 -11.961,40.634 v 0 c -2.402,3.723 -7.374,4.798 -11.099,2.398 -3.726,-2.4 -4.802,-7.374 -2.401,-11.1 0.017,-0.026 0.033,-0.052 0.051,-0.078 l -0.001,-0.001 c 5.915,-9.188 9.348,-20.123 9.348,-31.853 0,-16.801 -7.043,-31.971 -18.335,-42.714 z" /><path
         id="path1007"
         style="fill:#4d4d4d"
         d="m 241.101,124.485 c -0.007,-0.025 -0.014,-0.05 -0.021,-0.076 -1.204,-4.277 1.292,-8.726 5.569,-9.929 4.277,-1.204 8.726,1.292 9.929,5.569 0.012,0.042 0.024,0.084 0.035,0.126 h 10e-4 c 2.654,9.49 4.072,19.493 4.072,29.825 0,61.089 -49.597,110.686 -110.686,110.686 -19.04,0 -36.963,-4.817 -52.616,-13.299 -0.036,-0.019 -0.071,-0.038 -0.107,-0.057 -3.906,-2.116 -5.359,-7.006 -3.242,-10.912 2.116,-3.906 7.006,-5.359 10.912,-3.242 l 0.035,0.019 v -0.001 c 13.39,7.267 28.726,11.395 45.018,11.395 52.205,0 94.589,-42.384 94.589,-94.589 0,-8.839 -1.215,-17.397 -3.488,-25.515 z M 67.116,223.329 v 0 C 49.819,203.797 39.314,178.116 39.314,150 c 0,-30.642 12.478,-58.392 32.626,-78.442 0.04,-0.042 0.081,-0.084 0.123,-0.125 3.154,-3.127 8.252,-3.105 11.379,0.049 3.126,3.153 3.104,8.252 -0.049,11.378 l -0.032,0.031 0.003,0.004 C 66.104,100.034 55.411,123.778 55.411,150 c 0,24.002 8.96,45.928 23.713,62.613 0.018,0.019 0.036,0.039 0.053,0.059 2.943,3.326 2.631,8.416 -0.696,11.359 -3.327,2.943 -8.416,2.631 -11.359,-0.696 z M 226.796,94.795 v 0 C 209.616,70.948 181.608,55.411 150,55.411 c -14.128,0 -27.537,3.105 -39.582,8.668 v 0 c -4.031,1.839 -8.8,0.069 -10.653,-3.959 -1.857,-4.036 -0.089,-8.82 3.947,-10.677 v 0 C 117.798,42.941 133.479,39.314 150,39.314 c 37.007,0 69.797,18.201 89.898,46.132 h -0.001 0.001 c 2.591,3.607 1.767,8.64 -1.841,11.232 -3.607,2.591 -8.639,1.767 -11.231,-1.841 z" /><path
         id="path1009"
         style="fill:#4d4d4d"
         d="m 109.3,151.841 c -0.002,-0.038 -0.004,-0.077 -0.006,-0.115 -0.193,-4.55 3.344,-8.401 7.894,-8.593 4.55,-0.193 8.4,3.344 8.593,7.894 0.003,0.063 0.005,0.127 0.006,0.19 h 0.003 c 0.635,12.814 11.24,23.023 24.21,23.023 5.304,0 10.213,-1.707 14.206,-4.602 v 0.001 c 3.694,-2.599 8.807,-1.741 11.447,1.935 2.657,3.698 1.811,8.857 -1.887,11.513 v 0.001 c -6.691,4.816 -14.9,7.655 -23.766,7.655 -21.869,0 -39.737,-17.268 -40.702,-38.902 z m 12.815,-31.532 -10e-4,-0.002 c 7.291,-6.851 17.102,-11.05 27.886,-11.05 22.486,0 40.743,18.257 40.743,40.743 0,1.19 -0.052,2.369 -0.152,3.533 v 0 c -0.396,4.536 -4.399,7.898 -8.936,7.503 -4.537,-0.394 -7.9,-4.398 -7.506,-8.936 0.004,-0.04 0.008,-0.081 0.012,-0.122 h -0.001 c 0.053,-0.652 0.08,-1.312 0.08,-1.978 0,-13.379 -10.861,-24.24 -24.24,-24.24 -6.439,0 -12.295,2.516 -16.638,6.618 l -0.001,-10e-4 c -3.318,3.084 -8.516,2.913 -11.623,-0.391 -3.119,-3.317 -2.958,-8.541 0.358,-11.66 z" /></g></g></svg>
