<svg width="60" height="60" viewBox="0 0 300 300" xmlns="http://www.w3.org/2000/svg" xml:space="preserve" style="fill-rule:evenodd;clip-rule:evenodd;stroke-linejoin:round;stroke-miterlimit:1.41421">
    <path d="M300 30.271C300 13.564 286.436 0 269.729 0H30.271C13.564 0 0 13.564 0 30.271v239.458C0 286.436 13.564 300 30.271 300h239.458C286.436 300 300 286.436 300 269.729V30.271Z" style="fill:#fffefe"/>
    <path d="m269.925.001.195.001.195.004.195.004.195.005.194.007.194.008.193.009.193.011.193.011.193.013.192.014.192.016.191.016.192.018.191.018.19.02.19.022.19.022.19.023.189.025.188.026.189.027.188.028.187.029.188.031.186.031.187.033.186.034.186.035.185.036.185.037.184.039.184.039.184.041.183.042.183.043.182.043.182.046.182.046.181.047.18.048.181.05.179.05.18.052.179.052.178.054.178.055.177.056.177.057.177.058.176.059.175.06.175.061.175.062.174.063.174.064.173.066.172.066.172.067.172.068.171.07.17.07.17.071.17.073.169.073.168.074.168.076.167.076.167.077.166.079.166.079.165.08.165.081.164.083.163.083.163.084.162.085.162.086.161.087.161.088.16.088.159.09.159.091.158.092.158.092.157.094.156.094.156.095.155.096.154.098.154.098.153.099.153.099.152.101.151.102.151.102.15.104.149.104.149.105.148.106.147.107.147.107.146.109.145.109.145.111.144.111.143.112.143.113.142.113.141.115.141.115.139.116.14.117.138.118.138.118.137.12.136.12.135.121.135.122.134.122.134.124.132.124.132.125.131.125.13.127.13.127.129.128.128.129.127.13.127.13.125.131.125.132.124.132.124.134.122.134.122.135.121.135.12.136.12.137.118.138.118.138.117.14.116.139.115.141.115.141.113.142.113.143.112.143.111.144.111.145.109.145.109.146.107.147.107.147.106.148.105.149.104.149.104.15.102.151.102.151.101.152.099.153.099.153.098.154.098.154.096.155.095.156.094.156.094.157.092.158.092.158.091.159.09.159.088.16.088.161.087.161.086.162.085.162.084.163.083.163.083.164.081.165.08.165.079.166.079.166.077.167.076.167.076.168.074.168.073.169.073.17.071.17.07.17.07.171.068.172.067.172.066.172.066.173.064.174.063.174.062.175.061.175.06.175.059.176.058.177.057.177.056.177.055.178.054.178.052.179.052.18.05.179.05.181.048.18.047.181.046.182.046.182.043.182.043.183.042.183.041.184.039.184.039.184.037.185.036.185.035.186.034.186.033.187.031.186.031.188.029.187.028.188.027.189.026.188.025.189.023.19.022.19.022.19.02.19.018.191.018.192.016.191.016.192.014.192.013.193.011.193.011.193.009.193.008.194.007.194.005.195.004.195.004.195.001.195.001.196v239.458l-.001.196-.001.195-.004.195-.004.195-.005.195-.007.194-.008.194-.009.193-.011.193-.011.193-.013.193-.014.192-.016.192-.016.191-.018.192-.018.191-.02.19-.022.19-.022.19-.023.19-.025.189-.026.188-.027.189-.028.188-.029.187-.031.188-.031.186-.033.187-.034.186-.035.186-.036.185-.037.185-.039.184-.039.184-.041.184-.042.183-.043.183-.043.182-.046.182-.046.182-.047.181-.048.18-.05.181-.05.179-.052.18-.052.179-.054.178-.055.178-.056.177-.057.177-.058.177-.059.176-.06.175-.061.175-.062.175-.063.174-.064.174-.066.173-.066.172-.067.172-.068.172-.07.171-.07.17-.071.17-.073.17-.073.169-.074.168-.076.168-.076.167-.077.167-.079.166-.079.166-.08.165-.081.165-.083.164-.083.163-.084.163-.085.162-.086.162-.087.161-.088.161-.088.16-.09.159-.091.159-.092.158-.092.158-.094.157-.094.156-.095.156-.096.155-.098.154-.098.154-.099.153-.099.153-.101.152-.102.151-.102.151-.104.15-.104.149-.105.149-.106.148-.107.147-.107.147-.109.146-.109.145-.111.145-.111.144-.112.143-.113.143-.113.142-.115.141-.115.141-.116.139-.117.14-.118.138-.118.138-.12.137-.12.136-.121.135-.122.135-.122.134-.124.134-.124.132-.125.132-.125.131-.127.13-.127.13-.128.129-.129.128-.13.127-.13.127-.131.125-.132.125-.132.124-.134.124-.134.122-.135.122-.135.121-.136.12-.137.12-.138.118-.138.118-.14.117-.139.116-.141.115-.141.115-.142.113-.143.113-.143.112-.144.111-.145.111-.145.109-.146.109-.147.107-.147.107-.148.106-.149.105-.149.104-.15.104-.151.102-.151.102-.152.101-.153.099-.153.099-.154.098-.154.098-.155.096-.156.095-.156.094-.157.094-.158.092-.158.092-.159.091-.159.09-.16.088-.161.088-.161.087-.162.086-.162.085-.163.084-.163.083-.164.083-.165.081-.165.08-.166.079-.166.079-.167.077-.167.076-.168.076-.168.074-.169.073-.17.073-.17.071-.17.07-.171.07-.172.068-.172.067-.172.066-.173.066-.174.064-.174.063-.175.062-.175.061-.175.06-.176.059-.177.058-.177.057-.177.056-.178.055-.178.054-.179.052-.18.052-.179.05-.181.05-.18.048-.181.047-.182.046-.182.046-.182.043-.183.043-.183.042-.184.041-.184.039-.184.039-.185.037-.185.036-.186.035-.186.034-.187.033-.186.031-.188.031-.187.029-.188.028-.189.027-.188.026-.189.025-.19.023-.19.022-.19.022-.19.02-.191.018-.192.018-.191.016-.192.016-.192.014-.193.013-.193.011-.193.011-.193.009-.194.008-.194.007-.195.005-.195.004-.195.004-.195.001-.196.001H30.271l-.196-.001-.195-.001-.195-.004-.195-.004-.195-.005-.194-.007-.194-.008-.193-.009-.193-.011-.193-.011-.193-.013-.192-.014-.192-.016-.191-.016-.192-.018-.191-.018-.19-.02-.19-.022-.19-.022-.19-.023-.189-.025-.188-.026-.189-.027-.188-.028-.187-.029-.188-.031-.186-.031-.187-.033-.186-.034-.186-.035-.185-.036-.185-.037-.184-.039-.184-.039-.184-.041-.183-.042-.183-.043-.182-.043-.182-.046-.182-.046-.181-.047-.18-.048-.181-.05-.179-.05-.18-.052-.179-.052-.178-.054-.178-.055-.177-.056-.177-.057-.177-.058-.176-.059-.175-.06-.175-.061-.175-.062-.174-.063-.174-.064-.173-.066-.172-.066-.172-.067-.172-.068-.171-.07-.17-.07-.17-.071-.17-.073-.169-.073-.168-.074-.168-.076-.167-.076-.167-.077-.166-.079-.166-.079-.165-.08-.165-.081-.164-.083-.163-.083-.163-.084-.162-.085-.162-.086-.161-.087-.161-.088-.16-.088-.159-.09-.159-.091-.158-.092-.158-.092-.157-.094-.156-.094-.156-.095-.155-.096-.154-.098-.154-.098-.153-.099-.153-.099-.152-.101-.151-.102-.151-.102-.15-.104-.149-.104-.149-.105-.148-.106-.147-.107-.147-.107-.146-.109-.145-.109-.145-.111-.144-.111-.143-.112-.143-.113-.142-.113-.141-.115-.141-.115-.139-.116-.14-.117-.138-.118-.138-.118-.137-.12-.136-.12-.135-.121-.135-.122-.134-.122-.134-.124-.132-.124-.132-.125-.131-.125-.13-.127-.13-.127-.129-.128-.128-.129-.127-.13-.127-.13-.125-.131-.125-.132-.124-.132-.124-.134-.122-.134-.122-.135-.121-.135-.12-.136-.12-.137-.118-.138-.118-.138-.117-.14-.116-.139-.115-.141-.115-.141-.113-.142-.113-.143-.112-.143-.111-.144-.111-.145-.109-.145-.109-.146-.107-.147-.107-.147-.106-.148-.105-.149-.104-.149-.104-.15-.102-.151-.102-.151-.101-.152-.099-.153-.099-.153-.098-.154-.098-.154-.096-.155-.095-.156-.094-.156-.094-.157-.092-.158-.092-.158-.091-.159-.09-.159-.088-.16-.088-.161-.087-.161-.086-.162-.085-.162-.084-.163-.083-.163-.083-.164-.081-.165-.08-.165-.079-.166-.079-.166-.077-.167-.076-.167-.076-.168-.074-.168-.073-.169-.073-.17-.071-.17-.07-.17-.07-.171-.068-.172-.067-.172-.066-.172-.066-.173-.064-.174-.063-.174-.062-.175-.061-.175-.06-.175-.059-.176-.058-.177-.057-.177-.056-.177-.055-.178-.054-.178-.052-.179-.052-.18-.05-.179-.05-.181-.048-.18-.047-.181-.046-.182-.046-.182-.043-.182-.043-.183-.042-.183-.041-.184-.039-.184-.039-.184-.037-.185-.036-.185-.035-.186-.034-.186-.033-.187-.031-.186-.031-.188-.029-.187-.028-.188-.027-.189-.026-.188-.025-.189-.023-.19-.022-.19-.022-.19-.02-.19-.018-.191-.018-.192-.016-.191-.016-.192-.014-.192-.013-.193-.011-.193-.011-.193-.009-.193-.008-.194-.007-.194-.005-.195-.004-.195-.004-.195-.001-.195-.001-.196V30.271l.001-.196.001-.195.004-.195.004-.195.005-.195.007-.194.008-.194.009-.193.011-.193.011-.193.013-.193.014-.192.016-.192.016-.191.018-.192.018-.191.02-.19.022-.19.022-.19.023-.19.025-.189.026-.188.027-.189.028-.188.029-.187.031-.188.031-.186.033-.187.034-.186.035-.186.036-.185.037-.185.039-.184.039-.184.041-.184.042-.183.043-.183.043-.182.046-.182.046-.182.047-.181.048-.18.05-.181.05-.179.052-.18.052-.179.054-.178.055-.178.056-.177.057-.177.058-.177.059-.176.06-.175.061-.175.062-.175.063-.174.064-.174.066-.173.066-.172.067-.172.068-.172.07-.171.07-.17.071-.17.073-.17.073-.169.074-.168.076-.168.076-.167.077-.167.079-.166.079-.166.08-.165.081-.165.083-.164.083-.163.084-.163.085-.162.086-.162.087-.161.088-.161.088-.16.09-.159.091-.159.092-.158.092-.158.094-.157.094-.156.095-.156.096-.155.098-.154.098-.154.099-.153.099-.153.101-.152.102-.151.102-.151.104-.15.104-.149.105-.149.106-.148.107-.147.107-.147.109-.146.109-.145.111-.145.111-.144.112-.143.113-.143.113-.142.115-.141.115-.141.116-.139.117-.14.118-.138.118-.138.12-.137.12-.136.121-.135.122-.135.122-.134.124-.134.124-.132.125-.132.125-.131.127-.13.127-.13.128-.129.129-.128.13-.127.13-.127.131-.125.132-.125.132-.124.134-.124.134-.122.135-.122.135-.121.136-.12.137-.12.138-.118.138-.118.14-.117.139-.116.141-.115.141-.115.142-.113.143-.113.143-.112.144-.111.145-.111.145-.109.146-.109.147-.107.147-.107.148-.106.149-.105.149-.104.15-.104.151-.102.151-.102.152-.101.153-.099.153-.099.154-.098.154-.098.155-.096.156-.095.156-.094.157-.094.158-.092.158-.092.159-.091.159-.09.16-.088.161-.088.161-.087.162-.086.162-.085.163-.084.163-.083.164-.083.165-.081.165-.08.166-.079.166-.079.167-.077.167-.076.168-.076.168-.074.169-.073.17-.073.17-.071.17-.07.171-.07.172-.068.172-.067.172-.066.173-.066.174-.064.174-.063.175-.062.175-.061.175-.06.176-.059.177-.058.177-.057.177-.056.178-.055.178-.054.179-.052.18-.052.179-.05.181-.05.18-.048.181-.047.182-.046.182-.046.182-.043.183-.043.183-.042.184-.041.184-.039.184-.039.185-.037.185-.036.186-.035.186-.034.187-.033.186-.031.188-.031.187-.029.188-.028.189-.027.188-.026.189-.025.19-.023.19-.022.19-.022.19-.02.191-.018.192-.018.191-.016.192-.016.192-.014.193-.013.193-.011.193-.011.193-.009.194-.008.194-.007.195-.005.195-.004.195-.004.195-.001.196-.001h239.458l.196.001ZM30.296 16h-.12l-.093.001-.094.002-.093.002-.093.002-.093.004-.093.004-.092.004-.092.005-.092.005-.091.007-.091.006-.091.007-.091.008-.091.009-.09.008-.09.01-.09.01-.089.01-.089.011-.09.012-.088.012-.089.013-.088.013-.088.014-.088.014-.088.015-.087.015-.088.016-.087.017-.086.017-.087.017-.086.018-.086.018-.086.019-.086.02-.085.02-.085.021-.085.021-.085.021-.085.022-.084.023-.084.023-.084.023-.084.025-.084.024-.083.025-.083.026-.083.026-.082.026-.083.028-.082.027-.082.028-.082.029-.081.029-.082.029-.081.03-.081.031-.081.031-.08.031-.08.032-.08.033-.08.033-.08.033-.079.034-.079.034-.079.035-.079.035-.078.036-.078.036-.078.037-.078.037-.078.038-.077.038-.077.039-.077.039-.076.039-.077.04-.076.041-.076.041-.075.041-.075.042-.075.042-.075.043-.075.043-.074.044-.074.044-.074.044-.073.045-.073.046-.073.045-.073.047-.072.046-.073.048-.071.047-.072.048-.071.049-.071.049-.071.049-.07.05-.07.05-.07.051-.07.051-.069.051-.069.052-.068.052-.069.053-.068.053-.067.053-.068.054-.067.055-.066.054-.067.056-.066.055-.066.056-.065.056-.065.057-.065.057-.064.058-.064.057-.064.059-.063.058-.063.059-.063.06-.062.06-.062.06-.062.06-.061.061-.061.061-.06.062-.06.062-.06.062-.06.063-.059.063-.058.063-.059.064-.057.064-.058.064-.057.065-.057.065-.056.065-.056.066-.055.066-.056.067-.054.066-.055.067-.054.068-.053.067-.053.068-.053.069-.052.068-.052.069-.051.069-.051.07-.051.07-.05.07-.05.07-.049.071-.049.071-.049.071-.048.072-.047.071-.048.073-.046.072-.047.073-.045.073-.046.073-.045.073-.044.074-.044.074-.044.074-.043.075-.043.075-.042.075-.042.075-.041.075-.041.076-.041.076-.04.077-.039.076-.039.077-.039.077-.038.077-.038.078-.037.078-.037.078-.036.078-.036.078-.035.079-.035.079-.034.079-.034.079-.033.08-.033.08-.033.08-.032.08-.031.08-.031.081-.031.081-.03.081-.029.082-.029.081-.029.082-.028.082-.027.082-.028.083-.026.082-.026.083-.026.083-.025.083-.024.084-.025.084-.023.084-.023.084-.023.084-.022.085-.021.085-.021.085-.021.085-.02.085-.02.086-.019.086-.018.086-.018.086-.017.087-.017.086-.017.087-.016.088-.015.087-.015.088-.014.088-.014.088-.013.088-.013.089-.012.088-.012.09-.011.089-.01.089-.01.09-.01.09-.008.09-.009.091-.008.091-.007.091-.006.091-.007.091-.005.092-.005.092-.004.092-.004.093-.004.093-.002.093-.002.093-.002.094-.001.093v239.648l.001.093.002.094.002.093.002.093.004.093.004.093.004.092.005.092.005.092.007.091.006.091.007.091.008.091.009.091.008.09.01.09.01.09.01.089.011.089.012.09.012.088.013.089.013.088.014.088.014.088.015.088.015.087.016.087.017.087.017.087.017.087.018.086.019.086.018.086.02.086.02.085.021.085.021.086.021.084.022.085.023.084.023.084.023.084.025.084.024.084.025.083.026.083.026.083.026.083.028.082.027.082.028.082.029.082.029.081.029.082.03.081.031.081.031.081.031.08.032.08.033.08.033.08.033.08.034.08.034.078.035.079.035.079.036.078.036.078.037.078.037.078.038.078.038.077.039.077.039.077.039.077.04.076.04.075.041.076.042.077.042.074.042.075.043.075.043.074.044.075.044.074.044.074.045.073.045.073.047.074.046.072.046.072.048.073.048.072.047.071.049.071.048.071.05.071.05.07.05.071.051.069.05.069.052.07.052.069.052.068.053.069.053.068.053.067.055.068.054.067.055.067.054.065.056.067.056.066.056.065.057.065.057.065.057.064.058.064.059.064.059.064.059.062.058.062.061.064.06.061.06.062.061.061.061.061.062.061.061.059.063.06.063.06.063.059.063.058.064.059.064.057.064.058.065.057.065.057.065.056.066.056.066.055.067.056.066.054.068.055.067.054.067.053.068.053.068.053.068.052.07.052.069.052.069.05.071.051.07.05.07.05.071.05.071.048.071.049.071.048.073.047.072.048.072.047.072.045.073.046.074.046.073.045.074.044.074.045.074.043.074.043.076.043.074.042.075.042.076.041.076.041.077.041.076.04.077.039.076.04.077.038.077.038.077.038.078.037.078.036.079.037.079.036.078.035.078.035.079.034.08.034.081.034.078.032.081.033.081.032.079.031.081.031.081.031.082.03.081.029.08.029.083.029.082.028.082.028.083.027.082.026.082.026.085.026.083.025.082.024.084.024.085.024.084.023.084.023.085.022.086.022.083.02.086.021.085.02.085.019.087.02.086.018.086.018.086.017.088.017.087.017.087.016.087.015.087.015.088.014.089.014.088.013.088.013.091.012.088.012.089.011.089.01.09.01.09.01.09.008.09.009.091.008.092.007.092.007.091.006.09.005.093.005.093.004.092.004.093.004.092.002.094.002.094.002.093.001h239.648l.093-.001.094-.002.094-.002.092-.002.093-.004.092-.004.093-.004.093-.005.09-.005.091-.006.092-.007.092-.007.091-.008.09-.009.09-.008.09-.01.09-.01.089-.01.089-.011.088-.012.091-.012.088-.013.088-.013.089-.014.088-.014.087-.015.087-.015.087-.016.087-.017.088-.017.086-.017.086-.018.086-.018.087-.02.085-.019.085-.02.086-.021.084-.02.085-.022.085-.022.084-.023.084-.023.085-.024.084-.024.082-.024.083-.025.085-.026.082-.026.082-.026.083-.028.082-.027.082-.028.082-.029.081-.029.081-.029.082-.03.081-.031.081-.031.079-.031.081-.032.081-.033.078-.032.081-.034.081-.034.077-.034.078-.035.079-.035.079-.036.079-.036.078-.037.078-.037.077-.038.076-.038.078-.039.077-.039.076-.039.077-.04.075-.04.076-.041.077-.043.074-.041.075-.042.076-.043.074-.043.074-.043.074-.045.074-.044.073-.045.073-.046.074-.046.072-.045.071-.047.074-.048.072-.048.071-.047.071-.049.07-.048.072-.05.07-.05.071-.05.07-.051.068-.05.07-.052.07-.053.067-.051.069-.053.068-.053.067-.053.067-.054.068-.055.067-.055.065-.054.067-.057.066-.055.065-.056.065-.057.064-.057.065-.058.064-.057.064-.059.064-.059.062-.058.063-.06.063-.06.061-.059.062-.061.061-.061.061-.061.061-.062.059-.061.06-.063.06-.063.058-.062.059-.064.059-.064.057-.064.058-.065.057-.064.057-.065.056-.065.055-.066.057-.067.054-.065.055-.067.055-.068.054-.067.053-.067.053-.068.053-.069.051-.067.053-.07.052-.07.05-.068.051-.07.05-.071.05-.07.05-.072.048-.07.049-.071.047-.071.048-.072.048-.074.047-.071.045-.072.046-.074.046-.073.045-.073.044-.074.045-.074.043-.074.043-.074.043-.076.042-.075.041-.074.043-.077.041-.076.04-.075.04-.077.039-.076.039-.077.039-.078.038-.076.038-.077.037-.078.037-.078.036-.079.036-.079.035-.079.035-.078.034-.077.034-.081.034-.081.032-.078.033-.081.032-.081.031-.079.031-.081.031-.081.03-.082.029-.081.029-.081.029-.082.028-.082.027-.082.028-.083.026-.082.026-.082.026-.085.025-.083.024-.082.024-.084.024-.085.023-.084.023-.084.022-.085.022-.085.02-.084.021-.086.02-.085.019-.085.02-.087.018-.086.018-.086.017-.086.017-.088.017-.087.016-.087.015-.087.015-.087.014-.088.014-.089.013-.088.013-.088.012-.091.012-.088.011-.089.01-.089.01-.09.01-.09.008-.09.009-.09.008-.091.007-.092.007-.092.006-.091.005-.09.005-.093.004-.093.004-.092.004-.093.002-.092.002-.094.002-.094.001-.093V30.176l-.001-.093-.002-.094-.002-.094-.002-.092-.004-.093-.004-.092-.004-.093-.005-.093-.005-.09-.006-.091-.007-.092-.007-.092-.008-.091-.009-.09-.008-.09-.01-.09-.01-.09-.01-.089-.011-.089-.012-.088-.012-.091-.013-.088-.013-.088-.014-.089-.014-.088-.015-.087-.015-.087-.016-.087-.017-.087-.017-.088-.017-.086-.018-.086-.018-.086-.02-.087-.019-.085-.02-.085-.021-.086-.02-.083-.022-.086-.022-.085-.023-.084-.023-.084-.024-.085-.024-.084-.024-.082-.025-.083-.026-.085-.026-.082-.026-.082-.027-.083-.028-.082-.028-.082-.029-.083-.029-.08-.029-.081-.03-.082-.031-.081-.031-.081-.031-.079-.032-.081-.033-.081-.032-.078-.034-.081-.034-.08-.034-.079-.035-.078-.035-.078-.036-.079-.037-.079-.036-.078-.037-.078-.038-.077-.038-.077-.038-.077-.04-.076-.039-.077-.04-.076-.041-.077-.041-.076-.041-.076-.042-.075-.042-.074-.043-.076-.043-.074-.043-.074-.045-.074-.044-.074-.045-.073-.046-.074-.046-.073-.045-.072-.047-.072-.048-.072-.047-.073-.048-.071-.049-.071-.048-.071-.05-.071-.05-.07-.05-.07-.051-.071-.05-.069-.052-.069-.052-.07-.052-.068-.053-.068-.053-.068-.053-.067-.054-.067-.055-.068-.054-.066-.056-.067-.055-.066-.056-.066-.056-.065-.057-.065-.057-.065-.058-.064-.057-.064-.059-.064-.058-.063-.059-.063-.06-.063-.06-.063-.059-.061-.061-.062-.061-.061-.061-.061-.062-.06-.061-.06-.064-.061-.062-.058-.062-.059-.064-.059-.064-.059-.064-.058-.064-.057-.065-.057-.065-.057-.065-.056-.066-.056-.067-.056-.065-.054-.067-.055-.067-.054-.068-.055-.067-.053-.068-.053-.069-.053-.068-.052-.069-.052-.07-.052-.069-.05-.069-.051-.071-.05-.07-.05-.071-.05-.071-.048-.071-.049-.071-.047-.072-.048-.073-.048-.072-.046-.072-.046-.074-.047-.073-.045-.073-.045-.074-.044-.074-.044-.075-.044-.074-.043-.075-.043-.075-.042-.074-.042-.077-.042-.076-.041-.075-.04-.076-.04-.077-.039-.077-.039-.077-.039-.077-.038-.078-.038-.078-.037-.078-.037-.078-.036-.078-.036-.079-.035-.079-.035-.078-.034-.08-.034-.08-.033-.08-.033-.08-.033-.08-.032-.08-.031-.081-.031-.081-.031-.081-.03-.082-.029-.081-.029-.082-.029-.082-.028-.082-.027-.082-.028-.083-.026-.083-.026-.083-.026-.083-.025-.084-.024-.084-.025-.084-.023-.084-.023-.084-.023-.085-.022-.084-.021-.086-.021-.085-.021-.085-.02-.086-.02-.086-.018-.086-.019-.086-.018-.087-.017-.087-.017-.087-.017-.087-.016-.087-.015-.088-.015-.088-.014-.088-.014-.088-.013-.089-.013-.088-.012-.09-.012-.089-.011-.089-.01-.09-.01-.09-.01-.09-.008-.091-.009-.091-.008-.091-.007-.091-.006-.091-.007-.092-.005-.092-.005-.092-.004-.093-.004-.093-.004-.093-.002-.093-.002-.094-.002-.093-.001H30.296Z" style="fill:#4d4d4d"/>
    <g>
        <path d="m184.85 216.436.002.005c-10.416 5.48-22.275 8.581-34.852 8.581-41.406 0-75.022-33.616-75.022-75.022 0-41.406 33.616-75.022 75.022-75.022 6.321 0 12.461.783 18.327 2.258v.001l.003.001a8.035 8.035 0 0 1 5.826 9.75 8.035 8.035 0 0 1-9.75 5.826l-.058-.015-.001.003A58.955 58.955 0 0 0 150 91.041c-32.541 0-58.959 26.418-58.959 58.959 0 32.541 26.418 58.959 58.959 58.959 9.787 0 19.021-2.39 27.148-6.617l.17-.092c3.927-2.053 8.784-.532 10.837 3.396a8.035 8.035 0 0 1-3.305 10.79Zm5.774-109.15a8.034 8.034 0 0 1-.247-11.324 8.033 8.033 0 0 1 11.353-.277l.002.001c14.345 13.669 23.29 32.955 23.29 54.314 0 14.97-4.394 28.921-11.961 40.634a8.036 8.036 0 0 1-11.099 2.398 8.033 8.033 0 0 1-2.401-11.1l.051-.078-.001-.001c5.915-9.188 9.348-20.123 9.348-31.853 0-16.801-7.043-31.971-18.335-42.714Z" style="fill:#4c4c4c" transform="matrix(.91057 0 0 .90086 13.414 14.872)"/>
        <path d="m241.101 124.485-.021-.076a8.053 8.053 0 0 1 5.569-9.929 8.053 8.053 0 0 1 9.964 5.695h.001A110.59 110.59 0 0 1 260.686 150c0 61.089-49.597 110.686-110.686 110.686-19.04 0-36.963-4.817-52.616-13.299l-.107-.057a8.052 8.052 0 0 1-3.242-10.912 8.052 8.052 0 0 1 10.912-3.242l.035.019v-.001c13.39 7.267 28.726 11.395 45.018 11.395 52.205 0 94.589-42.384 94.589-94.589a94.507 94.507 0 0 0-3.488-25.515ZM67.116 223.329C49.819 203.797 39.314 178.116 39.314 150c0-30.642 12.478-58.392 32.626-78.442a8.05 8.05 0 0 1 11.502-.076 8.05 8.05 0 0 1-.049 11.378l-.032.031.003.004C66.104 100.034 55.411 123.778 55.411 150c0 24.002 8.96 45.928 23.713 62.613l.053.059c2.943 3.326 2.631 8.416-.696 11.359a8.05 8.05 0 0 1-11.359-.696l-.006-.006Zm159.68-128.534C209.616 70.948 181.608 55.411 150 55.411c-14.128 0-27.537 3.105-39.582 8.668a8.053 8.053 0 0 1-10.653-3.959 8.053 8.053 0 0 1 3.947-10.677c14.086-6.502 29.767-10.129 46.288-10.129 37.007 0 69.797 18.201 89.898 46.132h-.001.001a8.052 8.052 0 0 1-1.841 11.232 8.051 8.051 0 0 1-11.231-1.841l-.03-.042Z" style="fill:#4c4c4c" transform="matrix(.91057 0 0 .90086 13.414 14.872)"/>
        <path d="m109.3 151.841-.006-.115c-.193-4.55 3.344-8.401 7.894-8.593a8.254 8.254 0 0 1 8.599 8.084h.003c.635 12.814 11.24 23.023 24.21 23.023a24.121 24.121 0 0 0 14.206-4.602v.001c3.694-2.599 8.807-1.741 11.447 1.935a8.253 8.253 0 0 1-1.887 11.513v.001A40.548 40.548 0 0 1 150 190.743c-21.869 0-39.737-17.268-40.702-38.902h.002Zm12.815-31.532-.001-.002c7.291-6.851 17.102-11.05 27.886-11.05 22.486 0 40.743 18.257 40.743 40.743 0 1.19-.052 2.369-.152 3.533a8.255 8.255 0 0 1-8.936 7.503c-4.537-.394-7.9-4.398-7.506-8.936l.012-.122h-.001c.053-.652.08-1.312.08-1.978 0-13.379-10.861-24.24-24.24-24.24a24.156 24.156 0 0 0-16.638 6.618l-.001-.001c-3.318 3.084-8.516 2.913-11.623-.391a8.253 8.253 0 0 1 .358-11.66l.019-.017Z" style="fill:#4c4c4c" transform="matrix(.91057 0 0 .90086 13.414 14.872)"/>
    </g>
</svg>
