<svg width="60" height="60" viewBox="0 0 300 300" xmlns="http://www.w3.org/2000/svg" xml:space="preserve" style="fill-rule:evenodd;clip-rule:evenodd;stroke-linejoin:round;stroke-miterlimit:2">
    <path d="M300 30.271C300 13.564 286.436 0 269.729 0H30.271C13.564 0 0 13.564 0 30.271v239.458C0 286.436 13.564 300 30.271 300h239.458C286.436 300 300 286.436 300 269.729V30.271Z" style="fill:#fffefe"/>
    <path d="M300 30.271C300 13.564 286.436 0 269.729 0H30.271C13.564 0 0 13.564 0 30.271v239.458C0 286.436 13.564 300 30.271 300h239.458C286.436 300 300 286.436 300 269.729V30.271Zm-16 0v239.458c0 7.877-6.394 14.271-14.271 14.271H30.271C22.394 284 16 277.606 16 269.729V30.271C16 22.394 22.394 16 30.271 16h239.458C277.606 16 284 22.394 284 30.271Z" style="fill:#4d4d4d"/>
    <path d="M150.036 50.036c55.192 0 100 44.809 100 100 0 55.192-44.808 100-100 100-55.191 0-100-44.808-100-100 0-55.191 44.809-100 100-100Zm5.153 184.846a135.159 135.159 0 0 0 20.128-34.18 316.296 316.296 0 0 0-25.281-1.008c-8.557 0-17.021.343-25.374 1.016a135.22 135.22 0 0 0 20.151 34.168 86.07 86.07 0 0 0 10.376.004Zm58.602-28.652a306.4 306.4 0 0 0-23.289-3.936 149.455 149.455 0 0 1-14.33 28.642c14.69-4.748 27.637-13.39 37.619-24.706Zm-89.992 24.673a149.453 149.453 0 0 1-14.323-28.597 306.483 306.483 0 0 0-23.194 3.924c9.959 11.289 22.868 19.917 37.517 24.673ZM65.355 157.44a84.48 84.48 0 0 0 11.658 36.1 324.403 324.403 0 0 1 28.058-5.071 149.65 149.65 0 0 1-4.815-31.029H65.355Zm169.362 0h-35.024a149.632 149.632 0 0 1-4.795 31.015 324.997 324.997 0 0 1 28.162 5.084 84.434 84.434 0 0 0 11.657-36.099Zm-49.773 0h-69.938a134.724 134.724 0 0 0 4.882 29.356 335.854 335.854 0 0 1 30.148-1.351c10.143 0 20.162.455 30.045 1.342a134.808 134.808 0 0 0 4.863-29.347Zm38-51.1a324.975 324.975 0 0 1-28.103 5.067 149.551 149.551 0 0 1 4.845 31.08h35.019a84.422 84.422 0 0 0-11.761-36.147Zm-145.815.001a84.436 84.436 0 0 0-11.761 36.146h34.888a149.585 149.585 0 0 1 4.834-31.099 324.654 324.654 0 0 1-27.961-5.047Zm107.807 36.146a134.7 134.7 0 0 0-4.915-29.415 335.56 335.56 0 0 1-29.985 1.337c-10.174 0-20.223-.457-30.128-1.35a134.778 134.778 0 0 0-4.902 29.428h69.93Zm-29.748-77.296a85.263 85.263 0 0 0-10.5.012 135.208 135.208 0 0 0-19.998 33.944 316.478 316.478 0 0 0 25.346 1.013c8.499 0 16.905-.338 25.195-1.001a135.261 135.261 0 0 0-20.043-33.968Zm20.985 3.946a149.443 149.443 0 0 1 14.251 28.433 306.228 306.228 0 0 0 23.204-3.912c-9.96-11.225-22.845-19.798-37.455-24.521Zm-52.493.072c-14.52 4.738-27.326 13.283-37.235 24.449a306.38 306.38 0 0 0 23.057 3.893 149.442 149.442 0 0 1 14.178-28.342Z" style="fill:#4d4d4d"/>
</svg>
