<?xml version="1.0" encoding="UTF-8" standalone="no"?>
<svg
   xmlns:dc="http://purl.org/dc/elements/1.1/"
   xmlns:cc="http://creativecommons.org/ns#"
   xmlns:rdf="http://www.w3.org/1999/02/22-rdf-syntax-ns#"
   xmlns:svg="http://www.w3.org/2000/svg"
   xmlns="http://www.w3.org/2000/svg"
   id="svg114"
   style="clip-rule:evenodd;fill-rule:evenodd;stroke-linejoin:round;stroke-miterlimit:1.41420996"
   xml:space="preserve"
   version="1.1"
   viewBox="0 0 60 60"
   height="60"
   width="60"><metadata
     id="metadata120"><rdf:RDF><cc:Work
         rdf:about=""><dc:format>image/svg+xml</dc:format><dc:type
           rdf:resource="http://purl.org/dc/dcmitype/StillImage" /><dc:title></dc:title></cc:Work></rdf:RDF></metadata><defs
     id="defs118" /><g
     transform="matrix(0.19993327,0,0,0.19990235,0.01465042,0.01464815)"
     id="g112"><g
       id="Background"><path
         id="path93"
         style="fill:#ffffff"
         d="M 300,30.271 C 300,13.564 286.436,0 269.729,0 H 30.271 C 13.564,0 0,13.564 0,30.271 V 269.729 C 0,286.436 13.564,300 30.271,300 H 269.729 C 286.436,300 300,286.436 300,269.729 Z" /><path
         id="path95"
         d="m 269.925,0.001 c 16.09696,-0.31216393 30.49109,14.175131 30.075,30.27 -0.1061,80.84884 0.21081,161.71193 -0.156,242.552 C 298.61375,288.46369 283.6522,301.15677 268.03194,300 187.74879,299.89388 107.45138,300.21085 27.177,299.844 11.536306,298.61375 -1.1567723,283.6522 0,268.03194 0.10612413,187.74879 -0.21084904,107.45138 0.156,27.177 1.3862455,11.536306 16.347799,-1.1567723 31.968056,0 111.28704,6.6687171e-4 190.60602,-0.00133361 269.925,0.001 Z M 30.296,16 C 22.026584,15.736215 15.016126,23.717706 16,31.873056 16.111802,111.88482 15.777588,191.91917 16.165,271.917 17.162233,279.66957 25.119109,285.09897 32.721585,284 112.42148,283.89656 192.14146,284.20549 271.829,283.848 279.6657,282.88989 285.14515,274.82817 284,267.15842 283.89626,187.49853 284.20589,107.81853 283.848,28.171 282.89006,20.334162 274.82812,14.854983 267.15842,16 188.20428,16 109.25014,16 30.296,16 Z"
         style="fill:#4d4d4d" /></g><g
       id="g110"
       transform="translate(0.0808839,-7.28946)"><g
         id="g100"
         transform="translate(-0.0808839,14.5186)"><path
           id="path98"
           d="m 150.531,52.812 c 29.07485,-0.106674 57.35095,16.716599 71.249,42.246 14.15454,24.89985 13.66048,57.23549 -1.165,81.72 -5.97471,10.05991 -14.12414,18.8177 -23.724,25.506 6.25097,11.10823 12.99056,21.97 18.977,33.212 1.94056,4.32934 0.18585,10.88543 -5.079,11.615 -5.40863,0.73778 -9.4969,-4.12069 -11.44811,-8.58499 -5.50519,-9.42122 -10.91592,-19.13468 -16.47989,-28.37401 -25.80414,11.49438 -57.48076,8.31992 -80.372,-8.304 -22.950677,-15.98571 -36.45251,-44.30492 -34.42,-72.19 1.597041,-29.693132 20.864047,-57.505215 48.051,-69.542 10.75945,-4.900923 22.59083,-7.393023 34.411,-7.304 z m -0.973,16 c -24.8372,-0.126515 -48.83761,15.218215 -59.276,37.746 -10.862017,22.29831 -7.609949,50.60783 8.216,69.755 13.93557,17.71981 37.44012,27.1452 59.66,24.191 6.64293,-0.76708 13.35548,-2.78551 19.424,-5.463 2.13296,-1.36524 5.5887,0.28502 6.60977,-2.47375 3.30216,-3.85284 7.82415,-6.10312 11.15323,-9.59425 8.2359,-7.76859 14.33007,-17.48503 17.714,-28.207 0.0725,-0.21026 0.68658,-2.24639 0.914,-3.182 0.45286,-1.775 0.69883,-2.89043 0.962,-4.279 3.44107,-17.36311 -0.74748,-37.24964 -11.873,-51.791 C 190.75107,78.74673 170.35742,68.522287 149.558,68.812 Z m 61.291,91.933 c -0.0744,0.18277 0.1692,-0.39681 0,0 z m 0.241,-0.572 c -0.29992,0.79939 -0.20276,0.37499 0,0 z m 4.662,-18.48 c -0.0137,0.12958 0.006,-0.0498 0,0 z m 0.111,-1.13 c -0.40023,2.99451 0.58966,-2.93845 0.0402,-0.16061 z"
           style="fill:#4d4d4d" /></g><g
         id="g104"
         transform="translate(-0.0234314,18.6466)"><path
           id="path102"
           style="fill:#4d4d4d"
           d="m 100.017,104.797 h 69.758 l -14.29,-14.29 h 22.183 l 22.2,22.2 -22.2,22.199 h -22.16 l 14.475,-14.475 h -69.966 z" /></g><g
         id="g108"
         transform="matrix(-1,0,0,1,300.023,55.9398)"><path
           id="path106"
           style="fill:#4d4d4d"
           d="m 100.017,104.797 h 69.758 l -14.29,-14.29 h 22.183 l 22.2,22.2 -22.2,22.199 h -22.16 l 14.475,-14.475 h -69.966 z" /></g></g></g></svg>
