<?xml version="1.0" encoding="UTF-8" standalone="no"?>
<svg
   xmlns:dc="http://purl.org/dc/elements/1.1/"
   xmlns:cc="http://creativecommons.org/ns#"
   xmlns:rdf="http://www.w3.org/1999/02/22-rdf-syntax-ns#"
   xmlns:svg="http://www.w3.org/2000/svg"
   xmlns="http://www.w3.org/2000/svg"
   id="svg1981"
   style="clip-rule:evenodd;fill-rule:evenodd;stroke-linejoin:round;stroke-miterlimit:1.41420996"
   xml:space="preserve"
   version="1.1"
   viewBox="0 0 60 60"
   height="60"
   width="60"><metadata
     id="metadata1987"><rdf:RDF><cc:Work
         rdf:about=""><dc:format>image/svg+xml</dc:format><dc:type
           rdf:resource="http://purl.org/dc/dcmitype/StillImage" /><dc:title></dc:title></cc:Work></rdf:RDF></metadata><defs
     id="defs1985" /><g
     transform="matrix(0.19993327,0,0,0.19990235,0.01465042,0.01464815)"
     id="g1979"><g
       id="Background"><g
         id="g1974"><path
           id="path1970"
           style="fill:#ffffff"
           d="M 300,30.271 C 300,13.564 286.436,0 269.729,0 H 30.271 C 13.564,0 0,13.564 0,30.271 V 269.729 C 0,286.436 13.564,300 30.271,300 H 269.729 C 286.436,300 300,286.436 300,269.729 Z" /><path
           id="path1972"
           d="m 269.925,0.001 c 16.09972,-0.31510169 30.49384,14.17259 30.075,30.27 -0.1061,80.84884 0.21081,161.71193 -0.156,242.552 C 298.61375,288.46369 283.6522,301.15677 268.03194,300 187.74879,299.89388 107.45138,300.21085 27.177,299.844 11.536306,298.61375 -1.1567723,283.6522 0,268.03194 0.10612413,187.74879 -0.21084904,107.45138 0.156,27.177 1.3862455,11.536306 16.347799,-1.1567723 31.968056,0 111.28704,6.6687171e-4 190.60602,-0.00133361 269.925,0.001 Z M 30.296,16 C 21.973925,15.732721 14.968163,23.80142 16,31.993056 16.103721,111.93578 15.794138,191.89863 16.152,271.829 17.110107,279.66576 25.171747,285.14519 32.841585,284 112.50147,283.89626 192.18147,284.20589 271.829,283.848 279.6657,282.88989 285.14515,274.82817 284,267.15842 283.89626,187.49853 284.20589,107.81853 283.848,28.171 282.89006,20.334162 274.82812,14.854983 267.15842,16 188.20428,16 109.25014,16 30.296,16 Z"
           style="fill:#4d4d4d" /></g></g><path
       id="path1977"
       style="fill:#4d4d4d"
       d="m 144,108.687 c -8.111,-2.551 -14,-10.134 -14,-19.082 0,-11.039 8.962,-20 20,-20 11.038,0 20,8.961 20,20 0,8.948 -5.889,16.531 -14,19.082 v 22.23 c 8.111,2.551 14,10.135 14,19.083 0,3.336 -0.819,6.482 -2.266,9.249 l 22.997,22.997 c 2.779,-1.463 5.943,-2.291 9.299,-2.291 11.038,0 20,8.962 20,20 0,11.038 -8.962,20 -20,20 -11.039,0 -20,-8.962 -20,-20 0,-3.317 0.808,-6.445 2.24,-9.2 L 159.249,167.734 C 156.482,169.181 153.336,170 150,170 c -3.336,0 -6.482,-0.819 -9.249,-2.266 l -22.99,22.99 c 1.441,2.762 2.256,5.902 2.256,9.231 0,11.038 -8.961,20 -20,20 -11.038,0 -20,-8.962 -20,-20 0,-11.038 8.962,-20 20,-20 3.344,0 6.497,0.822 9.268,2.275 l 22.981,-22.981 C 130.819,156.482 130,153.336 130,150 c 0,-8.948 5.889,-16.532 14,-19.083 z" /></g></svg>
