<?xml version="1.0" encoding="UTF-8" standalone="no"?>
<svg
   xmlns:dc="http://purl.org/dc/elements/1.1/"
   xmlns:cc="http://creativecommons.org/ns#"
   xmlns:rdf="http://www.w3.org/1999/02/22-rdf-syntax-ns#"
   xmlns:svg="http://www.w3.org/2000/svg"
   xmlns="http://www.w3.org/2000/svg"
   id="svg565"
   style="clip-rule:evenodd;fill-rule:evenodd;stroke-linejoin:round;stroke-miterlimit:1.41420996"
   xml:space="preserve"
   version="1.1"
   viewBox="0 0 60 60"
   height="60"
   width="60"><metadata
     id="metadata571"><rdf:RDF><cc:Work
         rdf:about=""><dc:format>image/svg+xml</dc:format><dc:type
           rdf:resource="http://purl.org/dc/dcmitype/StillImage" /><dc:title></dc:title></cc:Work></rdf:RDF></metadata><defs
     id="defs569" /><g
     transform="matrix(0.19993327,0,0,0.19990235,0.01465042,0.01464815)"
     id="Background"><g
       id="g562"><path
         id="path528"
         style="fill:#ffffff"
         d="M 300,30.271 C 300,13.564 286.436,0 269.729,0 H 30.271 C 13.564,0 0,13.564 0,30.271 V 269.729 C 0,286.436 13.564,300 30.271,300 H 269.729 C 286.436,300 300,286.436 300,269.729 Z" /><path
         id="path530"
         d="m 269.925,0.001 c 16.09696,-0.31216393 30.49109,14.175131 30.075,30.27 -0.1061,80.84884 0.21081,161.71193 -0.156,242.552 C 298.61375,288.46369 283.6522,301.15677 268.03194,300 187.74879,299.89388 107.45138,300.21085 27.177,299.844 11.536306,298.61375 -1.1567723,283.6522 0,268.03194 0.10612413,187.74879 -0.21084904,107.45138 0.156,27.177 1.3862455,11.536306 16.347799,-1.1567723 31.968056,0 111.28704,6.6687171e-4 190.60602,-0.00133361 269.925,0.001 Z M 30.296,16 C 22.026584,15.736215 15.016126,23.717706 16,31.873056 16.111802,111.88482 15.777588,191.91917 16.165,271.917 17.162233,279.66957 25.119109,285.09897 32.721585,284 112.42148,283.89656 192.14146,284.20549 271.829,283.848 279.6657,282.88989 285.14515,274.82817 284,267.15842 283.89626,187.49853 284.20589,107.81853 283.848,28.171 282.89006,20.334162 274.82812,14.854983 267.15842,16 188.20428,16 109.25014,16 30.296,16 Z"
         style="fill:#4d4d4d" /><g
         id="g560"><g
           id="g534"
           transform="matrix(0.712935,0,0,0.712935,43.3615,44.2244)"><path
             id="path532"
             style="fill:#4d4d4d"
             d="m 122.981,208.691 c -0.709,-0.211 -1.327,-0.441 -1.827,-0.691 -4.3,-2.15 -8.019,-7.193 -8,-12 0.105,-26.438 -7.525,-37.446 -19.502,-56.75 0,0 0,0 0,0 C 87.984,129.292 85,117.997 85,106.5 85,70.35 113.936,41 149.577,41 c 35.641,0 64.577,29.35 64.577,65.5 0,11.497 -2.984,22.792 -8.652,32.75 -11.977,19.304 -19.608,30.312 -19.502,56.75 0.019,4.807 -3.7,9.85 -8,12 -0.541,0.27 -1.219,0.517 -2,0.741 v 39.882 c 0,1.864 -1.513,3.377 -3.377,3.377 h -0.065 l -10.813,15 h -24.51 l -10.813,-15 h -0.064 c -1.864,0 -3.377,-1.513 -3.377,-3.377 z" /></g><g
           id="g538"
           transform="translate(-2.57686)"><path
             id="path536"
             style="fill:#4d4d4d"
             d="m 83.659,109.101 c 1.819,0.883 1.96,21.248 0,22.101 -2.326,1.013 -32.082,-8.967 -32.082,-11.05 0,-1.969 29.981,-12.071 32.082,-11.051 z" /></g><g
           id="g542"
           transform="rotate(-30.000012,148.71145,124.96043)"><path
             id="path540"
             style="fill:#4d4d4d"
             d="m 83.659,109.101 c 1.819,0.883 1.96,21.248 0,22.101 -2.326,1.013 -32.082,-8.967 -32.082,-11.05 0,-1.969 29.981,-12.071 32.082,-11.051 z" /></g><g
           id="g546"
           transform="rotate(30.000012,148.71164,115.34332)"><path
             id="path544"
             style="fill:#4d4d4d"
             d="m 83.659,109.101 c 1.819,0.883 1.96,21.248 0,22.101 -2.326,1.013 -32.082,-8.967 -32.082,-11.05 0,-1.969 29.981,-12.071 32.082,-11.051 z" /></g><g
           id="g550"
           transform="matrix(-1,0,0,1,303.18,0)"><path
             id="path548"
             style="fill:#4d4d4d"
             d="m 83.659,109.101 c 1.819,0.883 1.96,21.248 0,22.101 -2.326,1.013 -32.082,-8.967 -32.082,-11.05 0,-1.969 29.981,-12.071 32.082,-11.051 z" /></g><g
           id="g554"
           transform="matrix(-0.866025,-0.5,-0.5,0.866025,343.16,91.0973)"><path
             id="path552"
             style="fill:#4d4d4d"
             d="m 83.659,109.101 c 1.819,0.883 1.96,21.248 0,22.101 -2.326,1.013 -32.082,-8.967 -32.082,-11.05 0,-1.969 29.981,-12.071 32.082,-11.051 z" /></g><g
           id="g558"
           transform="matrix(-0.866025,0.5,0.5,0.866025,223.008,-58.9027)"><path
             id="path556"
             style="fill:#4d4d4d"
             d="m 83.659,109.101 c 1.819,0.883 1.96,21.248 0,22.101 -2.326,1.013 -32.082,-8.967 -32.082,-11.05 0,-1.969 29.981,-12.071 32.082,-11.051 z" /></g></g></g></g></svg>
