<?xml version="1.0" encoding="UTF-8" standalone="no"?>
<svg
   xmlns:dc="http://purl.org/dc/elements/1.1/"
   xmlns:cc="http://creativecommons.org/ns#"
   xmlns:rdf="http://www.w3.org/1999/02/22-rdf-syntax-ns#"
   xmlns:svg="http://www.w3.org/2000/svg"
   xmlns="http://www.w3.org/2000/svg"
   id="svg6319"
   style="clip-rule:evenodd;fill-rule:evenodd;stroke-miterlimit:1.5"
   xml:space="preserve"
   version="1.1"
   viewBox="0 0 60 60"
   height="60"
   width="60"><metadata
     id="metadata6325"><rdf:RDF><cc:Work
         rdf:about=""><dc:format>image/svg+xml</dc:format><dc:type
           rdf:resource="http://purl.org/dc/dcmitype/StillImage" /><dc:title></dc:title></cc:Work></rdf:RDF></metadata><defs
     id="defs6323" /><g
     transform="matrix(0.19993327,0,0,0.19990235,0.01465042,0.01464815)"
     id="g6317"><g
       id="g6303"><g
         id="Background"><g
           id="g6266"><path
             id="path6262"
             style="fill:#ffffff"
             d="M 300,30.271 C 300,13.564 286.436,0 269.729,0 H 30.271 C 13.564,0 0,13.564 0,30.271 V 269.729 C 0,286.436 13.564,300 30.271,300 H 269.729 C 286.436,300 300,286.436 300,269.729 Z" /><path
             id="path6264"
             d="m 269.925,0.001 c 16.09972,-0.31510169 30.49384,14.17259 30.075,30.27 -0.1061,80.84884 0.21081,161.71193 -0.156,242.552 C 298.61375,288.46369 283.6522,301.15677 268.03194,300 187.74879,299.89388 107.45138,300.21085 27.177,299.844 11.536306,298.61375 -1.1567723,283.6522 0,268.03194 0.10612413,187.74879 -0.21084904,107.45138 0.156,27.177 1.3862455,11.536306 16.347799,-1.1567723 31.968056,0 111.28704,6.6687171e-4 190.60602,-0.00133361 269.925,0.001 Z M 30.296,16 C 21.973925,15.732721 14.968163,23.80142 16,31.993056 16.103721,111.93578 15.794138,191.89863 16.152,271.829 17.110107,279.66576 25.171747,285.14519 32.841585,284 112.50147,283.89626 192.18147,284.20589 271.829,283.848 279.6657,282.88989 285.14515,274.82817 284,267.15842 283.89626,187.49853 284.20589,107.81853 283.848,28.171 282.89006,20.334162 274.82812,14.854983 267.15842,16 188.20428,16 109.25014,16 30.296,16 Z"
             style="fill:#4d4d4d" /></g></g><g
         id="g6301"><g
           id="g6273"
           transform="matrix(0.914248,0,0,1.64663,12.8627,21.2131)"><path
             id="path6269"
             style="fill:#ffffff"
             d="m 259.395,93.085 c 0,-8.208 -12.003,-14.873 -26.787,-14.873 H 67.392 c -14.784,0 -26.787,6.665 -26.787,14.873 v 29.746 c 0,8.209 12.003,14.873 26.787,14.873 h 165.216 c 14.784,0 26.787,-6.664 26.787,-14.873 z" /><path
             id="path6271"
             d="m 232.781,78.213 c 8.32204,0.139396 17.37897,1.929294 23.532,7.944 2.65064,2.516645 3.51254,6.291066 3.082,9.832456 -0.10765,9.449934 0.2054,18.926014 -0.138,28.361544 -1.29807,5.90682 -7.21782,9.23004 -12.488,11.104 -9.9108,3.50279 -20.58804,1.87439 -30.86162,2.249 -50.30446,-0.0397 -100.61155,0.0792 -150.91438,-0.059 -7.848072,-0.49681 -16.394608,-2.49558 -21.885,-8.531 -2.506475,-2.64989 -2.802374,-6.45913 -2.503,-9.91357 0.108218,-9.20751 -0.206196,-18.44136 0.138,-27.63443 1.297479,-5.907473 7.218031,-9.229956 12.488,-11.105 9.911191,-3.501305 20.587932,-1.875158 30.861619,-2.249 49.562791,6.67e-4 99.125591,-0.0013 148.688381,10e-4 z M 67.412,85.5 c -4.605604,0.07833 -9.91631,1.093491 -12.857,4.981 -1.716775,2.713615 -0.420623,6.163238 -0.825,9.151025 0.0935,8.052825 -0.174472,16.133865 0.111,24.171975 1.137285,3.80473 5.410875,5.40191 8.938,6.17 6.081283,1.00681 12.299704,0.16721 18.430164,0.442 51.049776,-0.0412 102.103506,0.082 153.150836,-0.061 4.19166,-0.37736 9.07847,-1.58938 11.393,-5.447 1.25806,-2.92065 0.14004,-6.28182 0.517,-9.35014 -0.10542,-7.82553 0.19542,-15.684334 -0.122,-23.49286 -1.16997,-3.772379 -5.41056,-5.357167 -8.927,-6.122 -6.08081,-1.007939 -12.29909,-0.168294 -18.42916,-0.443 -50.45995,0 -100.91989,0 -151.37984,0 z"
             style="fill:#4d4d4d" /></g><g
           id="g6279"
           transform="matrix(0.679342,0,0,0.374249,48.0987,175.709)"><path
             id="path6275"
             style="fill:#ffffff"
             d="m 259.395,93.085 c 0,-8.208 -3.671,-14.873 -8.193,-14.873 H 48.798 c -4.522,0 -8.193,6.665 -8.193,14.873 v 29.746 c 0,8.209 3.671,14.873 8.193,14.873 h 202.404 c 4.522,0 8.193,-6.664 8.193,-14.873 z" /><path
             id="path6277"
             d="m 251.308,78.214 c 5.26434,0.650942 7.17738,6.843181 7.854,11.335 0.51166,11.88525 0.20707,23.83237 0.123,35.73 -0.53438,4.73333 -2.16977,11.07071 -7.453,12.382 -67.98521,0.0355 -135.99664,0.14397 -203.974,-0.054 -5.412726,-1.77117 -6.856048,-8.42539 -7.221,-13.444 0.18263,-11.70572 -0.499081,-23.4686 0.279,-35.147 0.740035,-4.34884 2.744346,-10.321082 7.882,-10.804 67.50333,0.0013 135.0067,-0.0027 202.51,0.002 z M 48.822,91.573 c -1.67692,0.596214 -0.3798,3.533965 -0.857,4.535644 0.163678,9.170576 -0.28085,18.414826 0.138,27.555356 0.87717,1.95286 3.977691,-0.0196 5.488031,0.68 65.960959,-0.063 131.975169,0.12576 197.902969,-0.094 1.55383,-2.03266 -0.0543,-5.12156 0.541,-7.42329 -0.18111,-8.17464 0.30457,-16.43106 -0.138,-24.57471 -0.87394,-1.958808 -3.98037,0.02587 -5.48803,-0.679 -65.86232,0 -131.72465,0 -197.58697,0 z"
             style="fill:#4d4d4d" /></g><g
           id="g6283"
           transform="matrix(1.02318,0,0,1.02318,45.8158,63.0004)"><circle
             id="circle6281"
             style="fill:#4d4d4d"
             r="7.8189998"
             cy="115.417"
             cx="37.462002" /></g><g
           id="g6287"
           transform="matrix(1.02318,0,0,1.02318,69.6871,63.0004)"><circle
             id="circle6285"
             style="fill:#4d4d4d"
             r="7.8189998"
             cy="115.417"
             cx="37.462002" /></g><g
           id="g6293"
           transform="matrix(1.37116,0,0,1,31.6697,123.899)"><rect
             id="rect6289"
             style="fill:#4d4d4d"
             height="9.5220003"
             width="102.046"
             y="82.691002"
             x="35.437" /><rect
             id="rect6291"
             style="fill:#4d4d4d"
             height="9.5220003"
             width="102.046"
             y="82.691002"
             x="35.437" /></g><g
           id="g6299"
           transform="matrix(0.381081,0,0,1,144.69,7.04087)"><path
             id="path6295"
             style="fill:#4d4d4d"
             d="m 208.951,169.32 c 0,-1.287 -2.742,-2.332 -6.12,-2.332 H 162.19 c -3.378,0 -6.12,1.045 -6.12,2.332 0,1.287 2.742,2.332 6.12,2.332 h 40.641 c 3.378,0 6.12,-1.045 6.12,-2.332 z" /><path
             id="path6297"
             d="m 178.111,167.145 c -0.85555,1.29547 -0.85493,3.05432 0,4.35 0.18925,0.33398 -0.70114,0.0756 -0.97223,0.157 -5.24249,-0.0127 -10.4858,0.0254 -15.72777,-0.019 -1.63269,-0.1113 -3.3689,-0.33458 -4.737,-1.303 -0.55225,-0.36113 -0.84204,-1.17975 -0.329,-1.704 0.94251,-0.9892 2.37604,-1.26115 3.66833,-1.48654 2.07589,-0.27864 4.17735,-0.10112 6.26456,-0.15146 3.9777,0 7.95541,0 11.93311,0 -0.0333,0.0523 -0.0667,0.10467 -0.1,0.157 z m 24.878,-0.157 c 1.78737,0.0497 3.67768,0.24677 5.223,1.22 0.58388,0.34171 1.02176,1.1582 0.507,1.75 -0.87238,0.99276 -2.26564,1.2715 -3.506,1.51 -2.11824,0.32568 -4.26964,0.13063 -6.40287,0.184 -4.00004,0 -8.00009,0 -12.00013,0 0.90451,-1.27347 1.00733,-3.05413 0.16845,-4.38734 -0.42447,-0.46644 0.41114,-0.21387 0.70274,-0.27666 5.1026,0 10.20521,0 15.30781,0 z"
             style="fill:#4d4d4d" /></g></g></g><g
       id="g6315"><g
         id="g6309"><path
           id="path6305"
           style="fill:#ffffff"
           d="m 178.679,120.543 v 6.552 h -67.798 v -6.552 z m 0,-18.573 v 6.551 h -67.798 v -6.551 z m 0,-18.574 v 6.552 h -67.798 v -6.552 z" /><path
           id="path6307"
           style="fill:#4d4d4d"
           d="m 178.679,127.095 h -67.798 v -6.552 h 67.798 z m 0,-18.574 h -67.798 v -6.551 h 67.798 z m 0,-18.573 h -67.798 v -6.552 h 67.798 z" /></g><g
         id="g6313"
         transform="translate(0.332323,2.43782)"><path
           id="path6311"
           style="fill:#4d4d4d;fill-opacity:0;stroke:#4d4d4d;stroke-width:12px"
           d="M 93.88,138.674 V 56.386 h 111.576 v 82.288" /></g></g></g></svg>
