<svg width="60" height="60" viewBox="0 0 300 300" xmlns="http://www.w3.org/2000/svg" xml:space="preserve" style="fill-rule:evenodd;clip-rule:evenodd;stroke-linejoin:round;stroke-miterlimit:2">
    <path d="M300 30.271C300 13.564 286.436 0 269.729 0H30.271C13.564 0 0 13.564 0 30.271v239.458C0 286.436 13.564 300 30.271 300h239.458C286.436 300 300 286.436 300 269.729V30.271Z" style="fill:#fffefe"/>
    <path d="M300 30.271C300 13.564 286.436 0 269.729 0H30.271C13.564 0 0 13.564 0 30.271v239.458C0 286.436 13.564 300 30.271 300h239.458C286.436 300 300 286.436 300 269.729V30.271Zm-16 0v239.458c0 7.877-6.394 14.271-14.271 14.271H30.271C22.394 284 16 277.606 16 269.729V30.271C16 22.394 22.394 16 30.271 16h239.458C277.606 16 284 22.394 284 30.271Z" style="fill:#4d4d4d"/>
    <path d="M138.458 152.273v49.996l20.457-20.455-.069 31.366-31.5 31.5-31.434-31.435v-31.476l20.518 20.518v-49.872l22.028-.142Zm56.033-35.843h49.873l.141 22.028h-49.996l20.455 20.457-31.365-.069-31.5-31.5 31.434-31.434h31.476l-20.518 20.518ZM70.967 158.915H39.49l20.519-20.518H10.136l-.142-22.028H59.99L39.536 95.912l31.365.069 31.5 31.5-31.434 31.434Zm45.402-56.481V52.438L95.912 72.893l.069-31.366 31.5-31.499 31.434 31.434v31.476L138.397 52.42v49.872l-22.028.142Z" style="fill:#4d4d4d" transform="rotate(-45 156.76 133.404) scale(1.10212)"/>
</svg>
