<?xml version="1.0" encoding="UTF-8" standalone="no"?>
<svg
   xmlns:dc="http://purl.org/dc/elements/1.1/"
   xmlns:cc="http://creativecommons.org/ns#"
   xmlns:rdf="http://www.w3.org/1999/02/22-rdf-syntax-ns#"
   xmlns:svg="http://www.w3.org/2000/svg"
   xmlns="http://www.w3.org/2000/svg"
   id="svg7294"
   style="clip-rule:evenodd;fill-rule:evenodd;stroke-linejoin:round;stroke-miterlimit:1.41420996"
   xml:space="preserve"
   version="1.1"
   viewBox="0 0 60 60"
   height="60"
   width="60"><metadata
     id="metadata7300"><rdf:RDF><cc:Work
         rdf:about=""><dc:format>image/svg+xml</dc:format><dc:type
           rdf:resource="http://purl.org/dc/dcmitype/StillImage" /><dc:title></dc:title></cc:Work></rdf:RDF></metadata><defs
     id="defs7298" /><g
     transform="matrix(0.19993327,0,0,0.19990235,0.01465042,0.01464815)"
     id="g7292"><g
       id="Background"><g
         id="g7273"><path
           id="path7269"
           style="fill:#ffffff"
           d="M 300,30.271 C 300,13.564 286.436,0 269.729,0 H 30.271 C 13.564,0 0,13.564 0,30.271 V 269.729 C 0,286.436 13.564,300 30.271,300 H 269.729 C 286.436,300 300,286.436 300,269.729 Z" /><path
           id="path7271"
           d="m 269.925,0.001 c 16.09972,-0.31510169 30.49384,14.17259 30.075,30.27 -0.1061,80.84884 0.21081,161.71193 -0.156,242.552 C 298.61375,288.46369 283.6522,301.15677 268.03194,300 187.74879,299.89388 107.45138,300.21085 27.177,299.844 11.536306,298.61375 -1.1567723,283.6522 0,268.03194 0.10612413,187.74879 -0.21084904,107.45138 0.156,27.177 1.3862455,11.536306 16.347799,-1.1567723 31.968056,0 111.28704,6.6687171e-4 190.60602,-0.00133361 269.925,0.001 Z M 30.296,16 C 21.973925,15.732721 14.968163,23.80142 16,31.993056 16.103721,111.93578 15.794138,191.89863 16.152,271.829 17.110107,279.66576 25.171747,285.14519 32.841585,284 112.50147,283.89626 192.18147,284.20589 271.829,283.848 279.6657,282.88989 285.14515,274.82817 284,267.15842 283.89626,187.49853 284.20589,107.81853 283.848,28.171 282.89006,20.334162 274.82812,14.854983 267.15842,16 188.20428,16 109.25014,16 30.296,16 Z"
           style="fill:#4d4d4d" /></g></g><g
       id="g7290"
       transform="translate(22.5864,24.9658)"><path
         id="path7276"
         style="fill:#4d4d4d"
         d="M 74.348,182.188 C 51.779,165.762 37.097,139.141 37.097,109.117 c 0,-49.847 40.47,-90.316 90.317,-90.316 49.846,0 90.316,40.469 90.316,90.316 0,29.933 -14.594,56.485 -37.048,72.922 0.156,0.531 0.24,1.093 0.24,1.675 v 41.61 c 0,3.28 -2.663,5.943 -5.943,5.943 h -11.886 c -3.281,0 -5.944,-2.663 -5.944,-5.943 v -30.908 c -1.285,0.448 -2.584,0.869 -3.895,1.26 v 29.648 c 0,3.28 -2.663,5.943 -5.943,5.943 h -11.886 c -3.28,0 -5.943,-2.663 -5.943,-5.943 V 199.41 c -0.688,0.016 -1.377,0.023 -2.068,0.023 -0.617,0 -1.232,-0.006 -1.845,-0.018 v 25.909 c 0,3.28 -2.663,5.943 -5.944,5.943 h -11.886 c -3.28,0 -5.943,-2.663 -5.943,-5.943 v -29.582 c -1.304,-0.385 -2.595,-0.799 -3.873,-1.241 v 30.823 c 0,3.28 -2.663,5.943 -5.944,5.943 H 80.093 c -3.28,0 -5.943,-2.663 -5.943,-5.943 v -41.61 c 0,-0.528 0.069,-1.039 0.198,-1.526 z" /><g
         id="g7288"><path
           id="path7278"
           style="fill:#ffffff"
           d="m 65.717,98.232 c 8.653,-0.138 51.752,29.726 51.752,36.504 -10e-4,6.779 -33.824,18.284 -52.545,4.385 -13.65,-10.134 -10.186,-40.715 0.793,-40.889 z" /><g
           id="g7282"
           transform="matrix(-1,0,0,1,254.827,0)"><path
             id="path7280"
             style="fill:#ffffff"
             d="m 65.717,98.232 c 8.653,-0.138 51.752,29.726 51.752,36.504 -10e-4,6.779 -33.824,18.284 -52.545,4.385 -13.65,-10.134 -10.186,-40.715 0.793,-40.889 z" /></g><g
           id="g7286"
           transform="translate(-7.05456,-2.59864)"><path
             id="path7284"
             style="fill:#ffffff"
             d="m 134.468,155.392 c 0,0 -9.945,17.602 -9.945,25.146 0,5.489 4.456,9.945 9.945,9.945 5.489,0 9.945,-4.456 9.945,-9.945 0,-7.544 -9.945,-25.146 -9.945,-25.146 z" /></g></g></g></g></svg>
