<?xml version="1.0" encoding="UTF-8" standalone="no"?>
<svg
   xmlns:dc="http://purl.org/dc/elements/1.1/"
   xmlns:cc="http://creativecommons.org/ns#"
   xmlns:rdf="http://www.w3.org/1999/02/22-rdf-syntax-ns#"
   xmlns:svg="http://www.w3.org/2000/svg"
   xmlns="http://www.w3.org/2000/svg"
   id="svg697"
   style="clip-rule:evenodd;fill-rule:evenodd;stroke-linejoin:round;stroke-miterlimit:1.41420996"
   xml:space="preserve"
   version="1.1"
   viewBox="0 0 60 60"
   height="60"
   width="60"><metadata
     id="metadata703"><rdf:RDF><cc:Work
         rdf:about=""><dc:format>image/svg+xml</dc:format><dc:type
           rdf:resource="http://purl.org/dc/dcmitype/StillImage" /><dc:title></dc:title></cc:Work></rdf:RDF></metadata><defs
     id="defs701" /><g
     transform="matrix(0.19993327,0,0,0.19990235,0.01465042,0.01464815)"
     id="g695"><g
       id="Background"><path
         id="path676"
         style="fill:#ffffff"
         d="M 300,30.271 C 300,13.564 286.436,0 269.729,0 H 30.271 C 13.564,0 0,13.564 0,30.271 V 269.729 C 0,286.436 13.564,300 30.271,300 H 269.729 C 286.436,300 300,286.436 300,269.729 Z" /><path
         id="path678"
         d="m 269.925,0.001 c 16.09696,-0.31216393 30.49109,14.175131 30.075,30.27 -0.1061,80.84884 0.21081,161.71193 -0.156,242.552 C 298.61375,288.46369 283.6522,301.15677 268.03194,300 187.74879,299.89388 107.45138,300.21085 27.177,299.844 11.536306,298.61375 -1.1567723,283.6522 0,268.03194 0.10612413,187.74879 -0.21084904,107.45138 0.156,27.177 1.3862455,11.536306 16.347799,-1.1567723 31.968056,0 111.28704,6.6687171e-4 190.60602,-0.00133361 269.925,0.001 Z M 30.296,16 C 22.026584,15.736215 15.016126,23.717706 16,31.873056 16.111802,111.88482 15.777588,191.91917 16.165,271.917 17.162233,279.66957 25.119109,285.09897 32.721585,284 112.42148,283.89656 192.14146,284.20549 271.829,283.848 279.6657,282.88989 285.14515,274.82817 284,267.15842 283.89626,187.49853 284.20589,107.81853 283.848,28.171 282.89006,20.334162 274.82812,14.854983 267.15842,16 188.20428,16 109.25014,16 30.296,16 Z"
         style="fill:#4d4d4d" /></g><g
       id="g693"
       transform="translate(0.0808839,-14.5186)"><g
         id="g691"><g
           id="g685"
           transform="matrix(-1,0,0,1,299.919,20.7086)"><path
             id="path681"
             d="m 150.531,52.812 c 34.87706,-0.292686 68.04162,24.312009 77.89962,57.78286 8.64283,26.89731 1.84872,57.90078 -17.06362,78.82214 -4.29948,4.83584 -9.1678,9.16629 -14.476,12.867 6.27542,11.09704 12.95577,21.98258 18.977,33.2124 5.42293,11.98717 -12.82702,15.82381 -15.76378,4.35175 C 194.34461,229.98618 188.6794,219.83209 182.861,210.152 154.03612,223.00575 117.93947,217.41943 94.812556,195.66521 69.280745,173.1997 60.72929,134.2074 74.311125,103.07855 86.71685,72.876768 117.883,52.272391 150.531,52.812 Z"
             style="fill:#ffffff;fill-opacity:0" /><path
             id="path683"
             d="m 150.531,52.812 c 29.07485,-0.106674 57.35095,16.716599 71.249,42.246 14.15454,24.89985 13.66048,57.23549 -1.165,81.72 -5.97471,10.05991 -14.12414,18.8177 -23.724,25.506 6.25097,11.10823 12.99056,21.97 18.977,33.212 1.94056,4.32934 0.18585,10.88543 -5.079,11.615 -5.40863,0.73778 -9.4969,-4.12069 -11.44811,-8.58499 -5.50519,-9.42122 -10.91592,-19.13468 -16.47989,-28.37401 -25.80414,11.49438 -57.48076,8.31992 -80.372,-8.304 -22.950677,-15.98571 -36.45251,-44.30492 -34.42,-72.19 1.597041,-29.693132 20.864047,-57.505215 48.051,-69.542 10.75945,-4.900923 22.59083,-7.393023 34.411,-7.304 z m -0.973,16 c -24.83721,-0.126545 -48.83762,15.218213 -59.276,37.746 -10.864963,22.29883 -7.605051,50.60695 8.216,69.755 13.93583,17.72035 37.44204,27.14623 59.66,24.191 6.63808,-0.76668 13.34361,-2.78049 19.422,-5.463 2.13425,-1.36339 5.58973,0.28376 6.61177,-2.47375 3.30067,-3.85145 7.82724,-6.10569 11.15323,-9.59425 10.27811,-9.69705 17.23354,-22.43858 19.718,-36.358 0.26901,-1.5175 0.49591,-3.07349 0.667,-4.708 -0.18184,2.77172 0.0582,-0.74529 0.173,-1.903 1.23586,-14.98314 -3.06446,-31.13818 -12.14,-43.53 C 191.52591,79.157478 170.76088,68.51011 149.558,68.812 Z m 61.409,91.658 c -0.16688,0.37606 0.0398,-0.08 0,0 z m 2.151,-5.894 c -0.0366,0.12421 0.0219,-0.0712 0,0 z m 0.181,-0.589 c -0.27945,0.91901 -0.17597,0.5627 0,0 z m 1.547,-6.211 c -0.30854,1.45344 0.08,-0.34285 0,0 z"
             style="fill:#4d4d4d" /></g><g
           id="g689"
           transform="translate(59.823,65.5189)"><path
             id="path687"
             style="fill:#4d4d4d"
             d="m 130.096,50 v 80 h -80 V 50 Z m -10,10 h -60 v 60 h 60 z" /></g></g></g></g></svg>
