<?xml version="1.0" encoding="UTF-8" standalone="no"?>
<svg
   xmlns:dc="http://purl.org/dc/elements/1.1/"
   xmlns:cc="http://creativecommons.org/ns#"
   xmlns:rdf="http://www.w3.org/1999/02/22-rdf-syntax-ns#"
   xmlns:svg="http://www.w3.org/2000/svg"
   xmlns="http://www.w3.org/2000/svg"
   id="svg7758"
   style="clip-rule:evenodd;fill-rule:evenodd;stroke-linejoin:round;stroke-miterlimit:1.41420996"
   xml:space="preserve"
   version="1.1"
   viewBox="0 0 60 60"
   height="60"
   width="60"><metadata
     id="metadata7764"><rdf:RDF><cc:Work
         rdf:about=""><dc:format>image/svg+xml</dc:format><dc:type
           rdf:resource="http://purl.org/dc/dcmitype/StillImage" /><dc:title></dc:title></cc:Work></rdf:RDF></metadata><defs
     id="defs7762" /><g
     transform="matrix(0.19993327,0,0,0.19990235,0.01465042,0.01464815)"
     id="g7756"><g
       id="Background"><g
         id="g7751"><path
           id="path7747"
           style="fill:#ffffff"
           d="M 300,30.271 C 300,13.564 286.436,0 269.729,0 H 30.271 C 13.564,0 0,13.564 0,30.271 V 269.729 C 0,286.436 13.564,300 30.271,300 H 269.729 C 286.436,300 300,286.436 300,269.729 Z" /><path
           id="path7749"
           d="m 269.925,0.001 c 16.09972,-0.31510169 30.49384,14.17259 30.075,30.27 -0.1061,80.84884 0.21081,161.71193 -0.156,242.552 C 298.61375,288.46369 283.6522,301.15677 268.03194,300 187.74879,299.89388 107.45138,300.21085 27.177,299.844 11.536306,298.61375 -1.1567723,283.6522 0,268.03194 0.10612413,187.74879 -0.21084904,107.45138 0.156,27.177 1.3862455,11.536306 16.347799,-1.1567723 31.968056,0 111.28704,6.6687171e-4 190.60602,-0.00133361 269.925,0.001 Z M 30.296,16 C 21.973925,15.732721 14.968163,23.80142 16,31.993056 16.103721,111.93578 15.794138,191.89863 16.152,271.829 17.110107,279.66576 25.171747,285.14519 32.841585,284 112.50147,283.89626 192.18147,284.20589 271.829,283.848 279.6657,282.88989 285.14515,274.82817 284,267.15842 283.89626,187.49853 284.20589,107.81853 283.848,28.171 282.89006,20.334162 274.82812,14.854983 267.15842,16 188.20428,16 109.25014,16 30.296,16 Z"
           style="fill:#4d4d4d" /></g></g><path
       id="path7754"
       style="fill:#4d4d4d"
       d="m 50,99.968 c 0,-22.077 44.808,-40 100,-40 55.192,0 100,17.923 100,40 h 0.015 v 79.993 h -0.056 c -0.01,22.075 -44.815,39.994 -100,39.994 -55.186,0 -99.991,-17.92 -100,-39.994 v 0 -79.993 z m 16.005,79.993 h -0.046 c 0.011,15.175 37.646,27.494 84,27.494 46.361,0 84,-12.323 84,-27.5 h 0.01 v -18.259 c -17.83,10.993 -48.784,18.272 -83.954,18.272 -35.207,0 -66.189,-7.294 -84.01,-18.306 z m 0,-58.29 v 18.297 h 0.01 c 0,15.178 37.639,27.5 84,27.5 45.423,0 82.474,-11.829 83.954,-26.583 v -19.198 c -17.828,10.999 -48.789,18.281 -83.969,18.281 -35.197,0 -66.172,-7.29 -83.995,-18.297 z m 0,-21.397 c 0.502,15.037 37.946,27.194 83.995,27.194 45.589,0 82.745,-11.916 83.969,-26.745 V 99.968 H 234 c 0,-15.178 -37.639,-27.5 -84,-27.5 -46.361,0 -84,12.322 -84,27.5 h 0.005 z" /></g></svg>
