<?xml version="1.0" encoding="UTF-8" standalone="no"?>
<svg
   xmlns:dc="http://purl.org/dc/elements/1.1/"
   xmlns:cc="http://creativecommons.org/ns#"
   xmlns:rdf="http://www.w3.org/1999/02/22-rdf-syntax-ns#"
   xmlns:svg="http://www.w3.org/2000/svg"
   xmlns="http://www.w3.org/2000/svg"
   id="svg8257"
   style="clip-rule:evenodd;fill-rule:evenodd;stroke-linejoin:round;stroke-miterlimit:1.41420996"
   xml:space="preserve"
   version="1.1"
   viewBox="0 0 60 60"
   height="60"
   width="60"><metadata
     id="metadata8263"><rdf:RDF><cc:Work
         rdf:about=""><dc:format>image/svg+xml</dc:format><dc:type
           rdf:resource="http://purl.org/dc/dcmitype/StillImage" /><dc:title></dc:title></cc:Work></rdf:RDF></metadata><defs
     id="defs8261" /><g
     transform="matrix(0.19993327,0,0,0.19990235,0.01465042,0.01464815)"
     id="g8255"><g
       id="Background"><g
         id="g8250"><path
           id="path8246"
           style="fill:#ffffff"
           d="M 300,30.271 C 300,13.564 286.436,0 269.729,0 H 30.271 C 13.564,0 0,13.564 0,30.271 V 269.729 C 0,286.436 13.564,300 30.271,300 H 269.729 C 286.436,300 300,286.436 300,269.729 Z" /><path
           id="path8248"
           d="m 269.925,0.001 c 16.09972,-0.31510169 30.49384,14.17259 30.075,30.27 -0.1061,80.84884 0.21081,161.71193 -0.156,242.552 C 298.61375,288.46369 283.6522,301.15677 268.03194,300 187.74879,299.89388 107.45138,300.21085 27.177,299.844 11.536306,298.61375 -1.1567723,283.6522 0,268.03194 0.10612413,187.74879 -0.21084904,107.45138 0.156,27.177 1.3862455,11.536306 16.347799,-1.1567723 31.968056,0 111.28704,6.6687171e-4 190.60602,-0.00133361 269.925,0.001 Z M 30.296,16 C 21.973925,15.732721 14.968163,23.80142 16,31.993056 16.103721,111.93578 15.794138,191.89863 16.152,271.829 17.110107,279.66576 25.171747,285.14519 32.841585,284 112.50147,283.89626 192.18147,284.20589 271.829,283.848 279.6657,282.88989 285.14515,274.82817 284,267.15842 283.89626,187.49853 284.20589,107.81853 283.848,28.171 282.89006,20.334162 274.82812,14.854983 267.15842,16 188.20428,16 109.25014,16 30.296,16 Z"
           style="fill:#4d4d4d" /></g></g><path
       id="path8253"
       style="fill:#4d4d4d"
       d="M 144.963,120.378 H 125.99 c -3.346,0 -6.062,-2.716 -6.062,-6.061 V 66.439 c 0,-3.345 2.716,-6.061 6.062,-6.061 h 47.877 c 3.346,0 6.061,2.716 6.061,6.061 v 47.878 c 0,3.345 -2.715,6.061 -6.061,6.061 h -18.83 v 13.88 h 67.109 c 1.39,0 2.518,1.129 2.518,2.518 v 23.538 h 19.351 c 3.311,0 6,2.689 6,6 v 48 c 0,3.311 -2.689,6 -6,6 h -48 c -3.312,0 -6,-2.688 -6,-6 v -48 c 0,-3.311 2.688,-6 6,-6 h 18.575 v -15.982 h -59.553 v 15.982 H 174 c 3.312,0 6,2.689 6,6 v 48 c 0,3.311 -2.688,6 -6,6 h -48 c -3.311,0 -6,-2.688 -6,-6 v -48 c 0,-3.311 2.688,-6 6,-6 h 18.963 V 144.332 H 85.41 v 15.982 h 18.57 c 3.311,0 6,2.689 6,6 v 48 c 0,3.311 -2.689,6 -6,6 h -48 c -3.312,0 -6,-2.688 -6,-6 v -48 c 0,-3.311 2.688,-6 6,-6 h 19.356 v -18.5 c 0,0 0,-5.038 0,-5.038 0,-1.39 1.128,-2.518 2.518,-2.518 h 67.109 z M 168,170.314 h -36 c -1.104,0 -2,0.896 -2,2 v 36 c 0,1.104 0.896,2 2,2 h 36 c 1.104,0 2,-0.896 2,-2 v -36 c 0,-1.104 -0.896,-2 -2,-2 z m 70.015,0 h -36 c -1.105,0 -2,0.896 -2,2 v 36 c 0,1.104 0.896,2 2,2 h 36 c 1.103,0 2,-0.896 2,-2 v -36 c 0,-1.104 -0.896,-2 -2,-2 z m -140.035,0 h -36 c -1.105,0 -2,0.896 -2,2 v 36 c 0,1.104 0.896,2 2,2 h 36 c 1.103,0 2,-0.896 2,-2 v -36 c 0,-1.104 -0.896,-2 -2,-2 z m 69.948,-99.936 h -36 c -1.104,0.001 -2,0.897 -2,2 v 36 c 0,1.104 0.897,2 2,2 h 36 c 1.104,0 2,-0.896 2,-2 v -36 c 0,-1.103 -0.895,-1.999 -2,-2 z" /></g></svg>
