<?xml version="1.0" encoding="UTF-8" standalone="no"?>
<svg
   xmlns:dc="http://purl.org/dc/elements/1.1/"
   xmlns:cc="http://creativecommons.org/ns#"
   xmlns:rdf="http://www.w3.org/1999/02/22-rdf-syntax-ns#"
   xmlns:svg="http://www.w3.org/2000/svg"
   xmlns="http://www.w3.org/2000/svg"
   id="svg8533"
   style="clip-rule:evenodd;fill-rule:evenodd;stroke-linejoin:round;stroke-miterlimit:1.41420996"
   xml:space="preserve"
   version="1.1"
   viewBox="0 0 60 60"
   height="60"
   width="60"><metadata
     id="metadata8539"><rdf:RDF><cc:Work
         rdf:about=""><dc:format>image/svg+xml</dc:format><dc:type
           rdf:resource="http://purl.org/dc/dcmitype/StillImage" /><dc:title></dc:title></cc:Work></rdf:RDF></metadata><defs
     id="defs8537" /><g
     transform="matrix(0.19993327,0,0,0.19990235,0.01465042,0.01464815)"
     id="g8531"><g
       id="Background"><g
         id="g8502"><path
           id="path8498"
           style="fill:#ffffff"
           d="M 300,30.271 C 300,13.564 286.436,0 269.729,0 H 30.271 C 13.564,0 0,13.564 0,30.271 V 269.729 C 0,286.436 13.564,300 30.271,300 H 269.729 C 286.436,300 300,286.436 300,269.729 Z" /><path
           id="path8500"
           d="m 269.925,0.001 c 16.09972,-0.31510169 30.49384,14.17259 30.075,30.27 -0.1061,80.84884 0.21081,161.71193 -0.156,242.552 C 298.61375,288.46369 283.6522,301.15677 268.03194,300 187.74879,299.89388 107.45138,300.21085 27.177,299.844 11.536306,298.61375 -1.1567723,283.6522 0,268.03194 0.10612413,187.74879 -0.21084904,107.45138 0.156,27.177 1.3862455,11.536306 16.347799,-1.1567723 31.968056,0 111.28704,6.6687171e-4 190.60602,-0.00133361 269.925,0.001 Z M 30.296,16 C 21.973925,15.732721 14.968163,23.80142 16,31.993056 16.103721,111.93578 15.794138,191.89863 16.152,271.829 17.110107,279.66576 25.171747,285.14519 32.841585,284 112.50147,283.89626 192.18147,284.20589 271.829,283.848 279.6657,282.88989 285.14515,274.82817 284,267.15842 283.89626,187.49853 284.20589,107.81853 283.848,28.171 282.89006,20.334162 274.82812,14.854983 267.15842,16 188.20428,16 109.25014,16 30.296,16 Z"
           style="fill:#4d4d4d" /></g></g><g
       id="g8529"
       transform="translate(0.00291511,-14.6213)"><g
         id="g8525"><path
           id="path8505"
           style="fill:#4d4d4d"
           d="m 220.721,220.721 c 18.756,-18.756 29.294,-44.195 29.294,-70.721 0,-26.526 -10.538,-51.965 -29.294,-70.721 l -8.41,8.41 c 16.526,16.526 25.81,38.94 25.81,62.311 0,23.371 -9.284,45.785 -25.81,62.311 z" /><g
           id="g8509"
           transform="matrix(-1,0,0,1,299.994,2.10765e-6)"><path
             id="path8507"
             style="fill:#4d4d4d"
             d="m 220.721,220.721 c 18.756,-18.756 29.294,-44.195 29.294,-70.721 0,-26.526 -10.538,-51.965 -29.294,-70.721 l -8.41,8.41 c 16.526,16.526 25.81,38.94 25.81,62.311 0,23.371 -9.284,45.785 -25.81,62.311 z" /></g><path
           id="path8511"
           style="fill:#4d4d4d"
           d="m 202.559,202.559 c 13.94,-13.94 21.771,-32.846 21.771,-52.559 0,-19.713 -7.831,-38.619 -21.771,-52.559 l -8.23,8.23 c 11.757,11.757 18.362,27.702 18.362,44.329 0,16.627 -6.605,32.572 -18.362,44.329 z" /><g
           id="g8515"
           transform="matrix(-1,0,0,1,299.994,2.10765e-6)"><path
             id="path8513"
             style="fill:#4d4d4d"
             d="m 202.559,202.559 c 13.94,-13.94 21.771,-32.846 21.771,-52.559 0,-19.713 -7.831,-38.619 -21.771,-52.559 l -8.23,8.23 c 11.757,11.757 18.362,27.702 18.362,44.329 0,16.627 -6.605,32.572 -18.362,44.329 z" /></g><g
           id="g8519"
           transform="translate(0,2.10765e-6)"><path
             id="path8517"
             style="fill:#4d4d4d"
             d="m 185.377,185.377 c 9.383,-9.383 14.654,-22.108 14.654,-35.377 0,-13.269 -5.271,-25.994 -14.654,-35.377 l -8.209,8.209 c 7.206,7.205 11.254,16.978 11.254,27.168 0,10.19 -4.048,19.963 -11.254,27.168 z" /></g><g
           id="g8523"
           transform="matrix(-1,0,0,1,299.994,4.2153e-6)"><path
             id="path8521"
             style="fill:#4d4d4d"
             d="m 185.377,185.377 c 9.383,-9.383 14.654,-22.108 14.654,-35.377 0,-13.269 -5.271,-25.994 -14.654,-35.377 l -8.209,8.209 c 7.206,7.205 11.254,16.978 11.254,27.168 0,10.19 -4.048,19.963 -11.254,27.168 z" /></g></g><path
         id="path8527"
         style="fill:#4d4d4d"
         d="m 141.65,168.998 c -7.299,-3.216 -12.399,-10.516 -12.399,-18.998 0,-11.452 9.297,-20.749 20.749,-20.749 11.452,0 20.749,9.297 20.749,20.749 0,8.482 -5.1,15.782 -12.399,18.998 v 80.966 h -16.7 z" /></g></g></svg>
