<svg width="60" height="60" viewBox="0 0 300 300" xmlns="http://www.w3.org/2000/svg" xml:space="preserve" style="fill-rule:evenodd;clip-rule:evenodd;stroke-linejoin:round;stroke-miterlimit:1.41421">
    <circle cx="150" cy="150" r="150" style="fill:#fffefe"/>
    <path d="m150.485.001.484.002.485.004.483.005.484.007.483.009.483.01.482.011.482.013.482.015.481.016.481.017.48.019.48.021.48.022.479.023.479.025.478.027.479.028.477.03.478.031.476.032.477.034.476.036.476.037.475.038.475.04.474.042.474.043.474.044.473.046.472.047.473.049.472.05.471.052.471.053.471.055.47.056.469.057.469.059.469.06.469.062.467.064.468.064.467.067.466.067.466.069.466.071.465.072.464.073.465.075.463.076.463.077.463.079.462.081.462.082.461.083.461.084.46.087.46.087.459.089.459.09.459.092.457.093.458.094.456.096.457.097.455.099.456.1.454.101.455.103.453.104.453.105.453.107.452.108.452.11.451.111.45.112.45.114.45.115.449.116.448.118.448.119.447.12.447.122.446.123.446.125.445.125.444.128.444.128.444.13.442.131.443.132.441.134.441.135.441.136.44.138.439.139.439.141.438.141.438.143.437.144.436.146.436.147.435.148.435.149.434.151.433.152.433.153.432.155.432.156.431.157.43.159.43.159.429.161.429.163.427.163.428.165.426.166.426.167.426.169.424.17.425.171.423.173.423.173.422.175.422.176.42.178.421.178.419.18.419.181.418.182.418.184.417.185.416.186.416.187.415.189.414.189.413.191.413.192.412.194.412.194.411.196.41.197.41.198.408.2.408.2.408.202.406.203.406.204.406.206.404.206.404.208.403.209.403.21.402.211.401.213.4.214.399.214.399.216.398.218.398.218.397.219.395.221.396.222.394.223.394.224.393.225.392.227.392.227.39.229.39.23.39.231.388.232.388.233.387.235.386.235.385.237.385.238.384.239.383.24.383.241.381.243.381.243.38.244.379.246.379.247.377.248.377.249.376.25.376.251.374.252.374.254.373.254.372.256.371.256.37.258.37.259.369.26.368.261.367.262.367.263.365.264.365.265.364.267.363.267.362.268.362.27.36.271.36.271.359.273.358.274.357.274.356.276.356.277.355.278.353.279.353.28.352.281.352.282.35.283.35.284.348.285.348.287.347.287.346.288.345.289.344.29.344.292.342.292.342.293.34.295.34.295.339.296.338.297.337.299.336.299.336.3.334.301.334.303.332.303.332.304.331.305.329.306.329.308.328.308.327.309.327.31.325.311.324.312.324.313.322.314.321.315.321.315.32.317.318.318.318.318.317.32.315.321.315.321.314.322.313.324.312.324.311.325.31.327.309.327.308.328.308.329.306.329.305.331.304.332.303.332.303.334.301.334.3.336.299.336.299.337.297.338.296.339.295.34.295.34.293.342.292.342.292.344.29.344.289.345.288.346.287.347.287.348.285.348.284.35.283.35.282.352.281.352.28.353.279.353.278.355.277.356.276.356.274.357.274.358.273.359.271.36.271.36.27.362.268.362.267.363.267.364.265.365.264.365.263.367.262.367.261.368.26.369.259.37.258.37.256.371.256.372.254.373.254.374.252.374.251.376.25.376.249.377.248.377.247.379.246.379.244.38.243.381.243.381.241.383.24.383.239.384.238.385.237.385.235.386.235.387.233.388.232.388.231.39.23.39.229.39.227.392.227.392.225.393.224.394.223.394.222.396.221.395.219.397.218.398.218.398.216.399.214.399.214.4.213.401.211.402.21.403.209.403.208.404.206.404.206.406.204.406.203.406.202.408.2.408.2.408.198.41.197.41.196.411.194.412.194.412.192.413.191.413.189.414.189.415.187.416.186.416.185.417.184.418.182.418.181.419.18.419.178.421.178.42.176.422.175.422.173.423.173.423.171.425.17.424.169.426.167.426.166.426.165.428.163.427.163.429.161.429.159.43.159.43.157.431.156.432.155.432.153.433.152.433.151.434.149.435.148.435.147.436.146.436.144.437.143.438.141.438.141.439.139.439.138.44.136.441.135.441.134.441.132.443.131.442.13.444.128.444.128.444.125.445.125.446.123.446.122.447.12.447.119.448.118.448.116.449.115.45.114.45.112.45.111.451.11.452.108.452.107.453.105.453.104.453.103.455.101.454.1.456.099.455.097.457.096.456.094.458.093.457.092.459.09.459.089.459.087.46.087.46.084.461.083.461.082.462.081.462.079.463.077.463.076.463.075.465.073.464.072.465.071.466.069.466.067.466.067.467.064.468.064.467.062.469.06.469.059.469.057.469.056.47.055.471.053.471.052.471.05.472.049.473.047.472.046.473.044.474.043.474.042.474.04.475.038.475.037.476.036.476.034.477.032.476.031.478.03.477.028.479.027.478.025.479.023.479.022.48.021.48.019.48.017.481.016.481.015.482.013.482.011.482.01.483.009.483.007.484.005.483.004.485.002.484.001.485-.001.485-.002.484-.004.485-.005.483-.007.484-.009.483-.01.483-.011.482-.013.482-.015.482-.016.481-.017.481-.019.48-.021.48-.022.48-.023.479-.025.479-.027.478-.028.479-.03.477-.031.478-.032.476-.034.477-.036.476-.037.476-.038.475-.04.475-.042.474-.043.474-.044.474-.046.473-.047.472-.049.473-.05.472-.052.471-.053.471-.055.471-.056.47-.057.469-.059.469-.06.469-.062.469-.064.467-.064.468-.067.467-.067.466-.069.466-.071.466-.072.465-.073.464-.075.465-.076.463-.077.463-.079.463-.081.462-.082.462-.083.461-.084.461-.087.46-.087.46-.089.459-.09.459-.092.459-.093.457-.094.458-.096.456-.097.457-.099.455-.1.456-.101.454-.103.455-.104.453-.105.453-.107.453-.108.452-.11.452-.111.451-.112.45-.114.45-.115.45-.116.449-.118.448-.119.448-.12.447-.122.447-.123.446-.125.446-.125.445-.128.444-.128.444-.13.444-.131.442-.132.443-.134.441-.135.441-.136.441-.138.44-.139.439-.141.439-.141.438-.143.438-.144.437-.146.436-.147.436-.148.435-.149.435-.151.434-.152.433-.153.433-.155.432-.156.432-.157.431-.159.43-.159.43-.161.429-.163.429-.163.427-.165.428-.166.426-.167.426-.169.426-.17.424-.171.425-.173.423-.173.423-.175.422-.176.422-.178.42-.178.421-.18.419-.181.419-.182.418-.184.418-.185.417-.186.416-.187.416-.189.415-.189.414-.191.413-.192.413-.194.412-.194.412-.196.411-.197.41-.198.41-.2.408-.2.408-.202.408-.203.406-.204.406-.206.406-.206.404-.208.404-.209.403-.21.403-.211.402-.213.401-.214.4-.214.399-.216.399-.218.398-.218.398-.219.397-.221.395-.222.396-.223.394-.224.394-.225.393-.227.392-.227.392-.229.39-.23.39-.231.39-.232.388-.233.388-.235.387-.235.386-.237.385-.238.385-.239.384-.24.383-.241.383-.243.381-.243.381-.244.38-.246.379-.247.379-.248.377-.249.377-.25.376-.251.376-.252.374-.254.374-.254.373-.256.372-.256.371-.258.37-.259.37-.26.369-.261.368-.262.367-.263.367-.264.365-.265.365-.267.364-.267.363-.268.362-.27.362-.271.36-.271.36-.273.359-.274.358-.274.357-.276.356-.277.356-.278.355-.279.353-.28.353-.281.352-.282.352-.283.35-.284.35-.285.348-.287.348-.287.347-.288.346-.289.345-.29.344-.292.344-.292.342-.293.342-.295.34-.295.34-.296.339-.297.338-.299.337-.299.336-.3.336-.301.334-.303.334-.303.332-.304.332-.305.331-.306.329-.308.329-.308.328-.309.327-.31.327-.311.325-.312.324-.313.324-.314.322-.315.321-.315.321-.317.32-.318.318-.318.318-.32.317-.321.315-.321.315-.322.314-.324.313-.324.312-.325.311-.327.31-.327.309-.328.308-.329.308-.329.306-.331.305-.332.304-.332.303-.334.303-.334.301-.336.3-.336.299-.337.299-.338.297-.339.296-.34.295-.34.295-.342.293-.342.292-.344.292-.344.29-.345.289-.346.288-.347.287-.348.287-.348.285-.35.284-.35.283-.352.282-.352.281-.353.28-.353.279-.355.278-.356.277-.356.276-.357.274-.358.274-.359.273-.36.271-.36.271-.362.27-.362.268-.363.267-.364.267-.365.265-.365.264-.367.263-.367.262-.368.261-.369.26-.37.259-.37.258-.371.256-.372.256-.373.254-.374.254-.374.252-.376.251-.376.25-.377.249-.377.248-.379.247-.379.246-.38.244-.381.243-.381.243-.383.241-.383.24-.384.239-.385.238-.385.237-.386.235-.387.235-.388.233-.388.232-.39.231-.39.23-.39.229-.392.227-.392.227-.393.225-.394.224-.394.223-.396.222-.395.221-.397.219-.398.218-.398.218-.399.216-.399.214-.4.214-.401.213-.402.211-.403.21-.403.209-.404.208-.404.206-.406.206-.406.204-.406.203-.408.202-.408.2-.408.2-.41.198-.41.197-.411.196-.412.194-.412.194-.413.192-.413.191-.414.189-.415.189-.416.187-.416.186-.417.185-.418.184-.418.182-.419.181-.419.18-.421.178-.42.178-.422.176-.422.175-.423.173-.423.173-.425.171-.424.17-.426.169-.426.167-.426.166-.428.165-.427.163-.429.163-.429.161-.43.159-.43.159-.431.157-.432.156-.432.155-.433.153-.433.152-.434.151-.435.149-.435.148-.436.147-.436.146-.437.144-.438.143-.438.141-.439.141-.439.139-.44.138-.441.136-.441.135-.441.134-.443.132-.442.131-.444.13-.444.128-.444.128-.445.125-.446.125-.446.123-.447.122-.447.12-.448.119-.448.118-.449.116-.45.115-.45.114-.45.112-.451.111-.452.11-.452.108-.453.107-.453.105-.453.104-.455.103-.454.101-.456.1-.455.099-.457.097-.456.096-.458.094-.457.093-.459.092-.459.09-.459.089-.46.087-.46.087-.461.084-.461.083-.462.082-.462.081-.463.079-.463.077-.463.076-.465.075-.464.073-.465.072-.466.071-.466.069-.466.067-.467.067-.468.064-.467.064-.469.062-.469.06-.469.059-.469.057-.47.056-.471.055-.471.053-.471.052-.472.05-.473.049-.472.047-.473.046-.474.044-.474.043-.474.042-.475.04-.475.038-.476.037-.476.036-.477.034-.476.032-.478.031-.477.03-.479.028-.478.027-.479.025-.479.023-.48.022-.48.021-.48.019-.481.017-.481.016-.482.015-.482.013-.482.011-.483.01-.483.009-.484.007-.483.005-.485.004-.484.002L150 300l-.485-.001-.484-.002-.485-.004-.483-.005-.484-.007-.483-.009-.483-.01-.482-.011-.482-.013-.482-.015-.481-.016-.481-.017-.48-.019-.48-.021-.48-.022-.479-.023-.479-.025-.478-.027-.479-.028-.477-.03-.478-.031-.476-.032-.477-.034-.476-.036-.476-.037-.475-.038-.475-.04-.474-.042-.474-.043-.474-.044-.473-.046-.472-.047-.473-.049-.472-.05-.471-.052-.471-.053-.471-.055-.47-.056-.469-.057-.469-.059-.469-.06-.469-.062-.467-.064-.468-.064-.467-.067-.466-.067-.466-.069-.466-.071-.465-.072-.464-.073-.465-.075-.463-.076-.463-.077-.463-.079-.462-.081-.462-.082-.461-.083-.461-.084-.46-.087-.46-.087-.459-.089-.459-.09-.459-.092-.457-.093-.458-.094-.456-.096-.457-.097-.455-.099-.456-.1-.454-.101-.455-.103-.453-.104-.453-.105-.453-.107-.452-.108-.452-.11-.451-.111-.45-.112-.45-.114-.45-.115-.449-.116-.448-.118-.448-.119-.447-.12-.447-.122-.446-.123-.446-.125-.445-.125-.444-.128-.444-.128-.444-.13-.442-.131-.443-.132-.441-.134-.441-.135-.441-.136-.44-.138-.439-.139-.439-.141-.438-.141-.438-.143-.437-.144-.436-.146-.436-.147-.435-.148-.435-.149-.434-.151-.433-.152-.433-.153-.432-.155-.432-.156-.431-.157-.43-.159-.43-.159-.429-.161-.429-.163-.427-.163-.428-.165-.426-.166-.426-.167-.426-.169-.424-.17-.425-.171-.423-.173-.423-.173-.422-.175-.422-.176-.42-.178-.421-.178-.419-.18-.419-.181-.418-.182-.418-.184-.417-.185-.416-.186-.416-.187-.415-.189-.414-.189-.413-.191-.413-.192-.412-.194-.412-.194-.411-.196-.41-.197-.41-.198-.408-.2-.408-.2-.408-.202-.406-.203-.406-.204-.406-.206-.404-.206-.404-.208-.403-.209-.403-.21-.402-.211-.401-.213-.4-.214-.399-.214-.399-.216-.398-.218-.398-.218-.397-.219-.395-.221-.396-.222-.394-.223-.394-.224-.393-.225-.392-.227-.392-.227-.39-.229-.39-.23-.39-.231-.388-.232-.388-.233-.387-.235-.386-.235-.385-.237-.385-.238-.384-.239-.383-.24-.383-.241-.381-.243-.381-.243-.38-.244-.379-.246-.379-.247-.377-.248-.377-.249-.376-.25-.376-.251-.374-.252-.374-.254-.373-.254-.372-.256-.371-.256-.37-.258-.37-.259-.369-.26-.368-.261-.367-.262-.367-.263-.365-.264-.365-.265-.364-.267-.363-.267-.362-.268-.362-.27-.36-.271-.36-.271-.359-.273-.358-.274-.357-.274-.356-.276-.356-.277-.355-.278-.353-.279-.353-.28-.352-.281-.352-.282-.35-.283-.35-.284-.348-.285-.348-.287-.347-.287-.346-.288-.345-.289-.344-.29-.344-.292-.342-.292-.342-.293-.34-.295-.34-.295-.339-.296-.338-.297-.337-.299-.336-.299-.336-.3-.334-.301-.334-.303-.332-.303-.332-.304-.331-.305-.329-.306-.329-.308-.328-.308-.327-.309-.327-.31-.325-.311-.324-.312-.324-.313-.322-.314-.321-.315-.321-.315-.32-.317-.318-.318-.318-.318-.317-.32-.315-.321-.315-.321-.314-.322-.313-.324-.312-.324-.311-.325-.31-.327-.309-.327-.308-.328-.308-.329-.306-.329-.305-.331-.304-.332-.303-.332-.303-.334-.301-.334-.3-.336-.299-.336-.299-.337-.297-.338-.296-.339-.295-.34-.295-.34-.293-.342-.292-.342-.292-.344-.29-.344-.289-.345-.288-.346-.287-.347-.287-.348-.285-.348-.284-.35-.283-.35-.282-.352-.281-.352-.28-.353-.279-.353-.278-.355-.277-.356-.276-.356-.274-.357-.274-.358-.273-.359-.271-.36-.271-.36-.27-.362-.268-.362-.267-.363-.267-.364-.265-.365-.264-.365-.263-.367-.262-.367-.261-.368-.26-.369-.259-.37-.258-.37-.256-.371-.256-.372-.254-.373-.254-.374-.252-.374-.251-.376-.25-.376-.249-.377-.248-.377-.247-.379-.246-.379-.244-.38-.243-.381-.243-.381-.241-.383-.24-.383-.239-.384-.238-.385-.237-.385-.235-.386-.235-.387-.233-.388-.232-.388-.231-.39-.23-.39-.229-.39-.227-.392-.227-.392-.225-.393-.224-.394-.223-.394-.222-.396-.221-.395-.219-.397-.218-.398-.218-.398-.216-.399-.214-.399-.214-.4-.213-.401-.211-.402-.21-.403-.209-.403-.208-.404-.206-.404-.206-.406-.204-.406-.203-.406-.202-.408-.2-.408-.2-.408-.198-.41-.197-.41-.196-.411-.194-.412-.194-.412-.192-.413-.191-.413-.189-.414-.189-.415-.187-.416-.186-.416-.185-.417-.184-.418-.182-.418-.181-.419-.18-.419-.178-.421-.178-.42-.176-.422-.175-.422-.173-.423-.173-.423-.171-.425-.17-.424-.169-.426-.167-.426-.166-.426-.165-.428-.163-.427-.163-.429-.161-.429-.159-.43-.159-.43-.157-.431-.156-.432-.155-.432-.153-.433-.152-.433-.151-.434-.149-.435-.148-.435-.147-.436-.146-.436-.144-.437-.143-.438-.141-.438-.141-.439-.139-.439-.138-.44-.136-.441-.135-.441-.134-.441-.132-.443-.131-.442-.13-.444-.128-.444-.128-.444-.125-.445-.125-.446-.123-.446-.122-.447-.12-.447-.119-.448-.118-.448-.116-.449-.115-.45-.114-.45-.112-.45-.111-.451-.11-.452-.108-.452-.107-.453-.105-.453-.104-.453-.103-.455-.101-.454-.1-.456-.099-.455-.097-.457-.096-.456-.094-.458-.093-.457-.092-.459-.09-.459-.089-.459-.087-.46-.087-.46-.084-.461-.083-.461-.082-.462-.081-.462-.079-.463-.077-.463-.076-.463-.075-.465-.073-.464-.072-.465-.071-.466-.069-.466-.067-.466-.067-.467-.064-.468-.064-.467-.062-.469-.06-.469-.059-.469-.057-.469-.056-.47-.055-.471-.053-.471-.052-.471-.05-.472-.049-.473-.047-.472-.046-.473-.044-.474-.043-.474-.042-.474-.04-.475-.038-.475-.037-.476-.036-.476-.034-.477-.032-.476-.031-.478-.03-.477-.028-.479-.027-.478-.025-.479-.023-.479-.022-.48-.021-.48-.019-.48-.017-.481-.016-.481-.015-.482-.013-.482-.011-.482-.01-.483-.009-.483-.007-.484-.005-.483-.004-.485-.002-.484L0 150l.001-.485.002-.484.004-.485.005-.483.007-.484.009-.483.01-.483.011-.482.013-.482.015-.482.016-.481.017-.481.019-.48.021-.48.022-.48.023-.479.025-.479.027-.478.028-.479.03-.477.031-.478.032-.476.034-.477.036-.476.037-.476.038-.475.04-.475.042-.474.043-.474.044-.474.046-.473.047-.472.049-.473.05-.472.052-.471.053-.471.055-.471.056-.47.057-.469.059-.469.06-.469.062-.469.064-.467.064-.468.067-.467.067-.466.069-.466.071-.466.072-.465.073-.464.075-.465.076-.463.077-.463.079-.463.081-.462.082-.462.083-.461.084-.461.087-.46.087-.46.089-.459.09-.459.092-.459.093-.457.094-.458.096-.456.097-.457.099-.455.1-.456.101-.454.103-.455.104-.453.105-.453.107-.453.108-.452.11-.452.111-.451.112-.45.114-.45.115-.45.116-.449.118-.448.119-.448.12-.447.122-.447.123-.446.125-.446.125-.445.128-.444.128-.444.13-.444.131-.442.132-.443.134-.441.135-.441.136-.441.138-.44.139-.439.141-.439.141-.438.143-.438.144-.437.146-.436.147-.436.148-.435.149-.435.151-.434.152-.433.153-.433.155-.432.156-.432.157-.431.159-.43.159-.43.161-.429.163-.429.163-.427.165-.428.166-.426.167-.426.169-.426.17-.424.171-.425.173-.423.173-.423.175-.422.176-.422.178-.42.178-.421.18-.419.181-.419.182-.418.184-.418.185-.417.186-.416.187-.416.189-.415.189-.414.191-.413.192-.413.194-.412.194-.412.196-.411.197-.41.198-.41.2-.408.2-.408.202-.408.203-.406.204-.406.206-.406.206-.404.208-.404.209-.403.21-.403.211-.402.213-.401.214-.4.214-.399.216-.399.218-.398.218-.398.219-.397.221-.395.222-.396.223-.394.224-.394.225-.393.227-.392.227-.392.229-.39.23-.39.231-.39.232-.388.233-.388.235-.387.235-.386.237-.385.238-.385.239-.384.24-.383.241-.383.243-.381.243-.381.244-.38.246-.379.247-.379.248-.377.249-.377.25-.376.251-.376.252-.374.254-.374.254-.373.256-.372.256-.371.258-.37.259-.37.26-.369.261-.368.262-.367.263-.367.264-.365.265-.365.267-.364.267-.363.268-.362.27-.362.271-.36.271-.36.273-.359.274-.358.274-.357.276-.356.277-.356.278-.355.279-.353.28-.353.281-.352.282-.352.283-.35.284-.35.285-.348.287-.348.287-.347.288-.346.289-.345.29-.344.292-.344.292-.342.293-.342.295-.34.295-.34.296-.339.297-.338.299-.337.299-.336.3-.336.301-.334.303-.334.303-.332.304-.332.305-.331.306-.329.308-.329.308-.328.309-.327.31-.327.311-.325.312-.324.313-.324.314-.322.315-.321.315-.321.317-.32.318-.318.318-.318.32-.317.321-.315.321-.315.322-.314.324-.313.324-.312.325-.311.327-.31.327-.309.328-.308.329-.308.329-.306.331-.305.332-.304.332-.303.334-.303.334-.301.336-.3.336-.299.337-.299.338-.297.339-.296.34-.295.34-.295.342-.293.342-.292.344-.292.344-.29.345-.289.346-.288.347-.287.348-.287.348-.285.35-.284.35-.283.352-.282.352-.281.353-.28.353-.279.355-.278.356-.277.356-.276.357-.274.358-.274.359-.273.36-.271.36-.271.362-.27.362-.268.363-.267.364-.267.365-.265.365-.264.367-.263.367-.262.368-.261.369-.26.37-.259.37-.258.371-.256.372-.256.373-.254.374-.254.374-.252.376-.251.376-.25.377-.249.377-.248.379-.247.379-.246.38-.244.381-.243.381-.243.383-.241.383-.24.384-.239.385-.238.385-.237.386-.235.387-.235.388-.233.388-.232.39-.231.39-.23.39-.229.392-.227.392-.227.393-.225.394-.224.394-.223.396-.222.395-.221.397-.219.398-.218.398-.218.399-.216.399-.214.4-.214.401-.213.402-.211.403-.21.403-.209.404-.208.404-.206.406-.206.406-.204.406-.203.408-.202.408-.2.408-.2.41-.198.41-.197.411-.196.412-.194.412-.194.413-.192.413-.191.414-.189.415-.189.416-.187.416-.186.417-.185.418-.184.418-.182.419-.181.419-.18.421-.178.42-.178.422-.176.422-.175.423-.173.423-.173.425-.171.424-.17.426-.169.426-.167.426-.166.428-.165.427-.163.429-.163.429-.161.43-.159.43-.159.431-.157.432-.156.432-.155.433-.153.433-.152.434-.151.435-.149.435-.148.436-.147.436-.146.437-.144.438-.143.438-.141.439-.141.439-.139.44-.138.441-.136.441-.135.441-.134.443-.132.442-.131.444-.13.444-.128.444-.128.445-.125.446-.125.446-.123.447-.122.447-.12.448-.119.448-.118.449-.116.45-.115.45-.114.45-.112.451-.111.452-.11.452-.108.453-.107.453-.105.453-.104.455-.103.454-.101.456-.1.455-.099.457-.097.456-.096.458-.094.457-.093.459-.092.459-.09.459-.089.46-.087.46-.087.461-.084.461-.083.462-.082.462-.081.463-.079.463-.077.463-.076.465-.075.464-.073.465-.072.466-.071.466-.069.466-.067.467-.067.468-.064.467-.064.469-.062.469-.06.469-.059.469-.057.47-.056.471-.055.471-.053.471-.052.472-.05.473-.049.472-.047.473-.046.474-.044.474-.043.474-.042.475-.04.475-.038.476-.037.476-.036.477-.034.476-.032.478-.031.477-.03.479-.028.478-.027.479-.025.479-.023.48-.022.48-.021.48-.019.481-.017.481-.016.482-.015.482-.013.482-.011.483-.01.483-.009.484-.007.483-.005.485-.004.484-.002L150 0l.485.001Zm-.919 16-.434.002-.433.003-.434.005-.432.006-.433.008-.432.009-.431.01-.432.012-.43.013-.431.014-.43.016-.43.017-.429.018-.429.02-.429.021-.428.022-.428.024-.428.025-.427.026-.427.028-.426.029-.426.031-.425.032-.426.033-.424.034-.425.036-.424.037-.423.038-.424.04-.422.041-.423.042-.422.044-.421.044-.422.047-.42.047-.421.049-.42.05-.419.051-.419.053-.419.054-.418.055-.418.057-.418.058-.417.059-.416.06-.416.062-.416.063-.416.064-.414.065-.415.067-.414.068-.413.069-.414.071-.412.072-.412.073-.412.074-.412.076-.411.076-.41.079-.41.079-.41.08-.409.082-.408.083-.409.085-.407.085-.408.087-.406.088-.407.089-.406.09-.405.092-.405.093-.404.094-.404.096-.404.096-.403.098-.403.099-.402.1-.401.102-.401.102-.401.104-.4.105-.4.106-.399.108-.399.108-.398.11-.397.111-.398.113-.396.113-.397.115-.395.116-.395.117-.395.118-.394.119-.394.121-.393.121-.393.123-.392.124-.391.126-.391.126-.391.127-.39.129-.389.13-.389.131-.389.132-.388.134-.387.134-.387.136-.386.137-.386.138-.385.139-.385.14-.384.142-.383.142-.383.144-.383.145-.382.146-.381.147-.381.148-.38.15-.38.15-.379.152-.378.152-.379.154-.377.155-.377.156-.376.158-.376.158-.375.159-.374.161-.374.162-.374.162-.373.164-.372.165-.371.166-.371.168-.371.168-.37.169-.369.171-.369.171-.368.173-.367.174-.367.174-.366.176-.366.177-.365.178-.364.18-.364.18-.363.181-.363.182-.362.184-.361.184-.361.186-.36.186-.359.188-.359.189-.358.189-.358.191-.356.192-.357.193-.355.194-.355.195-.354.196-.354.197-.353.198-.353.2-.351.2-.351.201-.351.202-.349.204-.35.204-.348.205-.348.207-.347.207-.346.209-.346.209-.345.21-.344.212-.344.212-.343.214-.342.214-.342.216-.341.216-.34.218-.34.218-.338.22-.339.22-.337.222-.337.222-.336.224-.335.224-.335.226-.334.226-.333.228-.333.228-.331.229-.332.231-.33.231-.33.232-.328.233-.329.235-.327.235-.327.236-.326.237-.325.238-.325.239-.323.24-.324.241-.322.242-.321.243-.321.243-.32.245-.32.246-.318.246-.318.248-.317.248-.316.25-.316.25-.314.251-.314.252-.314.253-.312.254-.312.255-.311.256-.31.257-.309.258-.309.258-.307.26-.307.26-.307.261-.305.262-.305.264-.303.264-.303.264-.303.266-.301.267-.301.267-.299.269-.299.269-.299.27-.297.272-.297.272-.295.272-.295.274-.294.275-.294.275-.292.277-.292.277-.29.278-.29.279-.29.28-.288.28-.287.282-.287.282-.286.283-.284.285-.285.284-.283.286-.282.287-.282.287-.28.288-.28.29-.279.29-.278.29-.277.292-.277.292-.275.294-.275.294-.274.295-.272.295-.272.297-.272.297-.27.299-.269.299-.269.299-.267.301-.267.301-.266.303-.264.303-.264.303-.264.305-.262.305-.261.307-.26.307-.26.307-.258.309-.258.309-.257.31-.256.311-.255.312-.254.312-.253.314-.252.314-.251.314-.25.316-.25.316-.248.317-.248.318-.246.318-.246.32-.245.32-.243.321-.243.321-.242.322-.241.324-.24.323-.239.325-.238.325-.237.326-.236.327-.235.327-.235.329-.233.328-.232.33-.231.33-.231.332-.229.331-.228.333-.228.333-.226.334-.226.335-.224.335-.224.336-.222.337-.222.337-.22.339-.22.338-.218.34-.218.34-.216.341-.216.342-.214.342-.214.343-.212.344-.212.344-.21.345-.209.346-.209.346-.207.347-.207.348-.205.348-.204.35-.204.349-.202.351-.201.351-.2.351-.2.353-.198.353-.197.354-.196.354-.195.355-.194.355-.193.357-.192.356-.191.358-.189.358-.189.359-.188.359-.186.36-.186.361-.184.361-.184.362-.182.363-.181.363-.18.364-.18.364-.178.365-.177.366-.176.366-.174.367-.174.367-.173.368-.171.369-.171.369-.169.37-.168.371-.168.371-.166.371-.165.372-.164.373-.162.374-.162.374-.161.374-.159.375-.158.376-.158.376-.156.377-.155.377-.154.379-.152.378-.152.379-.15.38-.15.38-.148.381-.147.381-.146.382-.145.383-.144.383-.142.383-.142.384-.14.385-.139.385-.138.386-.137.386-.136.387-.134.387-.134.388-.132.389-.131.389-.13.389-.129.39-.127.391-.126.391-.126.391-.124.392-.123.393-.121.393-.121.394-.119.394-.118.395-.117.395-.116.395-.115.397-.113.396-.113.398-.111.397-.11.398-.108.399-.108.399-.106.4-.105.4-.104.401-.102.401-.102.401-.1.402-.099.403-.098.403-.096.404-.096.404-.094.404-.093.405-.092.405-.09.406-.089.407-.088.406-.087.408-.085.407-.085.409-.083.408-.082.409-.08.41-.079.41-.079.41-.076.411-.076.412-.074.412-.073.412-.072.412-.071.414-.069.413-.068.414-.067.415-.065.414-.064.416-.063.416-.062.416-.06.416-.059.417-.058.418-.057.418-.055.418-.054.419-.053.419-.051.419-.05.42-.049.421-.047.42-.047.422-.044.421-.044.422-.042.423-.041.422-.04.424-.038.423-.037.424-.036.425-.034.424-.033.426-.032.425-.031.426-.029.426-.028.427-.026.427-.025.428-.024.428-.022.428-.021.429-.02.429-.018.429-.017.43-.016.43-.014.431-.013.43-.012.432-.01.431-.009.432-.008.433-.006.432-.005.434-.003.433-.002.434L16 150l.001.434.002.434.003.433.005.434.006.432.008.433.009.432.01.431.012.432.013.43.014.431.016.43.017.43.018.429.02.429.021.429.022.428.024.428.025.428.026.427.028.427.029.426.031.426.032.425.033.426.034.424.036.425.037.424.038.423.04.424.041.422.042.423.044.422.044.421.047.422.047.42.049.421.05.42.051.419.053.419.054.419.055.418.057.418.058.418.059.417.06.416.062.416.063.416.064.416.065.414.067.415.068.414.069.413.071.414.072.412.073.412.074.412.076.412.076.411.079.41.079.41.08.41.082.409.083.408.085.409.085.407.087.408.088.406.089.407.09.406.092.405.093.405.094.404.096.404.096.404.098.403.099.403.1.402.102.401.102.401.104.401.105.4.106.4.108.399.108.399.11.398.111.398.113.397.113.396.115.396.116.396.116.395.119.395.119.394.121.394.121.393.123.393.124.392.126.391.126.391.127.391.129.39.13.389.131.389.132.389.134.388.134.387.136.387.137.386.138.386.139.385.14.385.142.384.142.383.144.383.145.383.146.382.147.381.148.381.15.38.15.38.152.379.152.379.154.377.155.378.156.377.158.376.158.376.16.375.16.374.162.374.162.374.164.373.165.372.166.371.168.371.168.371.169.37.171.369.171.369.173.368.174.367.174.367.176.366.177.366.178.365.18.364.18.364.181.363.182.363.184.362.184.361.186.361.186.36.188.359.189.359.189.358.191.357.192.357.193.357.194.355.195.355.196.355.197.353.198.353.2.353.2.351.201.351.202.351.204.349.204.349.205.349.207.348.207.347.209.346.209.346.21.345.212.344.212.344.214.343.214.342.216.342.216.341.218.34.218.34.22.338.22.339.222.337.222.337.224.336.224.335.226.335.226.334.228.333.228.333.229.331.231.331.231.331.232.33.233.328.235.329.235.327.236.327.237.326.238.325.239.325.24.323.241.324.242.322.243.321.243.321.245.32.246.32.246.318.248.318.248.317.25.316.25.316.251.314.252.314.253.314.254.312.255.312.256.311.257.31.257.309.259.309.26.307.26.307.261.307.262.305.264.305.264.303.264.303.266.303.267.301.267.301.269.299.269.299.271.299.271.297.272.297.272.295.274.295.275.294.275.293.277.293.277.292.278.29.279.29.28.29.28.288.282.287.282.287.283.286.284.284.285.285.286.283.287.282.287.282.289.281.289.279.29.279.29.278.292.277.292.277.294.275.294.275.295.274.295.272.297.272.297.271.299.271.299.269.299.268.301.268.301.267.303.266.303.265.303.263.305.263.305.263.307.261.307.261.307.259.309.259.309.257.31.257.311.256.312.254.312.255.314.253.313.252.315.251.316.25.316.25.317.248.318.248.318.246.32.246.32.245.321.243.321.243.323.242.322.241.324.24.325.239.325.238.326.237.327.236.327.235.328.234.329.234.33.232.331.231.331.231.331.229.333.228.333.228.334.226.335.226.335.224.336.224.337.222.337.222.338.22.339.219.34.219.34.218.341.216.342.216.342.214.343.214.344.212.344.212.345.21.346.209.347.209.347.207.347.207.348.205.35.204.349.204.35.202.352.201.352.201.352.199.353.198.354.197.354.196.355.195.356.194.356.193.356.192.358.19.358.19.359.189.359.188.36.186.361.186.361.184.362.184.363.182.363.181.364.181.364.179.365.178.366.177.366.175.367.175.368.174.367.173.369.171.37.171.369.169.37.168.372.168.371.166.373.165.372.163.373.163.375.162.374.161.375.159.376.158.376.158.377.156.378.155.377.153.379.153.379.152.38.15.38.15.381.148.382.147.381.146.382.145.384.144.383.142.384.142.385.14.385.139.386.138.387.137.386.136.387.134.388.134.389.132.389.131.389.13.39.129.391.127.391.127.391.125.393.124.392.123.393.121.394.121.394.119.395.118.395.117.395.116.396.115.398.113.397.113.397.111.398.109.399.109.399.108.4.106.4.105.401.104.401.102.401.102.402.1.403.099.403.098.403.096.405.096.404.094.405.093.406.092.405.09.406.089.407.088.408.087.408.085.408.085.408.083.409.082.41.08.41.079.41.079.411.076.412.076.412.074.412.073.413.072.413.071.413.069.414.068.415.067.414.065.416.064.416.063.415.062.417.06.418.059.417.058.418.057.418.055.418.054.42.053.419.051.42.05.421.049.42.047.421.047.422.044.422.044.423.042.422.041.423.04.424.038.424.037.424.036.425.034.426.033.425.032.426.031.427.029.427.028.426.026.428.025.428.024.428.022.429.021.429.02.429.018.43.017.43.016.431.014.43.013.431.012.432.01.432.009.433.008.432.006.433.005.434.003.434.002.434.001.434-.001.434-.002.434-.003.433-.005.432-.006.433-.008.432-.009.432-.01.431-.012.43-.013.431-.014.43-.016.43-.017.429-.018.429-.02.429-.021.428-.022.428-.024.428-.025.426-.026.427-.028.427-.029.426-.031.425-.032.426-.033.425-.034.424-.036.424-.037.424-.038.423-.04.422-.041.423-.042.422-.044.422-.044.421-.047.42-.047.421-.049.42-.05.419-.051.42-.053.418-.054.418-.055.418-.057.417-.058.418-.059.417-.06.415-.062.416-.063.416-.064.414-.065.415-.067.414-.068.413-.069.413-.071.413-.072.412-.073.412-.074.412-.076.411-.076.41-.079.41-.079.41-.08.409-.082.408-.083.408-.084.408-.086.408-.087.407-.088.406-.089.405-.09.406-.092.405-.093.404-.094.405-.096.403-.096.403-.098.403-.099.402-.1.401-.102.401-.102.401-.104.4-.105.4-.106.399-.108.399-.109.398-.109.397-.111.397-.113.398-.113.395-.115.396-.116.395-.117.395-.118.394-.119.394-.121.393-.121.392-.123.393-.124.391-.125.391-.127.391-.127.39-.129.389-.13.389-.131.389-.132.388-.134.387-.134.386-.136.387-.137.386-.138.385-.139.385-.14.384-.142.383-.142.384-.144.382-.145.381-.146.382-.147.381-.148.38-.15.38-.15.379-.152.379-.153.377-.153.378-.155.377-.157.376-.157.376-.158.375-.159.374-.161.374-.162.374-.163.373-.163.372-.165.371-.166.372-.168.37-.168.37-.169.369-.171.369-.171.367-.173.368-.174.367-.175.366-.175.366-.177.365-.178.364-.179.364-.181.363-.181.363-.182.362-.184.361-.184.361-.186.36-.186.359-.188.359-.189.358-.19.357-.19.357-.192.356-.193.356-.194.355-.195.354-.196.354-.197.353-.198.352-.2.352-.2.352-.201.35-.202.349-.204.35-.204.348-.205.348-.207.346-.207.347-.209.346-.209.345-.211.344-.211.344-.212.343-.214.342-.215.342-.215.341-.216.34-.218.34-.219.339-.219.338-.22.337-.222.337-.222.336-.224.335-.224.335-.226.334-.226.333-.228.333-.228.331-.229.331-.231.331-.231.33-.232.328-.233.329-.235.327-.235.327-.236.326-.237.325-.238.325-.239.324-.24.322-.241.323-.242.321-.243.321-.243.32-.245.32-.246.318-.246.318-.248.317-.248.316-.25.316-.25.315-.251.313-.252.314-.253.312-.255.312-.254.311-.256.31-.257.309-.257.309-.259.307-.259.307-.261.307-.261.305-.263.305-.263.303-.263.303-.265.303-.266.301-.267.301-.267.299-.269.299-.269.299-.271.297-.271.297-.272.295-.272.295-.274.294-.275.293-.275.293-.277.292-.277.29-.278.29-.279.289-.279.289-.281.287-.282.287-.282.286-.284.285-.283.283-.285.284-.286.282-.287.282-.287.281-.289.279-.289.279-.29.278-.29.277-.292.277-.293.275-.293.275-.294.274-.295.272-.295.272-.297.271-.297.271-.299.269-.299.269-.299.267-.301.267-.301.266-.303.265-.303.263-.303.263-.305.263-.305.261-.307.261-.307.259-.307.259-.309.257-.309.257-.31.256-.311.254-.312.255-.312.253-.314.252-.313.251-.315.25-.316.25-.316.248-.317.248-.318.246-.318.246-.32.245-.32.243-.321.243-.321.242-.323.241-.322.24-.324.239-.325.238-.325.237-.326.236-.327.235-.327.235-.329.233-.328.232-.33.231-.331.231-.331.229-.331.228-.333.228-.333.226-.334.226-.335.224-.335.224-.336.222-.337.222-.337.22-.338.219-.339.219-.34.218-.34.216-.341.215-.342.215-.342.214-.343.212-.344.211-.344.211-.345.209-.346.209-.347.207-.346.207-.348.205-.348.204-.35.204-.349.202-.35.201-.352.2-.352.2-.352.198-.353.197-.354.196-.354.195-.355.194-.356.193-.356.192-.357.19-.357.19-.358.189-.359.188-.359.186-.36.186-.361.184-.361.184-.362.182-.363.181-.363.181-.364.179-.364.178-.365.177-.366.175-.366.175-.367.174-.368.173-.367.171-.369.171-.369.169-.37.168-.37.168-.372.166-.371.165-.372.163-.373.163-.374.162-.374.161-.374.159-.375.158-.376.157-.376.157-.377.155-.378.153-.377.153-.379.152-.379.15-.38.15-.38.148-.381.147-.382.146-.381.145-.382.144-.384.142-.383.142-.384.14-.385.139-.385.138-.386.137-.387.136-.386.134-.387.134-.388.132-.389.131-.389.13-.389.129-.39.127-.391.127-.391.125-.391.124-.393.123-.392.121-.393.121-.394.119-.394.118-.395.117-.395.116-.396.115-.395.113-.398.113-.397.111-.397.109-.398.109-.399.108-.399.106-.4.105-.4.104-.401.102-.401.102-.401.1-.402.099-.403.098-.403.096-.403.096-.405.094-.404.093-.405.092-.406.09-.405.089-.406.088-.407.087-.408.086-.408.084-.408.083-.408.082-.409.08-.41.079-.41.079-.41.076-.411.076-.412.074-.412.073-.412.072-.413.071-.413.069-.413.068-.414.067-.415.065-.414.064-.416.063-.416.062-.415.06-.417.059-.418.058-.417.057-.418.055-.418.054-.418.053-.42.051-.419.05-.42.049-.421.047-.42.047-.421.044-.422.044-.422.042-.423.041-.422.04-.423.038-.424.037-.424.036-.424.034-.425.033-.426.032-.425.031-.426.029-.427.028-.427.026-.426.025-.428.024-.428.022-.428.021-.429.02-.429.018-.429.017-.43.016-.43.014-.431.013-.43.012-.431.01-.432.009-.432.008-.433.006-.432.005-.433.003-.434.002-.434L284 150l-.001-.434-.002-.434-.003-.434-.005-.433-.006-.432-.008-.433-.009-.432-.01-.432-.012-.431-.013-.43-.014-.431-.016-.43-.017-.43-.018-.429-.02-.429-.021-.429-.022-.428-.024-.428-.025-.428-.026-.426-.028-.427-.029-.427-.031-.426-.032-.425-.033-.426-.034-.425-.036-.424-.037-.424-.038-.424-.04-.423-.041-.422-.042-.423-.044-.422-.044-.422-.047-.421-.047-.42-.049-.421-.05-.42-.051-.419-.053-.42-.054-.418-.055-.418-.057-.418-.058-.417-.059-.418-.06-.417-.062-.415-.063-.416-.064-.416-.065-.414-.067-.415-.068-.414-.069-.413-.071-.413-.072-.413-.073-.412-.074-.412-.076-.412-.076-.411-.079-.41-.079-.41-.08-.41-.082-.409-.083-.408-.085-.408-.085-.408-.087-.408-.088-.407-.089-.406-.09-.405-.092-.406-.093-.405-.094-.404-.096-.405-.096-.403-.098-.403-.099-.403-.1-.402-.102-.401-.102-.401-.104-.401-.105-.4-.106-.4-.108-.399-.109-.399-.109-.398-.111-.397-.113-.397-.113-.398-.115-.396-.116-.395-.117-.395-.118-.395-.119-.394-.121-.394-.121-.393-.123-.392-.124-.393-.125-.391-.127-.391-.127-.391-.129-.39-.13-.389-.131-.389-.132-.389-.134-.388-.134-.387-.136-.386-.137-.387-.138-.386-.139-.385-.14-.385-.142-.384-.142-.383-.144-.384-.145-.382-.146-.381-.147-.382-.148-.381-.15-.38-.15-.38-.152-.379-.153-.379-.153-.377-.155-.378-.156-.377-.158-.376-.158-.376-.159-.375-.161-.374-.162-.375-.163-.373-.163-.372-.165-.373-.166-.371-.168-.372-.168-.37-.169-.369-.171-.37-.171-.369-.173-.367-.174-.368-.175-.367-.175-.366-.177-.366-.178-.365-.179-.364-.181-.364-.181-.363-.182-.363-.184-.362-.184-.361-.186-.361-.186-.36-.188-.359-.189-.359-.19-.358-.19-.358-.192-.356-.193-.356-.194-.356-.195-.355-.196-.354-.197-.354-.198-.353-.199-.352-.201-.352-.201-.352-.202-.35-.204-.349-.204-.35-.205-.348-.207-.347-.207-.347-.209-.347-.209-.346-.21-.345-.212-.344-.212-.344-.214-.343-.214-.342-.216-.342-.216-.341-.218-.34-.219-.34-.219-.339-.22-.338-.222-.337-.222-.337-.224-.336-.224-.335-.226-.335-.226-.334-.228-.333-.228-.333-.229-.331-.231-.331-.231-.331-.232-.33-.234-.329-.234-.328-.235-.327-.236-.327-.237-.326-.238-.325-.239-.325-.24-.324-.241-.322-.242-.323-.243-.321-.243-.321-.245-.32-.246-.32-.246-.318-.248-.318-.248-.317-.25-.316-.25-.316-.251-.315-.252-.313-.253-.314-.255-.312-.254-.312-.256-.311-.257-.31-.257-.309-.259-.309-.259-.307-.261-.307-.261-.307-.263-.305-.263-.305-.263-.303-.265-.303-.266-.303-.267-.301-.268-.301-.268-.299-.269-.299-.271-.299-.271-.297-.272-.297-.272-.295-.274-.295-.275-.294-.275-.294-.277-.292-.277-.292-.278-.29-.279-.29-.279-.289-.281-.289-.282-.287-.282-.287-.283-.286-.285-.285-.284-.284-.286-.283-.287-.282-.287-.282-.288-.28-.29-.28-.29-.279-.29-.278-.292-.277-.293-.277-.293-.275-.294-.275-.295-.274-.295-.272-.297-.272-.297-.271-.299-.271-.299-.269-.299-.269-.301-.267-.301-.267-.303-.266-.303-.264-.303-.264-.305-.264-.305-.262-.307-.261-.307-.26-.307-.26-.309-.259-.309-.257-.31-.257-.311-.256-.312-.255-.312-.254-.314-.253-.314-.252-.314-.251-.316-.25-.316-.25-.317-.248-.318-.248-.318-.246-.32-.246-.32-.245-.321-.243-.321-.243-.322-.242-.324-.241-.323-.24-.325-.239-.325-.238-.326-.237-.327-.236-.327-.235-.329-.235-.328-.233-.33-.232-.331-.231-.331-.231-.331-.229-.333-.228-.333-.228-.334-.226-.335-.226-.335-.224-.336-.224-.337-.222-.337-.222-.339-.22-.338-.22-.34-.218-.34-.218-.341-.216-.342-.216-.342-.214-.343-.214-.344-.212-.344-.212-.345-.21-.346-.209-.346-.209-.347-.207-.348-.207-.349-.205-.349-.204-.349-.204-.351-.202-.351-.201-.351-.2-.353-.2-.353-.198-.353-.197-.355-.196-.355-.195-.355-.194-.357-.193-.357-.192-.357-.191-.358-.189-.359-.189-.359-.188-.36-.186-.361-.186-.361-.184-.362-.184-.363-.182-.363-.181-.364-.18-.364-.18-.365-.178-.366-.177-.366-.176-.367-.174-.367-.174-.368-.173-.369-.171-.369-.171-.37-.169-.371-.168-.371-.168-.371-.166-.372-.165-.373-.164-.374-.162-.374-.162-.374-.16-.375-.16-.376-.158-.376-.158-.377-.156-.378-.155-.377-.154-.379-.152-.379-.152-.38-.15-.38-.15-.381-.148-.381-.147-.382-.146-.383-.145-.383-.144-.383-.142-.384-.142-.385-.14-.385-.139-.386-.138-.386-.137-.387-.136-.387-.134-.388-.134-.389-.132-.389-.131-.389-.13-.39-.129-.391-.127-.391-.126-.391-.126-.392-.124-.393-.123-.393-.121-.394-.121-.394-.119-.395-.119-.395-.116-.396-.116-.396-.115-.396-.113-.397-.113-.398-.111-.398-.11-.399-.108-.399-.108-.4-.106-.4-.105-.401-.104-.401-.102-.401-.102-.402-.1-.403-.099-.403-.098-.404-.096-.404-.096-.404-.094-.405-.093-.405-.092-.406-.09-.407-.089-.406-.088-.408-.087-.407-.085-.409-.085-.408-.083-.409-.082-.41-.08-.41-.079-.41-.079-.411-.076-.412-.076-.412-.074-.412-.073-.412-.072-.414-.071-.413-.069-.414-.068-.415-.067-.414-.065-.416-.064-.416-.063-.416-.062-.416-.06-.417-.059-.418-.058-.418-.057-.418-.055-.419-.054-.419-.053-.419-.051-.42-.05-.421-.049-.42-.047-.422-.047-.421-.044-.422-.044-.423-.042-.422-.041-.424-.04-.423-.038-.424-.037-.425-.036-.424-.034-.426-.033-.425-.032-.426-.031-.426-.029-.427-.028-.427-.026-.428-.025-.428-.024-.428-.022-.429-.021-.429-.02-.429-.018-.43-.017-.43-.016-.431-.014-.43-.013-.432-.012-.431-.01-.432-.009-.433-.008-.432-.006-.434-.005-.433-.003-.434-.002L150 16l-.434.001Z" style="fill:#4d4d4d"/>
    <g>
        <path d="M241.138 156.703h-29.669c-3.93 30.435-29.971 53.981-61.469 53.981s-57.539-23.546-61.469-53.981H58.862v-16h182.276v16Z" style="fill:#fff" transform="translate(0 -15.978)"/>
        <path d="M241.138 156.703h-29.669l-.048.356-.049.356-.051.355-.053.354-.055.354-.057.353-.059.352-.061.352-.063.351-.065.351-.067.349-.069.349-.071.349-.073.347-.075.347-.076.346-.079.346-.08.344-.083.344-.084.344-.087.342-.088.342-.09.341-.092.34-.094.339-.095.339-.098.338-.1.337-.101.336-.103.336-.105.334-.107.334-.109.333-.11.332-.112.332-.115.33-.116.33-.117.329-.12.328-.121.327-.123.326-.125.326-.127.324-.129.324-.13.322-.132.322-.134.321-.135.32-.137.319-.139.318-.141.317-.142.317-.144.315-.146.314-.148.314-.149.312-.151.312-.153.31-.154.31-.156.309-.157.307-.16.307-.161.305-.162.305-.164.304-.166.302-.168.302-.169.3-.171.3-.172.298-.174.297-.176.297-.177.295-.178.294-.181.293-.182.293-.183.291-.185.289-.187.289-.188.288-.19.286-.191.286-.193.284-.194.284-.196.282-.197.281-.199.279-.201.279-.201.278-.204.276-.205.275-.206.274-.208.273-.209.272-.211.27-.212.269-.214.268-.215.267-.216.266-.218.264-.22.264-.221.261-.222.261-.224.26-.225.258-.226.257-.228.256-.229.254-.231.253-.232.252-.233.251-.235.249-.236.248-.238.247-.238.245-.241.244-.241.243-.243.241-.244.24-.245.239-.247.238-.248.236-.25.234-.25.234-.252.232-.253.23-.255.229-.256.228-.257.227-.258.225-.259.223-.261.223-.262.22-.263.22-.265.218-.265.216-.267.215-.268.214-.27.212-.27.211-.272.209-.273.208-.274.206-.275.205-.276.203-.278.202-.279.2-.28.199-.281.198-.282.195-.283.195-.284.192-.286.192-.286.189-.288.188-.289.187-.29.185-.291.183-.292.182-.293.181-.294.178-.296.177-.296.176-.298.174-.298.172-.3.171-.3.169-.302.167-.302.166-.304.164-.305.163-.305.161-.307.159-.307.158-.309.156-.31.154-.31.152-.312.151-.312.149-.314.148-.314.146-.316.144-.316.142-.317.141-.318.139-.319.137-.32.135-.321.134-.322.132-.323.13-.323.128-.325.127-.325.125-.327.123-.327.121-.328.12-.329.118-.329.115-.331.115-.331.112-.332.11-.333.109-.334.107-.335.105-.336.103-.336.101-.337.1-.338.097-.338.096-.34.094-.34.091-.341.09-.342.089-.342.086-.344.084-.344.083-.344.08-.346.079-.346.076-.347.075-.348.073-.348.071-.349.069-.35.066-.35.065-.351.063-.352.061-.352.059-.354.057-.353.055-.355.053-.355.052-.356.049-.356.047-.357.044-.358.043-.358.041-.359.039-.359.037-.36.035-.361.032-.361.031-.362.029-.362.026-.363.025-.364.022-.364.02-.365.018-.365.016-.366.014-.366.012-.367.009-.367.008-.368.005-.368.004-.369.001-.369-.001-.368-.004-.368-.005-.367-.008-.367-.009-.366-.012-.366-.014-.365-.016-.365-.018-.364-.02-.364-.022-.363-.025-.362-.026-.362-.029-.361-.031-.361-.032-.36-.035-.359-.037-.359-.039-.358-.041-.358-.043-.357-.044-.356-.047-.356-.049-.355-.052-.355-.053-.353-.055-.354-.057-.352-.059-.352-.061-.351-.063-.35-.065-.35-.066-.349-.069-.348-.071-.348-.073-.347-.075-.346-.076-.346-.079-.344-.08-.344-.083-.344-.084-.342-.086-.342-.089-.341-.09-.34-.091-.34-.094-.338-.096-.338-.097-.337-.1-.336-.101-.336-.103-.335-.105-.334-.107-.333-.109-.332-.11-.331-.112-.331-.115-.329-.115-.329-.118-.328-.12-.327-.121-.327-.123-.325-.125-.325-.127-.323-.128-.323-.13-.322-.132-.321-.134-.32-.135-.319-.137-.318-.139-.317-.141-.316-.142-.316-.144-.314-.146-.314-.148-.312-.149-.312-.151-.31-.152-.31-.154-.309-.156-.307-.158-.307-.159-.305-.161-.305-.163-.304-.164-.302-.166-.302-.167-.3-.169-.3-.171-.298-.172-.298-.174-.296-.176-.296-.177-.294-.178-.293-.181-.292-.182-.291-.183-.29-.185-.289-.187-.288-.188-.286-.189-.286-.192-.284-.192-.283-.195-.282-.195-.281-.198-.28-.199-.279-.2-.278-.202-.276-.203-.275-.205-.274-.206-.273-.208-.272-.209-.27-.211-.27-.212-.268-.214-.267-.215-.265-.216-.265-.218-.263-.22-.262-.22-.261-.223-.259-.223-.258-.225-.257-.227-.256-.228-.255-.229-.253-.23-.252-.232-.25-.234-.25-.234-.248-.236-.247-.238-.245-.239-.244-.24-.243-.241-.241-.243-.241-.244-.238-.245-.238-.247-.236-.248-.235-.249-.233-.251-.232-.252-.231-.253-.229-.254-.228-.256-.226-.257-.225-.258-.224-.26-.222-.261-.221-.261-.22-.264-.218-.264-.216-.266-.215-.267-.214-.268-.212-.269-.211-.27-.209-.272-.208-.273-.206-.274-.205-.275-.204-.276-.201-.278-.201-.279-.199-.279-.197-.281-.196-.282-.194-.284-.193-.284-.191-.286-.19-.286-.188-.288-.187-.289-.185-.289-.183-.291-.182-.293-.181-.293-.178-.294-.177-.295-.176-.297-.174-.297-.172-.298-.171-.3-.169-.3-.168-.302-.166-.302-.164-.304-.162-.305-.161-.305-.16-.307-.157-.307-.156-.309-.154-.31-.153-.31-.151-.312-.149-.312-.148-.314-.146-.314-.144-.315-.142-.317-.141-.317-.139-.318-.137-.319-.135-.32-.134-.321-.132-.322-.13-.322-.129-.324-.127-.324-.125-.326-.123-.326-.121-.327-.12-.328-.117-.329-.116-.33-.115-.33-.112-.332-.11-.332-.109-.333-.107-.334-.105-.334-.103-.336-.101-.336-.1-.337-.098-.338-.095-.339-.094-.339-.092-.34-.09-.341-.088-.342-.087-.342-.084-.344-.083-.344-.08-.344-.079-.346-.076-.346-.075-.347-.073-.347-.071-.349-.069-.349-.067-.349-.065-.351-.063-.351-.061-.352-.059-.352-.057-.353-.055-.354-.053-.354-.051-.355-.049-.356-.048-.356H58.862v-16h182.276v16Zm-136.426 0 .008.05.047.26.048.26.05.258.051.259.052.258.054.257.056.257.056.256.059.255.059.256.061.254.063.254.063.253.066.253.066.252.068.252.07.251.071.25.072.25.073.25.075.248.077.249.077.247.079.247.081.247.081.245.084.245.084.245.086.244.087.243.089.243.089.242.091.241.093.241.094.24.095.239.096.239.098.238.099.238.1.237.102.236.103.236.104.235.105.234.107.233.108.233.109.232.111.232.112.231.113.23.114.229.116.229.116.228.118.227.12.226.12.226.122.225.123.225.124.223.126.223.126.222.128.222.129.22.13.22.132.219.133.219.133.217.135.217.137.216.137.215.138.214.14.214.141.213.142.212.143.211.145.21.145.21.147.209.147.207.149.207.15.207.151.205.152.204.154.204.154.203.156.202.156.201.158.2.159.199.16.199.161.197.162.197.163.195.164.195.166.194.166.193.167.192.169.191.169.19.171.189.171.189.173.187.173.186.175.186.175.184.177.184.178.182.178.182.18.18.18.18.182.178.182.178.184.176.185.176.185.175.186.173.188.173.188.171.189.171.19.169.192.169.192.167.193.166.194.165.194.164.196.164.197.162.197.161.198.159.2.159.2.158.201.156.202.156.203.155.203.153.205.152.205.151.206.15.208.149.208.148.208.146.21.146.21.144.211.143.212.142.213.141.214.139.214.139.215.137.216.136.217.136.218.133.218.133.219.131.22.13.221.13.221.127.222.127.223.125.224.124.224.123.225.122.226.121.227.119.227.118.228.117.228.115.23.114.23.113.231.112.231.111.232.109.233.108.234.107.234.105.235.104.235.103.237.102.237.1.237.099.238.097.239.097.24.095.24.094.241.092.241.091.242.09.243.088.243.087.244.086.245.084.245.084.246.081.246.081.247.079.248.077.248.077.249.075.249.073.249.072.251.071.252.069.251.068.252.067.253.065.253.064.254.062.255.061.255.06.255.058.257.057.257.055.257.054.258.052.258.051.259.05.26.048.259.047.261.045.261.043.262.043.262.04.262.04.264.038.264.036.264.035.265.033.265.032.266.03.266.029.267.027.267.026.268.025.268.022.269.022.27.019.27.018.27.017.271.015.271.014.272.011.273.011.273.009.274.007.273.005.275.004.275.003.275.001.275-.001.275-.003.275-.004.273-.005.274-.007.273-.009.273-.011.272-.011.271-.014.271-.015.27-.017.27-.018.27-.019.269-.022.268-.022.268-.025.267-.026.267-.027.266-.029.266-.03.265-.032.265-.033.264-.035.264-.036.264-.038.262-.04.262-.04.262-.043.261-.043.261-.045.259-.047.26-.048.259-.05.258-.051.258-.052.257-.054.257-.055.257-.057.255-.058.255-.06.255-.061.254-.062.253-.064.253-.065.252-.067.251-.068.252-.069.251-.071.249-.072.249-.073.249-.075.248-.077.248-.077.247-.079.246-.081.246-.081.245-.084.245-.084.244-.086.243-.087.243-.088.241-.09.242-.091.241-.093.24-.093.239-.095.24-.097.238-.097.237-.099.237-.1.237-.102.235-.103.235-.104.234-.105.234-.107.233-.108.231-.109.232-.111.231-.112.23-.112.23-.115.228-.115.228-.117.228-.118.226-.119.226-.121.225-.122.224-.123.224-.124.223-.125.222-.127.221-.128.221-.129.22-.13.219-.131.218-.133.218-.133.217-.136.216-.136.215-.137.214-.139.214-.139.213-.141.211-.142.212-.143.21-.145.21-.145.208-.146.208-.148.208-.149.206-.15.205-.151.205-.152.203-.154.203-.154.202-.156.201-.156.2-.158.2-.159.198-.159.197-.161.197-.163.196-.163.194-.164.194-.165.193-.166.192-.167.192-.169.19-.17.189-.17.188-.171.188-.173.186-.173.185-.175.185-.176.184-.176.182-.178.182-.178.18-.18.18-.18.178-.182.178-.182.176-.184.176-.184.175-.186.173-.186.173-.187.171-.189.171-.189.169-.19.169-.191.167-.192.166-.193.166-.194.164-.195.163-.195.162-.197.161-.197.16-.199.159-.199.158-.2.156-.201.156-.202.154-.203.154-.204.152-.204.151-.205.15-.206.149-.208.147-.207.147-.209.146-.21.144-.21.143-.211.142-.212.141-.213.14-.214.138-.214.137-.215.137-.216.135-.217.133-.217.133-.219.131-.219.131-.22.129-.22.128-.222.126-.222.126-.223.124-.223.123-.224.122-.226.12-.226.12-.226.118-.227.116-.228.116-.229.114-.229.113-.231.112-.23.111-.232.109-.232.108-.233.107-.233.105-.234.104-.235.103-.236.102-.236.1-.237.099-.238.098-.237.096-.24.095-.239.094-.24.092-.241.092-.241.09-.242.088-.243.087-.243.086-.244.084-.245.084-.245.081-.245.081-.247.079-.247.077-.247.077-.248.075-.249.073-.25.072-.249.071-.251.07-.251.068-.252.066-.252.065-.253.064-.253.063-.254.061-.254.059-.256.059-.255.056-.256.056-.257.054-.257.052-.258.051-.259.05-.259.048-.259.046-.26.009-.05h-90.576Z" style="fill:#4d4d4d" transform="translate(0 -15.978)"/>
    </g>
</svg>
