<svg width="60" height="60" viewBox="0 0 300 300" xmlns="http://www.w3.org/2000/svg" xml:space="preserve" style="fill-rule:evenodd;clip-rule:evenodd;stroke-linejoin:round;stroke-miterlimit:2">
    <circle cx="150" cy="150" r="150" style="fill:#fffefe"/>
    <path d="M150 0c82.787 0 150 67.213 150 150s-67.213 150-150 150S0 232.787 0 150 67.213 0 150 0Zm0 16c73.957 0 134 60.043 134 134s-60.043 134-134 134S16 223.957 16 150 76.043 16 150 16Z" style="fill:#4d4d4d"/>
    <path d="M196.31 221.271C182.983 229.954 167.076 235 150 235c-46.913 0-85-38.087-85-85s38.087-85 85-85 85 38.087 85 85c0 24.442-10.338 46.487-26.878 62.001l19.672 27.499a7.505 7.505 0 0 1-1.736 10.464 7.504 7.504 0 0 1-10.464-1.737l-19.284-26.956ZM150 80c38.634 0 70 31.366 70 70s-31.366 70-70 70-70-31.366-70-70 31.366-70 70-70Z" style="fill:#4d4d4d" transform="translate(0 -8.181)"/>
    <path d="M193.418 107.418h-86v86h86v-86Zm-15.418 15h-56v56h56v-56Z" style="fill:#4d4d4d" transform="matrix(.91873 0 0 .91873 11.807 4.775)"/>
</svg>
