<svg width="60" height="60" viewBox="0 0 300 300" xmlns="http://www.w3.org/2000/svg" xml:space="preserve" style="fill-rule:evenodd;clip-rule:evenodd;stroke-linejoin:round;stroke-miterlimit:2">
    <circle cx="150" cy="150" r="150" style="fill:#fffefe"/>
    <path d="M150 0c82.787 0 150 67.213 150 150s-67.213 150-150 150S0 232.787 0 150 67.213 0 150 0Zm0 16c73.957 0 134 60.043 134 134s-60.043 134-134 134S16 223.957 16 150 76.043 16 150 16Z" style="fill:#4d4d4d"/>
    <path d="M198.976 160.166a49.81 49.81 0 0 1-9.688 20.768l23.688 28.207 2.319-26.632 18.984 22.607-3.523 40.455-41.53-3.617-18.352-21.854 26.67 2.323-23.837-28.384A49.75 49.75 0 0 1 150 200.012c-24.163 0-44.346-17.172-49.001-39.967H80.128c-3.363 5.4-9.353 8.997-16.176 8.997-10.51 0-19.042-8.533-19.042-19.042 0-10.509 8.532-19.042 19.042-19.042 6.823 0 12.813 3.597 16.176 8.997h20.871c4.655-22.795 24.838-39.967 49.001-39.967 8.571 0 16.641 2.16 23.695 5.966l23.689-28.192-26.632 2.312 18.99-22.601 40.456-3.513 3.606 41.531-18.358 21.849-2.316-26.67-23.85 28.385a49.807 49.807 0 0 1 9.691 20.752h36.818l-18.903-18.903h29.52l28.715 28.715-29.477 29.477h-28.538l18.93-18.93h-37.06ZM150 115.467c19.059 0 34.533 15.474 34.533 34.533S169.059 184.533 150 184.533 115.467 169.059 115.467 150s15.474-34.533 34.533-34.533Z" style="fill:#4d4d4d" transform="matrix(.89656 0 0 .89656 6.537 15.726)"/>
</svg>
