<svg width="60" height="60" viewBox="0 0 300 300" xmlns="http://www.w3.org/2000/svg" xml:space="preserve" style="fill-rule:evenodd;clip-rule:evenodd;stroke-linejoin:round;stroke-miterlimit:2">
    <circle cx="150" cy="150" r="150" style="fill:#fffefe"/>
    <path d="M150 0c82.787 0 150 67.213 150 150s-67.213 150-150 150S0 232.787 0 150 67.213 0 150 0Zm0 16c73.957 0 134 60.043 134 134s-60.043 134-134 134S16 223.957 16 150 76.043 16 150 16Z" style="fill:#4d4d4d"/>
    <path d="M187.606 237.115H67.221c-6.834 0-12.382-5.548-12.382-12.381V29.431c0-6.833 5.548-12.381 12.382-12.381h120.385c6.834 0 12.382 5.548 12.382 12.381v195.303c0 6.833-5.547 12.381-12.382 12.381Zm-16.073-44.889H83.294c-7.024 0-12.727 5.703-12.727 12.727 0 7.025 5.703 12.728 12.727 12.728h88.239c7.024 0 12.727-5.703 12.727-12.728 0-7.024-5.702-12.727-12.727-12.727ZM84.24 198.95a6.006 6.006 0 0 1 6.003 6.003 6.006 6.006 0 0 1-6.003 6.004 6.006 6.006 0 0 1-6.003-6.004 6.006 6.006 0 0 1 6.003-6.003Zm87.293-45.544H83.294c-7.025 0-12.727 5.703-12.727 12.727 0 7.025 5.703 12.728 12.727 12.728h88.239c7.024 0 12.727-5.703 12.727-12.728 0-7.024-5.702-12.727-12.727-12.727ZM84.24 160.13a6.006 6.006 0 0 1 6.003 6.003 6.006 6.006 0 0 1-6.003 6.004 6.006 6.006 0 0 1-6.003-6.004 6.006 6.006 0 0 1 6.003-6.003Zm87.293-45.444H83.294c-7.025 0-12.727 5.703-12.727 12.728 0 7.024 5.703 12.727 12.727 12.727h88.239c7.024 0 12.727-5.703 12.727-12.727 0-7.025-5.702-12.728-12.727-12.728ZM84.24 121.41a6.006 6.006 0 0 1 6.003 6.004 6.006 6.006 0 0 1-6.003 6.003 6.006 6.006 0 0 1-6.003-6.003 6.006 6.006 0 0 1 6.003-6.004Zm87.293-45.56H83.294c-7.025.001-12.727 5.703-12.727 12.728 0 7.024 5.703 12.727 12.727 12.727h88.239c7.024 0 12.727-5.703 12.727-12.727 0-7.025-5.702-12.727-12.727-12.728ZM84.24 82.574a6.006 6.006 0 0 1 6.003 6.004 6.006 6.006 0 0 1-6.003 6.003 6.006 6.006 0 0 1-6.003-6.003 6.006 6.006 0 0 1 6.003-6.004Zm87.293-45.209H83.294c-7.025 0-12.727 5.703-12.727 12.727 0 7.025 5.703 12.728 12.727 12.728h88.239c7.024 0 12.727-5.703 12.727-12.728 0-7.024-5.702-12.727-12.727-12.727ZM84.24 44.089a6.006 6.006 0 0 1 6.003 6.003 6.006 6.006 0 0 1-6.003 6.003 6.006 6.006 0 0 1-6.003-6.003 6.006 6.006 0 0 1 6.003-6.003Z" style="fill:#4d4d4d" transform="matrix(.79958 0 0 .79958 48.123 48.388)"/>
</svg>
