<svg width="60" height="60" viewBox="0 0 300 300" xmlns="http://www.w3.org/2000/svg" xml:space="preserve" style="fill-rule:evenodd;clip-rule:evenodd;stroke-miterlimit:1.5">
    <circle cx="150" cy="150" r="150" style="fill:#fffefe"/>
    <path d="m150.485.001.484.002.485.004.483.005.484.007.483.009.483.01.482.011.482.013.482.015.481.016.481.017.48.019.48.021.48.022.479.023.479.025.478.027.479.028.477.03.478.031.476.032.477.034.476.036.476.037.475.038.475.04.474.042.474.043.474.044.473.046.472.047.473.049.472.05.471.052.471.053.471.055.47.056.469.057.469.059.469.06.469.062.467.064.468.064.467.067.466.067.466.069.466.071.465.072.464.073.465.075.463.076.463.077.463.079.462.081.462.082.461.083.461.084.46.087.46.087.459.089.459.09.459.092.457.093.458.094.456.096.457.097.455.099.456.1.454.101.455.103.453.104.453.105.453.107.452.108.452.11.451.111.45.112.45.114.45.115.449.116.448.118.448.119.447.12.447.122.446.123.446.125.445.125.444.128.444.128.444.13.442.131.443.132.441.134.441.135.441.136.44.138.439.139.439.141.438.141.438.143.437.144.436.146.436.147.435.148.435.149.434.151.433.152.433.153.432.155.432.156.431.157.43.159.43.159.429.161.429.163.427.163.428.165.426.166.426.167.426.169.424.17.425.171.423.173.423.173.422.175.422.176.42.178.421.178.419.18.419.181.418.182.418.184.417.185.416.186.416.187.415.189.414.189.413.191.413.192.412.194.412.194.411.196.41.197.41.198.408.2.408.2.408.202.406.203.406.204.406.206.404.206.404.208.403.209.403.21.402.211.401.213.4.214.399.214.399.216.398.218.398.218.397.219.395.221.396.222.394.223.394.224.393.225.392.227.392.227.39.229.39.23.39.231.388.232.388.233.387.235.386.235.385.237.385.238.384.239.383.24.383.241.381.243.381.243.38.244.379.246.379.247.377.248.377.249.376.25.376.251.374.252.374.254.373.254.372.256.371.256.37.258.37.259.369.26.368.261.367.262.367.263.365.264.365.265.364.267.363.267.362.268.362.27.36.271.36.271.359.273.358.274.357.274.356.276.356.277.355.278.353.279.353.28.352.281.352.282.35.283.35.284.348.285.348.287.347.287.346.288.345.289.344.29.344.292.342.292.342.293.34.295.34.295.339.296.338.297.337.299.336.299.336.3.334.301.334.303.332.303.332.304.331.305.329.306.329.308.328.308.327.309.327.31.325.311.324.312.324.313.322.314.321.315.321.315.32.317.318.318.318.318.317.32.315.321.315.321.314.322.313.324.312.324.311.325.31.327.309.327.308.328.308.329.306.329.305.331.304.332.303.332.303.334.301.334.3.336.299.336.299.337.297.338.296.339.295.34.295.34.293.342.292.342.292.344.29.344.289.345.288.346.287.347.287.348.285.348.284.35.283.35.282.352.281.352.28.353.279.353.278.355.277.356.276.356.274.357.274.358.273.359.271.36.271.36.27.362.268.362.267.363.267.364.265.365.264.365.263.367.262.367.261.368.26.369.259.37.258.37.256.371.256.372.254.373.254.374.252.374.251.376.25.376.249.377.248.377.247.379.246.379.244.38.243.381.243.381.241.383.24.383.239.384.238.385.237.385.235.386.235.387.233.388.232.388.231.39.23.39.229.39.227.392.227.392.225.393.224.394.223.394.222.396.221.395.219.397.218.398.218.398.216.399.214.399.214.4.213.401.211.402.21.403.209.403.208.404.206.404.206.406.204.406.203.406.202.408.2.408.2.408.198.41.197.41.196.411.194.412.194.412.192.413.191.413.189.414.189.415.187.416.186.416.185.417.184.418.182.418.181.419.18.419.178.421.178.42.176.422.175.422.173.423.173.423.171.425.17.424.169.426.167.426.166.426.165.428.163.427.163.429.161.429.159.43.159.43.157.431.156.432.155.432.153.433.152.433.151.434.149.435.148.435.147.436.146.436.144.437.143.438.141.438.141.439.139.439.138.44.136.441.135.441.134.441.132.443.131.442.13.444.128.444.128.444.125.445.125.446.123.446.122.447.12.447.119.448.118.448.116.449.115.45.114.45.112.45.111.451.11.452.108.452.107.453.105.453.104.453.103.455.101.454.1.456.099.455.097.457.096.456.094.458.093.457.092.459.09.459.089.459.087.46.087.46.084.461.083.461.082.462.081.462.079.463.077.463.076.463.075.465.073.464.072.465.071.466.069.466.067.466.067.467.064.468.064.467.062.469.06.469.059.469.057.469.056.47.055.471.053.471.052.471.05.472.049.473.047.472.046.473.044.474.043.474.042.474.04.475.038.475.037.476.036.476.034.477.032.476.031.478.03.477.028.479.027.478.025.479.023.479.022.48.021.48.019.48.017.481.016.481.015.482.013.482.011.482.01.483.009.483.007.484.005.483.004.485.002.484.001.485-.001.485-.002.484-.004.485-.005.483-.007.484-.009.483-.01.483-.011.482-.013.482-.015.482-.016.481-.017.481-.019.48-.021.48-.022.48-.023.479-.025.479-.027.478-.028.479-.03.477-.031.478-.032.476-.034.477-.036.476-.037.476-.038.475-.04.475-.042.474-.043.474-.044.474-.046.473-.047.472-.049.473-.05.472-.052.471-.053.471-.055.471-.056.47-.057.469-.059.469-.06.469-.062.469-.064.467-.064.468-.067.467-.067.466-.069.466-.071.466-.072.465-.073.464-.075.465-.076.463-.077.463-.079.463-.081.462-.082.462-.083.461-.084.461-.087.46-.087.46-.089.459-.09.459-.092.459-.093.457-.094.458-.096.456-.097.457-.099.455-.1.456-.101.454-.103.455-.104.453-.105.453-.107.453-.108.452-.11.452-.111.451-.112.45-.114.45-.115.45-.116.449-.118.448-.119.448-.12.447-.122.447-.123.446-.125.446-.125.445-.128.444-.128.444-.13.444-.131.442-.132.443-.134.441-.135.441-.136.441-.138.44-.139.439-.141.439-.141.438-.143.438-.144.437-.146.436-.147.436-.148.435-.149.435-.151.434-.152.433-.153.433-.155.432-.156.432-.157.431-.159.43-.159.43-.161.429-.163.429-.163.427-.165.428-.166.426-.167.426-.169.426-.17.424-.171.425-.173.423-.173.423-.175.422-.176.422-.178.42-.178.421-.18.419-.181.419-.182.418-.184.418-.185.417-.186.416-.187.416-.189.415-.189.414-.191.413-.192.413-.194.412-.194.412-.196.411-.197.41-.198.41-.2.408-.2.408-.202.408-.203.406-.204.406-.206.406-.206.404-.208.404-.209.403-.21.403-.211.402-.213.401-.214.4-.214.399-.216.399-.218.398-.218.398-.219.397-.221.395-.222.396-.223.394-.224.394-.225.393-.227.392-.227.392-.229.39-.23.39-.231.39-.232.388-.233.388-.235.387-.235.386-.237.385-.238.385-.239.384-.24.383-.241.383-.243.381-.243.381-.244.38-.246.379-.247.379-.248.377-.249.377-.25.376-.251.376-.252.374-.254.374-.254.373-.256.372-.256.371-.258.37-.259.37-.26.369-.261.368-.262.367-.263.367-.264.365-.265.365-.267.364-.267.363-.268.362-.27.362-.271.36-.271.36-.273.359-.274.358-.274.357-.276.356-.277.356-.278.355-.279.353-.28.353-.281.352-.282.352-.283.35-.284.35-.285.348-.287.348-.287.347-.288.346-.289.345-.29.344-.292.344-.292.342-.293.342-.295.34-.295.34-.296.339-.297.338-.299.337-.299.336-.3.336-.301.334-.303.334-.303.332-.304.332-.305.331-.306.329-.308.329-.308.328-.309.327-.31.327-.311.325-.312.324-.313.324-.314.322-.315.321-.315.321-.317.32-.318.318-.318.318-.32.317-.321.315-.321.315-.322.314-.324.313-.324.312-.325.311-.327.31-.327.309-.328.308-.329.308-.329.306-.331.305-.332.304-.332.303-.334.303-.334.301-.336.3-.336.299-.337.299-.338.297-.339.296-.34.295-.34.295-.342.293-.342.292-.344.292-.344.29-.345.289-.346.288-.347.287-.348.287-.348.285-.35.284-.35.283-.352.282-.352.281-.353.28-.353.279-.355.278-.356.277-.356.276-.357.274-.358.274-.359.273-.36.271-.36.271-.362.27-.362.268-.363.267-.364.267-.365.265-.365.264-.367.263-.367.262-.368.261-.369.26-.37.259-.37.258-.371.256-.372.256-.373.254-.374.254-.374.252-.376.251-.376.25-.377.249-.377.248-.379.247-.379.246-.38.244-.381.243-.381.243-.383.241-.383.24-.384.239-.385.238-.385.237-.386.235-.387.235-.388.233-.388.232-.39.231-.39.23-.39.229-.392.227-.392.227-.393.225-.394.224-.394.223-.396.222-.395.221-.397.219-.398.218-.398.218-.399.216-.399.214-.4.214-.401.213-.402.211-.403.21-.403.209-.404.208-.404.206-.406.206-.406.204-.406.203-.408.202-.408.2-.408.2-.41.198-.41.197-.411.196-.412.194-.412.194-.413.192-.413.191-.414.189-.415.189-.416.187-.416.186-.417.185-.418.184-.418.182-.419.181-.419.18-.421.178-.42.178-.422.176-.422.175-.423.173-.423.173-.425.171-.424.17-.426.169-.426.167-.426.166-.428.165-.427.163-.429.163-.429.161-.43.159-.43.159-.431.157-.432.156-.432.155-.433.153-.433.152-.434.151-.435.149-.435.148-.436.147-.436.146-.437.144-.438.143-.438.141-.439.141-.439.139-.44.138-.441.136-.441.135-.441.134-.443.132-.442.131-.444.13-.444.128-.444.128-.445.125-.446.125-.446.123-.447.122-.447.12-.448.119-.448.118-.449.116-.45.115-.45.114-.45.112-.451.111-.452.11-.452.108-.453.107-.453.105-.453.104-.455.103-.454.101-.456.1-.455.099-.457.097-.456.096-.458.094-.457.093-.459.092-.459.09-.459.089-.46.087-.46.087-.461.084-.461.083-.462.082-.462.081-.463.079-.463.077-.463.076-.465.075-.464.073-.465.072-.466.071-.466.069-.466.067-.467.067-.468.064-.467.064-.469.062-.469.06-.469.059-.469.057-.47.056-.471.055-.471.053-.471.052-.472.05-.473.049-.472.047-.473.046-.474.044-.474.043-.474.042-.475.04-.475.038-.476.037-.476.036-.477.034-.476.032-.478.031-.477.03-.479.028-.478.027-.479.025-.479.023-.48.022-.48.021-.48.019-.481.017-.481.016-.482.015-.482.013-.482.011-.483.01-.483.009-.484.007-.483.005-.485.004-.484.002L150 300l-.485-.001-.484-.002-.485-.004-.483-.005-.484-.007-.483-.009-.483-.01-.482-.011-.482-.013-.482-.015-.481-.016-.481-.017-.48-.019-.48-.021-.48-.022-.479-.023-.479-.025-.478-.027-.479-.028-.477-.03-.478-.031-.476-.032-.477-.034-.476-.036-.476-.037-.475-.038-.475-.04-.474-.042-.474-.043-.474-.044-.473-.046-.472-.047-.473-.049-.472-.05-.471-.052-.471-.053-.471-.055-.47-.056-.469-.057-.469-.059-.469-.06-.469-.062-.467-.064-.468-.064-.467-.067-.466-.067-.466-.069-.466-.071-.465-.072-.464-.073-.465-.075-.463-.076-.463-.077-.463-.079-.462-.081-.462-.082-.461-.083-.461-.084-.46-.087-.46-.087-.459-.089-.459-.09-.459-.092-.457-.093-.458-.094-.456-.096-.457-.097-.455-.099-.456-.1-.454-.101-.455-.103-.453-.104-.453-.105-.453-.107-.452-.108-.452-.11-.451-.111-.45-.112-.45-.114-.45-.115-.449-.116-.448-.118-.448-.119-.447-.12-.447-.122-.446-.123-.446-.125-.445-.125-.444-.128-.444-.128-.444-.13-.442-.131-.443-.132-.441-.134-.441-.135-.441-.136-.44-.138-.439-.139-.439-.141-.438-.141-.438-.143-.437-.144-.436-.146-.436-.147-.435-.148-.435-.149-.434-.151-.433-.152-.433-.153-.432-.155-.432-.156-.431-.157-.43-.159-.43-.159-.429-.161-.429-.163-.427-.163-.428-.165-.426-.166-.426-.167-.426-.169-.424-.17-.425-.171-.423-.173-.423-.173-.422-.175-.422-.176-.42-.178-.421-.178-.419-.18-.419-.181-.418-.182-.418-.184-.417-.185-.416-.186-.416-.187-.415-.189-.414-.189-.413-.191-.413-.192-.412-.194-.412-.194-.411-.196-.41-.197-.41-.198-.408-.2-.408-.2-.408-.202-.406-.203-.406-.204-.406-.206-.404-.206-.404-.208-.403-.209-.403-.21-.402-.211-.401-.213-.4-.214-.399-.214-.399-.216-.398-.218-.398-.218-.397-.219-.395-.221-.396-.222-.394-.223-.394-.224-.393-.225-.392-.227-.392-.227-.39-.229-.39-.23-.39-.231-.388-.232-.388-.233-.387-.235-.386-.235-.385-.237-.385-.238-.384-.239-.383-.24-.383-.241-.381-.243-.381-.243-.38-.244-.379-.246-.379-.247-.377-.248-.377-.249-.376-.25-.376-.251-.374-.252-.374-.254-.373-.254-.372-.256-.371-.256-.37-.258-.37-.259-.369-.26-.368-.261-.367-.262-.367-.263-.365-.264-.365-.265-.364-.267-.363-.267-.362-.268-.362-.27-.36-.271-.36-.271-.359-.273-.358-.274-.357-.274-.356-.276-.356-.277-.355-.278-.353-.279-.353-.28-.352-.281-.352-.282-.35-.283-.35-.284-.348-.285-.348-.287-.347-.287-.346-.288-.345-.289-.344-.29-.344-.292-.342-.292-.342-.293-.34-.295-.34-.295-.339-.296-.338-.297-.337-.299-.336-.299-.336-.3-.334-.301-.334-.303-.332-.303-.332-.304-.331-.305-.329-.306-.329-.308-.328-.308-.327-.309-.327-.31-.325-.311-.324-.312-.324-.313-.322-.314-.321-.315-.321-.315-.32-.317-.318-.318-.318-.318-.317-.32-.315-.321-.315-.321-.314-.322-.313-.324-.312-.324-.311-.325-.31-.327-.309-.327-.308-.328-.308-.329-.306-.329-.305-.331-.304-.332-.303-.332-.303-.334-.301-.334-.3-.336-.299-.336-.299-.337-.297-.338-.296-.339-.295-.34-.295-.34-.293-.342-.292-.342-.292-.344-.29-.344-.289-.345-.288-.346-.287-.347-.287-.348-.285-.348-.284-.35-.283-.35-.282-.352-.281-.352-.28-.353-.279-.353-.278-.355-.277-.356-.276-.356-.274-.357-.274-.358-.273-.359-.271-.36-.271-.36-.27-.362-.268-.362-.267-.363-.267-.364-.265-.365-.264-.365-.263-.367-.262-.367-.261-.368-.26-.369-.259-.37-.258-.37-.256-.371-.256-.372-.254-.373-.254-.374-.252-.374-.251-.376-.25-.376-.249-.377-.248-.377-.247-.379-.246-.379-.244-.38-.243-.381-.243-.381-.241-.383-.24-.383-.239-.384-.238-.385-.237-.385-.235-.386-.235-.387-.233-.388-.232-.388-.231-.39-.23-.39-.229-.39-.227-.392-.227-.392-.225-.393-.224-.394-.223-.394-.222-.396-.221-.395-.219-.397-.218-.398-.218-.398-.216-.399-.214-.399-.214-.4-.213-.401-.211-.402-.21-.403-.209-.403-.208-.404-.206-.404-.206-.406-.204-.406-.203-.406-.202-.408-.2-.408-.2-.408-.198-.41-.197-.41-.196-.411-.194-.412-.194-.412-.192-.413-.191-.413-.189-.414-.189-.415-.187-.416-.186-.416-.185-.417-.184-.418-.182-.418-.181-.419-.18-.419-.178-.421-.178-.42-.176-.422-.175-.422-.173-.423-.173-.423-.171-.425-.17-.424-.169-.426-.167-.426-.166-.426-.165-.428-.163-.427-.163-.429-.161-.429-.159-.43-.159-.43-.157-.431-.156-.432-.155-.432-.153-.433-.152-.433-.151-.434-.149-.435-.148-.435-.147-.436-.146-.436-.144-.437-.143-.438-.141-.438-.141-.439-.139-.439-.138-.44-.136-.441-.135-.441-.134-.441-.132-.443-.131-.442-.13-.444-.128-.444-.128-.444-.125-.445-.125-.446-.123-.446-.122-.447-.12-.447-.119-.448-.118-.448-.116-.449-.115-.45-.114-.45-.112-.45-.111-.451-.11-.452-.108-.452-.107-.453-.105-.453-.104-.453-.103-.455-.101-.454-.1-.456-.099-.455-.097-.457-.096-.456-.094-.458-.093-.457-.092-.459-.09-.459-.089-.459-.087-.46-.087-.46-.084-.461-.083-.461-.082-.462-.081-.462-.079-.463-.077-.463-.076-.463-.075-.465-.073-.464-.072-.465-.071-.466-.069-.466-.067-.466-.067-.467-.064-.468-.064-.467-.062-.469-.06-.469-.059-.469-.057-.469-.056-.47-.055-.471-.053-.471-.052-.471-.05-.472-.049-.473-.047-.472-.046-.473-.044-.474-.043-.474-.042-.474-.04-.475-.038-.475-.037-.476-.036-.476-.034-.477-.032-.476-.031-.478-.03-.477-.028-.479-.027-.478-.025-.479-.023-.479-.022-.48-.021-.48-.019-.48-.017-.481-.016-.481-.015-.482-.013-.482-.011-.482-.01-.483-.009-.483-.007-.484-.005-.483-.004-.485-.002-.484L0 150l.001-.485.002-.484.004-.485.005-.483.007-.484.009-.483.01-.483.011-.482.013-.482.015-.482.016-.481.017-.481.019-.48.021-.48.022-.48.023-.479.025-.479.027-.478.028-.479.03-.477.031-.478.032-.476.034-.477.036-.476.037-.476.038-.475.04-.475.042-.474.043-.474.044-.474.046-.473.047-.472.049-.473.05-.472.052-.471.053-.471.055-.471.056-.47.057-.469.059-.469.06-.469.062-.469.064-.467.064-.468.067-.467.067-.466.069-.466.071-.466.072-.465.073-.464.075-.465.076-.463.077-.463.079-.463.081-.462.082-.462.083-.461.084-.461.087-.46.087-.46.089-.459.09-.459.092-.459.093-.457.094-.458.096-.456.097-.457.099-.455.1-.456.101-.454.103-.455.104-.453.105-.453.107-.453.108-.452.11-.452.111-.451.112-.45.114-.45.115-.45.116-.449.118-.448.119-.448.12-.447.122-.447.123-.446.125-.446.125-.445.128-.444.128-.444.13-.444.131-.442.132-.443.134-.441.135-.441.136-.441.138-.44.139-.439.141-.439.141-.438.143-.438.144-.437.146-.436.147-.436.148-.435.149-.435.151-.434.152-.433.153-.433.155-.432.156-.432.157-.431.159-.43.159-.43.161-.429.163-.429.163-.427.165-.428.166-.426.167-.426.169-.426.17-.424.171-.425.173-.423.173-.423.175-.422.176-.422.178-.42.178-.421.18-.419.181-.419.182-.418.184-.418.185-.417.186-.416.187-.416.189-.415.189-.414.191-.413.192-.413.194-.412.194-.412.196-.411.197-.41.198-.41.2-.408.2-.408.202-.408.203-.406.204-.406.206-.406.206-.404.208-.404.209-.403.21-.403.211-.402.213-.401.214-.4.214-.399.216-.399.218-.398.218-.398.219-.397.221-.395.222-.396.223-.394.224-.394.225-.393.227-.392.227-.392.229-.39.23-.39.231-.39.232-.388.233-.388.235-.387.235-.386.237-.385.238-.385.239-.384.24-.383.241-.383.243-.381.243-.381.244-.38.246-.379.247-.379.248-.377.249-.377.25-.376.251-.376.252-.374.254-.374.254-.373.256-.372.256-.371.258-.37.259-.37.26-.369.261-.368.262-.367.263-.367.264-.365.265-.365.267-.364.267-.363.268-.362.27-.362.271-.36.271-.36.273-.359.274-.358.274-.357.276-.356.277-.356.278-.355.279-.353.28-.353.281-.352.282-.352.283-.35.284-.35.285-.348.287-.348.287-.347.288-.346.289-.345.29-.344.292-.344.292-.342.293-.342.295-.34.295-.34.296-.339.297-.338.299-.337.299-.336.3-.336.301-.334.303-.334.303-.332.304-.332.305-.331.306-.329.308-.329.308-.328.309-.327.31-.327.311-.325.312-.324.313-.324.314-.322.315-.321.315-.321.317-.32.318-.318.318-.318.32-.317.321-.315.321-.315.322-.314.324-.313.324-.312.325-.311.327-.31.327-.309.328-.308.329-.308.329-.306.331-.305.332-.304.332-.303.334-.303.334-.301.336-.3.336-.299.337-.299.338-.297.339-.296.34-.295.34-.295.342-.293.342-.292.344-.292.344-.29.345-.289.346-.288.347-.287.348-.287.348-.285.35-.284.35-.283.352-.282.352-.281.353-.28.353-.279.355-.278.356-.277.356-.276.357-.274.358-.274.359-.273.36-.271.36-.271.362-.27.362-.268.363-.267.364-.267.365-.265.365-.264.367-.263.367-.262.368-.261.369-.26.37-.259.37-.258.371-.256.372-.256.373-.254.374-.254.374-.252.376-.251.376-.25.377-.249.377-.248.379-.247.379-.246.38-.244.381-.243.381-.243.383-.241.383-.24.384-.239.385-.238.385-.237.386-.235.387-.235.388-.233.388-.232.39-.231.39-.23.39-.229.392-.227.392-.227.393-.225.394-.224.394-.223.396-.222.395-.221.397-.219.398-.218.398-.218.399-.216.399-.214.4-.214.401-.213.402-.211.403-.21.403-.209.404-.208.404-.206.406-.206.406-.204.406-.203.408-.202.408-.2.408-.2.41-.198.41-.197.411-.196.412-.194.412-.194.413-.192.413-.191.414-.189.415-.189.416-.187.416-.186.417-.185.418-.184.418-.182.419-.181.419-.18.421-.178.42-.178.422-.176.422-.175.423-.173.423-.173.425-.171.424-.17.426-.169.426-.167.426-.166.428-.165.427-.163.429-.163.429-.161.43-.159.43-.159.431-.157.432-.156.432-.155.433-.153.433-.152.434-.151.435-.149.435-.148.436-.147.436-.146.437-.144.438-.143.438-.141.439-.141.439-.139.44-.138.441-.136.441-.135.441-.134.443-.132.442-.131.444-.13.444-.128.444-.128.445-.125.446-.125.446-.123.447-.122.447-.12.448-.119.448-.118.449-.116.45-.115.45-.114.45-.112.451-.111.452-.11.452-.108.453-.107.453-.105.453-.104.455-.103.454-.101.456-.1.455-.099.457-.097.456-.096.458-.094.457-.093.459-.092.459-.09.459-.089.46-.087.46-.087.461-.084.461-.083.462-.082.462-.081.463-.079.463-.077.463-.076.465-.075.464-.073.465-.072.466-.071.466-.069.466-.067.467-.067.468-.064.467-.064.469-.062.469-.06.469-.059.469-.057.47-.056.471-.055.471-.053.471-.052.472-.05.473-.049.472-.047.473-.046.474-.044.474-.043.474-.042.475-.04.475-.038.476-.037.476-.036.477-.034.476-.032.478-.031.477-.03.479-.028.478-.027.479-.025.479-.023.48-.022.48-.021.48-.019.481-.017.481-.016.482-.015.482-.013.482-.011.483-.01.483-.009.484-.007.483-.005.485-.004.484-.002L150 0l.485.001Zm-.919 16-.434.002-.433.003-.434.005-.432.006-.433.008-.432.009-.431.01-.432.012-.43.013-.431.014-.43.016-.43.017-.429.018-.429.02-.429.021-.428.022-.428.024-.428.025-.427.026-.427.028-.426.029-.426.031-.425.032-.426.033-.424.034-.425.036-.424.037-.423.038-.424.04-.422.041-.423.042-.422.044-.421.044-.422.047-.42.047-.421.049-.42.05-.419.051-.419.053-.419.054-.418.055-.418.057-.418.058-.417.059-.416.06-.416.062-.416.063-.416.064-.414.065-.415.067-.414.068-.413.069-.414.071-.412.072-.412.073-.412.074-.412.076-.411.076-.41.079-.41.079-.41.08-.409.082-.408.083-.409.085-.407.085-.408.087-.406.088-.407.089-.406.09-.405.092-.405.093-.404.094-.404.096-.404.096-.403.098-.403.099-.402.1-.401.102-.401.102-.401.104-.4.105-.4.106-.399.108-.399.108-.398.11-.397.111-.398.113-.396.113-.397.115-.395.116-.395.117-.395.118-.394.119-.394.121-.393.121-.393.123-.392.124-.391.126-.391.126-.391.127-.39.129-.389.13-.389.131-.389.132-.388.134-.387.134-.387.136-.386.137-.386.138-.385.139-.385.14-.384.142-.383.142-.383.144-.383.145-.382.146-.381.147-.381.148-.38.15-.38.15-.379.152-.378.152-.379.154-.377.155-.377.156-.376.158-.376.158-.375.159-.374.161-.374.162-.374.162-.373.164-.372.165-.371.166-.371.168-.371.168-.37.169-.369.171-.369.171-.368.173-.367.174-.367.174-.366.176-.366.177-.365.178-.364.18-.364.18-.363.181-.363.182-.362.184-.361.184-.361.186-.36.186-.359.188-.359.189-.358.189-.358.191-.356.192-.357.193-.355.194-.355.195-.354.196-.354.197-.353.198-.353.2-.351.2-.351.201-.351.202-.349.204-.35.204-.348.205-.348.207-.347.207-.346.209-.346.209-.345.21-.344.212-.344.212-.343.214-.342.214-.342.216-.341.216-.34.218-.34.218-.338.22-.339.22-.337.222-.337.222-.336.224-.335.224-.335.226-.334.226-.333.228-.333.228-.331.229-.332.231-.33.231-.33.232-.328.233-.329.235-.327.235-.327.236-.326.237-.325.238-.325.239-.323.24-.324.241-.322.242-.321.243-.321.243-.32.245-.32.246-.318.246-.318.248-.317.248-.316.25-.316.25-.314.251-.314.252-.314.253-.312.254-.312.255-.311.256-.31.257-.309.258-.309.258-.307.26-.307.26-.307.261-.305.262-.305.264-.303.264-.303.264-.303.266-.301.267-.301.267-.299.269-.299.269-.299.27-.297.272-.297.272-.295.272-.295.274-.294.275-.294.275-.292.277-.292.277-.29.278-.29.279-.29.28-.288.28-.287.282-.287.282-.286.283-.284.285-.285.284-.283.286-.282.287-.282.287-.28.288-.28.29-.279.29-.278.29-.277.292-.277.292-.275.294-.275.294-.274.295-.272.295-.272.297-.272.297-.27.299-.269.299-.269.299-.267.301-.267.301-.266.303-.264.303-.264.303-.264.305-.262.305-.261.307-.26.307-.26.307-.258.309-.258.309-.257.31-.256.311-.255.312-.254.312-.253.314-.252.314-.251.314-.25.316-.25.316-.248.317-.248.318-.246.318-.246.32-.245.32-.243.321-.243.321-.242.322-.241.324-.24.323-.239.325-.238.325-.237.326-.236.327-.235.327-.235.329-.233.328-.232.33-.231.33-.231.332-.229.331-.228.333-.228.333-.226.334-.226.335-.224.335-.224.336-.222.337-.222.337-.22.339-.22.338-.218.34-.218.34-.216.341-.216.342-.214.342-.214.343-.212.344-.212.344-.21.345-.209.346-.209.346-.207.347-.207.348-.205.348-.204.35-.204.349-.202.351-.201.351-.2.351-.2.353-.198.353-.197.354-.196.354-.195.355-.194.355-.193.357-.192.356-.191.358-.189.358-.189.359-.188.359-.186.36-.186.361-.184.361-.184.362-.182.363-.181.363-.18.364-.18.364-.178.365-.177.366-.176.366-.174.367-.174.367-.173.368-.171.369-.171.369-.169.37-.168.371-.168.371-.166.371-.165.372-.164.373-.162.374-.162.374-.161.374-.159.375-.158.376-.158.376-.156.377-.155.377-.154.379-.152.378-.152.379-.15.38-.15.38-.148.381-.147.381-.146.382-.145.383-.144.383-.142.383-.142.384-.14.385-.139.385-.138.386-.137.386-.136.387-.134.387-.134.388-.132.389-.131.389-.13.389-.129.39-.127.391-.126.391-.126.391-.124.392-.123.393-.121.393-.121.394-.119.394-.118.395-.117.395-.116.395-.115.397-.113.396-.113.398-.111.397-.11.398-.108.399-.108.399-.106.4-.105.4-.104.401-.102.401-.102.401-.1.402-.099.403-.098.403-.096.404-.096.404-.094.404-.093.405-.092.405-.09.406-.089.407-.088.406-.087.408-.085.407-.085.409-.083.408-.082.409-.08.41-.079.41-.079.41-.076.411-.076.412-.074.412-.073.412-.072.412-.071.414-.069.413-.068.414-.067.415-.065.414-.064.416-.063.416-.062.416-.06.416-.059.417-.058.418-.057.418-.055.418-.054.419-.053.419-.051.419-.05.42-.049.421-.047.42-.047.422-.044.421-.044.422-.042.423-.041.422-.04.424-.038.423-.037.424-.036.425-.034.424-.033.426-.032.425-.031.426-.029.426-.028.427-.026.427-.025.428-.024.428-.022.428-.021.429-.02.429-.018.429-.017.43-.016.43-.014.431-.013.43-.012.432-.01.431-.009.432-.008.433-.006.432-.005.434-.003.433-.002.434L16 150l.001.434.002.434.003.433.005.434.006.432.008.433.009.432.01.431.012.432.013.43.014.431.016.43.017.43.018.429.02.429.021.429.022.428.024.428.025.428.026.427.028.427.029.426.031.426.032.425.033.426.034.424.036.425.037.424.038.423.04.424.041.422.042.423.044.422.044.421.047.422.047.42.049.421.05.42.051.419.053.419.054.419.055.418.057.418.058.418.059.417.06.416.062.416.063.416.064.416.065.414.067.415.068.414.069.413.071.414.072.412.073.412.074.412.076.412.076.411.079.41.079.41.08.41.082.409.083.408.085.409.085.407.087.408.088.406.089.407.09.406.092.405.093.405.094.404.096.404.096.404.098.403.099.403.1.402.102.401.102.401.104.401.105.4.106.4.108.399.108.399.11.398.111.398.113.397.113.396.115.396.116.396.116.395.119.395.119.394.121.394.121.393.123.393.124.392.126.391.126.391.127.391.129.39.13.389.131.389.132.389.134.388.134.387.136.387.137.386.138.386.139.385.14.385.142.384.142.383.144.383.145.383.146.382.147.381.148.381.15.38.15.38.152.379.152.379.154.377.155.378.156.377.158.376.158.376.16.375.16.374.162.374.162.374.164.373.165.372.166.371.168.371.168.371.169.37.171.369.171.369.173.368.174.367.174.367.176.366.177.366.178.365.18.364.18.364.181.363.182.363.184.362.184.361.186.361.186.36.188.359.189.359.189.358.191.357.192.357.193.357.194.355.195.355.196.355.197.353.198.353.2.353.2.351.201.351.202.351.204.349.204.349.205.349.207.348.207.347.209.346.209.346.21.345.212.344.212.344.214.343.214.342.216.342.216.341.218.34.218.34.22.338.22.339.222.337.222.337.224.336.224.335.226.335.226.334.228.333.228.333.229.331.231.331.231.331.232.33.233.328.235.329.235.327.236.327.237.326.238.325.239.325.24.323.241.324.242.322.243.321.243.321.245.32.246.32.246.318.248.318.248.317.25.316.25.316.251.314.252.314.253.314.254.312.255.312.256.311.257.31.257.309.259.309.26.307.26.307.261.307.262.305.264.305.264.303.264.303.266.303.267.301.267.301.269.299.269.299.271.299.271.297.272.297.272.295.274.295.275.294.275.293.277.293.277.292.278.29.279.29.28.29.28.288.282.287.282.287.283.286.284.284.285.285.286.283.287.282.287.282.289.281.289.279.29.279.29.278.292.277.292.277.294.275.294.275.295.274.295.272.297.272.297.271.299.271.299.269.299.268.301.268.301.267.303.266.303.265.303.263.305.263.305.263.307.261.307.261.307.259.309.259.309.257.31.257.311.256.312.254.312.255.314.253.313.252.315.251.316.25.316.25.317.248.318.248.318.246.32.246.32.245.321.243.321.243.323.242.322.241.324.24.325.239.325.238.326.237.327.236.327.235.328.234.329.234.33.232.331.231.331.231.331.229.333.228.333.228.334.226.335.226.335.224.336.224.337.222.337.222.338.22.339.219.34.219.34.218.341.216.342.216.342.214.343.214.344.212.344.212.345.21.346.209.347.209.347.207.347.207.348.205.35.204.349.204.35.202.352.201.352.201.352.199.353.198.354.197.354.196.355.195.356.194.356.193.356.192.358.19.358.19.359.189.359.188.36.186.361.186.361.184.362.184.363.182.363.181.364.181.364.179.365.178.366.177.366.175.367.175.368.174.367.173.369.171.37.171.369.169.37.168.372.168.371.166.373.165.372.163.373.163.375.162.374.161.375.159.376.158.376.158.377.156.378.155.377.153.379.153.379.152.38.15.38.15.381.148.382.147.381.146.382.145.384.144.383.142.384.142.385.14.385.139.386.138.387.137.386.136.387.134.388.134.389.132.389.131.389.13.39.129.391.127.391.127.391.125.393.124.392.123.393.121.394.121.394.119.395.118.395.117.395.116.396.115.398.113.397.113.397.111.398.109.399.109.399.108.4.106.4.105.401.104.401.102.401.102.402.1.403.099.403.098.403.096.405.096.404.094.405.093.406.092.405.09.406.089.407.088.408.087.408.085.408.085.408.083.409.082.41.08.41.079.41.079.411.076.412.076.412.074.412.073.413.072.413.071.413.069.414.068.415.067.414.065.416.064.416.063.415.062.417.06.418.059.417.058.418.057.418.055.418.054.42.053.419.051.42.05.421.049.42.047.421.047.422.044.422.044.423.042.422.041.423.04.424.038.424.037.424.036.425.034.426.033.425.032.426.031.427.029.427.028.426.026.428.025.428.024.428.022.429.021.429.02.429.018.43.017.43.016.431.014.43.013.431.012.432.01.432.009.433.008.432.006.433.005.434.003.434.002.434.001.434-.001.434-.002.434-.003.433-.005.432-.006.433-.008.432-.009.432-.01.431-.012.43-.013.431-.014.43-.016.43-.017.429-.018.429-.02.429-.021.428-.022.428-.024.428-.025.426-.026.427-.028.427-.029.426-.031.425-.032.426-.033.425-.034.424-.036.424-.037.424-.038.423-.04.422-.041.423-.042.422-.044.422-.044.421-.047.42-.047.421-.049.42-.05.419-.051.42-.053.418-.054.418-.055.418-.057.417-.058.418-.059.417-.06.415-.062.416-.063.416-.064.414-.065.415-.067.414-.068.413-.069.413-.071.413-.072.412-.073.412-.074.412-.076.411-.076.41-.079.41-.079.41-.08.409-.082.408-.083.408-.084.408-.086.408-.087.407-.088.406-.089.405-.09.406-.092.405-.093.404-.094.405-.096.403-.096.403-.098.403-.099.402-.1.401-.102.401-.102.401-.104.4-.105.4-.106.399-.108.399-.109.398-.109.397-.111.397-.113.398-.113.395-.115.396-.116.395-.117.395-.118.394-.119.394-.121.393-.121.392-.123.393-.124.391-.125.391-.127.391-.127.39-.129.389-.13.389-.131.389-.132.388-.134.387-.134.386-.136.387-.137.386-.138.385-.139.385-.14.384-.142.383-.142.384-.144.382-.145.381-.146.382-.147.381-.148.38-.15.38-.15.379-.152.379-.153.377-.153.378-.155.377-.157.376-.157.376-.158.375-.159.374-.161.374-.162.374-.163.373-.163.372-.165.371-.166.372-.168.37-.168.37-.169.369-.171.369-.171.367-.173.368-.174.367-.175.366-.175.366-.177.365-.178.364-.179.364-.181.363-.181.363-.182.362-.184.361-.184.361-.186.36-.186.359-.188.359-.189.358-.19.357-.19.357-.192.356-.193.356-.194.355-.195.354-.196.354-.197.353-.198.352-.2.352-.2.352-.201.35-.202.349-.204.35-.204.348-.205.348-.207.346-.207.347-.209.346-.209.345-.211.344-.211.344-.212.343-.214.342-.215.342-.215.341-.216.34-.218.34-.219.339-.219.338-.22.337-.222.337-.222.336-.224.335-.224.335-.226.334-.226.333-.228.333-.228.331-.229.331-.231.331-.231.33-.232.328-.233.329-.235.327-.235.327-.236.326-.237.325-.238.325-.239.324-.24.322-.241.323-.242.321-.243.321-.243.32-.245.32-.246.318-.246.318-.248.317-.248.316-.25.316-.25.315-.251.313-.252.314-.253.312-.255.312-.254.311-.256.31-.257.309-.257.309-.259.307-.259.307-.261.307-.261.305-.263.305-.263.303-.263.303-.265.303-.266.301-.267.301-.267.299-.269.299-.269.299-.271.297-.271.297-.272.295-.272.295-.274.294-.275.293-.275.293-.277.292-.277.29-.278.29-.279.289-.279.289-.281.287-.282.287-.282.286-.284.285-.283.283-.285.284-.286.282-.287.282-.287.281-.289.279-.289.279-.29.278-.29.277-.292.277-.293.275-.293.275-.294.274-.295.272-.295.272-.297.271-.297.271-.299.269-.299.269-.299.267-.301.267-.301.266-.303.265-.303.263-.303.263-.305.263-.305.261-.307.261-.307.259-.307.259-.309.257-.309.257-.31.256-.311.254-.312.255-.312.253-.314.252-.313.251-.315.25-.316.25-.316.248-.317.248-.318.246-.318.246-.32.245-.32.243-.321.243-.321.242-.323.241-.322.24-.324.239-.325.238-.325.237-.326.236-.327.235-.327.235-.329.233-.328.232-.33.231-.331.231-.331.229-.331.228-.333.228-.333.226-.334.226-.335.224-.335.224-.336.222-.337.222-.337.22-.338.219-.339.219-.34.218-.34.216-.341.215-.342.215-.342.214-.343.212-.344.211-.344.211-.345.209-.346.209-.347.207-.346.207-.348.205-.348.204-.35.204-.349.202-.35.201-.352.2-.352.2-.352.198-.353.197-.354.196-.354.195-.355.194-.356.193-.356.192-.357.19-.357.19-.358.189-.359.188-.359.186-.36.186-.361.184-.361.184-.362.182-.363.181-.363.181-.364.179-.364.178-.365.177-.366.175-.366.175-.367.174-.368.173-.367.171-.369.171-.369.169-.37.168-.37.168-.372.166-.371.165-.372.163-.373.163-.374.162-.374.161-.374.159-.375.158-.376.157-.376.157-.377.155-.378.153-.377.153-.379.152-.379.15-.38.15-.38.148-.381.147-.382.146-.381.145-.382.144-.384.142-.383.142-.384.14-.385.139-.385.138-.386.137-.387.136-.386.134-.387.134-.388.132-.389.131-.389.13-.389.129-.39.127-.391.127-.391.125-.391.124-.393.123-.392.121-.393.121-.394.119-.394.118-.395.117-.395.116-.396.115-.395.113-.398.113-.397.111-.397.109-.398.109-.399.108-.399.106-.4.105-.4.104-.401.102-.401.102-.401.1-.402.099-.403.098-.403.096-.403.096-.405.094-.404.093-.405.092-.406.09-.405.089-.406.088-.407.087-.408.086-.408.084-.408.083-.408.082-.409.08-.41.079-.41.079-.41.076-.411.076-.412.074-.412.073-.412.072-.413.071-.413.069-.413.068-.414.067-.415.065-.414.064-.416.063-.416.062-.415.06-.417.059-.418.058-.417.057-.418.055-.418.054-.418.053-.42.051-.419.05-.42.049-.421.047-.42.047-.421.044-.422.044-.422.042-.423.041-.422.04-.423.038-.424.037-.424.036-.424.034-.425.033-.426.032-.425.031-.426.029-.427.028-.427.026-.426.025-.428.024-.428.022-.428.021-.429.02-.429.018-.429.017-.43.016-.43.014-.431.013-.43.012-.431.01-.432.009-.432.008-.433.006-.432.005-.433.003-.434.002-.434L284 150l-.001-.434-.002-.434-.003-.434-.005-.433-.006-.432-.008-.433-.009-.432-.01-.432-.012-.431-.013-.43-.014-.431-.016-.43-.017-.43-.018-.429-.02-.429-.021-.429-.022-.428-.024-.428-.025-.428-.026-.426-.028-.427-.029-.427-.031-.426-.032-.425-.033-.426-.034-.425-.036-.424-.037-.424-.038-.424-.04-.423-.041-.422-.042-.423-.044-.422-.044-.422-.047-.421-.047-.42-.049-.421-.05-.42-.051-.419-.053-.42-.054-.418-.055-.418-.057-.418-.058-.417-.059-.418-.06-.417-.062-.415-.063-.416-.064-.416-.065-.414-.067-.415-.068-.414-.069-.413-.071-.413-.072-.413-.073-.412-.074-.412-.076-.412-.076-.411-.079-.41-.079-.41-.08-.41-.082-.409-.083-.408-.085-.408-.085-.408-.087-.408-.088-.407-.089-.406-.09-.405-.092-.406-.093-.405-.094-.404-.096-.405-.096-.403-.098-.403-.099-.403-.1-.402-.102-.401-.102-.401-.104-.401-.105-.4-.106-.4-.108-.399-.109-.399-.109-.398-.111-.397-.113-.397-.113-.398-.115-.396-.116-.395-.117-.395-.118-.395-.119-.394-.121-.394-.121-.393-.123-.392-.124-.393-.125-.391-.127-.391-.127-.391-.129-.39-.13-.389-.131-.389-.132-.389-.134-.388-.134-.387-.136-.386-.137-.387-.138-.386-.139-.385-.14-.385-.142-.384-.142-.383-.144-.384-.145-.382-.146-.381-.147-.382-.148-.381-.15-.38-.15-.38-.152-.379-.153-.379-.153-.377-.155-.378-.156-.377-.158-.376-.158-.376-.159-.375-.161-.374-.162-.375-.163-.373-.163-.372-.165-.373-.166-.371-.168-.372-.168-.37-.169-.369-.171-.37-.171-.369-.173-.367-.174-.368-.175-.367-.175-.366-.177-.366-.178-.365-.179-.364-.181-.364-.181-.363-.182-.363-.184-.362-.184-.361-.186-.361-.186-.36-.188-.359-.189-.359-.19-.358-.19-.358-.192-.356-.193-.356-.194-.356-.195-.355-.196-.354-.197-.354-.198-.353-.199-.352-.201-.352-.201-.352-.202-.35-.204-.349-.204-.35-.205-.348-.207-.347-.207-.347-.209-.347-.209-.346-.21-.345-.212-.344-.212-.344-.214-.343-.214-.342-.216-.342-.216-.341-.218-.34-.219-.34-.219-.339-.22-.338-.222-.337-.222-.337-.224-.336-.224-.335-.226-.335-.226-.334-.228-.333-.228-.333-.229-.331-.231-.331-.231-.331-.232-.33-.234-.329-.234-.328-.235-.327-.236-.327-.237-.326-.238-.325-.239-.325-.24-.324-.241-.322-.242-.323-.243-.321-.243-.321-.245-.32-.246-.32-.246-.318-.248-.318-.248-.317-.25-.316-.25-.316-.251-.315-.252-.313-.253-.314-.255-.312-.254-.312-.256-.311-.257-.31-.257-.309-.259-.309-.259-.307-.261-.307-.261-.307-.263-.305-.263-.305-.263-.303-.265-.303-.266-.303-.267-.301-.268-.301-.268-.299-.269-.299-.271-.299-.271-.297-.272-.297-.272-.295-.274-.295-.275-.294-.275-.294-.277-.292-.277-.292-.278-.29-.279-.29-.279-.289-.281-.289-.282-.287-.282-.287-.283-.286-.285-.285-.284-.284-.286-.283-.287-.282-.287-.282-.288-.28-.29-.28-.29-.279-.29-.278-.292-.277-.293-.277-.293-.275-.294-.275-.295-.274-.295-.272-.297-.272-.297-.271-.299-.271-.299-.269-.299-.269-.301-.267-.301-.267-.303-.266-.303-.264-.303-.264-.305-.264-.305-.262-.307-.261-.307-.26-.307-.26-.309-.259-.309-.257-.31-.257-.311-.256-.312-.255-.312-.254-.314-.253-.314-.252-.314-.251-.316-.25-.316-.25-.317-.248-.318-.248-.318-.246-.32-.246-.32-.245-.321-.243-.321-.243-.322-.242-.324-.241-.323-.24-.325-.239-.325-.238-.326-.237-.327-.236-.327-.235-.329-.235-.328-.233-.33-.232-.331-.231-.331-.231-.331-.229-.333-.228-.333-.228-.334-.226-.335-.226-.335-.224-.336-.224-.337-.222-.337-.222-.339-.22-.338-.22-.34-.218-.34-.218-.341-.216-.342-.216-.342-.214-.343-.214-.344-.212-.344-.212-.345-.21-.346-.209-.346-.209-.347-.207-.348-.207-.349-.205-.349-.204-.349-.204-.351-.202-.351-.201-.351-.2-.353-.2-.353-.198-.353-.197-.355-.196-.355-.195-.355-.194-.357-.193-.357-.192-.357-.191-.358-.189-.359-.189-.359-.188-.36-.186-.361-.186-.361-.184-.362-.184-.363-.182-.363-.181-.364-.18-.364-.18-.365-.178-.366-.177-.366-.176-.367-.174-.367-.174-.368-.173-.369-.171-.369-.171-.37-.169-.371-.168-.371-.168-.371-.166-.372-.165-.373-.164-.374-.162-.374-.162-.374-.16-.375-.16-.376-.158-.376-.158-.377-.156-.378-.155-.377-.154-.379-.152-.379-.152-.38-.15-.38-.15-.381-.148-.381-.147-.382-.146-.383-.145-.383-.144-.383-.142-.384-.142-.385-.14-.385-.139-.386-.138-.386-.137-.387-.136-.387-.134-.388-.134-.389-.132-.389-.131-.389-.13-.39-.129-.391-.127-.391-.126-.391-.126-.392-.124-.393-.123-.393-.121-.394-.121-.394-.119-.395-.119-.395-.116-.396-.116-.396-.115-.396-.113-.397-.113-.398-.111-.398-.11-.399-.108-.399-.108-.4-.106-.4-.105-.401-.104-.401-.102-.401-.102-.402-.1-.403-.099-.403-.098-.404-.096-.404-.096-.404-.094-.405-.093-.405-.092-.406-.09-.407-.089-.406-.088-.408-.087-.407-.085-.409-.085-.408-.083-.409-.082-.41-.08-.41-.079-.41-.079-.411-.076-.412-.076-.412-.074-.412-.073-.412-.072-.414-.071-.413-.069-.414-.068-.415-.067-.414-.065-.416-.064-.416-.063-.416-.062-.416-.06-.417-.059-.418-.058-.418-.057-.418-.055-.419-.054-.419-.053-.419-.051-.42-.05-.421-.049-.42-.047-.422-.047-.421-.044-.422-.044-.423-.042-.422-.041-.424-.04-.423-.038-.424-.037-.425-.036-.424-.034-.426-.033-.425-.032-.426-.031-.426-.029-.427-.028-.427-.026-.428-.025-.428-.024-.428-.022-.429-.021-.429-.02-.429-.018-.43-.017-.43-.016-.431-.014-.43-.013-.432-.012-.431-.01-.432-.009-.433-.008-.432-.006-.434-.005-.433-.003-.434-.002L150 16l-.434.001Z" style="fill:#4d4d4d"/>
    <path d="M259.395 93.085c0-8.208-12.003-14.873-26.787-14.873H67.392c-14.784 0-26.787 6.665-26.787 14.873v29.746c0 8.209 12.003 14.873 26.787 14.873h165.216c14.784 0 26.787-6.664 26.787-14.873V93.085Z" style="fill:#fffefe" transform="matrix(.7707 0 0 1.3881 34.394 38.574)"/>
    <path d="m232.781 78.213.173.001.173.001.172.002.172.003.172.003.172.004.171.005.171.005.17.006.171.006.17.007.17.007.169.008.17.009.168.009.169.01.168.011.168.01.168.012.167.012.167.013.167.013.166.014.166.014.166.015.165.016.165.016.165.017.164.017.164.018.164.018.163.019.163.019.163.02.162.021.161.021.162.021.161.022.16.023.161.023.16.024.159.024.159.025.159.025.158.026.158.027.157.027.157.027.157.028.156.028.156.029.155.03.155.03.155.031.154.031.153.031.153.032.153.033.152.033.152.033.151.034.151.035.151.035.15.036.149.036.149.036.149.037.148.038.148.038.147.038.146.039.146.039.146.04.145.041.145.041.144.041.144.042.143.042.142.043.142.043.142.043.141.045.14.044.14.045.14.046.139.046.138.046.138.047.137.047.273.096.27.098.269.099.266.101.264.103.261.105.259.106.257.108.254.109.252.112.249.112.247.115.244.116.242.118.239.119.237.121.234.122.231.124.229.126.226.127.223.128.22.13.218.131.215.133.212.134.209.136.206.137.204.139.2.139.197.142.195.142.191.144.189.145.185.146.182.148.179.149.176.15.173.152.085.076.084.077.084.076.082.078.082.077.081.078.081.078.079.078.079.079.077.078.077.08.076.079.076.08.074.08.074.08.072.081.072.081.071.081.07.081.07.082.068.082.068.082.066.082.066.083.065.083.064.083.063.084.062.084.062.084.06.084.06.085.058.084.058.085.057.086.056.085.055.086.054.086.053.086.052.087.051.087.051.086.049.088.049.087.047.088.047.088.045.088.045.088.044.089.043.088.041.089.041.089.04.09.039.089.038.09.037.09.036.09.035.091.034.091.033.09.032.091.031.092.03.091.029.092.028.091.027.092.026.093.024.092.024.093.023.092.022.093.021.093.02.094.018.093.018.094.017.093.015.094.015.094.013.095.013.094.011.095.01.095.01.094.008.096.007.095.006.095.005.096.003.095.003.096.002.096v29.938l-.002.096-.003.096-.003.096-.005.095-.006.096-.007.095-.008.095-.01.095-.01.095-.011.094-.013.095-.013.094-.015.094-.015.094-.017.094-.018.094-.018.093-.02.093-.021.093-.022.093-.023.093-.024.093-.024.092-.026.092-.027.092-.028.092-.029.091-.03.092-.031.091-.032.091-.033.091-.034.091-.035.09-.036.09-.037.09-.038.09-.039.09-.04.089-.041.089-.041.089-.043.089-.044.089-.045.088-.045.088-.047.088-.047.087-.049.088-.049.087-.051.087-.051.087-.052.086-.053.086-.054.086-.055.086-.056.086-.057.085-.058.085-.058.085-.06.084-.06.085-.062.084-.062.084-.063.083-.064.083-.065.083-.066.083-.066.083-.068.082-.068.082-.07.081-.07.082-.071.081-.072.081-.072.08-.074.081-.074.08-.076.079-.076.08-.077.079-.077.079-.079.078-.079.079-.081.078-.081.078-.082.077-.082.077-.084.077-.084.076-.085.077-.173.151-.176.15-.179.149-.182.148-.185.147-.189.145-.191.143-.195.143-.197.141-.2.14-.204.138-.206.137-.209.136-.212.134-.215.133-.218.132-.22.129-.223.129-.226.127-.229.125-.231.124-.234.123-.237.12-.239.12-.242.117-.244.117-.247.114-.249.113-.252.111-.254.11-.257.108-.259.106-.261.105-.264.102-.266.102-.269.099-.27.098-.273.095-.137.048-.138.047-.138.046-.139.046-.14.045-.14.045-.14.045-.141.044-.142.044-.142.043-.142.043-.143.042-.144.042-.144.041-.145.041-.145.04-.146.04-.146.039-.146.039-.147.039-.148.038-.148.037-.149.037-.149.037-.149.036-.15.035-.151.036-.151.034-.151.034-.152.034-.152.033-.153.032-.153.032-.153.032-.154.031-.155.031-.155.03-.155.029-.156.029-.156.029-.157.027-.157.028-.157.027-.158.026-.158.026-.159.025-.159.025-.159.025-.16.023-.161.023-.16.023-.161.022-.162.022-.161.021-.162.02-.163.02-.163.02-.163.019-.164.018-.164.018-.164.017-.165.017-.165.016-.165.015-.166.015-.166.015-.166.013-.167.014-.167.012-.167.012-.168.012-.168.011-.168.01-.169.01-.168.009-.17.009-.169.008-.17.008-.17.007-.171.006-.17.006-.171.005-.171.004-.172.004-.172.003-.172.003-.172.002-.173.002-.173.001H67.219l-.173-.001-.173-.002-.172-.002-.172-.003-.172-.003-.172-.004-.171-.004-.171-.005-.17-.006-.171-.006-.17-.007-.17-.008-.169-.008-.17-.009-.168-.009-.169-.01-.168-.01-.168-.011-.168-.012-.167-.012-.167-.012-.167-.014-.166-.013-.166-.015-.166-.015-.165-.015-.165-.016-.165-.017-.164-.017-.164-.018-.164-.018-.163-.019-.163-.02-.163-.02-.162-.02-.161-.021-.162-.022-.161-.022-.16-.023-.161-.023-.16-.023-.159-.025-.159-.025-.159-.025-.158-.026-.158-.026-.157-.027-.157-.028-.157-.027-.156-.029-.156-.029-.155-.029-.155-.03-.155-.031-.154-.031-.153-.032-.153-.032-.153-.032-.152-.033-.152-.034-.151-.034-.151-.034-.151-.036-.15-.035-.149-.036-.149-.037-.149-.037-.148-.037-.148-.038-.147-.039-.146-.039-.146-.039-.146-.04-.145-.04-.145-.041-.144-.041-.144-.042-.143-.042-.142-.043-.142-.043-.142-.044-.141-.044-.14-.045-.14-.045-.14-.045-.139-.046-.138-.046-.138-.047-.137-.048-.273-.095-.27-.098-.269-.099-.266-.102-.264-.102-.261-.105-.259-.106-.257-.108-.254-.11-.252-.111-.249-.113-.247-.114-.244-.117-.242-.117-.239-.12-.237-.12-.234-.123-.231-.124-.229-.125-.226-.127-.223-.129-.22-.129-.218-.132-.215-.133-.212-.134-.209-.136-.206-.137-.204-.138-.2-.14-.197-.141-.195-.143-.191-.143-.189-.145-.185-.147-.182-.148-.179-.149-.176-.15-.173-.151-.085-.077-.084-.076-.084-.077-.082-.077-.082-.077-.081-.078-.081-.078-.079-.079-.079-.078-.077-.079-.077-.079-.076-.08-.076-.079-.074-.08-.074-.081-.072-.08-.072-.081-.071-.081-.07-.082-.07-.081-.068-.082-.068-.082-.066-.083-.066-.083-.065-.083-.064-.083-.063-.083-.062-.084-.062-.084-.06-.085-.06-.084-.058-.085-.058-.085-.057-.085-.056-.086-.055-.086-.054-.086-.053-.086-.052-.086-.051-.087-.051-.087-.049-.087-.049-.088-.047-.087-.047-.088-.045-.088-.045-.088-.044-.089-.043-.089-.041-.089-.041-.089-.04-.089-.039-.09-.038-.09-.037-.09-.036-.09-.035-.09-.034-.091-.033-.091-.032-.091-.031-.091-.03-.092-.029-.091-.028-.092-.027-.092-.026-.092-.024-.092-.024-.093-.023-.093-.022-.093-.021-.093-.02-.093-.018-.093-.018-.094-.017-.094-.015-.094-.015-.094-.013-.094-.013-.095-.011-.094-.01-.095-.01-.095-.008-.095-.007-.095-.006-.096-.005-.095-.003-.096-.003-.096-.002-.096V92.989l.002-.096.003-.096.003-.095.005-.096.006-.095.007-.095.008-.096.01-.094.01-.095.011-.095.013-.094.013-.095.015-.094.015-.094.017-.093.018-.094.018-.093.02-.094.021-.093.022-.093.023-.092.024-.093.024-.092.026-.093.027-.092.028-.091.029-.092.03-.091.031-.092.032-.091.033-.09.034-.091.035-.091.036-.09.037-.09.038-.09.039-.089.04-.09.041-.089.041-.089.043-.088.044-.089.045-.088.045-.088.047-.088.047-.088.049-.087.049-.088.051-.086.051-.087.052-.087.053-.086.054-.086.055-.086.056-.085.057-.086.058-.085.058-.084.06-.085.06-.084.062-.084.062-.084.063-.084.064-.083.065-.083.066-.083.066-.082.068-.082.068-.082.07-.082.07-.081.071-.081.072-.081.072-.081.074-.08.074-.08.076-.08.076-.079.077-.08.077-.078.079-.079.079-.078.081-.078.081-.078.082-.077.082-.078.084-.076.084-.077.085-.076.173-.152.176-.15.179-.149.182-.148.185-.146.189-.145.191-.144.195-.142.197-.142.2-.139.204-.139.206-.137.209-.136.212-.134.215-.133.218-.131.22-.13.223-.128.226-.127.229-.126.231-.124.234-.122.237-.121.239-.119.242-.118.244-.116.247-.115.249-.112.252-.112.254-.109.257-.108.259-.106.261-.105.264-.103.266-.101.269-.099.27-.098.273-.096.137-.047.138-.047.138-.046.139-.046.14-.046.14-.045.14-.044.141-.045.142-.043.142-.043.142-.043.143-.042.144-.042.144-.041.145-.041.145-.041.146-.04.146-.039.146-.039.147-.038.148-.038.148-.038.149-.037.149-.036.149-.036.15-.036.151-.035.151-.035.151-.034.152-.033.152-.033.153-.033.153-.032.153-.031.154-.031.155-.031.155-.03.155-.03.156-.029.156-.028.157-.028.157-.027.157-.027.158-.027.158-.026.159-.025.159-.025.159-.024.16-.024.161-.023.16-.023.161-.022.162-.021.161-.021.162-.021.163-.02.163-.019.163-.019.164-.018.164-.018.164-.017.165-.017.165-.016.165-.016.166-.015.166-.014.166-.014.167-.013.167-.013.167-.012.168-.012.168-.01.168-.011.169-.01.168-.009.17-.009.169-.008.17-.007.17-.007.171-.006.17-.006.171-.005.171-.005.172-.004.172-.003.172-.003.172-.002.173-.001.173-.001.173-.001h165.216l.173.001ZM67.417 86.857l-.099.001h-.075l-.074.001h-.073l-.073.002-.073.001-.074.002-.072.002-.073.002-.072.002-.072.003-.072.003-.072.003-.071.003-.071.004-.072.004-.07.004-.071.004-.07.005-.07.005-.07.005-.07.005-.07.006-.069.005-.069.006-.069.007-.069.006-.069.007-.068.007-.068.007-.069.007-.068.008-.066.008-.068.008-.068.008-.067.009-.068.008-.066.009-.067.009-.066.01-.066.009-.067.01-.065.01-.067.011-.065.01-.066.011-.065.011-.065.011-.066.011-.064.012-.064.011-.065.013-.065.012-.063.012-.065.013-.064.013-.063.013-.063.013-.063.013-.064.014-.063.014-.063.014-.062.015-.063.014-.062.015-.063.015-.062.015-.061.015-.061.016-.062.016-.061.016-.061.016-.061.016-.06.017-.062.017-.059.017-.061.017-.06.018-.059.017-.06.018-.059.018-.059.018-.059.019-.059.018-.059.019-.059.02-.058.019-.057.019-.057.02-.039.013-.134.047-.114.041-.112.042-.112.042-.111.043-.11.045-.11.044-.108.046-.107.046-.106.047-.105.048-.105.048-.103.049-.102.05-.102.05-.1.051-.098.052-.098.053-.097.053-.096.053-.094.055-.093.055-.092.055-.091.056-.09.057-.088.057-.087.058-.086.059-.085.059-.083.059-.082.06-.081.061-.079.061-.078.062-.076.062-.076.062-.073.064-.086.074-.023.021-.035.032-.035.032-.035.033-.034.032-.034.033-.034.032-.033.033-.033.033-.032.033-.032.033-.032.033-.032.033-.03.034-.031.033-.031.034-.03.033-.029.034-.029.034-.029.034-.029.034-.028.035-.028.034-.027.034-.027.034-.026.035-.027.035-.025.035-.026.034-.025.035-.025.036-.024.035-.024.035-.023.035-.023.036-.023.035-.023.036-.022.035-.021.036-.022.036-.02.036-.021.036-.02.037-.02.036-.019.036-.019.036-.018.037-.018.037-.018.036-.017.037-.017.037-.017.037-.016.037-.016.038-.015.037-.015.037-.014.038-.014.037-.014.038-.013.038-.013.038-.013.038-.012.038-.011.038-.012.038-.01.039-.011.038-.01.039-.009.039-.009.039-.009.039-.008.039-.008.039-.008.039-.007.039-.006.04-.006.04-.006.04-.005.039-.005.04-.004.041-.004.04-.004.04-.003.041-.002.04-.003.041-.001.041-.001.041-.001.041v29.828l.001.042.001.041.001.04.003.041.002.041.003.041.004.04.004.04.004.04.005.04.005.04.006.04.006.039.006.04.007.039.008.04.008.039.008.039.009.039.009.039.009.038.01.039.011.039.01.038.012.038.011.039.012.038.013.038.013.038.013.037.014.038.014.038.014.037.015.038.015.037.016.037.016.037.017.037.017.037.017.037.018.037.018.036.018.037.019.036.019.037.02.036.02.036.021.036.02.036.022.036.021.036.022.036.023.035.023.036.023.035.023.036.024.035.024.035.025.035.025.035.026.035.025.035.027.034.026.035.027.034.027.035.028.034.028.034.029.034.029.034.029.034.029.034.03.034.031.033.031.034.03.033.032.033.032.034.032.033.032.033.033.032.033.033.034.033.034.032.034.033.035.032.035.032.035.032.023.021.086.075.073.063.076.063.076.062.078.061.079.061.081.061.082.06.083.06.085.059.086.058.087.058.088.057.09.057.091.056.092.056.093.055.094.054.096.054.097.053.098.052.098.052.1.051.102.051.102.049.103.05.105.048.105.047.106.047.107.047.108.045.11.045.11.044.111.043.112.043.112.042.114.041.134.047.038.013.058.02.058.019.057.019.059.019.059.019.059.019.059.018.059.018.059.018.06.018.059.018.06.017.061.018.059.016.062.017.06.017.061.016.061.017.061.016.061.015.061.016.063.015.062.016.062.015.062.014.063.015.062.014.063.014.063.014.064.014.063.014.063.013.063.013.064.013.065.012.063.013.065.012.065.012.064.012.064.011.066.012.065.011.065.011.066.01.065.011.067.01.065.01.067.01.066.01.066.009.067.009.067.009.067.009.067.008.067.009.068.008.068.008.068.007.068.008.068.007.068.007.069.006.069.007.069.006.069.006.069.006.07.005.07.006.07.005.07.005.07.004.071.005.07.004.072.004.071.003.071.004.072.003.072.003.072.002.072.003.073.002.072.002.074.001.073.002.073.001.073.001.074.001h165.514l.074-.001.073-.001.073-.001.073-.002.074-.001.072-.002.073-.002.072-.003.072-.002.072-.003.072-.003.071-.004.071-.003.071-.004.071-.004.071-.005.07-.004.07-.005.07-.005.07-.006.07-.005.069-.006.069-.006.069-.006.069-.007.069-.006.068-.007.068-.007.068-.008.068-.007.068-.008.068-.008.067-.009.067-.008.067-.009.067-.009.067-.009.066-.009.066-.01.067-.01.065-.01.067-.01.065-.011.066-.01.065-.011.065-.011.066-.012.064-.011.064-.012.066-.012.063-.012.064-.013.065-.012.064-.013.063-.013.063-.013.063-.014.064-.014.063-.014.063-.014.062-.014.063-.015.062-.014.062-.015.062-.016.062-.015.062-.016.061-.015.061-.016.061-.017.061-.016.06-.016.061-.017.061-.018.06-.017.06-.017.059-.018.06-.018.059-.018.059-.018.059-.018.059-.019.059-.019.059-.019.057-.019.058-.019.058-.02.038-.013.134-.047.114-.041.112-.042.112-.043.111-.043.11-.044.11-.045.108-.045.107-.047.106-.046.105-.048.105-.048.103-.05.102-.049.101-.051.101-.051.099-.052.097-.052.097-.053.096-.054.094-.054.093-.055.092-.056.091-.056.09-.057.088-.057.087-.058.086-.058.085-.059.083-.06.082-.06.081-.061.079-.061.078-.061.077-.063.075-.062.073-.063.085-.075.024-.021.035-.032.035-.032.035-.032.034-.033.034-.032.034-.033.033-.033.033-.032.032-.033.033-.033.031-.033.031-.034.031-.033.031-.034.031-.034.03-.033.029-.034.029-.034.029-.034.029-.034.028-.034.027-.034.028-.034.027-.035.026-.035.027-.034.025-.035.026-.035.025-.035.025-.035.024-.035.024-.036.023-.034.023-.036.023-.036.023-.035.022-.036.021-.036.022-.036.02-.035.021-.037.02-.036.02-.036.019-.036.019-.037.018-.037.018-.036.018-.037.017-.037.017-.036.017-.038.016-.037.016-.037.015-.037.015-.037.014-.038.014-.038.014-.038.013-.037.013-.038.013-.038.012-.039.011-.038.012-.038.01-.039.011-.038.01-.038.009-.039.01-.039.008-.039.008-.039.008-.039.008-.04.007-.039.006-.04.006-.039.006-.04.005-.04.005-.04.004-.04.004-.04.004-.04.003-.041.002-.041.003-.041.001-.04.001-.041.001-.041V93.044l-.001-.041-.001-.041-.001-.041-.003-.04-.002-.041-.003-.041-.004-.04-.004-.041-.004-.04-.005-.04-.005-.04-.006-.039-.006-.04-.006-.04-.007-.039-.008-.039-.008-.04-.008-.038-.008-.039-.01-.039-.009-.039-.01-.039-.011-.038-.01-.039-.012-.038-.011-.038-.012-.038-.013-.038-.013-.038-.013-.038-.014-.037-.014-.038-.014-.038-.015-.037-.015-.037-.016-.037-.016-.038-.017-.037-.017-.036-.017-.038-.018-.036-.018-.037-.018-.037-.019-.036-.019-.036-.02-.036-.02-.037-.021-.036-.02-.036-.022-.036-.021-.036-.022-.035-.023-.036-.023-.036-.023-.035-.023-.035-.024-.035-.024-.035-.025-.036-.025-.035-.026-.034-.025-.035-.027-.035-.026-.034-.027-.035-.028-.035-.027-.033-.028-.035-.029-.034-.029-.034-.029-.034-.029-.033-.03-.034-.031-.034-.031-.033-.031-.034-.031-.033-.031-.033-.033-.033-.032-.033-.033-.033-.033-.033-.034-.032-.034-.033-.034-.033-.035-.032-.034-.032-.036-.032-.024-.021-.085-.075-.073-.063-.075-.062-.077-.062-.078-.062-.079-.061-.081-.061-.082-.06-.083-.059-.085-.059-.086-.059-.087-.058-.088-.057-.09-.057-.091-.056-.092-.055-.093-.055-.094-.055-.096-.053-.097-.053-.097-.053-.099-.052-.101-.051-.101-.05-.102-.05-.103-.049-.105-.048-.105-.048-.106-.047-.107-.046-.108-.046-.11-.045-.11-.044-.111-.043-.112-.042-.112-.042-.114-.041-.134-.047-.039-.014-.057-.019-.057-.019-.058-.019-.059-.02-.059-.019-.059-.018-.059-.019-.059-.018-.059-.018-.06-.018-.059-.017-.06-.018-.06-.017-.061-.017-.061-.017-.06-.017-.061-.016-.061-.016-.061-.016-.062-.016-.062-.016-.06-.015-.062-.015-.063-.015-.062-.015-.063-.014-.062-.015-.063-.014-.063-.014-.064-.014-.063-.013-.063-.013-.063-.013-.064-.013-.065-.013-.064-.012-.063-.012-.066-.013-.064-.011-.064-.012-.066-.011-.065-.011-.065-.011-.066-.011-.065-.01-.067-.011-.065-.01-.067-.01-.066-.009-.066-.01-.067-.009-.066-.009-.068-.008-.067-.009-.068-.008-.068-.008-.066-.008-.068-.008-.069-.007-.068-.007-.068-.007-.069-.007-.069-.006-.069-.007-.069-.006-.069-.005-.07-.006-.07-.005-.07-.005-.07-.005-.07-.005-.071-.004-.071-.004-.071-.004-.071-.004-.071-.003-.072-.003-.072-.003-.072-.003-.072-.002-.073-.002-.072-.002-.074-.002-.073-.001-.073-.002h-.073l-.074-.001h-.075l-.099-.001H67.417Z" style="fill:#4d4d4d" transform="matrix(.7707 0 0 1.3881 34.394 38.574)"/>
    <path d="M259.395 93.085c0-8.208-3.671-14.873-8.193-14.873H48.798c-4.522 0-8.193 6.665-8.193 14.873v29.746c0 8.209 3.671 14.873 8.193 14.873h202.404c4.522 0 8.193-6.664 8.193-14.873V93.085Z" style="fill:#fffefe" transform="matrix(.57268 0 0 .3155 64.098 168.813)"/>
    <path d="m251.308 78.214.105.003.105.006.105.009.105.011.104.013.104.015.103.018.103.021.103.022.204.052.203.061.2.07.199.079.198.087.195.096.193.105.192.112.189.122.187.129.185.137.183.145.18.153.178.161.175.168.173.175.17.183.168.19.165.197.162.204.159.211.156.217.153.224.151.231.147.237.144.243.14.25.138.255.134.261.13.267.127.273.124.278.12.284.116.289.112.294.109.299.105.305.1.309.097.313.092.319.089.323.084.327.08.331.076.336.071.34.067.343.062.348.057.351.053.354.048.358.044.362.038.364.034.368.029.37.012.187.011.187.01.187.008.189.008.189.006.189.004.191.004.191.002.191v30.13l-.002.192-.004.191-.004.19-.006.19-.008.189-.008.188-.01.188-.011.187-.012.186-.029.371-.034.367-.038.365-.044.361-.048.358-.053.355-.057.351-.062.347-.067.344-.071.339-.076.336-.08.332-.084.327-.089.323-.092.318-.097.314-.1.309-.105.304-.109.299-.112.295-.116.288-.12.284-.124.278-.127.273-.13.267-.134.261-.138.256-.14.249-.144.243-.147.237-.151.231-.153.224-.156.218-.159.211-.162.204-.165.197-.168.19-.17.182-.173.176-.175.168-.178.16-.18.153-.183.145-.185.138-.187.129-.189.121-.192.113-.193.104-.195.096-.198.088-.199.079-.2.07-.203.061-.204.051-.103.023-.103.02-.103.018-.104.016-.104.013-.105.011-.105.008-.105.006-.105.004-.106.001H48.798l-.106-.001-.105-.004-.105-.006-.105-.008-.105-.011-.104-.013-.104-.016-.103-.018-.103-.02-.103-.023-.204-.051-.203-.061-.2-.07-.199-.079-.198-.088-.195-.096-.193-.104-.192-.113-.189-.121-.187-.129-.185-.138-.183-.145-.18-.153-.178-.16-.175-.168-.173-.176-.17-.182-.168-.19-.165-.197-.162-.204-.159-.211-.156-.218-.153-.224-.151-.231-.147-.237-.144-.243-.14-.249-.138-.256-.134-.261-.13-.267-.127-.273-.124-.278-.12-.284-.116-.288-.112-.295-.109-.299-.105-.304-.1-.309-.097-.314-.092-.318-.089-.323-.084-.327-.08-.332-.076-.336-.071-.339-.067-.344-.062-.347-.057-.351-.053-.355-.048-.358-.044-.361-.038-.365-.034-.367-.029-.371-.012-.186-.011-.187-.01-.188-.008-.188-.008-.189-.006-.19-.004-.19-.004-.191-.002-.192v-30.13l.002-.191.004-.191.004-.191.006-.189.008-.189.008-.189.01-.187.011-.187.012-.187.029-.37.034-.368.038-.364.044-.362.048-.358.053-.354.057-.351.062-.348.067-.343.071-.34.076-.336.08-.331.084-.327.089-.323.092-.319.097-.313.1-.309.105-.305.109-.299.112-.294.116-.289.12-.284.124-.278.127-.273.13-.267.134-.261.138-.255.14-.25.144-.243.147-.237.151-.231.153-.224.156-.217.159-.211.162-.204.165-.197.168-.19.17-.183.173-.175.175-.168.178-.161.18-.153.183-.145.185-.137.187-.129.189-.122.192-.112.193-.105.195-.096.198-.087.199-.079.2-.07.203-.061.204-.052.103-.022.103-.021.103-.018.104-.015.104-.013.105-.011.105-.009.105-.006.105-.003.106-.002h202.404l.106.002ZM49.335 94.061v27.795h201.33V94.061H49.335Z" style="fill:#4d4d4d" transform="matrix(.57268 0 0 .3155 64.098 168.813)"/>
    <circle cx="37.462" cy="115.417" r="7.819" style="fill:#4b4b4b" transform="matrix(.86254 0 0 .86254 62.173 73.8)"/>
    <circle cx="37.462" cy="115.417" r="7.819" style="fill:#4b4b4b" transform="matrix(.86254 0 0 .86254 82.296 73.8)"/>
    <g>
        <path style="fill:#4b4b4b" d="M35.437 82.691h102.046v9.522H35.437z" transform="matrix(1.15589 0 0 .843 50.248 125.138)"/>
        <path style="fill:#4d4d4d" d="M35.437 82.691h102.046v9.522H35.437z" transform="matrix(1.15589 0 0 .843 50.248 125.138)"/>
    </g>
    <g>
        <path d="M208.951 169.32c0-1.287-2.742-2.332-6.12-2.332H162.19c-3.378 0-6.12 1.045-6.12 2.332s2.742 2.332 6.12 2.332h40.641c3.378 0 6.12-1.045 6.12-2.332Z" style="fill:#4b4b4b" transform="matrix(.32125 0 0 .843 145.524 26.626)"/>
        <path d="m172.081 167.227-.128.296-.109.296-.09.299-.07.301-.05.299-.03.301-.01.301.01.301.03.301.05.299.07.301.09.299.109.296.128.295.121.24H162.19l-.158-.001-.157-.002-.156-.004-.155-.005-.153-.007-.153-.008-.151-.01-.15-.011-.149-.012-.147-.014-.146-.015-.144-.016-.143-.018-.142-.019-.139-.02-.138-.022-.137-.022-.134-.024-.133-.026-.131-.026-.129-.027-.128-.029-.125-.03-.123-.031-.121-.032-.119-.033-.117-.034-.114-.035-.112-.036-.11-.037-.108-.039-.105-.039-.102-.04-.1-.041-.098-.041-.095-.043-.092-.044-.09-.044-.086-.046-.084-.046-.081-.047-.079-.047-.075-.049-.072-.049-.069-.05-.066-.051-.063-.051-.06-.052-.056-.053-.053-.053-.05-.054-.047-.054-.043-.055-.039-.056-.036-.056-.033-.057-.028-.057-.025-.057-.022-.058-.017-.059-.014-.059-.01-.059-.006-.06-.002-.06.002-.06.006-.06.01-.06.014-.059.017-.058.022-.058.025-.058.028-.057.033-.057.036-.056.039-.055.043-.056.047-.054.05-.054.053-.053.056-.053.06-.052.063-.051.066-.051.069-.05.072-.049.075-.048.079-.048.081-.047.084-.046.086-.045.09-.045.092-.043.095-.043.098-.042.1-.041.102-.04.105-.039.108-.038.11-.037.112-.037.114-.035.117-.034.119-.033.121-.032.123-.031.125-.03.128-.028.129-.028.131-.026.133-.025.134-.024.137-.023.138-.022.139-.02.142-.019.143-.018.144-.016.146-.015.147-.014.149-.012.15-.011.151-.01.153-.008.153-.006.155-.006.156-.003.157-.003h10.17l-.121.239Zm30.908-.239.157.003.156.003.155.006.153.006.153.008.151.01.15.011.149.012.147.014.146.015.144.016.143.018.142.019.139.02.139.022.136.023.135.024.132.025.131.026.13.028.127.028.125.03.123.031.121.032.119.033.117.034.114.035.112.037.11.037.108.038.105.039.102.04.101.041.097.042.095.043.092.043.09.045.086.045.084.046.081.047.079.048.075.048.072.049.069.05.066.051.063.051.06.052.056.053.054.053.049.054.047.054.043.056.039.055.036.056.033.057.028.057.026.058.021.058.018.058.013.059.01.06.006.06.002.06-.002.06-.006.06-.01.059-.013.059-.018.059-.021.058-.026.057-.028.057-.033.057-.036.056-.039.056-.043.055-.047.054-.049.054-.054.053-.056.053-.06.052-.063.051-.066.051-.069.05-.072.049-.075.049-.079.047-.081.047-.084.046-.086.046-.09.044-.092.044-.095.043-.097.041-.101.041-.102.04-.105.039-.108.039-.11.037-.112.036-.114.035-.117.034-.119.033-.121.032-.123.031-.125.03-.127.029-.13.027-.131.026-.132.026-.135.024-.136.022-.139.022-.139.02-.142.019-.143.018-.144.016-.146.015-.147.014-.149.012-.15.011-.151.01-.153.008-.153.007-.155.005-.156.004-.157.002-.158.001h-10.012l.12-.239.128-.294.111-.3.089-.299.07-.297.05-.301.03-.301.01-.301-.01-.301-.03-.301-.05-.301-.07-.298-.089-.298-.11-.3-.129-.295-.12-.238h10.17Z" style="fill:#4d4d4d" transform="matrix(.32125 0 0 .843 145.524 26.626)"/>
    </g>
    <g>
        <path d="M178.679 120.543v6.552h-67.798v-6.552h67.798Zm0-18.573v6.551h-67.798v-6.551h67.798Zm0-18.574v6.552h-67.798v-6.552h67.798Z" style="fill:#fffefe" transform="matrix(.843 0 0 .843 23.55 20.69)"/>
        <path d="M178.679 127.095h-67.798v-6.552h67.798v6.552Zm0-18.574h-67.798v-6.551h67.798v6.551Zm0-18.573h-67.798v-6.552h67.798v6.552Z" style="fill:#4d4d4d" transform="matrix(.843 0 0 .843 23.55 20.69)"/>
        <g>
            <path d="M93.88 138.674V56.386h111.576v82.288" style="fill:#4b4b4b;fill-opacity:0;stroke:#4d4d4d;stroke-width:14.23px" transform="matrix(.843 0 0 .843 23.83 22.746)"/>
        </g>
    </g>
</svg>
