<svg width="60" height="60" viewBox="0 0 300 300" xmlns="http://www.w3.org/2000/svg" xml:space="preserve" style="fill-rule:evenodd;clip-rule:evenodd;stroke-linejoin:round;stroke-miterlimit:2">
    <circle cx="150" cy="150" r="150" style="fill:#fffefe"/>
    <path d="M150 0c82.787 0 150 67.213 150 150s-67.213 150-150 150S0 232.787 0 150 67.213 0 150 0Zm0 16c73.957 0 134 60.043 134 134s-60.043 134-134 134S16 223.957 16 150 76.043 16 150 16Z" style="fill:#4d4d4d"/>
    <path d="M138.458 152.273v49.996l20.457-20.455-.069 31.366-31.5 31.5-31.434-31.435v-31.476l20.518 20.518v-49.872l22.028-.142Zm56.033-35.843h49.873l.141 22.028h-49.996l20.455 20.457-31.365-.069-31.5-31.5 31.434-31.434h31.476l-20.518 20.518ZM70.967 158.915H39.49l20.519-20.518H10.136l-.142-22.028H59.99L39.536 95.912l31.365.069 31.5 31.5-31.434 31.434Zm45.402-56.481V52.438L95.912 72.893l.069-31.366 31.5-31.499 31.434 31.434v31.476L138.397 52.42v49.872l-22.028.142Z" style="fill:#4d4d4d" transform="scale(.85202) rotate(45 92.866 210.613)"/>
</svg>
