<svg width="60" height="60" viewBox="0 0 300 300" xmlns="http://www.w3.org/2000/svg" xml:space="preserve" style="fill-rule:evenodd;clip-rule:evenodd;stroke-linejoin:round;stroke-miterlimit:2">
    <circle cx="150" cy="150" r="150" style="fill:#fffefe"/>
    <path d="M150 0c82.787 0 150 67.213 150 150s-67.213 150-150 150S0 232.787 0 150 67.213 0 150 0Zm0 16c73.957 0 134 60.043 134 134s-60.043 134-134 134S16 223.957 16 150 76.043 16 150 16Z" style="fill:#4d4d4d"/>
    <path d="M99.802 219.924h-8.385l-.543.003c-22.574 0-40.9-17.525-40.9-39.112 0-19.37 14.755-35.47 34.095-38.572.496-34.396 29.846-62.17 65.925-62.17 36.08 0 65.43 27.774 65.926 62.17 19.339 3.102 34.095 19.202 34.095 38.572 0 21.587-18.327 39.112-40.9 39.112-.283 0-.565-.002-.845-.008v.005h-8.025a6.665 6.665 0 0 1-6.877-6.659 6.665 6.665 0 0 1 6.662-6.661h9.085c14.559 0 26.379-11.304 26.379-25.226 0-12.22-9.106-22.423-21.177-24.735l-.231-.043-.089-.016-.233-.041-.091-.015-.233-.039-.094-.014-.232-.035-.099-.014-.227-.032-.106-.013-.222-.028-.115-.014-.214-.024-.124-.013-.206-.021-.135-.012-.197-.018-.145-.012-.187-.014-.157-.011-.177-.012-.169-.009-.167-.009-.18-.008-.156-.006-.196-.006-.142-.004-.223-.005-.115-.002-.34-.002-.33.002-.11.002-.219.004-.131.004-.198.006-.139.005-.188.008-.144.008-.182.01-.146.009-.18.012-.147.011-.177.014-.148.012-.175.016-.149.015-.173.018-.149.016-.172.02-.148.017-.173.022-.147.02-.173.024-.145.02-.175.027-.142.022-.184.03-.131.022-.306.054-.15.029-.162.03-.159.032-.151.031-.162.034-.147.032-.164.036-.143.033-.165.039-.141.034-.166.041-.138.035-.166.043-.136.036-.167.045-.134.038-.168.047-.132.038-.168.05-.129.039-.169.053-.126.04-.17.054-.123.041-.172.057-.117.04-.176.061-.09.032-.195.07-.153.056-.078.029a47.5 47.5 0 0 0 2.337-14.752c0-27.372-23.237-49.594-51.86-49.594-28.622 0-51.86 22.222-51.86 49.594a47.53 47.53 0 0 0 2.337 14.752l-.078-.029-.152-.056-.196-.07-.089-.032-.176-.061-.117-.04-.172-.057-.123-.041-.17-.054-.127-.04-.169-.053-.129-.039-.168-.05-.132-.038-.167-.047-.134-.038-.167-.045-.136-.036-.167-.043-.138-.035-.166-.041-.141-.034-.165-.039-.143-.033-.164-.036-.146-.032-.163-.034-.151-.031-.159-.032-.162-.03-.149-.029-.306-.054-.131-.022-.185-.03-.142-.022-.175-.027-.145-.02-.173-.024-.147-.02-.172-.022-.148-.017-.173-.02-.148-.016-.174-.018-.149-.015-.175-.016-.148-.012-.177-.014-.147-.011-.179-.012-.146-.009-.183-.01-.144-.008-.188-.008-.139-.005-.198-.006-.13-.004-.22-.004-.109-.002-.33-.002-.34.002-.115.002-.224.005-.141.004-.197.006-.155.006-.181.008-.167.009-.168.009-.178.012-.156.011-.188.014-.145.012-.197.018-.135.012-.206.021-.124.013-.214.024-.115.014-.221.028-.107.013-.227.032-.099.014-.232.035-.093.014-.234.039-.09.015-.234.041-.089.016-.231.043c-12.071 2.312-21.176 12.515-21.176 24.735 0 13.922 11.82 25.226 26.379 25.226h9.143a6.665 6.665 0 0 1 6.662 6.661 6.665 6.665 0 0 1-6.877 6.659Z" style="fill:#4d4d4d" transform="translate(0 -11.816)"/>
    <path d="M138.458 152.273v49.996l20.457-20.455-.069 31.366-31.5 31.5-31.434-31.435v-31.476l20.518 20.518v-49.872l22.028-.142Zm56.033-35.843h49.873l.141 22.028h-49.996l20.455 20.457-31.365-.069-31.5-31.5 31.434-31.434h31.476l-20.518 20.518ZM70.967 158.915H39.49l20.519-20.518H10.136l-.142-22.028H59.99L39.536 95.912l31.365.069 31.5 31.5-31.434 31.434Zm45.402-56.481V52.438L95.912 72.893l.069-31.366 31.5-31.499 31.434 31.434v31.476L138.397 52.42v49.872l-22.028.142Z" style="fill:#4d4d4d" transform="matrix(.46906 0 0 .46906 90.313 102.765)"/>
</svg>
