<svg width="60" height="60" viewBox="0 0 300 300" xmlns="http://www.w3.org/2000/svg" xml:space="preserve" style="fill-rule:evenodd;clip-rule:evenodd;stroke-linejoin:round;stroke-miterlimit:2">
    <circle cx="150" cy="150" r="150" style="fill:#fffefe"/>
    <path d="M150 0c82.787 0 150 67.213 150 150s-67.213 150-150 150S0 232.787 0 150 67.213 0 150 0Zm0 16c73.957 0 134 60.043 134 134s-60.043 134-134 134S16 223.957 16 150 76.043 16 150 16Z" style="fill:#4d4d4d"/>
    <path d="m162.09 193.903 11.348-11.348 35.373 35.373 33.297-33.297-35.374-35.373 11.349-11.348 46.447 46.448-55.992 55.992-46.448-46.447Zm-63.397-3.677c-5.262-9.991-3.694-22.651 4.705-31.05l79.958-79.958c10.328-10.328 27.098-10.328 37.426 0 10.328 10.328 10.328 27.098 0 37.426l-79.958 79.958c-8.314 8.313-20.802 9.935-30.744 4.864l-7.546 7.546a8.003 8.003 0 0 1-11.313 0 8.003 8.003 0 0 1 0-11.313l-.001-.001 7.473-7.472Zm111.582-83.049c4.816-4.816 4.816-12.636 0-17.452-4.816-4.816-12.636-4.816-17.452 0l-79.526 79.526c-4.817 4.816-4.817 12.636 0 17.452 4.816 4.817 12.636 4.817 17.452 0l79.526-79.526Zm-48.185-25.26-11.348 11.349-35.373-35.374-33.297 33.297 35.373 35.373-11.348 11.348L59.65 91.462l55.992-55.992 46.448 46.447Z" style="fill:#4d4d4d" transform="matrix(.8528 0 0 .8528 24.16 19.816)"/>
    <path d="M150 215.976c-36.413 0-65.976-29.563-65.976-65.976v-.048a7.504 7.504 0 0 1 7.5-7.452 7.504 7.504 0 0 1 7.479 8.062c.301 27.704 22.734 50.136 50.435 50.435a7.504 7.504 0 0 1 8.062 7.479 7.504 7.504 0 0 1-7.452 7.5H150Z" style="fill:#4d4d4d" transform="matrix(.8528 0 0 .8528 -6.497 50.844)"/>
</svg>
