<svg width="60" height="60" viewBox="0 0 300 300" xmlns="http://www.w3.org/2000/svg" xml:space="preserve" style="fill-rule:evenodd;clip-rule:evenodd;stroke-linejoin:round;stroke-miterlimit:2">
    <circle cx="150" cy="150" r="150" style="fill:#fffefe"/>
    <path d="M150 0c82.787 0 150 67.213 150 150s-67.213 150-150 150S0 232.787 0 150 67.213 0 150 0Zm0 16c73.957 0 134 60.043 134 134s-60.043 134-134 134S16 223.957 16 150 76.043 16 150 16Z" style="fill:#4d4d4d"/>
    <path d="M190.028 68.703c5.52 0 10.002 4.481 10.002 10.001v142.592c0 5.52-4.482 10.001-10.002 10.001h-80.009c-5.52 0-10.002-4.481-10.002-10.001V78.704c0-5.52 4.482-10.001 10.002-10.001h80.009Zm-32.005 131.252c0-4.416-3.584-8-8-8-4.415 0-8 3.584-8 8 0 4.415 3.585 8 8 8 4.416 0 8-3.585 8-8Zm26.176-85.958h-68.398c-.799 0-1.448.649-1.448 1.448v11.582c0 .799.649 1.448 1.448 1.448h68.398c.799 0 1.448-.649 1.448-1.448v-11.582c0-.799-.649-1.448-1.448-1.448Zm0-28.507h-68.398c-.799 0-1.448.649-1.448 1.448V98.52c0 .799.649 1.448 1.448 1.448h68.398c.799 0 1.448-.649 1.448-1.448V86.938c0-.799-.649-1.448-1.448-1.448Z" style="fill:#4d4d4d" transform="translate(-20.342 -20.339) scale(1.13559)"/>
</svg>
