<svg width="60" height="60" viewBox="0 0 300 300" xmlns="http://www.w3.org/2000/svg" xml:space="preserve" style="fill-rule:evenodd;clip-rule:evenodd;stroke-linejoin:round;stroke-miterlimit:2">
    <circle cx="150" cy="150" r="150" style="fill:#fffefe"/>
    <path d="M150 0c82.787 0 150 67.213 150 150s-67.213 150-150 150S0 232.787 0 150 67.213 0 150 0Zm0 16c73.957 0 134 60.043 134 134s-60.043 134-134 134S16 223.957 16 150 76.043 16 150 16Z" style="fill:#4d4d4d"/>
    <path d="M150 251.643c-.087-.041-30.943-14.543-54.268-56.569C65.581 140.753 67.191 75.178 67.191 75.178c55.761.793 82.752-26.799 82.809-26.858.057.059 27.048 27.651 82.809 26.858 0 0 1.61 65.575-28.541 119.896C180.91 237.159 150 251.643 150 251.643Z" style="fill:#4d4d4d" transform="translate(2.57 7.333) scale(.98286)"/>
    <path d="M150 251.643c-.087-.041-30.943-14.543-54.268-56.569C65.581 140.753 67.191 75.178 67.191 75.178c55.761.793 82.752-26.799 82.809-26.858.057.059 27.048 27.651 82.809 26.858 0 0 1.61 65.575-28.541 119.896C180.91 237.159 150 251.643 150 251.643Z" style="fill:#4d4d4d;fill-opacity:0" transform="matrix(.83864 0 0 .83271 24.204 29.216)"/>
    <path d="M150 251.643c-.087-.041-30.943-14.543-54.268-56.569C65.581 140.753 67.191 75.178 67.191 75.178c55.761.793 82.752-26.799 82.809-26.858.057.059 27.048 27.651 82.809 26.858 0 0 1.61 65.575-28.541 119.896C180.91 237.159 150 251.643 150 251.643Zm0-188.601c-11.384 8.249-34.931 21.381-71.265 23.316.937 20.136 5.5 64.622 26.885 103.15 15.902 28.651 35.495 43.407 44.38 49.032 8.881-5.623 28.476-20.377 44.38-49.032 21.385-38.528 25.948-83.014 26.885-103.15-36.331-1.934-59.88-15.065-71.265-23.316Z" style="fill:#fff" transform="matrix(.83864 0 0 .83271 24.204 29.216)"/>
</svg>
