<svg width="60" height="60" viewBox="0 0 300 300" xmlns="http://www.w3.org/2000/svg" xml:space="preserve" style="fill-rule:evenodd;clip-rule:evenodd;stroke-linejoin:round;stroke-miterlimit:2">
    <circle cx="150" cy="150" r="150" style="fill:#fffefe"/>
    <path d="M150 0c82.787 0 150 67.213 150 150s-67.213 150-150 150S0 232.787 0 150 67.213 0 150 0Zm0 16c73.957 0 134 60.043 134 134s-60.043 134-134 134S16 223.957 16 150 76.043 16 150 16Z" style="fill:#4d4d4d"/>
    <path d="M109 132.106c0-3.922-2.423-7.106-5.407-7.106H57.407c-2.984 0-5.407 3.184-5.407 7.106v123.788c0 3.922 2.423 7.106 5.407 7.106h46.186c2.984 0 5.407-3.184 5.407-7.106V132.106Z" style="fill:#4d4d4d" transform="matrix(.74949 0 0 .57026 29.777 78.717)"/>
    <path d="M109 129.783c0-2.64-2.423-4.783-5.407-4.783H57.407c-2.984 0-5.407 2.143-5.407 4.783v128.434c0 2.64 2.423 4.783 5.407 4.783h46.186c2.984 0 5.407-2.143 5.407-4.783V129.783Z" style="fill:#4d4d4d" transform="matrix(.74949 0 0 .84724 90.041 5.87)"/>
    <path d="M109 128.553c0-1.961-2.423-3.553-5.407-3.553H57.407c-2.984 0-5.407 1.592-5.407 3.553v130.894c0 1.961 2.423 3.553 5.407 3.553h46.186c2.984 0 5.407-1.592 5.407-3.553V128.553Z" style="fill:#4d4d4d" transform="matrix(.74949 0 0 1.14053 149.556 -71.262)"/>
</svg>
