<svg width="60" height="60" viewBox="0 0 300 300" xmlns="http://www.w3.org/2000/svg" xml:space="preserve" style="fill-rule:evenodd;clip-rule:evenodd;stroke-linejoin:round;stroke-miterlimit:2">
    <circle cx="150" cy="150" r="150" style="fill:#fffefe"/>
    <path d="M150 0c82.787 0 150 67.213 150 150s-67.213 150-150 150S0 232.787 0 150 67.213 0 150 0Zm0 16c73.957 0 134 60.043 134 134s-60.043 134-134 134S16 223.957 16 150 76.043 16 150 16Z" style="fill:#4d4d4d"/>
    <path d="M142.23 100.647V62.571l-14.43 14.43V54.695l22.2-22.2 22.2 22.2v22.354L157.801 62.65v38.002a49.701 49.701 0 0 1 21.594 8.964l26.933-26.932h-20.407l15.772-15.772h31.395v31.395l-15.806 15.806V93.75l-26.88 26.88a49.704 49.704 0 0 1 8.951 21.6h38.076l-14.43-14.43h22.306l22.2 22.2-22.2 22.2h-22.354l14.399-14.399h-38.002a49.701 49.701 0 0 1-8.964 21.594l26.932 26.933v-20.407l15.772 15.772v31.395h-31.395l-15.806-15.806h20.363l-26.88-26.88a49.704 49.704 0 0 1-21.6 8.951v38.076l14.43-14.43v22.306l-22.2 22.2-22.2-22.2v-22.354l14.399 14.399v-38.002a49.701 49.701 0 0 1-21.594-8.964l-26.933 26.932h20.407l-15.772 15.772H66.912v-31.395l15.806-15.806v20.363l26.88-26.88a49.704 49.704 0 0 1-8.951-21.6H62.571l14.43 14.43H54.695l-22.2-22.2 22.2-22.2h22.354L62.65 142.199h38.002a49.701 49.701 0 0 1 8.964-21.594L82.684 93.672v20.407L66.912 98.307V66.912h31.395l15.806 15.806H93.75l26.88 26.88a49.704 49.704 0 0 1 21.6-8.951Zm7.77 20.142c16.122 0 29.211 13.089 29.211 29.211S166.122 179.211 150 179.211 120.789 166.122 120.789 150s13.089-29.211 29.211-29.211Z" style="fill:#4d4d4d" transform="matrix(.9814 0 0 .9814 2.789 2.789)"/>
</svg>
