<svg width="60" height="60" viewBox="0 0 300 300" xmlns="http://www.w3.org/2000/svg" xml:space="preserve" style="fill-rule:evenodd;clip-rule:evenodd;stroke-linejoin:round;stroke-miterlimit:2">
    <circle cx="150" cy="150" r="150" style="fill:#fffefe"/>
    <path d="M150 0c82.787 0 150 67.213 150 150s-67.213 150-150 150S0 232.787 0 150 67.213 0 150 0Zm0 16c73.957 0 134 60.043 134 134s-60.043 134-134 134S16 223.957 16 150 76.043 16 150 16Z" style="fill:#4d4d4d"/>
    <path d="M144.963 120.378H125.99a6.064 6.064 0 0 1-6.062-6.061V66.439a6.064 6.064 0 0 1 6.062-6.061h47.877a6.063 6.063 0 0 1 6.061 6.061v47.878a6.063 6.063 0 0 1-6.061 6.061h-18.83v13.88h67.109a2.52 2.52 0 0 1 2.518 2.518v23.538h19.351c3.311 0 6 2.689 6 6v48c0 3.311-2.689 6-6 6h-48c-3.312 0-6-2.688-6-6v-48c0-3.311 2.688-6 6-6h18.575v-15.982h-59.553v15.982H174c3.312 0 6 2.689 6 6v48c0 3.311-2.688 6-6 6h-48c-3.311 0-6-2.688-6-6v-48c0-3.311 2.688-6 6-6h18.963v-15.982H85.41v15.982h18.57c3.311 0 6 2.689 6 6v48c0 3.311-2.689 6-6 6h-48c-3.312 0-6-2.688-6-6v-48c0-3.311 2.688-6 6-6h19.356v-23.538a2.519 2.519 0 0 1 2.518-2.518h67.109v-13.88ZM168 170.314h-36a2 2 0 0 0-2 2v36a2 2 0 0 0 2 2h36a2 2 0 0 0 2-2v-36a2 2 0 0 0-2-2Zm70.015 0h-36a2 2 0 0 0-2 2v36a2 2 0 0 0 2 2h36c1.103 0 2-.896 2-2v-36a2 2 0 0 0-2-2Zm-140.035 0h-36a2 2 0 0 0-2 2v36a2 2 0 0 0 2 2h36c1.103 0 2-.896 2-2v-36a2 2 0 0 0-2-2Zm69.948-99.936h-36c-1.104.001-2 .897-2 2v36c0 1.104.897 2 2 2h36a2 2 0 0 0 2-2v-36a2.001 2.001 0 0 0-2-2Z" style="fill:#4d4d4d" transform="translate(.003 -5.712)"/>
</svg>
