<svg width="60" height="60" viewBox="0 0 300 300" xmlns="http://www.w3.org/2000/svg" xml:space="preserve" style="fill-rule:evenodd;clip-rule:evenodd;stroke-linejoin:round;stroke-miterlimit:2">
    <circle cx="150" cy="150" r="150" style="fill:#fffefe"/>
    <path d="M150 0c82.787 0 150 67.213 150 150s-67.213 150-150 150S0 232.787 0 150 67.213 0 150 0Zm0 16c73.957 0 134 60.043 134 134s-60.043 134-134 134S16 223.957 16 150 76.043 16 150 16Z" style="fill:#e31c00"/>
    <path d="M69.997 234.964V121.73h.433L110 99.968l.069 21.762h.288l39.57-21.762.069 21.762h35.153l7.386-66.036h14.989l7.386 66.036h15.087v113.234h8.334v15H61.769v-15h8.228Z" style="fill:#e31c00" transform="matrix(.88612 0 0 .88612 17.038 5.97)"/>
    <path d="M120.07 185.379h-20v20h20v-20Zm39.98 0h-20v20h20v-20Zm39.98 0h-20v20h20v-20ZM120.07 150h-20v20h20v-20Zm39.98 0h-20v20h20v-20Zm39.98 0h-20v20h20v-20Z" style="fill:#fff" transform="matrix(.88612 0 0 .88612 17.038 5.97)"/>
</svg>
