<svg width="60" height="60" viewBox="0 0 300 300" xmlns="http://www.w3.org/2000/svg" xml:space="preserve" style="fill-rule:evenodd;clip-rule:evenodd;stroke-linejoin:round;stroke-miterlimit:2">
    <circle cx="150" cy="150" r="150" style="fill:#fffefe"/>
    <path d="M150 0c82.787 0 150 67.213 150 150s-67.213 150-150 150S0 232.787 0 150 67.213 0 150 0Zm0 16c73.957 0 134 60.043 134 134s-60.043 134-134 134S16 223.957 16 150 76.043 16 150 16Z" style="fill:#e31c00"/>
    <path d="M207.746 91.788c0-1.09-.886-1.975-1.976-1.975h-15.004c-1.09 0-1.975.885-1.975 1.975v98.684c0 1.09.885 1.975 1.975 1.975h15.004c1.09 0 1.976-.885 1.976-1.975V91.788Zm-28.279 49.333c-.087 4.786-85.49 54.209-88.778 51.194-3.146-2.885-3.467-99.108 0-102.388 2.952-2.792 88.867 46.313 88.778 51.194Z" style="fill:#e31c00" transform="translate(-46.14 -37.065) scale(1.32548)"/>
</svg>
