<svg width="60" height="60" viewBox="0 0 300 300" xmlns="http://www.w3.org/2000/svg" xml:space="preserve" style="fill-rule:evenodd;clip-rule:evenodd;stroke-linejoin:round;stroke-miterlimit:2">
    <circle cx="150" cy="150" r="150" style="fill:#fffefe"/>
    <path d="M150 0c82.787 0 150 67.213 150 150s-67.213 150-150 150S0 232.787 0 150 67.213 0 150 0Zm0 16c73.957 0 134 60.043 134 134s-60.043 134-134 134S16 223.957 16 150 76.043 16 150 16Z" style="fill:#e31c00"/>
    <path d="m140 94.918-20.724 44.168A36.36 36.36 0 0 1 86.36 160H50.749c-5.519 0-10-4.481-10-10s4.481-10 10-10H86.36a16.359 16.359 0 0 0 14.81-9.41l35.117-74.843A12.447 12.447 0 0 1 160 61.034v109.043l13.583-18.018A30.294 30.294 0 0 1 197.775 140h53.009c5.519 0 10 4.481 10 10s-4.481 10-10 10h-53.009a10.3 10.3 0 0 0-8.222 4.098l-27.169 36.042A12.447 12.447 0 0 1 140 192.648v-97.73Z" style="fill:#e31c00" transform="matrix(.90908 0 0 .90908 12.941 34.692)"/>
</svg>
