<svg width="60" height="60" viewBox="0 0 300 300" xmlns="http://www.w3.org/2000/svg" xml:space="preserve" style="fill-rule:evenodd;clip-rule:evenodd;stroke-linejoin:round;stroke-miterlimit:2">
    <circle cx="150" cy="150" r="150" style="fill:#fffefe"/>
    <path d="M150 0c82.787 0 150 67.213 150 150s-67.213 150-150 150S0 232.787 0 150 67.213 0 150 0Zm0 16c73.957 0 134 60.043 134 134s-60.043 134-134 134S16 223.957 16 150 76.043 16 150 16Z" style="fill:#e31c00"/>
    <path d="M122.981 208.691c-.709-.211-1.327-.441-1.827-.691-4.3-2.15-8.019-7.193-8-12 .105-26.438-7.525-37.446-19.502-56.75A66.224 66.224 0 0 1 85 106.5C85 70.35 113.936 41 149.577 41s64.577 29.35 64.577 65.5a66.224 66.224 0 0 1-8.652 32.75C193.525 158.554 185.894 169.562 186 196c.019 4.807-3.7 9.85-8 12-.541.27-1.219.517-2 .741v39.882a3.378 3.378 0 0 1-3.377 3.377h-.065l-10.813 15h-24.51l-10.813-15h-.064a3.378 3.378 0 0 1-3.377-3.377v-39.932Z" style="fill:#e31c00" transform="translate(44.737 54.58) scale(.70175)"/>
    <path d="M83.659 109.101c1.819.883 1.96 21.248 0 22.101-2.326 1.013-32.082-8.967-32.082-11.05 0-1.969 29.981-12.071 32.082-11.051Z" style="fill:#e31c00" transform="matrix(.98431 0 0 .98431 -.48 11.048)"/>
    <path d="M83.659 109.101c1.819.883 1.96 21.248 0 22.101-2.326 1.013-32.082-8.967-32.082-11.05 0-1.969 29.981-12.071 32.082-11.051Z" style="fill:#e31c00" transform="scale(.98431) rotate(-30 170.701 126.675)"/>
    <path d="M83.659 109.101c1.819.883 1.96 21.248 0 22.101-2.326 1.013-32.082-8.967-32.082-11.05 0-1.969 29.981-12.071 32.082-11.051Z" style="fill:#e31c00" transform="scale(.98431) rotate(30 128.81 124.853)"/>
    <path d="M83.659 109.101c1.819.883 1.96 21.248 0 22.101-2.326 1.013-32.082-8.967-32.082-11.05 0-1.969 29.981-12.071 32.082-11.051Z" style="fill:#e31c00" transform="matrix(-.98431 0 0 .98431 300.48 11.048)"/>
    <path d="M83.659 109.101c1.819.883 1.96 21.248 0 22.101-2.326 1.013-32.082-8.967-32.082-11.05 0-1.969 29.981-12.071 32.082-11.051Z" style="fill:#e31c00" transform="scale(-.98431 .98431) rotate(-30 18.31 695.404)"/>
    <path d="M83.659 109.101c1.819.883 1.96 21.248 0 22.101-2.326 1.013-32.082-8.967-32.082-11.05 0-1.969 29.981-12.071 32.082-11.051Z" style="fill:#e31c00" transform="scale(-.98431 .98431) rotate(30 -23.58 -443.876)"/>
</svg>
