<svg width="60" height="60" viewBox="0 0 300 300" xmlns="http://www.w3.org/2000/svg" xml:space="preserve" style="fill-rule:evenodd;clip-rule:evenodd;stroke-linejoin:round;stroke-miterlimit:2">
    <circle cx="150" cy="150" r="150" style="fill:#fffefe"/>
    <path d="M150 0c82.787 0 150 67.213 150 150s-67.213 150-150 150S0 232.787 0 150 67.213 0 150 0Zm0 16c73.957 0 134 60.043 134 134s-60.043 134-134 134S16 223.957 16 150 76.043 16 150 16Z" style="fill:#e31c00"/>
    <path d="M81 109c1.238-10.255 15.5-24.833 23-24 7.5.833 22.614 23.435 22 31-.759 9.347-8.346 10.813-14 13-1.847.715-5.008 2.721-1 13 5.466 14.021 23.239 33.9 31 36 11.696 3.165 7.77-.436 13-6 4.526-4.816 8.054-6.503 12-5 7 2.667 25.667 21.5 25 29-.667 7.5-18.443 19.229-29 16-14.167-4.333-42.333-24.833-56-42-13.667-17.167-27.721-46.746-26-61Z" style="fill:#e31c00" transform="translate(-12.553 19.85)"/>
    <path d="M227 149.876C226.931 107.434 192.455 73 150 73h-.042a6.504 6.504 0 0 1-6.458-6.5c0-3.587 2.913-6.5 6.5-6.5 49.672 0 90 40.328 90 90 0 3.587-2.913 6.5-6.5 6.5a6.504 6.504 0 0 1-6.5-6.5v-.124Z" style="fill:#e31c00" transform="translate(-8.303 7.6)"/>
    <path d="M150.207 86c35.23.115 63.793 28.748 63.793 64 0 3.587-2.913 6.5-6.5 6.5a6.504 6.504 0 0 1-6.5-6.5c0-28.091-22.761-50.909-50.835-51H150a6.504 6.504 0 0 1-6.5-6.5c0-3.587 2.913-6.5 6.5-6.5h.207Z" style="fill:#e31c00" transform="translate(-8.303 7.6)"/>
    <path d="M149.958 125a6.504 6.504 0 0 1-6.458-6.5c0-3.587 2.913-6.5 6.5-6.5 20.973 0 38 17.027 38 38 0 3.587-2.913 6.5-6.5 6.5a6.504 6.504 0 0 1-6.5-6.5c0-13.798-11.202-25-25-25h-.042Z" style="fill:#e31c00" transform="translate(-8.303 7.6)"/>
</svg>
