<svg width="60" height="60" viewBox="0 0 300 300" xmlns="http://www.w3.org/2000/svg" xml:space="preserve" style="fill-rule:evenodd;clip-rule:evenodd;stroke-linejoin:round;stroke-miterlimit:2">
    <circle cx="150" cy="150" r="150" style="fill:#fffefe"/>
    <path d="M150 0c82.787 0 150 67.213 150 150s-67.213 150-150 150S0 232.787 0 150 67.213 0 150 0Zm0 16c73.957 0 134 60.043 134 134s-60.043 134-134 134S16 223.957 16 150 76.043 16 150 16Z" style="fill:#e31c00"/>
    <path d="M74.348 182.188c-22.569-16.426-37.251-43.047-37.251-73.071 0-49.847 40.47-90.316 90.317-90.316 49.846 0 90.316 40.469 90.316 90.316 0 29.933-14.594 56.485-37.048 72.922.156.531.24 1.093.24 1.675v41.61a5.946 5.946 0 0 1-5.943 5.943h-11.886a5.946 5.946 0 0 1-5.944-5.943v-30.908a89.77 89.77 0 0 1-3.895 1.26v29.648a5.946 5.946 0 0 1-5.943 5.943h-11.886a5.946 5.946 0 0 1-5.943-5.943V199.41a88.93 88.93 0 0 1-3.913.005v25.909a5.946 5.946 0 0 1-5.944 5.943h-11.886a5.946 5.946 0 0 1-5.943-5.943v-29.582a88.63 88.63 0 0 1-3.873-1.241v30.823a5.946 5.946 0 0 1-5.944 5.943H80.093a5.946 5.946 0 0 1-5.943-5.943v-41.61c0-.528.069-1.039.198-1.526Z" style="fill:#e31c00" transform="translate(22.586 24.966)"/>
    <path d="M65.717 98.232c8.653-.138 51.752 29.726 51.752 36.504-.001 6.779-33.824 18.284-52.545 4.385-13.65-10.134-10.186-40.715.793-40.889Z" style="fill:#fff" transform="translate(22.586 24.966)"/>
    <path d="M65.717 98.232c8.653-.138 51.752 29.726 51.752 36.504-.001 6.779-33.824 18.284-52.545 4.385-13.65-10.134-10.186-40.715.793-40.889Z" style="fill:#fff" transform="matrix(-1 0 0 1 277.413 24.966)"/>
    <path d="M134.468 155.392s-9.945 17.602-9.945 25.146c0 5.489 4.456 9.945 9.945 9.945s9.945-4.456 9.945-9.945c0-7.544-9.945-25.146-9.945-25.146Z" style="fill:#fff" transform="translate(15.532 22.367)"/>
</svg>
