<svg width="60" height="60" viewBox="0 0 300 300" xmlns="http://www.w3.org/2000/svg" xml:space="preserve" style="fill-rule:evenodd;clip-rule:evenodd;stroke-linejoin:round;stroke-miterlimit:2">
    <path d="M300 30.271C300 13.564 286.436 0 269.729 0H30.271C13.564 0 0 13.564 0 30.271v239.458C0 286.436 13.564 300 30.271 300h239.458C286.436 300 300 286.436 300 269.729V30.271Z" style="fill:#fffefe"/>
    <path d="M300 30.271C300 13.564 286.436 0 269.729 0H30.271C13.564 0 0 13.564 0 30.271v239.458C0 286.436 13.564 300 30.271 300h239.458C286.436 300 300 286.436 300 269.729V30.271Zm-16 0v239.458c0 7.877-6.394 14.271-14.271 14.271H30.271C22.394 284 16 277.606 16 269.729V30.271C16 22.394 22.394 16 30.271 16h239.458C277.606 16 284 22.394 284 30.271Z" style="fill:#109e00"/>
    <path d="M178.937 160.122v30.292c0 5.266-4.275 9.541-9.541 9.541H74.938c-5.265 0-9.54-4.275-9.54-9.541v-80.905c0-5.266 4.275-9.541 9.54-9.541h94.458c5.266 0 9.541 4.275 9.541 9.541V139.8l56.631-39.832v99.987l-56.631-39.833Zm-14.446-44.219H79.844v68.194h84.647v-68.194Zm28.149 34.058 26.655-18.748v37.496l-26.655-18.748Z" style="fill:#109e00"/>
</svg>
