<svg width="60" height="60" viewBox="0 0 300 300" xmlns="http://www.w3.org/2000/svg" xml:space="preserve" style="fill-rule:evenodd;clip-rule:evenodd;stroke-linejoin:round;stroke-miterlimit:2">
    <path d="M300 30.271C300 13.564 286.436 0 269.729 0H30.271C13.564 0 0 13.564 0 30.271v239.458C0 286.436 13.564 300 30.271 300h239.458C286.436 300 300 286.436 300 269.729V30.271Z" style="fill:#fffefe"/>
    <path d="M300 30.271C300 13.564 286.436 0 269.729 0H30.271C13.564 0 0 13.564 0 30.271v239.458C0 286.436 13.564 300 30.271 300h239.458C286.436 300 300 286.436 300 269.729V30.271Zm-16 0v239.458c0 7.877-6.394 14.271-14.271 14.271H30.271C22.394 284 16 277.606 16 269.729V30.271C16 22.394 22.394 16 30.271 16h239.458C277.606 16 284 22.394 284 30.271Z" style="fill:#109e00"/>
    <path d="M216.943 234.5a7.246 7.246 0 0 0-7.243-7.243H90.3a7.246 7.246 0 0 0-7.243 7.243 7.247 7.247 0 0 0 7.243 7.243h119.4a7.247 7.247 0 0 0 7.243-7.243Zm33.072-162.59c0-8.46-6.869-15.329-15.329-15.329H65.308c-8.46 0-15.328 6.869-15.328 15.329v113.343c0 8.46 6.868 15.328 15.328 15.328h169.378c8.46 0 15.329-6.868 15.329-15.328V71.91Zm-14.411-.508h-170v114h170v-114Z" style="fill:#109e00"/>
</svg>
