<svg width="60" height="60" viewBox="0 0 300 300" xmlns="http://www.w3.org/2000/svg" xml:space="preserve" style="fill-rule:evenodd;clip-rule:evenodd;stroke-linejoin:round;stroke-miterlimit:2">
    <path d="M300 30.271C300 13.564 286.436 0 269.729 0H30.271C13.564 0 0 13.564 0 30.271v239.458C0 286.436 13.564 300 30.271 300h239.458C286.436 300 300 286.436 300 269.729V30.271Z" style="fill:#fffefe"/>
    <path d="M300 30.271C300 13.564 286.436 0 269.729 0H30.271C13.564 0 0 13.564 0 30.271v239.458C0 286.436 13.564 300 30.271 300h239.458C286.436 300 300 286.436 300 269.729V30.271Zm-16 0v239.458c0 7.877-6.394 14.271-14.271 14.271H30.271C22.394 284 16 277.606 16 269.729V30.271C16 22.394 22.394 16 30.271 16h239.458C277.606 16 284 22.394 284 30.271Z" style="fill:#109e00"/>
    <path d="M182.537 71.431a85 85 0 0 1 19.228 11.13l-10.827 26.822 14.706 25.472 28.662 4.038c.475 3.635.721 7.343.721 11.107 0 3.764-.246 7.472-.721 11.107l-28.662 4.038-14.706 25.472 10.827 26.822a85 85 0 0 1-19.228 11.13l-17.831-22.807h-29.412l-17.831 22.807a85 85 0 0 1-19.228-11.13l10.827-26.822-14.706-25.472-28.662-4.038A85.697 85.697 0 0 1 64.973 150c0-3.764.246-7.472.721-11.107l28.662-4.038 14.706-25.472-10.827-26.822a85 85 0 0 1 19.228-11.13l17.831 22.807h29.412l17.831-22.807Zm41.377 120.599c-.149.262-.3.523-.452.782l.452-.782Zm-147.828 0 .452.782a66.35 66.35 0 0 1-.452-.782ZM150 118.87c17.181 0 31.13 13.949 31.13 31.13 0 17.181-13.949 31.13-31.13 31.13-17.181 0-31.13-13.949-31.13-31.13 0-17.181 13.949-31.13 31.13-31.13Zm73.462-11.682c.152.259.303.52.452.782l-.452-.782Zm-146.924 0-.452.782c.149-.262.3-.523.452-.782ZM150 64.973Z" style="fill:#109e00" transform="translate(-39.233 -38.389) scale(1.26155)"/>
</svg>
