<svg width="60" height="60" viewBox="0 0 300 300" xmlns="http://www.w3.org/2000/svg" xml:space="preserve" style="fill-rule:evenodd;clip-rule:evenodd;stroke-linejoin:round;stroke-miterlimit:2">
    <path d="M300 30.271C300 13.564 286.436 0 269.729 0H30.271C13.564 0 0 13.564 0 30.271v239.458C0 286.436 13.564 300 30.271 300h239.458C286.436 300 300 286.436 300 269.729V30.271Z" style="fill:#fffefe"/>
    <path d="M300 30.271C300 13.564 286.436 0 269.729 0H30.271C13.564 0 0 13.564 0 30.271v239.458C0 286.436 13.564 300 30.271 300h239.458C286.436 300 300 286.436 300 269.729V30.271Zm-16 0v239.458c0 7.877-6.394 14.271-14.271 14.271H30.271C22.394 284 16 277.606 16 269.729V30.271C16 22.394 22.394 16 30.271 16h239.458C277.606 16 284 22.394 284 30.271Z" style="fill:#109e00"/>
    <path d="M109.7 179.509A49.71 49.71 0 0 1 100.045 150c0-1.07.034-2.131.1-3.184V80.445L81.233 99.357V70.066l29.096-29.096 29.096 29.096v29.207l-18.934-18.934V109.7A49.71 49.71 0 0 1 150 100.045c1.07 0 2.131.034 3.184.1h66.371l-18.912-18.912h29.291l29.096 29.096-29.096 29.096h-29.207l18.934-18.934H190.3A49.714 49.714 0 0 1 199.955 150c0 1.07-.034 2.131-.1 3.184v66.371l18.912-18.912v29.291l-29.096 29.096-29.096-29.096v-29.207l18.934 18.934V190.3A49.71 49.71 0 0 1 150 199.955c-1.07 0-2.131-.034-3.184-.1H80.445l18.912 18.912H70.066L40.97 189.671l29.096-29.096h29.207l-18.934 18.934H109.7Zm40.004-58.805c16.005 0 29 12.994 29 29 0 16.005-12.995 29-29 29-16.006 0-29-12.995-29-29 0-16.006 12.994-29 29-29Z" style="fill:#109e00"/>
</svg>
