<svg width="60" height="60" viewBox="0 0 300 300" xmlns="http://www.w3.org/2000/svg" xml:space="preserve" style="fill-rule:evenodd;clip-rule:evenodd;stroke-linejoin:round;stroke-miterlimit:2">
    <path d="M300 30.271C300 13.564 286.436 0 269.729 0H30.271C13.564 0 0 13.564 0 30.271v239.458C0 286.436 13.564 300 30.271 300h239.458C286.436 300 300 286.436 300 269.729V30.271Z" style="fill:#fffefe"/>
    <path d="M300 30.271C300 13.564 286.436 0 269.729 0H30.271C13.564 0 0 13.564 0 30.271v239.458C0 286.436 13.564 300 30.271 300h239.458C286.436 300 300 286.436 300 269.729V30.271Zm-16 0v239.458c0 7.877-6.394 14.271-14.271 14.271H30.271C22.394 284 16 277.606 16 269.729V30.271C16 22.394 22.394 16 30.271 16h239.458C277.606 16 284 22.394 284 30.271Z" style="fill:#109e00"/>
    <path d="m169.165 166.199-29.706 33.737H87.731c-4.415 0-8 3.585-8 8 0 4.416 3.585 8 8 8h55.437a7.994 7.994 0 0 0 6.648-3.551l29.263-33.234h45.534c4.415 0 8-3.584 8-8 0-4.415-3.585-8-8-8h-49.167a7.987 7.987 0 0 0-6.281 3.048Zm0-32.483-29.706-33.738H87.731c-4.415 0-8-3.584-8-8 0-4.415 3.585-7.999 8-8h55.437a7.998 7.998 0 0 1 6.648 3.552l29.263 33.233h45.534c4.415 0 8 3.585 8 8 0 4.416-3.585 8-8 8h-49.167a7.986 7.986 0 0 1-6.281-3.047Z" style="fill:#109e00" transform="translate(-48.676 -42.555) scale(1.28407)"/>
</svg>
