<svg width="60" height="60" viewBox="0 0 300 300" xmlns="http://www.w3.org/2000/svg" xml:space="preserve" style="fill-rule:evenodd;clip-rule:evenodd;stroke-linejoin:round;stroke-miterlimit:2">
    <path d="M300 30.271C300 13.564 286.436 0 269.729 0H30.271C13.564 0 0 13.564 0 30.271v239.458C0 286.436 13.564 300 30.271 300h239.458C286.436 300 300 286.436 300 269.729V30.271Z" style="fill:#fffefe"/>
    <path d="M300 30.271C300 13.564 286.436 0 269.729 0H30.271C13.564 0 0 13.564 0 30.271v239.458C0 286.436 13.564 300 30.271 300h239.458C286.436 300 300 286.436 300 269.729V30.271Zm-16 0v239.458c0 7.877-6.394 14.271-14.271 14.271H30.271C22.394 284 16 277.606 16 269.729V30.271C16 22.394 22.394 16 30.271 16h239.458C277.606 16 284 22.394 284 30.271Z" style="fill:#109e00"/>
    <path d="m241.101 124.485-.021-.076a8.053 8.053 0 0 1 5.569-9.929 8.053 8.053 0 0 1 9.964 5.695h.001A110.59 110.59 0 0 1 260.686 150c0 61.089-49.597 110.686-110.686 110.686-19.04 0-36.963-4.817-52.616-13.299l-.107-.057a8.052 8.052 0 0 1-3.242-10.912 8.052 8.052 0 0 1 10.912-3.242l.035.019v-.001c13.39 7.267 28.726 11.395 45.018 11.395 52.205 0 94.589-42.384 94.589-94.589a94.507 94.507 0 0 0-3.488-25.515ZM67.116 223.329C49.819 203.797 39.314 178.116 39.314 150c0-30.642 12.478-58.392 32.626-78.442a8.05 8.05 0 0 1 11.502-.076 8.05 8.05 0 0 1-.049 11.378l-.032.031.003.004C66.104 100.034 55.411 123.778 55.411 150c0 24.002 8.96 45.928 23.713 62.613l.053.059c2.943 3.326 2.631 8.416-.696 11.359a8.05 8.05 0 0 1-11.359-.696l-.006-.006Zm117.734-6.893.002.005c-10.416 5.48-22.275 8.581-34.852 8.581-41.406 0-75.022-33.616-75.022-75.022 0-41.406 33.616-75.022 75.022-75.022 6.321 0 12.461.783 18.327 2.258v.001l.003.001a8.035 8.035 0 0 1 5.826 9.75 8.035 8.035 0 0 1-9.75 5.826l-.058-.015-.001.003A58.955 58.955 0 0 0 150 91.041c-32.541 0-58.959 26.418-58.959 58.959 0 32.541 26.418 58.959 58.959 58.959 9.787 0 19.021-2.39 27.148-6.617l.17-.092c3.927-2.053 8.784-.532 10.837 3.396a8.035 8.035 0 0 1-3.305 10.79Zm5.774-109.15a8.034 8.034 0 0 1-.247-11.324 8.033 8.033 0 0 1 11.353-.277l.002.001c14.345 13.669 23.29 32.955 23.29 54.314 0 14.97-4.394 28.921-11.961 40.634a8.036 8.036 0 0 1-11.099 2.398 8.033 8.033 0 0 1-2.401-11.1l.051-.078-.001-.001c5.915-9.188 9.348-20.123 9.348-31.853 0-16.801-7.043-31.971-18.335-42.714ZM109.3 151.841l-.006-.115c-.193-4.55 3.344-8.401 7.894-8.593a8.254 8.254 0 0 1 8.599 8.084h.003c.635 12.814 11.24 23.023 24.21 23.023a24.121 24.121 0 0 0 14.206-4.602v.001c3.694-2.599 8.807-1.741 11.447 1.935a8.253 8.253 0 0 1-1.887 11.513v.001A40.548 40.548 0 0 1 150 190.743c-21.869 0-39.737-17.268-40.702-38.902h.002Zm12.815-31.532-.001-.002c7.291-6.851 17.102-11.05 27.886-11.05 22.486 0 40.743 18.257 40.743 40.743 0 1.19-.052 2.369-.152 3.533a8.255 8.255 0 0 1-8.936 7.503c-4.537-.394-7.9-4.398-7.506-8.936l.012-.122h-.001c.053-.652.08-1.312.08-1.978 0-13.379-10.861-24.24-24.24-24.24a24.156 24.156 0 0 0-16.638 6.618l-.001-.001c-3.318 3.084-8.516 2.913-11.623-.391a8.253 8.253 0 0 1 .358-11.66l.019-.017Zm104.681-25.514C209.616 70.948 181.608 55.411 150 55.411c-14.128 0-27.537 3.105-39.582 8.668a8.053 8.053 0 0 1-10.653-3.959 8.053 8.053 0 0 1 3.947-10.677c14.086-6.502 29.767-10.129 46.288-10.129 37.007 0 69.797 18.201 89.898 46.132h-.001.001a8.052 8.052 0 0 1-1.841 11.232 8.051 8.051 0 0 1-11.231-1.841l-.03-.042Z" style="fill:#109e00"/>
</svg>
