<svg width="60" height="60" viewBox="0 0 300 300" xmlns="http://www.w3.org/2000/svg" xml:space="preserve" style="fill-rule:evenodd;clip-rule:evenodd;stroke-linejoin:round;stroke-miterlimit:2">
    <path d="M300 30.271C300 13.564 286.436 0 269.729 0H30.271C13.564 0 0 13.564 0 30.271v239.458C0 286.436 13.564 300 30.271 300h239.458C286.436 300 300 286.436 300 269.729V30.271Z" style="fill:#fffefe"/>
    <path d="M300 30.271C300 13.564 286.436 0 269.729 0H30.271C13.564 0 0 13.564 0 30.271v239.458C0 286.436 13.564 300 30.271 300h239.458C286.436 300 300 286.436 300 269.729V30.271Zm-16 0v239.458c0 7.877-6.394 14.271-14.271 14.271H30.271C22.394 284 16 277.606 16 269.729V30.271C16 22.394 22.394 16 30.271 16h239.458C277.606 16 284 22.394 284 30.271Z" style="fill:#109e00"/>
    <path d="M94.046 180.962v43.983H49.98v-43.983h44.066Zm155.969 43.983h-44.014v-43.983h44.014v43.983Zm-55.957 0h-88.07v-43.983h88.07v43.983Zm-50.029-94.016v38.09H49.98v-38.09h94.049Zm105.986 38.09h-94.044v-38.09h94.044v38.09ZM94.046 118.987H49.98V75.055h44.066v43.932Zm100.012-43.932v43.932h-88.07V75.055h88.07Zm55.957 43.932h-44.014V75.055h44.014v43.932Z" style="fill:#109e00"/>
</svg>
