<svg width="60" height="60" viewBox="0 0 300 300" xmlns="http://www.w3.org/2000/svg" xml:space="preserve" style="fill-rule:evenodd;clip-rule:evenodd;stroke-linejoin:round;stroke-miterlimit:2">
    <path d="M300 30.271C300 13.564 286.436 0 269.729 0H30.271C13.564 0 0 13.564 0 30.271v239.458C0 286.436 13.564 300 30.271 300h239.458C286.436 300 300 286.436 300 269.729V30.271Z" style="fill:#fffefe"/>
    <path d="M300 30.271C300 13.564 286.436 0 269.729 0H30.271C13.564 0 0 13.564 0 30.271v239.458C0 286.436 13.564 300 30.271 300h239.458C286.436 300 300 286.436 300 269.729V30.271Zm-16 0v239.458c0 7.877-6.394 14.271-14.271 14.271H30.271C22.394 284 16 277.606 16 269.729V30.271C16 22.394 22.394 16 30.271 16h239.458C277.606 16 284 22.394 284 30.271Z" style="fill:#109e00"/>
    <path d="M225.468 45.022c2.318-11.406 12.413-20 24.498-20 13.798 0 25 11.202 25 25 0 12.086-8.594 22.18-20 24.499v50.98c11.406 2.319 20 12.413 20 24.499 0 12.086-8.594 22.18-20 24.499v50.98c11.406 2.319 20 12.413 20 24.499 0 13.798-11.202 25-25 25-12.085 0-22.18-8.594-24.498-20h-50.969c-2.319 11.406-12.413 20-24.499 20-12.086 0-22.18-8.594-24.499-20H74.532c-2.318 11.406-12.413 20-24.498 20-13.798 0-25-11.202-25-25 0-12.086 8.594-22.18 20-24.499v-50.98c-11.406-2.319-20-12.413-20-24.499 0-12.086 8.594-22.18 20-24.499v-50.98c-11.406-2.319-20-12.413-20-24.499 0-13.798 11.202-25 25-25 12.085 0 22.18 8.594 24.498 20h50.969c2.319-11.406 12.413-20 24.499-20 12.086 0 22.18 8.594 24.499 20h50.969Zm0 109.978h-50.969c-1.99 9.79-9.709 17.509-19.499 19.499v50.98c9.79 1.991 17.509 9.709 19.499 19.499h50.969c1.99-9.79 9.709-17.508 19.498-19.499v-50.98c-9.789-1.99-17.508-9.709-19.498-19.499Zm-99.967 0H74.532c-1.99 9.79-9.709 17.509-19.498 19.499v50.98c9.789 1.991 17.508 9.709 19.498 19.499h50.969c1.99-9.79 9.709-17.508 19.499-19.499v-50.98c-9.79-1.99-17.509-9.709-19.499-19.499Zm99.967-99.978h-50.969c-1.99 9.79-9.709 17.508-19.499 19.499v50.98c9.79 1.99 17.509 9.709 19.499 19.499h50.969c1.99-9.79 9.709-17.509 19.498-19.499v-50.98c-9.789-1.991-17.508-9.709-19.498-19.499Zm-99.967 0H74.532c-1.99 9.79-9.709 17.508-19.498 19.499v50.98c9.789 1.99 17.508 9.709 19.498 19.499h50.969c1.99-9.79 9.709-17.509 19.499-19.499v-50.98c-9.79-1.991-17.509-9.709-19.499-19.499Z" style="fill:#109e00" transform="rotate(45 74.06 181.326) scale(.70446)"/>
</svg>
