<svg width="60" height="60" viewBox="0 0 300 300" xmlns="http://www.w3.org/2000/svg" xml:space="preserve" style="fill-rule:evenodd;clip-rule:evenodd;stroke-linejoin:round;stroke-miterlimit:2">
    <path d="M300 30.271C300 13.564 286.436 0 269.729 0H30.271C13.564 0 0 13.564 0 30.271v239.458C0 286.436 13.564 300 30.271 300h239.458C286.436 300 300 286.436 300 269.729V30.271Z" style="fill:#fffefe"/>
    <path d="M300 30.271C300 13.564 286.436 0 269.729 0H30.271C13.564 0 0 13.564 0 30.271v239.458C0 286.436 13.564 300 30.271 300h239.458C286.436 300 300 286.436 300 269.729V30.271Zm-16 0v239.458c0 7.877-6.394 14.271-14.271 14.271H30.271C22.394 284 16 277.606 16 269.729V30.271C16 22.394 22.394 16 30.271 16h239.458C277.606 16 284 22.394 284 30.271Z" style="fill:#109e00"/>
    <path d="M196.31 213.09c-13.327 8.682-29.234 13.729-46.31 13.729-46.913 0-85-38.088-85-85 0-46.913 38.087-85 85-85s85 38.087 85 85c0 24.441-10.338 46.487-26.878 62l19.672 27.5a7.504 7.504 0 0 1-1.736 10.463 7.504 7.504 0 0 1-10.464-1.736L196.31 213.09ZM150 71.819c38.634 0 70 31.365 70 70 0 38.634-31.366 70-70 70s-70-31.366-70-70c0-38.635 31.366-70 70-70Zm39.505 31.644h-79.01v79.01h79.01v-79.01Zm-14.164 13.78h-51.449v51.449h51.449v-51.449Z" style="fill:#109e00" transform="translate(-10.918 -10.918) scale(1.07278)"/>
</svg>
