<svg width="60" height="60" viewBox="0 0 300 300" xmlns="http://www.w3.org/2000/svg" xml:space="preserve" style="fill-rule:evenodd;clip-rule:evenodd;stroke-linecap:round;stroke-linejoin:round;stroke-miterlimit:1.5">
    <path d="M300 30.271C300 13.564 286.436 0 269.729 0H30.271C13.564 0 0 13.564 0 30.271v239.458C0 286.436 13.564 300 30.271 300h239.458C286.436 300 300 286.436 300 269.729V30.271Z" style="fill:#fffefe"/>
    <path d="M300 30.271C300 13.564 286.436 0 269.729 0H30.271C13.564 0 0 13.564 0 30.271v239.458C0 286.436 13.564 300 30.271 300h239.458C286.436 300 300 286.436 300 269.729V30.271Zm-16 0v239.458c0 7.877-6.394 14.271-14.271 14.271H30.271C22.394 284 16 277.606 16 269.729V30.271C16 22.394 22.394 16 30.271 16h239.458C277.606 16 284 22.394 284 30.271Z" style="fill:#109e00"/>
    <path d="M240.5 53.349c0-7.367-5.982-13.349-13.349-13.349H82.849C75.482 40 69.5 45.982 69.5 53.349v173.302c0 7.367 5.982 13.349 13.349 13.349h144.302c7.367 0 13.349-5.982 13.349-13.349V53.349Zm-20 149.151a2.5 2.5 0 0 0-2.5-2.5h-15a2.5 2.5 0 0 0-2.5 2.5v5a2.5 2.5 0 0 0 2.5 2.5h15a2.5 2.5 0 0 0 2.5-2.5v-5Zm-80 0a2.5 2.5 0 0 0-2.5-2.5h-15a2.5 2.5 0 0 0-2.5 2.5v5a2.5 2.5 0 0 0 2.5 2.5h15a2.5 2.5 0 0 0 2.5-2.5v-5Zm40 0a2.5 2.5 0 0 0-2.5-2.5h-15a2.5 2.5 0 0 0-2.5 2.5v5a2.5 2.5 0 0 0 2.5 2.5h15a2.5 2.5 0 0 0 2.5-2.5v-5Zm40-20a2.5 2.5 0 0 0-2.5-2.5h-15a2.5 2.5 0 0 0-2.5 2.5v5a2.5 2.5 0 0 0 2.5 2.5h15a2.5 2.5 0 0 0 2.5-2.5v-5Zm-80 0a2.5 2.5 0 0 0-2.5-2.5h-15a2.5 2.5 0 0 0-2.5 2.5v5a2.5 2.5 0 0 0 2.5 2.5h15a2.5 2.5 0 0 0 2.5-2.5v-5Zm40 0a2.5 2.5 0 0 0-2.5-2.5h-15a2.5 2.5 0 0 0-2.5 2.5v5a2.5 2.5 0 0 0 2.5 2.5h15a2.5 2.5 0 0 0 2.5-2.5v-5Zm40-20a2.5 2.5 0 0 0-2.5-2.5h-15a2.5 2.5 0 0 0-2.5 2.5v5a2.5 2.5 0 0 0 2.5 2.5h15a2.5 2.5 0 0 0 2.5-2.5v-5Zm-80 0a2.5 2.5 0 0 0-2.5-2.5h-15a2.5 2.5 0 0 0-2.5 2.5v5a2.5 2.5 0 0 0 2.5 2.5h15a2.5 2.5 0 0 0 2.5-2.5v-5Zm40 0a2.5 2.5 0 0 0-2.5-2.5h-15a2.5 2.5 0 0 0-2.5 2.5v5a2.5 2.5 0 0 0 2.5 2.5h15a2.5 2.5 0 0 0 2.5-2.5v-5Zm40-102.5h-100v80h100V60Z" style="fill:#109e00;stroke:#000;stroke-width:.23px" transform="matrix(.90594 0 0 .90416 18.412 13.898)"/>
    <path d="M59.5 40.005C74.171 40.271 86 52.265 86 67c0 2.535-.35 4.988-1.005 7.316C83.059 88.83 79 121.47 79 140c0 18.53 4.059 51.17 5.995 65.684A26.971 26.971 0 0 1 86 213c0 14.735-11.829 26.729-26.5 26.995V240l-.25-.001L59 240v-.005c-14.671-.266-26.5-12.26-26.5-26.995 0-2.535.35-4.988 1.005-7.316C35.441 191.17 39.5 158.53 39.5 140c0-18.53-4.059-51.17-5.995-65.684A26.971 26.971 0 0 1 32.5 67c0-14.735 11.829-26.729 26.5-26.995V40l.25.001.25-.001v.005Z" style="fill:#109e00;stroke:#fff;stroke-width:2.53px" transform="matrix(.90594 0 0 .90416 34.266 13.898)"/>
    <path d="M292.083 135.483v17.458c0 11.912-9.671 21.583-21.583 21.583-11.912 0-21.583-9.671-21.583-21.583v-17.458h4.166v17.458c0 9.612 7.804 17.416 17.417 17.416 9.613 0 17.417-7.804 17.417-17.416v-17.458h4.166Z" style="fill:#109e00" transform="matrix(.90594 0 0 .90416 -140.526 105.51)"/>
</svg>
