<svg width="60" height="60" viewBox="0 0 300 300" xmlns="http://www.w3.org/2000/svg" xml:space="preserve" style="fill-rule:evenodd;clip-rule:evenodd;stroke-linejoin:round;stroke-miterlimit:2">
    <path d="M300 30.271C300 13.564 286.436 0 269.729 0H30.271C13.564 0 0 13.564 0 30.271v239.458C0 286.436 13.564 300 30.271 300h239.458C286.436 300 300 286.436 300 269.729V30.271Z" style="fill:#fffefe"/>
    <path d="M300 30.271C300 13.564 286.436 0 269.729 0H30.271C13.564 0 0 13.564 0 30.271v239.458C0 286.436 13.564 300 30.271 300h239.458C286.436 300 300 286.436 300 269.729V30.271Zm-16 0v239.458c0 7.877-6.394 14.271-14.271 14.271H30.271C22.394 284 16 277.606 16 269.729V30.271C16 22.394 22.394 16 30.271 16h239.458C277.606 16 284 22.394 284 30.271Z" style="fill:#109e00"/>
    <path d="M62.539 139.838h43.071v20.346H62.645l18.912 18.912h-29.29L23.171 150l29.096-29.096h29.206l-18.934 18.934Zm185.194 39.258h-29.29l18.912-18.912H194.39v-20.346h43.071l-18.934-18.934h29.206L276.829 150l-29.096 29.096Zm-71.099-18.912h-17.756V139.84h8.922v-.002h8.834v20.346ZM132.2 139.838v.002h8.922v20.344h-17.756v-20.346h8.834Z" style="fill:#109e00" transform="rotate(-45 150 150)"/>
</svg>
