<svg width="60" height="60" viewBox="0 0 300 300" xmlns="http://www.w3.org/2000/svg" xml:space="preserve" style="fill-rule:evenodd;clip-rule:evenodd;stroke-linejoin:round;stroke-miterlimit:2">
    <path d="M300 30.271C300 13.564 286.436 0 269.729 0H30.271C13.564 0 0 13.564 0 30.271v239.458C0 286.436 13.564 300 30.271 300h239.458C286.436 300 300 286.436 300 269.729V30.271Z" style="fill:#fffefe"/>
    <path d="M300 30.271C300 13.564 286.436 0 269.729 0H30.271C13.564 0 0 13.564 0 30.271v239.458C0 286.436 13.564 300 30.271 300h239.458C286.436 300 300 286.436 300 269.729V30.271Zm-16 0v239.458c0 7.877-6.394 14.271-14.271 14.271H30.271C22.394 284 16 277.606 16 269.729V30.271C16 22.394 22.394 16 30.271 16h239.458C277.606 16 284 22.394 284 30.271Z" style="fill:#109e00"/>
    <g>
        <path d="M75.614 208.233c-6.105 0-9.71-3.426-11.785-7.595-1.792-3.599-2.333-7.773-2.479-10.127l-.001-.023a4.765 4.765 0 0 1 4.758-4.989h71.213a5.72 5.72 0 0 1 5.704 5.302h13.955a5.718 5.718 0 0 1 5.704-5.302h71.211a4.762 4.762 0 0 1 3.448 1.475 4.787 4.787 0 0 1 1.308 3.56c-.144 2.331-.685 6.505-2.477 10.104-2.075 4.169-5.68 7.595-11.785 7.595H75.614Zm82.124-10.932h-15.473a5.721 5.721 0 0 1-5.707-5.302H68.019c.223 1.704.679 3.834 1.628 5.742 1.063 2.135 2.841 3.992 5.967 3.992h148.774c3.126 0 4.904-1.857 5.967-3.992.953-1.914 1.408-4.051 1.629-5.742h-68.539a5.723 5.723 0 0 1-5.707 5.302Zm64.449-99.284a6.254 6.254 0 0 0-6.25-6.25h-127.5a6.254 6.254 0 0 0-6.25 6.25v77.5c0 3.45 2.801 6.25 6.25 6.25h127.5c3.449 0 6.25-2.8 6.25-6.25v-77.5Zm-7.5 1.25h-125v75h125v-75Zm-88.882 22.149-24.814 24.814a1.75 1.75 0 0 0 2.475 2.475l24.814-24.814a1.75 1.75 0 0 0-2.475-2.475Zm-18.66 6.349-6.154 6.155a1.75 1.75 0 0 0 2.475 2.475l6.154-6.155a1.75 1.75 0 0 0-2.475-2.475Zm18.683-18.464-13.948 13.948a1.75 1.75 0 0 0 2.475 2.475l13.948-13.948a1.75 1.75 0 0 0-2.475-2.475Zm12.875-.565-6.626 6.626a1.75 1.75 0 0 0 2.475 2.475l6.626-6.627a1.75 1.75 0 1 0-2.475-2.474Z" style="fill:#109e00" transform="translate(-19.218 -19.218) scale(1.12812)"/>
        <path d="M75.614 208.233c-6.105 0-9.71-3.426-11.785-7.595-1.792-3.599-2.333-7.773-2.479-10.127l-.001-.023a4.765 4.765 0 0 1 4.758-4.989h71.213a5.72 5.72 0 0 1 5.704 5.302h13.955a5.718 5.718 0 0 1 5.704-5.302h71.211a4.762 4.762 0 0 1 3.448 1.475 4.787 4.787 0 0 1 1.308 3.56c-.144 2.331-.685 6.505-2.477 10.104-2.075 4.169-5.68 7.595-11.785 7.595H75.614Zm82.124-10.932h-15.473a5.721 5.721 0 0 1-5.707-5.302H68.019c.223 1.704.679 3.834 1.628 5.742 1.063 2.135 2.841 3.992 5.967 3.992h148.774c3.126 0 4.904-1.857 5.967-3.992.953-1.914 1.408-4.051 1.629-5.742h-68.539a5.723 5.723 0 0 1-5.707 5.302Zm64.449-99.284a6.254 6.254 0 0 0-6.25-6.25h-127.5a6.254 6.254 0 0 0-6.25 6.25v77.5c0 3.45 2.801 6.25 6.25 6.25h127.5c3.449 0 6.25-2.8 6.25-6.25v-77.5Zm-7.5 1.25h-125v75h125v-75Zm-88.882 22.149-24.814 24.814a1.75 1.75 0 0 0 2.475 2.475l24.814-24.814a1.75 1.75 0 0 0-2.475-2.475Zm-18.66 6.349-6.154 6.155a1.75 1.75 0 0 0 2.475 2.475l6.154-6.155a1.75 1.75 0 0 0-2.475-2.475Zm18.683-18.464-13.948 13.948a1.75 1.75 0 0 0 2.475 2.475l13.948-13.948a1.75 1.75 0 0 0-2.475-2.475Zm12.875-.565-6.626 6.626a1.75 1.75 0 0 0 2.475 2.475l6.626-6.627a1.75 1.75 0 1 0-2.475-2.474Z" style="fill:#109e00" transform="translate(-19.218 -19.218) scale(1.12812)"/>
    </g>
</svg>
