<svg width="60" height="60" viewBox="0 0 300 300" xmlns="http://www.w3.org/2000/svg" xml:space="preserve" style="fill-rule:evenodd;clip-rule:evenodd;stroke-linejoin:round;stroke-miterlimit:2">
    <path d="M300 30.271C300 13.564 286.436 0 269.729 0H30.271C13.564 0 0 13.564 0 30.271v239.458C0 286.436 13.564 300 30.271 300h239.458C286.436 300 300 286.436 300 269.729V30.271Z" style="fill:#fffefe"/>
    <path d="M300 30.271C300 13.564 286.436 0 269.729 0H30.271C13.564 0 0 13.564 0 30.271v239.458C0 286.436 13.564 300 30.271 300h239.458C286.436 300 300 286.436 300 269.729V30.271Zm-16 0v239.458c0 7.877-6.394 14.271-14.271 14.271H30.271C22.394 284 16 277.606 16 269.729V30.271C16 22.394 22.394 16 30.271 16h239.458C277.606 16 284 22.394 284 30.271Z" style="fill:#109e00"/>
    <path d="M144 108.687c-8.111-2.551-14-10.134-14-19.082 0-11.039 8.962-20 20-20s20 8.961 20 20c0 8.948-5.889 16.531-14 19.082v22.23c8.111 2.551 14 10.135 14 19.083a19.9 19.9 0 0 1-2.266 9.249l22.997 22.997a19.904 19.904 0 0 1 9.299-2.291c11.038 0 20 8.962 20 20s-8.962 20-20 20c-11.039 0-20-8.962-20-20 0-3.317.808-6.445 2.24-9.2l-23.021-23.021A19.9 19.9 0 0 1 150 170a19.9 19.9 0 0 1-9.249-2.266l-22.99 22.99a19.9 19.9 0 0 1 2.256 9.231c0 11.038-8.961 20-20 20-11.038 0-20-8.962-20-20s8.962-20 20-20a19.9 19.9 0 0 1 9.268 2.275l22.981-22.981A19.9 19.9 0 0 1 130 150c0-8.948 5.889-16.532 14-19.083v-22.23Z" style="fill:#109e00" transform="translate(-38.857 -37.558) scale(1.25885)"/>
</svg>
