<svg width="60" height="60" viewBox="0 0 300 300" xmlns="http://www.w3.org/2000/svg" xml:space="preserve" style="fill-rule:evenodd;clip-rule:evenodd;stroke-linejoin:round;stroke-miterlimit:2">
    <path d="M300 30.271C300 13.564 286.436 0 269.729 0H30.271C13.564 0 0 13.564 0 30.271v239.458C0 286.436 13.564 300 30.271 300h239.458C286.436 300 300 286.436 300 269.729V30.271Z" style="fill:#fffefe"/>
    <path d="M300 30.271C300 13.564 286.436 0 269.729 0H30.271C13.564 0 0 13.564 0 30.271v239.458C0 286.436 13.564 300 30.271 300h239.458C286.436 300 300 286.436 300 269.729V30.271Zm-16 0v239.458c0 7.877-6.394 14.271-14.271 14.271H30.271C22.394 284 16 277.606 16 269.729V30.271C16 22.394 22.394 16 30.271 16h239.458C277.606 16 284 22.394 284 30.271Z" style="fill:#109e00"/>
    <path d="m140.78 150.964 9.808-9.809-5.767-5.768c-5.566-5.565-5.566-14.602 0-20.167l51.842-51.842c5.565-5.565 14.602-5.565 20.167 0l20.167 20.167c5.566 5.566 5.566 14.602 0 20.167l-51.842 51.843c-5.565 5.565-14.602 5.565-20.167 0l-5.768-5.768-9.808 9.808 5.767 5.768c5.566 5.566 5.566 14.602 0 20.167l-51.842 51.843c-5.565 5.565-14.602 5.565-20.167 0l-20.167-20.168c-5.566-5.565-5.566-14.602 0-20.167l51.842-51.842c5.565-5.565 14.602-5.565 20.167 0l5.768 5.768Zm-12.16 12.16a5.237 5.237 0 0 0-6.733.564l-40.311 40.311a5.235 5.235 0 0 0 0 7.4l7.4 7.4a5.235 5.235 0 0 0 7.4 0l40.311-40.311a5.237 5.237 0 0 0 .565-6.733l-3.44 3.44a4.267 4.267 0 0 1-6.031 0l-2.601-2.601a4.267 4.267 0 0 1 0-6.031l3.44-3.439Zm42.841-25.578a5.236 5.236 0 0 0 6.733-.565l40.311-40.311a5.235 5.235 0 0 0 0-7.4l-7.4-7.4a5.235 5.235 0 0 0-7.4 0l-40.311 40.311a5.238 5.238 0 0 0-.565 6.733l3.424-3.424a4.267 4.267 0 0 1 6.031 0l2.601 2.601a4.267 4.267 0 0 1 0 6.031l-3.424 3.424Z" style="fill:#109e00"/>
</svg>
