<svg width="60" height="60" viewBox="0 0 300 300" xmlns="http://www.w3.org/2000/svg" xml:space="preserve" style="fill-rule:evenodd;clip-rule:evenodd;stroke-linejoin:round;stroke-miterlimit:2">
    <path d="M300 30.271C300 13.564 286.436 0 269.729 0H30.271C13.564 0 0 13.564 0 30.271v239.458C0 286.436 13.564 300 30.271 300h239.458C286.436 300 300 286.436 300 269.729V30.271Z" style="fill:#fffefe"/>
    <path d="M300 30.271C300 13.564 286.436 0 269.729 0H30.271C13.564 0 0 13.564 0 30.271v239.458C0 286.436 13.564 300 30.271 300h239.458C286.436 300 300 286.436 300 269.729V30.271Zm-16 0v239.458c0 7.877-6.394 14.271-14.271 14.271H30.271C22.394 284 16 277.606 16 269.729V30.271C16 22.394 22.394 16 30.271 16h239.458C277.606 16 284 22.394 284 30.271Z" style="fill:#109e00"/>
    <path d="M187.606 237.115H67.221c-6.834 0-12.382-5.548-12.382-12.381V29.431c0-6.833 5.548-12.381 12.382-12.381h120.385c6.834 0 12.382 5.548 12.382 12.381v195.303c0 6.833-5.547 12.381-12.382 12.381Zm-16.073-44.889H83.294c-7.024 0-12.727 5.703-12.727 12.727 0 7.025 5.703 12.728 12.727 12.728h88.239c7.024 0 12.727-5.703 12.727-12.728 0-7.024-5.702-12.727-12.727-12.727ZM84.24 198.95a6.006 6.006 0 0 1 6.003 6.003 6.006 6.006 0 0 1-6.003 6.004 6.006 6.006 0 0 1-6.003-6.004 6.006 6.006 0 0 1 6.003-6.003Zm87.293-45.544H83.294c-7.025 0-12.727 5.703-12.727 12.727 0 7.025 5.703 12.728 12.727 12.728h88.239c7.024 0 12.727-5.703 12.727-12.728 0-7.024-5.702-12.727-12.727-12.727ZM84.24 160.13a6.006 6.006 0 0 1 6.003 6.003 6.006 6.006 0 0 1-6.003 6.004 6.006 6.006 0 0 1-6.003-6.004 6.006 6.006 0 0 1 6.003-6.003Zm87.293-45.444H83.294c-7.025 0-12.727 5.703-12.727 12.728 0 7.024 5.703 12.727 12.727 12.727h88.239c7.024 0 12.727-5.703 12.727-12.727 0-7.025-5.702-12.728-12.727-12.728ZM84.24 121.41a6.006 6.006 0 0 1 6.003 6.004 6.006 6.006 0 0 1-6.003 6.003 6.006 6.006 0 0 1-6.003-6.003 6.006 6.006 0 0 1 6.003-6.004Zm87.293-45.56H83.294c-7.025.001-12.727 5.703-12.727 12.728 0 7.024 5.703 12.727 12.727 12.727h88.239c7.024 0 12.727-5.703 12.727-12.727 0-7.025-5.702-12.727-12.727-12.728ZM84.24 82.574a6.006 6.006 0 0 1 6.003 6.004 6.006 6.006 0 0 1-6.003 6.003 6.006 6.006 0 0 1-6.003-6.003 6.006 6.006 0 0 1 6.003-6.004Zm87.293-45.209H83.294c-7.025 0-12.727 5.703-12.727 12.727 0 7.025 5.703 12.728 12.727 12.728h88.239c7.024 0 12.727-5.703 12.727-12.728 0-7.024-5.702-12.727-12.727-12.727ZM84.24 44.089a6.006 6.006 0 0 1 6.003 6.003 6.006 6.006 0 0 1-6.003 6.003 6.006 6.006 0 0 1-6.003-6.003 6.006 6.006 0 0 1 6.003-6.003Z" style="fill:#109e00" transform="matrix(.90849 0 0 .90849 34.246 34.547)"/>
</svg>
