<svg width="60" height="60" viewBox="0 0 300 300" xmlns="http://www.w3.org/2000/svg" xml:space="preserve" style="fill-rule:evenodd;clip-rule:evenodd;stroke-linejoin:round;stroke-miterlimit:2">
    <path d="M300 30.271C300 13.564 286.436 0 269.729 0H30.271C13.564 0 0 13.564 0 30.271v239.458C0 286.436 13.564 300 30.271 300h239.458C286.436 300 300 286.436 300 269.729V30.271Z" style="fill:#fffefe"/>
    <path d="M300 30.271C300 13.564 286.436 0 269.729 0H30.271C13.564 0 0 13.564 0 30.271v239.458C0 286.436 13.564 300 30.271 300h239.458C286.436 300 300 286.436 300 269.729V30.271Zm-16 0v239.458c0 7.877-6.394 14.271-14.271 14.271H30.271C22.394 284 16 277.606 16 269.729V30.271C16 22.394 22.394 16 30.271 16h239.458C277.606 16 284 22.394 284 30.271Z" style="fill:#109e00"/>
    <path d="M72.756 101.516a59.946 59.946 0 0 1-5.145-24.376c0-33.126 26.797-60.02 59.803-60.02s59.802 26.894 59.802 60.02a59.946 59.946 0 0 1-5.145 24.376h.023l-54.68 145.048-54.681-145.048h.023Zm54.658-66.387c23.102 0 41.858 18.825 41.858 42.011 0 23.186-18.756 42.011-41.858 42.011-23.103 0-41.859-18.825-41.859-42.011 0-23.186 18.756-42.011 41.859-42.011Z" style="fill:#109e00" transform="matrix(.87135 0 0 .87135 38.977 35.119)"/>
</svg>
