<svg width="60" height="60" viewBox="0 0 300 300" xmlns="http://www.w3.org/2000/svg" xml:space="preserve" style="fill-rule:evenodd;clip-rule:evenodd;stroke-linejoin:round;stroke-miterlimit:2">
    <path d="M300 30.271C300 13.564 286.436 0 269.729 0H30.271C13.564 0 0 13.564 0 30.271v239.458C0 286.436 13.564 300 30.271 300h239.458C286.436 300 300 286.436 300 269.729V30.271Z" style="fill:#fffefe"/>
    <path d="M300 30.271C300 13.564 286.436 0 269.729 0H30.271C13.564 0 0 13.564 0 30.271v239.458C0 286.436 13.564 300 30.271 300h239.458C286.436 300 300 286.436 300 269.729V30.271Zm-16 0v239.458c0 7.877-6.394 14.271-14.271 14.271H30.271C22.394 284 16 277.606 16 269.729V30.271C16 22.394 22.394 16 30.271 16h239.458C277.606 16 284 22.394 284 30.271Z" style="fill:#109e00"/>
    <path d="M200.03 178.304h-35.72v8.007h-28.573v-8.007h-19.705V162.29h19.658v8.007h28.62v-8.007h19.705v-48.601h16.015v64.615Zm-83.998 0h-16.015v-64.615h16.015v64.615Zm39.279-48.947v-16.014h-10.622v16.014h10.622Zm-19.621 0v-16.014h-10.623v16.014h10.623Zm39.209 0v-16.014h-10.622v16.014h10.622Z" style="fill:#109e00" transform="translate(-149.96 -149.764) scale(1.99958)"/>
</svg>
