<svg width="60" height="60" viewBox="0 0 300 300" xmlns="http://www.w3.org/2000/svg" xml:space="preserve" style="fill-rule:evenodd;clip-rule:evenodd;stroke-linejoin:round;stroke-miterlimit:2">
    <path d="M300 30.271C300 13.564 286.436 0 269.729 0H30.271C13.564 0 0 13.564 0 30.271v239.458C0 286.436 13.564 300 30.271 300h239.458C286.436 300 300 286.436 300 269.729V30.271Z" style="fill:#fffefe"/>
    <path d="M300 30.271C300 13.564 286.436 0 269.729 0H30.271C13.564 0 0 13.564 0 30.271v239.458C0 286.436 13.564 300 30.271 300h239.458C286.436 300 300 286.436 300 269.729V30.271Zm-16 0v239.458c0 7.877-6.394 14.271-14.271 14.271H30.271C22.394 284 16 277.606 16 269.729V30.271C16 22.394 22.394 16 30.271 16h239.458C277.606 16 284 22.394 284 30.271Z" style="fill:#109e00"/>
    <path d="M210.025 221.534H91.906c-21.734-.004-39.378-17.65-39.378-39.385 0-19.275 13.877-35.335 32.177-38.725.182-35.883 29.37-64.958 65.295-64.958s65.113 29.075 65.295 64.958c18.3 3.39 32.177 19.45 32.177 38.725 0 21.087-16.609 38.326-37.447 39.338v.047Zm-2.802-15.929c.287.01.575.015.865.015 12.954 0 23.471-10.517 23.471-23.471 0-11.115-7.742-20.435-18.124-22.858l-.006.026a23.432 23.432 0 0 0-2.707-.492 23.394 23.394 0 0 0-2.634-.147 23.35 23.35 0 0 0-11.126 2.803 49.868 49.868 0 0 0 3.068-17.274c0-16.41-7.917-30.984-20.137-40.11A49.443 49.443 0 0 0 150 94.088a49.443 49.443 0 0 0-29.893 10.009c-12.22 9.126-20.137 23.7-20.137 40.11 0 6.07 1.084 11.889 3.068 17.274a23.35 23.35 0 0 0-11.126-2.803c-.825 0-1.64.042-2.444.126-.985.113-1.952.287-2.896.517l-.007-.03c-10.382 2.423-18.124 11.743-18.124 22.858 0 12.954 10.517 23.471 23.471 23.471.29 0 .578-.005.865-.015.248.024.499.037.753.037h29.987l-.018.024h53.002l-.018-.024h29.987c.254 0 .505-.013.753-.037Z" style="fill:#109e00" transform="matrix(.84503 0 0 .8454 23.245 69.798)"/>
    <path d="M138.458 152.273v49.996l20.457-20.455-.069 31.366-31.5 31.5-31.434-31.435v-31.476l20.518 20.518v-49.872l22.028-.142Zm56.033-35.843h49.873l.141 22.028h-49.996l20.455 20.457-31.365-.069-31.5-31.5 31.434-31.434h31.476l-20.518 20.518ZM70.967 158.915H39.49l20.519-20.518H10.136l-.142-22.028H59.99L39.536 95.912l31.365.069 31.5 31.5-31.434 31.434Zm45.402-56.481V52.438L95.912 72.893l.069-31.366 31.5-31.499 31.434 31.434v31.476L138.397 52.42v49.872l-22.028.142Z" style="fill:#109e00;stroke:#fff;stroke-width:4.95px" transform="rotate(45 110.047 170.448) scale(.79283 .82243)"/>
</svg>
