<svg width="60" height="60" viewBox="0 0 300 300" xmlns="http://www.w3.org/2000/svg" xml:space="preserve" style="fill-rule:evenodd;clip-rule:evenodd;stroke-linejoin:round;stroke-miterlimit:2">
    <path d="M300 30.271C300 13.564 286.436 0 269.729 0H30.271C13.564 0 0 13.564 0 30.271v239.458C0 286.436 13.564 300 30.271 300h239.458C286.436 300 300 286.436 300 269.729V30.271Z" style="fill:#fffefe"/>
    <path d="M300 30.271C300 13.564 286.436 0 269.729 0H30.271C13.564 0 0 13.564 0 30.271v239.458C0 286.436 13.564 300 30.271 300h239.458C286.436 300 300 286.436 300 269.729V30.271Zm-16 0v239.458c0 7.877-6.394 14.271-14.271 14.271H30.271C22.394 284 16 277.606 16 269.729V30.271C16 22.394 22.394 16 30.271 16h239.458C277.606 16 284 22.394 284 30.271Z" style="fill:#109e00"/>
    <path d="M111.053 249.964c-33.565 0-60.815-27.251-60.815-60.816v-.045a6.917 6.917 0 0 1 6.913-6.869 6.916 6.916 0 0 1 6.894 7.432c.277 25.537 20.956 46.214 46.49 46.49a6.917 6.917 0 0 1 7.432 6.894 6.917 6.917 0 0 1-6.869 6.913l-.045.001Zm44.281-53.886 10.461-10.461 32.606 32.607 30.692-30.692-32.606-32.607 10.461-10.46 42.814 42.814-51.613 51.614-42.815-42.815Zm-58.438-3.39c-4.851-9.209-3.405-20.878 4.337-28.621l73.704-73.704c9.52-9.52 24.978-9.52 34.498 0 9.521 9.521 9.521 24.979 0 34.499l-73.703 73.704c-7.664 7.663-19.175 9.158-28.339 4.483l-6.957 6.956a7.377 7.377 0 0 1-10.428 0 7.377 7.377 0 0 1 0-10.428l6.888-6.889Zm102.855-76.553c4.439-4.439 4.439-11.648 0-16.087-4.44-4.439-11.648-4.439-16.087 0l-73.307 73.306c-4.439 4.44-4.439 11.648 0 16.088 4.44 4.439 11.648 4.439 16.087 0l73.307-73.307Zm-44.417-23.284-10.46 10.461-32.607-32.607-30.692 30.692 32.607 32.607-10.461 10.461-42.815-42.815 51.614-51.614 42.814 42.815Z" style="fill:#109e00" transform="translate(.252 .028)"/>
</svg>
