<svg width="60" height="60" viewBox="0 0 300 300" xmlns="http://www.w3.org/2000/svg" xml:space="preserve" style="fill-rule:evenodd;clip-rule:evenodd;stroke-linejoin:round;stroke-miterlimit:2">
    <path d="M300 30.271C300 13.564 286.436 0 269.729 0H30.271C13.564 0 0 13.564 0 30.271v239.458C0 286.436 13.564 300 30.271 300h239.458C286.436 300 300 286.436 300 269.729V30.271Z" style="fill:#fffefe"/>
    <path d="M300 30.271C300 13.564 286.436 0 269.729 0H30.271C13.564 0 0 13.564 0 30.271v239.458C0 286.436 13.564 300 30.271 300h239.458C286.436 300 300 286.436 300 269.729V30.271Zm-16 0v239.458c0 7.877-6.394 14.271-14.271 14.271H30.271C22.394 284 16 277.606 16 269.729V30.271C16 22.394 22.394 16 30.271 16h239.458C277.606 16 284 22.394 284 30.271Z" style="fill:#109e00"/>
    <path d="m99.139 200.867-.127-.127c-27.339-27.338-27.339-71.662 0-99l46.668 46.668 12.72-12.72a7.503 7.503 0 0 1 7.315-9.158c4.14 0 7.5 3.36 7.5 7.5a7.503 7.503 0 0 1-9.159 7.315l-12.719 12.72 46.675 46.675c-14.136 14.136-32.813 20.962-51.335 20.48l10.583 29.52h-76l17.879-49.873ZM226.69 137.82A62.69 62.69 0 0 0 164 75.324a5.822 5.822 0 0 1-5.819-5.82A5.822 5.822 0 0 1 164 63.685a74.33 74.33 0 0 1 74.33 74.214v.116a5.823 5.823 0 0 1-5.82 5.819 5.822 5.822 0 0 1-5.819-5.819l-.001-.195Zm-62.688-49.836a50.027 50.027 0 0 1 50.029 50.031 5.807 5.807 0 0 1-5.805 5.804 5.807 5.807 0 0 1-5.805-5.804A38.422 38.422 0 0 0 164 99.593a5.807 5.807 0 0 1-5.805-5.804A5.808 5.808 0 0 1 164 87.984h.002Z" style="fill:#109e00" transform="translate(-.222 -.777)"/>
</svg>
