<svg width="60" height="60" viewBox="0 0 300 300" xmlns="http://www.w3.org/2000/svg" xml:space="preserve" style="fill-rule:evenodd;clip-rule:evenodd;stroke-linejoin:round;stroke-miterlimit:2">
    <path d="M300 30.271C300 13.564 286.436 0 269.729 0H30.271C13.564 0 0 13.564 0 30.271v239.458C0 286.436 13.564 300 30.271 300h239.458C286.436 300 300 286.436 300 269.729V30.271Z" style="fill:#fffefe"/>
    <path d="M300 30.271C300 13.564 286.436 0 269.729 0H30.271C13.564 0 0 13.564 0 30.271v239.458C0 286.436 13.564 300 30.271 300h239.458C286.436 300 300 286.436 300 269.729V30.271Zm-16 0v239.458c0 7.877-6.394 14.271-14.271 14.271H30.271C22.394 284 16 277.606 16 269.729V30.271C16 22.394 22.394 16 30.271 16h239.458C277.606 16 284 22.394 284 30.271Z" style="fill:#109e00"/>
    <path d="M190.028 68.703c5.52 0 10.002 4.481 10.002 10.001v142.592c0 5.52-4.482 10.001-10.002 10.001h-80.009c-5.52 0-10.002-4.481-10.002-10.001V78.704c0-5.52 4.482-10.001 10.002-10.001h80.009Zm-32.005 131.252c0-4.416-3.584-8-8-8-4.415 0-8 3.584-8 8 0 4.415 3.585 8 8 8 4.416 0 8-3.585 8-8Zm26.176-85.958h-68.398c-.799 0-1.448.649-1.448 1.448v11.582c0 .799.649 1.448 1.448 1.448h68.398c.799 0 1.448-.649 1.448-1.448v-11.582c0-.799-.649-1.448-1.448-1.448Zm0-28.507h-68.398c-.799 0-1.448.649-1.448 1.448V98.52c0 .799.649 1.448 1.448 1.448h68.398c.799 0 1.448-.649 1.448-1.448V86.938c0-.799-.649-1.448-1.448-1.448Z" style="fill:#109e00" transform="translate(-34.446 -34.44) scale(1.2296)"/>
</svg>
