<svg width="60" height="60" viewBox="0 0 300 300" xmlns="http://www.w3.org/2000/svg" xml:space="preserve" style="fill-rule:evenodd;clip-rule:evenodd;stroke-linejoin:round;stroke-miterlimit:2">
    <path d="M300 30.271C300 13.564 286.436 0 269.729 0H30.271C13.564 0 0 13.564 0 30.271v239.458C0 286.436 13.564 300 30.271 300h239.458C286.436 300 300 286.436 300 269.729V30.271Z" style="fill:#fffefe"/>
    <path d="M300 30.271C300 13.564 286.436 0 269.729 0H30.271C13.564 0 0 13.564 0 30.271v239.458C0 286.436 13.564 300 30.271 300h239.458C286.436 300 300 286.436 300 269.729V30.271Zm-16 0v239.458c0 7.877-6.394 14.271-14.271 14.271H30.271C22.394 284 16 277.606 16 269.729V30.271C16 22.394 22.394 16 30.271 16h239.458C277.606 16 284 22.394 284 30.271Z" style="fill:#109e00"/>
    <path d="M241.494 85.91a3.616 3.616 0 0 1 3.613 3.614v28.907a3.615 3.615 0 0 1-3.613 3.614H58.506a3.615 3.615 0 0 1-3.613-3.614V89.524a3.616 3.616 0 0 1 3.613-3.614h182.988ZM112.403 97.521h-11.094c-.713 0-1.292.579-1.292 1.292v10.33c0 .712.579 1.291 1.292 1.291h11.094c.713 0 1.291-.579 1.291-1.291v-10.33c0-.713-.578-1.292-1.291-1.292Zm116.391 0h-57.529c-.713 0-1.291.579-1.291 1.292v10.33c0 .712.578 1.291 1.291 1.291h57.529c.713 0 1.291-.579 1.291-1.291v-10.33c0-.713-.578-1.292-1.291-1.292Zm-140.476 0H77.224c-.713 0-1.291.579-1.291 1.292v10.33c0 .712.578 1.291 1.291 1.291h11.094c.713 0 1.292-.579 1.292-1.291v-10.33c0-.713-.579-1.292-1.292-1.292Z" style="fill:#109e00" transform="matrix(1.05166 0 0 1 -7.749 -4.01)"/>
    <path d="M241.494 85.91a3.616 3.616 0 0 1 3.613 3.614v28.907a3.615 3.615 0 0 1-3.613 3.614H58.506a3.615 3.615 0 0 1-3.613-3.614V89.524a3.616 3.616 0 0 1 3.613-3.614h182.988ZM112.403 97.521h-11.094c-.713 0-1.292.579-1.292 1.292v10.33c0 .712.579 1.291 1.292 1.291h11.094c.713 0 1.291-.579 1.291-1.291v-10.33c0-.713-.578-1.292-1.291-1.292Zm116.391 0h-57.529c-.713 0-1.291.579-1.291 1.292v10.33c0 .712.578 1.291 1.291 1.291h57.529c.713 0 1.291-.579 1.291-1.291v-10.33c0-.713-.578-1.292-1.291-1.292Zm-140.476 0H77.224c-.713 0-1.291.579-1.291 1.292v10.33c0 .712.578 1.291 1.291 1.291h11.094c.713 0 1.292-.579 1.292-1.291v-10.33c0-.713-.579-1.292-1.292-1.292Z" style="fill:#109e00" transform="matrix(1.05166 0 0 1 -7.76 96.055)"/>
    <path d="M241.494 85.91a3.616 3.616 0 0 1 3.613 3.614v28.907a3.615 3.615 0 0 1-3.613 3.614H58.506a3.615 3.615 0 0 1-3.613-3.614V89.524a3.616 3.616 0 0 1 3.613-3.614h182.988ZM112.403 97.521h-11.094c-.713 0-1.292.579-1.292 1.292v10.33c0 .712.579 1.291 1.292 1.291h11.094c.713 0 1.291-.579 1.291-1.291v-10.33c0-.713-.578-1.292-1.291-1.292Zm116.391 0h-57.529c-.713 0-1.291.579-1.291 1.292v10.33c0 .712.578 1.291 1.291 1.291h57.529c.713 0 1.291-.579 1.291-1.291v-10.33c0-.713-.578-1.292-1.291-1.292Zm-140.476 0H77.224c-.713 0-1.291.579-1.291 1.292v10.33c0 .712.578 1.291 1.291 1.291h11.094c.713 0 1.292-.579 1.292-1.291v-10.33c0-.713-.579-1.292-1.292-1.292Z" style="fill:#109e00" transform="matrix(1.05166 0 0 1 -7.755 46.023)"/>
</svg>
