<svg width="60" height="60" viewBox="0 0 300 300" xmlns="http://www.w3.org/2000/svg" xml:space="preserve" style="fill-rule:evenodd;clip-rule:evenodd;stroke-linejoin:round;stroke-miterlimit:2">
    <path d="M300 30.271C300 13.564 286.436 0 269.729 0H30.271C13.564 0 0 13.564 0 30.271v239.458C0 286.436 13.564 300 30.271 300h239.458C286.436 300 300 286.436 300 269.729V30.271Z" style="fill:#fffefe"/>
    <path d="M300 30.271C300 13.564 286.436 0 269.729 0H30.271C13.564 0 0 13.564 0 30.271v239.458C0 286.436 13.564 300 30.271 300h239.458C286.436 300 300 286.436 300 269.729V30.271Zm-16 0v239.458c0 7.877-6.394 14.271-14.271 14.271H30.271C22.394 284 16 277.606 16 269.729V30.271C16 22.394 22.394 16 30.271 16h239.458C277.606 16 284 22.394 284 30.271Z" style="fill:#109e00"/>
    <path d="M50 99.968c0-22.077 44.808-40 100-40s100 17.923 100 40h.015v79.993h-.056c-.01 22.075-44.815 39.994-100 39.994-55.186 0-99.991-17.92-100-39.994V99.968H50Zm16.005 79.993h-.046c.011 15.175 37.646 27.494 84 27.494 46.361 0 84-12.323 84-27.5h.01v-18.259c-17.83 10.993-48.784 18.272-83.954 18.272-35.207 0-66.189-7.294-84.01-18.306v18.299Zm0-58.29v18.297h.01c0 15.178 37.639 27.5 84 27.5 45.423 0 82.474-11.829 83.954-26.583v-19.198c-17.828 10.999-48.789 18.281-83.969 18.281-35.197 0-66.172-7.29-83.995-18.297Zm0-21.397c.502 15.037 37.946 27.194 83.995 27.194 45.589 0 82.745-11.916 83.969-26.745v-.755H234c0-15.178-37.639-27.5-84-27.5s-84 12.322-84 27.5h.005v.306Z" style="fill:#109e00" transform="translate(.02 10.039)"/>
</svg>
