<svg width="60" height="60" viewBox="0 0 300 300" xmlns="http://www.w3.org/2000/svg" xml:space="preserve" style="fill-rule:evenodd;clip-rule:evenodd;stroke-linejoin:round;stroke-miterlimit:2">
    <path d="M300 30.271C300 13.564 286.436 0 269.729 0H30.271C13.564 0 0 13.564 0 30.271v239.458C0 286.436 13.564 300 30.271 300h239.458C286.436 300 300 286.436 300 269.729V30.271Z" style="fill:#fffefe"/>
    <path d="M300 30.271C300 13.564 286.436 0 269.729 0H30.271C13.564 0 0 13.564 0 30.271v239.458C0 286.436 13.564 300 30.271 300h239.458C286.436 300 300 286.436 300 269.729V30.271Zm-16 0v239.458c0 7.877-6.394 14.271-14.271 14.271H30.271C22.394 284 16 277.606 16 269.729V30.271C16 22.394 22.394 16 30.271 16h239.458C277.606 16 284 22.394 284 30.271Z" style="fill:#109e00"/>
    <path d="M142.23 100.647V62.571l-14.43 14.43V54.695l22.2-22.2 22.2 22.2v22.354L157.801 62.65v38.002a49.701 49.701 0 0 1 21.594 8.964l26.933-26.932h-20.407l15.772-15.772h31.395v31.395l-15.806 15.806V93.75l-26.88 26.88a49.704 49.704 0 0 1 8.951 21.6h38.076l-14.43-14.43h22.306l22.2 22.2-22.2 22.2h-22.354l14.399-14.399h-38.002a49.701 49.701 0 0 1-8.964 21.594l26.932 26.933v-20.407l15.772 15.772v31.395h-31.395l-15.806-15.806h20.363l-26.88-26.88a49.704 49.704 0 0 1-21.6 8.951v38.076l14.43-14.43v22.306l-22.2 22.2-22.2-22.2v-22.354l14.399 14.399v-38.002a49.701 49.701 0 0 1-21.594-8.964l-26.933 26.932h20.407l-15.772 15.772H66.912v-31.395l15.806-15.806v20.363l26.88-26.88a49.704 49.704 0 0 1-8.951-21.6H62.571l14.43 14.43H54.695l-22.2-22.2 22.2-22.2h22.354L62.65 142.199h38.002a49.701 49.701 0 0 1 8.964-21.594L82.684 93.672v20.407L66.912 98.307V66.912h31.395l15.806 15.806H93.75l26.88 26.88a49.704 49.704 0 0 1 21.6-8.951Zm7.77 20.142c16.122 0 29.211 13.089 29.211 29.211S166.122 179.211 150 179.211 120.789 166.122 120.789 150s13.089-29.211 29.211-29.211Z" style="fill:#109e00" transform="matrix(.85115 0 0 .85115 22.327 22.327)"/>
</svg>
