<svg width="60" height="60" viewBox="0 0 300 300" xmlns="http://www.w3.org/2000/svg" xml:space="preserve" style="fill-rule:evenodd;clip-rule:evenodd;stroke-linejoin:round;stroke-miterlimit:2">
    <path d="M300 30.271C300 13.564 286.436 0 269.729 0H30.271C13.564 0 0 13.564 0 30.271v239.458C0 286.436 13.564 300 30.271 300h239.458C286.436 300 300 286.436 300 269.729V30.271Z" style="fill:#fffefe"/>
    <path d="M300 30.271C300 13.564 286.436 0 269.729 0H30.271C13.564 0 0 13.564 0 30.271v239.458C0 286.436 13.564 300 30.271 300h239.458C286.436 300 300 286.436 300 269.729V30.271Zm-16 0v239.458c0 7.877-6.394 14.271-14.271 14.271H30.271C22.394 284 16 277.606 16 269.729V30.271C16 22.394 22.394 16 30.271 16h239.458C277.606 16 284 22.394 284 30.271Z" style="fill:#109e00"/>
    <path d="M144.963 120.378H125.99a6.064 6.064 0 0 1-6.062-6.061V66.439a6.064 6.064 0 0 1 6.062-6.061h47.877a6.063 6.063 0 0 1 6.061 6.061v47.878a6.063 6.063 0 0 1-6.061 6.061h-18.83v13.88h67.109a2.52 2.52 0 0 1 2.518 2.518v23.538h19.351c3.311 0 6 2.689 6 6v48c0 3.311-2.689 6-6 6h-48c-3.312 0-6-2.688-6-6v-48c0-3.311 2.688-6 6-6h18.575v-15.982h-59.553v15.982H174c3.312 0 6 2.689 6 6v48c0 3.311-2.688 6-6 6h-48c-3.311 0-6-2.688-6-6v-48c0-3.311 2.688-6 6-6h18.963v-15.982H85.41v15.982h18.57c3.311 0 6 2.689 6 6v48c0 3.311-2.689 6-6 6h-48c-3.312 0-6-2.688-6-6v-48c0-3.311 2.688-6 6-6h19.356v-23.538a2.519 2.519 0 0 1 2.518-2.518h67.109v-13.88ZM168 170.314h-36a2 2 0 0 0-2 2v36a2 2 0 0 0 2 2h36a2 2 0 0 0 2-2v-36a2 2 0 0 0-2-2Zm70.015 0h-36a2 2 0 0 0-2 2v36a2 2 0 0 0 2 2h36c1.103 0 2-.896 2-2v-36a2 2 0 0 0-2-2Zm-140.035 0h-36a2 2 0 0 0-2 2v36a2 2 0 0 0 2 2h36c1.103 0 2-.896 2-2v-36a2 2 0 0 0-2-2Zm69.948-99.936h-36c-1.104.001-2 .897-2 2v36c0 1.104.897 2 2 2h36a2 2 0 0 0 2-2v-36a2.001 2.001 0 0 0-2-2Z" style="fill:#109e00"/>
</svg>
