<svg width="60" height="60" viewBox="0 0 300 300" xmlns="http://www.w3.org/2000/svg" xml:space="preserve" style="fill-rule:evenodd;clip-rule:evenodd;stroke-linejoin:round;stroke-miterlimit:2">
    <path d="M300 30.271C300 13.564 286.436 0 269.729 0H30.271C13.564 0 0 13.564 0 30.271v239.458C0 286.436 13.564 300 30.271 300h239.458C286.436 300 300 286.436 300 269.729V30.271Z" style="fill:#fffefe"/>
    <path d="M300 30.271C300 13.564 286.436 0 269.729 0H30.271C13.564 0 0 13.564 0 30.271v239.458C0 286.436 13.564 300 30.271 300h239.458C286.436 300 300 286.436 300 269.729V30.271Zm-16 0v239.458c0 7.877-6.394 14.271-14.271 14.271H30.271C22.394 284 16 277.606 16 269.729V30.271C16 22.394 22.394 16 30.271 16h239.458C277.606 16 284 22.394 284 30.271Z" style="fill:#109e00"/>
    <path d="M159.487 177.049h31.366v8.822h-18.624v7.169h15.907v8.29h-15.907v16.775h-12.742v-41.056Zm-44.501 41.056v-41.056h21.144c3.921 0 6.917.336 8.99 1.008 2.072.672 3.743 1.919 5.013 3.739 1.269 1.82 1.904 4.037 1.904 6.651 0 2.278-.485 4.243-1.456 5.895-.971 1.653-2.306 2.992-4.005 4.019-1.083.654-2.567 1.195-4.453 1.625 1.513.504 2.614 1.008 3.305 1.512.467.336 1.143 1.055 2.03 2.156.887 1.102 1.48 1.951 1.779 2.549l6.133 11.902h-14.339l-6.777-12.546c-.859-1.625-1.625-2.68-2.297-3.165-.915-.635-1.951-.952-3.108-.952h-1.121v16.663h-12.742Zm-48.842-41.056h13.275l9.242 29.546 9.101-29.546h12.883L95.41 218.105H81.659l-15.515-41.056Zm61.584 16.635h5.349c.579 0 1.699-.186 3.361-.56a3.357 3.357 0 0 0 2.059-1.288 3.795 3.795 0 0 0 .798-2.381c0-1.325-.42-2.343-1.261-3.052-.84-.71-2.417-1.064-4.733-1.064h-5.573v8.345Zm41.581-68.892 26.018 26.019-11.418 11.566-26.083-26.083-.001 21.344-16.328-16.4v-32.867h32.799l16.421 16.421h-21.408Zm-47.932-10.533-26.083 26.083 21.343.001-16.399 16.328H67.371v-32.799l16.421-16.421v21.409l26.019-26.019 11.566 11.418Zm14.477-37.525 26.083-26.083-21.344-.001 16.399-16.328h32.868v32.799l-16.422 16.421V62.133L147.42 88.152l-11.566-11.418Zm-53.153 5.779L66.28 66.092h21.409L61.67 40.074l11.418-11.566 26.083 26.083.001-21.344L115.5 49.646v32.867H82.701Z" style="fill:#109e00" transform="translate(14.5 19.976) scale(1.05448)"/>
</svg>
