<svg width="60" height="60" viewBox="0 0 300 300" xmlns="http://www.w3.org/2000/svg" xml:space="preserve" style="fill-rule:evenodd;clip-rule:evenodd;stroke-linejoin:round;stroke-miterlimit:2">
    <path d="M300 30.271C300 13.564 286.436 0 269.729 0H30.271C13.564 0 0 13.564 0 30.271v239.458C0 286.436 13.564 300 30.271 300h239.458C286.436 300 300 286.436 300 269.729V30.271Z" style="fill:#fffefe"/>
    <path d="M300 30.271C300 13.564 286.436 0 269.729 0H30.271C13.564 0 0 13.564 0 30.271v239.458C0 286.436 13.564 300 30.271 300h239.458C286.436 300 300 286.436 300 269.729V30.271Zm-16 0v239.458c0 7.877-6.394 14.271-14.271 14.271H30.271C22.394 284 16 277.606 16 269.729V30.271C16 22.394 22.394 16 30.271 16h239.458C277.606 16 284 22.394 284 30.271Z" style="fill:#109e00"/>
    <path d="M141.65 168.998c-7.299-3.216-12.399-10.516-12.399-18.998 0-11.452 9.297-20.749 20.749-20.749 11.452 0 20.749 9.297 20.749 20.749 0 8.482-5.1 15.782-12.399 18.998v80.966h-16.7v-80.966Zm-62.377 51.723a100.014 100.014 0 0 1 0-141.442l8.41 8.41a88.125 88.125 0 0 0 0 124.622l-8.41 8.41Zm141.448 0a100.015 100.015 0 0 0 0-141.442l-8.41 8.41a88.121 88.121 0 0 1 0 124.622l8.41 8.41ZM97.435 202.559a74.333 74.333 0 0 1 0-105.118l8.23 8.23a62.69 62.69 0 0 0 0 88.658l-8.23 8.23Zm105.124 0a74.33 74.33 0 0 0 0-105.118l-8.23 8.23a62.69 62.69 0 0 1 0 88.658l8.23 8.23Zm-87.942-17.182a50.033 50.033 0 0 1 0-70.754l8.209 8.209a38.419 38.419 0 0 0 0 54.336l-8.209 8.209Zm70.76 0a50.03 50.03 0 0 0 0-70.754l-8.209 8.209a38.419 38.419 0 0 1 0 54.336l8.209 8.209Z" style="fill:#109e00"/>
</svg>
