<svg width="60" height="60" viewBox="0 0 300 300" xmlns="http://www.w3.org/2000/svg" xml:space="preserve" style="fill-rule:evenodd;clip-rule:evenodd;stroke-linejoin:round;stroke-miterlimit:2">
    <path d="M300 30.271C300 13.564 286.436 0 269.729 0H30.271C13.564 0 0 13.564 0 30.271v239.458C0 286.436 13.564 300 30.271 300h239.458C286.436 300 300 286.436 300 269.729V30.271Z" style="fill:#fffefe"/>
    <path d="M300 30.271C300 13.564 286.436 0 269.729 0H30.271C13.564 0 0 13.564 0 30.271v239.458C0 286.436 13.564 300 30.271 300h239.458C286.436 300 300 286.436 300 269.729V30.271Zm-16 0v239.458c0 7.877-6.394 14.271-14.271 14.271H30.271C22.394 284 16 277.606 16 269.729V30.271C16 22.394 22.394 16 30.271 16h239.458C277.606 16 284 22.394 284 30.271Z" style="fill:#109e00"/>
    <path d="M169.872 108.912c.192-.576.288-1.056.288-1.536 0-1.44-.96-2.592-2.592-3.168a5.436 5.436 0 0 0-1.728-.288c-1.536 0-2.784.864-3.36 2.4l-32.352 84.864c-.192.48-.288.96-.288 1.44 0 1.44 1.056 2.4 2.784 3.072a4.452 4.452 0 0 0 1.824.384c1.44 0 2.496-.768 3.072-2.4l32.352-84.768ZM63.408 149.904l33.504-19.584c1.248-.672 1.728-1.728 1.728-2.88a4.46 4.46 0 0 0-.576-2.208c-.576-1.248-1.728-2.4-3.264-2.4-.48 0-1.152.192-1.728.576L57.84 144.432c-2.496 1.536-3.648 2.88-3.648 5.568 0 2.592 1.152 3.936 3.552 5.28l35.232 21.312c.576.384 1.248.576 1.824.576 1.44 0 2.592-1.056 3.264-2.4.288-.672.48-1.44.48-2.112 0-1.152-.48-2.208-1.632-2.976l-33.504-19.776Zm173.184 0-33.504 19.776c-1.248.768-1.728 1.824-1.728 2.976 0 .672.192 1.44.48 2.112.672 1.344 1.824 2.4 3.36 2.4.576 0 1.152-.192 1.728-.576l35.328-21.312c2.304-1.344 3.552-2.688 3.552-5.28 0-2.688-1.248-4.032-3.648-5.568l-35.232-21.024c-.576-.384-1.248-.576-1.824-.576-1.44 0-2.688 1.152-3.264 2.4-.288.672-.48 1.44-.48 2.112 0 1.152.48 2.208 1.728 2.976l33.504 19.584Z" style="fill:#109e00;fill-rule:nonzero" transform="translate(-6.586 -6.586) scale(1.04391)"/>
</svg>
