<svg width="60" height="60" viewBox="0 0 300 300" xmlns="http://www.w3.org/2000/svg" xml:space="preserve" style="fill-rule:evenodd;clip-rule:evenodd;stroke-linejoin:round;stroke-miterlimit:2">
    <circle cx="150" cy="150" r="150" style="fill:#fffefe"/>
    <path d="M150 0c82.787 0 150 67.213 150 150s-67.213 150-150 150S0 232.787 0 150 67.213 0 150 0Zm0 16c73.957 0 134 60.043 134 134s-60.043 134-134 134S16 223.957 16 150 76.043 16 150 16Z" style="fill:#109e00"/>
    <path d="M178.937 160.122v30.292c0 5.266-4.275 9.541-9.541 9.541H74.938c-5.265 0-9.54-4.275-9.54-9.541v-80.905c0-5.266 4.275-9.541 9.54-9.541h94.458c5.266 0 9.541 4.275 9.541 9.541V139.8l56.631-39.832v99.987l-56.631-39.833Zm-14.446-44.219H79.844v68.194h84.647v-68.194Zm28.149 34.058 26.655-18.748v37.496l-26.655-18.748Z" style="fill:#109e00"/>
</svg>
