<svg width="60" height="60" viewBox="0 0 300 300" xmlns="http://www.w3.org/2000/svg" xml:space="preserve" style="fill-rule:evenodd;clip-rule:evenodd;stroke-linejoin:round;stroke-miterlimit:2">
    <circle cx="150" cy="150" r="150" style="fill:#fffefe"/>
    <path d="M150 0c82.787 0 150 67.213 150 150s-67.213 150-150 150S0 232.787 0 150 67.213 0 150 0Zm0 16c73.957 0 134 60.043 134 134s-60.043 134-134 134S16 223.957 16 150 76.043 16 150 16Z" style="fill:#109e00"/>
    <path d="M180.131 174.282v1.14c0 11.084-2.724 24.533-25.105 24.533H123.37c-22.409 0-25.136-13.449-25.136-24.533v-52.604a.42.42 0 0 1 .421-.419l40.553.174 40.503-.174a.42.42 0 0 1 .42.419v8.193c11.941 0 21.635 9.695 21.635 21.635 0 11.941-9.694 21.636-21.635 21.636Zm0-35.399v27.526c7.596 0 13.763-6.167 13.763-13.763s-6.167-13.763-13.763-13.763Zm-61.629-81.191s7.108 11.839 1.996 24.91c-9.984 25.532 9.726 28.484 9.726 28.484s-9.621-5.38-1.347-25.031c8.371-19.884-10.375-28.363-10.375-28.363Zm23.499-15.79s9.978 10.824 2.742 34.763c-9.696 32.077 12.307 34.58 14.443 34.414 2.137-.166-13.228-2.669-1.622-35.408 8.544-24.102-15.563-33.769-15.563-33.769Z" style="fill:#109e00" transform="translate(-39.85 -20.556) scale(1.34621)"/>
    <path d="M180.131 174.282v1.14c0 11.084-2.724 24.533-25.105 24.533H123.37c-22.409 0-25.136-13.449-25.136-24.533v-52.604a.42.42 0 0 1 .421-.419l40.553.174 40.503-.174a.42.42 0 0 1 .42.419v8.193c11.941 0 21.635 9.695 21.635 21.635 0 11.941-9.694 21.636-21.635 21.636ZM102.319 126.5v48.922c0 5.546.526 11.901 5.217 16.019 3.194 2.802 8.203 4.428 15.834 4.428h31.656c7.619 0 12.621-1.625 15.809-4.427 4.686-4.118 5.211-10.473 5.211-16.02v-1.14a4.085 4.085 0 0 1 2.991-3.936 4.086 4.086 0 0 1-2.991-3.937v-27.526a4.085 4.085 0 0 1 2.991-3.936 4.085 4.085 0 0 1-2.991-3.936V126.5l-36.82.158h-.036l-36.871-.158Zm77.812 12.383v27.526c7.596 0 13.763-6.167 13.763-13.763s-6.167-13.763-13.763-13.763Zm-81.476-12.399Zm81.055 0h.001-.001Zm-61.208-68.792s7.108 11.839 1.996 24.91c-9.984 25.532 9.726 28.484 9.726 28.484s-9.621-5.38-1.347-25.031c8.371-19.884-10.375-28.363-10.375-28.363Zm23.499-15.79s9.978 10.824 2.742 34.763c-9.696 32.077 12.307 34.58 14.443 34.414 2.137-.166-13.228-2.669-1.622-35.408 8.544-24.102-15.563-33.769-15.563-33.769Zm9.031 11.878c.893 6.033.662 14.008-2.378 24.067-3.396 11.233-2.697 18.324-.101 22.78.308.528.641 1.015.993 1.462-.499-2.816-.641-6.314-.122-10.664.548-4.587 1.842-10.218 4.289-17.119 3.263-9.206.901-15.924-2.681-20.526Zm-24.62 18.55c.049 3.647-.502 7.65-2.109 11.76-1.91 4.884-2.643 8.774-2.552 11.873.464-3.253 1.493-7.059 3.36-11.494 2.047-4.86 2.211-8.878 1.301-12.139Z" style="fill:#109e00" transform="translate(-39.85 -20.556) scale(1.34621)"/>
</svg>
