<svg width="60" height="60" viewBox="0 0 300 300" xmlns="http://www.w3.org/2000/svg" xml:space="preserve" style="fill-rule:evenodd;clip-rule:evenodd;stroke-linejoin:round;stroke-miterlimit:2">
    <circle cx="150" cy="150" r="150" style="fill:#fffefe"/>
    <path d="M150 0c82.787 0 150 67.213 150 150s-67.213 150-150 150S0 232.787 0 150 67.213 0 150 0Zm0 16c73.957 0 134 60.043 134 134s-60.043 134-134 134S16 223.957 16 150 76.043 16 150 16Z" style="fill:#109e00"/>
    <path d="M225.468 45.022c2.318-11.406 12.413-20 24.498-20 13.798 0 25 11.202 25 25 0 12.086-8.594 22.18-20 24.499v50.98c11.406 2.319 20 12.413 20 24.499 0 12.086-8.594 22.18-20 24.499v50.98c11.406 2.319 20 12.413 20 24.499 0 13.798-11.202 25-25 25-12.085 0-22.18-8.594-24.498-20h-50.969c-2.319 11.406-12.413 20-24.499 20-12.086 0-22.18-8.594-24.499-20H74.532c-2.318 11.406-12.413 20-24.498 20-13.798 0-25-11.202-25-25 0-12.086 8.594-22.18 20-24.499v-50.98c-11.406-2.319-20-12.413-20-24.499 0-12.086 8.594-22.18 20-24.499v-50.98c-11.406-2.319-20-12.413-20-24.499 0-13.798 11.202-25 25-25 12.085 0 22.18 8.594 24.498 20h50.969c2.319-11.406 12.413-20 24.499-20 12.086 0 22.18 8.594 24.499 20h50.969Zm0 109.978h-50.969c-1.99 9.79-9.709 17.509-19.499 19.499v50.98c9.79 1.991 17.509 9.709 19.499 19.499h50.969c1.99-9.79 9.709-17.508 19.498-19.499v-50.98c-9.789-1.99-17.508-9.709-19.498-19.499Zm-99.967 0H74.532c-1.99 9.79-9.709 17.509-19.498 19.499v50.98c9.789 1.991 17.508 9.709 19.498 19.499h50.969c1.99-9.79 9.709-17.508 19.499-19.499v-50.98c-9.79-1.99-17.509-9.709-19.499-19.499Zm99.967-99.978h-50.969c-1.99 9.79-9.709 17.508-19.499 19.499v50.98c9.79 1.99 17.509 9.709 19.499 19.499h50.969c1.99-9.79 9.709-17.509 19.498-19.499v-50.98c-9.789-1.991-17.508-9.709-19.498-19.499Zm-99.967 0H74.532c-1.99 9.79-9.709 17.508-19.498 19.499v50.98c9.789 1.99 17.508 9.709 19.498 19.499h50.969c1.99-9.79 9.709-17.509 19.499-19.499v-50.98c-9.79-1.991-17.509-9.709-19.499-19.499Z" style="fill:#109e00" transform="rotate(45 38.253 196.159) scale(.56462)"/>
</svg>
