<svg width="60" height="60" viewBox="0 0 300 300" xmlns="http://www.w3.org/2000/svg" xml:space="preserve" style="fill-rule:evenodd;clip-rule:evenodd;stroke-linejoin:round;stroke-miterlimit:2">
    <circle cx="150" cy="150" r="150" style="fill:#fffefe"/>
    <path d="M150 0c82.787 0 150 67.213 150 150s-67.213 150-150 150S0 232.787 0 150 67.213 0 150 0Zm0 16c73.957 0 134 60.043 134 134s-60.043 134-134 134S16 223.957 16 150 76.043 16 150 16Z" style="fill:#109e00"/>
    <path d="M121.555 165.508h56.89v-20.292a3.18 3.18 0 0 0-3.18-3.179h-50.53a3.18 3.18 0 0 0-3.18 3.179v20.292Z" style="fill:#109e00" transform="translate(0 -.475)"/>
    <path d="m145.115 91.354-17.749 17.749v26.062h17.749V91.354Z" style="fill:#109e00" transform="translate(1.48 .397)"/>
    <path d="M170.749 67.987 153 85.736v49.826h17.749V67.987Z" style="fill:#109e00"/>
    <path d="M116.458 244.583h67.084v-69.801a3.75 3.75 0 0 0-3.749-3.749h-59.586a3.75 3.75 0 0 0-3.749 3.749v69.801Z" style="fill:#109e00" transform="matrix(1 0 0 1.07315 0 -12.51)"/>
</svg>
