<svg width="60" height="60" viewBox="0 0 300 300" xmlns="http://www.w3.org/2000/svg" xml:space="preserve" style="fill-rule:evenodd;clip-rule:evenodd;stroke-linecap:round;stroke-linejoin:round;stroke-miterlimit:1.5">
    <circle cx="150" cy="150" r="150" style="fill:#fffefe"/>
    <path d="M150 0c82.787 0 150 67.213 150 150s-67.213 150-150 150S0 232.787 0 150 67.213 0 150 0Zm0 16c73.957 0 134 60.043 134 134s-60.043 134-134 134S16 223.957 16 150 76.043 16 150 16Z" style="fill:#109e00"/>
    <path d="M93.524 228.429c-.175.003-.349.004-.524.004-21.764 0-39.433-17.669-39.433-39.433 0-19.528 14.227-35.76 32.872-38.888.478-34.678 28.775-62.679 63.561-62.679s63.083 28.001 63.561 62.679c18.645 3.128 32.872 19.36 32.872 38.888 0 21.764-17.669 39.433-39.433 39.433-.273 0-.545-.003-.815-.009v.005H93.524ZM93 215h114c14.037 0 25.433-11.396 25.433-25.433 0-12.32-8.779-22.606-20.417-24.937l-.223-.044-.086-.015-.225-.042-.087-.015-.225-.039-.091-.014-.223-.035-.095-.014-.22-.032-.102-.014-.214-.028-.11-.014-.207-.025-.12-.013-.198-.021-.13-.012-.19-.018-.14-.012-.181-.015-.151-.01-.171-.012-.162-.009-.161-.01-.174-.007-.15-.007-.19-.006-.136-.004-.215-.004-.111-.002-.328-.003-.318.002-.106.002-.212.004-.126.004-.19.006-.134.006-.182.008-.138.007-.176.01-.141.009-.173.013-.142.011-.17.014-.143.012-.169.016-.143.015-.168.018-.143.016-.166.02-.143.018-.166.022-.142.02-.167.024-.14.021-.168.027-.137.022-.178.031-.126.021-.295.055-.144.029-.157.031-.153.032-.146.031-.156.034-.141.032-.159.037-.138.033-.159.039-.135.034-.16.042-.134.035-.16.043-.131.037-.161.045-.13.038-.161.048-.127.039-.162.05-.125.039-.163.053-.122.04-.163.055-.119.041-.166.058-.113.04-.169.062-.087.032-.188.07-.147.057-.075.03A49.912 49.912 0 0 0 200 151c0-27.596-22.404-50-50-50s-50 22.404-50 50c0 5.18.789 10.177 2.253 14.874l-.075-.03-.147-.057-.188-.07-.087-.032-.169-.062-.113-.04-.166-.058-.119-.041-.163-.055-.122-.04-.163-.053-.125-.039-.162-.05-.127-.039-.161-.048-.13-.038-.161-.045-.131-.037-.16-.043-.134-.035-.16-.042-.135-.034-.159-.039-.138-.033-.159-.037-.141-.032-.156-.034-.146-.031-.153-.032-.157-.031-.144-.029-.295-.055-.126-.021-.178-.031-.137-.022-.168-.027-.14-.021-.167-.024-.142-.02-.166-.022-.143-.018-.166-.02-.143-.016-.168-.018-.143-.015-.169-.016-.143-.012-.17-.014-.142-.011-.173-.013-.141-.009-.176-.01-.138-.007-.182-.008-.134-.006-.19-.006-.126-.004-.212-.004-.106-.002-.318-.002-.328.003-.111.002-.215.004-.136.004-.19.006-.15.007-.174.007-.161.01-.162.009-.171.012-.151.01-.181.015-.14.012-.19.018-.13.012-.198.021-.12.013-.207.025-.11.014-.214.028-.102.014-.22.032-.095.014-.223.035-.091.014-.225.039-.087.015-.225.042-.086.015-.223.044c-11.638 2.331-20.417 12.617-20.417 24.937C67.567 203.604 78.963 215 93 215Z" style="fill:#109e00" transform="translate(-16.749 -35.477) scale(1.11166)"/>
    <path d="M81 109c1.238-10.255 15.5-24.833 23-24 7.5.833 22.614 23.435 22 31-.759 9.347-8.346 10.813-14 13-1.847.715-5.008 2.721-1 13 5.466 14.021 23.239 33.9 31 36 11.696 3.165 7.77-.436 13-6 4.526-4.816 8.054-6.503 12-5 7 2.667 25.667 21.5 25 29-.667 7.5-18.443 19.229-29 16-14.167-4.333-42.333-24.833-56-42-13.667-17.167-27.721-46.746-26-61Z" style="fill:#109e00;stroke:#fff;stroke-width:3.92px" transform="matrix(.95663 0 0 .95663 43.936 33.241)"/>
</svg>
