<svg width="60" height="60" viewBox="0 0 300 300" xmlns="http://www.w3.org/2000/svg" xml:space="preserve" style="fill-rule:evenodd;clip-rule:evenodd;stroke-linejoin:round;stroke-miterlimit:2">
    <circle cx="150" cy="150" r="150" style="fill:#fffefe"/>
    <path d="M150 0c82.787 0 150 67.213 150 150s-67.213 150-150 150S0 232.787 0 150 67.213 0 150 0Zm0 16c73.957 0 134 60.043 134 134s-60.043 134-134 134S16 223.957 16 150 76.043 16 150 16Z" style="fill:#109e00"/>
    <path d="m105.879 194.127-.127-.127c-27.338-27.338-27.338-71.662 0-99l46.668 46.668 12.72-12.72a7.504 7.504 0 0 1 7.315-9.159c4.14 0 7.5 3.361 7.5 7.5a7.503 7.503 0 0 1-9.158 7.316l-12.72 12.72L204.752 194c-14.136 14.136-32.813 20.962-51.335 20.479L164 244H88l17.879-49.873Z" style="fill:#109e00" transform="translate(.092 8.63) scale(.93951)"/>
    <path d="M226.69 137.82A62.69 62.69 0 0 0 164 75.324a5.822 5.822 0 0 1-5.819-5.82A5.822 5.822 0 0 1 164 63.685a74.33 74.33 0 0 1 74.33 74.214v.116a5.823 5.823 0 0 1-5.82 5.819 5.822 5.822 0 0 1-5.819-5.819l-.001-.195Z" style="fill:#109e00" transform="translate(6.424 2.297) scale(.93951)"/>
    <path d="M164.002 87.984a50.027 50.027 0 0 1 50.029 50.031 5.807 5.807 0 0 1-5.805 5.804 5.807 5.807 0 0 1-5.805-5.804A38.422 38.422 0 0 0 164 99.593a5.807 5.807 0 0 1-5.805-5.804A5.808 5.808 0 0 1 164 87.984h.002Z" style="fill:#109e00" transform="translate(6.424 2.297) scale(.93951)"/>
</svg>
