<svg width="60" height="60" viewBox="0 0 300 300" xmlns="http://www.w3.org/2000/svg" xml:space="preserve" style="fill-rule:evenodd;clip-rule:evenodd;stroke-linejoin:round;stroke-miterlimit:2">
    <circle cx="150" cy="150" r="150" style="fill:#fffefe"/>
    <path d="M150 0c82.787 0 150 67.213 150 150s-67.213 150-150 150S0 232.787 0 150 67.213 0 150 0Zm0 16c73.957 0 134 60.043 134 134s-60.043 134-134 134S16 223.957 16 150 76.043 16 150 16Z" style="fill:#109e00"/>
    <path d="M241.494 85.91a3.616 3.616 0 0 1 3.613 3.614v28.907a3.615 3.615 0 0 1-3.613 3.614H58.506a3.615 3.615 0 0 1-3.613-3.614V89.524a3.616 3.616 0 0 1 3.613-3.614h182.988ZM112.403 97.521h-11.094c-.713 0-1.292.579-1.292 1.292v10.33c0 .712.579 1.291 1.292 1.291h11.094c.713 0 1.291-.579 1.291-1.291v-10.33c0-.713-.578-1.292-1.291-1.292Zm116.391 0h-57.529c-.713 0-1.291.579-1.291 1.292v10.33c0 .712.578 1.291 1.291 1.291h57.529c.713 0 1.291-.579 1.291-1.291v-10.33c0-.713-.578-1.292-1.291-1.292Zm-140.476 0H77.224c-.713 0-1.291.579-1.291 1.292v10.33c0 .712.578 1.291 1.291 1.291h11.094c.713 0 1.292-.579 1.292-1.291v-10.33c0-.713-.579-1.292-1.292-1.292Z" style="fill:#109e00" transform="matrix(.96025 0 0 .9024 5.962 11.02)"/>
    <path d="M241.494 85.91a3.616 3.616 0 0 1 3.613 3.614v28.907a3.615 3.615 0 0 1-3.613 3.614H58.506a3.615 3.615 0 0 1-3.613-3.614V89.524a3.616 3.616 0 0 1 3.613-3.614h182.988ZM112.403 97.521h-11.094c-.713 0-1.292.579-1.292 1.292v10.33c0 .712.579 1.291 1.292 1.291h11.094c.713 0 1.291-.579 1.291-1.291v-10.33c0-.713-.578-1.292-1.291-1.292Zm116.391 0h-57.529c-.713 0-1.291.579-1.291 1.292v10.33c0 .712.578 1.291 1.291 1.291h57.529c.713 0 1.291-.579 1.291-1.291v-10.33c0-.713-.578-1.292-1.291-1.292Zm-140.476 0H77.224c-.713 0-1.291.579-1.291 1.292v10.33c0 .712.578 1.291 1.291 1.291h11.094c.713 0 1.292-.579 1.292-1.291v-10.33c0-.713-.579-1.292-1.292-1.292Z" style="fill:#109e00" transform="matrix(.96025 0 0 .9024 5.952 101.32)"/>
    <path d="M241.494 85.91a3.616 3.616 0 0 1 3.613 3.614v28.907a3.615 3.615 0 0 1-3.613 3.614H58.506a3.615 3.615 0 0 1-3.613-3.614V89.524a3.616 3.616 0 0 1 3.613-3.614h182.988ZM112.403 97.521h-11.094c-.713 0-1.292.579-1.292 1.292v10.33c0 .712.579 1.291 1.292 1.291h11.094c.713 0 1.291-.579 1.291-1.291v-10.33c0-.713-.578-1.292-1.291-1.292Zm116.391 0h-57.529c-.713 0-1.291.579-1.291 1.292v10.33c0 .712.578 1.291 1.291 1.291h57.529c.713 0 1.291-.579 1.291-1.291v-10.33c0-.713-.578-1.292-1.291-1.292Zm-140.476 0H77.224c-.713 0-1.291.579-1.291 1.292v10.33c0 .712.578 1.291 1.291 1.291h11.094c.713 0 1.292-.579 1.292-1.291v-10.33c0-.713-.579-1.292-1.292-1.292Z" style="fill:#109e00" transform="matrix(.96025 0 0 .9024 5.957 56.17)"/>
</svg>
