<?xml version="1.0" encoding="UTF-8" standalone="no"?>
<svg
   xmlns:dc="http://purl.org/dc/elements/1.1/"
   xmlns:cc="http://creativecommons.org/ns#"
   xmlns:rdf="http://www.w3.org/1999/02/22-rdf-syntax-ns#"
   xmlns:svg="http://www.w3.org/2000/svg"
   xmlns="http://www.w3.org/2000/svg"
   xmlns:sodipodi="http://sodipodi.sourceforge.net/DTD/sodipodi-0.dtd"
   xmlns:inkscape="http://www.inkscape.org/namespaces/inkscape"
   id="svg377"
   style="clip-rule:evenodd;fill-rule:evenodd;stroke-linejoin:round;stroke-miterlimit:1.41420996"
   xml:space="preserve"
   version="1.1"
   viewBox="0 0 60 60"
   height="60"
   width="60"
   inkscape:version="0.91 r13725"
   sodipodi:docname="cloud.svg"><sodipodi:namedview
     pagecolor="#ffffff"
     bordercolor="#666666"
     borderopacity="1"
     objecttolerance="10"
     gridtolerance="10"
     guidetolerance="10"
     inkscape:pageopacity="0"
     inkscape:pageshadow="2"
     inkscape:window-width="1833"
     inkscape:window-height="1086"
     id="namedview22"
     showgrid="false"
     inkscape:zoom="11.125147"
     inkscape:cx="36.78083"
     inkscape:cy="22.707063"
     inkscape:window-x="130"
     inkscape:window-y="48"
     inkscape:window-maximized="0"
     inkscape:current-layer="svg377" /><metadata
     id="metadata383"><rdf:RDF><cc:Work
         rdf:about=""><dc:format>image/svg+xml</dc:format><dc:type
           rdf:resource="http://purl.org/dc/dcmitype/StillImage" /><dc:title /></cc:Work></rdf:RDF></metadata><defs
     id="defs381" /><g
     transform="matrix(0.19993327,0,0,0.19990235,0.01465042,0.01464815)"
     id="Background"><g
       id="g351"><path
         id="path347"
         style="fill:#ffffff"
         d="M 300,30.271 C 300,13.564 286.436,0 269.729,0 H 30.271 C 13.564,0 0,13.564 0,30.271 V 269.729 C 0,286.436 13.564,300 30.271,300 H 269.729 C 286.436,300 300,286.436 300,269.729 Z" /><path
         id="path349"
         d="m 269.925,0.001 c 16.09972,-0.31510169 30.49384,14.17259 30.075,30.27 -0.1061,80.84884 0.21081,161.71193 -0.156,242.552 C 298.61375,288.46369 283.6522,301.15677 268.03194,300 187.74879,299.89388 107.45138,300.21085 27.177,299.844 11.536306,298.61375 -1.1567723,283.6522 0,268.03194 0.10612413,187.74879 -0.21084904,107.45138 0.156,27.177 1.3862455,11.536306 16.347799,-1.1567723 31.968056,0 111.28704,6.6687171e-4 190.60602,-0.00133361 269.925,0.001 Z M 30.296,16 C 21.973925,15.732721 14.968163,23.80142 16,31.993056 16.103721,111.93578 15.794138,191.89863 16.152,271.829 17.110107,279.66576 25.171747,285.14519 32.841585,284 112.50147,283.89626 192.18147,284.20589 271.829,283.848 279.6657,282.88989 285.14515,274.82817 284,267.15842 283.89626,187.49853 284.20589,107.81853 283.848,28.171 282.89006,20.334162 274.82812,14.854983 267.15842,16 188.20428,16 109.25014,16 30.296,16 Z"
         style="fill:#2d67b9" /></g></g><g
     style="clip-rule:evenodd;fill-rule:evenodd;stroke-linejoin:round;stroke-miterlimit:1.41420996"
     id="g13"
     transform="matrix(0.19997959,0,0,0.19995118,-0.24452173,-0.55407178)"><path
       inkscape:connector-curvature="0"
       id="path15"
       style="fill:#2d67b9"
       d="m 210.025,221.534 -118.119,0 0,0 c -21.734,-0.004 -39.378,-17.65 -39.378,-39.385 0,-19.275 13.877,-35.335 32.177,-38.725 0.182,-35.883 29.37,-64.958 65.295,-64.958 35.925,0 65.113,29.075 65.295,64.958 18.3,3.39 32.177,19.45 32.177,38.725 0,21.087 -16.609,38.326 -37.447,39.338 l 0,0.047 z m -2.802,-15.929 c 0.287,0.01 0.575,0.015 0.865,0.015 12.954,0 23.471,-10.517 23.471,-23.471 0,-11.115 -7.742,-20.435 -18.124,-22.858 l -0.006,0.026 c -0.884,-0.215 -1.787,-0.38 -2.707,-0.492 -0.865,-0.098 -1.744,-0.147 -2.634,-0.147 -4.025,0 -7.814,1.015 -11.126,2.803 1.984,-5.385 3.068,-11.204 3.068,-17.274 0,-16.41 -7.917,-30.984 -20.137,-40.11 -8.32,-6.282 -18.675,-10.009 -29.893,-10.009 -11.218,0 -21.573,3.727 -29.893,10.009 -12.22,9.126 -20.137,23.7 -20.137,40.11 0,6.07 1.084,11.889 3.068,17.274 -3.312,-1.788 -7.101,-2.803 -11.126,-2.803 -0.825,0 -1.64,0.042 -2.444,0.126 -0.985,0.113 -1.952,0.287 -2.896,0.517 l -0.007,-0.03 c -10.382,2.423 -18.124,11.743 -18.124,22.858 0,12.954 10.517,23.471 23.471,23.471 0.29,0 0.578,-0.005 0.865,-0.015 0.248,0.024 0.499,0.037 0.753,0.037 l 29.987,0 -0.018,0.024 53.002,0 -0.018,-0.024 29.987,0 c 0.254,0 0.505,-0.013 0.753,-0.037 z" /></g></svg>