<svg width="60" height="60" viewBox="0 0 300 300" xmlns="http://www.w3.org/2000/svg" xml:space="preserve" style="fill-rule:evenodd;clip-rule:evenodd;stroke-linejoin:round;stroke-miterlimit:2">
    <path d="M300 30.271C300 13.564 286.436 0 269.729 0H30.271C13.564 0 0 13.564 0 30.271v239.458C0 286.436 13.564 300 30.271 300h239.458C286.436 300 300 286.436 300 269.729V30.271Z" style="fill:#fffefe"/>
    <path d="M300 30.271C300 13.564 286.436 0 269.729 0H30.271C13.564 0 0 13.564 0 30.271v239.458C0 286.436 13.564 300 30.271 300h239.458C286.436 300 300 286.436 300 269.729V30.271Zm-16 0v239.458c0 7.877-6.394 14.271-14.271 14.271H30.271C22.394 284 16 277.606 16 269.729V30.271C16 22.394 22.394 16 30.271 16h239.458C277.606 16 284 22.394 284 30.271Z" style="fill:#2d67b9"/>
    <path d="M35.309 68.715H14.926V43.063l27.23-27.229 27.229 27.229v25.652H49.003v-20.4H35.309v20.4ZM42.156 6a2.398 2.398 0 0 1 1.783.787l33.668 33.669a2.409 2.409 0 0 1 0 3.404 2.409 2.409 0 0 1-3.404 0L42.156 11.813 10.109 43.86a2.407 2.407 0 1 1-3.404-3.404L40.373 6.787c.025-.028.052-.055.079-.082A2.398 2.398 0 0 1 42.156 6Zm17.331 12.217v-3.833c0-1.174.817-2.127 1.825-2.127h3.651c1.007 0 1.825.953 1.825 2.127v11.135l-7.301-7.302Z" style="fill:#2d67b9" transform="translate(33.388 46.661) scale(2.76622)"/>
    <path d="M35.309 68.715H14.926V43.063l27.23-27.229 27.229 27.229v25.652H49.003v-20.4H35.309v20.4Zm18.032-4.338h11.706V44.86L42.156 21.968 19.264 44.86v19.517H30.97V48.315a4.339 4.339 0 0 1 4.339-4.338h13.694a4.338 4.338 0 0 1 4.338 4.338v16.062ZM42.156 6a2.398 2.398 0 0 1 1.783.787l33.668 33.669a2.409 2.409 0 0 1 0 3.404 2.409 2.409 0 0 1-3.404 0L42.156 11.813 10.109 43.86a2.407 2.407 0 1 1-3.404-3.404L40.373 6.787c.025-.028.052-.055.079-.082A2.398 2.398 0 0 1 42.156 6Zm17.331 12.217v-3.833c0-1.174.817-2.127 1.825-2.127h3.651c1.007 0 1.825.953 1.825 2.127v11.135l-7.301-7.302Z" style="fill:#2d67b9" transform="translate(33.388 46.661) scale(2.76622)"/>
</svg>
