<svg width="60" height="60" viewBox="0 0 300 300" xmlns="http://www.w3.org/2000/svg" xml:space="preserve" style="fill-rule:evenodd;clip-rule:evenodd;stroke-linejoin:round;stroke-miterlimit:1.41421">
    <path d="M300 30.271C300 13.564 286.436 0 269.729 0H30.271C13.564 0 0 13.564 0 30.271v239.458C0 286.436 13.564 300 30.271 300h239.458C286.436 300 300 286.436 300 269.729V30.271Z" style="fill:#fffefe"/>
    <path d="m269.925.001.195.001.39.008.195.005.194.007.194.008.193.009.386.022.193.013.192.014.192.016.191.016.192.018.191.018.19.02.38.044.19.023.189.025.188.026.189.027.188.028.187.029.188.031.186.031.187.033.186.034.186.035.185.036.185.037.368.078.184.041.183.042.183.043.182.043.364.092.181.047.18.048.181.05.179.05.18.052.179.052.178.054.178.055.177.056.177.057.177.058.176.059.175.06.175.061.175.062.174.063.174.064.173.066.172.066.172.067.172.068.171.07.17.07.17.071.17.073.169.073.168.074.168.076.167.076.167.077.332.158.165.08.165.081.164.083.163.083.163.084.162.085.162.086.161.087.161.088.16.088.159.09.159.091.316.184.157.094.156.094.156.095.155.096.308.196.306.198.152.101.302.204.15.104.149.104.149.105.148.106.294.214.146.109.145.109.145.111.144.111.143.112.143.113.142.113.282.23.139.116.14.117.276.236.137.12.136.12.135.121.135.122.134.122.134.124.132.124.132.125.131.125.26.254.129.128.128.129.254.26.125.131.125.132.124.132.124.134.122.134.122.135.121.135.12.136.12.137.236.276.117.14.116.139.23.282.113.142.113.143.112.143.111.144.111.145.109.145.109.146.214.294.106.148.105.149.104.149.104.15.204.302.101.152.198.306.196.308.096.155.095.156.094.156.094.157.184.316.091.159.09.159.088.16.088.161.087.161.086.162.085.162.084.163.083.163.083.164.081.165.08.165.158.332.077.167.076.167.076.168.074.168.073.169.073.17.071.17.07.17.07.171.068.172.067.172.066.172.066.173.064.174.063.174.062.175.061.175.06.175.059.176.058.177.057.177.056.177.055.178.054.178.052.179.052.18.05.179.05.181.048.18.047.181.092.364.043.182.043.183.042.183.041.184.078.368.037.185.036.185.035.186.034.186.033.187.031.186.031.188.029.187.028.188.027.189.026.188.025.189.023.19.044.38.02.19.018.191.018.192.016.191.016.192.014.192.013.193.022.386.009.193.008.194.007.194.005.195.008.39.002.391v239.458l-.001.196-.001.195-.004.195-.004.195-.005.195-.007.194-.008.194-.009.193-.011.193-.011.193-.013.193-.014.192-.016.192-.016.191-.018.192-.018.191-.02.19-.022.19-.022.19-.023.19-.025.189-.026.188-.027.189-.028.188-.029.187-.031.188-.031.186-.033.187-.034.186-.035.186-.036.185-.037.185-.039.184-.039.184-.041.184-.042.183-.043.183-.043.182-.046.182-.046.182-.047.181-.048.18-.05.181-.05.179-.052.18-.052.179-.054.178-.055.178-.056.177-.057.177-.058.177-.059.176-.06.175-.061.175-.062.175-.063.174-.064.174-.066.173-.066.172-.067.172-.068.172-.07.171-.07.17-.071.17-.073.17-.073.169-.074.168-.076.168-.076.167-.077.167-.079.166-.079.166-.08.165-.081.165-.083.164-.083.163-.084.163-.085.162-.086.162-.087.161-.088.161-.088.16-.09.159-.091.159-.092.158-.092.158-.094.157-.094.156-.095.156-.096.155-.098.154-.098.154-.099.153-.099.153-.101.152-.102.151-.102.151-.104.15-.104.149-.105.149-.106.148-.107.147-.107.147-.109.146-.109.145-.111.145-.111.144-.112.143-.113.143-.113.142-.115.141-.115.141-.116.139-.117.14-.118.138-.118.138-.12.137-.12.136-.121.135-.122.135-.122.134-.124.134-.124.132-.125.132-.125.131-.127.13-.127.13-.128.129-.129.128-.13.127-.13.127-.131.125-.132.125-.132.124-.134.124-.134.122-.135.122-.135.121-.136.12-.137.12-.138.118-.138.118-.14.117-.139.116-.141.115-.141.115-.142.113-.143.113-.143.112-.144.111-.145.111-.145.109-.146.109-.147.107-.147.107-.148.106-.149.105-.149.104-.15.104-.151.102-.151.102-.152.101-.153.099-.153.099-.154.098-.154.098-.155.096-.156.095-.156.094-.157.094-.158.092-.158.092-.159.091-.159.09-.16.088-.161.088-.161.087-.162.086-.162.085-.163.084-.163.083-.164.083-.165.081-.165.08-.166.079-.166.079-.167.077-.167.076-.168.076-.168.074-.169.073-.17.073-.17.071-.17.07-.171.07-.172.068-.172.067-.172.066-.173.066-.174.064-.174.063-.175.062-.175.061-.175.06-.176.059-.177.058-.177.057-.177.056-.178.055-.178.054-.179.052-.18.052-.179.05-.181.05-.18.048-.181.047-.182.046-.182.046-.182.043-.183.043-.183.042-.184.041-.184.039-.184.039-.185.037-.185.036-.186.035-.186.034-.187.033-.186.031-.188.031-.187.029-.188.028-.189.027-.188.026-.189.025-.19.023-.19.022-.19.022-.19.02-.191.018-.192.018-.191.016-.192.016-.192.014-.193.013-.193.011-.193.011-.193.009-.194.008-.194.007-.195.005-.195.004-.195.004-.195.001-.196.001H30.271l-.196-.001-.195-.001-.195-.004-.195-.004-.195-.005-.194-.007-.194-.008-.193-.009-.193-.011-.193-.011-.193-.013-.192-.014-.192-.016-.191-.016-.192-.018-.191-.018-.19-.02-.19-.022-.19-.022-.19-.023-.189-.025-.188-.026-.189-.027-.188-.028-.187-.029-.188-.031-.186-.031-.187-.033-.186-.034-.186-.035-.185-.036-.185-.037-.184-.039-.184-.039-.184-.041-.183-.042-.183-.043-.182-.043-.182-.046-.182-.046-.181-.047-.18-.048-.181-.05-.179-.05-.18-.052-.179-.052-.178-.054-.178-.055-.177-.056-.177-.057-.177-.058-.176-.059-.175-.06-.175-.061-.175-.062-.174-.063-.174-.064-.173-.066-.172-.066-.172-.067-.172-.068-.171-.07-.17-.07-.17-.071-.17-.073-.169-.073-.168-.074-.168-.076-.167-.076-.167-.077-.166-.079-.166-.079-.165-.08-.165-.081-.164-.083-.163-.083-.163-.084-.162-.085-.162-.086-.161-.087-.161-.088-.16-.088-.159-.09-.159-.091-.158-.092-.158-.092-.157-.094-.156-.094-.156-.095-.155-.096-.154-.098-.154-.098-.153-.099-.153-.099-.152-.101-.151-.102-.151-.102-.15-.104-.149-.104-.149-.105-.148-.106-.147-.107-.147-.107-.146-.109-.145-.109-.145-.111-.144-.111-.143-.112-.143-.113-.142-.113-.141-.115-.141-.115-.139-.116-.14-.117-.138-.118-.138-.118-.137-.12-.136-.12-.135-.121-.135-.122-.134-.122-.134-.124-.132-.124-.132-.125-.131-.125-.13-.127-.13-.127-.129-.128-.128-.129-.127-.13-.127-.13-.125-.131-.125-.132-.124-.132-.124-.134-.122-.134-.122-.135-.121-.135-.12-.136-.12-.137-.118-.138-.118-.138-.117-.14-.116-.139-.115-.141-.115-.141-.113-.142-.113-.143-.112-.143-.111-.144-.111-.145-.109-.145-.109-.146-.107-.147-.107-.147-.106-.148-.105-.149-.104-.149-.104-.15-.102-.151-.102-.151-.101-.152-.099-.153-.099-.153-.098-.154-.098-.154-.096-.155-.095-.156-.094-.156-.094-.157-.092-.158-.092-.158-.091-.159-.09-.159-.088-.16-.088-.161-.087-.161-.086-.162-.085-.162-.084-.163-.083-.163-.083-.164-.081-.165-.08-.165-.079-.166-.079-.166-.077-.167-.076-.167-.076-.168-.074-.168-.073-.169-.073-.17-.071-.17-.07-.17-.07-.171-.068-.172-.067-.172-.066-.172-.066-.173-.064-.174-.063-.174-.062-.175-.061-.175-.06-.175-.059-.176-.058-.177-.057-.177-.056-.177-.055-.178-.054-.178-.052-.179-.052-.18-.05-.179-.05-.181-.048-.18-.047-.181-.046-.182-.046-.182-.043-.182-.043-.183-.042-.183-.041-.184-.039-.184-.039-.184-.037-.185-.036-.185-.035-.186-.034-.186-.033-.187-.031-.186-.031-.188-.029-.187-.028-.188-.027-.189-.026-.188-.025-.189-.023-.19-.022-.19-.022-.19-.02-.19-.018-.191-.018-.192-.016-.191-.016-.192-.014-.192-.013-.193-.011-.193-.011-.193-.009-.193-.008-.194-.007-.194-.005-.195-.004-.195-.004-.195-.001-.195-.001-.196V30.271l.001-.196.001-.195.004-.195.004-.195.005-.195.007-.194.008-.194.009-.193.011-.193.011-.193.013-.193.014-.192.016-.192.016-.191.018-.192.018-.191.02-.19.022-.19.022-.19.023-.19.025-.189.026-.188.027-.189.028-.188.029-.187.031-.188.031-.186.033-.187.034-.186.035-.186.036-.185.037-.185.039-.184.039-.184.041-.184.042-.183.043-.183.043-.182.046-.182.046-.182.047-.181.048-.18.05-.181.05-.179.052-.18.052-.179.054-.178.055-.178.056-.177.057-.177.058-.177.059-.176.06-.175.061-.175.062-.175.063-.174.064-.174.066-.173.066-.172.067-.172.068-.172.07-.171.07-.17.071-.17.073-.17.073-.169.074-.168.076-.168.076-.167.077-.167.079-.166.079-.166.08-.165.081-.165.083-.164.083-.163.084-.163.085-.162.086-.162.087-.161.088-.161.088-.16.09-.159.091-.159.092-.158.092-.158.094-.157.094-.156.095-.156.096-.155.098-.154.098-.154.099-.153.099-.153.101-.152.102-.151.102-.151.104-.15.104-.149.105-.149.106-.148.107-.147.107-.147.109-.146.109-.145.111-.145.111-.144.112-.143.113-.143.113-.142.115-.141.115-.141.116-.139.117-.14.118-.138.118-.138.12-.137.12-.136.121-.135.122-.135.122-.134.124-.134.124-.132.125-.132.125-.131.127-.13.127-.13.128-.129.129-.128.13-.127.13-.127.131-.125.132-.125.132-.124.134-.124.134-.122.135-.122.135-.121.136-.12.137-.12.138-.118.138-.118.14-.117.139-.116.141-.115.141-.115.142-.113.143-.113.143-.112.144-.111.145-.111.145-.109.146-.109.147-.107.147-.107.148-.106.149-.105.149-.104.15-.104.151-.102.151-.102.152-.101.153-.099.153-.099.154-.098.154-.098.155-.096.156-.095.156-.094.157-.094.158-.092.158-.092.159-.091.159-.09.16-.088.161-.088.161-.087.162-.086.162-.085.163-.084.163-.083.164-.083.165-.081.165-.08.166-.079.166-.079.167-.077.167-.076.168-.076.168-.074.169-.073.17-.073.17-.071.17-.07.171-.07.172-.068.172-.067.172-.066.173-.066.174-.064.174-.063.175-.062.175-.061.175-.06.176-.059.177-.058.177-.057.177-.056.178-.055.178-.054.179-.052.18-.052.179-.05.181-.05.18-.048.181-.047.182-.046.182-.046.182-.043.183-.043.183-.042.184-.041.184-.039.184-.039.185-.037.185-.036.186-.035.186-.034.187-.033.186-.031.188-.031.187-.029.188-.028.189-.027.188-.026.189-.025.19-.023.19-.022.19-.022.19-.02.191-.018.192-.018.191-.016.192-.016.192-.014.193-.013.193-.011.193-.011.193-.009.194-.008.194-.007.195-.005.195-.004.195-.004.195-.001.196-.001h239.458l.196.001ZM30.296 16h-.12l-.093.001-.094.002-.093.002-.093.002-.093.004-.093.004-.092.004-.092.005-.092.005-.091.007-.091.006-.091.007-.091.008-.091.009-.09.008-.09.01-.09.01-.089.01-.089.011-.09.012-.088.012-.089.013-.088.013-.088.014-.088.014-.088.015-.087.015-.088.016-.087.017-.086.017-.087.017-.086.018-.086.018-.086.019-.086.02-.085.02-.085.021-.085.021-.085.021-.085.022-.084.023-.084.023-.084.023-.084.025-.084.024-.083.025-.083.026-.083.026-.082.026-.083.028-.082.027-.082.028-.082.029-.081.029-.082.029-.081.03-.081.031-.081.031-.08.031-.08.032-.08.033-.08.033-.08.033-.079.034-.079.034-.079.035-.079.035-.078.036-.078.036-.078.037-.078.037-.078.038-.077.038-.077.039-.077.039-.076.039-.077.04-.076.041-.076.041-.075.041-.075.042-.075.042-.075.043-.075.043-.074.044-.074.044-.074.044-.073.045-.073.046-.073.045-.073.047-.072.046-.073.048-.071.047-.072.048-.071.049-.071.049-.071.049-.07.05-.07.05-.07.051-.07.051-.069.051-.069.052-.068.052-.069.053-.068.053-.067.053-.068.054-.067.055-.066.054-.067.056-.066.055-.066.056-.065.056-.065.057-.065.057-.064.058-.064.057-.064.059-.063.058-.063.059-.063.06-.062.06-.062.06-.062.06-.061.061-.061.061-.06.062-.06.062-.06.062-.06.063-.059.063-.058.063-.059.064-.057.064-.058.064-.057.065-.057.065-.056.065-.056.066-.055.066-.056.067-.054.066-.055.067-.054.068-.053.067-.053.068-.053.069-.052.068-.052.069-.051.069-.051.07-.051.07-.05.07-.05.07-.049.071-.049.071-.049.071-.048.072-.047.071-.048.073-.046.072-.047.073-.045.073-.046.073-.045.073-.044.074-.044.074-.044.074-.043.075-.043.075-.042.075-.042.075-.041.075-.041.076-.041.076-.04.077-.039.076-.039.077-.039.077-.038.077-.038.078-.037.078-.037.078-.036.078-.036.078-.035.079-.035.079-.034.079-.034.079-.033.08-.033.08-.033.08-.032.08-.031.08-.031.081-.031.081-.03.081-.029.082-.029.081-.029.082-.028.082-.027.082-.028.083-.026.082-.026.083-.026.083-.025.083-.024.084-.025.084-.023.084-.023.084-.023.084-.022.085-.021.085-.021.085-.021.085-.02.085-.02.086-.019.086-.018.086-.018.086-.017.087-.017.086-.017.087-.016.088-.015.087-.015.088-.014.088-.014.088-.013.088-.013.089-.012.088-.012.09-.011.089-.01.089-.01.09-.01.09-.008.09-.009.091-.008.091-.007.091-.006.091-.007.091-.005.092-.005.092-.004.092-.004.093-.004.093-.002.093-.002.093-.002.094-.001.093v239.648l.001.093.004.187.002.093.008.186.004.092.01.184.007.091.006.091.007.091.008.091.009.091.008.09.02.18.01.089.011.089.012.09.012.088.013.089.013.088.028.176.015.088.015.087.016.087.051.261.018.086.019.086.018.086.02.086.02.085.021.085.021.086.021.084.022.085.069.252.025.084.024.084.025.083.078.249.028.082.027.082.028.082.029.082.029.081.029.082.03.081.062.162.031.08.032.08.099.24.034.08.034.078.07.158.072.156.074.156.038.078.038.077.117.231.04.076.04.075.041.076.042.077.042.074.042.075.043.075.043.074.044.075.088.148.09.146.047.074.092.144.048.073.048.072.047.071.049.071.048.071.05.071.05.07.05.071.051.069.05.069.052.07.052.069.052.068.053.069.053.068.053.067.055.068.054.067.055.067.054.065.056.067.056.066.056.065.114.13.057.064.058.064.118.128.059.062.058.062.061.064.06.061.06.062.122.122.062.061.061.059.126.12.063.059.063.058.064.059.064.057.064.058.13.114.065.056.066.056.066.055.067.056.066.054.068.055.067.054.067.053.136.106.068.052.07.052.069.052.069.05.071.051.14.1.071.05.071.048.071.049.071.048.073.047.072.048.072.047.072.045.073.046.074.046.073.045.074.044.074.045.148.086.076.043.074.042.075.042.152.082.077.041.076.04.077.039.076.04.231.114.078.037.078.036.079.037.079.036.156.07.079.034.08.034.081.034.078.032.081.033.081.032.079.031.162.062.082.03.081.029.08.029.083.029.164.056.083.027.164.052.085.026.083.025.082.024.084.024.085.024.168.046.085.022.086.022.083.02.086.021.085.02.085.019.087.02.172.036.086.017.088.017.087.017.087.016.174.03.088.014.089.014.176.026.091.012.088.012.089.011.089.01.18.02.09.008.09.009.091.008.184.014.091.006.09.005.093.005.093.004.092.004.093.004.092.002.188.004.093.001h239.648l.093-.001.094-.002.094-.002.092-.002.093-.004.092-.004.093-.004.093-.005.09-.005.091-.006.092-.007.092-.007.091-.008.09-.009.09-.008.09-.01.09-.01.089-.01.089-.011.088-.012.091-.012.088-.013.088-.013.089-.014.088-.014.087-.015.087-.015.087-.016.087-.017.088-.017.086-.017.086-.018.086-.018.087-.02.085-.019.085-.02.086-.021.084-.02.085-.022.085-.022.084-.023.084-.023.085-.024.084-.024.082-.024.083-.025.085-.026.082-.026.082-.026.083-.028.082-.027.082-.028.082-.029.081-.029.081-.029.082-.03.081-.031.081-.031.079-.031.081-.032.081-.033.078-.032.081-.034.081-.034.077-.034.078-.035.079-.035.079-.036.079-.036.078-.037.078-.037.077-.038.076-.038.078-.039.077-.039.076-.039.077-.04.075-.04.076-.041.077-.043.074-.041.075-.042.076-.043.074-.043.074-.043.074-.045.074-.044.073-.045.073-.046.074-.046.072-.045.071-.047.074-.048.072-.048.071-.047.071-.049.07-.048.072-.05.07-.05.071-.05.07-.051.068-.05.07-.052.07-.053.067-.051.069-.053.068-.053.067-.053.067-.054.068-.055.067-.055.065-.054.067-.057.066-.055.065-.056.065-.057.064-.057.065-.058.064-.057.064-.059.064-.059.062-.058.063-.06.063-.06.061-.059.062-.061.061-.061.061-.061.061-.062.059-.061.06-.063.06-.063.058-.062.059-.064.059-.064.057-.064.058-.065.057-.064.057-.065.056-.065.055-.066.057-.067.054-.065.055-.067.055-.068.054-.067.053-.067.053-.068.053-.069.051-.067.053-.07.052-.07.05-.068.051-.07.05-.071.05-.07.05-.072.048-.07.049-.071.047-.071.048-.072.048-.074.047-.071.045-.072.046-.074.046-.073.045-.073.044-.074.045-.074.043-.074.043-.074.043-.076.042-.075.041-.074.043-.077.041-.076.04-.075.04-.077.039-.076.039-.077.039-.078.038-.076.038-.077.037-.078.037-.078.036-.079.036-.079.035-.079.035-.078.034-.077.034-.081.034-.081.032-.078.033-.081.032-.081.031-.079.031-.081.031-.081.03-.082.029-.081.029-.081.029-.082.028-.082.027-.082.028-.083.026-.082.026-.082.026-.085.025-.083.024-.082.024-.084.024-.085.023-.084.023-.084.022-.085.022-.085.02-.084.021-.086.02-.085.019-.085.02-.087.018-.086.018-.086.017-.086.017-.088.017-.087.016-.087.015-.087.015-.087.014-.088.014-.089.013-.088.013-.088.012-.091.012-.088.011-.089.01-.089.01-.09.01-.09.008-.09.009-.09.008-.091.007-.092.007-.092.006-.091.005-.09.005-.093.004-.093.004-.092.004-.093.002-.092.002-.094.002-.094.001-.093V30.176l-.001-.093-.002-.094-.002-.094-.002-.092-.004-.093-.004-.092-.004-.093-.005-.093-.005-.09-.006-.091-.007-.092-.007-.092-.008-.091-.009-.09-.008-.09-.01-.09-.01-.09-.01-.089-.011-.089-.012-.088-.012-.091-.013-.088-.013-.088-.014-.089-.014-.088-.015-.087-.015-.087-.016-.087-.017-.087-.017-.088-.017-.086-.018-.086-.018-.086-.02-.087-.019-.085-.02-.085-.021-.086-.02-.083-.022-.086-.022-.085-.023-.084-.023-.084-.024-.085-.024-.084-.024-.082-.025-.083-.026-.085-.026-.082-.026-.082-.027-.083-.028-.082-.028-.082-.029-.083-.029-.08-.029-.081-.03-.082-.031-.081-.031-.081-.031-.079-.032-.081-.033-.081-.032-.078-.034-.081-.034-.08-.034-.079-.035-.078-.035-.078-.036-.079-.037-.079-.036-.078-.037-.078-.038-.077-.038-.077-.038-.077-.04-.076-.039-.077-.04-.076-.041-.077-.041-.076-.041-.076-.042-.075-.042-.074-.043-.076-.043-.074-.043-.074-.045-.074-.044-.074-.045-.073-.046-.074-.046-.073-.045-.072-.047-.072-.048-.072-.047-.073-.048-.071-.049-.071-.048-.071-.05-.071-.05-.07-.05-.07-.051-.071-.05-.069-.052-.069-.052-.07-.052-.068-.053-.068-.053-.068-.053-.067-.054-.067-.055-.068-.054-.066-.056-.067-.055-.066-.056-.066-.056-.065-.057-.065-.057-.065-.058-.064-.057-.064-.059-.064-.058-.063-.059-.063-.06-.063-.06-.063-.059-.061-.061-.062-.061-.061-.061-.061-.062-.06-.061-.06-.064-.061-.062-.058-.062-.059-.064-.059-.064-.059-.064-.058-.064-.057-.065-.057-.065-.057-.065-.056-.066-.056-.067-.056-.065-.054-.067-.055-.067-.054-.068-.055-.067-.053-.068-.053-.069-.053-.068-.052-.069-.052-.07-.052-.069-.05-.069-.051-.071-.05-.07-.05-.071-.05-.071-.048-.071-.049-.071-.047-.072-.048-.073-.048-.072-.046-.072-.046-.074-.047-.073-.045-.073-.045-.074-.044-.074-.044-.075-.044-.074-.043-.075-.043-.075-.042-.074-.042-.077-.042-.076-.041-.075-.04-.076-.04-.077-.039-.077-.039-.077-.039-.077-.038-.078-.038-.078-.037-.078-.037-.078-.036-.078-.036-.079-.035-.079-.035-.078-.034-.08-.034-.08-.033-.08-.033-.08-.033-.08-.032-.08-.031-.081-.031-.081-.031-.081-.03-.082-.029-.081-.029-.082-.029-.082-.028-.082-.027-.082-.028-.083-.026-.083-.026-.083-.026-.083-.025-.084-.024-.084-.025-.084-.023-.084-.023-.084-.023-.085-.022-.084-.021-.086-.021-.085-.021-.085-.02-.086-.02-.086-.018-.086-.019-.086-.018-.087-.017-.087-.017-.087-.017-.087-.016-.087-.015-.088-.015-.088-.014-.088-.014-.088-.013-.089-.013-.088-.012-.09-.012-.089-.011-.089-.01-.09-.01-.09-.01-.09-.008-.091-.009-.091-.008-.091-.007-.091-.006-.091-.007-.092-.005-.092-.005-.092-.004-.093-.004-.093-.004-.093-.002-.093-.002-.094-.002-.093-.001H30.296Z" style="fill:#2d67b9"/>
    <g>
        <path d="m150.531 52.812.264.002.263.003.264.004.263.004.526.012.263.007.263.008.524.018.524.022.261.012.262.012.261.014.261.015.26.015.261.016.52.034.26.019.259.019.26.02.259.021.259.022.258.022.259.024.258.024.516.05.514.054.257.028.257.029.257.03.256.03.512.064.255.032.256.034.255.034.255.036.254.035.255.037.508.076.253.039.254.04.253.04.252.042.253.042.252.043.504.088.252.045.251.046.502.094.75.147.25.051.249.051.249.052.249.053.249.054.248.054.248.055.248.056.247.056.494.116.247.059.246.059.246.06.246.061.245.062.49.126.244.064.245.064.244.066.243.066.244.067.243.067.242.069.243.069.242.069.242.071.241.071.241.072.482.146.24.074.24.075.24.076.239.076.478.154.476.158.238.08.237.08.237.081.237.082.237.083.236.083.235.084.236.085.235.085.235.086.234.087.468.176.466.178.233.09.233.091.232.092.231.092.232.093.231.094.23.094.231.095.23.096.229.096.23.097.229.098.228.098.228.099.228.1.228.101.227.101.226.101.227.103.226.103.226.104.225.104.225.105.224.106.225.106.223.107.224.108.223.108.223.109.444.22.221.111.442.224.441.226.439.229.437.232.436.234.434.237.433.239.431.241.429.245.428.246.426.25.425.251.422.254.422.257.419.259.418.262.416.264.415.266.413.269.411.271.409.273.408.276.406.279.404.28.402.284.401.285.399.288.397.29.395.292.394.295.391.297.39.299.388.301.386.304.384.306.383.308.38.311.379.313.376.315.375.317.373.319.371.322.369.323.367.326.365.328.363.33.361.333.359.334.357.337.355.338.353.341.351.343.349.345.347.346.345.349.343.351.341.354.338.355.337.357.334.359.332.361.331.363.327.365.326.367.324.369.322.371.319.373.317.375.315.376.313.379.31.38.308.383.306.384.304.386.302.388.299.39.297.391.295.394.292.395.29.397.288.399.285.401.283.402.281.404.278.406.276.408.274.409.271.411.269.413.266.415.264.416.261.418.259.419.257.422.254.423.252.424.249.426.247.428.244.43.242.431.239.432.236.434.235.436.231.437.229.439.226.441.224.442.111.221.11.222.11.223.109.222.108.223.108.224.214.448.105.224.105.225.105.226.103.225.103.226.103.227.102.226.101.228.1.227.1.228.099.228.196.458.097.229.096.229.096.23.095.231.094.23.094.231.093.232.184.464.091.232.18.466.088.233.089.234.087.234.087.235.086.234.085.235.085.236.084.236.166.472.082.237.081.237.08.237.08.238.079.238.079.239.077.238.077.239.076.24.076.239.075.24.074.24.146.482.072.241.071.242.07.241.07.243.069.242.069.243.134.486.132.488.128.488.126.49.062.246.061.246.06.246.118.492.058.247.057.247.057.248.056.247.055.248.054.249.054.248.052.249.053.249.051.25.05.249.05.25.049.25.048.251.048.25.047.251.046.252.045.251.088.504.043.252.042.253.082.506.04.253.039.254.076.508.036.254.036.255.07.51.033.255.033.256.032.255.031.256.031.257.03.256.084.771.052.516.025.258.024.258.023.258.023.259.042.518.02.259.02.26.036.52.017.26.016.26.015.261.028.522.013.261.012.262.011.261.02.524.009.263.007.262.008.263.006.263.005.263.005.264.003.263.003.264.004.528v.564l-.002.3v.053l-.002.136-.003.272-.002.144-.001.1-.002.114-.003.171-.005.233-.003.133-.002.069-.002.093-.011.389-.002.098-.001.018-.01.297-.011.297-.001.036-.006.127-.013.318-.005.117-.004.084-.006.125-.01.198-.01.199-.007.124-.005.085-.006.116-.019.317-.007.126-.003.035-.019.295-.02.295-.001.018-.007.096-.028.385-.008.092-.005.068-.011.131-.018.23-.014.167-.009.112-.009.099-.012.141-.025.266-.012.133-.005.052-.006.068-.051.516v.001l-.03.292-.032.292-.005.052-.015.132-.03.265-.016.14-.011.097-.014.111-.019.167-.028.226-.016.129-.009.068-.011.09-.049.379-.013.095-.002.017-.039.289-.04.289-.005.035-.018.123-.044.309-.017.113-.012.083-.019.121-.029.193-.03.192-.018.121-.013.082-.018.114-.05.306-.02.123-.005.035-.048.286-.049.286-.003.017-.016.093-.066.374-.016.089-.012.066-.023.127-.041.223-.031.162-.02.109-.018.095-.026.137-.05.258-.025.128-.01.051-.013.066-.101.499v.002l-.058.283-.06.282-.01.05-.028.128-.055.256-.03.136-.021.094-.024.107-.035.161-.05.219-.028.125-.016.066-.02.087-.085.366-.022.092-.004.017-.067.279-.067.279-.009.033-.029.119-.074.299-.028.11-.02.079-.03.117-.047.186-.049.186-.03.116-.021.08-.028.11-.08.295-.031.119-.009.033-.075.276-.076.276-.005.016-.025.089-.101.362-.025.085-.018.064-.036.122-.061.215-.046.156-.031.105-.027.092-.039.132-.075.248-.037.124-.015.048-.019.064-.148.48v.002l-.086.272-.086.272-.015.048-.04.122-.079.247-.043.13-.029.091-.034.103-.051.155-.071.21-.04.12-.021.063-.028.084-.12.351-.03.088-.006.017-.093.268-.094.268-.011.032-.041.113-.102.288-.039.105-.027.076-.041.111-.065.18-.066.178-.04.111-.029.076-.039.105-.107.284-.042.113-.012.032-.102.265-.101.264-.006.015-.033.085-.136.347-.033.081-.024.061-.046.117-.082.206-.061.15-.04.099-.036.088-.051.127-.098.237-.049.118-.019.046-.025.061-.193.46v.001l-.111.26-.112.259-.019.046-.051.117-.103.236-.054.124-.038.086-.044.098-.065.149-.09.2-.051.114-.027.06-.037.081-.153.335-.037.083-.008.016-.118.256-.119.255-.013.03-.051.107-.13.275-.048.1-.034.072-.051.106-.082.171-.082.17-.051.105-.035.073-.049.1-.133.27-.053.107-.015.03-.126.252-.126.251-.007.015-.04.078-.169.331-.04.078-.029.058-.058.11-.101.196-.074.143-.049.094-.044.083-.063.12-.12.226-.059.111-.024.044-.133.247-.133.247-.135.247-.135.246-.024.043-.061.109-.125.225-.066.118-.045.081-.053.092-.079.141-.109.191-.061.107-.032.056-.044.077-.184.318-.045.077-.009.015-.141.241-.143.242-.016.028-.06.1-.155.261-.057.095-.041.067-.06.099-.098.163-.099.16-.06.099-.041.068-.059.095-.158.256-.062.099-.017.028-.149.238-.15.237-.008.013-.046.072-.2.314-.047.073-.035.054-.066.103-.12.186-.088.134-.057.088-.051.077-.075.114-.141.213-.068.104-.028.04-.155.233-.156.232-.158.232-.157.231-.027.04-.071.101-.146.212-.077.111-.052.076-.061.085-.093.133-.126.179-.07.1-.037.052-.052.073-.214.299-.05.07-.01.014-.164.226-.164.227-.019.025-.068.093-.18.245-.066.089-.046.062-.069.092-.113.153-.114.15-.068.092-.048.062-.067.09-.183.24-.069.091-.02.026-.171.222-.171.221-.009.012-.051.065-.23.295-.055.068-.038.05-.076.095-.137.174-.101.125-.064.081-.058.072-.085.106-.161.199-.077.095-.031.038-.177.216-.177.216-.178.215-.179.215-.031.036-.078.093-.166.198-.088.103-.059.07-.067.078-.106.125-.143.166-.078.091-.042.048-.058.068-.243.279-.055.063-.011.012-.185.21-.185.209-.021.024-.074.083-.204.228-.075.083-.051.057-.076.084-.129.142-.127.14-.076.083-.053.057-.076.084-.206.222-.076.083-.022.023-.191.205-.192.204-.009.01-.055.057-.259.274-.061.064-.043.045-.083.086-.154.161-.113.116-.071.073-.063.065-.096.099-.181.184-.084.086-.033.033-.197.199-.197.198-.198.197-.199.197-.033.033-.085.083-.186.183-.098.095-.064.063-.074.071-.118.114-.16.154-.085.082-.045.043-.065.062-.271.257-.058.055-.011.01-.205.193-.205.191-.022.02-.08.074-.227.21-.083.076-.055.052-.083.075-.142.13-.142.128-.082.074-.057.051-.085.077-.228.204-.082.073-.023.021-.21.186-.211.185-.01.009-.056.049-.289.251-.067.058-.046.04-.089.076-.171.148-.124.105-.077.066-.068.058-.106.09-.199.167-.09.076-.036.03-.215.18-.216.178-.217.179-.217.177-.035.029-.091.073-.205.166-.108.086-.068.056-.079.062-.13.104-.175.139-.091.072-.049.038-.072.057-.298.233-.059.047-.011.008-.223.173-.224.172-.023.017-.084.064-.249.19-.091.069-.059.045-.088.066-.157.117-.154.115-.088.066-.061.044-.093.07-.249.183-.086.063-.024.018-.229.166-.229.165-.01.008-.055.039-.317.227-.074.052-.048.035-.094.066-.187.132-.136.094-.081.057 18.087 31.327.032.057.064.112.062.113.061.113.059.113.058.114.057.114.056.114.054.114.053.114.052.115.05.115.049.115.048.116.046.115.045.116.044.115.043.116.041.116.04.116.039.116.037.116.037.117.035.116.066.232.031.117.03.116.028.116.027.117.026.116.025.116.024.116.022.116.021.116.02.116.018.116.017.116.016.115.015.115.014.115.012.115.011.115.01.115.016.228.006.114.005.114.006.226.001.113v.113l-.001.112-.003.112-.004.111-.005.111-.006.111-.007.111-.009.11-.009.109-.011.11-.013.109-.013.108-.015.108-.015.107-.017.107-.019.107-.019.106-.021.105-.021.105-.023.105-.024.104-.026.103-.026.103-.028.102-.029.101-.03.101-.031.101-.032.099-.034.099-.035.099-.036.098-.037.097-.038.096-.039.096-.041.095-.042.094-.043.093-.044.093-.045.092-.046.091-.048.09-.048.09-.05.088-.051.088-.052.087-.053.086-.055.086-.055.084-.057.084-.057.082-.059.082-.06.081-.061.079-.063.079-.063.078-.065.077-.065.076-.067.075-.068.074-.069.072-.07.072-.071.071-.073.07-.073.068-.074.068-.076.066-.077.065-.078.065-.079.063-.08.061-.081.061-.082.06-.083.058-.085.057-.085.056-.087.055-.087.053-.089.052-.09.051-.09.05-.091.047-.092.047-.092.044-.093.043-.093.042-.093.04-.094.038-.094.037-.095.036-.096.034-.095.032-.096.031-.097.029-.097.028-.097.026-.098.025-.098.023-.098.022-.099.021-.099.018-.099.018-.099.016-.1.014-.1.013-.101.012-.1.01-.101.008-.101.007-.101.006-.102.004-.102.003-.101.002h-.102l-.102-.002-.103-.003-.102-.004-.103-.006-.102-.007-.103-.008-.103-.01-.102-.011-.103-.013-.103-.014-.103-.015-.103-.017-.103-.018-.103-.019-.103-.021-.103-.022-.103-.024-.103-.025-.103-.026-.102-.027-.103-.029-.102-.03-.103-.032-.102-.033-.102-.034-.102-.035-.102-.037-.102-.038-.101-.039-.102-.04-.101-.042-.101-.043-.1-.045-.101-.045-.1-.047-.1-.048-.099-.05-.1-.05-.099-.052-.099-.053-.098-.055-.098-.055-.098-.057-.097-.058-.097-.059-.097-.061-.096-.061-.096-.063-.095-.064-.095-.066-.095-.066-.094-.068-.094-.068-.093-.07-.093-.071-.092-.073-.091-.073-.092-.075-.09-.076-.09-.076-.09-.078-.089-.08-.088-.08-.088-.081-.087-.083-.087-.084-.085-.084-.086-.086-.084-.087-.084-.088-.084-.089-.082-.091-.082-.091-.081-.093-.081-.093-.08-.095-.079-.095-.078-.097-.077-.098-.077-.099-.076-.099-.075-.101-.074-.102-.074-.103-.072-.104-.072-.105-.071-.106-.07-.107-.069-.108-.068-.11-.068-.11-.066-.111-.065-.112-18.183-31.494-.024.01-.054.025-.3.13-.096.041-.017.008-.046.02-.332.142-.08.034-.01.004-.037.016-.386.162-.043.018-.005.002-.237.098-.238.098-.238.097-.239.096-.239.096-.24.095-.24.094-.24.093-.006.003-.069.026-.368.142-.033.012-.014.005-.11.042-.312.117-.041.016-.022.008-.13.048-.278.103-.049.018-.03.011-.139.05-.254.092-.057.02-.039.014-.142.051-.235.084-.066.022-.046.017-.144.05-.219.076-.074.026-.055.018-.142.049-.205.07-.083.028-.062.021-.14.047-.193.064-.09.03-.071.024-.136.044-.181.059-.1.032-.079.026-.131.042-.17.055-.108.034-.087.027-.127.04-.159.05-.117.036-.095.03-.121.037-.15.046-.126.038-.103.031-.115.034-.14.042-.134.04-.112.033-.108.032-.131.038-.143.042-.12.034-.102.029-.121.035-.153.043-.127.036-.095.026-.112.032-.163.045-.135.037-.088.024-.103.028-.172.046-.143.039-.081.021-.094.025-.182.048-.15.039-.074.019-.085.022-.193.049-.157.04-.066.017-.076.019-.204.051-.164.041-.059.014-.067.016-.215.052-.17.042-.051.012-.058.014-.228.053-.175.041-.044.01-.049.012-.241.055-.18.041-.035.008-.041.009-.258.057-.181.04-.027.006-.032.007-.28.06-.177.038-.019.004-.023.005-.314.066-.161.033-.011.002-.014.003-.4.081-.093.019h-.003l-.257.051-.256.05h-.004l-.092.018-.403.076-.014.002-.011.002-.167.03-.313.057-.022.004-.02.004-.185.032-.278.049-.031.005-.029.005-.19.032-.257.044-.04.006-.037.007-.19.03-.241.039-.049.008-.045.007-.188.029-.227.036-.057.009-.055.008-.182.027-.215.032-.067.01-.063.009-.177.025-.204.03-.076.01-.071.01-.171.023-.194.027-.085.011-.08.01-.164.022-.184.024-.094.011-.089.012-.157.019-.174.021-.103.012-.097.012-.15.018-.165.019-.112.012-.106.013-.143.015-.154.017-.122.013-.115.012-.135.014-.145.015-.132.013-.122.013-.127.012-.137.013-.141.013-.131.013-.119.01-.127.012-.151.013-.14.012-.111.01-.118.01-.16.012-.148.013-.103.007-.109.009-.171.012-.156.012-.095.007-.1.007-.18.012-.165.011-.086.006-.091.006-.191.011-.172.011-.078.005-.082.004-.202.011-.18.01-.069.004-.073.004-.213.01-.187.009-.061.003-.064.003-.225.009-.193.008-.053.002-.055.002-.238.009-.199.007-.043.001-.046.002-.253.007-.203.006-.035.001-.036.001-.271.006-.204.004-.026.001h-.028l-.295.005-.198.003-.017.001h-.019l-.341.003-.17.002h-.009l-.27.001-.27.001-.265-.001-.266-.001-.265-.002-.264-.003-.265-.004-.264-.005-.265-.005-.264-.006-.263-.007-.264-.008-.263-.009-.263-.01-.263-.01-.263-.011-.263-.012-.262-.013-.262-.014-.262-.015-.262-.015-.261-.016-.261-.017-.261-.018-.261-.019-.261-.019-.26-.02-.26-.021-.26-.022-.26-.023-.259-.023-.259-.025-.259-.025-.259-.026-.258-.026-.259-.028-.258-.028-.257-.029-.258-.03-.257-.031-.257-.031-.257-.032-.257-.034-.256-.033-.256-.035-.256-.035-.255-.037-.256-.037-.255-.037-.254-.039-.255-.039-.254-.041-.254-.04-.254-.042-.254-.043-.253-.043-.253-.044-.252-.045-.253-.045-.252-.046-.252-.048-.252-.047-.251-.049-.251-.049-.251-.051-.251-.051-.25-.051-.25-.053-.25-.053-.249-.054-.249-.055-.249-.055-.249-.056-.248-.057-.248-.058-.248-.058-.247-.06-.247-.06-.247-.06-.247-.062-.246-.062-.246-.063-.246-.064-.245-.064-.245-.065-.245-.066-.244-.067-.245-.067-.244-.068-.243-.069-.243-.07-.243-.07-.243-.071-.242-.072-.242-.072-.242-.073-.242-.074-.241-.075-.24-.075-.241-.076-.24-.077-.24-.078-.239-.078-.239-.079-.239-.08-.239-.08-.238-.081-.238-.082-.238-.082-.237-.083-.237-.084-.236-.085-.236-.085-.236-.086-.236-.087-.235-.088-.235-.088-.234-.088-.235-.09-.233-.09-.234-.091-.233-.092-.233-.092-.232-.093-.232-.094-.232-.094-.232-.095-.231-.096-.23-.096-.231-.097-.23-.098-.229-.098-.23-.1-.229-.099-.228-.101-.228-.101-.228-.102-.228-.102-.227-.103-.226-.104-.227-.105-.226-.105-.225-.106-.226-.106-.224-.107-.225-.108-.224-.109-.224-.109-.223-.11-.223-.11-.223-.111-.222-.112-.222-.112-.221-.113-.221-.114-.221-.114-.22-.115-.22-.116-.219-.116-.219-.117-.219-.118-.218-.118-.218-.119-.218-.119-.217-.121-.217-.12-.216-.122-.216-.122-.43-.246-.429-.248-.428-.251-.425-.254-.424-.256-.423-.258-.42-.261-.419-.264-.418-.265-.415-.269-.414-.27-.412-.274-.41-.275-.409-.278-.407-.28-.405-.283-.403-.285-.402-.288-.399-.289-.398-.292-.396-.295-.395-.297-.392-.299-.391-.301-.388-.304-.387-.306-.385-.308-.383-.31-.381-.313-.379-.315-.378-.317-.375-.319-.373-.322-.372-.324-.369-.326-.368-.328-.366-.33-.363-.333-.362-.334-.359-.337-.358-.339-.355-.341-.354-.343-.351-.345-.349-.347-.348-.35-.345-.351-.343-.353-.341-.356-.339-.357-.336-.36-.335-.361-.332-.364-.331-.366-.328-.367-.326-.37-.324-.371-.321-.373-.32-.376-.317-.377-.315-.379-.312-.382-.311-.383-.308-.384-.306-.387-.303-.389-.302-.391-.299-.392-.297-.394-.294-.396-.292-.398-.29-.4-.287-.401-.285-.404-.283-.405-.28-.407-.278-.408-.276-.411-.273-.412-.271-.413-.268-.416-.266-.417-.263-.419-.261-.421-.259-.422-.256-.424-.253-.426-.251-.427-.249-.429-.246-.431-.122-.216-.121-.216-.121-.217-.12-.217-.12-.217-.118-.218-.119-.218-.117-.219-.117-.219-.117-.22-.115-.22-.115-.22-.115-.22-.113-.222-.113-.221-.113-.222-.111-.222-.112-.223-.11-.223-.11-.223-.109-.224-.108-.224-.108-.224-.107-.225-.107-.225-.106-.226-.105-.226-.104-.226-.104-.227-.103-.227-.103-.227-.102-.228-.101-.228-.1-.229-.1-.229-.099-.229-.099-.23-.097-.23-.097-.23-.097-.231-.096-.231-.095-.231-.094-.232-.094-.232-.093-.233-.092-.232-.091-.234-.091-.233-.091-.234-.089-.234-.089-.235-.088-.235-.087-.235-.087-.235-.086-.236-.086-.236-.084-.237-.084-.237-.083-.237-.083-.238-.082-.237-.081-.239-.08-.238-.08-.239-.079-.239-.078-.24-.077-.24-.077-.24-.076-.24-.076-.241-.074-.241-.074-.241-.073-.242-.073-.242-.072-.243-.071-.242-.07-.243-.07-.243-.068-.244-.068-.244-.068-.244-.066-.245-.066-.244-.066-.245-.064-.246-.064-.246-.063-.246-.062-.246-.061-.246-.061-.247-.06-.247-.059-.248-.059-.248-.057-.248-.057-.248-.057-.249-.055-.248-.055-.25-.054-.249-.053-.25-.052-.25-.052-.25-.051-.251-.05-.25-.049-.252-.049-.251-.048-.252-.047-.251-.046-.253-.046-.252-.045-.253-.044-.253-.043-.253-.042-.254-.042-.253-.041-.254-.04-.255-.039-.254-.039-.255-.038-.255-.037-.255-.036-.256-.035-.256-.035-.256-.034-.256-.033-.257-.032-.256-.032-.257-.03-.258-.03-.257-.029-.258-.029-.258-.027-.258-.027-.259-.026-.258-.025-.259-.024-.26-.024-.259-.022-.26-.022-.259-.021-.261-.021-.26-.019-.26-.019-.261-.017-.261-.017-.261-.017-.262-.015-.262-.015-.261-.013-.263-.013-.262-.012-.262-.011-.263-.011-.263-.009-.263-.009-.264-.008-.263-.007-.264-.007-.264-.005-.264-.005-.265-.003-.264-.003-.265-.002-.265-.002-.265v-.53l.002-.264.002-.264.003-.264.003-.263.005-.264.005-.263.006-.263.008-.263.007-.262.009-.263.01-.262.01-.262.011-.261.012-.262.013-.261.014-.261.014-.261.015-.261.016-.26.017-.26.018-.26.018-.26.02-.26.02-.259.021-.259.021-.259.023-.259.023-.258.024-.258.025-.258.026-.258.026-.258.028-.257.028-.257.028-.257.03-.256.031-.257.031-.256.032-.255.033-.256.033-.255.035-.255.035-.255.036-.255.036-.254.038-.254.038-.254.039-.254.04-.253.041-.253.041-.253.042-.253.043-.252.044-.252.044-.252.045-.251.046-.252.047-.251.048-.25.048-.251.049-.25.05-.25.05-.249.051-.25.053-.249.052-.249.054-.248.054-.249.055-.248.056-.247.057-.248.057-.247.058-.247.059-.246.059-.246.06-.246.061-.246.062-.246.063-.245.063-.245.064-.244.064-.244.066-.244.066-.244.067-.243.067-.243.069-.243.069-.242.07-.243.07-.241.071-.242.072-.241.073-.241.073-.241.074-.24.075-.24.076-.239.076-.24.077-.239.077-.238.079-.239.079-.238.08-.238.08-.237.081-.237.082-.237.083-.236.083-.236.084-.236.085-.236.085-.235.086-.234.087-.235.087-.234.089-.234.088-.233.09-.233.09-.233.091-.232.092-.232.092-.232.093-.232.094-.231.094-.23.095-.231.096-.23.096-.229.097-.229.098-.229.098-.229.099-.228.1-.228.1-.227.101-.228.102-.226.103-.227.103-.226.103-.225.105-.226.105-.225.105-.224.107-.224.107-.224.108-.224.108-.223.109-.222.11-.223.11-.222.111-.221.224-.442.226-.441.229-.439.231-.437.235-.436.236-.434.239-.432.242-.431.244-.43.247-.428.249-.426.252-.424.254-.423.257-.422.259-.419.261-.418.264-.416.266-.415.269-.413.271-.411.274-.409.276-.408.278-.406.281-.404.283-.402.285-.401.288-.399.29-.397.292-.395.295-.394.297-.391.299-.39.302-.388.304-.386.306-.384.308-.383.31-.38.313-.379.315-.376.317-.375.319-.373.322-.371.324-.369.326-.367.327-.365.331-.363.332-.361.334-.359.337-.357.338-.355.341-.354.343-.351.345-.349.347-.346.349-.345.351-.343.353-.341.355-.338.357-.337.359-.334.361-.333.363-.33.365-.328.367-.326.369-.323.371-.322.373-.319.375-.317.376-.315.379-.313.38-.311.383-.308.384-.306.386-.304.388-.301.39-.299.391-.297.394-.295.395-.292.397-.29.399-.288.401-.285.402-.284.404-.28.406-.279.408-.276.409-.273.411-.271.413-.269.415-.266.416-.264.418-.262.419-.259.422-.257.422-.254.425-.251.426-.25.428-.246.429-.245.431-.241.433-.239.434-.237.436-.234.437-.232.439-.229.441-.226.442-.224.221-.111.222-.11.222-.11.223-.109.223-.108.224-.108.223-.107.225-.106.224-.106.225-.105.225-.104.226-.104.226-.103.227-.103.226-.101.227-.101.228-.101.228-.1.228-.099.228-.098.229-.098.23-.097.229-.096.23-.096.231-.095.23-.094.231-.094.232-.093.231-.092.232-.092.233-.091.233-.09.233-.089.233-.089.234-.088.234-.088.234-.087.235-.086.235-.085.236-.085.235-.084.236-.083.237-.083.237-.082.237-.081.237-.08.238-.08.238-.079.238-.079.239-.077.239-.077.239-.076.24-.076.24-.075.24-.074.241-.073.241-.073.241-.072.241-.071.242-.071.242-.069.243-.069.242-.069.243-.067.244-.067.243-.066.244-.066.245-.064.244-.064.245-.063.245-.063.245-.062.246-.061.246-.06.246-.059.247-.059.247-.058.247-.058.247-.056.248-.056.248-.055.248-.054.249-.054.249-.053.249-.052.249-.051.25-.051.25-.049.25-.049.25-.049.251-.047.251-.047.251-.046.252-.045.252-.044.252-.044.252-.043.253-.042.252-.042.253-.04.254-.04.253-.039.254-.038.254-.038.255-.037.254-.035.255-.036.255-.034.256-.034.255-.032.256-.032.256-.032.256-.03.257-.03.257-.029.257-.028.257-.027.257-.027.258-.025.258-.025.258-.024.259-.024.258-.022.259-.022.259-.021.26-.02.259-.019.26-.019.26-.017.26-.017.261-.016.26-.015.261-.015.261-.014.262-.012.261-.012.262-.011.262-.011.262-.009.262-.009.263-.008.263-.007.263-.006.263-.006.263-.004.264-.004.263-.003.264-.002.531-.002.531.002Zm-.973 16-.201.001-.213.003-.213.003-.213.003-.212.005-.213.005-.212.006-.212.006-.212.007-.212.008-.211.008-.211.009-.211.01-.211.01-.211.011-.211.012-.21.012-.21.013-.21.014-.209.014-.21.015-.209.015-.209.016-.209.017-.209.018-.208.018-.208.019-.208.019-.208.02-.208.021-.207.021-.207.022-.207.023-.207.023-.207.024-.206.025-.206.025-.206.025-.206.027-.206.027-.205.028-.205.028-.205.029-.204.029-.205.031-.204.03-.204.032-.204.032-.203.032-.204.034-.203.034-.203.034-.203.035-.202.036-.202.036-.202.037-.202.038-.202.038-.201.039-.201.039-.201.04-.201.041-.2.041-.2.042-.2.042-.2.044-.2.043-.199.044-.199.045-.199.046-.199.046-.198.046-.198.048-.198.047-.198.049-.197.049-.197.05-.197.05-.197.05-.196.052-.197.052-.196.052-.196.054-.195.053-.195.055-.195.054-.195.056-.195.056-.194.057-.194.057-.194.058-.193.058-.194.059-.193.06-.192.06-.193.06-.192.062-.192.061-.192.063-.192.063-.191.063-.191.064-.191.065-.19.065-.19.066-.19.067-.19.066-.189.068-.19.068-.189.069-.188.069-.189.07-.188.07-.188.071-.187.071-.188.072-.187.073-.187.073-.186.073-.186.074-.186.075-.186.075-.185.076-.186.077-.184.077-.185.077-.184.078-.184.079-.184.079-.184.079-.183.081-.183.08-.182.082-.183.081-.182.083-.181.083-.182.083-.181.084-.181.085-.181.085-.18.085-.18.086-.179.087-.18.087-.179.088-.179.088-.178.088-.168.084-.366.186-.355.182-.353.184-.352.187-.35.188-.35.19-.348.193-.347.194-.346.197-.344.199-.343.2-.342.203-.34.205-.34.206-.338.209-.336.21-.335.213-.334.215-.333.216-.331.219-.33.22-.328.222-.327.225-.326.226-.324.228-.323.23-.321.232-.32.233-.319.236-.317.238-.316.239-.314.241-.313.243-.311.245-.31.247-.308.248-.307.251-.305.252-.304.254-.302.256-.301.257-.299.259-.297.261-.296.263-.295.265-.292.266-.292.268-.289.27-.288.271-.287.273-.284.275-.284.276-.281.279-.28.28-.278.281-.276.283-.275.285-.273.286-.272.288-.269.29-.268.291-.267.293-.264.294-.263.296-.261.298-.259.299-.258.301-.256.302-.253.304-.253.305-.25.307-.248.308-.247.31-.245.311-.243.313-.241.314-.24.315-.237.318-.236.318-.234.32-.231.322-.23.323-.229.324-.226.325-.224.328-.222.328-.221.33-.218.331-.217.332-.214.334-.213.336-.21.336-.209.338-.207.339-.204.341-.203.342-.201.343-.198.344-.197.346-.194.347-.193.348-.19.349-.189.351-.186.352-.184.353-.182.355-.186.366-.084.167-.088.179-.089.179-.087.179-.087.179-.087.18-.086.18-.086.18-.085.181-.084.181-.084.181-.083.181-.083.182-.083.182-.081.183-.082.182-.08.183-.081.183-.079.184-.079.184-.079.184-.078.184-.077.184-.077.185-.077.186-.076.185-.075.186-.075.186-.074.186-.073.186-.073.187-.073.187-.072.187-.071.188-.071.188-.07.188-.07.189-.069.188-.069.189-.068.189-.068.19-.066.19-.067.19-.066.19-.065.19-.065.191-.064.191-.063.191-.063.192-.063.192-.061.192-.062.192-.06.193-.06.192-.06.193-.059.194-.058.193-.058.194-.057.194-.057.194-.056.195-.055.195-.055.195-.055.195-.053.195-.053.196-.053.196-.052.197-.051.196-.051.197-.05.197-.05.197-.049.197-.048.198-.048.198-.047.198-.047.198-.046.199-.046.199-.044.199-.045.199-.043.2-.043.2-.043.2-.042.2-.041.2-.04.201-.04.201-.04.201-.039.201-.038.202-.037.202-.037.202-.037.202-.035.202-.036.203-.034.203-.034.203-.033.204-.033.203-.032.204-.031.204-.031.204-.03.205-.03.204-.029.205-.028.205-.028.206-.027.205-.026.206-.026.206-.025.206-.025.206-.023.207-.024.207-.022.207-.022.207-.022.207-.02.208-.02.208-.02.208-.019.208-.018.208-.017.209-.017.209-.016.209-.016.209-.015.21-.014.209-.014.21-.013.21-.012.211-.011.21-.011.211-.011.211-.009.211-.009.211-.009.212-.008.211-.007.212-.006.212-.006.212-.005.213-.004.212-.004.213-.003.213-.002.213-.002.214-.001.214v.428l.001.215.004.428.003.214.004.213.004.214.006.213.005.213.014.426.008.212.008.213.009.212.01.212.01.211.011.212.024.422.013.211.014.211.03.42.015.211.017.21.034.418.018.21.019.209.02.209.02.208.021.209.021.208.023.208.022.208.024.207.024.208.05.414.026.206.027.207.027.206.056.412.029.206.03.205.093.615.032.205.033.204.068.408.035.204.035.203.036.203.074.406.038.203.038.202.04.202.039.202.041.202.04.201.084.402.043.201.043.2.044.201.045.2.045.199.046.2.046.199.047.199.096.398.049.198.049.199.05.197.051.198.051.197.052.198.052.196.053.197.054.197.108.392.056.196.112.39.057.195.058.195.058.194.059.194.059.195.06.193.061.194.061.193.062.193.062.192.063.193.063.192.064.192.065.192.065.191.132.382.067.191.067.19.068.19.138.38.14.378.071.189.071.188.072.188.146.376.073.187.074.187.15.374.076.186.154.372.077.185.078.186.079.185.079.184.16.368.081.184.081.183.082.184.082.183.083.182.084.183.168.364.085.181.172.362.087.181.087.18.088.18.088.179.089.18.089.179.09.178.091.179.182.356.092.178.186.354.094.177.188.352.095.175.192.35.194.35.098.174.092.163.204.357.2.346.202.344.204.342.206.342.209.34.21.338.212.338.214.336.216.335.218.333.22.332.222.331.224.329.226.328.228.326.23.325.231.324.234.322.235.321.237.319.24.318.241.316.243.315.244.313.247.312.249.31.25.309.252.307.254.306.256.304.257.303.259.301.261.3.263.298.265.296.266.295.268.293.27.292.272.29.273.288.275.287.277.285.278.283.28.282.282.28.283.278.286.277.286.275.289.273.29.272.291.27.293.268.295.266.297.265.298.263.299.261.301.259.303.258.304.256.306.254.307.252.309.25.311.248.311.247.314.245.315.243.316.241.318.239.319.237.321.236.322.233.323.232.325.23.327.227.327.226.33.224.33.222.332.22.334.218.334.216.336.215.338.212.339.21.34.208.341.206.343.204.344.202.345.2.357.204.163.093.175.098.174.097.525.288.352.19.176.094.177.094.177.093.177.092.356.184.177.091.358.18.358.178.18.089.18.087.18.088.181.086.181.087.362.17.182.085.182.084.182.083.366.166.183.082.183.081.184.081.184.08.184.079.185.08.37.156.186.078.185.077.372.152.374.15.187.074.188.074.187.073.376.144.189.072.189.071.378.14.189.068.19.069.191.068.19.068.19.067.382.132.192.065.191.064.192.064.193.064.192.063.193.062.192.062.193.061.582.18.194.058.195.059.195.057.194.057.196.057.195.056.392.11.196.054.196.053.197.054.394.104.198.051.197.05.396.1.199.049.198.048.597.141.2.045.2.046.4.088.201.044.2.042.201.042.202.042.201.041.201.04.202.04.202.039.203.039.202.037.203.038.406.072.204.036.203.034.204.035.204.033.205.033.204.032.205.032.205.031.205.03.206.03.205.029.206.029.207.028.412.054.207.025.206.026.208.025.208.024.414.046.209.022.208.022.208.02.209.021.418.038.418.036.21.017.42.032.21.015.21.014.212.014.211.013.21.012.212.012.422.022.213.009.424.018.213.008.212.007.213.006.214.006.213.005.213.004.214.004.213.003.214.003.644.003.217-.001.266-.001h-.03l.112-.001.286-.003h.037l.148-.003.249-.004h.022l.02-.001.158-.003.226-.005.033-.001.028-.001.155-.004.21-.006.038-.002.035-.001.156-.005.199-.007.044-.002.039-.001.153-.007.188-.008.053-.002.046-.002.147-.007.175-.009.061-.003.055-.003.141-.008.167-.009.067-.004.062-.003.135-.009.157-.009.076-.005.068-.004.129-.009.148-.01.083-.006.076-.005.122-.01.14-.01.09-.007.081-.006.117-.01.131-.01.097-.008.089-.008.11-.009.122-.011.106-.01.094-.008.103-.01.117-.011.111-.011.1-.009.097-.01.109-.011.119-.012.106-.011.09-.01.1-.01.127-.014.114-.013.083-.009.092-.01.134-.016.119-.014.078-.009.083-.01.142-.018.125-.015.071-.009.076-.01.15-.019.131-.017.062-.008.069-.009.16-.022.133-.018.057-.008.063-.009.167-.024.14-.02.049-.007.055-.008.176-.026.144-.021.043-.007.046-.007.189-.029.144-.023.036-.006.042-.006.199-.033.146-.023.028-.005.034-.005.215-.037.146-.024.022-.004.026-.005.232-.04.145-.026.015-.002.013-.003.267-.048.125-.023.011-.002.005-.001.354-.067.053-.01-.035.007.233-.045.26-.051-.034.006.028-.005.359-.073.006-.001h.001l.119-.025.269-.056.025-.005.013-.003.127-.027.238-.051.024-.006.02-.004.139-.031.215-.047.036-.009.027-.006.135-.031.203-.046.041-.009.032-.008.135-.032.191-.044.048-.012.037-.009.132-.032.179-.043.056-.014.045-.011.127-.031.168-.042.064-.016.051-.013.121-.031.16-.04.07-.019.057-.014.116-.031.151-.039.077-.021.063-.017.111-.03.142-.038.087-.023.068-.019.104-.028.135-.037.091-.026.075-.021.099-.028.125-.035.101-.029.079-.023.093-.027.118-.034.109-.032.084-.024.085-.025.113-.034.115-.034.088-.026.081-.025.104-.031.124-.039.094-.028.072-.023.098-.03.133-.042.096-.03.068-.021.09-.029.14-.045.101-.032.061-.02.084-.027.149-.049.104-.034.056-.018.075-.025.16-.054.106-.035.048-.016.07-.024.17-.058.108-.037.042-.014.063-.022.183-.063.106-.038.036-.012.056-.02.198-.07.105-.037.027-.01.049-.018.217-.078.099-.036.023-.008.041-.016.239-.088.087-.032.014-.005.038-.014.272-.103.068-.025.009-.004.029-.011.325-.125.027-.01-.03.012.226-.088.193-.076.193-.076.192-.077.192-.078.192-.078.191-.078.236-.098-.03.012-.009.004.009-.004.331-.139.039-.016.006-.003.033-.014.294-.125.04-.018.011-.005.056-.024.261-.113.046-.021.059-.025 1.033-.408 1.059-.336 1.079-.261 1.095-.185 1.106-.109 1.11-.032.107.004.146-.255.598-.896.656-.855.712-.808.765-.759.815-.705.86-.649.103-.073.119-.082.164-.116.062-.044.032-.023.067-.047.286-.205.01-.007-.028.02.223-.161.218-.159-.013.01.048-.036.222-.163.083-.061.041-.03.059-.045.137-.101.136-.103.06-.045.04-.03.081-.061.222-.169.047-.036-.012.01.212-.163.212-.165-.024.019.02-.016.268-.209.064-.051.032-.025.062-.049.153-.122.114-.09.054-.044.048-.038.095-.076.181-.147.058-.047-.002.002.204-.167.175-.144.174-.144.204-.17-.001.001.057-.049.176-.147.094-.08.047-.039.052-.046.11-.093.15-.129.059-.051.031-.027.061-.052.259-.226.016-.014-.024.022.203-.18.198-.174-.011.009.051-.045.202-.181.075-.068.039-.035.056-.051.124-.112.125-.114.058-.053.038-.035.073-.066.201-.187.045-.04-.011.01.197-.184.199-.187-.022.02.017-.016.243-.23.058-.056.031-.03.058-.055.141-.135.103-.1.05-.049.045-.044.086-.083.164-.161.056-.055-.001.001.187-.185.16-.16.159-.159.186-.188.055-.056.158-.161.084-.087.045-.046.049-.05.098-.102.136-.141.056-.059.029-.03.055-.057.232-.245.021-.022-.02.022.181-.194.183-.196-.009.01.044-.048.183-.197.067-.073.036-.04.054-.059.111-.121.111-.124.053-.058.036-.04.066-.073.181-.202.043-.049-.009.011.177-.2.172-.195-.019.021.026-.031.217-.249.053-.06.028-.033.053-.062.126-.146.093-.109.047-.055.04-.048.077-.09.147-.175.051-.06.169-.203.143-.173.144-.174.165-.203.001-.001.052-.064.14-.173.075-.094.041-.051.045-.056.088-.11.121-.153.051-.064.025-.033.049-.061.207-.266.02-.025-.019.025.164-.211.164-.215-.008.011.04-.052.161-.212.061-.081.032-.043.047-.063.1-.131.099-.133.047-.064.033-.044.058-.079.159-.217.041-.055-.008.011.156-.214.157-.217-.017.024.02-.03.193-.268.046-.065.025-.036.048-.067.11-.157.081-.116.043-.06.037-.054.067-.096.128-.186.046-.066v-.001l.149-.218.127-.187.126-.187.146-.218v-.001l.047-.07.123-.186.065-.1.036-.054.04-.061.077-.118.105-.163.045-.069.023-.037.043-.067.179-.279.02-.032-.016.026.142-.225.141-.225-.008.011.038-.061.141-.227.051-.084.029-.046.042-.069.086-.14.085-.142.043-.07.027-.046.05-.083.138-.231.036-.061-.006.011.135-.228.137-.235-.015.025.017-.029.165-.285.04-.069.022-.038.041-.073.095-.167.069-.122.037-.065.032-.058.058-.102.109-.197.042-.074h-.001l.127-.231.109-.198.107-.199.126-.234.001-.001.038-.072.105-.199.055-.105.031-.058.035-.067.065-.123.088-.172.04-.077.019-.038.036-.068.151-.297.017-.033-.014.027.121-.24.119-.239-.006.012.032-.066.118-.239.043-.088.025-.05.035-.074.072-.148.071-.148.035-.073.025-.051.042-.09.114-.241.031-.066-.005.012.112-.242.114-.247-.012.027.015-.033.137-.301.032-.071.019-.041.035-.078.078-.175.057-.129.031-.07.027-.061.047-.107.09-.207.034-.079.002-.005.105-.243.03-.072.183-.457.058-.115.007-.018.032-.077.086-.208.045-.111.025-.061.028-.07.053-.131.071-.179.032-.08.016-.041.03-.074.121-.309.017-.045-.01.028.093-.243.098-.255-.005.013.025-.067.094-.25.034-.092.021-.055.028-.077.057-.154.057-.157.028-.077.019-.053.034-.093.09-.253.024-.066-.005.011.091-.257.088-.253-.01.027.014-.04.107-.313.025-.076.015-.044.027-.081.062-.183.044-.135.024-.073.021-.063.037-.113.069-.216.027-.081.001-.005.082-.257-.065.205-.013.056.126-.413.138-.45.018-.058.009-.032.025-.081.065-.217.034-.116.019-.064.022-.073.04-.137.054-.187.024-.084.012-.043.022-.076.091-.323.011-.04-.008.03.072-.262.072-.265-.003.013.018-.071.07-.261.025-.096.015-.055.021-.082.042-.161.041-.162.021-.082.014-.056.025-.097.065-.261.018-.072-.003.011.064-.265.064-.266-.007.028.01-.04.076-.326.018-.078.01-.045.02-.086.043-.19.031-.14.017-.075.015-.068.026-.118.048-.223.018-.086.001-.006.057-.266-.049.235-.003.018.092-.449.087-.43.012-.06.006-.032.017-.086.044-.225.022-.12.013-.066.014-.077.027-.141.035-.195.016-.087.008-.046.015-.079.058-.334.007-.036-.005.03.047-.278.045-.27-.002.013.013-.077.043-.27.016-.1.009-.058.013-.084.026-.168.026-.168.012-.084.009-.057.015-.101.039-.272.011-.079-.001.012.037-.27.037-.273-.004.03.006-.046.044-.338.01-.079.006-.047.011-.09.024-.198.017-.145.01-.076.008-.069.014-.124.026-.232.01-.089.001-.005.029-.275.022-.214.053-.543.007-.075.022-.233.01-.124.006-.07.007-.079.012-.146.016-.2.008-.091.003-.047.007-.081.025-.345.003-.042-.002.031.019-.283.018-.281v.013l.004-.077.017-.281.006-.103.003-.058.004-.087.01-.174.008-.173.004-.088.003-.06.005-.102.011-.28.004-.079-.001.011.011-.282.009-.287-.001.03.001-.04.01-.349.002-.083.002-.048.001-.092.005-.204.002-.149.002-.08.001-.072.002-.126.002-.239.001-.091v-.006l.002-.284V134.693l-.001-.214-.002-.214-.002-.213-.003-.212-.004-.214-.004-.212-.005-.213-.006-.212-.006-.212-.007-.211-.008-.212-.009-.212-.009-.211-.009-.212-.011-.21-.01-.21-.012-.211-.012-.211-.013-.209-.014-.21-.014-.211-.015-.209-.016-.209-.016-.209-.017-.209-.017-.208-.018-.209-.019-.208-.02-.208-.02-.208-.02-.208-.022-.208-.022-.206-.022-.207-.024-.207-.023-.207-.025-.206-.025-.206-.026-.206-.026-.206-.027-.205-.028-.206-.028-.205-.029-.204-.03-.205-.03-.205-.031-.204-.031-.204-.032-.204-.033-.203-.033-.204-.034-.203-.034-.203-.036-.203-.035-.202-.037-.202-.037-.202-.037-.202-.038-.202-.039-.201-.04-.201-.04-.201-.04-.201-.041-.2-.042-.2-.043-.2-.043-.2-.043-.199-.045-.2-.045-.2-.045-.198-.046-.198-.047-.199-.047-.198-.048-.198-.048-.197-.049-.198-.05-.197-.05-.198-.051-.196-.051-.196-.052-.197-.053-.196-.053-.196-.053-.195-.055-.195-.055-.195-.055-.195-.056-.195-.057-.194-.057-.194-.058-.194-.058-.193-.059-.193-.06-.194-.06-.193-.06-.192-.061-.192-.062-.192-.063-.193-.063-.19-.063-.192-.065-.191-.064-.191-.065-.19-.066-.19-.066-.19-.068-.191-.067-.189-.068-.189-.069-.189-.069-.188-.07-.189-.07-.188-.071-.188-.071-.187-.072-.188-.072-.187-.074-.187-.073-.186-.074-.186-.075-.186-.076-.187-.075-.184-.077-.186-.077-.185-.077-.184-.078-.184-.079-.184-.079-.184-.079-.184-.081-.183-.08-.183-.081-.182-.082-.183-.083-.182-.083-.182-.083-.181-.084-.181-.084-.181-.085-.18-.086-.181-.086-.18-.087-.18-.087-.179-.087-.179-.089-.179-.088-.179-.084-.167-.186-.366-.182-.355-.184-.353-.187-.352-.188-.351-.19-.349-.193-.348-.194-.347-.197-.346-.198-.344-.201-.343-.203-.342-.204-.341-.207-.339-.209-.338-.21-.336-.213-.336-.214-.333-.217-.333-.218-.331-.221-.33-.222-.328-.224-.328-.226-.325-.229-.324-.229-.323-.232-.322-.234-.32-.236-.318-.237-.317-.24-.316-.241-.314-.243-.313-.245-.311-.247-.31-.248-.309-.25-.306-.253-.305-.254-.304-.255-.302-.258-.301-.259-.299-.261-.298-.263-.296-.264-.294-.267-.293-.268-.291-.269-.29-.272-.288-.273-.286-.275-.285-.276-.283-.278-.282-.28-.279-.281-.279-.284-.276-.284-.275-.287-.273-.288-.271-.289-.27-.292-.268-.292-.266-.295-.265-.296-.263-.297-.261-.299-.259-.301-.257-.302-.256-.304-.254-.305-.252-.307-.251-.308-.248-.31-.247-.311-.245-.313-.243-.314-.241-.316-.239-.317-.238-.319-.236-.32-.233-.321-.232-.323-.23-.324-.228-.326-.227-.327-.224-.328-.222-.33-.22-.331-.219-.333-.216-.334-.215-.335-.213-.336-.21-.338-.209-.34-.206-.34-.205-.342-.203-.343-.2-.344-.199-.346-.197-.347-.194-.348-.193-.35-.19-.35-.188-.352-.187-.353-.184-.355-.182-.366-.186-.168-.084-.178-.088-.179-.088-.179-.088-.179-.087-.18-.087-.18-.086-.18-.085-.181-.085-.181-.085-.181-.084-.182-.083-.181-.083-.182-.083-.183-.081-.182-.082-.183-.08-.183-.081-.184-.079-.184-.079-.184-.079-.184-.078-.184-.077-.186-.077-.185-.077-.185-.076-.186-.075-.186-.075-.186-.074-.186-.073-.187-.073-.187-.073-.188-.072-.187-.071-.188-.071-.188-.071-.189-.069-.188-.069-.189-.069-.19-.068-.189-.068-.19-.067-.19-.066-.19-.066-.19-.065-.191-.065-.191-.064-.191-.063-.192-.063-.192-.063-.192-.061-.192-.062-.193-.06-.192-.06-.193-.06-.194-.059-.193-.058-.194-.058-.194-.057-.194-.057-.195-.056-.195-.056-.195-.054-.195-.055-.196-.053-.195-.054-.196-.052-.196-.052-.197-.052-.197-.05-.197-.05-.197-.05-.197-.049-.198-.049-.198-.047-.198-.048-.198-.046-.199-.046-.199-.046-.199-.045-.199-.044-.2-.043-.199-.044-.201-.042-.2-.042-.2-.041-.201-.041-.201-.04-.201-.039-.201-.039-.202-.038-.202-.038-.202-.037-.202-.036-.202-.036-.203-.035-.203-.034-.203-.034-.204-.034-.203-.032-.204-.032-.204-.032-.204-.03-.205-.031-.204-.029-.205-.029-.205-.028-.205-.028-.206-.027-.206-.027-.206-.025-.206-.025-.206-.025-.207-.024-.207-.023-.207-.023-.207-.022-.207-.021-.208-.021-.208-.02-.208-.019-.208-.019-.208-.018-.209-.018-.209-.017-.209-.016-.209-.015-.21-.015-.209-.014-.21-.014-.21-.013-.21-.012-.211-.012-.211-.011-.211-.01-.211-.01-.211-.009-.211-.008-.212-.008-.212-.007-.212-.006-.212-.006-.213-.005-.212-.005-.213-.003-.213-.003-.213-.003-.201-.001-.442-.002-.442.002Zm61.291 91.933-.014.035.067-.157-.053.122Zm.241-.572-.006.015-.023.056-.159.379.208-.49-.02.04Zm4.662-18.48-.004.04.005-.048-.001.008Zm.111-1.13-.058.587-.001.013-.003.036-.006.062-.042.424.004-.038.096-.75.131-.745.166-.737-.287 1.148Z" style="fill:#2d67b9" transform="translate(0 7.23)"/>
        <path d="M100.017 104.797h69.758l-14.29-14.29h22.183l22.2 22.2-22.2 22.199h-22.16l14.475-14.475h-69.966v-15.634Z" style="fill:#2d67b9" transform="translate(.057 11.357)"/>
        <path d="M100.017 104.797h69.758l-14.29-14.29h22.183l22.2 22.2-22.2 22.199h-22.16l14.475-14.475h-69.966v-15.634Z" style="fill:#2d67b9" transform="matrix(-1 0 0 1 300.104 48.65)"/>
    </g>
</svg>
