<?xml version="1.0" encoding="UTF-8" standalone="no"?>
<svg
   xmlns:dc="http://purl.org/dc/elements/1.1/"
   xmlns:cc="http://creativecommons.org/ns#"
   xmlns:rdf="http://www.w3.org/1999/02/22-rdf-syntax-ns#"
   xmlns:svg="http://www.w3.org/2000/svg"
   xmlns="http://www.w3.org/2000/svg"
   id="svg1869"
   style="clip-rule:evenodd;fill-rule:evenodd;stroke-linejoin:round;stroke-miterlimit:1.41420996"
   xml:space="preserve"
   version="1.1"
   viewBox="0 0 60 60"
   height="60"
   width="60"><metadata
     id="metadata1875"><rdf:RDF><cc:Work
         rdf:about=""><dc:format>image/svg+xml</dc:format><dc:type
           rdf:resource="http://purl.org/dc/dcmitype/StillImage" /><dc:title></dc:title></cc:Work></rdf:RDF></metadata><defs
     id="defs1873" /><g
     transform="matrix(0.19993327,0,0,0.19990235,0.01465042,0.01464815)"
     id="g1867"><g
       id="Background"><g
         id="g1860"><path
           id="path1856"
           style="fill:#ffffff"
           d="M 300,30.271 C 300,13.564 286.436,0 269.729,0 H 30.271 C 13.564,0 0,13.564 0,30.271 V 269.729 C 0,286.436 13.564,300 30.271,300 H 269.729 C 286.436,300 300,286.436 300,269.729 Z" /><path
           id="path1858"
           d="m 269.925,0.001 c 16.09972,-0.31510169 30.49384,14.17259 30.075,30.27 -0.1061,80.84884 0.21081,161.71193 -0.156,242.552 C 298.61375,288.46369 283.6522,301.15677 268.03194,300 187.74879,299.89388 107.45138,300.21085 27.177,299.844 11.536306,298.61375 -1.1567723,283.6522 0,268.03194 0.10612413,187.74879 -0.21084904,107.45138 0.156,27.177 1.3862455,11.536306 16.347799,-1.1567723 31.968056,0 111.28704,6.6687171e-4 190.60602,-0.00133361 269.925,0.001 Z M 30.296,16 C 21.973925,15.732721 14.968163,23.80142 16,31.993056 16.103721,111.93578 15.794138,191.89863 16.152,271.829 17.110107,279.66576 25.171747,285.14519 32.841585,284 112.50147,283.89626 192.18147,284.20589 271.829,283.848 279.6657,282.88989 285.14515,274.82817 284,267.15842 283.89626,187.49853 284.20589,107.81853 283.848,28.171 282.89006,20.334162 274.82812,14.854983 267.15842,16 188.20428,16 109.25014,16 30.296,16 Z"
           style="fill:#2d67b9" /></g></g><g
       id="g1865"
       transform="rotate(-45,150.00005,149.99988)"><path
         id="path1863"
         style="fill:#2d67b9"
         d="m 62.539,139.838 h 43.071 v 20.346 H 62.645 l 18.912,18.912 H 52.267 L 23.171,150 52.267,120.904 h 29.206 z m 185.194,39.258 h -29.29 l 18.912,-18.912 H 194.39 v -20.346 h 43.071 l -18.934,-18.934 h 29.206 L 276.829,150 Z M 176.634,160.184 H 158.878 V 139.84 h 8.922 v -0.002 h 8.834 z M 132.2,139.838 v 0.002 h 8.922 v 20.344 h -17.756 v -20.346 z" /></g></g></svg>
