<svg width="60" height="60" viewBox="0 0 300 300" xmlns="http://www.w3.org/2000/svg" xml:space="preserve" style="fill-rule:evenodd;clip-rule:evenodd;stroke-linejoin:round;stroke-miterlimit:2">
    <path d="M300 30.271C300 13.564 286.436 0 269.729 0H30.271C13.564 0 0 13.564 0 30.271v239.458C0 286.436 13.564 300 30.271 300h239.458C286.436 300 300 286.436 300 269.729V30.271Z" style="fill:#fffefe"/>
    <path d="M300 30.271C300 13.564 286.436 0 269.729 0H30.271C13.564 0 0 13.564 0 30.271v239.458C0 286.436 13.564 300 30.271 300h239.458C286.436 300 300 286.436 300 269.729V30.271Zm-16 0v239.458c0 7.877-6.394 14.271-14.271 14.271H30.271C22.394 284 16 277.606 16 269.729V30.271C16 22.394 22.394 16 30.271 16h239.458C277.606 16 284 22.394 284 30.271Z" style="fill:#2d67b9"/>
    <path d="M127.213 115.518h7.927v-34.17c0-.532.166-1.025.45-1.43l.003-.006a2.5 2.5 0 0 1 2.047-1.064h31.832v-2.112c0-1.165.947-2.111 2.112-2.111h32.253c1.165 0 2.111.946 2.111 2.111v2.112h31.706a2.5 2.5 0 0 1 2.047 1.064l.003.006c.284.405.45.898.45 1.43V210.94h7.361c1.379 0 2.5 1.12 2.5 2.5v5c0 1.379-1.121 2.5-2.5 2.5H41.511a2.5 2.5 0 0 1-2.5-2.5v-5a2.5 2.5 0 0 1 2.5-2.5h5.742v-92.922c0-.123.009-.244.026-.363l.001-.008a2.503 2.503 0 0 1 2.473-2.129h17.393v-3.738c0-1.166.946-2.112 2.111-2.112h17.935c1.165 0 2.111.946 2.111 2.112v3.738h15.753v-3.738c0-1.166.946-2.112 2.111-2.112h17.935c1.165 0 2.111.946 2.111 2.112v3.738Zm7.927 10H57.253v85.422h77.887v-85.422Zm95.014-36.67H145.14V210.94h27.212v-23.148c0-.701.569-1.269 1.27-1.27h28.177a1.27 1.27 0 0 1 1.269 1.27v23.148h27.086V88.848ZM185.092 191.6h-7.662v19.34h7.662V191.6Zm12.899 0h-7.822v19.34h7.822V191.6Zm-120.845-4.52h-10v10h10v-10Zm23.011 0h-10v10h10v-10Zm23.011 0h-10v10h10v-10Zm-46.022-23.984h-10v10h10v-10Zm23.011 0h-10v10h10v-10Zm23.011 0h-10v10h10v-10Zm46.531-10h-10v10h10v-10Zm23.011 0h-10v10h10v-10Zm23.012 0h-10v10h10v-10ZM77.146 139.113h-10v10h10v-10Zm23.011 0h-10v10h10v-10Zm23.011 0h-10v10h10v-10Zm46.531-10h-10v10h10v-10Zm23.011 0h-10v10h10v-10Zm23.012 0h-10v10h10v-10Zm-46.023-23.983h-10v10h10v-10Zm23.011 0h-10v10h10v-10Zm23.012 0h-10v10h10v-10Z" style="fill:#2d67b9" transform="matrix(.94799 0 0 .94799 13.004 9.904)"/>
</svg>
