<svg width="60" height="60" viewBox="0 0 300 300" xmlns="http://www.w3.org/2000/svg" xml:space="preserve" style="fill-rule:evenodd;clip-rule:evenodd;stroke-linejoin:round;stroke-miterlimit:2">
    <path d="M300 30.271C300 13.564 286.436 0 269.729 0H30.271C13.564 0 0 13.564 0 30.271v239.458C0 286.436 13.564 300 30.271 300h239.458C286.436 300 300 286.436 300 269.729V30.271Z" style="fill:#fffefe"/>
    <path d="M300 30.271C300 13.564 286.436 0 269.729 0H30.271C13.564 0 0 13.564 0 30.271v239.458C0 286.436 13.564 300 30.271 300h239.458C286.436 300 300 286.436 300 269.729V30.271Zm-16 0v239.458c0 7.877-6.394 14.271-14.271 14.271H30.271C22.394 284 16 277.606 16 269.729V30.271C16 22.394 22.394 16 30.271 16h239.458C277.606 16 284 22.394 284 30.271Z" style="fill:#2d67b9"/>
    <path d="M121.555 165.508h56.89v-20.292a3.18 3.18 0 0 0-3.18-3.179h-50.53a3.18 3.18 0 0 0-3.18 3.179v20.292Z" style="fill:#2d67b9" transform="translate(0 -.475)"/>
    <path d="m145.115 91.354-17.749 17.749v26.062h17.749V91.354Z" style="fill:#2d67b9" transform="translate(1.48 .397)"/>
    <path d="M170.749 67.987 153 85.736v49.826h17.749V67.987Z" style="fill:#2d67b9"/>
    <path d="M116.458 244.583h67.084v-69.801a3.75 3.75 0 0 0-3.749-3.749h-59.586a3.75 3.75 0 0 0-3.749 3.749v69.801Z" style="fill:#2d67b9" transform="matrix(1 0 0 1.07315 0 -12.51)"/>
</svg>
