<svg width="60" height="60" viewBox="0 0 300 300" xmlns="http://www.w3.org/2000/svg" xml:space="preserve" style="fill-rule:evenodd;clip-rule:evenodd;stroke-miterlimit:1.5">
    <path d="M300 30.271C300 13.564 286.436 0 269.729 0H30.271C13.564 0 0 13.564 0 30.271v239.458C0 286.436 13.564 300 30.271 300h239.458C286.436 300 300 286.436 300 269.729V30.271Z" style="fill:#fffefe"/>
    <path d="m269.925.001.195.001.39.008.195.005.194.007.194.008.193.009.386.022.193.013.192.014.192.016.191.016.192.018.191.018.19.02.38.044.19.023.189.025.188.026.189.027.188.028.187.029.188.031.186.031.187.033.186.034.186.035.185.036.185.037.368.078.184.041.183.042.183.043.182.043.364.092.181.047.18.048.181.05.179.05.18.052.179.052.178.054.178.055.177.056.177.057.177.058.176.059.175.06.175.061.175.062.174.063.174.064.173.066.172.066.172.067.172.068.171.07.17.07.17.071.17.073.169.073.168.074.168.076.167.076.167.077.332.158.165.08.165.081.164.083.163.083.163.084.162.085.162.086.161.087.161.088.16.088.159.09.159.091.316.184.157.094.156.094.156.095.155.096.308.196.306.198.152.101.302.204.15.104.149.104.149.105.148.106.294.214.146.109.145.109.145.111.144.111.143.112.143.113.142.113.282.23.139.116.14.117.276.236.137.12.136.12.135.121.135.122.134.122.134.124.132.124.132.125.131.125.26.254.129.128.128.129.254.26.125.131.125.132.124.132.124.134.122.134.122.135.121.135.12.136.12.137.236.276.117.14.116.139.23.282.113.142.113.143.112.143.111.144.111.145.109.145.109.146.214.294.106.148.105.149.104.149.104.15.204.302.101.152.198.306.196.308.096.155.095.156.094.156.094.157.184.316.091.159.09.159.088.16.088.161.087.161.086.162.085.162.084.163.083.163.083.164.081.165.08.165.158.332.077.167.076.167.076.168.074.168.073.169.073.17.071.17.07.17.07.171.068.172.067.172.066.172.066.173.064.174.063.174.062.175.061.175.06.175.059.176.058.177.057.177.056.177.055.178.054.178.052.179.052.18.05.179.05.181.048.18.047.181.092.364.043.182.043.183.042.183.041.184.078.368.037.185.036.185.035.186.034.186.033.187.031.186.031.188.029.187.028.188.027.189.026.188.025.189.023.19.044.38.02.19.018.191.018.192.016.191.016.192.014.192.013.193.022.386.009.193.008.194.007.194.005.195.008.39.002.391v239.458l-.001.196-.001.195-.004.195-.004.195-.005.195-.007.194-.008.194-.009.193-.011.193-.011.193-.013.193-.014.192-.016.192-.016.191-.018.192-.018.191-.02.19-.022.19-.022.19-.023.19-.025.189-.026.188-.027.189-.028.188-.029.187-.031.188-.031.186-.033.187-.034.186-.035.186-.036.185-.037.185-.039.184-.039.184-.041.184-.042.183-.043.183-.043.182-.046.182-.046.182-.047.181-.048.18-.05.181-.05.179-.052.18-.052.179-.054.178-.055.178-.056.177-.057.177-.058.177-.059.176-.06.175-.061.175-.062.175-.063.174-.064.174-.066.173-.066.172-.067.172-.068.172-.07.171-.07.17-.071.17-.073.17-.073.169-.074.168-.076.168-.076.167-.077.167-.079.166-.079.166-.08.165-.081.165-.083.164-.083.163-.084.163-.085.162-.086.162-.087.161-.088.161-.088.16-.09.159-.091.159-.092.158-.092.158-.094.157-.094.156-.095.156-.096.155-.098.154-.098.154-.099.153-.099.153-.101.152-.102.151-.102.151-.104.15-.104.149-.105.149-.106.148-.107.147-.107.147-.109.146-.109.145-.111.145-.111.144-.112.143-.113.143-.113.142-.115.141-.115.141-.116.139-.117.14-.118.138-.118.138-.12.137-.12.136-.121.135-.122.135-.122.134-.124.134-.124.132-.125.132-.125.131-.127.13-.127.13-.128.129-.129.128-.13.127-.13.127-.131.125-.132.125-.132.124-.134.124-.134.122-.135.122-.135.121-.136.12-.137.12-.138.118-.138.118-.14.117-.139.116-.141.115-.141.115-.142.113-.143.113-.143.112-.144.111-.145.111-.145.109-.146.109-.147.107-.147.107-.148.106-.149.105-.149.104-.15.104-.151.102-.151.102-.152.101-.153.099-.153.099-.154.098-.154.098-.155.096-.156.095-.156.094-.157.094-.158.092-.158.092-.159.091-.159.09-.16.088-.161.088-.161.087-.162.086-.162.085-.163.084-.163.083-.164.083-.165.081-.165.08-.166.079-.166.079-.167.077-.167.076-.168.076-.168.074-.169.073-.17.073-.17.071-.17.07-.171.07-.172.068-.172.067-.172.066-.173.066-.174.064-.174.063-.175.062-.175.061-.175.06-.176.059-.177.058-.177.057-.177.056-.178.055-.178.054-.179.052-.18.052-.179.05-.181.05-.18.048-.181.047-.182.046-.182.046-.182.043-.183.043-.183.042-.184.041-.184.039-.184.039-.185.037-.185.036-.186.035-.186.034-.187.033-.186.031-.188.031-.187.029-.188.028-.189.027-.188.026-.189.025-.19.023-.19.022-.19.022-.19.02-.191.018-.192.018-.191.016-.192.016-.192.014-.193.013-.193.011-.193.011-.193.009-.194.008-.194.007-.195.005-.195.004-.195.004-.195.001-.196.001H30.271l-.196-.001-.195-.001-.195-.004-.195-.004-.195-.005-.194-.007-.194-.008-.193-.009-.193-.011-.193-.011-.193-.013-.192-.014-.192-.016-.191-.016-.192-.018-.191-.018-.19-.02-.19-.022-.19-.022-.19-.023-.189-.025-.188-.026-.189-.027-.188-.028-.187-.029-.188-.031-.186-.031-.187-.033-.186-.034-.186-.035-.185-.036-.185-.037-.184-.039-.184-.039-.184-.041-.183-.042-.183-.043-.182-.043-.182-.046-.182-.046-.181-.047-.18-.048-.181-.05-.179-.05-.18-.052-.179-.052-.178-.054-.178-.055-.177-.056-.177-.057-.177-.058-.176-.059-.175-.06-.175-.061-.175-.062-.174-.063-.174-.064-.173-.066-.172-.066-.172-.067-.172-.068-.171-.07-.17-.07-.17-.071-.17-.073-.169-.073-.168-.074-.168-.076-.167-.076-.167-.077-.166-.079-.166-.079-.165-.08-.165-.081-.164-.083-.163-.083-.163-.084-.162-.085-.162-.086-.161-.087-.161-.088-.16-.088-.159-.09-.159-.091-.158-.092-.158-.092-.157-.094-.156-.094-.156-.095-.155-.096-.154-.098-.154-.098-.153-.099-.153-.099-.152-.101-.151-.102-.151-.102-.15-.104-.149-.104-.149-.105-.148-.106-.147-.107-.147-.107-.146-.109-.145-.109-.145-.111-.144-.111-.143-.112-.143-.113-.142-.113-.141-.115-.141-.115-.139-.116-.14-.117-.138-.118-.138-.118-.137-.12-.136-.12-.135-.121-.135-.122-.134-.122-.134-.124-.132-.124-.132-.125-.131-.125-.13-.127-.13-.127-.129-.128-.128-.129-.127-.13-.127-.13-.125-.131-.125-.132-.124-.132-.124-.134-.122-.134-.122-.135-.121-.135-.12-.136-.12-.137-.118-.138-.118-.138-.117-.14-.116-.139-.115-.141-.115-.141-.113-.142-.113-.143-.112-.143-.111-.144-.111-.145-.109-.145-.109-.146-.107-.147-.107-.147-.106-.148-.105-.149-.104-.149-.104-.15-.102-.151-.102-.151-.101-.152-.099-.153-.099-.153-.098-.154-.098-.154-.096-.155-.095-.156-.094-.156-.094-.157-.092-.158-.092-.158-.091-.159-.09-.159-.088-.16-.088-.161-.087-.161-.086-.162-.085-.162-.084-.163-.083-.163-.083-.164-.081-.165-.08-.165-.079-.166-.079-.166-.077-.167-.076-.167-.076-.168-.074-.168-.073-.169-.073-.17-.071-.17-.07-.17-.07-.171-.068-.172-.067-.172-.066-.172-.066-.173-.064-.174-.063-.174-.062-.175-.061-.175-.06-.175-.059-.176-.058-.177-.057-.177-.056-.177-.055-.178-.054-.178-.052-.179-.052-.18-.05-.179-.05-.181-.048-.18-.047-.181-.046-.182-.046-.182-.043-.182-.043-.183-.042-.183-.041-.184-.039-.184-.039-.184-.037-.185-.036-.185-.035-.186-.034-.186-.033-.187-.031-.186-.031-.188-.029-.187-.028-.188-.027-.189-.026-.188-.025-.189-.023-.19-.022-.19-.022-.19-.02-.19-.018-.191-.018-.192-.016-.191-.016-.192-.014-.192-.013-.193-.011-.193-.011-.193-.009-.193-.008-.194-.007-.194-.005-.195-.004-.195-.004-.195-.001-.195-.001-.196V30.271l.001-.196.001-.195.004-.195.004-.195.005-.195.007-.194.008-.194.009-.193.011-.193.011-.193.013-.193.014-.192.016-.192.016-.191.018-.192.018-.191.02-.19.022-.19.022-.19.023-.19.025-.189.026-.188.027-.189.028-.188.029-.187.031-.188.031-.186.033-.187.034-.186.035-.186.036-.185.037-.185.039-.184.039-.184.041-.184.042-.183.043-.183.043-.182.046-.182.046-.182.047-.181.048-.18.05-.181.05-.179.052-.18.052-.179.054-.178.055-.178.056-.177.057-.177.058-.177.059-.176.06-.175.061-.175.062-.175.063-.174.064-.174.066-.173.066-.172.067-.172.068-.172.07-.171.07-.17.071-.17.073-.17.073-.169.074-.168.076-.168.076-.167.077-.167.079-.166.079-.166.08-.165.081-.165.083-.164.083-.163.084-.163.085-.162.086-.162.087-.161.088-.161.088-.16.09-.159.091-.159.092-.158.092-.158.094-.157.094-.156.095-.156.096-.155.098-.154.098-.154.099-.153.099-.153.101-.152.102-.151.102-.151.104-.15.104-.149.105-.149.106-.148.107-.147.107-.147.109-.146.109-.145.111-.145.111-.144.112-.143.113-.143.113-.142.115-.141.115-.141.116-.139.117-.14.118-.138.118-.138.12-.137.12-.136.121-.135.122-.135.122-.134.124-.134.124-.132.125-.132.125-.131.127-.13.127-.13.128-.129.129-.128.13-.127.13-.127.131-.125.132-.125.132-.124.134-.124.134-.122.135-.122.135-.121.136-.12.137-.12.138-.118.138-.118.14-.117.139-.116.141-.115.141-.115.142-.113.143-.113.143-.112.144-.111.145-.111.145-.109.146-.109.147-.107.147-.107.148-.106.149-.105.149-.104.15-.104.151-.102.151-.102.152-.101.153-.099.153-.099.154-.098.154-.098.155-.096.156-.095.156-.094.157-.094.158-.092.158-.092.159-.091.159-.09.16-.088.161-.088.161-.087.162-.086.162-.085.163-.084.163-.083.164-.083.165-.081.165-.08.166-.079.166-.079.167-.077.167-.076.168-.076.168-.074.169-.073.17-.073.17-.071.17-.07.171-.07.172-.068.172-.067.172-.066.173-.066.174-.064.174-.063.175-.062.175-.061.175-.06.176-.059.177-.058.177-.057.177-.056.178-.055.178-.054.179-.052.18-.052.179-.05.181-.05.18-.048.181-.047.182-.046.182-.046.182-.043.183-.043.183-.042.184-.041.184-.039.184-.039.185-.037.185-.036.186-.035.186-.034.187-.033.186-.031.188-.031.187-.029.188-.028.189-.027.188-.026.189-.025.19-.023.19-.022.19-.022.19-.02.191-.018.192-.018.191-.016.192-.016.192-.014.193-.013.193-.011.193-.011.193-.009.194-.008.194-.007.195-.005.195-.004.195-.004.195-.001.196-.001h239.458l.196.001ZM30.296 16h-.12l-.093.001-.094.002-.093.002-.093.002-.093.004-.093.004-.092.004-.092.005-.092.005-.091.007-.091.006-.091.007-.091.008-.091.009-.09.008-.09.01-.09.01-.089.01-.089.011-.09.012-.088.012-.089.013-.088.013-.088.014-.088.014-.088.015-.087.015-.088.016-.087.017-.086.017-.087.017-.086.018-.086.018-.086.019-.086.02-.085.02-.085.021-.085.021-.085.021-.085.022-.084.023-.084.023-.084.023-.084.025-.084.024-.083.025-.083.026-.083.026-.082.026-.083.028-.082.027-.082.028-.082.029-.081.029-.082.029-.081.03-.081.031-.081.031-.08.031-.08.032-.08.033-.08.033-.08.033-.079.034-.079.034-.079.035-.079.035-.078.036-.078.036-.078.037-.078.037-.078.038-.077.038-.077.039-.077.039-.076.039-.077.04-.076.041-.076.041-.075.041-.075.042-.075.042-.075.043-.075.043-.074.044-.074.044-.074.044-.073.045-.073.046-.073.045-.073.047-.072.046-.073.048-.071.047-.072.048-.071.049-.071.049-.071.049-.07.05-.07.05-.07.051-.07.051-.069.051-.069.052-.068.052-.069.053-.068.053-.067.053-.068.054-.067.055-.066.054-.067.056-.066.055-.066.056-.065.056-.065.057-.065.057-.064.058-.064.057-.064.059-.063.058-.063.059-.063.06-.062.06-.062.06-.062.06-.061.061-.061.061-.06.062-.06.062-.06.062-.06.063-.059.063-.058.063-.059.064-.057.064-.058.064-.057.065-.057.065-.056.065-.056.066-.055.066-.056.067-.054.066-.055.067-.054.068-.053.067-.053.068-.053.069-.052.068-.052.069-.051.069-.051.07-.051.07-.05.07-.05.07-.049.071-.049.071-.049.071-.048.072-.047.071-.048.073-.046.072-.047.073-.045.073-.046.073-.045.073-.044.074-.044.074-.044.074-.043.075-.043.075-.042.075-.042.075-.041.075-.041.076-.041.076-.04.077-.039.076-.039.077-.039.077-.038.077-.038.078-.037.078-.037.078-.036.078-.036.078-.035.079-.035.079-.034.079-.034.079-.033.08-.033.08-.033.08-.032.08-.031.08-.031.081-.031.081-.03.081-.029.082-.029.081-.029.082-.028.082-.027.082-.028.083-.026.082-.026.083-.026.083-.025.083-.024.084-.025.084-.023.084-.023.084-.023.084-.022.085-.021.085-.021.085-.021.085-.02.085-.02.086-.019.086-.018.086-.018.086-.017.087-.017.086-.017.087-.016.088-.015.087-.015.088-.014.088-.014.088-.013.088-.013.089-.012.088-.012.09-.011.089-.01.089-.01.09-.01.09-.008.09-.009.091-.008.091-.007.091-.006.091-.007.091-.005.092-.005.092-.004.092-.004.093-.004.093-.002.093-.002.093-.002.094-.001.093v239.648l.001.093.004.187.002.093.008.186.004.092.01.184.007.091.006.091.007.091.008.091.009.091.008.09.02.18.01.089.011.089.012.09.012.088.013.089.013.088.028.176.015.088.015.087.016.087.051.261.018.086.019.086.018.086.02.086.02.085.021.085.021.086.021.084.022.085.069.252.025.084.024.084.025.083.078.249.028.082.027.082.028.082.029.082.029.081.029.082.03.081.062.162.031.08.032.08.099.24.034.08.034.078.07.158.072.156.074.156.038.078.038.077.117.231.04.076.04.075.041.076.042.077.042.074.042.075.043.075.043.074.044.075.088.148.09.146.047.074.092.144.048.073.048.072.047.071.049.071.048.071.05.071.05.07.05.071.051.069.05.069.052.07.052.069.052.068.053.069.053.068.053.067.055.068.054.067.055.067.054.065.056.067.056.066.056.065.114.13.057.064.058.064.118.128.059.062.058.062.061.064.06.061.06.062.122.122.062.061.061.059.126.12.063.059.063.058.064.059.064.057.064.058.13.114.065.056.066.056.066.055.067.056.066.054.068.055.067.054.067.053.136.106.068.052.07.052.069.052.069.05.071.051.14.1.071.05.071.048.071.049.071.048.073.047.072.048.072.047.072.045.073.046.074.046.073.045.074.044.074.045.148.086.076.043.074.042.075.042.152.082.077.041.076.04.077.039.076.04.231.114.078.037.078.036.079.037.079.036.156.07.079.034.08.034.081.034.078.032.081.033.081.032.079.031.162.062.082.03.081.029.08.029.083.029.164.056.083.027.164.052.085.026.083.025.082.024.084.024.085.024.168.046.085.022.086.022.083.02.086.021.085.02.085.019.087.02.172.036.086.017.088.017.087.017.087.016.174.03.088.014.089.014.176.026.091.012.088.012.089.011.089.01.18.02.09.008.09.009.091.008.184.014.091.006.09.005.093.005.093.004.092.004.093.004.092.002.188.004.093.001h239.648l.093-.001.094-.002.094-.002.092-.002.093-.004.092-.004.093-.004.093-.005.09-.005.091-.006.092-.007.092-.007.091-.008.09-.009.09-.008.09-.01.09-.01.089-.01.089-.011.088-.012.091-.012.088-.013.088-.013.089-.014.088-.014.087-.015.087-.015.087-.016.087-.017.088-.017.086-.017.086-.018.086-.018.087-.02.085-.019.085-.02.086-.021.084-.02.085-.022.085-.022.084-.023.084-.023.085-.024.084-.024.082-.024.083-.025.085-.026.082-.026.082-.026.083-.028.082-.027.082-.028.082-.029.081-.029.081-.029.082-.03.081-.031.081-.031.079-.031.081-.032.081-.033.078-.032.081-.034.081-.034.077-.034.078-.035.079-.035.079-.036.079-.036.078-.037.078-.037.077-.038.076-.038.078-.039.077-.039.076-.039.077-.04.075-.04.076-.041.077-.043.074-.041.075-.042.076-.043.074-.043.074-.043.074-.045.074-.044.073-.045.073-.046.074-.046.072-.045.071-.047.074-.048.072-.048.071-.047.071-.049.07-.048.072-.05.07-.05.071-.05.07-.051.068-.05.07-.052.07-.053.067-.051.069-.053.068-.053.067-.053.067-.054.068-.055.067-.055.065-.054.067-.057.066-.055.065-.056.065-.057.064-.057.065-.058.064-.057.064-.059.064-.059.062-.058.063-.06.063-.06.061-.059.062-.061.061-.061.061-.061.061-.062.059-.061.06-.063.06-.063.058-.062.059-.064.059-.064.057-.064.058-.065.057-.064.057-.065.056-.065.055-.066.057-.067.054-.065.055-.067.055-.068.054-.067.053-.067.053-.068.053-.069.051-.067.053-.07.052-.07.05-.068.051-.07.05-.071.05-.07.05-.072.048-.07.049-.071.047-.071.048-.072.048-.074.047-.071.045-.072.046-.074.046-.073.045-.073.044-.074.045-.074.043-.074.043-.074.043-.076.042-.075.041-.074.043-.077.041-.076.04-.075.04-.077.039-.076.039-.077.039-.078.038-.076.038-.077.037-.078.037-.078.036-.079.036-.079.035-.079.035-.078.034-.077.034-.081.034-.081.032-.078.033-.081.032-.081.031-.079.031-.081.031-.081.03-.082.029-.081.029-.081.029-.082.028-.082.027-.082.028-.083.026-.082.026-.082.026-.085.025-.083.024-.082.024-.084.024-.085.023-.084.023-.084.022-.085.022-.085.02-.084.021-.086.02-.085.019-.085.02-.087.018-.086.018-.086.017-.086.017-.088.017-.087.016-.087.015-.087.015-.087.014-.088.014-.089.013-.088.013-.088.012-.091.012-.088.011-.089.01-.089.01-.09.01-.09.008-.09.009-.09.008-.091.007-.092.007-.092.006-.091.005-.09.005-.093.004-.093.004-.092.004-.093.002-.092.002-.094.002-.094.001-.093V30.176l-.001-.093-.002-.094-.002-.094-.002-.092-.004-.093-.004-.092-.004-.093-.005-.093-.005-.09-.006-.091-.007-.092-.007-.092-.008-.091-.009-.09-.008-.09-.01-.09-.01-.09-.01-.089-.011-.089-.012-.088-.012-.091-.013-.088-.013-.088-.014-.089-.014-.088-.015-.087-.015-.087-.016-.087-.017-.087-.017-.088-.017-.086-.018-.086-.018-.086-.02-.087-.019-.085-.02-.085-.021-.086-.02-.083-.022-.086-.022-.085-.023-.084-.023-.084-.024-.085-.024-.084-.024-.082-.025-.083-.026-.085-.026-.082-.026-.082-.027-.083-.028-.082-.028-.082-.029-.083-.029-.08-.029-.081-.03-.082-.031-.081-.031-.081-.031-.079-.032-.081-.033-.081-.032-.078-.034-.081-.034-.08-.034-.079-.035-.078-.035-.078-.036-.079-.037-.079-.036-.078-.037-.078-.038-.077-.038-.077-.038-.077-.04-.076-.039-.077-.04-.076-.041-.077-.041-.076-.041-.076-.042-.075-.042-.074-.043-.076-.043-.074-.043-.074-.045-.074-.044-.074-.045-.073-.046-.074-.046-.073-.045-.072-.047-.072-.048-.072-.047-.073-.048-.071-.049-.071-.048-.071-.05-.071-.05-.07-.05-.07-.051-.071-.05-.069-.052-.069-.052-.07-.052-.068-.053-.068-.053-.068-.053-.067-.054-.067-.055-.068-.054-.066-.056-.067-.055-.066-.056-.066-.056-.065-.057-.065-.057-.065-.058-.064-.057-.064-.059-.064-.058-.063-.059-.063-.06-.063-.06-.063-.059-.061-.061-.062-.061-.061-.061-.061-.062-.06-.061-.06-.064-.061-.062-.058-.062-.059-.064-.059-.064-.059-.064-.058-.064-.057-.065-.057-.065-.057-.065-.056-.066-.056-.067-.056-.065-.054-.067-.055-.067-.054-.068-.055-.067-.053-.068-.053-.069-.053-.068-.052-.069-.052-.07-.052-.069-.05-.069-.051-.071-.05-.07-.05-.071-.05-.071-.048-.071-.049-.071-.047-.072-.048-.073-.048-.072-.046-.072-.046-.074-.047-.073-.045-.073-.045-.074-.044-.074-.044-.075-.044-.074-.043-.075-.043-.075-.042-.074-.042-.077-.042-.076-.041-.075-.04-.076-.04-.077-.039-.077-.039-.077-.039-.077-.038-.078-.038-.078-.037-.078-.037-.078-.036-.078-.036-.079-.035-.079-.035-.078-.034-.08-.034-.08-.033-.08-.033-.08-.033-.08-.032-.08-.031-.081-.031-.081-.031-.081-.03-.082-.029-.081-.029-.082-.029-.082-.028-.082-.027-.082-.028-.083-.026-.083-.026-.083-.026-.083-.025-.084-.024-.084-.025-.084-.023-.084-.023-.084-.023-.085-.022-.084-.021-.086-.021-.085-.021-.085-.02-.086-.02-.086-.018-.086-.019-.086-.018-.087-.017-.087-.017-.087-.017-.087-.016-.087-.015-.088-.015-.088-.014-.088-.014-.088-.013-.089-.013-.088-.012-.09-.012-.089-.011-.089-.01-.09-.01-.09-.01-.09-.008-.091-.009-.091-.008-.091-.007-.091-.006-.091-.007-.092-.005-.092-.005-.092-.004-.093-.004-.093-.004-.093-.002-.093-.002-.094-.002-.093-.001H30.296Z" style="fill:#2d67b9"/>
    <g>
        <path d="M259.395 93.085c0-8.208-12.003-14.873-26.787-14.873H67.392c-14.784 0-26.787 6.665-26.787 14.873v29.746c0 8.209 12.003 14.873 26.787 14.873h165.216c14.784 0 26.787-6.664 26.787-14.873V93.085Z" style="fill:#fffefe" transform="matrix(.91425 0 0 1.64663 12.863 21.213)"/>
        <path d="m232.781 78.213.346.002.172.002.344.006.172.004.342.01.17.006.171.006.34.014.169.008.17.009.168.009.169.01.168.011.168.01.168.012.167.012.334.026.332.028.166.015.33.032.165.017.164.017.328.036.326.038.163.02.162.021.161.021.162.021.161.022.16.023.161.023.16.024.159.024.318.05.158.026.158.027.314.054.157.028.156.028.156.029.31.06.155.031.154.031.153.031.153.032.153.033.304.066.151.034.302.07.15.036.298.072.149.037.296.076.147.038.292.078.146.04.29.082.144.041.144.042.143.042.426.129.141.045.14.044.14.045.14.046.139.046.138.046.138.047.137.047.137.048.136.048.405.147.134.05.133.05.133.051.132.051.132.052.131.052.13.053.13.052.258.108.128.054.127.054.127.055.252.112.125.056.124.056.124.058.123.057.123.058.121.058.122.059.24.118.238.12.118.061.234.122.116.062.115.062.115.063.114.063.113.063.113.064.112.064.111.064.111.065.109.065.11.065.108.066.108.067.107.066.212.134.105.068.208.136.204.138.102.07.1.069.1.07.099.071.196.142.097.071.096.072.19.144.094.073.093.073.092.073.182.148.09.075.089.074.176.15.087.076.086.076.085.076.084.077.084.076.082.078.082.077.162.156.079.078.079.079.077.078.077.08.076.079.076.08.148.16.144.162.071.081.07.081.07.082.136.164.066.082.066.083.065.083.064.083.063.084.124.168.06.084.06.085.058.084.058.085.057.086.056.085.055.086.054.086.053.086.052.087.051.087.051.086.049.088.049.087.094.176.09.176.044.089.043.088.082.178.04.09.039.089.038.09.037.09.036.09.035.091.034.091.033.09.032.091.031.092.03.091.029.092.028.091.027.092.026.093.024.092.024.093.023.092.022.093.021.093.02.094.018.093.018.094.017.093.03.188.013.095.013.094.011.095.01.095.01.094.008.096.007.095.006.095.005.096.003.095.003.096.002.096v29.938l-.002.096-.003.096-.003.096-.005.095-.006.096-.007.095-.008.095-.01.095-.01.095-.011.094-.013.095-.013.094-.015.094-.015.094-.017.094-.018.094-.018.093-.02.093-.021.093-.022.093-.023.093-.024.093-.024.092-.026.092-.027.092-.028.092-.029.091-.03.092-.031.091-.032.091-.033.091-.034.091-.035.09-.036.09-.037.09-.038.09-.039.09-.04.089-.041.089-.041.089-.043.089-.044.089-.045.088-.045.088-.047.088-.047.087-.049.088-.049.087-.051.087-.051.087-.052.086-.053.086-.054.086-.055.086-.056.086-.057.085-.058.085-.058.085-.06.084-.06.085-.062.084-.062.084-.063.083-.064.083-.065.083-.066.083-.066.083-.068.082-.068.082-.07.081-.07.082-.071.081-.072.081-.072.08-.074.081-.074.08-.076.079-.076.08-.077.079-.077.079-.079.078-.079.079-.081.078-.081.078-.082.077-.082.077-.084.077-.084.076-.085.077-.086.075-.087.076-.088.075-.088.075-.089.075-.09.074-.091.074-.091.074-.092.073-.093.074-.094.072-.095.073-.095.072-.096.071-.097.072-.098.071-.098.071-.099.07-.1.07-.1.07-.102.069-.102.069-.102.069-.104.068-.104.068-.105.068-.106.067-.106.067-.107.067-.108.066-.108.066-.11.066-.109.065-.111.064-.111.065-.112.064-.113.064-.113.063-.114.063-.115.062-.115.062-.116.062-.117.062-.117.061-.118.06-.119.06-.119.06-.12.06-.12.059-.122.058-.121.059-.123.058-.123.057-.124.057-.124.057-.125.056-.126.056-.126.055-.127.055-.127.055-.128.054-.129.054-.129.053-.13.053-.13.052-.131.053-.132.051-.132.051-.133.051-.133.051-.134.049-.135.05-.135.049-.135.049-.136.048-.137.047-.137.048-.138.047-.138.046-.139.046-.14.045-.14.045-.14.045-.141.044-.142.044-.142.043-.142.043-.143.042-.144.042-.144.041-.145.041-.145.04-.146.04-.146.039-.146.039-.147.039-.148.038-.148.037-.149.037-.149.037-.149.036-.15.035-.151.036-.151.034-.151.034-.152.034-.152.033-.153.032-.153.032-.153.032-.154.031-.155.031-.155.03-.155.029-.156.029-.156.029-.157.027-.157.028-.157.027-.158.026-.158.026-.159.025-.159.025-.159.025-.16.023-.161.023-.16.023-.161.022-.162.022-.161.021-.162.02-.163.02-.163.02-.163.019-.164.018-.164.018-.164.017-.165.017-.165.016-.165.015-.166.015-.166.015-.166.013-.167.014-.167.012-.167.012-.168.012-.168.011-.168.01-.169.01-.168.009-.17.009-.169.008-.17.008-.17.007-.171.006-.17.006-.171.005-.171.004-.172.004-.172.003-.172.003-.172.002-.173.002-.173.001H67.219l-.173-.001-.173-.002-.172-.002-.172-.003-.172-.003-.172-.004-.171-.004-.171-.005-.17-.006-.171-.006-.17-.007-.17-.008-.169-.008-.17-.009-.168-.009-.169-.01-.168-.01-.168-.011-.168-.012-.167-.012-.167-.012-.167-.014-.166-.013-.166-.015-.166-.015-.165-.015-.165-.016-.165-.017-.164-.017-.164-.018-.164-.018-.163-.019-.163-.02-.163-.02-.162-.02-.161-.021-.162-.022-.161-.022-.16-.023-.161-.023-.16-.023-.159-.025-.159-.025-.159-.025-.158-.026-.158-.026-.157-.027-.157-.028-.157-.027-.156-.029-.156-.029-.155-.029-.155-.03-.155-.031-.154-.031-.153-.032-.153-.032-.153-.032-.152-.033-.152-.034-.151-.034-.151-.034-.151-.036-.15-.035-.149-.036-.149-.037-.149-.037-.148-.037-.148-.038-.147-.039-.146-.039-.146-.039-.146-.04-.145-.04-.145-.041-.144-.041-.144-.042-.143-.042-.142-.043-.142-.043-.142-.044-.141-.044-.14-.045-.14-.045-.14-.045-.139-.046-.138-.046-.138-.047-.137-.048-.137-.047-.136-.048-.135-.049-.135-.049-.135-.05-.134-.049-.133-.051-.133-.051-.132-.051-.132-.051-.131-.053-.13-.052-.13-.053-.129-.053-.129-.054-.128-.054-.127-.055-.127-.055-.126-.055-.126-.056-.125-.056-.124-.057-.124-.057-.123-.057-.123-.058-.121-.059-.122-.058-.12-.059-.12-.06-.119-.06-.119-.06-.118-.06-.117-.061-.117-.062-.116-.062-.115-.062-.115-.062-.114-.063-.113-.063-.113-.064-.112-.064-.111-.065-.111-.064-.109-.065-.11-.066-.108-.066-.108-.066-.107-.067-.106-.067-.106-.067-.105-.068-.104-.068-.104-.068-.102-.069-.102-.069-.102-.069-.1-.07-.1-.07-.099-.07-.098-.071-.098-.071-.097-.072-.096-.071-.095-.072-.095-.073-.094-.072-.093-.074-.092-.073-.091-.074-.091-.074-.09-.074-.089-.075-.088-.075-.088-.075-.087-.076-.086-.075-.085-.077-.084-.076-.084-.077-.082-.077-.082-.077-.081-.078-.081-.078-.079-.079-.079-.078-.077-.079-.077-.079-.076-.08-.076-.079-.074-.08-.074-.081-.072-.08-.072-.081-.071-.081-.07-.082-.07-.081-.068-.082-.068-.082-.066-.083-.066-.083-.065-.083-.064-.083-.063-.083-.062-.084-.062-.084-.06-.085-.06-.084-.058-.085-.058-.085-.057-.085-.056-.086-.055-.086-.054-.086-.053-.086-.052-.086-.051-.087-.051-.087-.049-.087-.049-.088-.047-.087-.047-.088-.045-.088-.045-.088-.044-.089-.043-.089-.041-.089-.041-.089-.04-.089-.039-.09-.038-.09-.037-.09-.036-.09-.035-.09-.034-.091-.033-.091-.032-.091-.031-.091-.03-.092-.029-.091-.028-.092-.027-.092-.026-.092-.024-.092-.024-.093-.023-.093-.022-.093-.021-.093-.02-.093-.018-.093-.018-.094-.017-.094-.015-.094-.015-.094-.013-.094-.013-.095-.011-.094-.01-.095-.01-.095-.008-.095-.007-.095-.006-.096-.005-.095-.003-.096-.003-.096-.002-.096V92.989l.002-.096.003-.096.003-.095.005-.096.006-.095.007-.095.008-.096.01-.094.01-.095.011-.095.013-.094.013-.095.015-.094.015-.094.017-.093.018-.094.018-.093.02-.094.021-.093.022-.093.023-.092.024-.093.024-.092.026-.093.027-.092.028-.091.029-.092.03-.091.031-.092.032-.091.033-.09.034-.091.035-.091.036-.09.037-.09.038-.09.039-.089.04-.09.041-.089.041-.089.043-.088.044-.089.045-.088.045-.088.047-.088.047-.088.049-.087.049-.088.051-.086.051-.087.052-.087.053-.086.054-.086.055-.086.056-.085.057-.086.058-.085.058-.084.06-.085.06-.084.062-.084.062-.084.063-.084.064-.083.065-.083.066-.083.066-.082.068-.082.068-.082.07-.082.07-.081.071-.081.072-.081.072-.081.074-.08.074-.08.076-.08.076-.079.077-.08.077-.078.079-.079.079-.078.081-.078.081-.078.082-.077.082-.078.084-.076.084-.077.085-.076.086-.076.087-.076.088-.075.088-.075.089-.074.09-.075.091-.074.091-.074.092-.073.093-.073.094-.073.095-.072.095-.072.096-.072.097-.071.098-.071.098-.071.099-.071.1-.07.1-.069.102-.07.102-.069.102-.069.104-.068.104-.068.105-.068.106-.067.106-.067.107-.066.108-.067.108-.066.11-.065.109-.065.111-.065.111-.064.112-.064.113-.064.113-.063.114-.063.115-.063.115-.062.116-.062.117-.061.117-.061.118-.061.119-.06.119-.06.12-.059.12-.059.122-.059.121-.058.123-.058.123-.057.124-.058.124-.056.125-.056.126-.056.126-.056.127-.055.127-.054.128-.054.129-.054.129-.054.13-.052.13-.053.131-.052.132-.052.132-.051.133-.051.133-.05.134-.05.135-.049.135-.049.135-.049.136-.048.137-.048.137-.047.138-.047.138-.046.139-.046.14-.046.14-.045.14-.044.141-.045.142-.043.142-.043.142-.043.143-.042.144-.042.144-.041.145-.041.145-.041.146-.04.146-.039.146-.039.147-.038.148-.038.148-.038.149-.037.149-.036.149-.036.15-.036.151-.035.151-.035.151-.034.152-.033.152-.033.153-.033.153-.032.153-.031.154-.031.155-.031.155-.03.155-.03.156-.029.156-.028.157-.028.157-.027.157-.027.158-.027.158-.026.159-.025.159-.025.159-.024.16-.024.161-.023.16-.023.161-.022.162-.021.161-.021.162-.021.163-.02.163-.019.163-.019.164-.018.164-.018.164-.017.165-.017.165-.016.165-.016.166-.015.166-.014.166-.014.167-.013.167-.013.167-.012.168-.012.168-.01.168-.011.169-.01.168-.009.17-.009.169-.008.17-.007.17-.007.171-.006.17-.006.171-.005.171-.005.172-.004.172-.003.172-.003.172-.002.173-.001.173-.001.173-.001h165.216l.173.001ZM67.412 85.5h-.11l-.09.001-.089.001-.089.001-.089.001-.089.002-.088.002-.088.002-.089.003-.087.003-.087.003-.088.003-.087.004-.086.004-.087.005-.087.005-.086.005-.086.005-.085.005-.086.006-.085.007-.085.006-.085.007-.085.007-.084.007-.084.008-.084.008-.084.008-.083.008-.084.009-.083.009-.082.009-.084.01-.082.01-.082.01-.082.01-.082.011-.082.011-.082.011-.081.011-.081.012-.081.012-.081.012-.08.013-.08.013-.08.013-.08.013-.08.014-.079.014-.08.014-.078.014-.079.015-.079.015-.078.015-.078.016-.079.015-.077.016-.078.016-.077.017-.077.017-.077.017-.077.017-.076.017-.077.018-.076.018-.076.019-.075.018-.075.019-.075.019-.076.019-.074.02-.075.019-.074.02-.074.021-.074.02-.073.021-.074.021-.072.021-.073.022-.073.022-.073.022-.072.022-.071.022-.072.023-.072.023-.071.023-.07.024-.071.023-.07.024-.07.024-.07.025-.07.024-.069.025-.069.025-.069.025-.068.026-.068.026-.068.026-.068.026-.067.026-.067.027-.067.027-.067.027-.066.027-.066.028-.065.028-.066.028-.065.028-.065.028-.064.029-.064.029-.064.029-.063.029-.064.03-.062.029-.063.03-.062.03-.062.031-.062.03-.061.031-.061.031-.06.031-.061.031-.059.032-.06.032-.059.031-.059.033-.059.032-.058.032-.057.033-.058.033-.058.033-.056.033-.056.034-.057.033-.055.034-.056.034-.055.034-.054.035-.054.034-.054.035-.054.035-.053.035-.053.035-.052.036-.052.035-.052.036-.051.036-.05.036-.051.036-.05.037-.05.036-.049.037-.049.037-.048.037-.048.037-.048.038-.047.037-.047.038-.046.038-.046.038-.046.038-.045.038-.044.039-.045.038-.044.039-.043.039-.043.039-.043.039-.042.04-.042.039-.041.04-.041.04-.04.039-.041.041-.039.04-.039.04-.039.04-.038.041-.038.041-.038.041-.037.04-.036.042-.036.041-.036.041-.035.042-.035.041-.034.042-.034.042-.033.042-.033.042-.033.042-.031.042-.032.043-.031.043-.031.042-.03.043-.03.043-.029.043-.029.043-.028.044-.028.043-.027.043-.027.044-.027.044-.025.044-.026.044-.025.044-.024.044-.024.044-.024.045-.023.044-.023.045-.022.045-.021.045-.022.045-.02.045-.02.045-.02.046-.019.045-.019.046-.018.045-.018.046-.017.046-.017.046-.016.046-.016.047-.015.046-.015.046-.014.047-.014.047-.013.047-.013.047-.012.047-.011.047-.011.047-.011.048-.01.047-.01.048-.009.048-.008.048-.008.048-.008.048-.007.048-.006.049-.006.048-.005.049-.005.049-.004.049-.004.049-.003.049-.002.05-.002.049-.002.05-.001.049v29.846l.001.05.006.148.003.05.008.098.005.049.005.048.006.049.006.048.007.048.008.049.016.096.009.048.01.047.01.048.011.047.011.048.011.047.012.047.026.094.014.047.014.046.015.047.015.046.032.092.017.047.017.045.036.092.019.046.019.045.02.045.02.046.02.045.021.045.022.045.022.044.046.09.048.088.024.045.025.044.026.044.025.044.027.043.054.088.056.086.029.044.029.042.06.086.062.086.031.042.033.042.032.043.066.084.034.042.034.041.035.042.035.041.036.042.036.041.111.123.038.04.038.041.039.041.078.08.041.04.04.04.041.04.083.079.042.039.129.117.044.039.045.039.044.038.045.038.046.039.092.076.047.037.047.038.096.074.049.038.048.036.049.037.05.037.05.036.051.037.05.036.051.035.104.072.052.035.053.036.053.035.054.034.053.035.055.035.054.034.055.034.112.068.055.034.057.033.057.034.057.033.057.032.116.066.177.096.06.032.059.031.061.032.061.031.06.031.061.03.062.031.186.09.064.03.063.03.063.029.128.058.064.028.065.029.13.056.066.028.067.027.066.028.066.027.066.026.067.027.068.027.068.026.067.026.069.025.068.026.207.075.07.025.069.024.071.024.14.048.072.023.071.024.071.022.071.023.072.023.072.022.146.044.072.021.073.021.148.042.073.021.148.04.075.02.074.019.076.02.075.019.075.018.075.019.228.054.077.018.154.034.076.016.078.017.156.032.077.016.078.015.079.016.078.014.08.015.079.015.158.028.079.013.081.014.16.026.081.012.08.012.162.024.082.012.162.022.083.01.082.011.082.01.083.01.082.009.083.01.083.009.083.008.084.009.168.016.084.007.085.008.084.007.085.006.085.007.086.006.17.012.086.005.087.005.086.005.086.004.174.008.088.004.088.003.086.003.089.002.088.003.088.002.089.001.089.002.178.002h165.576l.089-.001.089-.001.089-.002.089-.001.088-.002.088-.003.089-.002.086-.003.088-.003.088-.004.087-.004.087-.004.086-.004.086-.005.087-.005.086-.005.085-.006.085-.006.086-.006.085-.007.085-.006.084-.007.085-.008.084-.007.084-.008.084-.008.084-.009.083-.008.083-.009.083-.01.082-.009.083-.01.083-.01.081-.011.083-.01.081-.011.081-.011.082-.012.081-.012.081-.012.08-.012.081-.012.081-.013.078-.013.082-.014.079-.013.079-.014.079-.014.079-.015.079-.014.079-.015.079-.016.078-.015.077-.016.078-.016.078-.016.078-.017.076-.016.077-.017.077-.017.077-.018.076-.018.076-.018.076-.018.075-.019.075-.018.075-.019.075-.02.075-.019.075-.02.074-.02.074-.02.074-.021.073-.021.074-.021.073-.021.073-.021.072-.022.073-.022.072-.022.071-.023.072-.023.071-.022.071-.024.072-.023.07-.024.07-.024.071-.024.069-.024.07-.025.069-.025.069-.025.069-.025.069-.026.068-.025.067-.026.068-.026.068-.027.067-.027.067-.027.065-.026.066-.028.067-.027.065-.028.066-.028.065-.028.064-.029.065-.028.064-.029.064-.029.063-.029.064-.03.063-.03.062-.03.062-.03.062-.03.062-.031.061-.03.061-.031.06-.031.06-.032.061-.031.059-.032.059-.032.059-.032.059-.032.058-.033.058-.033.057-.032.057-.033.057-.034.057-.033.056-.034.056-.034.054-.033.055-.035.056-.034.054-.035.053-.034.054-.035.053-.036.053-.035.052-.035.052-.036.052-.036.051-.035.05-.036.051-.037.05-.036.05-.037.049-.037.048-.036.049-.038.048-.037.048-.037.047-.038.046-.037.047-.038.046-.038.045-.038.045-.039.045-.038.045-.039.043-.039.044-.039.043-.039.042-.038.043-.04.042-.04.041-.039.041-.04.04-.04.04-.04.04-.04.039-.04.039-.041.038-.041.038-.04.038-.041.037-.041.036-.041.036-.041.036-.042.035-.041.035-.042.034-.041.034-.042.033-.042.033-.042.032-.043.032-.042.032-.042.031-.043.031-.043.03-.042.029-.043.03-.044.029-.043.028-.043.028-.043.027-.044.027-.043.027-.045.026-.044.025-.043.025-.044.024-.044.025-.045.023-.044.023-.045.023-.045.022-.044.022-.045.021-.045.02-.045.021-.046.019-.045.019-.046.019-.045.018-.046.018-.046.017-.045.017-.046.016-.047.016-.046.015-.046.015-.047.014-.046.014-.047.013-.047.013-.047.012-.047.011-.047.012-.048.01-.047.01-.048.01-.047.009-.049.008-.047.008-.048.008-.049.007-.048.006-.048.006-.049.005-.048.005-.049.004-.05.004-.048.003-.05.002-.049.002-.049.002-.05.001-.05V93.036l-.001-.05-.002-.05-.002-.049-.002-.05-.003-.049-.004-.049-.004-.049-.005-.049-.005-.048-.006-.049-.006-.049-.007-.048-.008-.049-.008-.047-.008-.048-.009-.048-.01-.048-.01-.047-.01-.047-.012-.048-.011-.047-.012-.047-.013-.047-.013-.047-.014-.047-.014-.046-.015-.047-.015-.047-.016-.046-.016-.046-.017-.046-.017-.046-.018-.046-.018-.045-.019-.046-.019-.046-.019-.045-.021-.045-.02-.045-.021-.045-.022-.045-.022-.045-.023-.045-.023-.044-.023-.044-.025-.045-.024-.044-.025-.044-.025-.044-.026-.044-.027-.044-.027-.044-.027-.043-.028-.044-.028-.042-.029-.044-.03-.043-.029-.043-.03-.042-.031-.043-.031-.043-.032-.043-.031-.042-.033-.042-.033-.042-.033-.042-.034-.042-.034-.042-.035-.041-.035-.042-.036-.041-.036-.042-.036-.04-.037-.041-.038-.041-.038-.041-.038-.041-.039-.04-.039-.04-.04-.041-.04-.04-.04-.04-.041-.039-.041-.04-.042-.039-.043-.04-.042-.039-.043-.039-.043-.039-.044-.038-.045-.039-.044-.039-.046-.038-.045-.038-.046-.038-.047-.038-.046-.037-.047-.038-.048-.038-.048-.037-.048-.037-.049-.037-.049-.036-.05-.037-.05-.037-.051-.036-.05-.036-.052-.036-.051-.036-.052-.035-.052-.036-.053-.035-.053-.035-.054-.035-.054-.035-.053-.034-.056-.035-.055-.034-.055-.034-.055-.034-.057-.033-.056-.034-.056-.033-.058-.033-.058-.033-.057-.033-.058-.032-.059-.032-.059-.033-.059-.032-.059-.031-.061-.032-.06-.031-.06-.031-.061-.031-.062-.031-.061-.03-.062-.031-.063-.03-.062-.03-.062-.029-.064-.03-.063-.029-.064-.029-.064-.029-.065-.029-.064-.028-.065-.028-.066-.029-.065-.027-.066-.028-.066-.027-.066-.027-.068-.027-.067-.027-.067-.026-.068-.026-.068-.026-.068-.026-.068-.026-.069-.025-.069-.025-.069-.025-.07-.024-.07-.025-.07-.024-.07-.024-.071-.023-.07-.024-.072-.023-.071-.023-.072-.023-.071-.022-.072-.022-.073-.022-.072-.022-.074-.022-.072-.021-.074-.021-.073-.021-.074-.02-.074-.02-.074-.021-.075-.019-.075-.02-.075-.019-.075-.019-.075-.019-.075-.018-.076-.019-.076-.018-.077-.018-.076-.017-.077-.017-.077-.017-.077-.017-.078-.017-.077-.016-.077-.016-.078-.015-.079-.016-.078-.015-.079-.015-.079-.015-.078-.014-.08-.014-.079-.014-.08-.014-.08-.013-.08-.013-.08-.013-.08-.013-.081-.012-.081-.012-.081-.012-.081-.011-.082-.011-.082-.011-.082-.011-.081-.01-.083-.01-.082-.01-.083-.01-.083-.009-.083-.009-.084-.009-.083-.008-.084-.008-.084-.008-.084-.008-.084-.007-.085-.007-.085-.007-.085-.006-.085-.007-.086-.006-.085-.005-.086-.005-.086-.005-.087-.005-.087-.005-.086-.004-.087-.004-.088-.003-.087-.003-.087-.003-.089-.003-.088-.002-.088-.002-.089-.002-.089-.001-.089-.001-.089-.001-.09-.001H67.412Z" style="fill:#2d67b9" transform="matrix(.91425 0 0 1.64663 12.863 21.213)"/>
        <path d="M259.395 93.085c0-8.208-3.671-14.873-8.193-14.873H48.798c-4.522 0-8.193 6.665-8.193 14.873v29.746c0 8.209 3.671 14.873 8.193 14.873h202.404c4.522 0 8.193-6.664 8.193-14.873V93.085Z" style="fill:#fffefe" transform="matrix(.67934 0 0 .37425 48.099 175.709)"/>
        <path d="m251.308 78.214.105.003.105.006.105.009.105.011.104.013.104.015.103.018.103.021.103.022.102.025.102.027.101.029.102.032.1.034.1.036.1.038.099.041.099.042.099.045.097.047.098.049.097.051.096.054.096.055.096.057.095.06.094.062.094.063.093.066.093.067.092.07.092.072.091.073.09.076.09.077.089.079.089.082.088.083.087.085.087.086.086.089.085.091.085.092.084.094.084.096.083.098.082.099.081.101.081.103.08.105.079.106.078.108.078.109.077.112.076.112.076.115.075.116.074.118.073.119.072.121.072.122.071.124.069.126.07.127.068.128.067.13.067.131.066.133.064.134.064.136.063.137.063.139.061.139.12.284.058.144.058.145.057.146.055.148.055.149.054.15.053.152.052.153.05.154.05.155.049.156.048.157.047.159.045.16.045.161.044.162.043.163.041.164.041.165.039.166.076.336.036.169.035.171.034.171.033.172.062.348.029.175.028.176.027.177.026.177.025.179.023.179.023.18.021.182.02.181.036.366.016.185.015.185.014.185.012.187.011.187.01.187.016.378.006.189.008.382.002.191v30.13l-.002.192-.004.191-.004.19-.006.19-.008.189-.008.188-.01.188-.011.187-.012.186-.014.186-.015.185-.016.184-.018.183-.018.183-.02.182-.021.181-.023.18-.023.18-.025.178-.026.178-.027.177-.028.176-.029.175-.031.174-.031.173-.033.172-.034.172-.035.17-.036.169-.038.169-.038.167-.039.166-.041.166-.041.164-.043.163-.044.162-.045.161-.045.159-.047.159-.048.157-.049.157-.05.155-.05.154-.052.153-.053.151-.054.15-.055.149-.055.148-.057.147-.058.145-.058.143-.06.143-.06.141-.061.14-.063.138-.063.137-.064.136-.064.134-.066.133-.067.132-.067.129-.068.129-.07.127-.069.125-.071.124-.072.123-.072.12-.073.12-.074.117-.075.117-.076.114-.076.113-.077.111-.078.11-.078.108-.079.106-.08.105-.081.102-.081.102-.082.099-.083.098-.084.095-.084.095-.085.092-.085.09-.086.089-.087.087-.087.085-.088.083-.089.081-.089.079-.09.078-.09.075-.091.074-.092.071-.092.07-.093.068-.093.065-.094.064-.094.062-.095.059-.096.058-.096.055-.096.053-.097.051-.098.05-.097.046-.099.045-.099.043-.099.04-.1.039-.1.036-.1.034-.102.031-.101.03-.102.027-.102.024-.103.023-.103.02-.103.018-.104.016-.104.013-.105.011-.105.008-.105.006-.105.004-.106.001H48.798l-.106-.001-.105-.004-.105-.006-.105-.008-.105-.011-.104-.013-.104-.016-.103-.018-.103-.02-.103-.023-.102-.024-.102-.027-.101-.03-.102-.031-.1-.034-.1-.036-.1-.039-.099-.04-.099-.043-.099-.045-.097-.046-.098-.05-.097-.051-.096-.053-.096-.055-.096-.058-.095-.059-.094-.062-.094-.064-.093-.065-.093-.068-.092-.07-.092-.071-.091-.074-.09-.075-.09-.078-.089-.079-.089-.081-.088-.083-.087-.085-.087-.087-.086-.089-.085-.09-.085-.092-.084-.095-.084-.095-.083-.098-.082-.099-.081-.102-.081-.102-.08-.105-.079-.106-.078-.108-.078-.11-.077-.111-.076-.113-.076-.114-.075-.117-.074-.117-.073-.12-.072-.12-.072-.123-.071-.124-.069-.125-.07-.127-.068-.129-.067-.129-.067-.132-.066-.133-.064-.134-.064-.136-.063-.137-.063-.138-.061-.14-.06-.141-.06-.143-.058-.143-.058-.145-.057-.147-.055-.148-.055-.149-.054-.15-.053-.151-.052-.153-.05-.154-.05-.155-.049-.157-.048-.157-.047-.159-.045-.159-.045-.161-.044-.162-.043-.163-.041-.164-.041-.166-.039-.166-.038-.167-.038-.169-.036-.169-.035-.17-.034-.172-.033-.172-.031-.173-.031-.174-.029-.175-.028-.176-.027-.177-.026-.178-.025-.178-.023-.18-.023-.18-.021-.181-.02-.182-.018-.183-.018-.183-.016-.184-.015-.185-.014-.186-.012-.186-.011-.187-.01-.188-.008-.188-.008-.189-.006-.19-.004-.19-.004-.191-.002-.192v-30.13l.002-.191.004-.191.004-.191.006-.189.008-.189.008-.189.01-.187.011-.187.012-.187.014-.185.015-.185.016-.185.018-.183.018-.183.02-.181.021-.182.023-.18.023-.179.025-.179.026-.177.027-.177.028-.176.029-.175.031-.174.031-.174.033-.172.034-.171.035-.171.036-.169.038-.168.038-.168.039-.166.041-.165.041-.164.043-.163.044-.162.045-.161.045-.16.047-.159.048-.157.049-.156.05-.155.05-.154.052-.153.053-.152.054-.15.055-.149.055-.148.057-.146.058-.145.058-.144.06-.142.06-.142.061-.139.063-.139.063-.137.064-.136.064-.134.066-.133.067-.131.067-.13.068-.128.07-.127.069-.126.071-.124.072-.122.072-.121.073-.119.074-.118.075-.116.076-.115.076-.112.077-.112.078-.109.078-.108.079-.106.08-.105.081-.103.081-.101.082-.099.083-.098.084-.096.084-.094.085-.092.085-.091.086-.089.087-.086.087-.085.088-.083.089-.082.089-.079.09-.077.09-.076.091-.073.092-.072.092-.07.093-.067.093-.066.094-.063.094-.062.095-.06.096-.057.096-.055.096-.054.097-.051.098-.049.097-.047.099-.045.099-.042.099-.041.1-.038.1-.036.1-.034.102-.032.101-.029.102-.027.102-.025.103-.022.103-.021.103-.018.104-.015.104-.013.105-.011.105-.009.105-.006.105-.003.106-.002h202.404l.106.002ZM48.822 91.573H48.773l-.012.001-.011.001-.012.001-.011.002-.01.001-.011.002-.011.002-.011.003-.01.002-.01.003-.01.003-.01.003-.009.003-.01.003-.01.004-.009.004-.009.004-.011.004-.008.005-.009.004-.009.005-.009.005-.01.005-.008.006-.01.006-.009.006-.008.005-.009.006-.009.007-.009.007-.009.007-.008.006-.009.008-.009.008-.009.007-.009.008-.009.009-.009.009-.008.008-.008.009-.009.009-.009.01-.009.009-.008.01-.008.01-.01.011-.008.011-.008.01-.009.011-.008.011-.008.011-.008.012-.009.012-.008.012-.008.013-.008.012-.008.013-.008.013-.008.012-.008.014-.008.014-.007.013-.007.013-.008.014-.007.015-.007.013-.007.015-.008.015-.006.014-.007.015-.007.015-.007.015-.006.015-.006.015-.006.015-.006.015-.006.015-.006.016-.006.016-.005.015-.006.015-.005.017-.006.016-.004.015-.005.016-.005.015-.005.016-.004.017-.005.015-.004.016-.004.016-.004.017-.004.014-.004.017-.004.017-.003.015-.004.016-.003.016-.003.017-.003.016-.003.016-.003.017-.003.016-.003.016-.002.018-.003.017-.002.016-.002.017-.002.018-.002.016-.002.018-.002.018-.002.018-.001.018-.002.018-.001.019-.001.019-.002.019-.001.02-.001.02v.02l-.001.02-.001.022v29.879l.002.042v.02l.002.039.002.019.002.038.002.019.001.018.006.053.008.068.003.017.002.017.006.032.006.034.006.032.007.032.003.016.016.064.004.017.004.015.005.016.004.016.015.048.005.015.01.032.006.015.005.016.006.016.006.015.006.016.006.014.006.016.006.015.013.03.007.015.007.014.006.015.008.015.021.042.008.014.007.013.007.014.008.014.032.052.016.024.008.013.009.012.008.011.008.012.008.011.017.021.008.011.009.01.009.011.017.019.009.009.017.019.009.009.008.007.009.009.027.024.017.014.018.014.018.012.017.012.01.006.018.011.009.005.026.013.02.009.009.003.02.008.009.003.02.006.01.002.01.003.033.006.01.002.034.003.025.002h202.428l.013-.001.012-.001.011-.001.012-.001.011-.001.01-.002.011-.002.011-.002.011-.002.01-.003.01-.002.01-.003.01-.003.009-.003.01-.004.01-.004.009-.003.009-.004.01-.005.009-.004.009-.005.009-.004.009-.005.01-.006.008-.005.01-.006.009-.006.008-.006.009-.006.009-.006.009-.007.009-.007.008-.007.01-.008.008-.007.009-.008.01-.009.008-.008.008-.007.009-.009.008-.009.009-.009.009-.01.008-.009.009-.01.009-.011.009-.01.008-.01.008-.011.009-.011.008-.011.008-.012.009-.012.008-.011.008-.013.008-.012.008-.012.008-.013.009-.014.007-.012.007-.013.009-.014.007-.014.007-.012.008-.015.007-.014.007-.014.008-.015.007-.015.006-.014.007-.014.007-.015.006-.015.007-.016.006-.014.006-.015.006-.016.006-.015.006-.015.006-.016.005-.016.006-.015.005-.016.005-.015.006-.017.004-.015.005-.015.005-.017.004-.016.005-.015.004-.016.004-.017.004-.016.004-.015.004-.017.004-.016.003-.015.004-.017.003-.016.003-.017.003-.016.003-.016.003-.015.003-.018.003-.016.002-.017.003-.017.002-.017.002-.017.002-.017.002-.018.002-.016.002-.019.002-.018.001-.017.002-.018.001-.02.001-.019.002-.018.001-.02.001-.021v-.02l.001-.02v-.021l.001-.022V93.04l-.001-.021v-.022l-.001-.02v-.019l-.001-.022-.001-.02-.002-.018-.001-.019-.001-.02-.002-.018-.001-.016-.002-.019-.002-.019-.002-.016-.002-.018-.002-.017-.002-.016-.002-.017-.003-.018-.002-.016-.003-.016-.003-.018-.003-.016-.003-.015-.003-.017-.003-.016-.003-.017-.004-.016-.003-.016-.004-.015-.004-.017-.004-.016-.004-.016-.004-.016-.004-.016-.005-.015-.004-.016-.005-.017-.005-.015-.004-.016-.006-.016-.005-.015-.005-.017-.006-.015-.005-.015-.006-.017-.006-.014-.006-.015-.006-.017-.006-.014-.006-.014-.007-.016-.006-.016-.007-.015-.007-.014-.006-.014-.007-.015-.008-.015-.007-.013-.007-.014-.008-.015-.007-.012-.007-.014-.009-.015-.007-.012-.007-.013-.009-.013-.008-.013-.008-.013-.008-.012-.008-.012-.008-.012-.009-.012-.008-.011-.008-.011-.009-.011-.008-.01-.008-.011-.009-.011-.009-.01-.008-.01-.009-.009-.009-.011-.009-.009-.008-.008-.008-.008-.009-.009-.009-.008-.009-.009-.009-.008-.008-.007-.01-.008-.008-.006-.009-.007-.009-.007-.009-.007-.009-.006-.008-.006-.009-.005-.01-.006-.008-.006-.01-.005-.009-.005-.009-.005-.009-.004-.009-.005-.01-.004-.009-.004-.009-.004-.01-.004-.01-.003-.009-.003-.01-.003-.01-.003-.01-.003-.01-.002-.011-.003-.011-.002-.011-.002-.01-.001-.011-.002-.012-.001-.011-.001-.012-.001H48.822Z" style="fill:#2d67b9" transform="matrix(.67934 0 0 .37425 48.099 175.709)"/>
        <circle cx="37.462" cy="115.417" r="7.819" style="fill:#2d67b9" transform="translate(45.816 63) scale(1.02318)"/>
        <circle cx="37.462" cy="115.417" r="7.819" style="fill:#2d67b9" transform="translate(69.687 63) scale(1.02318)"/>
        <g>
            <path style="fill:#2d67b9" d="M35.437 82.691h102.046v9.522H35.437z" transform="matrix(1.37116 0 0 1 31.67 123.899)"/>
            <path style="fill:#2d67b9" d="M35.437 82.691h102.046v9.522H35.437z" transform="matrix(1.37116 0 0 1 31.67 123.899)"/>
        </g>
        <g>
            <path d="M208.951 169.32c0-1.287-2.742-2.332-6.12-2.332H162.19c-3.378 0-6.12 1.045-6.12 2.332s2.742 2.332 6.12 2.332h40.641c3.378 0 6.12-1.045 6.12-2.332Z" style="fill:#2d67b9" transform="matrix(.38108 0 0 1 144.69 7.04)"/>
            <path d="m178.111 167.145-.136.237-.12.239-.104.238-.089.242-.073.244-.056.242-.041.244-.025.244-.008.245.008.244.025.244.041.245.056.241.073.244.089.242.104.238.12.239.136.238.1.157H162.19l-.158-.001-.157-.002-.156-.004-.155-.005-.153-.007-.153-.008-.151-.01-.15-.011-.149-.012-.147-.014-.146-.015-.144-.016-.143-.018-.142-.019-.139-.02-.138-.022-.137-.022-.134-.024-.133-.026-.131-.026-.129-.027-.128-.029-.125-.03-.123-.031-.121-.032-.119-.033-.117-.034-.114-.035-.112-.036-.11-.037-.108-.039-.105-.039-.102-.04-.1-.041-.098-.041-.095-.043-.092-.044-.09-.044-.086-.046-.084-.046-.081-.047-.079-.047-.075-.049-.072-.049-.069-.05-.066-.051-.063-.051-.06-.052-.056-.053-.053-.053-.05-.054-.047-.054-.043-.055-.039-.056-.036-.056-.033-.057-.028-.057-.025-.057-.022-.058-.017-.059-.014-.059-.01-.059-.006-.06-.002-.06.002-.06.006-.06.01-.06.014-.059.017-.058.022-.058.025-.058.028-.057.033-.057.036-.056.039-.055.043-.056.047-.054.05-.054.053-.053.056-.053.06-.052.063-.051.066-.051.069-.05.072-.049.075-.048.079-.048.081-.047.084-.046.086-.045.09-.045.092-.043.095-.043.098-.042.1-.041.102-.04.105-.039.108-.038.11-.037.112-.037.114-.035.117-.034.119-.033.121-.032.123-.031.125-.03.128-.028.129-.028.131-.026.133-.025.134-.024.137-.023.138-.022.139-.02.142-.019.143-.018.144-.016.146-.015.147-.014.149-.012.15-.011.151-.01.153-.008.153-.006.155-.006.156-.003.157-.003h16.179l-.1.157Zm24.878-.157.157.003.156.003.155.006.153.006.153.008.151.01.15.011.149.012.147.014.146.015.144.016.143.018.142.019.139.02.139.022.136.023.135.024.132.025.131.026.13.028.127.028.125.03.123.031.121.032.119.033.117.034.114.035.112.037.11.037.108.038.105.039.102.04.101.041.097.042.095.043.092.043.09.045.086.045.084.046.081.047.079.048.075.048.072.049.069.05.066.051.063.051.06.052.056.053.054.053.049.054.047.054.043.056.039.055.036.056.033.057.028.057.026.058.021.058.018.058.013.059.01.06.006.06.002.06-.002.06-.006.06-.01.059-.013.059-.018.059-.021.058-.026.057-.028.057-.033.057-.036.056-.039.056-.043.055-.047.054-.049.054-.054.053-.056.053-.06.052-.063.051-.066.051-.069.05-.072.049-.075.049-.079.047-.081.047-.084.046-.086.046-.09.044-.092.044-.095.043-.097.041-.101.041-.102.04-.105.039-.108.039-.11.037-.112.036-.114.035-.117.034-.119.033-.121.032-.123.031-.125.03-.127.029-.13.027-.131.026-.132.026-.135.024-.136.022-.139.022-.139.02-.142.019-.143.018-.144.016-.146.015-.147.014-.149.012-.15.011-.151.01-.153.008-.153.007-.155.005-.156.004-.157.002-.158.001H186.81l.1-.157.135-.236.121-.241.105-.239.088-.241.073-.242.057-.243.04-.245.025-.246.008-.242-.008-.243-.025-.246-.04-.244-.057-.243-.073-.243-.088-.24-.105-.24-.121-.24-.135-.236-.1-.157h16.179Z" style="fill:#2d67b9" transform="matrix(.38108 0 0 1 144.69 7.04)"/>
        </g>
    </g>
    <g>
        <path d="M178.679 120.543v6.552h-67.798v-6.552h67.798Zm0-18.573v6.551h-67.798v-6.551h67.798Zm0-18.574v6.552h-67.798v-6.552h67.798Z" style="fill:#fffefe"/>
        <path d="M178.679 127.095h-67.798v-6.552h67.798v6.552Zm0-18.574h-67.798v-6.551h67.798v6.551Zm0-18.573h-67.798v-6.552h67.798v6.552Z" style="fill:#2d67b9"/>
        <g>
            <path d="M93.88 138.674V56.386h111.576v82.288" style="fill:#4b4b4b;fill-opacity:0;stroke:#2d67b9;stroke-width:12px" transform="translate(.332 2.438)"/>
        </g>
    </g>
</svg>
