<?xml version="1.0" encoding="UTF-8" standalone="no"?>
<svg
   xmlns:dc="http://purl.org/dc/elements/1.1/"
   xmlns:cc="http://creativecommons.org/ns#"
   xmlns:rdf="http://www.w3.org/1999/02/22-rdf-syntax-ns#"
   xmlns:svg="http://www.w3.org/2000/svg"
   xmlns="http://www.w3.org/2000/svg"
   id="svg6478"
   style="clip-rule:evenodd;fill-rule:evenodd;stroke-linejoin:round;stroke-miterlimit:1.41420996"
   xml:space="preserve"
   version="1.1"
   viewBox="0 0 60 60"
   height="60"
   width="60"><metadata
     id="metadata6484"><rdf:RDF><cc:Work
         rdf:about=""><dc:format>image/svg+xml</dc:format><dc:type
           rdf:resource="http://purl.org/dc/dcmitype/StillImage" /><dc:title></dc:title></cc:Work></rdf:RDF></metadata><defs
     id="defs6482" /><g
     transform="matrix(0.19993327,0,0,0.19990235,0.01465042,0.01464815)"
     id="g6476"><g
       id="Background"><g
         id="g6449"><path
           id="path6445"
           style="fill:#ffffff"
           d="M 300,30.271 C 300,13.564 286.436,0 269.729,0 H 30.271 C 13.564,0 0,13.564 0,30.271 V 269.729 C 0,286.436 13.564,300 30.271,300 H 269.729 C 286.436,300 300,286.436 300,269.729 Z" /><path
           id="path6447"
           d="m 269.925,0.001 c 16.09972,-0.31510169 30.49384,14.17259 30.075,30.27 -0.1061,80.84884 0.21081,161.71193 -0.156,242.552 C 298.61375,288.46369 283.6522,301.15677 268.03194,300 187.74879,299.89388 107.45138,300.21085 27.177,299.844 11.536306,298.61375 -1.1567723,283.6522 0,268.03194 0.10612413,187.74879 -0.21084904,107.45138 0.156,27.177 1.3862455,11.536306 16.347799,-1.1567723 31.968056,0 111.28704,6.6687171e-4 190.60602,-0.00133361 269.925,0.001 Z M 30.296,16 C 21.973925,15.732721 14.968163,23.80142 16,31.993056 16.103721,111.93578 15.794138,191.89863 16.152,271.829 17.110107,279.66576 25.171747,285.14519 32.841585,284 112.50147,283.89626 192.18147,284.20589 271.829,283.848 279.6657,282.88989 285.14515,274.82817 284,267.15842 283.89626,187.49853 284.20589,107.81853 283.848,28.171 282.89006,20.334162 274.82812,14.854983 267.15842,16 188.20428,16 109.25014,16 30.296,16 Z"
           style="fill:#2d67b9" /></g></g><g
       id="g6474"><g
         id="g6456"
         transform="matrix(1.24916,0,0,1.21656,-37.7449,-42.62)"><path
           id="path6452"
           style="fill:#ffffff"
           d="m 222.869,110.307 c 0,-5.707 -4.512,-10.339 -10.069,-10.339 H 87.793 c -5.558,0 -10.069,4.632 -10.069,10.339 v 96.049 c 0,5.706 4.511,10.339 10.069,10.339 H 212.8 c 5.557,0 10.069,-4.633 10.069,-10.339 z" /><path
           id="path6454"
           d="m 212.93,99.969 c 5.88616,-0.0725 10.6032,5.7273 9.939,11.45891 -0.0548,32.08022 0.10901,64.16944 -0.081,96.24409 -0.52296,5.52616 -5.99845,9.76302 -11.48255,9.023 -41.55526,-0.0456 -83.11761,0.091 -124.66845,-0.068 -5.630402,-0.53849 -9.623061,-6.29065 -8.913,-11.76555 0.05476,-31.95566 -0.109023,-63.92042 0.081,-95.87045 0.521618,-5.5264 5.998361,-9.764635 11.482549,-9.023 C 130.5017,99.968667 171.71586,99.9667 212.93,99.969 Z M 90.532,113.12 c 0,30.141 0,60.282 0,90.423 39.843,0 79.686,0 119.529,0 0,-30.141 0,-60.282 0,-90.423 -39.843,0 -79.686,0 -119.529,0 z"
           style="fill:#2d67b9" /></g><g
         id="g6460"
         transform="matrix(0,1,-0.187648,0,177.361,8.71835)"><rect
           id="rect6458"
           style="fill:#2d67b9"
           height="56.608002"
           width="16.014"
           y="117.507"
           x="104.624" /></g><g
         id="g6464"
         transform="matrix(0,1,-0.187648,0,157.74,8.71835)"><rect
           id="rect6462"
           style="fill:#2d67b9"
           height="56.608002"
           width="16.014"
           y="117.507"
           x="104.624" /></g><g
         id="g6468"
         transform="matrix(0,1,-0.187648,0,196.949,8.71835)"><rect
           id="rect6466"
           style="fill:#2d67b9"
           height="56.608002"
           width="16.014"
           y="117.507"
           x="104.624" /></g><g
         id="g6472"
         transform="translate(0,0.346175)"><path
           id="path6470"
           style="fill:#2d67b9"
           d="M 200.03,177.958 H 184.015 164.31 v 8.007 h -28.573 v -8.007 h -19.705 v -16.014 h 19.658 v 8.007 h 28.62 v -8.007 h 19.705 v -48.601 h 16.015 z m -83.998,0 h -16.015 v -64.615 h 16.015 z" /></g></g></g></svg>
