<svg width="60" height="60" viewBox="0 0 300 300" xmlns="http://www.w3.org/2000/svg" xml:space="preserve" style="fill-rule:evenodd;clip-rule:evenodd;stroke-linejoin:round;stroke-miterlimit:2">
    <path d="M300 30.271C300 13.564 286.436 0 269.729 0H30.271C13.564 0 0 13.564 0 30.271v239.458C0 286.436 13.564 300 30.271 300h239.458C286.436 300 300 286.436 300 269.729V30.271Z" style="fill:#fffefe"/>
    <path d="M300 30.271C300 13.564 286.436 0 269.729 0H30.271C13.564 0 0 13.564 0 30.271v239.458C0 286.436 13.564 300 30.271 300h239.458C286.436 300 300 286.436 300 269.729V30.271Zm-16 0v239.458c0 7.877-6.394 14.271-14.271 14.271H30.271C22.394 284 16 277.606 16 269.729V30.271C16 22.394 22.394 16 30.271 16h239.458C277.606 16 284 22.394 284 30.271Z" style="fill:#2d67b9"/>
    <path d="M150 249.903c-.086-.04-30.412-14.295-53.338-55.6-29.634-53.39-28.051-117.842-28.051-117.842 54.804.78 81.333-26.339 81.389-26.397.056.058 26.585 27.177 81.389 26.397 0 0 1.583 64.452-28.051 117.842-22.958 41.363-53.338 55.6-53.338 55.6Zm0-15.901c-.073-.034-25.95-12.111-45.511-47.106-25.286-45.234-23.936-99.839-23.936-99.839 46.763.66 69.399-22.316 69.447-22.365.048.049 22.684 23.025 69.447 22.365 0 0 1.35 54.605-23.936 99.839C175.922 221.94 150 234.002 150 234.002Zm0-157.05c-9.547 6.869-29.294 17.803-59.765 19.415.785 16.767 4.612 53.811 22.546 85.894 13.336 23.858 29.768 36.145 37.219 40.83 7.448-4.683 23.881-16.969 37.219-40.83 17.934-32.083 21.761-69.127 22.546-85.894-30.468-1.611-50.217-12.545-59.765-19.415Z" style="fill:#2d67b9"/>
</svg>
