<?xml version="1.0" encoding="UTF-8" standalone="no"?>
<svg
   xmlns:dc="http://purl.org/dc/elements/1.1/"
   xmlns:cc="http://creativecommons.org/ns#"
   xmlns:rdf="http://www.w3.org/1999/02/22-rdf-syntax-ns#"
   xmlns:svg="http://www.w3.org/2000/svg"
   xmlns="http://www.w3.org/2000/svg"
   id="svg1278"
   style="clip-rule:evenodd;fill-rule:evenodd;stroke-linejoin:round;stroke-miterlimit:1.41420996"
   xml:space="preserve"
   version="1.1"
   viewBox="0 0 60 60"
   height="60"
   width="60"><metadata
     id="metadata1284"><rdf:RDF><cc:Work
         rdf:about=""><dc:format>image/svg+xml</dc:format><dc:type
           rdf:resource="http://purl.org/dc/dcmitype/StillImage" /><dc:title></dc:title></cc:Work></rdf:RDF></metadata><defs
     id="defs1282" /><g
     transform="matrix(0.19993327,0,0,0.19990235,0.01465042,0.01464815)"
     id="Background"><path
       id="path1263"
       style="fill:#ffffff"
       d="M 300,30.271 C 300,13.564 286.436,0 269.729,0 H 30.271 C 13.564,0 0,13.564 0,30.271 V 269.729 C 0,286.436 13.564,300 30.271,300 H 269.729 C 286.436,300 300,286.436 300,269.729 Z" /><path
       id="path1265"
       d="m 269.925,0.001 c 16.09696,-0.31216393 30.49109,14.175131 30.075,30.27 -0.1061,80.84884 0.21081,161.71193 -0.156,242.552 C 298.61375,288.46369 283.6522,301.15677 268.03194,300 187.74879,299.89388 107.45138,300.21085 27.177,299.844 11.536306,298.61375 -1.1567723,283.6522 0,268.03194 0.10612413,187.74879 -0.21084904,107.45138 0.156,27.177 1.3862455,11.536306 16.347799,-1.1567723 31.968056,0 111.28704,6.6687171e-4 190.60602,-0.00133361 269.925,0.001 Z M 30.296,16 C 22.026584,15.736215 15.016126,23.717706 16,31.873056 16.111802,111.88482 15.777588,191.91917 16.165,271.917 17.162233,279.66957 25.119109,285.09897 32.721585,284 112.42148,283.89656 192.14146,284.20549 271.829,283.848 279.6657,282.88989 285.14515,274.82817 284,267.15842 283.89626,187.49853 284.20589,107.81853 283.848,28.171 282.89006,20.334162 274.82812,14.854983 267.15842,16 188.20428,16 109.25014,16 30.296,16 Z"
       style="fill:#2d67b9" /><g
       id="g1275"
       transform="matrix(1.39313,0,0,1.36562,-57.8788,-42.7303)"><g
         id="g1269"
         transform="matrix(0,1.27181,-1,0,273.793,2.09675)"><path
           id="path1267"
           style="fill:#2d67b9"
           d="m 109.312,94.325 c 3.619,0.088 45.805,88.817 38.703,88.779 -13.302,-0.072 -64.103,-0.062 -77.406,0 -7.05,0.032 35.013,-88.868 38.703,-88.779 z" /></g><g
         id="g1273"
         transform="translate(25.7657,-5.8894)"><path
           id="path1271"
           style="fill:#2d67b9"
           d="m 181.98,97.718 c 0,-1.113 -0.885,-2.016 -1.976,-2.016 H 165 c -1.09,0 -1.975,0.903 -1.975,2.016 v 98.603 c 0,1.113 0.885,2.016 1.975,2.016 h 15.004 c 1.091,0 1.976,-0.903 1.976,-2.016 z" /></g></g></g></svg>
