<?xml version="1.0" encoding="UTF-8" standalone="no"?>
<svg
   xmlns:dc="http://purl.org/dc/elements/1.1/"
   xmlns:cc="http://creativecommons.org/ns#"
   xmlns:rdf="http://www.w3.org/1999/02/22-rdf-syntax-ns#"
   xmlns:svg="http://www.w3.org/2000/svg"
   xmlns="http://www.w3.org/2000/svg"
   id="svg1257"
   style="clip-rule:evenodd;fill-rule:evenodd;stroke-linejoin:round;stroke-miterlimit:1.41420996"
   xml:space="preserve"
   version="1.1"
   viewBox="0 0 60 60"
   height="60"
   width="60"><metadata
     id="metadata1263"><rdf:RDF><cc:Work
         rdf:about=""><dc:format>image/svg+xml</dc:format><dc:type
           rdf:resource="http://purl.org/dc/dcmitype/StillImage" /><dc:title></dc:title></cc:Work></rdf:RDF></metadata><defs
     id="defs1261" /><g
     transform="matrix(0.19993327,0,0,0.19990235,0.01465042,0.01464815)"
     id="g1255"><g
       id="Background"><g
         id="g1247"><path
           id="path1243"
           style="fill:#ffffff"
           d="M 300,30.271 C 300,13.564 286.436,0 269.729,0 H 30.271 C 13.564,0 0,13.564 0,30.271 V 269.729 C 0,286.436 13.564,300 30.271,300 H 269.729 C 286.436,300 300,286.436 300,269.729 Z" /><path
           id="path1245"
           d="m 269.925,0.001 c 16.09972,-0.31510169 30.49384,14.17259 30.075,30.27 -0.1061,80.84884 0.21081,161.71193 -0.156,242.552 C 298.61375,288.46369 283.6522,301.15677 268.03194,300 187.74879,299.89388 107.45138,300.21085 27.177,299.844 11.536306,298.61375 -1.1567723,283.6522 0,268.03194 0.10612413,187.74879 -0.21084904,107.45138 0.156,27.177 1.3862455,11.536306 16.347799,-1.1567723 31.968056,0 111.28704,6.6687171e-4 190.60602,-0.00133361 269.925,0.001 Z M 30.296,16 C 21.973925,15.732721 14.968163,23.80142 16,31.993056 16.103721,111.93578 15.794138,191.89863 16.152,271.829 17.110107,279.66576 25.171747,285.14519 32.841585,284 112.50147,283.89626 192.18147,284.20589 271.829,283.848 279.6657,282.88989 285.14515,274.82817 284,267.15842 283.89626,187.49853 284.20589,107.81853 283.848,28.171 282.89006,20.334162 274.82812,14.854983 267.15842,16 188.20428,16 109.25014,16 30.296,16 Z"
           style="fill:#2d67b9" /></g></g><g
       id="g1253"
       transform="matrix(0.79805,0,0,0.79805,30.2925,30.2925)"><g
         id="Layer1"><path
           id="path1250"
           style="fill:#2d67b9"
           d="m 225.468,45.022 c 2.318,-11.406 12.413,-20 24.498,-20 13.798,0 25,11.202 25,25 0,12.086 -8.594,22.18 -20,24.499 v 50.98 c 11.406,2.319 20,12.413 20,24.499 0,12.086 -8.594,22.18 -20,24.499 v 50.98 c 11.406,2.319 20,12.413 20,24.499 0,13.798 -11.202,25 -25,25 -12.085,0 -22.18,-8.594 -24.498,-20 h -50.969 c -2.319,11.406 -12.413,20 -24.499,20 -12.086,0 -22.18,-8.594 -24.499,-20 H 74.532 c -2.318,11.406 -12.413,20 -24.498,20 -13.798,0 -25,-11.202 -25,-25 0,-12.086 8.594,-22.18 20,-24.499 v -50.98 c -11.406,-2.319 -20,-12.413 -20,-24.499 0,-12.086 8.594,-22.18 20,-24.499 v -50.98 c -11.406,-2.319 -20,-12.413 -20,-24.499 0,-13.798 11.202,-25 25,-25 12.085,0 22.18,8.594 24.498,20 h 50.969 c 2.319,-11.406 12.413,-20 24.499,-20 12.086,0 22.18,8.594 24.499,20 z m 0,109.978 h -50.969 c -1.99,9.79 -9.709,17.509 -19.499,19.499 v 50.98 c 9.79,1.991 17.509,9.709 19.499,19.499 h 50.969 c 1.99,-9.79 9.709,-17.508 19.498,-19.499 v -50.98 C 235.177,172.509 227.458,164.79 225.468,155 Z m -99.967,0 H 74.532 c -1.99,9.79 -9.709,17.509 -19.498,19.499 v 50.98 c 9.789,1.991 17.508,9.709 19.498,19.499 h 50.969 c 1.99,-9.79 9.709,-17.508 19.499,-19.499 v -50.98 C 135.21,172.509 127.491,164.79 125.501,155 Z M 225.468,55.022 H 174.499 C 172.509,64.812 164.79,72.53 155,74.521 v 50.98 c 9.79,1.99 17.509,9.709 19.499,19.499 h 50.969 c 1.99,-9.79 9.709,-17.509 19.498,-19.499 V 74.521 C 235.177,72.53 227.458,64.812 225.468,55.022 Z m -99.967,0 H 74.532 c -1.99,9.79 -9.709,17.508 -19.498,19.499 v 50.98 c 9.789,1.99 17.508,9.709 19.498,19.499 h 50.969 c 1.99,-9.79 9.709,-17.509 19.499,-19.499 V 74.521 C 135.21,72.53 127.491,64.812 125.501,55.022 Z" /></g></g></g></svg>
