<?xml version="1.0" encoding="UTF-8" standalone="no"?>
<svg
   xmlns:dc="http://purl.org/dc/elements/1.1/"
   xmlns:cc="http://creativecommons.org/ns#"
   xmlns:rdf="http://www.w3.org/1999/02/22-rdf-syntax-ns#"
   xmlns:svg="http://www.w3.org/2000/svg"
   xmlns="http://www.w3.org/2000/svg"
   id="svg8144"
   style="clip-rule:evenodd;fill-rule:evenodd;stroke-linejoin:round;stroke-miterlimit:1.41420996"
   xml:space="preserve"
   version="1.1"
   viewBox="0 0 60 60"
   height="60"
   width="60"><metadata
     id="metadata8150"><rdf:RDF><cc:Work
         rdf:about=""><dc:format>image/svg+xml</dc:format><dc:type
           rdf:resource="http://purl.org/dc/dcmitype/StillImage" /><dc:title></dc:title></cc:Work></rdf:RDF></metadata><defs
     id="defs8148" /><g
     transform="matrix(0.19993327,0,0,0.19990235,0.01465042,0.01464815)"
     id="g8142"><g
       id="Background"><g
         id="g8129"><path
           id="path8125"
           style="fill:#ffffff"
           d="M 300,30.271 C 300,13.564 286.436,0 269.729,0 H 30.271 C 13.564,0 0,13.564 0,30.271 V 269.729 C 0,286.436 13.564,300 30.271,300 H 269.729 C 286.436,300 300,286.436 300,269.729 Z" /><path
           id="path8127"
           d="m 269.925,0.001 c 16.09972,-0.31510169 30.49384,14.17259 30.075,30.27 -0.1061,80.84884 0.21081,161.71193 -0.156,242.552 C 298.61375,288.46369 283.6522,301.15677 268.03194,300 187.74879,299.89388 107.45138,300.21085 27.177,299.844 11.536306,298.61375 -1.1567723,283.6522 0,268.03194 0.10612413,187.74879 -0.21084904,107.45138 0.156,27.177 1.3862455,11.536306 16.347799,-1.1567723 31.968056,0 111.28704,6.6687171e-4 190.60602,-0.00133361 269.925,0.001 Z M 30.296,16 C 21.973925,15.732721 14.968163,23.80142 16,31.993056 16.103721,111.93578 15.794138,191.89863 16.152,271.829 17.110107,279.66576 25.171747,285.14519 32.841585,284 112.50147,283.89626 192.18147,284.20589 271.829,283.848 279.6657,282.88989 285.14515,274.82817 284,267.15842 283.89626,187.49853 284.20589,107.81853 283.848,28.171 282.89006,20.334162 274.82812,14.854983 267.15842,16 188.20428,16 109.25014,16 30.296,16 Z"
           style="fill:#2d67b9" /></g></g><g
       id="g8136"
       transform="matrix(1.27352,0,0,1.1454,-41.0584,-50.4053)"><path
         id="path8132"
         style="fill:#ffffff"
         d="m 200.03,111.246 c 0,-6.225 -4.545,-11.278 -10.144,-11.278 h -79.725 c -5.599,0 -10.144,5.053 -10.144,11.278 v 127.44 c 0,6.224 4.545,11.278 10.144,11.278 h 79.725 c 5.599,0 10.144,-5.054 10.144,-11.278 z" /><path
         id="path8134"
         d="m 190.017,99.969 c 6.07657,0.01857 10.48835,6.22192 10.013,11.98531 -0.0449,42.67446 0.0896,85.35504 -0.067,128.02569 -0.37682,5.54796 -5.40106,10.6127 -11.13947,9.984 -26.60811,-0.0501 -53.22461,0.0997 -79.82753,-0.074 -5.91361,-0.71077 -9.60422,-6.99804 -8.979,-12.62063 0.0449,-42.43869 -0.08962,-84.88349 0.067,-127.31837 0.37687,-5.54738 5.40135,-10.612999 11.13947,-9.983 26.26451,6.67e-4 52.52903,-0.0013 78.79353,10e-4 z m -77.436,13.968 c 0,40.686 0,81.372 0,122.058 24.96167,0 49.92333,0 74.885,0 0,-40.686 0,-81.372 0,-122.058 -24.96167,0 -49.92333,0 -74.885,0 z"
         style="fill:#2d67b9" /></g><g
       id="g8140"
       transform="matrix(0.534164,0,0,0.534164,69.8754,159.173)"><circle
         id="circle8138"
         style="fill:#ffffff"
         r="9.3599997"
         cy="128.591"
         cx="150" /></g></g></svg>
