<?xml version="1.0" encoding="UTF-8" standalone="no"?>
<svg
   xmlns:dc="http://purl.org/dc/elements/1.1/"
   xmlns:cc="http://creativecommons.org/ns#"
   xmlns:rdf="http://www.w3.org/1999/02/22-rdf-syntax-ns#"
   xmlns:svg="http://www.w3.org/2000/svg"
   xmlns="http://www.w3.org/2000/svg"
   id="svg8649"
   style="clip-rule:evenodd;fill-rule:evenodd;stroke-linejoin:round;stroke-miterlimit:1.41420996"
   xml:space="preserve"
   version="1.1"
   viewBox="0 0 60 60"
   height="60"
   width="60"><metadata
     id="metadata8655"><rdf:RDF><cc:Work
         rdf:about=""><dc:format>image/svg+xml</dc:format><dc:type
           rdf:resource="http://purl.org/dc/dcmitype/StillImage" /><dc:title></dc:title></cc:Work></rdf:RDF></metadata><defs
     id="defs8653" /><g
     transform="matrix(0.19993327,0,0,0.19990235,0.01465042,0.01464815)"
     id="g8647"><g
       id="Background"><g
         id="g8640"><path
           id="path8636"
           style="fill:#ffffff"
           d="M 300,30.271 C 300,13.564 286.436,0 269.729,0 H 30.271 C 13.564,0 0,13.564 0,30.271 V 269.729 C 0,286.436 13.564,300 30.271,300 H 269.729 C 286.436,300 300,286.436 300,269.729 Z" /><path
           id="path8638"
           d="m 269.925,0.001 c 16.09972,-0.31510169 30.49384,14.17259 30.075,30.27 -0.1061,80.84884 0.21081,161.71193 -0.156,242.552 C 298.61375,288.46369 283.6522,301.15677 268.03194,300 187.74879,299.89388 107.45138,300.21085 27.177,299.844 11.536306,298.61375 -1.1567723,283.6522 0,268.03194 0.10612413,187.74879 -0.21084904,107.45138 0.156,27.177 1.3862455,11.536306 16.347799,-1.1567723 31.968056,0 111.28704,6.6687171e-4 190.60602,-0.00133361 269.925,0.001 Z M 30.296,16 C 21.973925,15.732721 14.968163,23.80142 16,31.993056 16.103721,111.93578 15.794138,191.89863 16.152,271.829 17.110107,279.66576 25.171747,285.14519 32.841585,284 112.50147,283.89626 192.18147,284.20589 271.829,283.848 279.6657,282.88989 285.14515,274.82817 284,267.15842 283.89626,187.49853 284.20589,107.81853 283.848,28.171 282.89006,20.334162 274.82812,14.854983 267.15842,16 188.20428,16 109.25014,16 30.296,16 Z"
           style="fill:#2d67b9" /></g></g><g
       id="g8645"
       transform="translate(16.3907,22.5864)"><path
         id="path8643"
         style="fill:#2d67b9"
         d="m 133.609,114.97 c 5.797,-7.117 14.629,-11.665 24.514,-11.665 9.883,0 18.712,4.546 24.509,11.659 5.797,-7.113 14.627,-11.659 24.51,-11.659 14.858,0 27.336,10.276 30.707,24.103 h 0.002 l -0.001,0.006 0.001,0.005 h -0.002 c -3.371,13.827 -15.849,24.104 -30.707,24.104 -9.883,0 -18.713,-4.546 -24.51,-11.66 -5.797,7.114 -14.626,11.66 -24.509,11.66 -9.885,0 -18.717,-4.549 -24.514,-11.665 -5.797,7.116 -14.628,11.665 -24.514,11.665 -9.882,0 -18.712,-4.546 -24.509,-11.66 -5.797,7.114 -14.626,11.66 -24.509,11.66 -14.859,0 -27.336,-10.277 -30.707,-24.104 h -0.003 l 0.002,-0.005 -0.002,-0.006 h 0.003 c 3.371,-13.827 15.848,-24.103 30.707,-24.103 9.883,0 18.712,4.546 24.509,11.659 5.797,-7.113 14.627,-11.659 24.509,-11.659 9.886,0 18.717,4.548 24.514,11.665 z m 42.824,12.438 c -2.958,-7.204 -10.045,-12.283 -18.31,-12.283 -8.266,0 -15.356,5.082 -18.312,12.289 2.956,7.207 10.046,12.288 18.312,12.288 8.265,0 15.353,-5.079 18.31,-12.283 h -0.001 l 0.001,-0.005 -0.001,-0.006 z m 12.399,0.011 c 2.957,7.204 10.045,12.283 18.31,12.283 8.266,0 15.356,-5.081 18.312,-12.288 -2.956,-7.207 -10.046,-12.289 -18.312,-12.289 -8.265,0 -15.352,5.079 -18.31,12.283 h 0.001 l -0.001,0.006 0.001,0.005 z M 78.387,127.408 c -2.958,-7.204 -10.045,-12.283 -18.31,-12.283 -8.267,0 -15.356,5.082 -18.312,12.289 2.956,7.207 10.045,12.288 18.312,12.288 8.265,0 15.352,-5.079 18.31,-12.283 h -0.001 l 0.001,-0.005 -0.001,-0.006 z m 12.399,0.011 c 2.957,7.204 10.045,12.283 18.309,12.283 8.267,0 15.356,-5.081 18.312,-12.288 -2.956,-7.207 -10.045,-12.289 -18.312,-12.289 -8.264,0 -15.351,5.079 -18.309,12.283 h 0.001 l -0.002,0.006 0.002,0.005 z" /></g></g></svg>
