<?xml version="1.0" encoding="UTF-8" standalone="no"?>
<svg
   xmlns:dc="http://purl.org/dc/elements/1.1/"
   xmlns:cc="http://creativecommons.org/ns#"
   xmlns:rdf="http://www.w3.org/1999/02/22-rdf-syntax-ns#"
   xmlns:svg="http://www.w3.org/2000/svg"
   xmlns="http://www.w3.org/2000/svg"
   id="svg8781"
   style="clip-rule:evenodd;fill-rule:evenodd;stroke-linejoin:round;stroke-miterlimit:1.41420996"
   xml:space="preserve"
   version="1.1"
   viewBox="0 0 60 60"
   height="60"
   width="60"><metadata
     id="metadata8787"><rdf:RDF><cc:Work
         rdf:about=""><dc:format>image/svg+xml</dc:format><dc:type
           rdf:resource="http://purl.org/dc/dcmitype/StillImage" /><dc:title></dc:title></cc:Work></rdf:RDF></metadata><defs
     id="defs8785" /><g
     transform="matrix(0.19993327,0,0,0.19990235,0.01465042,0.01464815)"
     id="g8779"><g
       id="Background"><g
         id="g8764"><path
           id="path8760"
           style="fill:#ffffff"
           d="M 300,30.271 C 300,13.564 286.436,0 269.729,0 H 30.271 C 13.564,0 0,13.564 0,30.271 V 269.729 C 0,286.436 13.564,300 30.271,300 H 269.729 C 286.436,300 300,286.436 300,269.729 Z" /><path
           id="path8762"
           d="m 269.925,0.001 c 16.09972,-0.31510169 30.49384,14.17259 30.075,30.27 -0.1061,80.84884 0.21081,161.71193 -0.156,242.552 C 298.61375,288.46369 283.6522,301.15677 268.03194,300 187.74879,299.89388 107.45138,300.21085 27.177,299.844 11.536306,298.61375 -1.1567723,283.6522 0,268.03194 0.10612413,187.74879 -0.21084904,107.45138 0.156,27.177 1.3862455,11.536306 16.347799,-1.1567723 31.968056,0 111.28704,6.6687171e-4 190.60602,-0.00133361 269.925,0.001 Z M 30.296,16 C 21.973925,15.732721 14.968163,23.80142 16,31.993056 16.103721,111.93578 15.794138,191.89863 16.152,271.829 17.110107,279.66576 25.171747,285.14519 32.841585,284 112.50147,283.89626 192.18147,284.20589 271.829,283.848 279.6657,282.88989 285.14515,274.82817 284,267.15842 283.89626,187.49853 284.20589,107.81853 283.848,28.171 282.89006,20.334162 274.82812,14.854983 267.15842,16 188.20428,16 109.25014,16 30.296,16 Z"
           style="fill:#2d67b9" /></g></g><g
       id="g8777"><g
         id="g8771"
         transform="translate(16.2706,26.0628)"><path
           id="path8767"
           style="fill:#2d67b9;fill-rule:nonzero"
           d="m 47.137,123.841 33.504,-19.584 c 1.248,-0.672 1.728,-1.728 1.728,-2.88 0,-0.768 -0.192,-1.536 -0.576,-2.208 -0.576,-1.248 -1.728,-2.4 -3.264,-2.4 -0.48,0 -1.152,0.192 -1.728,0.576 l -35.232,21.024 c -2.496,1.536 -3.648,2.88 -3.648,5.568 0,2.592 1.152,3.936 3.552,5.28 l 35.232,21.312 c 0.576,0.384 1.248,0.576 1.824,0.576 1.44,0 2.592,-1.056 3.264,-2.4 0.288,-0.672 0.48,-1.44 0.48,-2.112 0,-1.152 -0.48,-2.208 -1.632,-2.976 z" /><path
           id="path8769"
           style="fill:#2d67b9;fill-rule:nonzero"
           d="m 220.321,123.841 -33.504,19.776 c -1.248,0.768 -1.728,1.824 -1.728,2.976 0,0.672 0.192,1.44 0.48,2.112 0.672,1.344 1.824,2.4 3.36,2.4 0.576,0 1.152,-0.192 1.728,-0.576 l 35.328,-21.312 c 2.304,-1.344 3.552,-2.688 3.552,-5.28 0,-2.688 -1.248,-4.032 -3.648,-5.568 L 190.657,97.345 c -0.576,-0.384 -1.248,-0.576 -1.824,-0.576 -1.44,0 -2.688,1.152 -3.264,2.4 -0.288,0.672 -0.48,1.44 -0.48,2.112 0,1.152 0.48,2.208 1.728,2.976 z" /></g><g
         id="g8775"
         transform="translate(16.3186,29.5188)"><path
           id="path8773"
           style="fill:#2d67b9;fill-rule:nonzero"
           d="m 153.553,79.393 c 0.192,-0.576 0.288,-1.056 0.288,-1.536 0,-1.44 -0.96,-2.592 -2.592,-3.168 -0.576,-0.192 -1.152,-0.288 -1.728,-0.288 -1.536,0 -2.784,0.864 -3.36,2.4 l -32.352,84.864 c -0.192,0.48 -0.288,0.96 -0.288,1.44 0,1.44 1.056,2.4 2.784,3.072 0.672,0.288 1.248,0.384 1.824,0.384 1.44,0 2.496,-0.768 3.072,-2.4 z" /></g></g></g></svg>
